<?xml version="1.0"?>
<svg xmlns="http://www.w3.org/2000/svg" height="200pt" preserveAspectRatio="xMidYMid meet" viewBox="0 0 200 200" width="200pt">
  <g transform="matrix(.1 0 0 -.1 0 200)">
    <path d="m720 1696c-13-35-50-231-50-266 0-28-1-28-127-59-134-32-161-48-142-82 13-25 55-24 164 1 47 11 88 20 90 20 3 0 5-51 5-112 0-62 5-155 10-207l10-93-70-65c-120-112-210-256-210-340 0-37 7-50 61-111 33-39 74-76 90-82 51-22 128 10 227 94 24 20 46 36 49 36s25-23 50-51c51-55 89-64 104-22 6 18-1 34-37 83l-46 60 30 37c99 128 157 234 202 367l22 68 71-7c121-12 193-40 252-98 59-59 80-117 73-195-10-100-60-157-213-239-56-31-70-43-70-62 0-13 9-30 21-37 18-12 28-10 92 21 198 95 270 195 260 363-10 173-128 288-333 327-42 8-90 15-106 15-26 0-29 3-29 34 0 52-42 85-68 53-6-7-14-31-18-54-6-40-6-41-58-47-57-6-135-31-209-66-26-12-50-20-53-17s-8 88-11 189l-6 184 139 27c76 15 173 31 215 36 92 11 119 23 119 56 0 43-27 47-172 25-73-11-168-29-212-39l-78-19 7 62c3 33 13 94 22 134 16 81 10 102-33 102-17 0-27-8-34-24zm326-763c-13-53-87-196-138-267-61-86-57-80-62-75-8 8-53 173-60 220l-7 46 69 36c62 33 153 65 191 66 9 1 11-7 7-26zm-288-369 21-52-63-51c-35-28-79-58-99-66l-34-14-48 52c-39 43-46 56-41 81 10 50 67 138 135 209l65 68 22-88c12-48 31-111 42-139z"/>
  </g>
</svg>
