<?xml version="1.0"?>
<svg xmlns="http://www.w3.org/2000/svg" height="200pt" preserveAspectRatio="xMidYMid meet" viewBox="0 0 200 200" width="200pt">
  <g transform="matrix(.1 0 0 -.1 0 200)">
    <path d="m457 1328c-55-43-59-272-7-451 41-143 122-296 203-384 58-63 90-57 132 27 10 19 40 68 66 109 27 40 46 77 43 82-14 23-47 3-114-67-40-42-75-72-79-67-3 5-20 29-37 53-127 182-185 434-148 641 4 26 2 40-11 52-20 20-26 21-48 5z"/>
    <path d="m1359 1264c-11-13-10-23 5-63 75-189 126-396 126-511 0-62 15-90 49-90 32 0 41 22 41 101 0 133-53 352-120 497-33 70-42 82-63 82-14 0-31-7-38-16z"/>
  </g>
</svg>
