<?xml version="1.0"?>
<svg xmlns="http://www.w3.org/2000/svg" height="200pt" preserveAspectRatio="xMidYMid meet" viewBox="0 0 200 200" width="200pt">
  <g transform="matrix(.1 0 0 -.1 0 200)">
    <path d="m802 1698c-35-35-3-84 120-182 90-72 108-80 137-59 37 25 25 48-61 116-46 36-99 81-117 101-36 38-59 44-79 24z"/>
    <path d="m872 1300c-90-12-270-63-290-84-13-12-13-20-4-41 15-32 27-32 178 6 115 28 136 30 267 27 156-3 201-16 240-70 60-81 13-303-98-466-61-90-201-250-252-287-46-33-58-54-48-85 15-47 92-13 182 81 218 230 320 419 331 615 8 158-36 235-164 284-68 26-219 35-342 20z"/>
  </g>
</svg>
