<?xml version="1.0"?>
<svg xmlns="http://www.w3.org/2000/svg" height="200pt" preserveAspectRatio="xMidYMid meet" viewBox="0 0 200 200" width="200pt">
  <g transform="matrix(.1 0 0 -.1 0 200)">
    <path d="m722 1718c-24-24-12-58 35-110 60-63 189-168 208-168 20 0 47 44 39 63-3 9-36 41-72 71-37 30-89 77-115 105-49 51-73 61-95 39z"/>
    <path d="m1090 1313c-14-2-109-24-213-49-103-25-218-47-255-51-76-7-92-15-92-49 0-56 92-56 326 1 81 19 149 34 151 32 1-2-31-48-72-103-42-54-101-132-131-172-71-93-250-308-346-412-87-97-103-123-89-149 16-29 42-34 71-13 14 10 66 66 115 123 104 121 167 177 240 216 70 36 96 26 115-44 25-95 75-187 121-226 60-52 151-95 227-108 108-19 265 13 365 74 56 35 70 69 39 99l-20 21-34-21c-18-12-45-28-60-37-46-26-139-45-223-45-68 0-89 4-142 29-96 46-137 93-169 198-39 127-64 157-144 171l-40 7 51 65c181 234 289 384 289 400 0 17-36 52-50 49-3-1-16-4-30-6z"/>
  </g>
</svg>
