<?xml version="1.0"?>
<svg xmlns="http://www.w3.org/2000/svg" height="200pt" preserveAspectRatio="xMidYMid meet" viewBox="0 0 200 200" width="200pt">
  <g transform="matrix(.1 0 0 -.1 0 200)">
    <path d="m639 1693c-10-12-13-43-11-119l2-102-27-6c-16-3-70-13-122-22-79-15-95-21-104-41s-7-28 11-45c21-22 22-22 110-5 126 24 128 24 136-20 3-21 9-139 12-263l6-225-68-37c-101-53-154-95-170-134-13-32-13-42 1-89 12-41 31-70 87-130 102-109 179-143 212-92 17 25 36 207 36 338v85l48 17c105 38 227 58 383 64 178 7 236-3 299-48 78-57 98-124 60-198-29-58-113-145-167-172-37-19-49-31-51-52-3-21 3-29 22-39 22-9 34-8 77 12 63 30 166 137 202 210 74 148-5 302-187 363-37 13-86 17-192 17-162 0-256-11-393-46-52-13-96-23-97-21-8 8-29 493-22 498 5 3 62 14 126 23 64 10 123 23 130 28 21 18 14 57-13 70-19 9-48 8-128-5-56-10-107-17-113-17-7 0-14 35-19 95-7 94-19 125-49 125-8 0-20-7-27-17zm6-1193-7-55-64 67c-62 66-82 103-71 132 3 8 36 32 74 55l68 41 3-93c2-50 0-117-3-147z"/>
    <path d="m1292 1584c-37-26-26-51 51-122 39-37 98-93 130-124 32-32 66-58 76-58 40 0 54 47 25 88-18 26-218 208-243 222-13 6-24 4-39-6z"/>
  </g>
</svg>
