<?xml version="1.0"?>
<svg xmlns="http://www.w3.org/2000/svg" height="200pt" preserveAspectRatio="xMidYMid meet" viewBox="0 0 200 200" width="200pt">
  <g transform="matrix(.1 0 0 -.1 0 200)">
    <path d="m848 1593c-8-10-30-74-47-142-50-190-32-171-158-172-136 0-202-11-220-35-17-23-16-29 2-47 12-12 40-14 160-10 80 3 145 3 145 0s-21-65-46-139c-90-263-172-542-164-562 4-11 14-25 23-30 29-18 51 7 75 85 13 41 63 198 113 349 49 151 89 281 89 289 0 21 154 9 211-16 53-24 112-86 130-139 29-82 9-358-36-512l-16-52-35 19c-73 39-90-14-24-73 45-41 96-49 122-18 62 70 120 486 88 623-17 71-33 102-83 157-51 55-139 99-216 107-31 3-68 8-82 11l-27 5 34 132c39 154 39 151 18 171-20 21-37 20-56-1z"/>
    <path d="m1332 1508c-6-6-12-19-12-27 0-21 260-412 282-425 13-8 23-8 35 0 40 25 28 55-110 260-106 158-139 200-158 202-13 2-30-3-37-10z"/>
  </g>
</svg>
