<?xml version="1.0"?>
<svg xmlns="http://www.w3.org/2000/svg" height="200pt" preserveAspectRatio="xMidYMid meet" viewBox="0 0 200 200" width="200pt">
  <g transform="matrix(.1 0 0 -.1 0 200)">
    <path d="m776 1674c-11-28-6-46 25-96 16-28 29-52 27-54s-71-23-153-48c-84-25-157-53-168-64-22-23-16-58 12-67 11-3 86 14 167 38 82 24 160 47 174 50 24 6 29-1 83-102l57-109-97-33c-120-39-411-155-430-170-20-17-16-57 8-69 17-10 43-2 152 40 189 75 375 140 398 140 15 0 37-35 100-162l81-163-27-3c-59-8-39-59 39-97 43-21 59-24 75-16 47 26 36 70-80 310-44 90-78 165-77 166 7 6 249 75 293 85 28 5 60 12 72 15 46 10 52 69 9 84-25 10-138-14-298-63-65-20-120-36-122-36-7 0-119 210-115 215 2 1 58 15 124 30s126 31 133 37c15 13 16 50 0 66-18 18-40 15-176-18-68-16-127-30-132-30s-28 31-52 70c-36 58-48 70-69 70-15 0-29-7-33-16z"/>
    <path d="m650 575c-19-23-4-60 37-93 148-116 289-158 569-169l152-6 16 25c20 30 12 57-18 63-11 2-77 7-146 10-269 13-380 45-519 151-48 37-72 42-91 19z"/>
  </g>
</svg>
