<?xml version="1.0"?>
<svg xmlns="http://www.w3.org/2000/svg" height="200pt" preserveAspectRatio="xMidYMid meet" viewBox="0 0 200 200" width="200pt">
  <g transform="matrix(.1 0 0 -.1 0 200)">
    <path d="m1258 1585c-10-23-1-86 28-196 5-19 8-19-216-49-216-30-214-29-218-68-5-53 22-57 217-27 91 13 182 27 201 30l36 5 12-128c28-291 0-491-95-695-43-91-45-99-30-114 15-16 19-16 53 0 29 14 42 31 69 90 92 199 127 478 93 749-6 54-9 100-6 103 3 4 61 10 128 14 103 6 125 11 136 26 20 27 17 42-11 61-21 14-41 15-118 10-50-4-106-9-123-12l-31-6-23 99c-12 54-26 106-32 116-14 26-56 22-70-8z"/>
    <path d="m483 1528c-14-18-25-669-13-771 13-101 25-159 56-260 33-106 39-117 72-117 49 0 148 121 140 172-5 35-24 32-72-12l-44-41-11 33c-42 130-44 155-50 569-6 426-8 439-51 439-10 0-22-6-27-12z"/>
  </g>
</svg>
