<?xml version="1.0"?>
<svg xmlns="http://www.w3.org/2000/svg" height="200pt" preserveAspectRatio="xMidYMid meet" viewBox="0 0 200 200" width="200pt">
  <g transform="matrix(.1 0 0 -.1 0 200)">
    <path d="m1020 1543c-235-25-461-72-514-106-32-21-35-62-5-77 16-9 29-8 57 3 61 24 218 57 341 73 239 29 475 12 455-35-51-119-53-151-9-151 20 0 33 12 61 56 81 126 78 157-18 198-90 39-229 54-368 39z"/>
    <path d="m480 632c-51-41 18-94 190-145 282-85 555-69 783 45 74 37 94 83 47 108-12 6-35 1-81-22-145-69-192-81-354-86-201-6-339 19-494 89-35 16-65 29-66 29-2 0-13-8-25-18z"/>
  </g>
</svg>
