<?xml version="1.0"?>
<svg xmlns="http://www.w3.org/2000/svg" height="200pt" preserveAspectRatio="xMidYMid meet" viewBox="0 0 200 200" width="200pt">
  <g transform="matrix(.1 0 0 -.1 0 200)">
    <path d="m816 1684c-9-8-16-21-16-27 0-7 25-55 55-107s53-96 51-98-91-24-198-48c-106-25-209-52-228-62-38-19-49-44-29-68 16-19 23-18 271 40 108 25 205 46 215 46 15 0 36-35 91-147 68-141 133-299 154-371 7-27 6-38-7-52-9-10-15-29-13-42 2-18 10-24 36-26 25-3 39 3 63 28 28 27 30 35 24 68-12 65-103 292-172 429-37 73-64 135-62 138 3 3 89 21 190 41 101 19 195 41 209 48 34 16 38 51 8 70-20 12-33 13-98 1-76-14-282-57-332-70-23-6-29-2-44 27-9 18-39 70-67 116-52 85-71 97-101 66z"/>
    <path d="m582 698c-51-51 84-209 243-284 118-57 208-75 405-81 170-5 176-5 194 16 15 17 17 26 9 44-11 23-15 24-185 30-194 7-292 27-393 77-71 36-167 118-201 172-25 39-50 48-72 26z"/>
  </g>
</svg>
