<?xml version="1.0"?>
<svg xmlns="http://www.w3.org/2000/svg" height="200pt" preserveAspectRatio="xMidYMid meet" viewBox="0 0 200 200" width="200pt">
  <g transform="matrix(.1 0 0 -.1 0 200)">
    <path d="m670 1585c-9-11-10-28-4-63 4-26 9-218 10-427 1-406 6-460 55-558 25-49 73-103 111-123 35-18 186-44 257-44 61 0 139 18 187 43 17 9 58 45 91 81 90 95 128 210 84 250-27 25-54 16-65-19-26-89-42-120-87-169-71-78-109-90-257-84-134 6-177 20-215 70-14 18-36 69-48 113-21 77-21 90-14 385 7 325-1 455-32 519-20 40-52 52-73 26z"/>
  </g>
</svg>
