<?xml version="1.0"?>
<svg xmlns="http://www.w3.org/2000/svg" height="200pt" preserveAspectRatio="xMidYMid meet" viewBox="0 0 200 200" width="200pt">
  <g transform="matrix(.1 0 0 -.1 0 200)">
    <path d="m940 1725c-13-15-16-190-5-226 5-15-6-18-82-24-106-8-329-34-361-42-31-7-46-37-32-63 13-24 12-24 182-6 73 8 172 17 221 21l87 6v-49c0-27 3-76 6-110 7-59 6-61-15-55-36 9-108-25-141-67-40-51-57-94-65-166-17-149 65-257 183-239l42 6v-33c0-44-36-191-56-231-9-18-34-54-55-81-42-52-48-76-25-96 28-22 59-6 108 55 56 69 79 125 110 267 19 88 22 132 22 308 0 113-6 269-13 348s-11 145-9 147c2 3 69 9 149 15 237 16 340 31 361 52 22 22 22 28 4 53-14 19-18 19-267-2-139-12-254-21-256-20-1 2-7 52-13 112s-16 115-22 122c-14 17-43 16-58-2zm18-670c15-32 15-80 1-165-12-77-21-90-65-90-48 0-64 28-64 115 0 72 19 123 58 153 26 20 58 14 70-13z"/>
  </g>
</svg>
