<?xml version="1.0"?>
<svg xmlns="http://www.w3.org/2000/svg" height="200pt" preserveAspectRatio="xMidYMid meet" viewBox="0 0 200 200" width="200pt">
  <g transform="matrix(.1 0 0 -.1 0 200)">
    <path d="m1106 1674c-19-19-19-26-1-189 20-178 21-175-12-175-16 0-106-14-201-30-96-17-178-30-183-30-4 0-13 19-19 43-34 140-93 292-116 301-19 7-43-3-54-24-7-13-1-40 20-98 29-79 74-242 68-246-2-2-68-17-147-34-79-18-150-37-157-43-19-15-18-53 1-69 13-10 42-7 162 19 80 17 148 29 151 26 3-2 9-80 14-172 4-93 15-221 23-286 20-160 50-214 140-253 78-35 469-28 672 12 35 7 43 74 10 87-7 2-64-2-127-10-163-20-384-27-465-15-80 13-108 34-124 95-13 52-28 223-37 423l-6 150 158 27c88 15 180 30 207 34l47 6v-173c0-160-1-172-17-165-10 5-29 8-43 9-20 1-26-4-28-25s6-35 39-63c54-46 100-49 126-9 16 24 18 51 16 234l-1 206 141 16c78 9 182 19 231 22 50 4 98 11 108 16 20 11 24 49 6 67s-151 15-323-8c-82-11-155-20-160-20-6 0-19 70-30 166-19 164-28 194-60 194-7 0-21-7-29-16z"/>
  </g>
</svg>
