<?xml version="1.0"?>
<svg xmlns="http://www.w3.org/2000/svg" height="200pt" preserveAspectRatio="xMidYMid meet" viewBox="0 0 200 200" width="200pt">
  <g transform="matrix(.1 0 0 -.1 0 200)">
    <path d="m1175 1669c-145-37-332-69-411-69-56 0-67 3-86 25-44 50-99 19-77-44 18-52 68-74 163-73 81 1 219 20 331 46 33 8 61 13 62 12 5-5-254-236-337-301-180-140-248-188-328-238-92-56-109-76-92-107 14-26 49-26 131 0 66 20 272 70 394 96 39 8 78 17 87 20s-9-22-41-54c-68-70-98-126-112-213-23-137 15-290 92-368 45-48 119-87 189-102 43-9 55-8 75 5 27 18 33 47 12 64-7 6-33 16-59 21-71 16-94 27-137 66-57 52-81 121-81 237 0 109 19 158 90 228 54 55 287 173 389 197 36 9 78 20 93 26 37 13 46 44 19 70-20 21-21 21-123 3-103-18-674-144-693-153-21-10 101 93 190 161 95 73 414 370 442 412 11 17 12 27 3 43-14 28-48 26-185-10z"/>
  </g>
</svg>
