<?xml version="1.0"?>
<svg xmlns="http://www.w3.org/2000/svg" height="200pt" preserveAspectRatio="xMidYMid meet" viewBox="0 0 200 200" width="200pt">
  <g transform="matrix(.1 0 0 -.1 0 200)">
    <path d="m821 1657c-6-7-22-75-37-150l-26-137-37-10c-20-6-83-15-141-21-136-14-154-19-158-47-7-48 13-55 133-49 60 4 125 11 143 16 23 7 32 6 32-2 0-48-112-441-175-617-96-268-94-261-84-288 7-19 15-23 41-20l33 3 83 234c93 261 125 370 173 577l32 141 141 23c87 13 148 28 159 37 33 31 15 73-32 73-15 0-72-7-129-17-56-9-105-13-108-10-4 3 1 47 10 96 19 106 20 153 4 169s-43 15-57-1z"/>
    <path d="m1218 1020c-37-4-92-15-122-24-45-13-57-21-62-42-4-17-1-31 9-41 14-14 24-14 99 0 123 23 225 29 307 17 83-12 111-3 111 35 0 42-35 55-161 60-63 2-144 0-181-5z"/>
    <path d="m985 570c-15-16-16-25-7-44s32-32 109-58c93-31 105-33 244-33 131 0 149 2 168 19 23 21 27 51 9 63-7 4-78 8-158 8-136 0-151 2-241 33-53 17-98 32-101 32s-13-9-23-20z"/>
  </g>
</svg>
