<?xml version="1.0"?>
<svg xmlns="http://www.w3.org/2000/svg" height="200pt" preserveAspectRatio="xMidYMid meet" viewBox="0 0 200 200" width="200pt">
  <g transform="matrix(.1 0 0 -.1 0 200)">
    <path d="m806 1708c-9-12-16-43-16-68s-7-90-15-145-15-103-15-106c0-4-25-10-57-14-72-9-204-43-221-57-17-15-11-58 10-72 12-7 30-7 65 3 26 8 77 19 113 26 63 11 65 11 68-10 3-24-34-354-43-377-3-8 3-25 13-38 22-27 26-26 102 23 31 20 50 22 182 25 117 3 158 0 197-13 101-33 141-92 149-217 4-65 1-84-18-123-12-25-37-57-56-71-45-35-142-64-239-71-102-8-125-16-125-46 0-38 19-47 98-47 149 0 300 55 367 133 51 60 68 121 63 231-9 189-98 287-289 317-78 12-249 6-306-10-31-9-32-8-28 17 2 15 9 74 15 132s13 119 16 136l4 31 98 12c53 6 149 18 212 26s132 14 153 15c65 0 101 60 50 85-24 12-135 5-318-20-60-8-126-17-145-20l-36-5 13 93c17 130 16 198-3 225-8 12-21 22-29 22s-21-10-29-22z"/>
  </g>
</svg>
