<?xml version="1.0"?>
<svg xmlns="http://www.w3.org/2000/svg" height="200pt" preserveAspectRatio="xMidYMid meet" viewBox="0 0 200 200" width="200pt">
  <g transform="matrix(.1 0 0 -.1 0 200)">
    <path d="m815 1314c-419-73-609-155-510-220 17-11 29-9 83 17 67 32 228 73 432 111 103 19 159 23 320 23 213 0 283-12 346-61 80-60 110-212 59-299-34-59-72-84-257-175-181-89-197-100-174-119 13-11 32-8 108 13 202 59 315 117 378 198 51 63 65 108 64 200-1 61-6 87-27 130-56 113-108 154-244 189-116 29-389 26-578-7z"/>
  </g>
</svg>
