<?xml version="1.0"?>
<svg xmlns="http://www.w3.org/2000/svg" height="200pt" preserveAspectRatio="xMidYMid meet" viewBox="0 0 200 200" width="200pt">
  <g transform="matrix(.1 0 0 -.1 0 200)">
    <path d="m1485 1629c-60-5-195-20-300-34-104-14-251-32-325-40-302-35-510-74-542-103-22-19-23-45-2-63 12-10 26-10 67-1 89 20 361 60 622 92 138 17 270 33 295 37l45 5-85-54c-47-30-103-66-125-80-68-44-193-156-239-214-59-76-130-199-152-264-12-36-18-84-18-136 0-69 5-90 29-139 39-81 137-175 228-220 68-33 220-74 278-75 33 0 63 32 54 59-7 22-13 24-100 41-144 27-232 68-306 142-68 68-89 115-89 203 0 87 25 150 104 269 67 101 153 182 295 277 96 65 285 166 371 199 45 17 70 39 70 61 0 18-36 50-55 48-5-1-59-6-120-10z"/>
  </g>
</svg>
