<?xml version="1.0"?>
<svg xmlns="http://www.w3.org/2000/svg" height="200pt" preserveAspectRatio="xMidYMid meet" viewBox="0 0 200 200" width="200pt">
  <g transform="matrix(.1 0 0 -.1 0 200)">
    <path d="m425 1710c-15-16-16-24-6-52 23-66 195-336 291-458 55-69 100-129 100-133 0-5-27-41-61-80-94-112-162-221-223-359-70-159-73-199-21-257 67-74 54-73 522-66 230 4 428 8 440 11 31 6 47 38 32 66l-11 21-434-6-433-7-30 26c-17 14-31 32-31 40 0 30 107 262 151 329 101 151 369 446 629 694 184 176 196 190 180 220-28 53-81 11-426-335l-221-222-94 120c-52 65-138 192-191 281s-102 168-108 175c-15 17-34 15-55-8z"/>
  </g>
</svg>
