<?xml version="1.0"?>
<svg xmlns="http://www.w3.org/2000/svg" height="200pt" preserveAspectRatio="xMidYMid meet" viewBox="0 0 200 200" width="200pt">
  <g transform="matrix(.1 0 0 -.1 0 200)">
    <path d="m733 1728c-5-7-15-38-22-68-6-30-21-85-31-121l-20-66-112-17c-130-20-148-28-148-62 0-38 35-49 112-35 113 19 110 22 81-56-38-106-94-220-156-317-31-50-57-95-57-102 0-17 28-44 46-44 33 0 90 82 171 245 33 66 74 161 93 211l33 92 96 16c53 9 131 21 174 25 42 5 84 14 92 21 22 19 18 48-10 66-22 15-35 14-167-5-78-11-143-19-144-18-2 1 6 34 16 72 22 80 25 146 8 163-16 16-43 15-55 0z"/>
    <path d="m1326 1431c-23-25-16-47 44-136 26-38 61-96 79-127l32-56-55-12c-31-6-66-20-78-31l-23-19 25-21c22-19 34-21 106-17 96 5 134 24 134 66 0 30-56 137-134 257-79 120-96 133-130 96z"/>
    <path d="m937 1042c-15-16-17-47-17-219v-201l-79-3c-69-4-85-8-123-34-24-17-51-47-61-68-17-34-17-40-3-89 33-114 129-161 228-111 32 15 80 94 98 159 7 24 16 44 21 44 27 0 237-64 309-94 46-20 92-36 100-36 42 0 54 60 18 84-43 26-203 84-308 112l-105 27-3 205c-2 173-5 209-19 224-20 23-36 23-56 0zm-42-534c-4-13-17-43-29-68-18-37-28-46-53-48-24-2-36 3-52 24-11 15-21 37-21 50 0 35 52 64 113 64 45 0 48-1 42-22z"/>
  </g>
</svg>
