<?xml version="1.0"?>
<svg xmlns="http://www.w3.org/2000/svg" height="200pt" preserveAspectRatio="xMidYMid meet" viewBox="0 0 200 200" width="200pt">
  <g transform="matrix(.1 0 0 -.1 0 200)">
    <path d="m492 1441c-10-6-14-92-16-397-1-214 1-427 5-472 14-149 50-167 149-75 72 66 97 107 79 129-17 20-31 18-75-14-21-15-45-32-53-37-12-7-13 41-7 323 11 469-8 591-82 543z"/>
    <path d="m1150 1334c-85-17-181-48-195-64-20-22-12-56 15-65 11-3 43 1 72 10 93 27 229 37 335 25 82-10 98-10 111 3 23 24 8 63-30 77-34 12-264 22-308 14z"/>
    <path d="m986 687c-31-23-17-59 34-84 67-34 147-45 330-46 144-2 169 0 193 16 29 18 38 64 15 72-7 3-107 6-223 8-187 3-216 6-265 25-65 26-61 26-84 9z"/>
  </g>
</svg>
