<?xml version="1.0"?>
<svg xmlns="http://www.w3.org/2000/svg" height="200pt" preserveAspectRatio="xMidYMid meet" viewBox="0 0 200 200" width="200pt">
  <g transform="matrix(.1 0 0 -.1 0 200)">
    <path d="m861 1478c-5-13-17-71-27-130-9-59-20-110-23-115-3-4-37-23-76-42-38-18-98-53-133-78s-65-43-67-41c-11 12-65 207-75 273-7 44-19 90-26 103-19 29-49 28-69-2-14-21-14-32 4-123 11-55 36-152 55-215l37-116-52-69c-78-103-99-153-99-243 0-95 23-148 79-186 86-56 183-40 272 47l50 49 52-29c54-30 133-51 193-51 27 0 37 5 46 25 16 37-10 62-75 70-56 8-140 40-157 60-7 9-2 30 19 76 19 39 44 132 67 241l38 177 52 7c29 3 90 5 136 3 99-5 177-38 243-104 50-50 103-152 111-217l7-48h-59c-136-1-229-99-194-205 16-50 53-75 109-75 102 0 166 41 206 130l18 39 36-15c20-8 45-24 57-34 44-42 110-9 84 40-14 27-83 76-124 90-31 10-34 14-48 89-44 221-196 373-406 403-56 8-99 9-146 2l-67-10 5 25c22 114 28 179 17 200-16 29-59 28-70-1zm-101-508c-29-131-55-210-69-210-11 1-69 95-94 152l-25 56 26 25c30 28 184 128 189 123 2-2-10-68-27-146zm-232-128c12-26 42-76 68-111 43-59 45-65 33-88-25-47-83-83-131-83-62 0-84 23-93 98-5 44-3 69 10 98 17 42 76 134 86 134 3 0 15-21 27-48zm902-137c0-3-10-21-22-40-15-23-35-39-58-45-59-17-70-13-70 20 0 39 47 70 108 70 23 0 42-2 42-5z"/>
  </g>
</svg>
