<?xml version="1.0"?>
<svg xmlns="http://www.w3.org/2000/svg" height="200pt" preserveAspectRatio="xMidYMid meet" viewBox="0 0 200 200" width="200pt">
  <g transform="matrix(.1 0 0 -.1 0 200)">
    <path d="m526 1667c-16-12-18-27-15-135l4-121-56-15c-30-9-67-16-82-16-33 0-53-31-37-60 9-16 21-20 63-20 29 0 67 4 84 9 31 9 33 8 37-22 3-18 7-77 10-131l6-99-52-91c-28-50-73-123-100-163-50-75-140-228-151-257-8-21 6-51 28-60 26-10 51 10 83 67 16 29 67 88 113 132l84 78 10-190c10-197 17-223 56-223 10 0 25 10 34 23 13 20 14 53 5 248l-10 224 23 18c67 54 232 156 297 184 95 41 208 67 269 61 75-7 147-74 179-167 22-63 26-182 8-242-24-81-25-82-80-63-32 11-70 15-116 12-81-4-115-24-144-82-25-51-10-101 43-149 75-68 156-57 256 35l55 50 36-21c20-12 57-39 83-61s57-40 68-40c28 0 46 25 39 54-6 25-82 91-147 128l-37 20 21 47c26 58 34 197 17 283-22 116-89 212-180 262-51 28-57 29-149 23-145-8-280-60-443-169l-96-65-5 36c-5 39-7 35 167 336 47 83 86 161 86 176 0 58-47 64-129 15-72-44-142-78-147-74-2 2-8 49-14 104-8 70-16 103-27 112-21 15-25 15-47-1zm152-365c-28-50-53-90-54-89s-4 33-6 71l-3 68 55 23c30 12 56 21 58 20 1-1-21-43-50-93zm628-752c26-10 26-11 8-31-24-27-67-49-95-49-48 0-78 58-41 79 22 13 93 14 128 1z"/>
  </g>
</svg>
