<?xml version="1.0"?>
<svg xmlns="http://www.w3.org/2000/svg" height="200pt" preserveAspectRatio="xMidYMid meet" viewBox="0 0 200 200" width="200pt">
  <g transform="matrix(.1 0 0 -.1 0 200)">
    <path d="m935 1416c-104-20-174-50-277-118-119-78-199-161-266-273-65-111-86-178-85-275 1-175 92-279 221-255 99 18 241 145 304 270 72 142 131 370 127 490l-2 70 123 3c111 2 133 0 205-23 182-59 286-176 301-341 8-90-11-168-72-285-37-71-60-102-111-147-65-58-76-84-42-105 29-18 73 3 134 66 105 107 185 294 185 429 0 235-137 403-390 478-94 28-256 35-355 16zm-75-205c0-73-6-109-36-207-50-164-85-233-157-310-69-74-119-104-175-104-67 0-97 63-90 189 4 65 10 88 46 156 77 148 168 238 329 327 38 21 71 38 76 38 4 0 7-40 7-89z"/>
  </g>
</svg>
