<?xml version="1.0"?>
<svg xmlns="http://www.w3.org/2000/svg" height="200pt" preserveAspectRatio="xMidYMid meet" viewBox="0 0 200 200" width="200pt">
  <g transform="matrix(.1 0 0 -.1 0 200)">
    <path d="m1186 1598c-13-20-12-33 4-105l18-82-27-5c-14-3-91-15-171-27-80-11-151-26-157-31-7-6-13-21-13-34 0-44 32-48 196-25 82 12 157 24 166 27 13 4 19-4 25-33 10-48 11-469 1-504-7-25-12-26-93-31-95-6-165-34-198-80-16-21-18-35-13-73 13-84 105-158 197-159 77 0 121 43 156 152 11 34 22 52 33 52 34 0 165-42 236-76 65-32 79-35 100-25 20 9 25 17 22 39-3 23-16 33-88 70-47 23-127 52-177 65-64 15-91 26-88 35 2 7 10 63 16 125 11 110 6 311-10 410-9 56-20 51 149 68 134 13 152 20 148 56-5 44-24 48-170 34-73-7-137-14-142-14-4-1-17 34-27 77-27 110-61 144-93 94zm14-950c0-7-11-37-25-65-22-48-27-53-56-53-58 0-127 73-95 99 31 26 176 41 176 19z"/>
    <path d="m396 1488c-35-54-46-349-21-578 16-157 26-207 67-350 36-128 50-152 85-148 37 4 165 162 161 198-5 43-41 38-97-15l-50-47-16 54c-54 180-88 498-74 683 5 66 11 135 14 152 11 64-38 99-69 51z"/>
  </g>
</svg>
