<?xml version="1.0"?>
<svg xmlns="http://www.w3.org/2000/svg" height="200pt" preserveAspectRatio="xMidYMid meet" viewBox="0 0 200 200" width="200pt">
  <g transform="matrix(.1 0 0 -.1 0 200)">
    <path d="m584 1603c-62-101-123-156-229-204-71-32-83-46-65-78 21-40 120-15 209 53 19 14 36 25 37 23 2-1-11-68-27-147-36-172-50-419-30-536 15-86 61-183 106-223 69-60 222-80 331-42 73 26 180 106 244 184 95 115 170 300 195 479l6 48 36-47c20-26 46-56 57-65 39-34 117-69 167-75 56-7 79 6 79 43 0 26-8 31-101 58-67 19-137 87-170 163-30 70-59 189-59 245 0 47-23 88-50 88-5 0-19-9-30-20-18-18-20-33-20-182 0-209-13-320-51-433-96-288-313-459-514-404-50 14-71 32-100 89-30 60-45 143-45 255 0 127 14 225 67 487 45 221 46 228 28 248-25 28-51 25-71-7z"/>
  </g>
</svg>
