<?xml version="1.0"?>
<svg xmlns="http://www.w3.org/2000/svg" height="200pt" preserveAspectRatio="xMidYMid meet" viewBox="0 0 200 200" width="200pt">
  <g transform="matrix(.1 0 0 -.1 0 200)">
    <path d="m812 1628c-43-43 23-138 181-261 44-34 77-68 77-78 0-53 49-68 88-26 43 45 31 70-71 148-110 83-175 146-198 192-20 39-53 49-77 25z"/>
    <path d="m762 1108c-30-30-10-57 91-122 72-48 169-153 202-220 36-73 51-166 33-203-16-34-67-42-123-19-50 21-72 20-85-4-15-28 2-56 48-79 56-28 86-32 141-20 117 25 152 148 89 316-43 117-143 233-275 317-74 47-100 55-121 34z"/>
    <path d="m1467 952c-23-25-22-29 14-106 43-91 59-158 59-246 0-82 16-120 50-120 38 0 53 43 47 130-4 44-14 107-22 141-28 108-93 219-128 219-2 0-11-8-20-18z"/>
    <path d="m365 746c-17-26-15-59 11-150 20-70 56-127 114-179 63-56 102-68 134-38 24 23 45 78 38 99-5 17-33 15-61-4-22-16-24-15-58 17-45 44-69 92-93 186-24 96-52 119-85 69z"/>
  </g>
</svg>
