<?xml version="1.0"?>
<svg xmlns="http://www.w3.org/2000/svg" height="200pt" preserveAspectRatio="xMidYMid meet" viewBox="0 0 200 200" width="200pt">
  <g transform="matrix(.1 0 0 -.1 0 200)">
    <path d="m773 1358c-5-7-22-47-37-88-16-41-47-110-68-152-53-103-182-241-281-300-58-35-73-48-75-70-3-22 2-30 21-39 21-10 34-7 86 21 132 70 270 220 347 375 24 50 44 96 44 103 0 23 15 11 70-54 161-192 480-435 657-499 79-29 118-28 128 5s-11 55-72 74c-192 59-542 335-707 559-43 58-63 77-80 77-13 0-28-6-33-12z"/>
  </g>
</svg>
