<?xml version="1.0"?>
<svg xmlns="http://www.w3.org/2000/svg" height="200pt" preserveAspectRatio="xMidYMid meet" viewBox="0 0 200 200" width="200pt">
  <g transform="matrix(.1 0 0 -.1 0 200)">
    <path d="m458 1588c-25-38-67-151-89-239-15-61-22-130-26-254-7-218 17-383 83-579 24-71 44-131 44-133 0-1 11-10 24-18 34-22 60-7 90 53 78 156 65 238-21 136l-39-45-27 88c-47 153-61 253-61 443-1 200 13 284 71 440 38 102 37 123-9 128-17 2-30-4-40-20z"/>
    <path d="m1275 1503c-33-2-156-7-272-12-223-9-243-14-243-55 0-44 13-46 200-39l177 6 6-34c12-67 29-210 25-214-2-2-55-11-117-19-63-9-120-21-128-27-7-6-13-22-13-35 0-41 32-47 155-30 60 8 111 13 113 11 8-8 14-198 8-266l-7-74-62-1c-82-1-130-18-166-59-41-47-49-95-25-154 15-36 28-51 64-69 116-58 235-3 255 120 8 45-2 46 142-13 197-81 209-85 227-69 10 7 16 24 14 39-4 31-48 55-233 127l-120 47v193 192l95 7c102 8 120 15 120 50 0 41-22 48-128 41l-97-7-17 123c-9 67-16 123-15 124s79 5 172 9c176 8 205 15 205 55 0 35-21 40-150 38-69-1-152-3-185-5zm-115-903c0-36-27-88-50-95-12-4-37-4-55-1-25 5-36 14-44 37-9 27-7 33 14 55 20 20 34 24 80 24 49 0 55-2 55-20z"/>
  </g>
</svg>
