<?xml version="1.0"?>
<svg xmlns="http://www.w3.org/2000/svg" height="200pt" preserveAspectRatio="xMidYMid meet" viewBox="0 0 200 200" width="200pt">
  <g transform="matrix(.1 0 0 -.1 0 200)">
    <path d="m890 1705c-10-12-7-37 18-132 17-64 30-118 28-120-10-10-334-43-422-43-80 0-106-3-118-16-21-21-20-37 4-59 18-16 34-18 173-12 83 4 203 14 266 22s117 12 120 9 6-87 6-187v-182l-100-16c-55-9-140-22-188-29-79-11-117-27-117-49 0-4 6-16 14-26 10-14 25-18 66-16 49 1 223 23 298 37l32 6v-144-145l-120-11c-139-14-213-38-259-86-29-30-33-41-33-85 0-91 40-124 171-143 91-13 197 0 249 32 37 23 70 83 79 145 3 25 9 45 14 45 51 0 237-55 351-104 104-45 132-45 136 1 3 31 0 34-65 66-84 42-268 103-363 119l-70 12v157 157l58 10c31 5 122 20 202 32s156 27 170 34c34 16 38 51 8 70-22 14-38 13-189-10-90-14-182-29-204-34s-40-8-41-7-4 85-5 187l-3 184 104 18c58 10 166 27 240 38 96 15 139 26 148 37 16 23 15 30-9 54-23 23-17 24-296-22-100-17-190-29-199-27-12 2-25 33-46 108-16 58-36 113-45 122-20 22-46 23-63 3zm75-1242c-14-82-49-100-180-96-103 3-129 13-133 49-2 21 3 33 20 43 38 24 118 39 212 40l88 1z"/>
  </g>
</svg>
