<?xml version="1.0"?>
<svg xmlns="http://www.w3.org/2000/svg" height="200pt" preserveAspectRatio="xMidYMid meet" viewBox="0 0 200 200" width="200pt">
  <g transform="matrix(.1 0 0 -.1 0 200)">
    <path d="m690 1675c-13-15-10-115 6-191l6-30-133-18c-73-9-139-22-146-28s-13-21-13-34c0-42 34-49 162-30 62 9 118 16 124 16 19 0 25-57 18-170l-7-106-37 18c-32 16-44 17-83 7-107-26-168-122-175-275-9-185 59-294 183-294 27 0 44 8 65 28l28 28 21-47c30-66 106-133 172-154 36-12 105-19 209-22 134-5 167-2 242 16 48 11 116 34 151 49 59 27 67 34 93 88 46 95 45 243-2 261-25 9-41-19-48-90-16-140-33-162-160-203-136-43-402-43-486 1-107 56-141 208-101 444 13 73 24 188 27 280l5 156 119 15c137 17 162 31 141 76-12 27-12 27-94 20-45-3-105-9-133-12l-51-6-18 98c-9 55-22 105-27 112-14 17-43 15-58-3zm-40-674c5-11 10-62 10-114 0-75-5-111-25-168-30-90-38-98-73-79-58 33-80 182-41 284 31 84 102 126 129 77z"/>
    <path d="m1327 1543c-20-20-4-59 42-102 61-58 124-138 141-182 19-48 39-69 66-69 64 0 41 95-52 217-85 111-166 167-197 136z"/>
  </g>
</svg>
