<?xml version="1.0"?>
<svg xmlns="http://www.w3.org/2000/svg" height="200pt" preserveAspectRatio="xMidYMid meet" viewBox="0 0 200 200" width="200pt">
  <g transform="matrix(.1 0 0 -.1 0 200)">
    <path d="m1152 1552c-11-11-27-53-36-98-23-108-21-104-59-104-95 0-276-69-365-140l-50-39-7 47c-4 26-9 79-10 118s-5 76-9 83c-12 18-54 13-66-8-14-27-12-173 4-248l13-63-49-57c-83-98-178-316-178-407 0-41 22-75 93-144 65-62 116-92 157-92 31 0 159 67 211 110l46 39 44-45c53-54 128-104 156-104 11 0 26 7 33 15 21 25 3 61-42 88-24 14-62 45-85 69l-43 43 41 60c83 122 154 297 190 469 13 60 28 110 35 113 21 8 173-35 242-67 85-40 186-141 203-202 6-24 9-81 7-129-5-114-38-180-158-321-89-105-104-133-76-144 25-10 80 27 161 110 60 60 91 101 120 161l40 80v135c0 131-1 137-29 188-68 122-219 223-396 263-52 12-96 23-98 25-2 1 4 39 13 84 18 89 16 103-14 120-16 8-24 7-39-8zm-82-297c0-2-10-48-21-102-33-148-117-353-178-432l-19-25-40 62c-40 62-129 261-134 299-4 25 70 89 153 133 72 38 239 84 239 65zm-450-315c25-66 112-235 142-275l29-40-41-37c-23-21-69-51-102-67-55-28-62-29-87-17-14 8-50 39-79 70-57 61-57 57-25 160 29 96 127 267 142 249 5-4 14-24 21-43z"/>
  </g>
</svg>
