<?xml version="1.0"?>
<svg xmlns="http://www.w3.org/2000/svg" height="200pt" preserveAspectRatio="xMidYMid meet" viewBox="0 0 200 200" width="200pt">
  <g transform="matrix(.1 0 0 -.1 0 200)">
    <path d="m892 1684c-20-14-22-24-22-108v-92l-160-17c-194-21-210-26-210-67 0-22 6-33 20-38 11-4 87 0 168 10 81 9 155 17 165 18 15 0 17-15 17-168v-168l-106-13c-58-6-116-16-128-21-29-11-39-36-25-62 10-19 17-20 97-14 48 3 103 9 124 12l38 7v-64c1-176 32-350 81-456 51-108 147-150 323-140 159 8 249 55 300 159 43 86 31 224-17 205-9-3-19-19-23-34-22-101-37-136-74-173-49-49-89-60-224-60-165 0-195 24-240 195-16 60-44 360-35 369 3 3 81 10 175 16 93 6 184 13 201 16 55 8 67 65 18 84-12 4-77 4-146-1-68-5-152-10-186-13l-63-4v168 168l98 6c398 26 396 26 414 47 19 23 10 55-18 66-14 5-328-11-441-23l-52-5-3 92c-3 79-6 93-23 105-18 12-24 11-43-2z"/>
  </g>
</svg>
