<?xml version="1.0"?>
<svg xmlns="http://www.w3.org/2000/svg" height="200pt" preserveAspectRatio="xMidYMid meet" viewBox="0 0 200 200" width="200pt">
  <g transform="matrix(.1 0 0 -.1 0 200)">
    <path d="m1108 1619c-21-12-24-52-5-67 17-14 196-62 232-62 34 0 55 15 55 41 0 28-25 40-142 70-130 33-118 31-140 18z"/>
    <path d="m565 1523c-21-20-19-26 49-202 31-79 56-147 56-150 0-4-42-35-92-68-105-69-214-164-223-193-10-30 4-60 26-60 11 0 53 27 92 61 70 59 189 143 218 154 11 4 20-8 31-42 112-333 234-641 261-657 24-15 51 4 55 38 2 15-22 90-57 179-33 84-83 217-111 297s-59 165-67 189c-16 43-15 44 8 62 35 27 218 97 329 126 132 35 285 37 353 6 105-48 86-127-69-284-69-69-93-100-88-112 9-25 42-21 99 12 136 78 227 225 210 337-19 131-195 191-433 150-115-20-295-77-386-123-37-19-69-33-70-31s-28 69-60 151c-66 168-92 200-131 160z"/>
  </g>
</svg>
