<?xml version="1.0"?>
<svg xmlns="http://www.w3.org/2000/svg" height="200pt" preserveAspectRatio="xMidYMid meet" viewBox="0 0 200 200" width="200pt">
  <g transform="matrix(.1 0 0 -.1 0 200)">
    <path d="m1020 1665c-14-17-12-24 23-110 43-105 44-101-10-114-27-7-90-33-142-58-79-37-108-59-175-127-45-44-97-109-117-143-20-35-39-60-43-56-3 3-6 23-6 44 0 82-31 273-47 291-22 24-40 23-57-4-12-20-12-40 1-148 9-75 16-225 17-376 2-264 5-284 47-284 36 0 49 27 49 108 0 218 152 489 332 595 54 31 196 82 205 73 18-17 33-173 39-389l7-239-49 7c-107 15-207 55-272 110-34 29-69 30-85 3-18-28 8-65 74-108 77-50 151-77 246-92l75-12-5-50c-6-60-40-162-62-186-30-33-12-80 30-80 48 0 91 85 123 239l17 84 70 14c142 29 220 88 276 208 90 191 72 438-38 521-71 54-144 77-264 82l-107 4-28 87c-16 47-37 94-46 103-22 22-61 23-78 3zm413-323c59-27 70-37 87-74 59-133 12-375-88-458-35-29-142-70-182-70-16 0-18 20-23 243-4 133-12 277-20 321l-14 78 86-4c71-3 99-10 154-36z"/>
  </g>
</svg>
