<?xml version="1.0"?>
<svg xmlns="http://www.w3.org/2000/svg" height="200pt" preserveAspectRatio="xMidYMid meet" viewBox="0 0 200 200" width="200pt">
  <g transform="matrix(.1 0 0 -.1 0 200)">
    <path d="m1087 1678c-17-9-23-45-9-63 4-6 44-41 89-78 78-64 82-70 80-105-2-34 0-37 28-40 45-4 95 31 95 66 0 24-14 41-77 93-155 129-178 143-206 127z"/>
    <path d="m652 1492c-12-12-25-60-40-147-64-366-84-467-97-512-25-82-16-123 27-123 10 0 48 31 85 69 76 76 186 137 302 167 99 25 239 16 313-20 106-51 161-144 138-234-26-104-86-152-232-187-133-32-168-45-168-64 0-43 56-56 157-35 173 35 260 92 311 203 34 71 37 175 8 234-77 156-278 240-487 204-93-16-218-62-293-108-48-30-48-30-43-7 10 38 79 449 84 502 5 40 2 52-12 63-24 17-31 17-53-5z"/>
  </g>
</svg>
