<?xml version="1.0"?>
<svg xmlns="http://www.w3.org/2000/svg" height="200pt" preserveAspectRatio="xMidYMid meet" viewBox="0 0 200 200" width="200pt">
  <g transform="matrix(.1 0 0 -.1 0 200)">
    <path d="m676 1631c-27-30-43-313-28-489 17-194 41-272 86-272 15 0 131 126 152 165 38 72-13 87-81 24-25-23-48-40-50-37-3 3-10 52-16 110-7 75-7 162 0 293 11 195 8 225-28 225-10 0-25-8-35-19z"/>
    <path d="m1270 1510c-8-15-8-37 1-81 25-126-19-471-84-666-35-107-106-235-168-307-47-55-53-72-30-95 27-27 54-17 102 38 168 190 272 536 273 906 1 147-1 175-17 198-21 33-61 36-77 7z"/>
  </g>
</svg>
