<?xml version="1.0"?>
<svg xmlns="http://www.w3.org/2000/svg" height="200pt" preserveAspectRatio="xMidYMid meet" viewBox="0 0 200 200" width="200pt">
  <g transform="matrix(.1 0 0 -.1 0 200)">
    <path d="m1070 1563c-121-36-245-47-335-29-32 6-44 5-54-7-18-23-5-54 32-75 41-22 235-22 317 1 30 8 56 15 57 14 9-9-188-212-323-334-182-163-384-364-403-400-8-17-9-29-1-43 17-33 56-25 113 23 106 89 260 163 401 194 111 25 276 23 361-4 116-37 184-123 193-244 6-92-9-130-67-174-57-41-67-43-75-11s-86 81-161 101c-112 30-266-2-320-67-37-43-35-110 3-148 43-43 97-53 252-48 98 4 155 11 207 27 85 25 185 90 219 140 50 76 52 205 4 316-25 59-103 141-160 170-62 31-175 55-262 55-85 0-235-23-297-45-24-8-46-13-48-11s56 58 129 124c150 135 245 237 336 360 65 88 76 124 43 142-26 13-28 13-161-27zm104-1107c48-28 49-29 25-38-43-16-251-22-293-8-46 15-45 38 4 63 28 14 54 17 125 15 78-3 96-7 139-32z"/>
  </g>
</svg>
