<?xml version="1.0"?>
<svg xmlns="http://www.w3.org/2000/svg" height="200pt" preserveAspectRatio="xMidYMid meet" viewBox="0 0 200 200" width="200pt">
  <g transform="matrix(.1 0 0 -.1 0 200)">
    <path d="m541 1596c-9-11-9-40-1-116 5-56 10-116 10-133v-30l-70 6c-55 5-73 3-85-9-19-20-19-27 3-53 13-16 33-22 89-27l71-7 6-51c3-28 8-89 11-136l6-85-78-101c-43-56-115-149-160-207-82-105-94-132-71-155s56-13 90 28c33 40 201 190 212 190 3 0 6-72 6-161 0-91 4-169 10-180 6-10 21-19 34-19 47 0 51 18 53 239l1 206 104 77c57 43 159 111 228 152 133 79 334 183 328 169-2-4-18-36-35-70-56-107-83-202-83-291 0-73 3-86 40-160 73-146 205-244 347-259 65-7 99 1 106 26 9 35-16 53-84 63-87 11-158 48-217 113-125 136-134 253-35 450 39 77 65 115 130 189 49 55 53 79 19 102-24 15-30 13-153-41-221-98-459-231-615-346-45-32-84-57-86-54-3 3 10 28 28 57 28 44 93 165 216 399 16 31 10 55-18 70-17 9-29 5-72-24-63-43-100-62-147-75l-35-9-12 114c-12 120-28 163-61 163-10 0-24-6-30-14zm165-422-45-89v46c-1 26-4 60-7 77-6 29-4 31 42 44 27 8 50 14 52 12 2-1-17-42-42-90z"/>
  </g>
</svg>
