<?xml version="1.0"?>
<svg xmlns="http://www.w3.org/2000/svg" height="200pt" preserveAspectRatio="xMidYMid meet" viewBox="0 0 200 200" width="200pt">
  <g transform="matrix(.1 0 0 -.1 0 200)">
    <path d="m1215 1580c-99-20-281-40-367-40-31 0-79 8-107 17-47 15-53 15-68 1-25-25-9-63 34-84 31-16 61-19 163-19 69 0 163 3 210 8l85 7-95-90c-104-100-377-337-540-470-135-111-140-116-140-145 0-22 24-45 47-45 4 0 42 25 83 57 82 61 255 148 365 183 163 50 357 65 467 34 136-38 206-164 166-297-30-98-190-215-354-258-66-17-104-20-226-17-109 2-150 0-160-10-17-17-1-42 43-64 44-23 252-25 354-3 160 34 345 159 411 277 26 48 29 62 29 148 0 80-4 102-24 140-59 114-161 176-321 195-68 8-236-10-337-36-42-10-78-17-80-15s32 34 76 72c227 197 451 410 451 430 0 48-25 52-165 24z"/>
  </g>
</svg>
