<?xml version="1.0"?>
<svg xmlns="http://www.w3.org/2000/svg" height="200pt" preserveAspectRatio="xMidYMid meet" viewBox="0 0 200 200" width="200pt">
  <g transform="matrix(.1 0 0 -.1 0 200)">
    <path d="m609 1589c-11-11-18-26-16-33 3-8 16-55 28-106 18-75 20-93 9-100-20-12-114-22-143-15-35 9-67-10-67-40 0-37 30-47 134-43l94 3 6-59c12-119 19-101-119-326-170-277-189-314-176-338 25-46 62-37 100 25 15 24 63 84 107 134l79 90 6-190c6-193 12-221 47-221 8 0 23 7 33 16 17 15 18 34 12 253l-6 237 64 50c128 100 241 159 414 214 119 38 239 45 290 18 40-22 91-76 104-111 37-97-20-275-135-425-86-112-93-123-88-137 8-21 39-24 74-7 98 48 251 333 253 472 1 97-18 153-75 215-57 63-112 92-189 101-142 17-417-73-609-199-74-49-85-54-88-37-2 10 33 91 78 179 67 133 79 163 71 180-17 31-42 33-106 6l-60-24-25 97c-28 108-33 117-60 132-15 8-24 6-41-11zm145-324c-4-8-8-15-10-15s-4 7-4 15 4 15 10 15c5 0 7-7 4-15z"/>
  </g>
</svg>
