<?xml version="1.0"?>
<svg xmlns="http://www.w3.org/2000/svg" height="200pt" preserveAspectRatio="xMidYMid meet" viewBox="0 0 200 200" width="200pt">
  <g transform="matrix(.1 0 0 -.1 0 200)">
    <path d="m801 1556c-74-62-147-96-268-127-64-16-121-35-125-42-13-21-9-36 15-52 19-12 34-13 83-4 94 17 164 39 229 73 33 17 64 33 69 35 13 5 0-161-19-245-13-57-21-73-43-86-52-31-183-149-238-216-70-84-132-194-140-249-13-85 34-153 106-153 113 0 256 193 340 460l36 115 74 39c179 94 367 131 461 89 158-71 189-198 94-394l-17-36-93 5c-82 4-99 2-138-17-68-33-117-92-117-140 0-98 118-151 227-102 23 11 64 42 93 69l51 49 65-58c35-33 70-59 78-59 22 0 48 37 41 59-3 11-35 47-71 79l-64 59 24 44c71 127 87 274 40 367-29 59-94 120-162 154-37 18-68 24-143 26-110 4-188-13-328-72-80-34-83-34-77-13 12 45 28 251 23 300-4 49-24 77-53 77-7 0-31-15-53-34zm-106-661c-45-121-126-246-187-291-38-29-45-29-52-6-9 27 17 93 65 164 45 65 186 215 195 206 2-3-7-36-21-73zm695-224c0-5-20-26-45-46-52-43-113-57-134-31-29 35 49 85 132 86 26 0 47-4 47-9z"/>
  </g>
</svg>
