<?xml version="1.0"?>
<svg xmlns="http://www.w3.org/2000/svg" height="200pt" preserveAspectRatio="xMidYMid meet" viewBox="0 0 200 200" width="200pt">
  <g transform="matrix(.1 0 0 -.1 0 200)">
    <path d="m1090 1588c-116-35-152-41-258-45-116-5-126-4-154 17-37 27-75 21-84-14-8-33 12-65 49-81 48-19 183-28 256-16 36 6 66 9 68 7s-72-53-164-113c-161-106-306-216-385-291-39-37-48-68-26-90s47-13 110 39c74 60 101 74 249 135 146 60 257 84 390 84 119 0 183-16 220-56 49-52 16-166-68-232-67-52-181-101-275-118l-37-6 16 41c48 121-63 196-210 141-64-24-101-61-117-117-11-36-10-46 6-79 11-21 34-48 52-60l32-22-127-89c-71-48-148-98-173-111-98-49-140-119-86-143 26-12 52-2 141 57 38 25 69 36 127 45 112 16 138 9 209-62s102-78 124-25c19 44 93 109 164 143 43 21 75 28 143 31 48 2 98 2 112-2 39-10 83-53 122-119 40-69 49-77 82-77 40 0 44 37 10 102-41 76-90 132-146 166-44 25-55 27-152 26-84 0-117-5-165-24-66-25-142-72-193-120l-34-30-36 28c-51 40-96 62-129 63h-28l29 22c16 12 55 43 86 69 55 44 61 47 150 57 217 27 396 130 459 266 63 133 23 239-111 301-58 27-72 29-183 28-103 0-177-9-260-31-19-5 310 222 375 259 50 28 36 89-19 87-15 0-87-19-161-41zm-186-674c11-4 13-11 6-30-17-44-53-84-76-84-94 0-100 76-9 108 36 12 58 14 79 6z"/>
  </g>
</svg>
