<?xml version="1.0"?>
<svg xmlns="http://www.w3.org/2000/svg" height="200pt" preserveAspectRatio="xMidYMid meet" viewBox="0 0 200 200" width="200pt">
  <g transform="matrix(.1 0 0 -.1 0 200)">
    <path d="m793 1638c-4-7-20-46-34-88l-26-75h-132c-113 0-134-2-142-17-12-21-2-46 25-60 11-6 67-14 124-16 90-4 102-7 97-21-11-27-63-252-75-323-9-49-9-72-1-87 14-25 55-28 73-5 89 110 149 154 211 154 35 0 67-30 67-64 0-8-35-39-78-69-134-94-260-251-282-350-19-89 24-173 112-218 126-64 442-66 626-3 100 34 122 48 122 79 0 45-37 52-117 22-103-39-137-46-268-53-190-10-328 19-369 78-39 55 1 152 111 269 46 49 171 145 178 137 3-2 9-38 16-79 14-93 20-104 55-104 50 0 54 48 18 216-5 23 0 29 64 62 88 46 103 73 57 103-25 16-28 15-92-17-37-19-68-29-70-24-11 33-47 76-75 91-52 27-118 23-186-13l-60-30 14 56c8 31 22 87 32 126l18 70 130 12c202 21 467 70 482 90 17 23 15 37-8 58-18 17-25 16-171-10-132-23-361-55-395-55-8 0-6 20 7 66 13 48 16 72 8 85-11 21-54 26-66 7z"/>
  </g>
</svg>
