<?xml version="1.0"?>
<svg xmlns="http://www.w3.org/2000/svg" height="200pt" preserveAspectRatio="xMidYMid meet" viewBox="0 0 200 200" width="200pt">
  <g transform="matrix(.1 0 0 -.1 0 200)">
    <path d="m836 1598c-11-16-16-46-16-99 0-132-31-223-185-544-37-77-88-171-113-210-25-38-81-133-125-210-66-118-78-144-70-165 6-17 17-26 35-28 23-3 34 7 77 65 27 37 86 136 131 218 66 121 96 164 154 223 64 66 141 121 153 109 2-3 11-51 19-108 26-188 59-270 145-360 35-36 78-67 120-87 59-28 77-32 150-32 68 0 94 5 136 24 102 48 193 162 193 243 0 36-22 97-38 107-18 11-39-21-47-71-13-88-72-166-151-199-53-22-141-18-201 10-53 25-134 100-159 148-18 35-51 175-59 253-9 84-23 122-52 145-30 23-87 26-123 5-40-23-41-18-14 43 52 114 81 188 93 237 20 79 30 196 21 244-11 62-45 80-74 39z"/>
  </g>
</svg>
