<?xml version="1.0"?>
<svg xmlns="http://www.w3.org/2000/svg" height="200pt" preserveAspectRatio="xMidYMid meet" viewBox="0 0 200 200" width="200pt">
  <g transform="matrix(.1 0 0 -.1 0 200)">
    <path d="m1580 1610c-36-4-131-8-212-9-80 0-256-12-390-26-134-13-335-31-448-40-270-21-300-25-316-50-12-18-11-24 3-44 15-22 20-23 92-17 42 4 159 13 261 21s230 19 285 25c55 5 112 10 128 10h27l1-247c0-137 4-338 9-448 21-440 23-505 16-505-4 0-58 38-119 84-62 45-120 86-129 89-22 8-41-17-33-42 14-46 277-261 319-261 7 0 21 6 32 14 18 13 19 28 19 193 0 98-6 288-12 423-16 303-17 706-3 715 6 4 129 10 273 15 297 10 406 18 425 33s14 55-7 67c-22 11-120 11-221 0z"/>
  </g>
</svg>
