<?xml version="1.0"?>
<svg xmlns="http://www.w3.org/2000/svg" height="200pt" preserveAspectRatio="xMidYMid meet" viewBox="0 0 200 200" width="200pt">
  <g transform="matrix(.1 0 0 -.1 0 200)">
    <path d="m547 1743c-4-3-7-27-7-52 0-69 28-373 44-481 8-52 14-96 13-97s-67-9-147-18c-189-21-320-43-337-57-18-15-16-57 3-65 9-3 93 4 187 15 95 12 204 25 242 28l70 6 18-148c10-82 29-204 43-271 39-196 77-273 157-316 39-21 54-22 232-22 152 0 231 6 395 28 263 36 249 33 256 62 16 63-21 67-281 29-220-32-510-39-560-14-43 22-72 83-100 207-22 100-65 388-65 438 0 21 7 23 148 39 228 25 638 57 838 64 188 7 214 14 214 53 0 10-11 26-24 35-22 14-45 14-213 4-239-14-758-57-885-73-94-12-97-12-102 8-9 37-35 248-51 409-9 87-20 167-26 177-9 18-49 26-62 12z"/>
  </g>
</svg>
