<?xml version="1.0"?>
<svg xmlns="http://www.w3.org/2000/svg" height="200pt" preserveAspectRatio="xMidYMid meet" viewBox="0 0 200 200" width="200pt">
  <g transform="matrix(.1 0 0 -.1 0 200)">
    <path d="m1480 1649c-52-4-232-12-400-18-350-13-740-37-820-51-74-13-100-49-63-85 11-12 25-15 47-11 32 7 304 29 503 41l111 7 8-48c11-74-3-308-26-425-59-309-139-522-255-684-62-85-64-107-11-113 21-3 36 5 65 36 49 51 123 179 167 286 28 69 99 327 128 467 4 19 14 29 33 33 16 4 163 10 327 13l299 6-6-149c-10-238-32-325-130-521l-61-121-48 19c-58 23-84 24-92 4-8-23 39-71 100-101 82-40 89-34 179 146 41 82 86 188 100 235 28 99 45 244 45 395 0 124-11 167-46 176-30 8-607-3-649-11l-30-7v181 182c0 1 92 5 205 9 416 17 631 30 650 40 22 12 26 50 8 68-13 13-176 14-338 1z"/>
  </g>
</svg>
