<?xml version="1.0"?>
<svg xmlns="http://www.w3.org/2000/svg" height="200pt" preserveAspectRatio="xMidYMid meet" viewBox="0 0 200 200" width="200pt">
  <g transform="matrix(.1 0 0 -.1 0 200)">
    <path d="m1270 1773c-328-22-427-34-739-93-198-37-231-49-231-81 0-17 33-39 59-39 16 0 124 18 242 40 287 54 460 72 903 93 37 1 52 7 63 24 13 19 12 24-6 42-19 19-32 21-133 19-62-1-133-3-158-5z"/>
    <path d="m1200 1173c-133-5-402-33-535-54-168-27-204-49-155-94 18-16 24-16 107-1 144 26 326 45 533 56 163 8 197 13 208 27 6 9 12 22 12 29 0 19-41 44-70 42-14-1-59-3-100-5z"/>
    <path d="m1150 524c-19-2-98-9-175-15-251-20-810-108-882-139-27-11-31-51-7-71 13-11 55-6 252 29 446 80 714 106 1067 107 132 0 295-3 362-8 118-7 122-7 133 13 16 30-9 66-52 74-38 7-645 16-698 10z"/>
  </g>
</svg>
