<?xml version="1.0"?>
<svg xmlns="http://www.w3.org/2000/svg" height="200pt" preserveAspectRatio="xMidYMid meet" viewBox="0 0 200 200" width="200pt">
  <g transform="matrix(.1 0 0 -.1 0 200)">
    <path d="m853 1748c-12-15 1-1368 12-1405 7-23 6-23-78-23-179 0-590-30-632-46-23-9-31-53-13-71 13-12 29-13 109-4 190 22 497 31 1035 31 521 0 552 1 567 18 20 22 22 43 5 60-9 9-125 12-458 12h-447l-6 173c-4 94-7 260-7 368v196l98 7c53 3 178 9 277 12 99 4 188 11 198 16 20 10 23 48 5 66-20 20-281 13-524-13l-51-6-6 287c-6 232-10 292-22 311-17 25-47 30-62 11z"/>
  </g>
</svg>
