<?xml version="1.0"?>
<svg xmlns="http://www.w3.org/2000/svg" height="200pt" preserveAspectRatio="xMidYMid meet" viewBox="0 0 200 200" width="200pt">
  <g transform="matrix(.1 0 0 -.1 0 200)">
    <path d="m1579 1695c-3-2-117-11-254-20-138-8-335-22-440-30-104-8-266-19-360-25-93-6-180-13-191-15-27-6-37-30-24-56 10-17 22-19 118-19 99 0 301 12 450 26l62 6v-234c0-167 7-317 26-528 14-162 28-356 31-430 6-137 12-160 43-160 38 0 50 31 50 135 0 89-7 176-40 530-7 66-14 247-17 402-5 235-3 283 8 287 8 3 100 10 204 16 242 13 425 30 448 42 20 10 23 48 5 66-11 11-109 17-119 7z"/>
    <path d="m1076 1451c-22-25-9-59 38-95 20-15 93-81 164-147 111-104 131-119 157-117 25 3 30 8 33 33 2 27-9 41-103 129-136 127-243 216-259 216-7 0-20-8-30-19z"/>
  </g>
</svg>
