<?xml version="1.0"?>
<svg xmlns="http://www.w3.org/2000/svg" height="200pt" preserveAspectRatio="xMidYMid meet" viewBox="0 0 200 200" width="200pt">
  <g transform="matrix(.1 0 0 -.1 0 200)">
    <path d="m1325 1760c-49-5-200-15-335-24-275-19-523-44-557-57-15-6-23-17-23-33 0-46 18-50 162-32 154 18 478 39 486 32 8-9-76-223-122-311-85-161-262-392-402-524-112-106-269-223-338-250-30-13-57-30-60-38-16-41 47-55 123-29 139 50 460 345 591 544 14 21 15 13 15-105 0-139 22-613 34-731 7-71 17-91 48-92 7 0 20 11 29 25 14 21 14 41 5 172-13 180-31 573-34 740-2 107 0 120 13 108 8-7 75-43 148-79 196-98 431-260 583-402 43-41 85-74 93-74 31 0 46 13 46 40 0 90-521 460-806 572l-41 17 37 74c44 91 109 265 117 313 3 19 8 36 12 38 3 2 94 10 201 17 107 6 201 16 208 22 19 15 14 55-7 67-22 11-90 11-226 0z"/>
  </g>
</svg>
