<?xml version="1.0"?>
<svg xmlns="http://www.w3.org/2000/svg" height="200pt" preserveAspectRatio="xMidYMid meet" viewBox="0 0 200 200" width="200pt">
  <g transform="matrix(.1 0 0 -.1 0 200)">
    <path d="m888 1719c-23-13-23-96-3-334 21-240 26-215-47-215-35-1-115-7-178-14s-116-12-117-12c-1 1-9 69-18 151-20 195-20 195-50 195-49 0-52-35-29-287l7-70-94-7c-136-11-231-25-246-37-17-15-17-44 2-59 13-11 164-4 311 14l31 4 12-137c6-75 11-207 11-292 0-171 14-325 32-347 15-18 118-12 268 13 146 26 567 26 720 1 58-9 115-19 127-22 29-8 63 27 56 56-7 28-26 34-153 55-222 35-631 30-849-11-49-9-87-12-92-7s-14 135-19 289c-6 153-13 309-16 345l-6 66 128 11c71 7 150 12 175 12h47l6-118c12-207 27-356 38-369 12-15 62-17 86-4 36 19 179 42 274 44 72 1 102 5 111 16 8 9 13 77 15 210 1 108 5 206 8 219l5 23 167-7c193-7 225-1 220 43-5 46-35 53-219 53h-166l1 166c1 153 0 167-18 180-17 12-23 12-40 0-19-12-21-26-26-174-3-88-8-163-10-166-3-2-85-8-181-12l-176-7-6 54c-3 30-14 146-23 259-19 230-29 257-76 229zm454-761c-1-79-5-162-8-185l-5-42-67-6c-56-5-173-23-232-37-16-3-22 41-35 269l-7 132 124 4c67 1 148 4 178 5l55 2z"/>
  </g>
</svg>
