<?xml version="1.0"?>
<svg xmlns="http://www.w3.org/2000/svg" height="200pt" preserveAspectRatio="xMidYMid meet" viewBox="0 0 200 200" width="200pt">
  <g transform="matrix(.1 0 0 -.1 0 200)">
    <path d="m1145 1719c-93-4-259-17-368-28-108-12-219-21-245-21-62 0-87-18-78-53 4-18 15-29 33-33 15-4 116 1 225 11s201 15 205 11c10-9 16-208 9-269l-7-54-157-6c-86-4-224-16-307-27-82-11-182-20-221-20-53 0-75-4-85-16-11-13-9-58 10-267 38-426 78-698 105-726 21-20 62-6 70 24 3 14-1 57-9 97-18 85-48 320-69 533-9 83-18 175-22 206l-6 56 83 6c46 3 138 13 204 21s185 18 263 22l142 7v-261-261l-47-6c-82-10-245-36-258-41s-75 209-75 259c0 46-17 77-44 77-65 0-61-60 25-382 15-56 32-61 144-38 132 27 266 38 578 46 178 4 270 10 275 18 3 6 6 67 4 136-1 69 2 152 7 185 10 73 1 105-33 105-13 0-28-6-34-12-14-18-32-165-32-258v-77l-207-6c-113-4-207-6-209-5-1 2 0 120 3 264l6 261 181 13c100 7 258 15 352 17l172 5-4-473c-2-260-5-474-7-475-1-2-50 35-107 82-98 79-143 105-157 91-17-18 21-68 142-186 147-142 170-154 202-105 15 23 17 75 22 493 8 701 10 630-18 652-22 18-36 19-170 14-80-3-209-10-286-15s-181-12-232-15l-91-6-4 163c-2 90-2 165 0 168s103 6 225 8c241 4 267 10 267 57 0 48-22 50-365 34z"/>
  </g>
</svg>
