<?xml version="1.0"?>
<svg xmlns="http://www.w3.org/2000/svg" height="200pt" preserveAspectRatio="xMidYMid meet" viewBox="0 0 200 200" width="200pt">
  <g transform="matrix(.1 0 0 -.1 0 200)">
    <path d="m1270 1828c-11-13-43-52-72-86-132-158-139-174-85-180 22-3 40 9 93 60 116 111 156 182 122 216-18 18-37 15-58-10z"/>
    <path d="m480 1790c-8-15-7-26 2-44 17-30 172-173 198-181 24-8 60 11 60 31 0 9-46 60-102 115-106 102-138 117-158 79z"/>
    <path d="m1005 1420c-325-23-584-49-607-61-22-12-23-42-3-59 12-10 41-11 125-4 95 8 111 7 115-6 29-97 52-373 59-687l5-221-52-7c-195-24-495-87-548-115-23-13-25-43-3-61 13-10 37-7 143 20 130 32 344 66 621 98 122 14 240 17 560 18 223 0 411 4 418 8 18 12 15 55-6 66-10 5-151 11-320 13l-302 3v95c-2 310-11 520-29 660-11 85-18 156-16 158 6 7 230 19 265 15 51-6 90 11 90 40 0 13-5 28-12 35-17 17-183 14-503-8zm90-227c12-99 20-252 24-459l6-311-145-12c-80-7-154-14-166-17-19-5-22 0-28 57-3 34-6 128-6 208 0 167-22 437-45 560-9 46-13 86-10 90 4 3 77 11 163 17s164 12 173 13c13 1 19-24 34-146z"/>
    <path d="m1517 948c-20-35-65-105-101-157-71-102-83-141-42-141 37 0 71 33 140 138 89 134 113 186 96 206-27 34-56 19-93-46z"/>
    <path d="m292 838c-27-27-9-55 103-171 99-103 118-118 142-115 53 6 41 36-54 139-93 102-155 159-170 159-5 0-14-5-21-12z"/>
  </g>
</svg>
