<?xml version="1.0"?>
<svg xmlns="http://www.w3.org/2000/svg" height="200pt" preserveAspectRatio="xMidYMid meet" viewBox="0 0 200 200" width="200pt">
  <g transform="matrix(.1 0 0 -.1 0 200)">
    <path d="m945 1933c-14-14-16-30-10-107 3-50 8-103 11-118 5-22 2-28-13-28-89 0-474-58-572-86-45-13-59-13-78-3-21 11-26 10-45-8l-21-22 37-241c38-248 59-361 70-379 14-22 79-22 247-1 96 12 220 24 277 27l102 6v-194c0-309 19-660 38-681 20-23 35-23 57 2 17 18 17 33 6 247-6 126-11 319-11 431v202h93c52 0 183 11 293 24 289 35 292 36 298 20 7-17 50-18 63-2 6 7 16 144 23 305 17 405 17 393-5 409-23 17-194 19-300 3-38-5-140-16-225-24-85-9-176-18-201-21l-45-6-12 117c-6 64-17 123-23 131-15 19-34 18-54-3zm781-435c-3-90-9-211-13-270l-6-108h-47c-26 0-136-11-246-24-109-14-238-27-286-29l-88-5v268 268l43 6c23 3 116 13 207 21 91 9 192 20 225 24 33 5 96 9 139 10l79 1zm-776-172v-263l-97-7c-101-7-388-42-428-52-27-7-31 4-75 276-17 102-33 192-35 201-4 12 13 20 87 37 132 30 397 67 511 71l37 1z"/>
  </g>
</svg>
