<?xml version="1.0"?>
<svg xmlns="http://www.w3.org/2000/svg" height="200pt" preserveAspectRatio="xMidYMid meet" viewBox="0 0 200 200" width="200pt">
  <g transform="matrix(.1 0 0 -.1 0 200)">
    <path d="m733 1768c-4-7-8-67-9-133-1-133-12-276-22-292-9-15-166-33-282-33-70 0-101-4-118-16-26-18-29-46-7-64 19-16 158-19 293-7l94 9-7-34c-7-35-114-360-120-366-2-2-31 15-65 38-66 44-103 48-115 11-9-30 3-46 70-92 36-24 65-49 65-55 0-12-68-170-101-236-12-24-53-87-90-140-70-98-82-135-54-158 31-26 59-3 137 112s114 182 163 298c15 36 29 67 30 68 6 6 88-54 132-97 23-23 49-41 57-41 21 0 46 28 46 51 0 24-67 91-143 143l-56 38 21 52c36 90 75 209 103 317l27 105 146 24c93 15 190 38 268 65l121 41-32-50c-89-142-197-456-215-622-27-259 81-419 318-470 87-18 367-19 402-1 22 11 25 19 24 67-1 114-17 252-31 265-38 39-63-22-63-153v-94l-168 3c-166 4-168 4-234 37-80 39-122 84-143 154-31 106-17 228 51 434 60 179 126 318 203 423 65 90 66 92 51 122-16 30-51 24-240-41-161-55-420-113-435-98-3 2-1 58 5 124 10 125 4 270-13 292-5 6-20 12-33 12-12 0-26-6-31-12z"/>
  </g>
</svg>
