<?xml version="1.0"?>
<svg xmlns="http://www.w3.org/2000/svg" height="200pt" preserveAspectRatio="xMidYMid meet" viewBox="0 0 200 200" width="200pt">
  <g transform="matrix(.1 0 0 -.1 0 200)">
    <path d="m820 1795c-19-23-8-48 74-172 67-102 87-118 114-91 25 25 10 64-62 168-74 107-100 127-126 95z"/>
    <path d="m1130 1349c-174-6-421-26-598-48-34-4-70-14-78-23-19-18-11-53 12-62 9-3 82 0 162 8 81 8 179 18 218 21l71 7 6-54c7-52 10-308 4-308-16 0-256-32-269-36-22-7-30-31-17-56 10-19 17-20 98-14 47 3 110 9 139 13l52 6v-216-216l-52-5c-29-3-107-8-173-11-128-5-345-32-382-46-15-6-23-17-23-33 0-44 17-48 151-31 302 37 675 42 1106 13 148-9 184-9 197 1 21 18 20 58-1 70-23 12-275 30-530 38l-203 6v218c0 253-20 224 160 235 63 4 121 11 128 17 17 13 15 52-4 68-12 10-41 10-147 1-72-6-132-10-133-9s-4 81-7 178l-5 176 266 7c166 4 271 11 279 18 19 16 16 56-6 68-21 11-121 11-421-1z"/>
  </g>
</svg>
