<?xml version="1.0"?>
<svg xmlns="http://www.w3.org/2000/svg" height="200pt" preserveAspectRatio="xMidYMid meet" viewBox="0 0 200 200" width="200pt">
  <g transform="matrix(.1 0 0 -.1 0 200)">
    <path d="m1035 1734c-88-13-202-26-253-29-50-2-97-7-102-10-6-3-10-26-10-49 0-60-42-222-75-287-35-68-103-154-194-244-77-76-90-110-46-121 32-8 75 19 141 88 80 83 141 164 175 230 32 63 79 229 79 278 0 27 1 27 84 34 46 3 144 15 217 26 74 11 158 20 187 20 50 0 52-1 52-28 0-34-31-148-75-272-47-134-57-156-148-325-220-410-470-687-719-795-61-26-76-44-57-66 19-23 89-16 154 15 148 71 301 209 453 409l86 113 38-45c133-155 728-545 815-534 14 2 31 11 37 20 16 26-13 50-128 109-112 58-372 225-499 321-45 34-112 93-149 130l-68 69 30 52c17 29 66 120 109 202 159 302 253 644 193 698-26 24-130 21-327-9z"/>
  </g>
</svg>
