<?xml version="1.0"?>
<svg xmlns="http://www.w3.org/2000/svg" height="200pt" preserveAspectRatio="xMidYMid meet" viewBox="0 0 200 200" width="200pt">
  <g transform="matrix(.1 0 0 -.1 0 200)">
    <path d="m1010 1839c-73-45-249-133-398-200-23-10-45-26-48-34-9-23 15-45 47-45s152 41 222 77c27 13 52 22 55 19 3-4 8-44 10-91l5-85h-29c-53 0-339-53-361-67-46-28-13-81 43-70 23 4 24 2 24-57 0-33 3-70 6-82 5-19-3-22-131-47-75-14-143-31-151-38-8-6-14-22-14-35 0-36 35-39 162-15 62 12 120 21 129 21 13 0 18-15 23-72 4-40 9-87 12-103 5-29 3-31-38-40-34-8-44-15-46-33-2-13 2-30 9-39 14-17 47-16 222 7 48 6 93 10 99 8s-55-73-138-157c-207-213-336-311-552-421-57-28-106-58-109-66s1-21 8-30c25-31 97-13 221 55 167 92 284 185 459 360l156 158-5-271c-2-149 0-286 5-305s18-40 30-48c19-13 24-12 41 5 19 19 20 30 15 139-3 65-2 189 2 276l7 158 122-118c66-65 153-142 191-171 89-67 335-190 456-230 136-44 151-46 180-23 39 32 16 51-122 98-160 55-370 159-467 233-97 73-362 332-362 354 0 14 23 16 208 16 190 0 210 2 225 18 40 44 7 72-85 72h-70l6 28c3 15 8 68 11 119 6 82 9 92 28 97 12 3 106 6 210 6h187l12 26c11 23 10 29-12 46-23 18-37 20-222 16l-198-3v88 87h28c34 0 52 16 52 47 0 38-32 47-155 40-60-4-140-10-177-13l-68-7v109l1 109 82 50c84 51 103 79 77 111-20 23-40 17-130-37zm200-498c0-104 9-96-127-106l-93-7v90 90l93 10 110 11c15 1 17-9 17-88zm-310-30v-89l-52-6c-29-3-81-8-114-12l-61-6-8 77c-4 42-4 79 0 83 3 4 57 14 118 23 62 10 113 18 115 18 1 1 2-39 2-88zm305-263c-4-62-9-116-12-120-2-5-49-8-104-8h-99v109 109l88 7c48 3 92 8 97 10 36 13 38 8 30-107zm-305-28v-110h-39c-21 0-65-3-97-6l-60-6-11 103c-7 57-11 105-9 106 4 4 137 20 179 22l37 1z"/>
  </g>
</svg>
