<?xml version="1.0"?>
<svg xmlns="http://www.w3.org/2000/svg" height="200pt" preserveAspectRatio="xMidYMid meet" viewBox="0 0 200 200" width="200pt">
  <g transform="matrix(.1 0 0 -.1 0 200)">
    <path d="m731 1762c-5-10-7-45-4-78 6-64-14-334-25-346-10-10-169-28-290-33-87-3-109-7-119-21-43-58 38-79 245-62 73 6 135 8 138 5 11-11-57-232-123-396-95-241-151-354-232-472-75-107-84-140-48-163 12-8 22-8 35 0 33 21 153 200 206 309 102 208 220 534 260 716 5 24 11 26 159 52 92 15 200 42 270 66l118 40-21-29c-59-84-179-391-215-553-25-115-18-282 17-357 42-92 127-158 253-197 51-15 89-18 249-16 154 2 193 5 205 18 13 13 13 28 3 112-7 54-12 116-12 139 0 48-20 80-44 71-27-11-37-57-34-154l3-93h-151c-123 0-164 4-216 20-209 64-251 259-134 607 57 168 105 273 175 376 104 156 98 142 77 166-11 12-29 21-40 21-12 0-100-27-196-60-98-34-222-69-284-80-171-31-153-52-148 173 3 136 1 200-7 215-14 27-56 29-70 4z"/>
  </g>
</svg>
