<?xml version="1.0"?>
<svg xmlns="http://www.w3.org/2000/svg" height="200pt" preserveAspectRatio="xMidYMid meet" viewBox="0 0 200 200" width="200pt">
  <g transform="matrix(.1 0 0 -.1 0 200)">
    <path d="m1083 1855c-3-9-1-330 5-713 8-589 12-707 26-762 38-148 42-153 177-170 98-12 340-12 452-1 119 13 117 9 116 220-2 197-6 234-32 239-27 5-36-35-47-205-5-86-12-159-16-162-8-9-484-7-515 1-23 7-29 18-44 75-21 82-22 115-36 863-6 327-13 603-15 613-7 22-62 24-71 2z"/>
    <path d="m609 1828c-8-7-41-48-74-91-51-68-143-161-329-329-37-33-48-50-42-63 5-14 14-17 47-12 39 5 83 34 184 121l40 34 2-223 3-223-48-10c-26-6-96-20-156-33-107-22-152-45-144-71 11-31 37-32 180-5 79 15 149 27 156 27 10 0 12-29 10-127l-3-127-30-8c-16-5-54-9-82-9-46 0-53-2-58-22-4-13 2-119 12-237l18-215 28-13c24-12 54-10 216 13 115 16 203 23 228 19 35-5 43-3 52 14 6 11 11 40 11 64s7 122 16 220c24 249 23 250-213 210l-103-18v127c0 113 2 128 18 133 39 11 231 45 292 51 95 9 108 13 121 36 9 18 7 25-9 42-20 19-25 20-119 8-54-6-142-21-197-32-54-11-101-17-104-14s-8 119-10 258l-4 252 46 55c101 118 127 178 87 200-24 13-24 13-42-2zm161-1180c0-26-31-323-34-325-5-5-316-53-341-53-21 0-22 6-30 118-5 64-9 137-9 162l-1 44 45 8c25 5 101 19 170 32 144 28 200 32 200 14z"/>
  </g>
</svg>
