<?xml version="1.0"?>
<svg xmlns="http://www.w3.org/2000/svg" height="200pt" preserveAspectRatio="xMidYMid meet" viewBox="0 0 200 200" width="200pt">
  <g transform="matrix(.1 0 0 -.1 0 200)">
    <path d="m443 1822c-88-89-196-174-285-226-37-21-48-34-48-52 0-54 67-43 175 28 96 63 295 255 295 286 0 21-24 52-40 52-5 0-48-40-97-88z"/>
    <path d="m982 1818c-16-16-15-119 3-257 9-63 20-230 25-370 25-619 40-792 74-860 26-49 94-109 140-123 62-19 637-18 659 1 23 19 22 70-8 237-33 188-50 229-82 202-17-14-16-77 3-231 9-70 15-130 12-132-8-8-474-10-520-2-52 9-100 43-123 87-19 37-45 244-45 365 0 55-5 141-10 190-6 50-14 200-20 335-5 135-16 288-25 340-8 52-15 120-15 151 0 56-12 79-40 79-9 0-21-5-28-12z"/>
    <path d="m772 1687c-6-7-22-42-35-77-14-36-35-92-48-126-24-64-21-94 9-94 27 0 45 24 92 121 46 97 59 151 40 174-15 18-44 19-58 2z"/>
    <path d="m420 1565c-22-26-2-59 66-107 71-51 94-57 114-33s1 53-67 105c-69 52-93 60-113 35z"/>
    <path d="m260 1510c-15-27-3-46 71-114 47-44 67-56 88-54s27 9 29 33c2 26-7 39-67 93-73 65-103 76-121 42z"/>
    <path d="m605 1243c-231-32-279-42-292-59-11-15-10-22 1-38 16-24 22-24 188-3 126 16 125 17 24-83-74-72-79-90-43-148 26-41 52-101 46-105-2-1-49-24-104-51-119-57-254-137-279-165-20-22-18-49 5-64 13-8 42 5 135 61 148 88 273 146 279 129 28-86 55-299 55-435 0-118 5-115-93-65-57 28-92 27-92-2 0-14 29-40 100-87 161-108 175-99 175 118 0 153-16 307-44 427-9 38-16 74-16 80 0 7 36 27 80 46 93 40 115 59 106 96-9 34-27 32-131-14l-88-39-29 60c-15 33-28 62-28 65 0 2 47 54 105 113 106 110 119 134 89 164-17 18-14 18-149-1z"/>
  </g>
</svg>
