<?xml version="1.0"?>
<svg xmlns="http://www.w3.org/2000/svg" height="200pt" preserveAspectRatio="xMidYMid meet" viewBox="0 0 200 200" width="200pt">
  <g transform="matrix(.1 0 0 -.1 0 200)">
    <path d="m855 1855c-266-32-330-57-290-111 14-20 40-20 155 0 117 20 341 38 423 34l68-3-137-125c-75-69-144-132-153-141-15-14-21-11-74 35-52 45-59 48-82 38-48-22-32-47 121-199 123-122 150-144 172-141 21 2 28 9 30 31 3 22-9 42-56 95l-60 68 61 52c102 85 273 255 296 292 25 42 26 54 5 74-13 13-44 16-192 15-97-1-226-7-287-14z"/>
    <path d="m1493 1219c-128-10-296-27-375-38s-168-23-198-26c-331-37-693-107-732-142-22-20-23-46-2-63 12-11 35-9 127 13 168 39 316 64 592 97 138 17 275 35 305 40 42 8 443 40 495 40 5 0-15-21-45-47s-70-62-87-81c-48-49-42-91 11-78 31 8 155 103 229 174 60 59 70 88 41 116-19 20-53 19-361-5z"/>
    <path d="m942 1008c-16-16-15-43 4-103 13-40 17-114 21-368 4-197 2-317-4-317-5 0-50 34-99 75-86 72-116 87-129 65-9-15 16-50 96-135 126-132 206-172 228-112 21 58 2 714-24 812-23 84-59 117-93 83z"/>
  </g>
</svg>
