<?xml version="1.0"?>
<svg xmlns="http://www.w3.org/2000/svg" height="200pt" preserveAspectRatio="xMidYMid meet" viewBox="0 0 200 200" width="200pt">
  <g transform="matrix(.1 0 0 -.1 0 200)">
    <path d="m878 1945c-2-3-47-6-99-7l-94-3-20-42c-33-68-105-150-193-220-83-66-94-85-59-107 45-28 242 126 307 241 22 40 22 40 98 47 41 3 124 6 184 6 109 0 109 0 102-22-24-78-116-212-206-300l-51-50-111-14c-244-32-311-56-287-103 14-26 24-26 168 0 64 11 150 21 192 22l76 2 12-60c7-33 15-92 19-131l6-71-88-7c-49-3-228-20-399-37-310-31-355-40-355-74 0-25 45-47 82-40 54 10 763 74 767 69 3-2 7-53 9-112l4-108-227-32c-126-18-234-37-242-43-18-15-17-44 3-59 12-11 52-9 222 13 114 15 214 27 223 27 14 0 17-31 23-247 4-137 9-271 13-300l6-52-52 14c-29 7-74 25-101 39-73 38-99 32-86-20 9-33 83-79 169-105 37-12 70-25 73-30 9-14 50-10 64 6 10 12 11 89 5 361l-7 347 178-7c99-4 193-8 211-8 17-1 43 6 57 15l26 17v151 151l223-7c198-6 224-6 236 9 18 22 6 62-21 70-13 3-59 6-103 6s-138 3-209 7l-129 6 9 116c13 178 12 201-13 220-18 15-49 17-261 16l-241-1 39 42c61 67 129 175 155 250 51 143 40 154-157 154-79 0-147-2-150-5zm537-657c-4-73-8-134-9-134 0-1-89-4-197-6l-196-6-16 112c-10 61-20 121-23 133-8 28 2 30 250 32l198 1zm-11-250c3-13 6-70 6-127 0-94-1-103-17-96-10 5-95 10-189 13l-171 4-7 76c-10 127-9 140 17 145 12 2 97 5 188 6 165 1 167 1 173-21z"/>
  </g>
</svg>
