<?xml version="1.0"?>
<svg xmlns="http://www.w3.org/2000/svg" height="200pt" preserveAspectRatio="xMidYMid meet" viewBox="0 0 200 200" width="200pt">
  <g transform="matrix(.1 0 0 -.1 0 200)">
    <path d="m972 1974c-21-14-22-24-22-138v-122l-241-19c-241-18-269-24-269-59 0-7 9-21 19-31 19-16 30-16 223-1 112 9 218 16 236 16h32v-78-79l-127-12c-71-6-140-11-155-11-16 0-37-9-48-20-19-19-19-23-6-49 9-16 27-77 42-136 33-130 48-150 108-142 22 3 71 9 109 13l67 7v-65-64l-146-16c-164-18-187-28-165-74 13-29 10-29 239-8l72 7v-56c0-53-1-56-27-61-16-3-167-24-338-46-171-23-317-45-325-49-8-5-16-20-18-35-3-20 2-28 24-36 26-10 68-6 547 58l137 19v-62-61l-117-13c-122-13-163-28-163-60 0-39 21-43 150-30 66 6 122 10 124 8 5-4 24-332 21-337-2-2-33 11-70 27-81 37-95 38-95 8 0-37 27-65 108-112 84-49 110-54 136-27 15 17 16 41 10 234l-7 215 79 6c43 4 126 9 184 13s112 10 120 14c11 7 15 30 15 99 1 50 5 94 9 98s98 12 209 17c111 4 208 13 215 18 17 15 15 44-5 64-16 15-36 16-215 10l-198-7v85c0 117-6 121-173 112-67-4-150-9-184-12l-63-6v64 65l68 6c37 4 99 7 139 7 118 0 116-1 137 137 31 199 31 200 6 213-20 11-148 8-287-6l-53-5v80c0 45 3 81 8 81 4 0 68 7 142 15s160 15 190 15 72 5 93 11c32 9 37 14 37 39 0 48-22 53-178 40-75-6-170-16-211-21s-77-7-79-4c-3 2-7 59-10 125-4 100-8 122-22 130-11 6-24 4-38-6zm323-601c-3-10-9-46-12-81s-11-65-17-67-59-6-118-9l-108-6v85 84l43 4c23 2 82 4 131 5 80 2 88 0 81-15zm-345-87v-83l-65-7c-36-4-78-9-93-12-28-6-29-4-50 77-12 45-20 85-16 88 6 6 104 17 182 19l42 2zm410-413c0-76 1-76-174-81l-156-5v57c0 46 3 56 18 57 49 4 242 16 275 17l37 2zm-14-194c-3-17-6-44-6-59v-27l-97-7c-54-4-122-9-150-13l-53-6v62c0 51 3 61 18 62 9 1 71 5 137 9 66 3 128 7 139 8 16 2 18-3 12-29z"/>
  </g>
</svg>
