<?xml version="1.0"?>
<svg xmlns="http://www.w3.org/2000/svg" height="200pt" preserveAspectRatio="xMidYMid meet" viewBox="0 0 200 200" width="200pt">
  <g transform="matrix(.1 0 0 -.1 0 200)">
    <path d="m1270 1773c-328-22-427-34-739-93-153-29-209-43-218-56-17-23-16-29 3-48 22-23 46-21 284 24 117 22 214 40 216 40s-7-493-10-497c0-1-62-11-136-23-172-28-210-50-161-94 18-17 25-16 141 3 173 30 170 30 171-21 1-24 4-148 8-276l6-232-30-5c-16-3-95-14-175-25-166-23-504-86-537-100-27-11-31-51-7-71 13-11 55-6 252 29 446 80 714 106 1067 107 132 0 295-3 362-8 118-7 122-7 133 13 16 30-9 66-52 73-18 4-138 9-267 13l-233 7 6 106c3 58 9 196 12 307 8 250 16 236-134 228-59-3-154-9-212-14-57-5-106-8-107-6-2 2-6 113-10 248l-6 245 34 6c48 9 296 27 473 35 138 6 150 9 163 29 13 19 12 24-6 42-19 19-32 21-133 19-62-1-133-3-158-5zm2-905c-7-112-12-233-12-269v-67l-72-6c-40-3-115-9-165-12l-93-7v96c0 52-5 175-11 272-5 98-7 181-2 186 11 11 345 27 357 17 6-4 5-87-2-210z"/>
  </g>
</svg>
