<?xml version="1.0"?>
<svg xmlns="http://www.w3.org/2000/svg" height="200pt" preserveAspectRatio="xMidYMid meet" viewBox="0 0 200 200" width="200pt">
  <g transform="matrix(.1 0 0 -.1 0 200)">
    <path d="m650 1721c-6-12-10-95-10-200 0-179 0-181-22-185-13-3-80-14-151-26-185-31-279-55-294-76-16-22-16-26 1-49 13-18 16-18 117 3 57 13 113 25 125 27 20 4 21-2 32-140 16-192 60-560 73-610 18-65 38-96 74-111 41-17 218-18 370-4 55 6 203 15 328 20 352 14 387 20 387 65 0 41-26 47-166 35-70-5-175-10-233-10s-173-7-256-15c-190-19-389-20-403-2-5 6-15 37-20 67-22 113-64 509-66 615l-1 110 80 12c146 23 577 63 785 73 382 19 400 22 400 69 0 41-21 44-198 33-92-6-216-14-277-17-116-7-494-41-557-51l-38-6v177c0 102-4 184-10 196-6 11-21 19-35 19s-29-8-35-19z"/>
  </g>
</svg>
