<?xml version="1.0"?>
<svg xmlns="http://www.w3.org/2000/svg" height="200pt" preserveAspectRatio="xMidYMid meet" viewBox="0 0 200 200" width="200pt">
  <g transform="matrix(.1 0 0 -.1 0 200)">
    <path d="m832 1858c-8-8-12-54-12-143v-131l-237-28c-131-15-245-31-253-36-20-10-25-37-10-55 17-21 111-19 300 5 157 19 475 44 720 56 74 4 143 11 153 16 27 14 23 66-7 77-21 9-310-6-508-25l-68-6v115c0 133-9 167-43 167-13 0-28-5-35-12z"/>
    <path d="m647 1318c-8-13-27-45-42-73-33-59-205-231-294-295-103-73-104-74-97-97 19-59 95-28 239 96 157 135 267 279 267 348 0 44-51 58-73 21z"/>
    <path d="m1188 1315c-10-22-8-29 13-51 34-37 343-186 376-182 49 6 57 56 12 79-87 45-370 179-379 179-6 0-16-11-22-25z"/>
    <path d="m1144 1044c-26-60-103-177-153-234l-31-35-65 67c-35 37-86 100-113 140-41 63-51 73-77 73-23 0-31-5-33-22-6-44 75-170 180-279l49-51-110-103c-176-164-382-304-528-360-39-14-48-23-48-41 0-21 5-24 47-27 117-8 352 136 597 366l116 109 87-68c179-142 331-227 514-288 98-33 216-54 251-45 28 8 40 42 21 60-8 8-61 26-119 39-160 37-311 101-449 189-70 45-240 174-240 182 0 3 30 46 66 97 88 121 140 231 125 263-7 16-19 24-36 24-22 0-30-9-51-56z"/>
  </g>
</svg>
