<?xml version="1.0"?>
<svg xmlns="http://www.w3.org/2000/svg" height="200pt" preserveAspectRatio="xMidYMid meet" viewBox="0 0 200 200" width="200pt">
  <g transform="matrix(.1 0 0 -.1 0 200)">
    <path d="m855 1894c-17-18-17-32 1-329l5-90-263-38c-145-21-274-41-287-45-56-16-52-74 6-80 17-2 172 17 345 43 282 41 545 64 703 61 22 0 84 1 137 2 91 2 99 4 113 26 13 19 14 29 5 45-10 20-19 21-178 21-92 0-239-5-326-11-87-5-160-9-162-7-1 2-7 88-13 192-8 154-13 192-27 207-21 23-38 24-59 3z"/>
    <path d="m937 1275c-187-23-251-41-286-81-17-19-31-37-31-39s14-69 31-147c17-79 30-153 30-164 0-12 8-29 18-38 18-16 26-17 125-2 59 9 113 16 121 16 13 0 15-45 15-320 0-176-3-320-6-320-4 0-28 12-54 26-55 30-84 29-88-4-5-31 16-53 103-107 83-51 98-54 119-23 14 19 16 73 16 389 0 312 2 368 15 372 8 4 60 9 115 13 65 4 107 12 115 21 11 11 14 53 12 197-3 236 4 226-151 225-61-1-160-7-219-14zm280-202c-4-69-8-127-9-128-6-5-439-57-442-54-1 2-14 59-28 127l-26 123 25 10c23 9 174 33 263 42 19 2 77 5 129 5l94 2z"/>
    <path d="m1280 615c-32-38-4-65 225-225 130-90 162-103 185-75 26 31 2 59-126 145-70 47-152 104-182 128-59 45-82 51-102 27z"/>
    <path d="m680 593c-8-3-26-17-40-33-14-15-71-67-128-115-115-98-128-115-112-145 19-35 55-24 132 42 137 115 198 180 198 210 0 29-24 49-50 41z"/>
  </g>
</svg>
