<?xml version="1.0"?>
<svg xmlns="http://www.w3.org/2000/svg" height="200pt" preserveAspectRatio="xMidYMid meet" viewBox="0 0 200 200" width="200pt">
  <g transform="matrix(.1 0 0 -.1 0 200)">
    <path d="m920 1885c-9-11-11-35-7-83 9-96-13-229-84-491-70-263-90-322-135-411-81-161-303-485-426-625-49-55-87-106-86-115 2-9 16-16 36-18 29-3 42 5 113 75 112 108 414 554 468 691 8 17 17 32 21 32 5 0 19-17 32-37 149-243 637-685 880-798 62-29 126-33 135-9 8 21-6 33-130 108-288 175-585 442-783 706-31 41-65 93-76 115l-20 41 37 139c20 77 50 192 67 255 28 102 31 131 32 261 1 110-2 150-13 162-17 21-45 22-61 2z"/>
  </g>
</svg>
