<?xml version="1.0"?>
<svg xmlns="http://www.w3.org/2000/svg" height="200pt" preserveAspectRatio="xMidYMid meet" viewBox="0 0 200 200" width="200pt">
  <g transform="matrix(.1 0 0 -.1 0 200)">
    <path d="m666 1858c-10-6-35-48-57-95-114-249-254-459-407-611-85-85-112-119-110-135 3-24 26-32 62-23 28 7 144 112 208 189l48 58v-560c0-495 2-561 16-575 8-9 24-16 33-16 46 0 46-5 46 664v631l48 78c54 89 112 203 151 295 20 47 24 67 17 81-14 25-33 31-55 19z"/>
    <path d="m1360 1319c-47-5-189-17-317-28s-241-25-253-31c-11-6-20-19-20-29 0-41 18-43 237-27 114 9 278 21 363 27s165 13 177 15c33 6 46 36 27 62-17 25-55 26-214 11z"/>
    <path d="m1080 550c-189-11-410-44-421-61-23-37 9-74 55-65 215 40 844 56 1049 27 91-13 99-12 117 4 44 39 19 65-77 82-99 16-531 24-723 13z"/>
  </g>
</svg>
