<?xml version="1.0"?>
<svg xmlns="http://www.w3.org/2000/svg" height="200pt" preserveAspectRatio="xMidYMid meet" viewBox="0 0 200 200" width="200pt">
  <g transform="matrix(.1 0 0 -.1 0 200)">
    <path d="m802 1868c-7-7-12-24-12-40 0-63-90-253-178-378-75-106-158-186-320-307-121-91-152-119-150-135 2-12 11-26 20-32 25-15 81 15 223 121 128 96 224 191 298 295 48 68 131 221 160 298l17 44 37-35c55-53 188-150 295-217 175-110 563-340 584-346 22-7 54 15 54 35 0 25-74 76-360 247-330 198-492 312-573 403-52 59-73 69-95 47z"/>
    <path d="m986 1219c-257-33-327-58-312-107 10-30 32-34 95-17 66 17 351 55 414 55 73 0 117 39 87 75-16 20-105 18-284-6z"/>
    <path d="m1265 873c-22-2-123-10-225-18-164-14-437-47-496-60-28-6-37-30-23-57 10-19 17-20 88-15 42 3 126 13 186 21 115 16 479 46 552 46h43l-78-92c-94-113-209-264-286-378-32-47-70-98-86-115-15-16-33-41-40-54-11-22-10-27 9-42 12-10 30-15 41-12 25 7 91 79 138 153 52 80 236 324 307 405 119 136 143 183 113 213-11 11-138 14-243 5z"/>
  </g>
</svg>
