<?xml version="1.0"?>
<svg xmlns="http://www.w3.org/2000/svg" height="200pt" preserveAspectRatio="xMidYMid meet" viewBox="0 0 200 200" width="200pt">
  <g transform="matrix(.1 0 0 -.1 0 200)">
    <path d="m666 1858c-10-6-35-48-57-95-114-249-254-459-407-611-85-85-112-119-110-135 3-24 26-32 62-23 28 7 144 112 208 189l48 58v-560c0-495 2-561 16-575 8-9 24-16 33-16 46 0 46-5 46 664v631l48 78c54 89 112 203 151 295 20 47 24 67 17 81-14 25-33 31-55 19z"/>
    <path d="m1146 1688c-9-12-16-32-16-44 0-91-162-628-267-884-91-221-158-435-146-466 12-32 41-35 90-11 57 29 265 98 378 126 100 25 187 39 323 52 58 5 112 15 119 21s15 9 17 7c13-14 68-137 91-202 16-44 36-82 46-88 27-14 59 6 59 36 0 66-109 298-254 542-66 112-91 138-120 127-36-14-27-43 58-191l86-148-38-6c-20-4-86-12-147-19-151-16-274-44-447-100-95-30-148-43-148-36 0 21 55 176 113 316 50 123 148 416 212 637 15 49 35 138 45 198 17 97 17 113 4 133-18 28-39 28-58 0z"/>
  </g>
</svg>
