<?xml version="1.0"?>
<svg xmlns="http://www.w3.org/2000/svg" height="200pt" preserveAspectRatio="xMidYMid meet" viewBox="0 0 200 200" width="200pt">
  <g transform="matrix(.1 0 0 -.1 0 200)">
    <path d="m666 1858c-10-6-35-48-57-95-114-249-254-459-407-611-85-85-112-119-110-135 3-24 26-32 62-23 28 7 144 112 208 189l48 58v-560c0-495 2-561 16-575 8-9 24-16 33-16 46 0 46-5 46 664v631l48 78c54 89 112 203 151 295 20 47 24 67 17 81-14 25-33 31-55 19z"/>
    <path d="m1220 1765c-16-19-9-199 15-389 9-71 14-131 11-133-5-5-83-16-319-43-93-10-175-24-183-31-18-15-18-43 1-59 18-15 117-9 348 20 83 11 155 20 160 20 4 0 7-26 7-57 0-32 4-116 10-188 5-71 14-206 20-300 6-93 13-200 16-237l6-68h-62c-87 0-270-28-297-46-26-16-30-46-9-63 11-9 40-8 128 4 71 11 218 19 397 22 259 5 286 8 302 24 23 23 24 42 3 60-12 10-57 12-194 10l-177-3-7 99c-3 54-11 157-16 228-23 316-32 495-27 510 6 13 39 15 245 15 252 0 262 2 262 47 0 41-26 45-279 41l-237-3-27 220c-15 121-28 236-27 256 0 54-40 80-70 44z"/>
  </g>
</svg>
