<?xml version="1.0"?>
<svg xmlns="http://www.w3.org/2000/svg" height="200pt" preserveAspectRatio="xMidYMid meet" viewBox="0 0 200 200" width="200pt">
  <g transform="matrix(.1 0 0 -.1 0 200)">
    <path d="m666 1858c-10-6-35-48-57-95-114-249-254-459-407-611-85-85-112-119-110-135 3-24 26-32 62-23 28 7 144 112 208 189l48 58v-560c0-495 2-561 16-575 8-9 24-16 33-16 46 0 46-5 46 664v631l48 78c54 89 112 203 151 295 20 47 24 67 17 81-14 25-33 31-55 19z"/>
    <path d="m1269 1784c-10-13-14-78-17-273l-4-257-127-42c-70-23-133-42-140-42-10 0-13 23-11 103 4 132 5 127-30 127-42 0-51-24-59-153l-6-110-93-31c-93-31-118-50-106-80 10-27 48-29 119-7 37 12 71 21 76 21s9-146 9-337c0-381 0-381 76-438 66-50 237-89 394-89 129 0 371 33 437 60 44 17 47 40 28 178s-21 146-46 146c-30 0-41-45-37-149l3-95-60-12c-231-44-429-45-575-1-59 18-92 33-107 52l-23 26 2 346 3 345 135 44c74 24 136 44 136 44 1 0 5-107 9-237 4-136 11-243 17-250 16-20 45-15 62 9 13 19 16 62 16 265v242l38 10c102 28 215 51 285 59l77 8v-92c0-95-16-191-46-280-19-57-85-204-91-204-2 0-27 10-54 21-54 23-76 17-65-18 8-25 114-113 136-113 29 0 62 48 113 162 73 163 107 323 107 499 0 60-4 82-19 100l-19 23-117-13c-64-7-168-25-230-40l-113-28-6 21c-3 12-6 122-6 247 0 232-3 249-41 249-9 0-23-7-30-16z"/>
  </g>
</svg>
