<?xml version="1.0"?>
<svg xmlns="http://www.w3.org/2000/svg" height="200pt" preserveAspectRatio="xMidYMid meet" viewBox="0 0 200 200" width="200pt">
  <g transform="matrix(.1 0 0 -.1 0 200)">
    <path d="m666 1858c-10-6-35-48-57-95-114-249-254-459-407-611-85-85-112-119-110-135 3-24 26-32 62-23 28 7 144 112 208 189l48 58v-560c0-495 2-561 16-575 8-9 24-16 33-16 46 0 46-5 46 664v631l48 78c54 89 112 203 151 295 20 47 24 67 17 81-14 25-33 31-55 19z"/>
    <path d="m1483 1838c-4-7-7-86-5-175l3-162-43-5c-24-3-77-8-118-11-163-12-549-67-570-80-15-9-12-51 5-65 11-9 51-7 192 14 189 27 314 41 454 52l86 6 8-238c4-132 8-393 9-580l2-342-67 29c-82 35-129 38-129 10 0-25 44-59 145-110 87-45 119-50 133-23 6 9 8 157 6 342-2 179-5 458-6 620l-3 295 148 5c117 4 150 8 157 20 13 20 12 23-4 46-13 17-26 19-164 17l-149-2-6 82c-4 45-7 115-7 155s-5 82-10 93c-12 21-54 26-67 7z"/>
    <path d="m872 898c-22-22-12-47 35-85 26-21 77-66 115-101 55-50 74-63 96-60 34 4 41 36 16 73-23 35-212 185-233 185-9 0-22-5-29-12z"/>
  </g>
</svg>
