<?xml version="1.0"?>
<svg xmlns="http://www.w3.org/2000/svg" height="200pt" preserveAspectRatio="xMidYMid meet" viewBox="0 0 200 200" width="200pt">
  <g transform="matrix(.1 0 0 -.1 0 200)">
    <path d="m666 1858c-10-6-35-48-57-95-114-249-254-459-407-611-85-85-112-119-110-135 3-24 26-32 62-23 28 7 144 112 208 189l48 58v-560c0-495 2-561 16-575 8-9 24-16 33-16 46 0 46-5 46 664v631l48 78c54 89 112 203 151 295 20 47 24 67 17 81-14 25-33 31-55 19z"/>
    <path d="m1168 1793c-11-13-17-53-22-148-3-71-9-164-12-206l-7-77-46-6c-25-4-104-13-175-22-71-8-135-19-143-25-7-6-13-22-13-35 0-42 28-46 178-30 75 8 151 18 168 22l31 6 6-149c10-246 68-550 129-664 34-65 135-174 196-213 60-38 184-86 221-86 40 0 87 42 141 124 45 70 50 109 15 114-14 2-40-20-88-73-78-85-67-84-182-29-85 39-180 131-223 213-54 103-109 396-119 634-3 85-2 147 3 147s63 9 129 20 194 25 285 31c133 10 169 15 184 29 20 20 16 64-6 72-24 9-303-14-448-37-80-12-146-21-148-20-2 2 1 69 7 148 15 199 14 242-5 261-20 21-37 20-56-1z"/>
    <path d="m1432 1718c-31-31-9-60 78-103 30-15 74-41 97-56 63-44 125-32 108 20-7 22-101 85-189 124-66 30-77 32-94 15z"/>
  </g>
</svg>
