<?xml version="1.0"?>
<svg xmlns="http://www.w3.org/2000/svg" height="200pt" preserveAspectRatio="xMidYMid meet" viewBox="0 0 200 200" width="200pt">
  <g transform="matrix(.1 0 0 -.1 0 200)">
    <path d="m908 1849c-10-5-18-20-18-32-1-42-48-137-126-254-106-161-383-444-565-579-70-52-130-101-133-110-8-21 11-44 36-44 110 0 560 415 733 675 40 61 81 126 91 147l17 36 67-86c136-174 402-411 609-541 215-135 284-166 329-150 47 18 19 53-93 116-253 144-406 257-597 442-147 142-213 221-266 318-38 69-54 81-84 62z"/>
    <path d="m867 1133c-20-19-4-61 39-103 25-25 63-68 85-96 22-29 48-54 58-57 29-7 51 11 51 42 0 22-20 50-91 125-86 91-120 112-142 89z"/>
    <path d="m1166 764c-138-12-371-44-475-63-62-12-81-48-38-75 19-12 41-11 173 9 83 13 212 28 285 34 74 7 146 13 162 15l27 3-23-26c-13-14-59-66-101-116-43-49-102-111-133-138l-55-47-59 51c-67 57-102 63-107 17-4-35 41-85 178-196 58-47 113-94 123-104 20-21 31-22 58-8 43 24 18 71-76 142l-44 33 72 70c74 72 258 278 289 324 37 55 12 92-60 90-26-1-114-7-196-15z"/>
  </g>
</svg>
