<?xml version="1.0"?>
<svg xmlns="http://www.w3.org/2000/svg" height="200pt" preserveAspectRatio="xMidYMid meet" viewBox="0 0 200 200" width="200pt">
  <g transform="matrix(.1 0 0 -.1 0 200)">
    <path d="m293 1598c-4-7-8-130-8-273s-1-404-2-581l-3-320-116-70c-64-38-124-80-132-93-15-22-15-25 6-42 27-21 35-19 122 34 175 107 418 225 613 297 70 26 88 37 93 57 7 25-10 53-32 53-25 0-237-82-350-135l-111-52-6 166c-4 91-2 268 4 393 14 267 0 529-28 560-19 21-39 23-50 6z"/>
    <path d="m1414 1588c-5-7-7-44-5-83 7-188-73-453-231-769-85-170-127-236-205-317-77-81-89-111-45-117 35-5 104 41 156 105 55 66 106 151 167 278 24 50 45 92 47 94 1 3 26-21 54-53 70-79 380-349 448-391 72-44 102-51 124-30 23 24 7 47-67 97-110 74-438 364-491 432l-25 34 39 104c77 206 110 353 110 497 0 89-14 131-45 131-13 0-27-6-31-12z"/>
    <path d="m787 1148c-34-19-20-53 40-99 32-24 85-72 118-107 51-54 64-62 90-60 23 2 31 9 33 26 5 30-84 131-167 192-73 53-92 61-114 48z"/>
  </g>
</svg>
