<?xml version="1.0"?>
<svg xmlns="http://www.w3.org/2000/svg" height="200pt" preserveAspectRatio="xMidYMid meet" viewBox="0 0 200 200" width="200pt">
  <g transform="matrix(.1 0 0 -.1 0 200)">
    <path d="m666 1858c-10-6-35-48-57-95-114-249-254-459-407-611-85-85-112-119-110-135 3-24 26-32 62-23 28 7 144 112 208 189l48 58v-560c0-495 2-561 16-575 8-9 24-16 33-16 46 0 46-5 46 664v631l48 78c54 89 112 203 151 295 20 47 24 67 17 81-14 25-33 31-55 19z"/>
    <path d="m1415 1659c-44-4-179-22-300-39-231-33-252-40-241-85 40-159 23-485-34-694-46-166-161-417-236-514-24-31-44-66-44-77 0-26 34-44 59-30 78 41 209 289 291 548l33 102 56-47c31-26 103-88 160-137l104-90-108-104c-120-114-218-184-336-240-81-38-97-55-78-78 54-65 340 100 537 310l54 56 86-68c48-38 119-90 158-115 98-63 291-157 324-157 59 0 81 55 30 75-66 27-262 128-321 167-74 48-218 160-219 169 0 4 21 37 46 75 81 121 154 287 154 352s-29 66-365 12c-137-22-253-40-256-40s-1 33 4 73c9 77 4 391-7 418-6 13 24 19 211 43 120 16 292 34 382 40 137 9 166 14 175 29 8 12 8 22 0 35-9 14-28 17-125 18-63 1-150-2-194-7zm65-699c-52-132-152-296-173-283-7 4-66 52-131 107-66 56-131 111-145 123s-24 23-21 26c4 4 438 73 477 76 9 1 7-14-7-49z"/>
  </g>
</svg>
