<?xml version="1.0"?>
<svg xmlns="http://www.w3.org/2000/svg" height="200pt" preserveAspectRatio="xMidYMid meet" viewBox="0 0 200 200" width="200pt">
  <g transform="matrix(.1 0 0 -.1 0 200)">
    <path d="m1184 1903c-4-14-2-81 5-147 6-67 11-172 11-233v-113h-125c-141 0-328-24-364-47-21-14-23-20-18-81 39-536 34-491 62-504 18-8 41-7 87 2 60 12 336 30 349 23 4-1 7-172 7-378-1-381 1-405 37-405 6 0 20 9 31 21 18 20 19 44 23 396l3 376 99-7c54-4 151-13 216-21 168-21 159-33 167 197 3 101 12 229 18 286 16 137 21 132-164 143-78 4-187 8-240 8l-98 1v108c0 104-23 352-36 385-4 11-17 17-35 17-23 0-30-6-35-27zm513-587c2-2-1-68-7-147-5-79-10-179-10-221 0-43-1-78-2-78-2 0-66 7-143 15s-163 15-191 15h-51l-7 77c-8 97-8 180 1 278l6 78 201-8c111-4 202-8 203-9zm-502-206c0-115-2-210-5-210-67-3-297-21-331-26l-46-6-7 118c-4 66-12 161-20 212-9 66-9 95-2 98 33 11 157 22 276 23l135 1z"/>
    <path d="m666 1858c-10-6-35-48-57-95-114-249-254-459-407-611-85-85-112-119-110-135 3-24 26-32 62-23 28 7 144 112 208 189l48 58v-560c0-495 2-561 16-575 8-9 24-16 33-16 46 0 46-5 46 664v631l48 78c54 89 112 203 151 295 20 47 24 67 17 81-14 25-33 31-55 19z"/>
  </g>
</svg>
