<?xml version="1.0"?>
<svg xmlns="http://www.w3.org/2000/svg" height="200pt" preserveAspectRatio="xMidYMid meet" viewBox="0 0 200 200" width="200pt">
  <g transform="matrix(.1 0 0 -.1 0 200)">
    <path d="m666 1858c-10-6-35-48-57-95-114-249-254-459-407-611-85-85-112-119-110-135 3-24 26-32 62-23 28 7 144 112 208 189l48 58v-560c0-495 2-561 16-575 8-9 24-16 33-16 46 0 46-5 46 664v631l48 78c54 89 112 203 151 295 20 47 24 67 17 81-14 25-33 31-55 19z"/>
    <path d="m1290 1754c-30-37-128-141-218-231-129-128-163-167-160-185 2-18 10-24 36-26 31-3 43 6 142 103l108 106 6-43c11-80 26-432 19-438-5-4-62-12-128-19-154-16-394-56-428-72-32-14-44-44-26-66 14-17 12-17 199 16 126 22 390 54 396 48 3-2 11-67 19-143 16-148 20-354 8-354-5 0-88-9-186-19-189-20-215-29-203-69 4-12 16-24 26-27 11-3 118 3 237 14 269 26 485 41 580 41 62 0 74 3 83 20 15 29-3 56-42 64-18 3-114 1-212-4-98-6-181-8-183-6-3 3-5 44-4 93 0 48-7 157-15 241-9 85-14 155-12 157 2 1 104 10 228 19 337 25 329 23 343 53 10 22 8 28-10 43-25 19-21 20-368-9-110-10-202-16-204-14-4 2-14 168-27 433l-7 135 42 49c61 71 73 91 69 123-2 21-9 29-28 31-21 2-36-9-80-64z"/>
  </g>
</svg>
