<?xml version="1.0"?>
<svg xmlns="http://www.w3.org/2000/svg" height="200pt" preserveAspectRatio="xMidYMid meet" viewBox="0 0 200 200" width="200pt">
  <g transform="matrix(.1 0 0 -.1 0 200)">
    <path d="m1240 1895c-10-11-12-77-9-272l4-258-205-20c-113-11-211-24-217-28-20-13-15-45 10-62 20-13 43-13 205 2 100 9 185 14 188 11 10-11-27-169-73-313-70-219-136-327-314-511-112-116-134-146-125-170 29-76 260 138 412 381 25 42 64 124 85 183l38 107 1-405c0-223 3-415 6-428 8-28 50-40 71-20 12 13 14 84 13 509 0 295 3 490 8 484s62-113 127-240c157-305 224-403 354-511 56-47 71-54 101-52 29 3 35 7 38 29 3 21-9 36-66 82-137 112-196 200-392 582-163 319-162 315-90 315 19 0 107 7 195 16 128 13 164 20 179 35 17 15 18 22 8 44-14 31-10 31-262 5-107-10-195-18-197-17-1 2-7 117-13 257-6 153-15 259-21 267-15 17-44 17-59-2z"/>
    <path d="m666 1858c-10-6-35-48-57-95-114-249-254-459-407-611-85-85-112-119-110-135 3-24 26-32 62-23 28 7 144 112 208 189l48 58v-560c0-495 2-561 16-575 8-9 24-16 33-16 46 0 46-5 46 664v631l48 78c54 89 112 203 151 295 20 47 24 67 17 81-14 25-33 31-55 19z"/>
  </g>
</svg>
