<?xml version="1.0"?>
<svg xmlns="http://www.w3.org/2000/svg" height="200pt" preserveAspectRatio="xMidYMid meet" viewBox="0 0 200 200" width="200pt">
  <g transform="matrix(.1 0 0 -.1 0 200)">
    <path d="m870 1925c-7-9-15-31-17-50-9-85-132-376-204-482-119-177-224-279-424-413-115-77-129-91-120-120 12-39 62-26 176 48 199 130 276 203 414 392 52 72 150 260 185 358l23 63 51-103c152-308 443-525 817-610 106-24 149-18 149 21 0 28-17 37-107 60-165 42-344 120-463 201-61 42-179 159-235 232-48 64-120 210-152 311-15 45-31 88-36 95-13 17-42 15-57-3z"/>
    <path d="m865 1084c-99-8-190-19-202-24-15-6-23-18-23-34 0-47 12-48 238-32 115 9 243 16 285 16 65 0 80 3 98 21s19 23 6 42c-13 20-23 22-118 23-57 1-185-5-284-12z"/>
    <path d="m1325 769c-259-18-896-96-925-114-15-9-12-51 5-65 13-11 44-9 168 8 84 12 183 25 220 28l68 7-97-154c-54-85-117-184-140-221-43-66-47-78-45-111 2-34 41-35 286-6 132 16 287 31 345 35s111 11 117 17c10 7 31-10 80-62 67-70 96-84 121-59 17 17 15 53-5 69-26 22-176 198-217 257-38 52-61 63-84 40-20-20-13-54 23-108 19-29 35-53 35-55 0-1-42-5-92-8-51-3-174-15-272-27-99-11-185-20-191-18-7 2 37 82 107 193 65 105 122 199 127 211 8 18 25 22 198 37 103 9 228 19 278 22 97 7 115 15 115 51 0 45-19 48-225 33z"/>
  </g>
</svg>
