<?xml version="1.0"?>
<svg xmlns="http://www.w3.org/2000/svg" height="200pt" preserveAspectRatio="xMidYMid meet" viewBox="0 0 200 200" width="200pt">
  <g transform="matrix(.1 0 0 -.1 0 200)">
    <path d="m666 1858c-10-6-35-48-57-95-114-249-254-459-407-611-85-85-112-119-110-135 3-24 26-32 62-23 28 7 144 112 208 189l48 58v-560c0-495 2-561 16-575 8-9 24-16 33-16 46 0 46-5 46 664v631l48 78c54 89 112 203 151 295 20 47 24 67 17 81-14 25-33 31-55 19z"/>
    <path d="m1315 1523c-201-16-460-56-482-74-20-17-16-57 7-69 11-6 24-9 29-6 25 16 378 57 534 63 134 5 182 10 193 20 18 19 18 38-2 57-12 13-37 16-127 14-62-1-130-3-152-5z"/>
    <path d="m1510 1059c-280-37-875-139-889-154-18-17-7-62 17-67 9-2 40 0 67 5 28 5 141 24 251 41l202 32-33-79c-19-43-65-135-103-205-39-70-93-174-122-232-28-58-55-113-61-122-21-40-4-88 32-88 9 0 74 16 144 35 165 45 338 79 552 109 95 14 177 27 181 30 10 6 36-27 95-117 32-50 41-58 64-55 86 10 37 105-181 348-60 67-116 120-126 120-25 0-43-26-37-53 4-12 33-54 66-92l59-70-81-12c-231-35-405-67-524-97l-132-34 46 92c25 50 76 147 113 216 38 69 85 169 106 223 21 53 45 99 54 102 43 12 330 47 435 52 66 3 130 10 143 14 24 9 30 47 10 67-18 18-177 14-348-9z"/>
  </g>
</svg>
