<?xml version="1.0"?>
<svg xmlns="http://www.w3.org/2000/svg" height="200pt" preserveAspectRatio="xMidYMid meet" viewBox="0 0 200 200" width="200pt">
  <g transform="matrix(.1 0 0 -.1 0 200)">
    <path d="m666 1858c-10-6-35-48-57-95-114-249-254-459-407-611-85-85-112-119-110-135 3-24 26-32 62-23 28 7 144 112 208 189l48 58v-560c0-495 2-561 16-575 8-9 24-16 33-16 46 0 46-5 46 664v631l48 78c54 89 112 203 151 295 20 47 24 67 17 81-14 25-33 31-55 19z"/>
    <path d="m1492 1728c-7-7-12-39-12-74 0-149-59-525-115-734-53-196-152-406-237-506-51-58-152-154-230-217-40-32-47-57-23-77 22-18 64 2 151 72 142 114 239 236 304 384l37 83 85-127c48-70 128-172 178-227 51-55 119-128 150-163 43-45 65-62 84-62 15 0 29 7 33 16 11 29-19 69-221 291-49 54-129 158-178 232l-90 133 31 112c87 318 147 788 111 857-12 21-40 25-58 7z"/>
    <path d="m784 1405c-17-12-19-28-19-182 0-92-1-279-2-415l-3-246-107-59c-100-54-108-60-108-88 0-52 33-44 260 66 213 102 295 159 295 201 0 30-38 21-145-31l-100-50-6 397c-3 218-7 398-7 399-12 16-42 20-58 8z"/>
    <path d="m1017 1073c-4-3-7-17-7-29 0-17 24-42 93-97 116-92 113-90 137-77 28 15 25 52-7 82-94 88-194 144-216 121z"/>
  </g>
</svg>
