<?xml version="1.0"?>
<svg xmlns="http://www.w3.org/2000/svg" height="200pt" preserveAspectRatio="xMidYMid meet" viewBox="0 0 200 200" width="200pt">
  <g transform="matrix(.1 0 0 -.1 0 200)">
    <path d="m666 1858c-10-6-35-48-57-95-114-249-254-459-407-611-85-85-112-119-110-135 3-24 26-32 62-23 28 7 144 112 208 189l48 58v-560c0-495 2-561 16-575 8-9 24-16 33-16 46 0 46-5 46 664v631l48 78c54 89 112 203 151 295 20 47 24 67 17 81-14 25-33 31-55 19z"/>
    <path d="m1156 1792c-3-5-8-104-12-221-7-204-8-212-28-216-12-2-66-11-121-20-148-23-272-54-296-74-15-12-20-23-15-39 10-32 34-34 121-12 43 11 80 19 81 17 15-15 152-783 142-792-2-1-73-14-158-29-198-34-251-48-264-69-17-27 5-52 45-51 19 0 102 12 184 27 291 52 389 60 753 63 345 3 372 6 372 39 0 6-9 20-21 31-19 17-41 19-211 22l-190 4 6 171c4 95 12 224 17 287s12 175 16 248l6 132h103c80 0 106 3 118 16 21 20 20 30-4 54-16 16-33 20-92 20-78 0-325-16-420-26l-58-7v205c0 145-3 207-12 216-14 14-54 16-62 4zm331-634c-4-79-11-201-16-273-5-71-13-193-17-271l-7-141-163-14c-90-8-164-11-164-8 0 52-115 662-146 775-5 20 1 22 123 38 169 22 276 33 342 35l54 1z"/>
  </g>
</svg>
