<?xml version="1.0"?>
<svg xmlns="http://www.w3.org/2000/svg" height="200pt" preserveAspectRatio="xMidYMid meet" viewBox="0 0 200 200" width="200pt">
  <g transform="matrix(.1 0 0 -.1 0 200)">
    <path d="m666 1858c-10-6-35-48-57-95-114-249-254-459-407-611-85-85-112-119-110-135 3-24 26-32 62-23 28 7 144 112 208 189l48 58v-560c0-495 2-561 16-575 8-9 24-16 33-16 46 0 46-5 46 664v631l48 78c54 89 112 203 151 295 20 47 24 67 17 81-14 25-33 31-55 19z"/>
    <path d="m1165 1716c-82-84-168-160-233-206-56-40-107-80-112-89-5-10-6-92-3-187 9-264-25-492-103-700-38-102-39-138-3-149 27-9 50 8 182 133 62 59 137 125 165 147 55 41 73 72 51 85-22 14-161-66-240-137-31-28-40-33-36-18 24 77 49 213 63 345 9 85 19 158 22 161 13 12 192 82 197 77 3-3 19-50 35-105 72-240 214-530 348-709 64-85 160-166 214-179 44-11 63 8 101 107 44 115 53 163 37 183-25 30-41 14-86-82-25-54-47-100-50-102-9-10-86 56-128 109-58 73-148 225-221 370-71 141-172 439-154 451 7 4 69 22 137 40 125 33 149 48 136 83-14 36-79 30-228-21-38-12-71-22-72-20-5 5-31 137-39 196l-7 53 84 87c95 96 128 140 128 168 0 23-19 43-39 42-9 0-74-60-146-133zm-90-323c10-54 18-104 19-112s-35-29-89-51c-105-44-102-47-106 74l-2 77 79 53c43 29 80 54 80 55 1 0 10-43 19-96z"/>
    <path d="m1100 309c-36-5-131-16-213-24-81-9-154-18-162-21-21-8-29-42-14-61 15-18 104-14 331 12 67 8 186 18 265 21 151 7 167 13 161 56-3 23-4 23-153 24-82 1-179-2-215-7z"/>
  </g>
</svg>
