<?xml version="1.0"?>
<svg xmlns="http://www.w3.org/2000/svg" height="200pt" preserveAspectRatio="xMidYMid meet" viewBox="0 0 200 200" width="200pt">
  <g transform="matrix(.1 0 0 -.1 0 200)">
    <path d="m666 1858c-10-6-35-48-57-95-114-249-254-459-407-611-85-85-112-119-110-135 3-24 26-32 62-23 28 7 144 112 208 189l48 58v-560c0-495 2-561 16-575 8-9 24-16 33-16 46 0 46-5 46 664v631l48 78c54 89 112 203 151 295 20 47 24 67 17 81-14 25-33 31-55 19z"/>
    <path d="m1124 1765c-11-29 4-84 55-198 27-62 53-123 56-137 11-36 24-50 51-50 32 0 46 30 35 77-7 32-101 251-130 303-12 22-60 25-67 5z"/>
    <path d="m1430 1243c-185-7-567-65-622-94-10-5-18-21-18-34 0-45 26-47 186-16 82 16 173 32 203 36l54 7-6-38c-3-22-9-99-13-172-8-150 5-132-114-153-96-16-130-33-130-63 0-37 26-47 90-32 30 7 76 16 103 20l47 7-2-243-3-243-118-6c-281-16-374-39-348-88 15-27 32-31 103-21 140 19 386 30 702 30 350 0 356 1 356 46s-12 47-315 42l-285-4v248 248h91c97 0 129 10 129 40 0 40-26 50-126 50h-94l1 83c0 88 13 245 20 252 3 2 83 7 179 11s181 11 188 17c6 5 12 20 12 33 0 43-24 46-270 37z"/>
  </g>
</svg>
