<?xml version="1.0"?>
<svg xmlns="http://www.w3.org/2000/svg" height="200pt" preserveAspectRatio="xMidYMid meet" viewBox="0 0 200 200" width="200pt">
  <g transform="matrix(.1 0 0 -.1 0 200)">
    <path d="m1240 1895c-10-11-12-77-9-272l4-258-205-20c-113-11-211-24-217-28-20-13-15-45 10-62 20-13 43-13 205 2 100 9 185 14 188 11 10-11-27-169-73-313-70-219-136-327-314-511-112-116-134-146-125-170 29-76 260 138 412 381 25 42 64 124 85 183l38 107v-261l1-261-52-7c-29-3-67-6-85-6-54 0-80-42-46-76 14-14 30-16 100-10l83 6v-97c0-121 6-141 37-149 48-12 58 13 54 141-1 63 1 115 6 115 4 1 55 5 113 10 89 8 108 13 123 31 15 19 16 24 3 43s-22 21-107 18c-52-1-104-5-116-7l-23-5v332c0 189 4 328 9 323 5-6 61-113 126-240 157-305 224-403 354-511 56-47 71-54 101-52 29 3 35 7 38 29 3 21-9 36-66 82-137 112-196 200-392 582-163 319-162 315-90 315 19 0 107 7 195 16 128 13 164 20 179 35 17 15 18 22 8 44-14 31-10 31-262 5-107-10-195-18-197-17-1 2-7 117-13 257-6 153-15 259-21 267-15 17-44 17-59-2z"/>
    <path d="m664 1862c-6-4-40-66-76-138-138-279-239-427-395-580-107-104-122-133-82-154 32-17 92 25 203 141l96 101v-554c0-596 0-594 50-586 52 7 52 4 46 669-3 357-2 619 3 625 37 38 221 405 221 440 0 16-28 44-43 44-7 0-17-4-23-8z"/>
  </g>
</svg>
