<?xml version="1.0"?>
<svg xmlns="http://www.w3.org/2000/svg" height="200pt" preserveAspectRatio="xMidYMid meet" viewBox="0 0 200 200" width="200pt">
  <g transform="matrix(.1 0 0 -.1 0 200)">
    <path d="m666 1858c-10-6-35-48-57-95-114-249-254-459-407-611-85-85-112-119-110-135 3-24 26-32 62-23 28 7 144 112 208 189l48 58v-560c0-495 2-561 16-575 8-9 24-16 33-16 46 0 46-5 46 664v631l48 78c54 89 112 203 151 295 20 47 24 67 17 81-14 25-33 31-55 19z"/>
    <path d="m1410 1540c-249-26-649-60-690-60-42 0-60-15-60-47 0-39 37-46 190-34 264 21 516 42 588 50 69 7 90 2 78-18-3-5 1-139 10-297 17-303 13-598-10-801l-11-103-55 26c-30 14-90 48-132 76-78 51-108 56-108 19 0-26 107-123 183-165 153-84 160-87 182-72 18 12 22 34 37 227 22 276 22 488 2 832-9 153-13 281-10 285 4 4 60 9 124 12s123 9 130 13c15 10 16 49 0 65-17 17-236 13-448-8z"/>
    <path d="m1050 1060c-107-4-203-8-212-9-30-2-78-51-78-79 0-49 42-276 56-304 19-37 55-42 208-29 70 6 156 11 190 11 45 0 67 5 76 15 14 17 15 25 25 222l7 132-26 26c-14 14-31 24-38 23s-101-5-208-8zm170-162c0-46-3-100-6-120l-7-38h-56c-31 0-101-5-155-10-55-5-102-8-104-5-9 9-43 217-38 231 5 13 37 16 284 22l82 2z"/>
  </g>
</svg>
