<?xml version="1.0"?>
<svg xmlns="http://www.w3.org/2000/svg" height="200pt" preserveAspectRatio="xMidYMid meet" viewBox="0 0 200 200" width="200pt">
  <g transform="matrix(.1 0 0 -.1 0 200)">
    <path d="m883 1902c-6-4-23-33-37-66-55-125-211-295-406-443-127-96-191-133-314-183-58-23-107-49-111-58-9-24 20-45 59-44 43 2 196 62 273 108 179 108 429 338 523 480l53 82 86-75c135-116 349-257 532-350 97-49 169-75 279-103 67-17 77-18 97-4 25 16 30 46 10 62-7 6-48 20-91 32-126 33-224 75-356 151-233 134-448 290-518 378-32 39-54 49-79 33z"/>
    <path d="m1120 1259c-161-16-480-66-495-79-19-16-19-44 0-60 12-10 43-9 160 7 143 19 145 19 145 0 0-10 5-84 11-164 6-79 9-146 7-149-3-2-117-18-254-34-137-17-259-33-271-35-26-6-39-40-23-60 17-21 71-19 323 11 120 14 221 23 224 20 9-9 17-468 9-511l-7-36-35 20c-41 25-72 27-80 6-9-23 20-60 81-105 56-41 85-49 103-27 24 28 35 191 29 428l-6 236 47 6c26 4 174 9 330 13 248 6 286 9 305 24s20 21 9 44l-12 26h-122c-68 0-220-5-338-10s-216-7-218-5c-4 3-30 326-28 332 2 4 190 23 237 23 60 0 79 11 79 47 0 43-37 49-210 32z"/>
    <path d="m435 372c-48-46-122-103-183-141-106-64-123-82-105-110 20-32 53-24 161 41 108 64 244 185 254 226 6 23-16 62-35 62-7 0-48-35-92-78z"/>
    <path d="m1479 404c-19-23 5-62 61-97 122-77 317-188 339-194 58-14 78 48 26 80-16 10-88 52-160 94-71 41-149 88-173 104-48 33-74 36-93 13z"/>
  </g>
</svg>
