<?xml version="1.0"?>
<svg xmlns="http://www.w3.org/2000/svg" height="200pt" preserveAspectRatio="xMidYMid meet" viewBox="0 0 200 200" width="200pt">
  <g transform="matrix(.1 0 0 -.1 0 200)">
    <path d="m666 1858c-10-6-35-48-57-95-114-249-254-459-407-611-85-85-112-119-110-135 3-24 26-32 62-23 28 7 144 112 208 189l48 58v-560c0-495 2-561 16-575 8-9 24-16 33-16 46 0 46-5 46 664v631l48 78c54 89 112 203 151 295 20 47 24 67 17 81-14 25-33 31-55 19z"/>
    <path d="m1012 1828c-5-7-20-74-32-148-36-217-93-368-199-525-45-66-48-77-26-95 41-34 121 50 193 202l37 77 41 1c23 0 68 3 100 6l59 6 2-58c1-33 5-311 8-619 5-353 11-565 17-572 16-20 56-15 68 6 6 12 10 99 10 214v194l68 6c37 4 109 7 160 7 79 0 95 3 112 20 24 24 25 34 3 56-16 15-34 16-180 11l-163-7v175c0 96 3 175 8 175 14 0 296 40 318 45 42 9 37 66-6 80-11 3-85-3-166-15s-150-18-154-13c-4 4-11 74-15 154l-7 146 99 6c54 4 163 10 243 13 152 7 190 17 190 53 0 40-22 44-183 38-84-4-250-14-370-23s-219-15-221-13 7 56 20 119c32 155 40 255 24 275-15 18-44 20-58 3z"/>
  </g>
</svg>
