<?xml version="1.0"?>
<svg xmlns="http://www.w3.org/2000/svg" height="200pt" preserveAspectRatio="xMidYMid meet" viewBox="0 0 200 200" width="200pt">
  <g transform="matrix(.1 0 0 -.1 0 200)">
    <path d="m666 1858c-10-6-35-48-57-95-114-249-254-459-407-611-85-85-112-119-110-135 3-24 26-32 62-23 28 7 144 112 208 189l48 58v-560c0-495 2-561 16-575 8-9 24-16 33-16 46 0 46-5 46 664v631l48 78c54 89 112 203 151 295 20 47 24 67 17 81-14 25-33 31-55 19z"/>
    <path d="m1795 1734c-11-12-14-28-11-58 13-108 18-346 17-845 0-299-2-546-4-548s-27 6-55 18c-59 24-85 20-80-13 4-27 149-128 184-128 46 0 46-3 45 587 0 546-11 884-31 952-14 50-37 62-65 35z"/>
    <path d="m1213 1624c-149-18-463-85-486-104s-16-56 12-65c10-3 53 2 97 10 122 23 114 30 92-82-24-119-78-238-179-387-78-118-88-158-38-164 21-2 34 6 58 35l31 37 151-74c83-41 153-78 155-82 8-13-48-133-93-198-70-100-138-173-208-225-64-47-77-69-53-93 25-25 66-13 129 38 97 78 212 219 267 326 46 90 162 459 162 514 0 15-9 35-20 45-17 16-31 17-108 11-49-3-124-13-166-20-70-12-76-12-70 3 33 78 57 158 72 248l18 107 37 8c21 4 90 14 154 22 63 8 120 19 125 24 16 16 5 64-17 72-11 3-66 1-122-6zm-3-557c0-19-60-211-69-220-4-4-68 22-142 58s-138 66-143 68-1 17 9 34c17 29 22 31 139 47 66 10 128 19 136 21 39 7 70 4 70-8z"/>
    <path d="m1492 1297c-9-11-16-250-12-444 0-29 33-47 60-33 19 10 20 21 20 231 0 133-4 228-10 240-12 22-42 25-58 6z"/>
  </g>
</svg>
