<?xml version="1.0"?>
<svg xmlns="http://www.w3.org/2000/svg" height="200pt" preserveAspectRatio="xMidYMid meet" viewBox="0 0 200 200" width="200pt">
  <g transform="matrix(.1 0 0 -.1 0 200)">
    <path d="m666 1858c-10-6-35-48-57-95-114-249-254-459-407-611-85-85-112-119-110-135 3-24 26-32 62-23 28 7 144 112 208 189l48 58v-560c0-495 2-561 16-575 8-9 24-16 33-16 46 0 46-5 46 664v631l48 78c54 89 112 203 151 295 20 47 24 67 17 81-14 25-33 31-55 19z"/>
    <path d="m1432 1648c-8-8-12-54-12-140v-128l-52-1c-29 0-115-6-191-12-127-11-138-11-143 5-3 9-4 64-3 121s-1 109-5 115c-11 19-54 14-66-7-5-11-10-73-10-139v-118l-77-12c-85-14-109-28-99-60 10-29 34-34 107-23 35 6 65 9 67 6 6-6 24-381 20-414-3-24-7-25-133-43-71-10-147-23-167-29-43-11-59-42-34-67 15-15 29-14 168 6 258 37 410 45 723 38 160-4 304-9 322-12 23-4 36-1 52 15 25 25 26 31 7 57-13 17-31 19-194 24-99 3-183 7-186 10s-8 108-12 233l-7 226 98 3c85 3 99 6 111 23 12 18 11 24-2 43-14 20-24 22-108 22h-93l-7 38c-3 20-6 75-6 123 0 86-8 109-40 109-9 0-21-5-28-12zm-8-574c4-125 5-228 4-229-2-1-84-6-184-10l-181-7-11 179c-7 98-12 197-12 220v41l78 8c42 4 122 10 177 14s105 8 111 9c7 1 13-71 18-225z"/>
    <path d="m944 510c-25-40-77-111-115-158s-69-91-69-97c0-18 22-35 46-35 49 0 247 267 242 325-2 24-8 31-30 33-24 3-33-5-74-68z"/>
    <path d="m1527 563c-24-23 0-55 128-173 152-140 175-156 205-140 48 26 19 62-205 258-66 58-108 76-128 55z"/>
  </g>
</svg>
