<?xml version="1.0"?>
<svg xmlns="http://www.w3.org/2000/svg" height="200pt" preserveAspectRatio="xMidYMid meet" viewBox="0 0 200 200" width="200pt">
  <g transform="matrix(.1 0 0 -.1 0 200)">
    <path d="m666 1858c-10-6-35-48-57-95-114-249-254-459-407-611-85-85-112-119-110-135 3-24 26-32 62-23 28 7 144 112 208 189l48 58v-560c0-495 2-561 16-575 8-9 24-16 33-16 46 0 46-5 46 664v631l48 78c54 89 112 203 151 295 20 47 24 67 17 81-14 25-33 31-55 19z"/>
    <path d="m1543 1555c-153-11-564-52-698-71-48-6-65-19-65-50 0-32 25-37 135-26 50 5 91 9 91 8 1-1 4-111 7-246l6-246-172-12c-216-16-222-19-214-106 8-77 35-327 43-384 9-75-13-72 622-72 508 0 561 2 573 16 10 13 16 71 21 218 3 111 10 233 14 272 7 70 6 72-20 89-24 16-45 17-202 12l-174-7v259 258l141 6c81 4 147 12 155 18 34 28-4 80-56 78-14-1-107-7-207-14zm-123-349c0-234-1-255-17-260-10-3-79-8-154-12l-137-7-6 84c-4 46-7 159-9 250l-2 166 140 15c77 9 150 16 163 17l22 1zm396-369c-12-62-25-232-26-314v-83h-140-140v209 210l33 4c17 2 88 5 156 5l123 2zm-401-184-5-208-144-3-143-3-6 198c-3 109-4 200-1 203s63 8 132 11c70 3 137 6 150 7l22 2zm-392 120c4-38 7-128 7-200v-133h-133-134l-23 185c-12 103-21 188-18 190 3 3 116 13 274 24 19 1 22-6 27-66z"/>
  </g>
</svg>
