<?xml version="1.0"?>
<svg xmlns="http://www.w3.org/2000/svg" height="200pt" preserveAspectRatio="xMidYMid meet" viewBox="0 0 200 200" width="200pt">
  <g transform="matrix(.1 0 0 -.1 0 200)">
    <path d="m666 1858c-10-6-35-48-57-95-114-249-254-459-407-611-85-85-112-119-110-135 3-24 26-32 62-23 28 7 144 112 208 189l48 58v-560c0-495 2-561 16-575 8-9 24-16 33-16 46 0 46-5 46 664v631l48 78c54 89 112 203 151 295 20 47 24 67 17 81-14 25-33 31-55 19z"/>
    <path d="m1185 1749c-180-12-307-28-322-41-17-14-16-43 2-58 12-10 43-10 148-1 72 6 148 11 168 11h37l7-96c4-53 3-100-1-104-5-4-70-13-144-18-74-6-143-14-153-17-28-11-31-48-14-203 9-81 19-187 23-235 8-115 17-122 142-112 48 3 97 9 109 12 21 5 22 3 17-28-9-45-61-210-73-228-7-11-26 0-90 54-44 37-87 78-96 91-20 31-52 31-66 0-10-20-8-31 9-58 17-28 155-155 195-180 26-16-148-246-223-293-22-14-40-29-40-33 0-35 77-43 126-13 38 23 136 140 185 221l36 59 69-43c186-115 498-264 571-272 41-5 51-3 68 16 28 31 12 48-70 74-80 26-401 185-521 257l-81 50 32 92c18 51 40 124 50 164 11 45 23 74 34 78 9 4 78 8 155 10 76 2 141 7 145 10 3 4 9 55 12 113 4 59 13 176 20 261l13 153-23 19c-21 17-36 18-171 12l-149-6-5 24c-3 13-8 59-11 102l-7 77h160c185 0 212 6 212 49 0 17-6 31-16 35-21 8-321 5-469-5zm380-421c-4-35-8-64-9-64 0-1-54-5-118-9l-118-7v65 66l93 4c50 1 107 4 125 5l34 2zm-335-22v-64l-47-6c-27-3-78-8-114-12l-66-6-6 38c-16 95-21 90 106 101 61 5 115 11 120 11 4 1 7-27 7-62zm316-173c-3-21-6-59-6-84v-45l-116-10-116-9 6 65c3 36 6 75 6 87 0 24 18 28 159 31l74 2zm-316-22c0-21-3-59-6-84-7-51-5-50-135-63l-67-6-4 83c-2 46-3 86-1 88 3 5 114 18 171 20l42 1z"/>
  </g>
</svg>
