<?xml version="1.0"?>
<svg xmlns="http://www.w3.org/2000/svg" height="200pt" preserveAspectRatio="xMidYMid meet" viewBox="0 0 200 200" width="200pt">
  <g transform="matrix(.1 0 0 -.1 0 200)">
    <path d="m666 1858c-10-6-35-48-57-95-114-249-254-459-407-611-85-85-112-119-110-135 3-24 26-32 62-23 28 7 144 112 208 189l48 58v-560c0-495 2-561 16-575 8-9 24-16 33-16 46 0 46-5 46 664v631l48 78c54 89 112 203 151 295 20 47 24 67 17 81-14 25-33 31-55 19z"/>
    <path d="m1312 1765c-69-47-234-133-355-185-102-44-129-69-106-97 18-21 68-13 173 30l86 35-19-26c-10-15-51-62-90-105-39-42-71-82-71-88 0-29 29-54 96-85 41-19 74-37 74-41 0-17-125-169-212-259-75-77-98-107-98-128 0-18 7-29 20-34 11-4 93 3 182 15 88 13 162 22 164 21 1-2 6-157 12-345 10-362 11-373 58-373 46 0 48 19 34 369-7 179-11 335-9 346 4 18 19 22 148 35 111 12 146 19 155 32 11 16 18 12 60-37 31-36 55-55 70-55 26 0 46 17 46 41 0 22-214 291-242 304-16 7-24 4-39-14-22-27-15-46 45-121l36-45-123-12c-68-6-189-21-270-32-81-12-151-21-157-21s22 37 61 83c79 91 137 173 223 319 50 83 56 99 46 118-8 15-19 20-38 18-24-3-60-43-108-124-11-18-13-18-62 5l-50 23 60 72c64 76 118 161 118 187 0 10 37 40 90 74 98 62 117 83 100 115-16 29-48 25-108-15z"/>
    <path d="m1492 528c-26-26-12-48 61-94 39-26 122-80 183-121 115-77 145-86 168-51 8 13 8 23 0 35-22 37-346 243-381 243-10 0-24-5-31-12z"/>
    <path d="m858 433c-100-104-122-135-113-162 7-23 38-36 59-24 25 14 194 202 201 223 4 12 1 27-5 35-26 31-55 16-142-72z"/>
  </g>
</svg>
