<?xml version="1.0"?>
<svg xmlns="http://www.w3.org/2000/svg" height="200pt" preserveAspectRatio="xMidYMid meet" viewBox="0 0 200 200" width="200pt">
  <g transform="matrix(.1 0 0 -.1 0 200)">
    <path d="m666 1858c-10-6-35-48-57-95-114-249-254-459-407-611-85-85-112-119-110-135 3-24 26-32 62-23 28 7 144 112 208 189l48 58v-560c0-495 2-561 16-575 8-9 24-16 33-16 46 0 46-5 46 664v631l48 78c54 89 112 203 151 295 20 47 24 67 17 81-14 25-33 31-55 19z"/>
    <path d="m1250 1758c-58-5-159-17-225-27-70-11-124-15-129-10-6 5-20 9-33 9-38 0-42-32-22-190 10-80 21-170 24-200 12-111 14-119 45-135 25-13 46-14 137-5 60 5 120 10 136 10h27v-144-144l-87-6c-152-11-336-36-350-47-17-15-17-44 2-59 12-10 37-10 118-2 56 7 145 15 197 18l94 7-18-29c-104-160-361-491-426-547-43-37-52-72-21-82 34-10 84 20 148 88 59 64 227 283 303 395 19 28 38 52 41 52 4 0 10-127 14-283 4-164 11-287 17-294 14-18 43-16 62 2 16 16 16 107 1 497l-4 116 142-142c208-208 404-385 453-409 36-17 48-19 69-9 45 20 35 40-50 102-33 24-103 85-155 134-53 50-135 126-183 170-49 43-120 115-160 160l-71 81 74 6c41 4 148 7 238 8 91 0 172 6 183 11 10 6 19 21 19 34 0 47-13 49-268 42-130-4-252-10-269-13l-33-5v151 151l128 1c70 1 139 0 153-1 38-2 49 19 59 117 5 48 16 146 25 218 19 165 19 171-5 195-18 18-32 20-157 19-76-1-185-6-243-11zm327-105c-3-16-13-99-23-185l-18-158h-81c-72 0-151-5-410-26l-80-6-24 171c-13 95-21 174-18 177 18 18 345 52 516 53l144 1z"/>
  </g>
</svg>
