<?xml version="1.0"?>
<svg xmlns="http://www.w3.org/2000/svg" height="200pt" preserveAspectRatio="xMidYMid meet" viewBox="0 0 200 200" width="200pt">
  <g transform="matrix(.1 0 0 -.1 0 200)">
    <path d="m666 1858c-10-6-35-48-57-95-114-249-254-459-407-611-85-85-112-119-110-135 3-24 26-32 62-23 28 7 144 112 208 189l48 58v-560c0-495 2-561 16-575 8-9 24-16 33-16 46 0 46-5 46 664v631l48 78c54 89 112 203 151 295 20 47 24 67 17 81-14 25-33 31-55 19z"/>
    <path d="m1082 1838c-20-20-14-51 24-114 21-32 47-77 59-99 26-47 66-60 85-25 13 24-4 66-73 175-44 70-70 88-95 63z"/>
    <path d="m1430 1479c-148-6-318-29-688-90-77-13-102-27-102-59 0-40 28-40 246-5 318 52 421 63 644 70 113 4 213 9 223 11 11 4 17 15 17 35 0 52-12 53-340 38z"/>
    <path d="m1195 1131c-245-44-286-60-269-105 10-27 42-28 171-2 71 14 171 31 223 37s101 16 108 22c7 5 12 22 10 36-3 25-6 26-73 28-38 1-115-6-170-16z"/>
    <path d="m1195 795c-205-32-225-37-235-56-15-27 4-59 35-59 14 0 82 9 152 21 71 11 180 21 243 23 63 1 121 5 128 9 19 12 14 55-7 67-26 14-217 11-316-5z"/>
    <path d="m1296 589c-44-5-149-20-235-34-85-15-168-24-183-21-30 6-58-14-58-43 0-20 33-173 61-286 32-125 68-141 249-115 59 8 417 37 479 39 14 0 34 9 45 20 16 17 18 25 10 48-8 21-3 68 18 192 39 223 47 211-155 210-83-1-188-5-231-10zm309-111c-3-18-14-81-24-141-10-59-21-110-25-114-3-3-77-12-164-20-86-7-209-20-272-28s-119-15-126-15c-12 0-79 254-71 274 3 7 60 21 143 35 213 34 258 38 407 40l138 1z"/>
  </g>
</svg>
