<?xml version="1.0"?>
<svg xmlns="http://www.w3.org/2000/svg" height="200pt" preserveAspectRatio="xMidYMid meet" viewBox="0 0 200 200" width="200pt">
  <g transform="matrix(.1 0 0 -.1 0 200)">
    <path d="m666 1858c-10-6-35-48-57-95-114-249-254-459-407-611-85-85-112-119-110-135 3-24 26-32 62-23 28 7 144 112 208 189l48 58v-560c0-495 2-561 16-575 8-9 24-16 33-16 46 0 46-5 46 664v631l48 78c54 89 112 203 151 295 20 47 24 67 17 81-14 25-33 31-55 19z"/>
    <path d="m952 1838c-5-7-13-40-17-72-16-137-84-320-149-405-31-42-33-57-6-71 15-8 27-7 48 4 36 19 46 31 85 104l32 60 97-93 97-92-42-40c-49-47-245-199-299-231-20-12-39-29-42-38-9-24 12-54 37-54 42 0 236 138 348 248l67 64 44-30c73-50 327-201 402-239 85-43 193-83 222-83 32 0 49 25 36 54-7 15-31 30-74 46-114 42-359 175-541 295l-27 17 49 57c51 59 126 170 136 201 5 14 20 18 90 22 85 4 115 17 115 47 0 33-22 41-112 41-91 0-316-21-471-44-79-12-87-11-83 3 27 89 34 209 14 229-16 16-43 15-56 0zm408-294c0-9-82-120-123-169l-34-39-59 51c-77 67-130 123-118 124 5 0 68 9 139 19 144 19 195 23 195 14z"/>
    <path d="m626 1334c-19-18-19-16-6-254 5-102 14-282 21-400 8-170 14-219 26-232 21-23 36-23 58 2 16 18 16 32 6 207-34 580-41 666-52 679-15 18-34 18-53-2z"/>
    <path d="m1236 945c-22-26-90-80-167-131-133-89-156-117-105-130 38-9 89 12 186 77 114 76 182 150 178 193-2 25-8 32-29 34-20 2-34-7-63-43z"/>
    <path d="m1359 737c-41-39-137-114-212-165s-137-97-137-102c0-16 32-40 54-40 28 0 106 47 229 138 154 115 207 179 180 221-19 30-38 21-114-52z"/>
    <path d="m1550 548c-49-87-254-264-407-352-40-22-75-47-78-55-9-23 15-41 54-41 91 0 418 260 496 393 23 41 26 52 17 73-19 40-54 32-82-18z"/>
  </g>
</svg>
