<?xml version="1.0"?>
<svg xmlns="http://www.w3.org/2000/svg" height="200pt" preserveAspectRatio="xMidYMid meet" viewBox="0 0 200 200" width="200pt">
  <g transform="matrix(.1 0 0 -.1 0 200)">
    <path d="m666 1858c-10-6-35-48-57-95-114-249-254-459-407-611-85-85-112-119-110-135 3-24 26-32 62-23 28 7 144 112 208 189l48 58v-560c0-495 2-561 16-575 8-9 24-16 33-16 46 0 46-5 46 664v631l48 78c54 89 112 203 151 295 20 47 24 67 17 81-14 25-33 31-55 19z"/>
    <path d="m1341 1741c-22-22-22-54 4-731 34-865 35-870 84-870 40 0 42 17 31 240-6 117-9 214-8 215 5 5 323 35 370 35 50 0 88 22 88 51 0 40-35 43-256 20-113-12-208-21-209-19s-5 67-8 144l-7 142 171 7c166 7 171 8 181 31 8 18 8 27-3 40-12 15-32 16-180 10l-166-7-6 53c-4 29-7 83-7 119v66l38 7c20 3 93 9 160 13 123 6 152 15 152 47 0 34-28 39-168 33-75-4-149-10-164-13l-28-6v103c0 178-10 268-31 280-14 7-23 5-38-10z"/>
    <path d="m961 1711c-15-28-14-59 8-159 11-48 23-117 27-154 6-62 5-68-12-68-11 0-84-9-162-19-115-15-148-22-164-38-16-17-18-24-9-42 14-26 5-26 197-1 86 11 158 19 159 18 2-2 4-57 6-123l4-120-144-7c-124-6-147-9-164-26-16-16-17-23-7-42 12-22 13-22 161-15l149 7v-89c0-50-3-111-6-136l-6-45-102-7c-111-7-249-23-271-31-22-9-29-44-12-61 12-12 30-13 113-4 54 5 134 12 177 15l78 5-7-32c-20-95-90-263-141-338-29-45-53-89-51-98s15-17 31-19c78-9 198 218 259 489 22 98 23 123 22 434 0 256-4 351-16 425-24 139-49 263-58 280-11 23-47 24-59 1z"/>
  </g>
</svg>
