<?xml version="1.0"?>
<svg xmlns="http://www.w3.org/2000/svg" height="200pt" preserveAspectRatio="xMidYMid meet" viewBox="0 0 200 200" width="200pt">
  <g transform="matrix(.1 0 0 -.1 0 200)">
    <path d="m1159 1873c-11-12-13-44-11-127l3-111-138-29c-76-16-146-36-155-44-22-19-23-45-3-62 13-11 38-8 138 14 167 36 157 38 157-37v-63l-77-13c-114-19-144-39-127-84 9-24 26-26 80-12 27 7 67 15 88 19l39 7-6-38c-4-21-7-61-7-89v-51l-112-23c-153-30-339-87-363-111-15-15-17-23-9-37 16-25 41-25 112-3l62 19v-312c0-171-5-353-10-404-5-52-6-100-3-108 8-20 38-35 57-28 36 14 166 231 166 277 0 10-7 20-17 24-16 6-60-35-90-83-9-15-12 53-12 318l-1 337 38 11c127 35 423 78 605 86 72 4 140 11 150 16 21 11 22 51 2 68-18 15-181 8-360-16-60-7-114-14-119-14-10 0-4 155 6 166 5 4 46 13 94 20 89 13 114 25 114 54 0 41-56 48-182 23l-28-5v65c0 63 1 66 28 71 36 7 169 23 262 31 79 7 100 16 100 45 0 47-63 53-269 24-58-8-110-14-118-14-10 0-13 25-13 108 0 110-7 132-41 132-9 0-23-7-30-17z"/>
    <path d="m666 1858c-10-6-35-48-57-95-114-249-254-459-407-611-85-85-112-119-110-135 3-24 26-32 62-23 28 7 144 112 208 189l48 58v-560c0-495 2-561 16-575 8-9 24-16 33-16 46 0 46-5 46 664v631l48 78c54 89 112 203 151 295 20 47 24 67 17 81-14 25-33 31-55 19z"/>
    <path d="m1670 1003c-11-16-47-64-79-109-57-79-153-180-218-231l-33-25-47 40c-27 22-101 94-166 161-120 124-146 140-167 100-14-25-2-46 87-145 137-154 406-369 630-504 90-54 116-65 163-68 42-3 59 0 69 12 17 21 6 35-47 58-66 30-211 119-340 211l-114 80 34 26c68 53 122 108 183 186 111 142 134 192 103 223-19 19-35 14-58-15z"/>
  </g>
</svg>
