<?xml version="1.0"?>
<svg xmlns="http://www.w3.org/2000/svg" height="200pt" preserveAspectRatio="xMidYMid meet" viewBox="0 0 200 200" width="200pt">
  <g transform="matrix(.1 0 0 -.1 0 200)">
    <path d="m882 1896c-138-244-254-353-567-533-66-37-121-76-123-85-5-24 32-40 73-32 45 8 257 129 350 198 104 79 175 155 256 274 40 59 73 108 75 110 1 2 51-38 111-90 254-219 528-381 690-407 72-11 100-6 109 21 9 30-14 46-81 59-79 15-275 110-400 194-115 77-309 232-375 299-60 62-80 61-118-8z"/>
    <path d="m1055 1434c-262-26-356-40-372-56-18-19-10-55 16-63 10-3 94 4 187 15s219 23 279 26c135 8 176 33 127 77-22 20-54 20-237 1z"/>
    <path d="m1020 1223c-25-2-103-10-174-18-71-9-143-13-161-9-19 3-35 1-39-5s-9-53-11-103c-7-170-107-466-205-606-67-96-216-238-310-297-60-38-79-55-77-70 3-30 68-25 142 11 66 32 259 214 311 293 33 50 23 67 78-134 20-72 36-137 36-146 0-45 52-46 535-7 99 7 163 8 218 0 86-11 130-3 147 28 5 10 17 90 25 177s18 169 21 183c13 61-40 78-246 79-113 1-532-22-663-35-37-4-67-5-67-2 0 2 17 47 38 99l38 94 110 12c60 6 206 14 324 18 118 3 225 8 237 11 25 5 40 39 24 57-7 9-6 25 4 52 8 22 14 51 15 64 0 13 8 70 17 127 13 84 14 106 3 118-10 13-38 16-169 14-86-1-176-3-201-5zm275-120c-4-27-8-49-8-49-1-1-101-7-222-13-121-7-248-15-282-18l-63-6v45 45l133 13c72 7 191 16 262 20 72 4 143 8 159 8 28 2 28 2 21-45zm-25-152c0-5-3-22-6-38l-6-30-162-7c-89-4-218-13-287-20-68-7-125-13-126-12s4 22 10 49l10 47 96 1c53 1 139 5 191 9 141 10 280 11 280 1zm183-448c4-6-16-245-23-280 0-1-57-1-127 0-71 1-202-4-293-11-91-6-199-15-241-18l-75-5-38 128c-20 70-39 135-42 144-5 16 26 19 421 42 114 7 414 6 418 0z"/>
  </g>
</svg>
