<?xml version="1.0"?>
<svg xmlns="http://www.w3.org/2000/svg" height="200pt" preserveAspectRatio="xMidYMid meet" viewBox="0 0 200 200" width="200pt">
  <g transform="matrix(.1 0 0 -.1 0 200)">
    <path d="m666 1858c-10-6-35-48-57-95-114-249-254-459-407-611-85-85-112-119-110-135 3-24 26-32 62-23 28 7 144 112 208 189l48 58v-560c0-495 2-561 16-575 8-9 24-16 33-16 46 0 46-5 46 664v631l48 78c54 89 112 203 151 295 20 47 24 67 17 81-14 25-33 31-55 19z"/>
    <path d="m1370 1604c-65-3-367-28-470-39-19-2-41-4-48-4-24-2-32-48-22-133 6-46 19-258 30-473 11-214 25-448 30-519 6-72 10-158 10-191 0-49 4-66 20-80 17-15 24-16 47-6 31 14 439 32 682 30 125-1 165 1 171 11 19 30 25 235 25 787 0 504-2 584-15 597-12 11-55 16-200 19-102 2-219 3-260 1zm385-669c0-319-4-597-8-617l-8-38h-113c-126 0-567-18-607-25l-26-4-12 157c-6 86-20 319-31 517s-25 402-31 454c-8 68-8 96 0 101 6 3 93 12 194 19 100 7 187 14 192 16 6 2 109 3 230 2l220-2z"/>
    <path d="m1264 1356c-17-13-19-26-18-115 1-96 0-102-20-105-12-3-59-10-106-18-80-12-85-15-88-39-5-46 17-53 119-40 51 7 93 10 94 9 2-2 4-46 6-98l4-95-30-3c-58-6-105-23-114-41-14-24 32-268 54-290 14-14 42-16 218-12 111 1 210 7 221 13 15 8 17 17 12 46-3 21-9 91-12 157-9 161-7 159-146 150-60-4-108-3-109 2 0 4-4 48-7 96-7 83-6 88 13 92 42 9 190 25 226 25 64 0 88 66 30 85-17 5-151-6-243-21l-38-6v89c0 64-4 95-16 111-18 26-24 27-50 8zm250-658c3-50 5-92 4-94-2-1-68-3-147-5l-145-4-14 78c-8 43-11 81-8 85 8 7 185 28 257 31l46 1z"/>
  </g>
</svg>
