<?xml version="1.0"?>
<svg xmlns="http://www.w3.org/2000/svg" height="200pt" preserveAspectRatio="xMidYMid meet" viewBox="0 0 200 200" width="200pt">
  <g transform="matrix(.1 0 0 -.1 0 200)">
    <path d="m666 1858c-10-6-35-48-57-95-114-249-254-459-407-611-85-85-112-119-110-135 3-24 26-32 62-23 28 7 144 112 208 189l48 58v-560c0-495 2-561 16-575 8-9 24-16 33-16 46 0 46-5 46 664v631l48 78c54 89 112 203 151 295 20 47 24 67 17 81-14 25-33 31-55 19z"/>
    <path d="m1136 1854c-13-13-16-42-16-163v-147l-152-27c-168-31-202-42-206-73-6-41 20-49 113-32l84 15 15-41c40-111 89-336 73-341-7-2-93-15-192-30-208-30-250-45-250-90 0-28 3-30 35-29 19 0 78 8 130 17 257 44 419 58 755 67 187 5 350 12 362 15 31 7 39 42 16 67-18 20-24 20-245 14-126-4-228-5-228-3s9 29 19 61c23 66 81 317 81 351 0 18 7 24 38 29 20 3 56 6 79 6 45 0 73 19 73 49 0 38-24 44-138 37-99-6-280-28-344-42l-28-6v137c0 75-5 145-10 156-13 23-43 25-64 3zm308-371c-21-96-77-309-92-353l-19-55-87-9c-48-5-89-6-92-3-3 2-16 51-29 108s-35 140-49 184c-14 43-23 81-20 84 6 7 321 59 361 60 25 1 30-3 27-16z"/>
    <path d="m1365 819c-94-4-202-16-262-28-55-12-112-21-125-21-56 0-58-25-24-225 14-77 28-168 32-202 8-74 28-98 82-96 20 1 141 4 267 8 127 3 240 8 252 11 34 7 53 32 53 72 0 20 11 113 25 205 30 204 31 248 7 270-20 19-36 19-307 6zm232-101c-3-13-16-101-29-195l-23-173-165-1c-91 0-195-3-232-7l-67-8-12 71c-6 38-19 115-29 170s-16 103-14 106c9 15 199 42 344 49 258 12 233 13 227-12z"/>
  </g>
</svg>
