<?xml version="1.0"?>
<svg xmlns="http://www.w3.org/2000/svg" height="200pt" preserveAspectRatio="xMidYMid meet" viewBox="0 0 200 200" width="200pt">
  <g transform="matrix(.1 0 0 -.1 0 200)">
    <path d="m666 1858c-10-6-35-48-57-95-114-249-254-459-407-611-85-85-112-119-110-135 3-24 26-32 62-23 28 7 144 112 208 189l48 58v-560c0-495 2-561 16-575 8-9 24-16 33-16 46 0 46-5 46 664v631l48 78c54 89 112 203 151 295 20 47 24 67 17 81-14 25-33 31-55 19z"/>
    <path d="m1230 1750c-157-28-292-60-308-72-17-15-12-48 10-62 12-7 33-7 75 3 95 21 326 60 357 61 32 0 32 8-3-125l-19-70-73-13c-208-36-446-85-476-97-24-10-33-20-33-38 0-46 20-51 117-29 274 64 696 122 880 122 46 0 93 5 104 10 21 12 25 50 7 68-16 16-137 16-296 0-67-6-125-9-128-6-3 4 8 51 25 106 34 109 37 132 19 150-17 17-135 14-258-8z"/>
    <path d="m635 1333c-15-15-17-34-11-172 3-86 11-284 17-441 12-298 17-330 58-330 40 0 44 22 38 198-19 551-29 718-43 740-17 26-36 28-59 5z"/>
    <path d="m960 1221c-5-11-10-37-10-58 0-45-43-210-66-256-9-17-30-48-45-67-32-39-36-62-14-80 12-10 21-10 46 0 37 16 70 58 103 132l25 55 88 12c49 6 104 11 121 11h32v-69c0-37-3-95-6-128l-7-61-86-17c-47-9-96-23-108-31-27-17-30-46-7-64 15-13 57-9 171 17l23 5-16-53c-29-97-76-169-196-301-65-70-118-132-118-136 0-17 25-32 52-32 21 0 47 21 123 98 52 54 107 114 121 133 29 38 94 167 94 186 0 21 15 15 37-16 29-38 185-168 279-232 98-66 213-120 268-126 38-5 46-2 56 17 17 31-7 53-93 86-136 52-439 280-482 364l-14 27 101 11c99 11 138 27 138 57 0 33-29 38-141 29l-109-9v131 131l158 17c86 10 164 22 173 27 41 21 27 79-19 79-15 0-157-16-315-36-159-20-290-34-292-33-2 2 1 24 5 49 13 65 12 124-2 138-18 18-56 14-68-7z"/>
  </g>
</svg>
