<?xml version="1.0"?>
<svg xmlns="http://www.w3.org/2000/svg" height="200pt" preserveAspectRatio="xMidYMid meet" viewBox="0 0 200 200" width="200pt">
  <g transform="matrix(.1 0 0 -.1 0 200)">
    <path d="m666 1858c-10-6-35-48-57-95-114-249-254-459-407-611-85-85-112-119-110-135 3-24 26-32 62-23 28 7 144 112 208 189l48 58v-560c0-495 2-561 16-575 8-9 24-16 33-16 46 0 46-5 46 664v631l48 78c54 89 112 203 151 295 20 47 24 67 17 81-14 25-33 31-55 19z"/>
    <path d="m1326 1804c-8-20-6-105 3-170l7-51-130-8c-72-4-142-8-155-8-23-2-25 3-43 102-20 110-29 131-58 131-38 0-45-26-31-113 6-45 14-94 17-108 6-26 5-26-87-43-103-19-119-27-119-63 0-35 31-41 127-25 46 8 86 12 88 10 7-7 38-379 32-384-3-3-87-12-188-20-101-9-194-20-206-25-29-11-31-54-3-69 14-8 74-6 212 5 106 9 251 20 323 26 71 6 280 14 463 17 314 7 334 8 348 26 18 26 18 32-6 56-19 19-29 20-238 13l-218-6-13 174c-7 96-15 184-18 196l-5 23 135-7c118-5 139-4 161 11 28 18 33 45 14 64-7 7-41 12-82 12-39 0-108 3-152 6l-81 7-12 101c-7 55-14 109-17 119-7 22-59 23-68 1zm31-459c6-77 12-165 12-196l1-56-147-6c-81-4-148-6-149-4-7 7-35 379-30 385 11 10 118 19 216 18l85-1z"/>
    <path d="m1245 894c-60-7-144-19-185-27s-89-12-107-10c-55 9-57-11-28-224 14-104 35-253 48-332 26-169 30-174 117-161 30 5 152 9 271 9 160 1 219 4 227 14 6 7 11 144 13 370 3 307 1 359-11 367-21 13-213 10-345-6zm271-90c-3-9-6-60-6-115v-99h-109c-100 0-270-12-347-25l-31-5-11 82c-19 134-26 122 86 142 134 23 232 33 336 35 77 1 87-1 82-15zm-8-431 3-133h-153c-84 0-182-3-218-6l-65-6-18 98c-9 55-17 111-17 125v27l133 11c72 7 139 14 147 16s53 2 100 2l85-2z"/>
  </g>
</svg>
