<?xml version="1.0"?>
<svg xmlns="http://www.w3.org/2000/svg" height="200pt" preserveAspectRatio="xMidYMid meet" viewBox="0 0 200 200" width="200pt">
  <g transform="matrix(.1 0 0 -.1 0 200)">
    <path d="m666 1858c-10-6-35-48-57-95-114-249-254-459-407-611-85-85-112-119-110-135 3-24 26-32 62-23 28 7 144 112 208 189l48 58v-560c0-495 2-561 16-575 8-9 24-16 33-16 46 0 46-5 46 664v631l48 78c54 89 112 203 151 295 20 47 24 67 17 81-14 25-33 31-55 19z"/>
    <path d="m1231 1841c-6-11-11-62-11-115 0-82-2-95-17-100-10-3-89-13-176-22-131-15-160-21-168-36-6-12-6-25 1-38 13-25 58-26 225-5 66 8 126 15 133 15 8 0 12-23 12-80 0-44-1-80-2-80-2 0-63-9-137-20-138-20-179-37-165-69 19-45 34-192 43-411 16-399 22-469 37-485 25-24 102-28 321-15 195 12 215 12 231-4 25-22 59-20 72 3 6 13 10 187 10 498 0 425-2 481-16 502-16 23-17 23-166 16l-149-8 3 84 3 84 100 12c55 6 136 12 180 12 55 1 87 6 103 17 24 17 29 43 10 62-16 16-128 15-273-3-66-8-121-15-122-15-2 0-3 37-4 83-1 109-8 131-41 135-18 2-30-3-37-17zm319-651v-120h-97c-53 0-163-7-246-16-82-8-150-14-152-12-7 10-33 214-27 220 14 13 303 44 435 46l87 2zm0-279c0-92 1-91-103-91-66 0-179-9-329-26l-58-7v85 85l143 12c78 6 178 13 222 14 44 2 90 4 103 5 21 2 22-1 22-77zm0-300v-128l-52-6c-29-4-137-9-240-13l-188-7-2 106c-1 59-2 115-2 125-1 14 12 18 74 25 106 11 285 24 353 26l57 1z"/>
    <path d="m702 868c-15-15-15-84-2-236 6-64 14-204 18-311 7-176 9-194 27-207 12-9 30-12 45-9 157 40 363 50 695 34 403-19 424-19 442 8 13 19 12 24-6 42-17 17-34 21-83 21-35 0-103 5-153 10-150 16-665 13-775-4-52-8-96-13-97-12-2 1-7 85-13 187-9 174-35 449-45 477-6 15-37 16-53 0z"/>
  </g>
</svg>
