<?xml version="1.0"?>
<svg xmlns="http://www.w3.org/2000/svg" height="200pt" preserveAspectRatio="xMidYMid meet" viewBox="0 0 200 200" width="200pt">
  <g transform="matrix(.1 0 0 -.1 0 200)">
    <path d="m666 1858c-10-6-35-48-57-95-114-249-254-459-407-611-85-85-112-119-110-135 3-24 26-32 62-23 28 7 144 112 208 189l48 58v-560c0-495 2-561 16-575 8-9 24-16 33-16 46 0 46-5 46 664v631l48 78c54 89 112 203 151 295 20 47 24 67 17 81-14 25-33 31-55 19z"/>
    <path d="m1181 1806c-9-11-10-43-1-136 6-67 9-125 5-128-3-3-92-19-198-34s-202-30-214-33c-31-7-40-43-16-66 19-19 22-19 188 5 233 34 375 46 540 46 77 0 171 3 208 7 60 5 70 9 80 31 10 21 8 27-11 43-21 16-38 18-175 13-84-2-188-6-233-9l-81-4-6 120c-4 66-12 129-17 140-12 22-52 25-69 5z"/>
    <path d="m1151 1350c-41-5-94-11-118-15-67-10-71-26-42-192 26-149 41-180 83-169 65 16 178 27 336 33 96 3 181 10 188 16 14 11 16 53 2 62-13 8-13 83 1 163 8 46 8 70 0 88l-11 24-182-1c-101-1-216-5-257-9zm355-116c-3-26-6-65-6-88v-42l-162-12c-90-7-181-15-203-18l-41-6-17 88c-12 65-14 90-5 95 6 4 63 10 127 14 64 3 125 7 136 8s56 4 99 5l79 4z"/>
    <path d="m1240 938c-47-5-175-20-284-33-224-28-269-43-274-89-5-38 47-243 65-262 21-20 40-17 57 9 14 20 13 32-10 121-28 112-29 110 49 120 280 38 520 56 733 56h231l-34-66c-37-74-39-86-18-104 25-21 51-1 102 78 82 124 90 152 54 172-24 12-548 11-671-2z"/>
    <path d="m1255 713c-132-13-245-29-252-35-17-14-16-43 2-58 11-9 44-11 128-5l113 7 17-114c10-62 20-164 24-225 7-130 11-125-85-91-55 20-64 21-72 8-21-32 141-142 209-142 13 0 28 6 33 13 14 20 2 304-18 431-9 59-14 114-11 121 4 10 36 16 117 21 61 4 118 10 125 13 24 8 28 43 9 64-21 24-32 24-339-8z"/>
  </g>
</svg>
