<?xml version="1.0"?>
<svg xmlns="http://www.w3.org/2000/svg" height="200pt" preserveAspectRatio="xMidYMid meet" viewBox="0 0 200 200" width="200pt">
  <g transform="matrix(.1 0 0 -.1 0 200)">
    <path d="m1290 1869c-8-15-8-45 0-111 12-102 12-102-54-112-90-15-177-38-191-53-20-19-19-29 4-52 18-18 21-18 132 5 63 13 117 23 122 24 4 0 7-25 7-55 0-51-2-55-27-61-193-44-350-88-359-100-29-38 16-74 74-59 15 4 92 22 172 41 158 37 160 37 160-27v-36l-87-17c-140-27-153-33-153-67 0-40 30-45 141-24 49 10 91 16 93 14s7-43 11-90l6-85-43-13c-82-24-110-60-73-91 13-11 26-11 67-1 28 6 53 10 55 7 8-8 15-176 7-176-30 0-361-65-371-73-20-15-15-55 7-67 15-8 63-3 196 21 96 17 178 28 182 25 5-6 14-75 38-291 3-33 13-70 20-82 17-26 46-30 64-8 14 16 12 53-13 287l-13 117 51 5c27 3 107 8 176 11 203 9 248 21 249 62 0 6-8 19-17 28-14 14-28 16-82 11-129-13-376-24-382-18-4 4-9 44-12 88-7 91-5 94 71 94 19 0 40 8 53 21 18 18 19 23 6 42s-24 22-80 21h-64l-7 65c-11 118-19 107 92 121 136 17 132 13 125 114-7 98-15 92 140 102 102 7 127 18 127 54 0 34-36 43-141 36-54-3-104-9-113-12-14-5-16 5-16 75 0 108-8 114-146 103-61-5-101-5-105 1-4 5-10 46-14 90-4 45-11 90-16 99-13 25-56 23-69-3zm260-323v-54l-72-9c-40-5-74-9-75-8-1 0-3 25-4 55l-3 55 64 6c36 3 71 6 78 7 8 1 12-15 12-52zm0-195v-48l-61-7c-34-4-62-6-64-4s-5 23-6 48l-4 45 45 6c94 13 90 14 90-40z"/>
    <path d="m666 1858c-10-6-35-48-57-95-114-249-254-459-407-611-85-85-112-119-110-135 3-24 26-32 62-23 28 7 144 112 208 189l48 58v-560c0-495 2-561 16-575 8-9 24-16 33-16 46 0 46-5 46 664v631l48 78c54 89 112 203 151 295 20 47 24 67 17 81-14 25-33 31-55 19z"/>
    <path d="m705 1296c-107-36-141-61-130-95 10-31 47-36 101-12 26 12 50 19 53 15 7-6-43-151-70-206-22-43-24-69-7-86 20-20 50-14 80 15 24 23 30 25 38 13 23-37-4-300-30-300-5 0-24 26-43 58-29 49-37 57-63 57-24 0-30-5-32-27-3-29 31-100 78-163l30-41-19-57c-19-55-51-121-103-214-25-47-19-75 19-81 36-5 103 95 162 241l11 29 38-32c68-57 196-137 268-168 86-36 317-107 395-121 90-16 342-35 371-28 28 7 41 28 32 52-9 21-58 31-243 50-317 32-603 139-767 289l-61 55 28 108c21 79 28 132 29 200 0 107-8 135-55 179l-35 32 21 59c29 83 29 150 0 174-27 22-41 23-96 5z"/>
  </g>
</svg>
