<?xml version="1.0"?>
<svg xmlns="http://www.w3.org/2000/svg" height="200pt" preserveAspectRatio="xMidYMid meet" viewBox="0 0 200 200" width="200pt">
  <g transform="matrix(.1 0 0 -.1 0 200)">
    <path d="m1437 1887c-14-9-19-35-25-111l-7-100-125-17c-69-10-133-20-142-23-16-4-18 5-18 83 0 92-8 111-46 111-33 0-38-14-44-119l-5-95-95-17c-52-9-103-20-112-24-25-10-33-44-15-63 14-14 26-13 122 2 59 10 108 16 110 14 6-6 27-235 23-253-2-14-47-27-241-71-131-29-245-58-253-65s-14-21-12-32c6-42 27-42 219 0 147 32 185 37 187 26 5-19-35-148-60-198-30-58-150-235-184-270-16-17-50-48-76-69-33-26-48-46-48-62 0-34 38-41 86-16 38 19 127 106 171 167l22 30 2-90c0-49 6-181 12-293 11-182 14-205 31-218 25-18 31-18 52 3 15 15 16 32 11 135l-6 117 52 10c63 13 231 40 234 37 1 0 6-57 13-126 14-170 17-179 47-186 16-4 30-1 40 9 14 14 15 32 4 163-7 81-9 150-4 154 4 4 69 15 143 24 74 10 144 20 156 22 20 5 21 1 27-112 4-65 5-120 2-122-2-2-30 10-61 27-59 34-84 35-84 3 0-42 181-179 220-167 29 9 32 35 20 175-5 69-13 248-17 399-7 315-6 311-90 311-181-1-493-41-664-85l-26-6 29 86c16 47 32 108 35 134l5 48 62 11c132 25 331 42 580 52 263 10 286 14 286 51 0 39-25 48-118 44-48-3-148-7-223-9l-136-5-6 62c-3 34-3 99 0 143l6 82 98 7c120 8 148 25 115 71-13 17-25 19-115 16l-101-3v90c0 68-4 93-16 105-19 19-25 20-47 3zm-27-440v-143l-122-14c-68-8-127-14-133-15-6 0-13 46-17 105-4 58-9 119-11 137l-5 31 116 17c64 9 122 18 127 20 44 15 45 12 45-138zm252-604c2-32 3-59 3-60-1-2-48-7-106-13-57-6-133-15-168-21-77-12-81-9-81 73v56l93 6c50 4 110 8 132 9 22 2 59 4 82 5l41 2zm-438-14c12-61 7-107-11-113-15-4-240-46-250-46-2 0-3 32-3 70 0 49 4 70 13 71 6 0 57 11 112 24 131 31 131 31 139-6zm446-198c0-57-1-60-27-65-24-5-298-46-308-46-2 0-5 29-7 65l-3 64 65 11c36 6 103 15 150 19 144 14 130 19 130-48zm-427-58c2-32 2-61-2-64-3-4-64-17-135-28-147-25-146-25-146 51v47l53 10c86 17 201 39 213 40 7 1 14-22 17-56z"/>
    <path d="m666 1858c-10-6-35-48-57-95-114-249-254-459-407-611-85-85-112-119-110-135 3-24 26-32 62-23 28 7 144 112 208 189l48 58v-560c0-495 2-561 16-575 8-9 24-16 33-16 46 0 46-5 46 664v631l48 78c54 89 112 203 151 295 20 47 24 67 17 81-14 25-33 31-55 19z"/>
  </g>
</svg>
