<?xml version="1.0"?>
<svg xmlns="http://www.w3.org/2000/svg" height="200pt" preserveAspectRatio="xMidYMid meet" viewBox="0 0 200 200" width="200pt">
  <g transform="matrix(.1 0 0 -.1 0 200)">
    <path d="m666 1858c-10-6-35-48-57-95-114-249-254-459-407-611-85-85-112-119-110-135 3-24 26-32 62-23 28 7 144 112 208 189l48 58v-560c0-495 2-561 16-575 8-9 24-16 33-16 46 0 46-5 46 664v631l48 78c54 89 112 203 151 295 20 47 24 67 17 81-14 25-33 31-55 19z"/>
    <path d="m921 1781c-8-5-16-40-21-89-14-139-55-249-158-426-22-38-38-75-35-83 3-7 19-13 35-13 42 0 73 37 133 157 49 99 51 101 90 107 79 12 294 25 500 32 116 4 218 11 228 16 26 13 22 56-8 70-26 12-419-3-619-23-54-6-101-8-103-5-3 2 2 36 11 75 20 88 20 140 0 169-16 23-31 27-53 13z"/>
    <path d="m1170 1330c-74-11-146-23-160-27-41-14-90-47-95-65-6-16 27-226 40-260 9-23 28-28 67-18 64 17 436 42 458 30 32-17 58 3 65 53 13 89 11 273-4 290-19 23-190 21-371-3zm300-80c0-17-7-20-52-20-52 0-320-32-385-46-29-6-33-4-33 13s10 22 58 32c78 15 271 35 370 39 36 2 42-1 42-18zm-8-135c-3-16-13-27-26-29-46-10-399-35-407-30-5 3-9 13-9 23 0 19-8 17 235 50 33 5 94 9 136 10l76 1z"/>
    <path d="m1245 909c-121-15-267-32-324-36-82-6-106-12-115-26-8-12-8-22 0-35 9-13 28-18 93-20 80-3 81-3 81-28 0-81-68-248-139-343-44-58-51-88-25-98 43-16 127 71 177 183 18 40 19 40 94 53 41 7 77 11 79 8 12-12-53-141-101-202-30-38-55-71-55-75 0-12 25-30 42-30 29 0 112 84 146 148 17 31 38 85 48 118 16 59 18 62 53 68 20 3 53 6 74 6 35 0 38-2 32-22-18-59-110-223-150-268-12-14-30-37-39-51-15-24-15-28-2-42 22-22 53-10 101 38 50 50 137 202 166 289 24 72 31 76 139 76h58l7-62c10-99-28-293-65-331-17-18-20-17-109 28-93 46-111 49-111 15 0-22 182-160 210-160 27 0 78 46 101 91 38 76 59 194 59 340 0 158-5 169-81 169-124 0-578-55-635-77-10-4-11 2-4 29 6 18 10 57 10 85 0 29 1 53 3 53 1 0 94 12 207 26s267 28 343 31c120 5 139 8 148 25 6 12 6 25-1 38-10 19-20 20-153 19-90-1-222-12-362-30z"/>
  </g>
</svg>
