<?xml version="1.0"?>
<svg xmlns="http://www.w3.org/2000/svg" height="200pt" preserveAspectRatio="xMidYMid meet" viewBox="0 0 200 200" width="200pt">
  <g transform="matrix(.1 0 0 -.1 0 200)">
    <path d="m946 1822c-30-38-91-99-136-137-61-51-80-73-78-89 4-29 50-33 94-7 19 12 37 21 40 21s3-41 2-91l-3-91-134-41c-151-47-176-66-142-108l19-23 128 41c71 22 132 39 137 36 4-2 7-23 7-46v-42l-87-20c-119-27-118-24-104-253 13-205 18-237 37-253 14-11 92-7 151 7 23 6 23 5 23-79v-84l-56-6c-60-6-84-20-84-46 0-30 23-41 82-41h58v-114-113l-77-7c-91-8-212-34-231-49-7-6-12-22-10-36 3-24 7-26 48-25 25 1 95 8 155 17 74 11 179 17 322 17 179 0 214 2 227 16 20 20 20 38 0 58-13 13-44 16-180 16h-164v114 113l61 7c34 3 82 6 106 6 37 0 45 4 55 25 9 21 8 28-8 46-18 20-25 21-116 15l-98-7v85 84l73 6c115 11 146 17 162 33 12 12 15 56 15 253v240l-23 15c-21 14-33 14-113 0-49-8-101-18-116-21-28-6-28-5-28 45 0 49 1 50 37 60 21 6 85 18 143 27 173 26 175 26 178 52 5 37-15 52-69 52-41 0-230-31-281-46-16-5-18 5-18 110v116l55 71c70 91 74 139 10 139-8 0-39-31-69-68zm204-691v-69l-80-12c-45-7-83-10-86-7s-6 34-7 68l-2 64 65 11c117 21 110 24 110-55zm-262-51-3-64-55-12c-30-7-56-13-58-14-2 0-2 33 0 72l3 73 50 11c28 6 54 8 58 4s7-36 5-70zm262-174v-64l-76-7c-41-4-77-5-79-3-3 2-7 29-11 60l-6 55 58 10c118 20 114 22 114-51zm-250-30c0-59 1-58-71-70l-37-6-7 46c-3 25-4 49 0 52 7 7 81 29 103 31 8 1 12-16 12-53z"/>
    <path d="m666 1858c-10-6-35-48-57-95-114-249-254-459-407-611-85-85-112-119-110-135 3-24 26-32 62-23 28 7 144 112 208 189l48 58v-560c0-495 2-561 16-575 8-9 24-16 33-16 46 0 46-5 46 664v631l48 78c54 89 112 203 151 295 20 47 24 67 17 81-14 25-33 31-55 19z"/>
    <path d="m1543 1634c-3-8-1-60 6-115 6-55 11-146 11-204v-103l-27-6c-16-3-59-11-98-17-80-13-115-31-115-59 0-43 45-46 203-14l27 6v-109c0-123-31-431-55-543-8-41-31-129-50-196-20-67-33-129-29-138 9-22 52-32 69-15 13 15 65 180 90 292 31 134 63 437 68 637l2 85 83 13c46 8 85 12 87 10 7-7 35-274 35-333 0-73-33-298-55-386-16-63-54-181-60-187-1-2-28 9-58 24-47 23-58 25-71 15-35-29-10-66 87-128 29-19 55-29 67-26 70 18 165 371 177 653 6 158-24 409-53 441-19 22-48 22-191 2l-43-5v58c0 104-21 296-35 331-11 25-20 33-40 33-14 0-28-7-32-16z"/>
  </g>
</svg>
