<?xml version="1.0"?>
<svg xmlns="http://www.w3.org/2000/svg" height="200pt" preserveAspectRatio="xMidYMid meet" viewBox="0 0 200 200" width="200pt">
  <g transform="matrix(.1 0 0 -.1 0 200)">
    <path d="m666 1858c-10-6-35-48-57-95-114-249-254-459-407-611-85-85-112-119-110-135 3-24 26-32 62-23 28 7 144 112 208 189l48 58v-560c0-495 2-561 16-575 8-9 24-16 33-16 46 0 46-5 46 664v631l48 78c54 89 112 203 151 295 20 47 24 67 17 81-14 25-33 31-55 19z"/>
    <path d="m1042 1837c-5-7-14-37-21-67-13-65-65-172-110-228-17-22-31-49-31-61 0-26 28-41 57-30 42 15 120 143 154 249l17 55 140 3 141 3-25-58c-26-60-115-197-157-244-22-24-36-28-133-39-218-24-239-33-223-93 5-18 11-99 15-181 8-187 11-191 120-184l73 5-29-41c-45-67-164-173-270-241-54-35-101-68-104-74-11-18 13-51 38-51 46 0 185 86 283 175l62 56 61-31c33-17 60-34 60-39 0-15-73-102-122-147-25-23-82-63-127-89-56-32-81-53-81-65 0-75 172-9 291 111 37 38 76 82 85 99 23 37 39 38 61 2 9-15 28-36 41-47l24-20-44-50c-77-88-241-209-380-280-71-37-132-73-135-81-9-23 17-44 53-44 82 0 354 172 496 315l65 65 36-78c31-68 77-200 77-222 0-10-40 1-102 29-70 32-100 11-58-42 21-27 189-117 218-117 53 0 56 84 8 231-18 57-37 113-42 124-9 22 149-84 261-175 83-67 105-80 140-80 32 0 42 23 22 54-21 31-143 129-272 217l-106 72 38 25c121 81 257 233 251 280-2 14-11 30-21 36-15 9-25 3-64-44-26-30-70-77-97-103-51-49-167-137-180-137-14 0-83 56-172 140-56 53-116 99-157 121-37 18-67 37-67 42 0 4 11 25 25 47s25 46 25 53c0 20 134 37 345 44 204 7 207 8 199 92-3 31 1 112 9 181 15 139 9 175-29 184-13 4-96 2-185-4s-163-10-164-8c-2 2 16 32 40 68 43 63 117 217 130 271 4 18 1 31-10 43-15 15-43 16-226 15-144-1-211-4-217-12zm574-509c-3-29-9-92-13-140l-6-88-71-1c-39 0-103-3-143-7l-71-8-4 136c-2 74-4 136-3 137 1 2 218 18 289 22l29 1zm-396-118c0-126-2-140-17-140-10-1-67-7-128-14-60-7-111-12-113-11-5 4-24 267-20 271 3 2 217 30 261 33 15 1 17-12 17-139z"/>
  </g>
</svg>
