<?xml version="1.0"?>
<svg xmlns="http://www.w3.org/2000/svg" height="200pt" preserveAspectRatio="xMidYMid meet" viewBox="0 0 200 200" width="200pt">
  <g transform="matrix(.1 0 0 -.1 0 200)">
    <path d="m1134 1898c-4-7-7-63-5-125 2-110 1-112-21-117-283-54-293-58-293-101 0-28 2-30 40-30 22 1 51 3 65 5 23 5 27 0 52-79 15-47 27-85 25-86-1-1-76-19-166-39-90-21-189-45-220-55-51-15-56-19-59-49-5-48 21-48 208-3 329 80 587 112 897 112 176 0 215 3 228 15 17 18 19 33 5 54-11 18-183 28-370 20-69-3-126-5-128-4-8 4 34 158 45 170 10 10 40 14 102 14 92 0 111 8 111 46 0 46-16 49-227 36-108-7-198-10-200-8s-6 50-10 107c-3 57-10 110-16 117-12 15-54 16-63 0zm206-317c0-4-4-21-9-37-6-16-15-54-21-85l-11-55-101-12c-56-7-103-10-105-8-10 10-60 166-55 170 8 5 160 23 285 34 9 1 17-2 17-7z"/>
    <path d="m666 1858c-10-6-35-48-57-95-114-249-254-459-407-611-85-85-112-119-110-135 3-24 26-32 62-23 28 7 144 112 208 189l48 58v-560c0-495 2-561 16-575 8-9 24-16 33-16 46 0 46-5 46 664v631l48 78c54 89 112 203 151 295 20 47 24 67 17 81-14 25-33 31-55 19z"/>
    <path d="m1515 1253c-118-11-404-45-495-60-117-19-145-33-135-73 12-46 47-245 49-278 2-19 9-38 17-43 15-11 27-10 254 21 83 11 197 23 255 26 58 4 114 12 125 19 16 10 23 31 32 102 7 50 22 119 33 154 41 132 26 147-135 132zm43-121-10-39-139-6c-77-4-200-16-275-28-74-12-136-20-138-18-3 2-7 16-11 30-5 22-3 27 17 33 20 5 404 50 549 64 15 2 16-3 7-36zm-32-148c-3-9-6-21-6-29s-22-15-67-19c-112-12-384-46-408-52-20-5-24-1-30 26-5 21-3 35 4 40 7 4 67 14 134 23 67 10 133 19 147 21s72 4 129 5c90 1 102-1 97-15z"/>
    <path d="m1682 708c-33-33-7-65 115-139 98-60 138-64 138-14 0 25-8 35-47 60-182 116-183 116-206 93z"/>
    <path d="m1272 668c-28-28-2-77 102-185 52-56 77-56 116-1 34 47 37 60 14 79-13 11-21 11-44-3l-28-16-56 69c-56 68-80 81-104 57z"/>
    <path d="m737 638c-14-18-32-47-41-65-9-17-43-62-76-100-61-70-74-105-42-121 27-15 54 1 114 68 51 55 128 182 128 208 0 15-29 42-45 42-8 0-25-15-38-32z"/>
    <path d="m896 634c-9-8-16-21-16-27 0-33 55-121 122-197 150-171 233-229 417-290 79-27 114-32 220-37 80-3 136-1 154 6 21 8 38 32 73 103 25 53 44 104 42 118-5 41-34 36-67-12-17-24-44-63-62-87l-31-43-112 7c-131 8-254 44-356 105-94 55-276 245-308 320-21 52-47 63-76 34z"/>
  </g>
</svg>
