<?xml version="1.0"?>
<svg xmlns="http://www.w3.org/2000/svg" height="200pt" preserveAspectRatio="xMidYMid meet" viewBox="0 0 200 200" width="200pt">
  <g transform="matrix(.1 0 0 -.1 0 200)">
    <path d="m1340 1875c-47-7-161-27-254-44s-186-31-207-31c-55 0-87-38-57-68 14-14 108-15 183-2 28 4 52 6 54 4 8-8-34-62-93-119l-62-60 5-200c3-110 5-202 4-204s-52-6-113-9c-114-5-140-14-140-50 1-48 40-226 51-233 23-15 48-10 59 11 10 19 4 83-17 168-5 21-2 22 58 22 35 0 114 4 174 10 146 12 755 43 760 38 2-2-9-24-25-48-38-58-39-80-3-80 22 0 44 16 94 70 74 78 84 99 61 131-15 22-18 22-168 16l-152-6-7 136c-4 74-5 166-3 204 7 97-3 109-92 109-56 0-263-31-369-56l-24-5 27 32c33 39 66 102 66 126 0 16 16 22 103 37 56 9 158 22 226 26 68 5 129 15 137 21 17 14 18 41 2 57s-165 14-278-3zm110-343v-29l-222-37c-123-20-226-36-230-36-5 0-8 12-8 28v27l143 24c172 30 288 49 305 50 7 1 12-11 12-27zm2-157 4-35h-58c-54 0-307-24-370-35-24-4-28-1-28 18 0 21 7 24 128 41 70 10 156 24 192 31s79 14 96 14c29 1 32-2 36-34zm8-158v-34l-137-7c-76-3-180-9-230-13l-93-6v32c0 25 4 31 23 32 12 0 74 6 137 13 63 8 157 14 208 15l92 1z"/>
    <path d="m666 1858c-10-6-35-48-57-95-114-249-254-459-407-611-85-85-112-119-110-135 3-24 26-32 62-23 28 7 144 112 208 189l48 58v-560c0-495 2-561 16-575 8-9 24-16 33-16 46 0 46-5 46 664v631l48 78c54 89 112 203 151 295 20 47 24 67 17 81-14 25-33 31-55 19z"/>
    <path d="m1270 965c-7-8-10-25-6-39 8-34 103-135 132-142 36-9 64 20 64 66 0 40-19 57-39 37-10-9-23 0-59 41-48 54-70 63-92 37z"/>
    <path d="m882 942c-31-26-152-211-152-231 0-24 24-44 47-39 33 6 163 201 163 245 0 33-33 47-58 25z"/>
    <path d="m1550 931c-16-31-4-46 80-101 83-54 120-60 120-19 0 35-18 56-85 98-71 45-99 51-115 22z"/>
    <path d="m996 914c-12-31-5-45 40-94 63-68 121-104 216-136 121-40 181-52 325-66 152-14 161-11 183 67 20 70-6 86-55 35-16-17-36-28-44-26-9 3-61 10-117 16-121 13-264 50-336 86-28 14-77 51-108 80-57 54-93 67-104 38z"/>
    <path d="m1061 580c-23-28-74-75-112-106-54-43-69-61-67-77 5-35 55-34 107 1l44 30 76-39c41-22 81-39 88-39 24 0 13-15-40-54-56-41-199-116-258-135-50-16-76-45-59-66 16-20 67-19 127 1 74 25 226 112 282 161l50 44 68-34c155-78 381-145 457-136 16 2 34 12 40 22 16 27-19 51-96 66-93 19-212 58-310 104-49 22-88 42-88 44 0 3 16 24 35 47s46 68 61 100c22 48 24 62 15 82-9 22-17 24-72 24-33 0-104-5-156-11-85-10-97-10-105 5-16 28-44 17-87-34zm319-46c0-10-57-88-79-108-20-18-22-18-100 14-139 56-132 70 44 86 66 6 123 12 128 13 4 0 7-2 7-5z"/>
  </g>
</svg>
