<?xml version="1.0"?>
<svg xmlns="http://www.w3.org/2000/svg" height="200pt" preserveAspectRatio="xMidYMid meet" viewBox="0 0 200 200" width="200pt">
  <g transform="matrix(.1 0 0 -.1 0 200)">
    <path d="m1050 1615c-246-33-431-65-460-78-34-16-39-61-10-77 12-6 28-9 36-6 48 19 607 96 692 96 24 0 52 5 63 10 21 12 25 50 7 68s-128 13-328-13z"/>
    <path d="m1390 1115c-244-18-446-41-648-76-265-45-486-90-499-101-21-17-16-58 8-66 12-5 110 9 252 35 128 24 235 43 240 43 12 0 8-110-7-181-21-99-70-208-143-317-102-154-206-248-351-321-52-26-63-36-60-54 5-33 64-35 132-4 133 61 254 171 349 318 121 187 167 316 167 473v103l63 7c34 4 76 9 92 12l30 5-3-226c-3-179 0-242 13-306 37-186 90-261 212-299 91-29 395-47 516-31 102 14 122 32 113 101-4 25-9 91-13 148-6 105-18 140-45 129-19-7-25-40-34-179l-7-108h-191c-293 0-370 23-418 120-45 93-60 207-56 442 2 113 5 209 8 212 9 8 198 24 430 37 168 9 219 14 233 27 20 18 22 43 5 60-15 15-149 14-388-3z"/>
  </g>
</svg>
