<?xml version="1.0"?>
<svg xmlns="http://www.w3.org/2000/svg" height="200pt" preserveAspectRatio="xMidYMid meet" viewBox="0 0 200 200" width="200pt">
  <g transform="matrix(.1 0 0 -.1 0 200)">
    <path d="m950 1823c-36-2-157-7-269-11-242-8-231-2-214-119 7-43 24-154 38-248 14-93 28-219 32-280 3-60 11-116 17-124 8-11 33-13 116-8l106 5-7-76c-10-116-35-206-90-320-78-161-191-268-411-386-95-52-111-66-102-90 23-59 270 56 417 194 90 84 160 184 205 292 38 91 75 266 70 336l-3 52h87 86l-5-147c-12-336 70-557 237-640 132-65 259-74 473-36 128 23 130 25 128 159-2 136-7 156-34 152-31-4-47-44-47-118 0-36-4-71-9-78-24-38-290-56-392-26-117 34-172 88-220 214-42 109-59 299-43 457l6 59 114 12c63 6 119 14 124 17 27 17 39 84 50 275 6 110 15 235 20 278 17 130 15 183-6 199-14 10-64 13-213 11-108-1-225-3-261-5zm400-87c0-2-6-68-14-147s-18-210-21-291l-7-147-27-5c-14-3-123-8-241-11s-259-8-312-11l-98-6v50c0 53-26 246-59 437-10 61-18 111-17 112 7 8 796 28 796 19z"/>
  </g>
</svg>
