<?xml version="1.0"?>
<svg xmlns="http://www.w3.org/2000/svg" height="200pt" preserveAspectRatio="xMidYMid meet" viewBox="0 0 200 200" width="200pt">
  <g transform="matrix(.1 0 0 -.1 0 200)">
    <path d="m686 1878c-12-18-13-32-5-63 5-22 15-176 21-341 11-268 10-319-5-457-9-87-28-193-43-243-69-240-256-525-402-614-47-28-55-62-21-80 29-16 67-1 137 54 180 142 359 473 408 756 31 181 27 797-6 940-16 68-56 90-84 48z"/>
    <path d="m1167 1872c-32-35-46-204-53-642-6-383-5-429 15-592 23-200 45-272 98-324 76-76 193-99 463-92 254 7 255 8 199 198-41 138-46 150-64 150-8 0-20-11-26-24-11-22-8-49 17-187 6-34 5-36-26-43-52-10-275-7-353 5-159 24-186 66-217 332-13 118-20 242-20 366v188l25-5c19-3 40 8 92 51 120 98 281 273 317 345 16 31 16 36 1 58-22 33-39 30-72-13-74-100-161-198-255-285l-103-95 3 191c2 105 9 236 17 291 11 85 10 103-1 123-17 27-35 28-57 4z"/>
    <path d="m356 1524c-25-25-20-39 45-111 33-37 81-96 106-130 46-64 74-78 101-51 20 20 14 47-20 96-42 61-187 212-204 212-7 0-20-7-28-16z"/>
    <path d="m1274 996c-3-14-3-29 0-35 4-5 46-31 94-56s123-73 167-106c44-32 88-62 99-65 26-9 50 19 42 49-8 33-140 130-259 192-101 52-134 57-143 21z"/>
    <path d="m331 779c-156-134-183-167-164-197 24-39 48-25 191 108 139 128 179 177 168 206-12 31-48 9-195-117z"/>
  </g>
</svg>
