<?xml version="1.0"?>
<svg xmlns="http://www.w3.org/2000/svg" height="200pt" preserveAspectRatio="xMidYMid meet" viewBox="0 0 200 200" width="200pt">
  <g transform="matrix(.1 0 0 -.1 0 200)">
    <path d="m892 1958c-16-16-15-54 3-174 23-155 35-139-110-153-69-6-146-14-173-18l-47-5 3 96c3 66 0 101-8 111-15 18-56 20-66 3-4-7-11-57-15-113-5-73-16-124-39-190-36-101-54-135-119-218-36-47-43-62-34-75 40-64 164 57 223 220 13 35 24 64 26 66 3 4 322 42 355 42h26l7-132c4-73 10-170 14-215 5-54 4-83-3-83-33 0-314-33-465-55-99-14-201-25-227-25-53 0-93-21-93-49 0-49 61-52 325-16 99 14 186 25 193 25 39 0-8-197-88-366-78-168-230-350-348-416-41-24-52-35-50-52 5-33 77-35 133-2 67 40 175 151 250 260 105 152 205 411 205 532 0 52 1 53 33 58 35 6 244 26 265 26 9 0 12-28 12-107 0-256 64-439 204-584 77-80 131-113 246-150 124-40 306-53 330-24 16 20 20 128 6 197-13 70-66 53-66-23 0-20-3-51-6-69l-7-32-69 6c-162 16-275 65-367 159-115 115-169 267-178 499l-6 136 79 7c44 3 174 18 289 31 116 14 235 28 265 31 69 7 90 18 90 46 0 55-19 57-296 22-235-29-546-57-553-49-6 5-13 85-27 310l-7 111 39 6c21 3 116 11 209 17 94 7 180 16 193 21 24 9 30 47 10 67-16 16-115 15-298-2-80-8-148-11-151-8-3 4-14 68-24 142-18 136-31 170-65 170-9 0-21-5-28-12z"/>
  </g>
</svg>
