<?xml version="1.0"?>
<svg xmlns="http://www.w3.org/2000/svg" height="200pt" preserveAspectRatio="xMidYMid meet" viewBox="0 0 200 200" width="200pt">
  <g transform="matrix(.1 0 0 -.1 0 200)">
    <path d="m869 1749c-20-20-21-28-15-148 3-69 9-203 12-298l6-171-43-6c-24-3-116-13-204-21-398-39-487-60-471-113 9-26 38-33 100-22 64 12 400 50 403 46 2-2 6-45 9-97 10-174-33-321-132-450-56-73-111-117-255-206-103-64-129-89-114-113 21-34 171 30 307 130 122 90 227 242 263 384 21 84 29 221 16 295-6 36-9 66-8 67 1 2 64 6 140 10l137 7v-139c0-167 18-298 60-427 26-80 39-105 80-150 87-96 200-129 494-147 176-10 199-7 211 30 8 26-12 169-26 187-31 37-59 0-59-78v-52l-133 7c-242 12-337 36-408 106-40 38-51 58-74 130-37 118-55 252-55 406v132l204 7c112 4 244 4 295 0 100-8 121-1 121 40 0 49-10 50-359 49-180 0-345-4-367-7l-41-7-7 178c-13 360-18 433-33 448-19 19-29 18-54-7z"/>
    <path d="m1362 1648c-7-7-12-20-12-29 0-46-96-195-188-290-53-56-54-82-3-87 31-3 41 3 106 70 140 146 213 348 125 348-9 0-21-5-28-12z"/>
    <path d="m472 1528c-17-17-15-36 8-86 21-47 104-140 164-183 44-33 103-39 113-13 4 12-20 41-85 103-59 56-99 104-116 139-27 54-56 68-84 40z"/>
  </g>
</svg>
