<?xml version="1.0"?>
<svg xmlns="http://www.w3.org/2000/svg" height="200pt" preserveAspectRatio="xMidYMid meet" viewBox="0 0 200 200" width="200pt">
  <g transform="matrix(.1 0 0 -.1 0 200)">
    <path d="m850 1897c-122-12-125-13-134-39-6-18-3-88 12-220 12-106 25-303 30-437 7-238 8-244 31-262 18-15 40-19 92-19h69v-117c0-117 18-307 40-435 20-111 97-204 189-227 20-5 166-12 324-15l288-6 24 24c23 23 25 33 25 110 0 99-11 136-40 136-26 0-30-12-39-101l-6-71-255 1c-140 1-270 4-289 8-22 4-50 21-76 48-37 36-44 51-55 111-24 135-40 301-40 417v117h164c211 0 196-16 196 220 0 96 7 240 15 320s15 204 15 276c0 116-2 133-19 148-16 15-48 18-227 21-117 2-264-2-334-8zm454-84 39-6-7-153c-3-84-9-159-12-167-4-12-49-15-242-19-130-3-238-4-239-4-5 3-43 330-38 334 16 17 417 29 499 15zm6-618v-185h-230-230v88c0 49-3 130-6 180l-7 90 29 5c16 2 122 5 237 6l207 1z"/>
    <path d="m420 1875c-14-16-12-73 9-340 6-71 12-231 15-354 3-202 6-226 22-238 22-16 26-16 49 1 18 13 19 27 17 233-1 120-7 274-12 343-29 360-31 370-70 370-10 0-23-7-30-15z"/>
    <path d="m633 938c-6-7-13-56-16-108-7-104-42-240-83-323-70-139-196-264-346-342-57-30-69-41-66-58 2-18 11-23 46-25 54-4 130 36 244 127 135 109 234 275 273 462 18 86 20 250 3 267-16 16-43 15-55 0z"/>
  </g>
</svg>
