<?xml version="1.0"?>
<svg xmlns="http://www.w3.org/2000/svg" height="200pt" preserveAspectRatio="xMidYMid meet" viewBox="0 0 200 200" width="200pt">
  <g transform="matrix(.1 0 0 -.1 0 200)">
    <path d="m1316 1766c-160-157-178-186-117-186 63 0 320 238 321 297 0 18-25 43-43 43-2 0-74-69-161-154z"/>
    <path d="m772 1898c-6-6-12-20-12-29 0-22 107-166 178-241 55-58 78-68 100-46 21 21 13 47-29 93-23 25-74 87-113 138-71 91-99 110-124 85z"/>
    <path d="m446 1874c-20-20-20-27 3-72 22-42 176-233 198-245 8-5 25-6 39-3 45 12 30 47-66 161-50 59-97 119-105 135-12 23-33 40-50 40-2 0-11-7-19-16z"/>
    <path d="m1265 1504c-466-30-546-36-768-64-128-17-246-30-263-30-59 0-61-13-25-198 35-174 49-212 80-212 43 0 46 23 17 158-14 70-29 137-32 149-7 25-35 19 291 58 116 13 296 29 400 35 105 6 260 15 345 20 160 10 430 14 430 5 0-11-126-213-152-243-31-37-33-43-16-60 41-41 95 7 195 174 100 165 107 190 62 214-24 13-307 10-564-6z"/>
    <path d="m1130 1285c-8-2-129-14-269-26-187-17-258-27-269-38-19-20-11-108 27-301 21-102 35-148 47-157 10-7 44-13 76-13 44 0 58-4 58-14 0-24-50-177-72-221-28-55-119-166-170-208-65-52-261-160-331-181-26-8-21-45 9-58 33-15 115 12 242 79 68 37 109 69 187 148 118 117 159 189 202 355 14 58 27 106 27 107 1 1 36 5 77 9l76 6 6-108c9-167 27-333 42-393 32-124 88-141 466-141 194 0 259 3 273 13 28 21 36 95 26 231-11 143-15 158-43 154-29-4-35-33-36-180l-1-128h-242c-257 1-324 8-344 35-7 9-17 47-22 83-13 86-43 369-42 403 0 31 10 35 123 45 43 4 80 11 84 17 3 5 7 75 8 156 2 80 8 178 15 218 17 109 13 113-113 112-56-1-109-3-117-4zm146-91c-3-9-11-84-17-168-6-83-12-152-13-152-5-6-237-24-367-30l-155-6-28 148c-15 82-29 154-31 160-3 10 192 33 470 54 151 12 148 12 141-6z"/>
  </g>
</svg>
