<?xml version="1.0"?>
<svg xmlns="http://www.w3.org/2000/svg" height="200pt" preserveAspectRatio="xMidYMid meet" viewBox="0 0 200 200" width="200pt">
  <g transform="matrix(.1 0 0 -.1 0 200)">
    <path d="m702 1878c-24-24-12-82 48-233 17-44 47-109 67-145s67-123 106-195c38-71 78-142 89-158 62-86-80-291-370-535-249-209-360-301-415-341-62-45-76-66-59-83s74-1 140 40c83 50 474 375 579 482 92 92 158 178 194 252l22 46 45-61c56-76 165-208 293-353 115-130 409-415 443-428s56-1 56 31c0 23-34 61-194 218-425 416-640 707-878 1185-26 52-59 133-74 180s-32 91-37 98c-12 15-39 16-55 0z"/>
  </g>
</svg>
