<?xml version="1.0"?>
<svg xmlns="http://www.w3.org/2000/svg" height="200pt" preserveAspectRatio="xMidYMid meet" viewBox="0 0 200 200" width="200pt">
  <g transform="matrix(.1 0 0 -.1 0 200)">
    <path d="m906 1908c-9-12-16-33-16-45 0-13-15-54-34-91-103-202-358-488-559-627-221-152-226-157-192-185 38-31 251 93 404 236 168 157 357 391 417 517 19 39 29 46 37 23 3-7 49-67 102-134 156-195 341-347 617-506 125-72 184-90 207-63 22 27 8 51-49 81-108 57-286 165-351 213-122 89-261 217-344 319-85 103-165 219-165 241 0 12-38 43-52 43-4 0-14-10-22-22z"/>
    <path d="m1265 1110c-44-5-129-13-190-19-60-6-193-14-295-17-102-4-191-11-198-17-17-13-15-43 5-62 14-14 36-16 160-13 168 4 149 22 157-153l5-117-32-6c-18-3-67-8-110-12-86-8-108-24-86-65 10-20 17-21 120-17l109 4v-152-153l-57-6c-76-9-285-41-396-61-90-17-114-33-101-68 11-28 44-27 239 4 235 38 549 54 888 47 227-5 237-5 247 14 14 26-3 57-38 66-15 5-177 8-360 8h-332v156 156l123 7c89 6 127 12 140 23 21 20 22 37 0 58-15 15-32 16-139 10l-123-7-5 24c-3 12-8 73-11 135l-7 111 54 6c29 3 103 10 163 16 178 17 197 19 211 31 31 26 3 80-39 78-12-1-58-5-102-9z"/>
  </g>
</svg>
