<?xml version="1.0"?>
<svg xmlns="http://www.w3.org/2000/svg" height="200pt" preserveAspectRatio="xMidYMid meet" viewBox="0 0 200 200" width="200pt">
  <g transform="matrix(.1 0 0 -.1 0 200)">
    <path d="m1079 1519c-15-29 1-107 52-257 43-125 66-170 167-327 158-245 353-441 532-534 84-44 111-49 130-27 27 34 8 58-88 110-170 94-352 276-494 496-117 182-168 296-208 464-11 44-25 83-32 88-23 14-47 9-59-13z"/>
    <path d="m580 1431c-5-11-10-62-10-113 0-161-33-280-131-478-75-151-160-270-288-403-70-73-83-91-75-105 6-9 26-18 44-20 30-3 41 4 114 80 119 122 208 246 281 393 75 151 110 246 130 364 17 96 20 238 5 275-12 32-54 36-70 7z"/>
  </g>
</svg>
