<?xml version="1.0"?>
<svg xmlns="http://www.w3.org/2000/svg" height="200pt" preserveAspectRatio="xMidYMid meet" viewBox="0 0 200 200" width="200pt">
  <g transform="matrix(.1 0 0 -.1 0 200)">
    <path d="m1346 1775c-9-9-16-22-16-29 0-42 141-247 276-400 44-50 112-128 153-175 40-48 84-92 96-98 49-26 80 17 48 66-10 16-58 75-108 131-198 224-303 358-380 482-24 38-46 46-69 23z"/>
    <path d="m613 1758c-6-7-27-60-48-118-82-232-162-368-334-563-142-162-152-176-140-198 6-12 20-19 39-19 23 0 45 17 115 93 122 130 257 312 304 409 43 90 103 248 123 322 9 34 9 52 2 64-14 21-47 27-61 10z"/>
    <path d="m901 1263c-5-10-32-93-61-186-87-281-174-477-288-649-34-52-43-73-38-92 9-38 37-40 197-17 79 11 214 28 299 36 85 9 193 22 240 29 47 8 130 17 185 20 55 4 104 11 109 16 6 6 13 10 18 10 4 0 44-52 89-115s91-117 101-121c21-6 58 20 58 41 0 42-352 495-385 495-19 0-45-28-45-48 0-9 29-53 65-97l65-80-127-11c-71-7-155-16-188-22s-148-21-255-32c-107-12-216-25-242-29l-48-8 29 51c79 141 103 192 154 321 31 77 77 215 103 307 40 140 46 169 35 182-18 21-58 20-70-1z"/>
  </g>
</svg>
