<?xml version="1.0"?>
<svg xmlns="http://www.w3.org/2000/svg" height="200pt" preserveAspectRatio="xMidYMid meet" viewBox="0 0 200 200" width="200pt">
  <g transform="matrix(.1 0 0 -.1 0 200)">
    <path d="m888 1895c-9-20-8-63 5-198 10-94 17-209 17-254v-83h-81c-112 0-354-18-473-36-55-7-134-14-177-14-81 0-104-11-97-47 9-47 103-52 393-19 91 11 305 20 610 26 622 12 712 17 736 41 25 25 24 46-3 62-18 11-53 12-168 6-80-4-259-9-397-11l-253-3v95c0 106-28 417-39 440-5 8-20 16-34 18-21 3-30-3-39-23z"/>
    <path d="m642 918c-5-7-30-53-55-103-77-154-198-324-329-461-37-40-68-77-68-84 0-26 22-50 46-50 82 0 474 544 474 658 0 45-43 70-68 40z"/>
    <path d="m1192 918c-23-23-12-52 37-97 55-51 258-348 321-470 50-95 79-126 113-117 33 8 39 38 16 78-10 18-33 60-50 93-17 32-89 145-160 250-157 232-234 306-277 263z"/>
  </g>
</svg>
