<?xml version="1.0"?>
<svg xmlns="http://www.w3.org/2000/svg" height="200pt" preserveAspectRatio="xMidYMid meet" viewBox="0 0 200 200" width="200pt">
  <g transform="matrix(.1 0 0 -.1 0 200)">
    <path d="m1200 1711c-5-11-10-67-10-125s-2-106-5-106-95-13-205-30c-110-16-203-30-208-30-4 0-16 55-25 123-19 128-36 165-70 151-33-12-36-37-18-159 12-85 14-122 7-126-6-3-60-12-119-19-98-12-110-16-119-36-8-18-8-28 3-40 12-14 27-16 109-10 52 3 107 9 121 12 25 6 26 4 33-53 3-32 9-135 13-229l6-170-259-43c-142-24-267-47-277-52-23-13-22-56 2-69 15-8 102 4 348 44 521 87 749 112 1117 126 210 8 252 12 267 26 23 21 23 26 2 53-18 21-19 21-283 11-146-5-279-13-295-16l-31-5-11 228c-7 125-11 229-10 230 2 1 42 6 91 10 73 7 91 12 102 28 12 18 11 24-3 44-15 23-20 24-105 17l-88-6v108c0 71-4 112-12 120-18 18-56 14-68-7zm-6-403c3-46 7-149 10-230 4-122 2-148-9-148-19 0-321-39-362-46l-33-6v96c0 52-5 152-11 221s-9 128-6 131c4 5 338 58 394 63 7 1 13-28 17-81z"/>
    <path d="m1268 629c-10-5-18-20-18-33 0-25 20-42 190-164 47-33 127-97 179-142 99-84 131-101 156-80 34 28 17 55-92 146-60 50-126 104-148 120-57 44-237 164-244 164-3 0-14-5-23-11z"/>
    <path d="m658 543c-14-16-51-64-83-108s-82-108-112-142c-63-73-68-106-18-111 25-2 39 6 82 50 53 54 213 272 213 290 0 21-22 48-38 48-10 0-30-12-44-27z"/>
  </g>
</svg>
