<?xml version="1.0"?>
<svg xmlns="http://www.w3.org/2000/svg" height="200pt" preserveAspectRatio="xMidYMid meet" viewBox="0 0 200 200" width="200pt">
  <g transform="matrix(.1 0 0 -.1 0 200)">
    <path d="m712 1888c-6-7-20-42-32-77-38-115-159-373-210-449-28-41-50-81-50-88s9-19 20-27c17-12 22-36 35-178 9-90 20-204 25-254 5-49 10-104 10-120v-30l-185-37c-102-20-197-43-213-50-32-16-44-64-17-74 9-4 109 12 223 35 329 65 796 116 1152 126 449 12 420 9 420 49 0 48-10 50-309 42l-278-7-12 58c-13 70-29 270-32 408l-2 100 109 12c60 6 146 12 191 12 106 1 142 31 93 76-18 16-32 17-127 12-198-11-816-85-947-113l-28-6 35 63c52 94 164 357 184 432 14 54 15 68 4 81-16 19-45 21-59 4zm461-685c4-54 7-134 7-178s7-125 15-179c8-55 14-100 13-101-4-2-601-66-611-65-5 0-6 4-2 9 6 10-1 85-31 370-12 122-13 155-3 161 23 15 460 76 560 79l46 1z"/>
    <path d="m1225 486c-10-7-15-22-13-36 2-20 23-34 103-75 55-28 130-69 168-93 124-77 239-130 265-121 27 10 30 49 5 71-10 9-55 34-101 57-45 23-111 59-147 81-78 48-176 98-226 115-30 11-41 11-54 1z"/>
    <path d="m564 433c-173-185-237-270-232-311 2-22 9-28 33-30 27-3 35 4 71 55 23 32 78 98 123 148 83 92 102 126 84 154-18 29-43 24-79-16z"/>
  </g>
</svg>
