<?xml version="1.0"?>
<svg xmlns="http://www.w3.org/2000/svg" height="200pt" preserveAspectRatio="xMidYMid meet" viewBox="0 0 200 200" width="200pt">
  <g transform="matrix(.1 0 0 -.1 0 200)">
    <path d="m715 1839c-91-9-168-36-178-63-3-8-2-43 3-78 5-34 11-142 15-238 5-152 20-362 43-605 11-113-1-111 540-74 137 9 196 17 204 26 8 10 13 164 16 512l5 498-24 16c-20 15-56 17-279 16-140-1-295-6-345-10zm555-197v-119l-237-7c-131-3-273-9-315-13l-78-6v49c-1 27-5 80-10 119-5 38-7 72-4 74 10 11 165 18 397 20l247 1zm0-315v-103l-257-13c-142-7-279-16-305-20l-47-8-5 46c-3 25-7 78-8 116l-3 70 155 5c85 3 226 7 313 8l157 2zm-4-234c-3-21-6-77-6-124v-86l-147-11c-82-7-188-14-238-17-49-3-111-8-136-10l-46-5-11 107c-18 162-21 150 44 159 67 8 308 20 448 22l99 2z"/>
    <path d="m1205 689c-344-22-1001-117-1042-151-19-16-16-56 6-67 14-8 44-5 107 9 104 22 375 61 629 89 245 28 485 41 767 41 202 0 239 2 252 16 21 20 20 30-4 54-19 19-32 20-302 19-156-1-341-6-413-10z"/>
    <path d="m1232 518c-30-30-11-56 98-128 94-62 166-125 212-186 43-57 70-73 93-54 39 32 4 95-115 206-61 58-236 174-260 174-9 0-21-5-28-12z"/>
    <path d="m599 402c-88-92-189-232-189-261 0-24 20-41 47-41 17 0 39 24 95 102 40 57 100 130 134 163 33 33 63 67 66 75 9 26-11 50-41 50-23 0-45-17-112-88z"/>
  </g>
</svg>
