<?xml version="1.0"?>
<svg xmlns="http://www.w3.org/2000/svg" height="200pt" preserveAspectRatio="xMidYMid meet" viewBox="0 0 200 200" width="200pt">
  <g transform="matrix(.1 0 0 -.1 0 200)">
    <path d="m1047 1902c-14-15-17-41-17-140v-122h-135c-155 0-136-16-153 132-9 91-22 118-53 118-32 0-39-30-29-126 15-143 18-134-42-134-29 0-101-5-161-12-134-15-133-15-118-142 21-178 53-576 48-591-5-10-20-15-49-15-65 0-239-28-254-41-20-16-17-57 4-68 11-6 33-6 58-1 21 5 127 16 234 25 107 8 249 19 315 25 218 19 808 7 1094-22 121-12 143-8 149 30 2 13-5 26-20 35-30 20-167 37-286 37h-95l7 253c3 138 11 303 18 366 16 160 27 153-238 145l-204-7v116c0 104-2 119-20 137-25 25-32 25-53 2zm427-357c-3-14-9-78-13-143l-6-117-160 4c-88 1-161 4-161 5-1 0-5 60-9 133l-7 132 139 4c76 1 157 4 181 5 41 2 42 1 36-23zm-785-212 1-73h-120-119l-5 33c-11 75-26 230-23 234 2 2 60 7 128 11l124 7 6-70c4-38 7-103 8-142zm345 156c3-34 6-94 6-134v-72l-77-7c-42-3-99-6-128-6h-52l-6 68c-4 37-7 100-7 140v72h129 128zm364-295 52-7v-145-144l-152 7c-84 4-155 9-156 10-2 2-6 67-9 144l-6 141h109c60 0 133-3 162-6zm-357-91c0-49 4-112 8-140l7-53h-127-127l-6 58c-3 31-8 92-11 134l-7 77 84 4c46 1 104 4 131 5l47 2zm-347 35c3-24 8-87 11-140l6-97-43-5c-24-3-75-8-115-11l-72-5-5 32c-3 18-8 83-11 145l-6 112 58 4c32 2 84 4 115 5l57 2z"/>
    <path d="m650 685c-6-8-27-46-45-84-56-116-154-250-262-359-28-27-29-58-3-72 33-17 54-4 131 78 89 97 170 217 214 320 40 91 41 95 19 116-19 20-38 20-54 1z"/>
    <path d="m1220 640c-11-11-17-26-14-35 7-17 109-96 254-197 52-36 135-98 183-137s90-71 93-71c20 0 44 25 44 44 0 30-78 102-214 198-340 240-317 227-346 198z"/>
  </g>
</svg>
