<?xml version="1.0"?>
<svg xmlns="http://www.w3.org/2000/svg" height="200pt" preserveAspectRatio="xMidYMid meet" viewBox="0 0 200 200" width="200pt">
  <g transform="matrix(.1 0 0 -.1 0 200)">
    <path d="m1409 1785c-3-2-200-6-439-9-502-5-778-15-802-28-22-11-23-56-3-160 32-167 65-736 65-1110 0-143 4-268 10-282 7-20 17-26 39-26 48 0 54 36 47 294-3 121-9 287-12 367l-6 145 133 17c74 10 193 22 264 27 150 11 801 13 960 3l108-6-7-86c-3-47-11-205-16-350-6-145-13-268-16-272-3-5-44 11-92 34-105 52-238 106-272 109-16 2-25-3-28-14-4-20 48-55 208-141 58-30 127-72 155-91 53-38 85-45 104-22 14 17 18 66 31 391 6 143 12 274 15 290 2 17 9 163 15 325 5 162 13 356 16 431 5 118 4 138-11 152-14 15-45 17-239 17-122 0-225-2-227-5zm385-122c-2-21-6-153-10-293l-6-255-352 4c-248 2-353 7-358 15-4 6-8 67-8 136-1 118-12 284-26 377l-6 43 238 3c132 1 305 3 386 5l146 2zm-855 11c8-7 21-166 27-350l7-201-158-7c-87-4-213-14-279-22-67-8-146-17-176-21l-56-5-12 168c-12 148-27 273-48 395l-6 37 173 9c153 7 518 6 528-3z"/>
  </g>
</svg>
