<?xml version="1.0"?>
<svg xmlns="http://www.w3.org/2000/svg" height="200pt" preserveAspectRatio="xMidYMid meet" viewBox="0 0 200 200" width="200pt">
  <g transform="matrix(.1 0 0 -.1 0 200)">
    <path d="m1648 1585c-3-3-156-12-339-20-184-8-409-19-501-25-199-11-480-48-491-64-9-12-3-163 13-331 5-55 10-120 12-144l3-45-95-17c-144-25-178-36-185-60-5-13-1-27 9-37 14-14 27-13 141 8 69 12 128 20 131 17s12-86 20-184c14-185 40-365 56-395 12-25 55-23 69 3 8 16 7 42-5 107-15 82-46 389-46 459v31l108 6c59 4 130 8 158 11l51 5 13-108c7-59 14-180 15-269 2-89 6-167 10-173 11-17 54-11 65 9 14 27 13 277-2 417-6 63-9 116-6 119s75 9 161 13l155 7 6-110c3-60 8-182 12-270 3-88 10-165 16-172 15-19 56-16 67 5 6 12 7 98 1 243-5 123-9 243-10 266v41l93 6c50 3 136 7 190 9l97 3v-116c0-63-3-192-7-286l-6-172-112 59c-119 63-142 69-152 42-8-21 55-77 152-135 39-23 84-52 101-65 34-25 76-30 91-10 6 7 13 152 17 347 4 184 9 337 12 340s54 7 114 8c90 3 111 7 125 22 22 25 11 58-22 66-14 4-70 4-124 1l-98-6-7 57c-7 59 1 348 12 413 5 29 2 41-15 58-19 19-60 28-73 16zm-4-107c-4-13-8-118-8-234v-212l-189-7c-103-4-190-5-192-4-7 8-17 389-11 423l7 36 127 1c70 1 152 4 182 9 93 12 92 13 84-12zm-482-235c2-126 3-229 3-230-1-1-74-5-162-9l-162-7-5 24c-3 13-10 94-16 179s-13 178-17 207l-6 52 89 4c49 1 130 4 181 5l91 2zm-442 195c0-7 7-103 15-213s15-207 15-216c0-13-26-17-157-27-87-6-158-10-159-9s-9 79-18 172c-9 94-18 193-21 221l-5 51 118 15c154 20 212 22 212 6z"/>
  </g>
</svg>
