<?xml version="1.0"?>
<svg xmlns="http://www.w3.org/2000/svg" height="200pt" preserveAspectRatio="xMidYMid meet" viewBox="0 0 200 200" width="200pt">
  <g transform="matrix(.1 0 0 -.1 0 200)">
    <path d="m920 1750c-192-9-407-29-437-41-16-6-23-17-23-33 0-39 26-47 120-36 45 5 139 12 209 16l126 7 2-157 3-156h-43c-23 0-114-5-202-10-134-8-162-12-174-27-11-15-12-68-7-293 4-151 9-293 12-316l6-40-188-23c-221-26-237-30-232-69 3-24 7-27 48-30 25-2 119 6 209 17 91 11 166 19 167 18 3-3 12-258 13-360 1-62 3-68 26-79 21-9 29-9 41 4 14 13 16 48 15 231l-2 214 58 7c183 19 429 30 641 27l112-1v-170c0-93-2-170-4-170-1 0-56 25-121 56-130 62-188 77-198 50-4-10 1-24 11-34 29-29 331-192 356-192 44 0 46 11 46 248v224l213-3c116-2 218 0 225 4 20 13 14 55-10 69-15 8-93 13-225 16l-203 5-1 46c-13 522-15 559-28 574-12 15-42 17-247 17h-234v155 155h236c143 0 243 4 255 10 21 12 25 50 7 68-13 13-309 14-578 2zm0-595c0-113 0-115-22-115-13 0-88-7-168-15-79-7-145-13-146-12s-6 55-9 120l-8 117 29 1c67 3 300 16 312 17 9 2 12-27 12-113zm490 5v-110h-200-200v110 110h200 200zm3-267c4-38 7-94 7-125v-58h-199-198l-7 92c-3 50-6 106-6 125v33h199 198zm-490-25c4-46 7-102 7-124v-41l-142-12c-79-7-153-14-165-16-26-6-29 6-38 157l-7 96 99 7c54 3 103 8 108 10 6 2 37 4 71 4l61 1z"/>
  </g>
</svg>
