<?xml version="1.0"?>
<svg xmlns="http://www.w3.org/2000/svg" height="200pt" preserveAspectRatio="xMidYMid meet" viewBox="0 0 200 200" width="200pt">
  <g transform="matrix(.1 0 0 -.1 0 200)">
    <path d="m1540 1843c-41-1-167-9-280-18-113-8-380-22-594-30-349-14-391-14-406 0-21 19-44 19-60 0-10-11-7-50 14-190 14-96 26-193 26-216 0-22 5-49 10-60 12-21 50-25 68-7 17 17 14 112-7 248-10 63-17 116-16 118 1 1 134 7 296 12 321 11 593 25 764 40 127 11 305 13 305 3 0-3-6-14-14-22-7-9-46-63-85-120-79-116-92-161-45-161 33 0 61 30 180 193 101 139 113 172 72 201-23 16-35 17-228 9z"/>
    <path d="m682 1553c-5-10-15-43-22-73s-37-129-67-219c-46-140-53-169-43-189 11-25 12-25 98-18 48 3 123 13 167 21 140 26 278 45 336 45 67 0 68-2 76-112 5-68 4-78-11-78-33 0-313-31-421-46-224-32-679-133-722-160-26-17-30-46-8-64 13-11 48-5 198 29 224 51 398 85 542 105 143 21 407 48 412 42 14-14-107-407-153-496-53-103-45-99-111-56-32 21-82 56-110 78-58 44-83 44-83 1 0-19 14-41 53-77 71-69 174-136 208-136 80 0 190 246 282 630 11 44 18 56 38 61 13 4 144 7 290 8 291 1 303 3 297 56-2 22-10 31-33 37-16 5-153 5-302 2l-273-7v59c0 80-25 173-55 203l-24 24-133-12c-73-7-178-21-233-31-130-24-215-34-215-25 0 5 13 49 29 99s34 109 40 132l11 41 212 7c126 4 217 11 225 18 7 6 13 21 13 33 0 46-16 49-228 41l-197-7-10 23c-13 30-60 37-73 11z"/>
  </g>
</svg>
