<?xml version="1.0"?>
<svg xmlns="http://www.w3.org/2000/svg" height="200pt" preserveAspectRatio="xMidYMid meet" viewBox="0 0 200 200" width="200pt">
  <g transform="matrix(.1 0 0 -.1 0 200)">
    <path d="m1264 1792c-6-4-40-64-76-134-37-70-87-160-113-200-56-86-182-212-289-288-65-46-76-59-74-80s9-26 38-28c46-4 145 64 261 180 88 88 150 175 231 325l50 93 41-63c51-76 236-268 337-350 41-34 96-80 122-103 50-44 85-57 112-42 42 24 11 63-154 198-132 107-306 290-367 385-74 115-88 128-119 107z"/>
    <path d="m266 1728c-23-13-20-54 6-91 40-58 186-242 206-261 31-27 66-18 70 19 2 26-14 52-102 163-58 73-110 141-116 151-12 23-42 32-64 19z"/>
    <path d="m1257 1183c-27-26 9-101 86-180 45-47 80-55 97-24 14 27 15 23-38 88-26 32-58 73-71 91-21 30-57 43-74 25z"/>
    <path d="m1280 781c-146-14-271-30-277-34-20-13-15-55 7-67 15-8 93-4 302 15 154 14 283 23 286 20s-6-18-19-33c-14-15-55-65-91-112s-84-102-106-123l-39-38-54 70c-54 71-80 86-107 59-22-22-13-46 46-125 125-166 178-239 194-265 25-39 75-40 84-2 8 30-8 61-68 138l-39 49 64 66c34 36 85 95 112 131s71 92 98 125c63 78 72 101 52 131-14 22-22 24-98 23-45-1-201-14-347-28z"/>
    <path d="m648 743c-39-45-150-298-233-532-4-9-17-3-45 23-22 20-48 36-58 36-23 0-42-19-42-41s100-114 139-127c46-16 65 8 107 128 20 58 69 190 110 294 41 105 74 199 72 210-4 27-30 31-50 9z"/>
  </g>
</svg>
