<?xml version="1.0"?>
<svg xmlns="http://www.w3.org/2000/svg" height="200pt" preserveAspectRatio="xMidYMid meet" viewBox="0 0 200 200" width="200pt">
  <g transform="matrix(.1 0 0 -.1 0 200)">
    <path d="m1375 1759c-244-14-308-19-313-24-3-3-6-76-7-163-1-164-27-327-76-490-30-97-94-224-140-276-44-49-48-70-19-86 58-31 153 91 224 287 52 147 96 396 96 550 0 56 4 104 8 107 12 7 372 20 372 13 0-3-9-43-20-90-32-133-70-409-77-552-10-226 18-292 153-362 96-50 248-82 315-68 46 10 51 30 34 152-27 195-46 263-71 263-28 0-32-35-18-179 7-80 12-146 10-148s-36 1-76 7c-120 17-219 72-246 136-41 97 24 674 91 823 28 60 31 81 13 99-13 13-49 13-253 1z"/>
    <path d="m398 1648c-9-8-23-52-33-108-18-95-46-186-83-270-24-56-133-206-175-242-27-22-30-30-21-45 30-48 90-21 160 73 31 41 59 74 63 74s16-26 26-57c11-32 48-107 82-167 35-61 63-113 63-117 0-16-160-233-249-338-122-144-123-145-115-165 8-22 50-20 84 4 45 32 265 306 325 404 8 14 25-2 100-96 178-223 389-344 770-441 224-58 335-65 335-23 0 26-27 36-226 85-327 82-423 119-590 229-95 63-159 124-248 236-91 115-90 94-3 274 73 151 124 295 168 477 24 101 24 101-4 120-22 14-36 14-143 0-65-9-145-22-177-29l-58-13 7 56c5 46 3 61-11 74-20 20-26 21-47 5zm352-177c0-6-20-79-44-163-42-144-157-418-177-418-11 0-91 150-133 250l-36 84 36 102 36 101 116 22c65 11 126 23 137 25 38 7 65 6 65-3z"/>
  </g>
</svg>
