<?xml version="1.0"?>
<svg xmlns="http://www.w3.org/2000/svg" height="200pt" preserveAspectRatio="xMidYMid meet" viewBox="0 0 200 200" width="200pt">
  <g transform="matrix(.1 0 0 -.1 0 200)">
    <path d="m858 1908c-1-7-2-150-2-318l-1-305-109-7c-129-9-258-30-342-56l-61-19-27 126c-54 249-76 302-120 285-26-10-26-33 3-152 16-64 37-164 46-222 10-58 25-113 34-123 18-21 28-20 148 17 86 26 250 53 366 59l67 3v-164c0-143 5-265 24-643l4-85-236-27c-130-14-238-24-240-22s-23 82-47 177c-23 95-53 195-65 221-20 44-24 48-53 45-43-4-45-28-13-120 20-59 51-190 92-385 8-41 30-43 230-18 298 37 472 48 858 51 306 3 361 5 368 18 5 8 23 130 40 270 35 277 34 290-21 284-31-4-31-4-66-269l-28-206-361-5c-199-3-362-4-363-4-6 4-33 619-33 742v141l53 6c28 4 163 9 298 13 223 6 246 5 252-9 4-10 17-17 30-17 49 0 50 1 77 368 11 152 4 193-31 200-32 6-49-26-49-91 0-34-7-125-15-202s-15-143-15-146-107-9-237-13c-131-4-266-9-300-13l-63-6v184c0 189-15 401-32 432-10 19-57 23-60 5z"/>
  </g>
</svg>
