<?xml version="1.0"?>
<svg xmlns="http://www.w3.org/2000/svg" height="200pt" preserveAspectRatio="xMidYMid meet" viewBox="0 0 200 200" width="200pt">
  <g transform="matrix(.1 0 0 -.1 0 200)">
    <path d="m1485 1673c-16-2-194-24-395-49-383-47-677-94-736-119-30-12-35-19-32-42 3-26 7-28 43-27 22 0 122 15 223 32 101 18 215 35 254 39l70 6-7-59c-25-219-97-416-246-671-120-205-234-341-343-413-87-56-99-90-32-90 87 0 230 119 348 290 212 308 341 618 357 860l6 95 255 32c140 17 280 32 311 32l56 1 7-37c10-61 7-452-4-528-17-115-69-333-105-441-38-115-90-234-102-234-4 0-40 32-79 71-69 68-94 79-94 41 0-52 145-232 186-232 34 0 50 21 98 128 82 181 145 405 181 642 18 115 20 483 4 579-16 93-26 101-118 100-42-1-89-4-106-6z"/>
  </g>
</svg>
