<?xml version="1.0"?>
<svg xmlns="http://www.w3.org/2000/svg" height="200pt" preserveAspectRatio="xMidYMid meet" viewBox="0 0 200 200" width="200pt">
  <g transform="matrix(.1 0 0 -.1 0 200)">
    <path d="m1131 1801c-27-17-13-59 55-157 147-215 315-397 512-555 126-102 161-120 187-99 27 22 18 57-22 87-246 182-405 346-625 643-63 84-81 98-107 81z"/>
    <path d="m762 1684c-65-110-292-405-371-482-25-24-79-70-121-102-94-72-112-92-108-122 5-33 44-28 115 18 147 93 222 170 415 427 165 221 197 307 112 307-8 0-27-21-42-46z"/>
    <path d="m1310 1064c-416-28-699-53-743-65-42-11-57-43-34-67 14-13 33-13 159-3 240 20 221 22 214-14-10-50-70-166-120-232-60-79-128-140-239-215-89-60-108-81-89-100 16-16 165 38 220 79 150 113 264 269 312 430 20 66 24 71 53 77 50 9 380 27 386 21 11-12-22-182-53-276-37-109-110-240-167-295l-37-36-73 20c-60 17-76 18-87 8-7-7-10-20-7-29 8-20 155-97 186-97 26 0 92 66 151 153 96 141 164 341 175 515 9 137 4 140-207 126z"/>
  </g>
</svg>
