<?xml version="1.0"?>
<svg xmlns="http://www.w3.org/2000/svg" height="200pt" preserveAspectRatio="xMidYMid meet" viewBox="0 0 200 200" width="200pt">
  <g transform="matrix(.1 0 0 -.1 0 200)">
    <path d="m1668 1776c-13-12-15-64-16-313 0-164-6-364-12-444-14-193-16-374-6-603l8-188-61 43c-190 136-214 148-228 113-7-19 26-55 142-152 50-41 109-96 133-123 48-54 74-61 96-26 13 19 13 66 3 346-8 247-8 374 1 535 17 287 16 763-1 796-15 30-39 36-59 16z"/>
    <path d="m590 1734c-133-18-397-72-430-87-18-9-25-20-25-42 0-41 13-41 185-7l145 30 7-137c3-75 11-179 17-231s7-97 3-101c-4-3-54-14-112-23-135-23-259-54-287-72s-30-50-4-63c14-8 40-5 97 9 83 22 314 63 320 58 1-2 6-169 10-372l7-368-101 102c-68 69-106 101-119 98-31-6-26-37 14-82 21-23 76-95 122-158 47-64 93-119 103-121 10-3 28 3 41 13l22 18-1 411c-1 226-5 426-8 444l-6 34 133 22c74 11 150 21 168 21 63 0 102 49 64 80-18 15-116 8-265-19l-100-18-5 31c-27 167-34 430-11 439 8 3 58 9 112 13 74 5 101 11 115 25 23 23 24 33 3 53-19 19-70 19-214 0z"/>
    <path d="m1205 1467c-17-13-18-29-13-250 5-244 9-267 48-267 41 0 43 19 36 268-5 205-9 239-23 250-21 15-25 15-48-1z"/>
  </g>
</svg>
