<?xml version="1.0"?>
<svg xmlns="http://www.w3.org/2000/svg" height="200pt" preserveAspectRatio="xMidYMid meet" viewBox="0 0 200 200" width="200pt">
  <g transform="matrix(.1 0 0 -.1 0 200)">
    <path d="m1626 1658c-11-18-16-98-22-358-11-417-11-470 0-812l9-276-94 35c-119 45-156 51-165 29-11-29 32-62 164-122 118-54 127-56 151-43l26 15v763c1 799 1 791-40 791-8 0-21-10-29-22z"/>
    <path d="m625 1634c-77-8-191-17-254-21-99-7-115-11-127-28-12-18-11-24 3-44 16-23 18-24 134-18l118 7-15-51c-41-138-91-262-172-427-95-191-103-216-90-251 6-17 14-22 35-19 29 3 43 23 91 135l22 53 28-30c25-27 203-129 299-172l43-19-26-52c-75-148-231-323-392-440-93-67-112-87-112-114 0-32 41-52 69-32 143 103 191 143 281 231 158 155 252 307 298 483 29 111 62 311 62 378 0 48-3 59-23 72-21 14-37 14-155 0-73-9-155-20-183-25-29-6-53-10-55-10-1 0 10 37 25 83 15 45 36 112 46 148l17 67 46 6c25 3 111 9 191 12 80 4 152 11 159 17 15 12 16 49 0 65s-179 14-363-4zm205-456c0-16-46-273-55-311-4-15-9-27-11-27-10 0-271 134-296 152-15 11-37 20-48 21s-20 3-20 4c0 2 13 30 30 62 28 57 32 60 80 70 84 18 200 34 293 39 16 1 27-3 27-10z"/>
    <path d="m1200 1345c-11-30-15-631-5-657 10-25 61-24 75 1 15 29 14 653-2 669-21 21-58 14-68-13z"/>
  </g>
</svg>
