<?xml version="1.0"?>
<svg xmlns="http://www.w3.org/2000/svg" height="200pt" preserveAspectRatio="xMidYMid meet" viewBox="0 0 200 200" width="200pt">
  <g transform="matrix(.1 0 0 -.1 0 200)">
    <path d="m317 1793c-17-17-3-61 48-145 30-50 55-95 55-99 0-18 39-30 60-19 34 18 24 60-41 168-53 90-64 102-88 102-15 0-31-3-34-7z"/>
    <path d="m1535 1523c-366-83-581-136-587-146-12-19-9-43 7-57 12-10 43-6 156 19s144 29 151 19c13-21 9-154-7-263-26-173-79-354-140-475-62-122-193-277-283-334-33-20-42-32-40-49s9-22 31-20c114 8 313 214 396 409 85 200 135 433 135 635l1 135 105 22c58 12 121 22 141 22 34 0 36-2 53-52 31-96 41-304 28-608-12-270-28-393-64-491l-13-37-80 33c-105 43-128 47-150 31-33-24 2-58 119-115 111-53 145-61 169-36 20 19 63 151 82 246 31 164 46 667 25 849-11 96-54 250-73 262-13 8-127 9-162 1z"/>
    <path d="m490 1395c-144-23-281-53-296-66-8-7-14-24-12-38 3-24 7-26 48-25 25 0 107 11 182 24 76 13 141 21 144 17 14-13-147-212-343-423-101-110-122-147-88-160 36-14 73 10 167 109 56 59 98 96 99 87 1-8 2-181 3-384 1-340 2-370 19-380 12-8 22-8 35 0 24 15 30 109 31 497 1 174 5 317 9 317 5 0 42-24 82-52 120-88 118-87 140-60 16 20 18 28 8 45-6 12-18 27-27 33-14 11-12 18 12 62 32 59 35 97 8 112-30 16-50 2-79-55l-27-52-52 32-53 32 61 78c33 44 76 107 95 141 68 122 40 141-166 109z"/>
  </g>
</svg>
