<?xml version="1.0"?>
<svg xmlns="http://www.w3.org/2000/svg" height="200pt" preserveAspectRatio="xMidYMid meet" viewBox="0 0 200 200" width="200pt">
  <g transform="matrix(.1 0 0 -.1 0 200)">
    <path d="m1667 1956c-19-20-30-596-22-1171 4-236 4-462 0-502l-7-72-78 68c-88 76-178 128-203 118-26-10-21-23 26-64 23-21 85-79 137-129 109-104 136-124 167-124 51 0 50-30 45 952-2 606-7 917-14 926-14 16-33 15-51-2z"/>
    <path d="m483 1928c-4-7-8-168-8-358v-345l-110-23c-118-24-155-41-155-72 0-36 32-42 122-21 46 10 98 22 116 25l32 6 2-130c1-72 2-147 3-167v-37l-108-22c-129-27-261-70-277-89-15-18-4-52 19-60 10-3 52 5 93 19 41 13 112 31 159 41 46 9 92 19 103 22 18 5 19-3 11-285-7-286-7-290 14-311 25-25 35-26 54-7 11 12 16 75 21 313 4 164 11 301 14 304 10 9 256 39 319 39 28 0 63 4 76 9 29 11 40 43 22 67-11 15-25 16-118 11-58-4-151-14-207-22-57-9-104-14-106-13-1 2-4 76-6 166-3 156-2 163 17 167 11 3 69 12 129 20 60 9 113 18 118 21 4 3 8 18 8 34 0 41-29 46-158 26-59-9-110-16-113-16s-8 146-11 325c-5 280-8 328-22 350-18 27-40 32-53 13z"/>
    <path d="m753 1818c-28-38-145-326-146-362-2-38 0-41 26-44 25-3 30 3 73 95 102 219 126 281 114 303s-52 27-67 8z"/>
    <path d="m197 1734c-18-18-2-67 54-169 34-60 71-120 82-132 28-31 55-29 63 3 8 30-13 79-90 210-41 70-58 90-77 92-14 2-28 0-32-4z"/>
    <path d="m1212 1598c-29-29-2-837 29-874 15-19 43-18 60 2 10 13 10 49 1 197-7 100-12 284-12 409s-4 238-10 252c-10 28-47 35-68 14z"/>
  </g>
</svg>
