<?xml version="1.0"?>
<svg xmlns="http://www.w3.org/2000/svg" height="200pt" preserveAspectRatio="xMidYMid meet" viewBox="0 0 200 200" width="200pt">
  <g transform="matrix(.1 0 0 -.1 0 200)">
    <path d="m1641 1843c-5-11-5-73 0-158 5-77 11-405 14-730 3-324 7-624 8-666l4-76-56 18c-31 9-107 33-168 53-62 20-122 36-133 36-26 0-36-25-19-46 20-24 136-79 219-104 41-12 101-35 133-52 61-30 91-30 105 0 10 21-4 1203-17 1472-9 193-15 233-34 258-14 18-45 15-56-5z"/>
    <path d="m510 1843c-120-9-313-34-329-42-35-19-53-60-47-105 3-22 10-106 16-186 16-228 30-333 47-351 14-17 28-17 182-5l43 4-7-57c-16-134-68-405-97-506-34-117-106-269-159-336-36-46-32-72 13-77 59-7 168 174 229 381 17 60 41 166 53 235l22 127 85 7c46 3 119 6 162 7l77 1v-129c0-190-34-475-72-603l-11-37-40 20c-36 19-41 19-55 5-22-22-4-57 49-96 75-54 101-41 134 61 50 160 85 436 85 677 0 141 0 143-26 169l-26 26-137-7c-75-4-152-9-172-12l-36-6 5 73c2 41 6 76 9 79 2 2 76 7 164 10 200 6 192 0 185 155-3 61-8 193-12 295-4 136-9 191-20 208-14 21-20 22-142 20-70-1-147-3-172-5zm244-165c3-46 7-158 9-250l3-168h-45c-25-1-138-7-251-14-113-8-206-13-207-12-2 2-10 84-34 354-6 73-9 135-7 138 11 10 268 32 395 33l131 1z"/>
    <path d="m1142 1473c-9-19 0-367 13-531 8-93 20-122 50-122 8 0 21 10 29 23 13 19 13 44 1 202-8 99-15 231-15 293s-5 122-10 133c-13 24-56 25-68 2z"/>
  </g>
</svg>
