<?xml version="1.0"?>
<svg xmlns="http://www.w3.org/2000/svg" height="200pt" preserveAspectRatio="xMidYMid meet" viewBox="0 0 200 200" width="200pt">
  <g transform="matrix(.1 0 0 -.1 0 200)">
    <path d="m1680 1815c-10-12-14-169-16-718-1-412-7-733-13-777-6-41-11-78-11-82 0-3-29 3-64 15-71 23-99 18-94-14 2-16 30-37 98-75 52-30 98-54 101-54s13 6 22 13c13 9 20 46 32 159 12 117 15 289 15 832 0 376-3 691-6 700-8 20-48 21-64 1z"/>
    <path d="m576 1763c-48-63-156-169-279-277-65-57-78-73-75-95 7-56 67-34 176 64 29 26 54 46 56 44 6-7 18-389 12-389-19 0-276-41-289-46-23-8-23-62 0-71 9-4 76 1 147 10s131 15 133 13c7-6-37-205-63-289-15-45-71-183-125-306-77-173-97-227-88-237 18-22 35-17 68 22 50 57 166 299 221 461l27 82 6-87c4-48 12-195 19-327 10-205 15-242 30-257 18-18 46-15 60 6 13 18 9 155-13 499-11 181-19 333-17 339 2 5 47-36 101-91 94-98 120-114 145-89 26 26 10 54-98 164-60 62-110 117-110 123s8 11 18 11c74 0 288 23 299 31 19 17 16 57-6 69-14 7-72 6-193-4-95-8-175-13-177-11s-6 108-9 235l-5 231 30 32c57 60 103 128 103 152 0 23-25 45-49 45-5 0-30-26-55-57z"/>
    <path d="m1165 1426c-13-20-14-32-4-72 6-27 14-162 17-300 7-261 11-284 52-284 38 0 39 17 30 296-9 258-18 343-42 371-16 20-36 16-53-11z"/>
  </g>
</svg>
