<?xml version="1.0"?>
<svg xmlns="http://www.w3.org/2000/svg" height="200pt" preserveAspectRatio="xMidYMid meet" viewBox="0 0 200 200" width="200pt">
  <g transform="matrix(.1 0 0 -.1 0 200)">
    <path d="m430 1926c-5-15-6-76 0-158 5-73 9-140 10-149 0-12-16-19-62-26-35-6-65-9-66-8-2 2 1 35 7 74 23 145 9 233-36 239-32 5-40-20-46-143-7-155-38-274-103-401-30-58-54-114-54-125 0-23 29-39 55-29s80 100 121 203c36 88 39 91 127 102l57 7-1-128c0-71-4-149-7-173l-7-45-110-24c-139-30-177-61-122-96 23-15 18-16 215 29 21 5 22 3 22-79v-84l-117-27c-65-15-124-32-132-39-11-8-12-35-7-133 3-68 9-180 12-250 4-71 11-134 17-141 5-6 20-12 33-12 42 0 47 35 33 230-7 96-13 191-13 210l-1 34 75 18c41 9 80 17 86 18 9 0 13-100 15-363 4-395 5-401 58-395l26 3 5 390 5 389 85 18c47 9 106 17 133 18h47v-230-231l-31 16c-38 20-59 13-59-19 0-29 57-80 108-97 28-9 36-8 53 7 18 16 19 33 19 308 0 345 2 336-89 336-52 0-208-22-253-36-16-5-18 3-18 79v85l75 11c42 6 100 11 130 11 42 0 60 5 75 20 25 25 25 32 0 55-20 18-72 18-227-1l-52-7 6 169c3 93 6 170 7 171s47 8 101 15c115 14 148 33 122 71-16 24-34 26-158 13l-76-8-8 148c-4 82-11 157-16 167-15 26-58 22-69-7z"/>
    <path d="m1603 1868c-6-8-14-241-19-598-11-734-11-683-1-892l9-176-88 25c-49 13-104 31-122 39-48 20-72 18-72-5 0-30 59-69 171-112 56-22 111-46 123-54 28-20 50-19 71 5 16 18 16 31 5 187-8 110-11 408-10 866 0 519-2 703-11 713-14 17-43 18-56 2z"/>
    <path d="m1131 1451c-16-11-16-109 0-241 6-47 14-179 18-294 6-182 9-210 24-221 25-18 56-7 64 23 17 67-25 659-51 712-13 27-33 35-55 21z"/>
  </g>
</svg>
