<?xml version="1.0"?>
<svg xmlns="http://www.w3.org/2000/svg" height="200pt" preserveAspectRatio="xMidYMid meet" viewBox="0 0 200 200" width="200pt">
  <g transform="matrix(.1 0 0 -.1 0 200)">
    <path d="m473 1881c-108-10-177-21-185-29-10-10-13-70-13-250-1-226-3-250-43-522-47-319-73-433-132-581-45-113-46-121-25-139 30-25 60-4 93 67 55 122 119 351 123 445 2 54 18-53 25-170 5-92 11-128 24-144 22-27 58-16 67 20 6 26-22 377-33 406-7 18 10 23 104 31l72 7v-258c0-288 16-657 30-692 6-12 18-22 30-22 42 0 48 31 39 230-4 102-8 313-8 469l-1 284 53-7c28-3 82-6 120-6h67v-176c0-137-3-175-12-171-7 3-29 12-49 21-30 12-39 13-54 2-27-19-11-51 48-95 82-60 95-65 121-47 32 21 35 47 37 305 1 205-1 226-17 238-13 9-60 13-166 13h-148v74c0 40-3 94-6 120l-7 46h122c67 0 131 5 142 10 16 9 19 22 19 80 0 38 5 126 11 195 12 136 6 227-17 250-20 20-198 18-431-4zm364-148c-4-43-10-126-13-184l-7-106-166-6c-91-4-193-10-226-13l-60-6 3 83c2 46-1 127-6 179s-8 97-6 99c6 7 273 29 378 30l109 1zm-289-510 3-112-48-5c-26-4-77-11-112-17-35-5-64-9-66-7-1 2 5 58 14 125l15 122 40 4c23 2 66 3 96 3l55-1z"/>
    <path d="m1693 1879c-8-8-10-115-6-378 7-422-5-1261-18-1261-4 0-59 38-121 85-109 84-140 97-146 64-4-24 84-126 154-178 32-25 79-60 104-78 24-19 53-33 65-31 43 6 44 19 51 764 7 710-1 978-27 1010-14 17-41 18-56 3z"/>
    <path d="m1232 1508c-9-9-12-108-12-385v-373l26-12c23-11 29-10 46 12 20 24 20 35 16 382-6 370-8 388-47 388-9 0-22-5-29-12z"/>
  </g>
</svg>
