<?xml version="1.0"?>
<svg xmlns="http://www.w3.org/2000/svg" height="200pt" preserveAspectRatio="xMidYMid meet" viewBox="0 0 200 200" width="200pt">
  <g transform="matrix(.1 0 0 -.1 0 200)">
    <path d="m925 1896c-14-10-17-23-14-57 10-105 1-295-18-369l-18-75-135-11c-232-20-265-29-258-78 4-25 25-26 233-8 71 6 130 10 131 9 7-7-69-187-99-235l-35-57-143-12c-169-14-419-52-437-66-17-13-15-42 4-58 13-11 41-9 167 9 84 12 192 25 242 29l90 6-29-34c-16-19-54-56-85-82-56-48-274-204-343-245-43-27-53-46-32-67 20-20 61-19 99 3 151 84 417 304 494 407l22 29 217 4 217 4 54-42c97-74 382-228 506-275 76-28 115-24 115 13 0 28-27 48-111 82-74 31-367 186-404 214-19 14-16 15 40 15 33 1 140-4 239-9 131-8 182-7 192 1 20 16 17 57-3 67-28 15-174 23-395 23h-204l-75 77c-115 118-179 190-179 200 0 5 97 15 215 22 226 14 240 17 233 62-3 21-8 23-83 26-44 2-142-2-218-8-77-6-141-9-144-7-2 3 3 43 13 89 20 99 23 271 5 346-15 59-38 79-66 58zm171-862c0-1-62-4-138-7l-136-6 23 42c12 23 33 70 46 105l24 62 91-97c51-54 91-99 90-99z"/>
    <path d="m1317 1836c-12-13-38-45-57-72-19-26-70-85-112-131-84-88-94-116-53-135 21-10 30-8 53 9 37 27 172 181 211 239 35 53 38 75 15 98-21 22-31 20-57-8z"/>
    <path d="m488 1813c-20-5-33-37-21-56 4-7 48-70 96-140 79-113 91-127 117-127 23 0 31 5 36 25 7 28-18 70-123 212-56 75-76 92-105 86z"/>
    <path d="m1105 719c-255-9-427-23-468-38-21-8-27-17-27-40 0-38 15-42 103-31 39 5 92 10 116 10 42 0 43-1 37-27-29-119-124-235-269-328-80-51-101-81-77-110 21-26 49-17 142 47 166 114 252 225 289 376l13 52 143 2c79 1 158 2 176 2l32 1-2-95c-2-120-24-205-75-293l-39-68-32 19c-130 78-157 85-157 37 0-38 145-155 193-155 49 0 144 145 179 273 26 95 31 328 8 351-24 22-42 23-285 15z"/>
  </g>
</svg>
