<?xml version="1.0"?>
<svg xmlns="http://www.w3.org/2000/svg" height="200pt" preserveAspectRatio="xMidYMid meet" viewBox="0 0 200 200" width="200pt">
  <g transform="matrix(.1 0 0 -.1 0 200)">
    <path d="m487 1858c-13-11-17-34-19-128l-3-115-154-31c-145-30-170-41-171-71 0-21 32-45 54-40 78 19 238 48 242 44 8-8-27-93-81-194-82-152-78-161 78-204 48-13 87-26 87-29 0-17-127-194-185-258-73-82-79-105-26-110 30-3 41 4 100 65 98 100 233 318 311 500 35 84 37 108 11 123-31 16-47 3-76-63-15-34-43-90-62-124-32-60-35-62-56-49-12 8-48 22-79 32l-57 17 50 99c27 54 56 124 64 155s17 58 19 60c2 3 66 11 143 19 76 8 169 18 207 22 49 5 72 12 80 24 20 32-4 53-65 56-50 3-243-12-316-25l-33-5v111c0 99-2 111-19 121-24 13-24 13-44-2z"/>
    <path d="m1654 1833c-15-15-16-34-10-168 11-274 19-1445 10-1445-5 0-29 14-54 30-55 36-80 39-80 8 1-31 44-79 110-122 62-41 80-44 103-18 15 17 16 77 11 693-2 371-9 735-14 809-6 74-10 149-10 167 0 30-21 63-40 63-5 0-16-8-26-17z"/>
    <path d="m1133 1323c-3-9-1-62 6-117 7-56 15-180 18-276s10-181 15-187c15-18 44-16 64 4 15 16 16 35 11 188-7 176-31 371-49 392-15 19-58 16-65-4z"/>
    <path d="m693 902c-6-4-35-43-63-86-85-131-191-264-311-394-116-125-137-157-126-186 16-40 52-17 182 117l131 133 74-56c41-31 117-89 169-128 93-72 128-85 151-57 26 32 6 52-245 238-44 33-84 63-89 67-4 5 28 59 72 122 112 160 129 197 100 226-14 14-28 15-45 4z"/>
  </g>
</svg>
