<?xml version="1.0"?>
<svg xmlns="http://www.w3.org/2000/svg" height="200pt" preserveAspectRatio="xMidYMid meet" viewBox="0 0 200 200" width="200pt">
  <g transform="matrix(.1 0 0 -.1 0 200)">
    <path d="m1745 1889c-4-6-9-223-11-482-3-260-8-635-12-834l-7-362-55 34c-30 19-77 42-105 50-43 13-51 13-64 1-20-21-10-31 116-116 124-84 156-89 186-30 16 31 18 60 16 270-2 129 3 431 10 670 12 412 6 768-14 800-8 13-52 13-60-1z"/>
    <path d="m575 1846c-364-49-366-49-377-69-6-13-6-68 1-168 6-82 11-247 11-367 0-119 5-314 11-432 11-201 13-217 36-254l25-39 76 8c43 3 175 8 294 10 120 2 222 6 227 9 11 7 5 463-9 796-15 322-29 480-46 508-18 27-26 27-249-2zm179-93c3-16 9-98 12-184l7-157-89-6c-49-4-156-12-238-19-102-9-149-10-151-2-2 5-6 83-9 172l-5 161 67 12c73 12 344 47 378 49 16 1 23-6 28-26zm26-578v-155h-37c-56 0-405-37-425-45-17-7-18 5-18 153v160l48 6c26 3 128 11 227 16 98 6 181 13 184 15 17 17 21-13 21-150zm12-392c2-87 3-159 3-159 0-1-106-4-236-6l-236-5-7 134c-4 75-5 137-2 140 7 7 197 31 331 42 61 4 118 9 127 10 15 1 17-16 20-156z"/>
    <path d="m1200 1530c-7-14-8-62-1-162 6-79 13-237 17-353s11-216 17-222c5-7 20-13 33-13 46 0 49 27 35 313-21 423-26 457-72 457-10 0-23-9-29-20z"/>
    <path d="m717 413c-4-3-7-18-7-32 1-30 40-66 177-160 75-52 96-62 118-57 22 6 26 11 23 39s-14 39-96 94c-51 34-109 76-128 93-32 28-72 39-87 23z"/>
    <path d="m303 388c-17-23-113-250-113-268 0-10 7-23 15-30 26-22 63 4 87 58 11 26 36 82 55 126 29 65 33 82 24 102-12 26-52 33-68 12z"/>
  </g>
</svg>
