<?xml version="1.0"?>
<svg xmlns="http://www.w3.org/2000/svg" height="200pt" preserveAspectRatio="xMidYMid meet" viewBox="0 0 200 200" width="200pt">
  <g transform="matrix(.1 0 0 -.1 0 200)">
    <path d="m1305 1848c-8-13-44-63-79-113-35-49-70-104-79-121-19-38-9-59 26-50 34 8 145 130 182 199 25 48 28 58 17 81-14 32-46 34-67 4z"/>
    <path d="m520 1785c-20-24-5-54 73-150 79-97 116-121 144-92 22 22 15 34-82 157-81 102-107 119-135 85z"/>
    <path d="m1175 1424c-121-7-281-18-355-24-161-13-610-75-656-90-42-14-53-45-26-72 18-19 25-19 69-9 47 11 431 64 548 75 154 16 398 28 707 35 249 6 341 11 353 21 18 15 20 51 3 68-16 16-344 14-643-4z"/>
    <path d="m1535 1186c-18-13-18-20-6-152 7-77 19-188 27-249 13-108 44-456 44-503 0-24 0-24-35 7-85 74-97 2-17-94 57-68 115-92 143-59 16 20-8 346-56 758-27 233-36 282-51 293-22 16-26 16-49-1z"/>
    <path d="m635 1124c-72-13-146-21-166-18-58 9-63-5-50-143 28-286 24-531-15-771-4-29-2-43 11-55 21-21 28-21 54 1 25 20 35 67 52 253l13 136 90 18c50 9 125 20 166 22l76 6 12-149c17-207 17-202-15-206-44-5-42-39 4-77s86-41 108-7c18 26 19-14-25 551-28 356-36 424-56 447-23 25-94 23-259-8zm195-96c0-18 3-57 6-85l7-53h-30c-16 0-87-11-157-25-71-14-130-25-132-23-2 3-22 166-20 169 4 4 270 47 294 48 30 1 32-1 32-31zm24-295 6-73h-42c-47 0-204-24-255-39l-33-10v69 69l53 11c54 12 261 48 263 46 1-1 4-34 8-73z"/>
    <path d="m1200 1002c-22-18-22-21-12-83 6-35 16-116 23-179 6-63 16-121 21-127 16-20 56-15 68 8 9 15 7 56-4 162-21 181-27 207-52 224-19 12-24 11-44-5z"/>
  </g>
</svg>
