<?xml version="1.0"?>
<svg xmlns="http://www.w3.org/2000/svg" height="200pt" preserveAspectRatio="xMidYMid meet" viewBox="0 0 200 200" width="200pt">
  <g transform="matrix(.1 0 0 -.1 0 200)">
    <path d="m1641 1843c-5-11-5-73 0-158 5-77 11-405 14-730 3-324 7-624 8-666l4-76-56 18c-31 9-107 33-168 53-62 20-122 36-133 36-26 0-36-25-19-46 20-24 136-79 219-104 41-12 101-35 133-52 61-30 91-30 105 0 10 21-4 1203-17 1472-9 193-15 233-34 258-14 18-45 15-56-5z"/>
    <path d="m524 1725c-238-26-311-45-320-80-9-37 4-48 50-42 22 3 109 15 191 26 83 11 185 21 227 21 95 0 128 11 128 43 0 13-5 28-12 35-15 15-105 14-264-3z"/>
    <path d="m1142 1473c-9-19 0-367 13-531 8-93 20-122 50-122 8 0 21 10 29 23 13 19 13 44 1 202-8 99-15 231-15 293s-5 122-10 133c-13 24-56 25-68 2z"/>
    <path d="m535 1403c-101-9-268-35-290-45-13-6-26-16-29-23-2-6 9-68 25-136s29-138 29-155c0-50 11-53 155-44 72 5 182 12 245 15 131 7 168 18 181 52 5 13 9 87 9 164 0 184 4 180-162 177-68-1-141-3-163-5zm235-188c0-105 0-105-24-105-14 0-83-4-153-10-70-5-153-12-183-14l-55-4-22 101c-12 56-21 103-19 105 10 10 226 30 334 31l122 1z"/>
    <path d="m635 854c-222-24-397-53-421-69-29-19-29-27-5-146 10-52 29-157 41-234 23-142 47-218 74-228 8-3 43-2 78 3 83 12 352 30 438 30 59 0 73 4 99 26l31 26v284c0 343 7 325-122 323-46-1-141-8-213-15zm245-163v-88l-116-7c-65-4-122-8-128-9-12-2-32 160-21 171 8 8 105 18 198 20l67 2zm-350 0c0-32 3-72 6-88l6-30-94-12c-51-6-102-12-112-14-17-2-22 10-37 83-9 47-16 87-14 89 5 5 173 29 213 30l32 1zm350-280v-109l-106-7c-58-4-107-5-110-3-2 3-10 50-17 106l-13 101 81 5c123 9 160 12 163 14 1 1 2-47 2-107zm-326 22c4-32 9-79 12-104l6-46-74-7c-40-4-87-9-103-12l-31-5-13 78c-7 43-15 86-17 95-8 27 28 37 202 57 7 0 14-23 18-56z"/>
  </g>
</svg>
