<?xml version="1.0"?>
<svg xmlns="http://www.w3.org/2000/svg" height="200pt" preserveAspectRatio="xMidYMid meet" viewBox="0 0 200 200" width="200pt">
  <g transform="matrix(.1 0 0 -.1 0 200)">
    <path d="m432 1918c-8-8-12-60-12-168v-156l-127-23c-71-13-134-25-141-27-24-7-25-37-7-153 22-143 46-179 89-132 16 17 16 27 6 98-6 43-13 85-16 94-4 14 36 24 268 69 150 28 282 54 292 57 18 5 18 3-3-25-31-45-61-113-61-143 0-62 55-35 111 53 18 29 48 73 66 97 41 54 44 97 9 111-27 10-151-6-301-39-49-11-91-19-92-17-2 1-5 63-9 137-7 171-9 179-37 179-13 0-28-5-35-12z"/>
    <path d="m1693 1793c-20-49-32-447-33-1094v-466l-82 40c-97 46-141 53-146 21-2-14 7-29 25-44 41-32 224-130 244-130 44 0 44-7 45 754 1 460 6 760 13 829 7 59 9 112 6 117-3 6-17 10-31 10-19 0-29-8-41-37z"/>
    <path d="m461 1451c-10-7-13-29-12-82 1-40 4-76 7-80 2-4-33-19-78-33-99-30-128-49-128-81 0-42 26-45 117-12 46 16 85 28 87 26 3-2 6-40 7-83l2-80-53-18c-65-22-80-34-80-65 0-33 22-38 85-20l55 16v-117-117l-52-19c-237-83-289-114-258-151 19-23 43-19 199 39 145 53 330 109 406 122 50 8 65 20 65 50 0 45-33 48-158 16l-113-28 3 115 3 116 56 11c70 14 79 19 79 49 0 36-31 49-91 36-28-6-52-11-54-11-3 0-5 38-5 84v84l68 12c37 7 82 19 100 26 28 11 33 18 30 41-2 23-9 29-33 31-27 3-128-12-160-24-9-4-15 12-20 58-4 35-11 71-16 81-10 18-36 22-58 8z"/>
    <path d="m1137 1358c-14-12-15-39-9-279 5-202 10-270 21-282 17-21 35-21 55-1 13 12 16 41 16 148 0 196-17 386-37 408-19 21-24 22-46 6z"/>
    <path d="m750 533c-93-14-279-57-356-81-64-20-95-26-106-19-19 13-46 3-55-19-5-14 14-164 33-267 3-15 16-34 28-42 20-13 38-11 174 15 183 36 296 48 306 31 13-21 46-11 64 18 15 24 18 57 21 181 3 191-3 200-109 183zm18-180-3-97-120-17c-66-10-159-26-207-37l-88-20-5 32c-3 17-9 53-14 79-10 56-17 50 111 86 76 22 290 69 316 70 10 1 12-22 10-96z"/>
  </g>
</svg>
