<?xml version="1.0"?>
<svg xmlns="http://www.w3.org/2000/svg" height="200pt" preserveAspectRatio="xMidYMid meet" viewBox="0 0 200 200" width="200pt">
  <g transform="matrix(.1 0 0 -.1 0 200)">
    <path d="m525 1821c-34-104-158-277-348-483-96-106-105-131-49-136 28-3 41 5 98 60 115 110 269 306 338 430l18 33 32-36c81-93 256-219 305-219 27 0 45 34 32 59-6 10-32 31-58 47-116 67-249 192-278 260-11 28-19 34-44 34-26 0-31-5-46-49z"/>
    <path d="m1742 1838c-12-15-10-1116 3-1407 8-179 8-184-11-176-10 4-45 16-76 26-32 10-72 26-89 34-34 18-59 14-59-9 0-20 73-77 140-111 30-15 68-38 83-51 36-30 73-31 88-2 9 17 10 125 4 438-4 228-8 596-9 816-2 362-4 404-19 428-19 28-39 33-55 14z"/>
    <path d="m550 1374c-148-15-180-24-180-52s34-54 61-47c13 3 95 12 181 19 160 14 188 22 188 57 0 42-34 45-250 23z"/>
    <path d="m1190 1245c-11-13-8-45 14-178 15-89 30-195 33-235 8-95 37-127 78-85 14 13 16 28 11 77-13 131-59 392-72 414-17 26-46 29-64 7z"/>
    <path d="m710 1191c-278-43-344-56-362-71s-21-30-23-161c-5-215-46-381-145-585-39-82-56-105-89-127-76-50-34-100 51-61 49 22 77 58 121 153l34 72 16-93c9-51 18-110 21-131 3-22 10-45 16-52 20-24 94-28 221-11 68 9 177 19 241 22 90 5 121 11 132 23s17 54 22 146c7 148-3 210-38 221-29 9-171-3-378-32-96-13-177-24-180-24s-11 9-18 21c-11 18-9 35 14 118l27 98 151 26c83 15 189 32 236 38 125 17 122 11 128 225 6 229 19 218-198 185zm112-125-4-54-76-6c-43-4-132-16-200-27-67-10-125-19-127-19-3 0-5 22-5 49v49l68 11c390 64 348 64 344-3zm-2-165c0-28-3-29-52-36-29-4-123-20-208-36s-156-29-158-29c-3 0 9 73 12 77 5 7 215 36 301 43 55 4 101 8 103 9 1 0 2-12 2-28zm61-473c2-18 2-69-1-113l-5-80-55-2c-30-2-131-12-223-24-93-11-170-19-171-17-4 5-43 208-40 208 1 0 66 9 143 21 77 11 184 24 238 28 54 5 101 9 104 10 4 0 8-14 10-31z"/>
  </g>
</svg>
