<?xml version="1.0"?>
<svg xmlns="http://www.w3.org/2000/svg" height="200pt" preserveAspectRatio="xMidYMid meet" viewBox="0 0 200 200" width="200pt">
  <g transform="matrix(.1 0 0 -.1 0 200)">
    <path d="m451 1858c-4-12-4-40 0-62 4-23 11-107 15-187l7-147-70-11c-113-20-255-58-271-75-14-14-13-28 9-138 21-107 24-149 23-323 0-186-3-211-33-354-18-85-44-183-58-218-27-67-25-93 4-93s62 28 84 72c26 50 74 269 90 407 20 176 3 446-37 573-4 13 11 20 85 37 118 27 340 58 471 66 58 4 113 9 122 11 23 7 32 39 17 65-11 21-15 22-118 16-58-4-134-10-168-13l-63-7v71c0 82-6 77 115 88 89 7 105 15 105 50 0 39-36 49-139 38l-88-9-12 71c-6 39-17 76-23 82-20 20-58 14-67-10z"/>
    <path d="m1725 1856c-13-20-18-90-26-428-6-221-9-583-7-804l3-401-74 35c-75 36-102 36-109-1-3-17 191-156 219-157 9 0 23 8 32 18 16 17 17 90 21 803 3 431 8 816 11 855 6 59 5 73-9 87-24 23-43 21-61-7z"/>
    <path d="m430 1330c-10-6-17-32-20-72-5-61-6-62-37-69-89-18-83-98 6-86l39 5 5-43c16-110 35-120 233-120 135 0 155 2 173 19 12 11 21 27 21 36 0 37-23 41-167 35-76-4-143-3-149 2-18 13-27 82-12 88 7 2 83 11 168 20 178 18 200 25 200 59 0 48-17 51-188 32-87-9-167-19-180-22-20-6-22-3-22 38 0 67-32 102-70 78z"/>
    <path d="m1271 1316c-9-11-9-82 1-306l12-292 24-11c21-10 27-8 43 12 15 18 19 40 19 98 0 133-21 467-30 491-11 25-51 30-69 8z"/>
    <path d="m706 879c-96-10-233-35-302-54-55-16-70-35-54-66 12-21 42-24 103-10 20 5 37 6 37 3 0-11-82-110-120-144-44-40-47-49-24-72 31-32 81-9 145 65l36 42 32-22c17-12 31-27 31-32s-30-31-67-57c-111-79-130-98-117-119 24-39 87-20 191 58 29 22 54 39 56 39 3 0 10-14 18-32 12-30 12-32-27-66-42-37-208-148-262-176-24-12-32-23-30-38 5-34 32-44 75-29 50 18 178 94 230 137 23 19 44 34 47 34s6-31 6-70c0-73-3-77-45-61-26 11-55-4-55-28 0-26 52-68 101-82 37-11 42-11 62 10 21 20 22 31 22 161v140l105-104c58-57 113-106 122-109 23-8 49 19 41 41-12 33-72 108-133 166-34 32-58 62-53 65 4 4 25 20 46 35 45 33 127 151 127 183 0 25-31 46-55 37-9-4-33-32-55-63-21-31-60-77-87-104l-49-47-30 22c-17 13-67 61-113 108-77 79-81 86-71 111 13 29 31 34 190 45 98 8 120 16 120 47 0 49-27 54-194 36z"/>
  </g>
</svg>
