<?xml version="1.0"?>
<svg xmlns="http://www.w3.org/2000/svg" height="200pt" preserveAspectRatio="xMidYMid meet" viewBox="0 0 200 200" width="200pt">
  <g transform="matrix(.1 0 0 -.1 0 200)">
    <path d="m933 1888c-4-7-10-85-13-173l-5-160-75-7c-168-16-379-55-542-99-45-12-64-39-48-69 14-26 49-26 152 0 94 25 332 65 437 75 68 7 73 6 68-11-3-11-8-41-12-69-16-126-106-398-178-542-78-154-242-367-394-510-68-64-79-95-35-101 74-11 304 227 457 473 105 168 213 472 246 692l12 81 41 6c23 3 115 10 206 16s212 15 270 20c58 6 122 10 143 10h37v-62c0-126-90-580-137-692-68-163-195-365-295-472l-28-30-66 33c-91 45-135 43-119-6 7-22 164-131 189-131 52 0 265 277 353 460 72 149 77 165 118 350 55 253 75 388 75 508 0 137-6 145-110 137-232-18-460-35-555-41l-110-6 3 138c4 163-3 194-47 194-16 0-33-6-38-12z"/>
  </g>
</svg>
