<?xml version="1.0"?>
<svg xmlns="http://www.w3.org/2000/svg" height="200pt" preserveAspectRatio="xMidYMid meet" viewBox="0 0 200 200" width="200pt">
  <g transform="matrix(.1 0 0 -.1 0 200)">
    <path d="m1252 1718c-7-7-12-38-12-69 0-52-18-210-24-217-2-1-68-14-147-27-196-34-209-39-209-76 0-18 6-32 17-36 9-4 81 4 160 17 79 12 146 20 150 17 17-18-113-369-217-583-49-101-93-174-159-260-89-119-103-148-79-172 31-31 52-14 168 138 75 99 184 308 255 490 54 138 125 351 125 377 0 12 8 27 18 32 27 14 324 43 371 35l41-7v-71c0-92-16-226-40-346s-132-456-172-533c-32-65-96-157-108-157-13 0-124 77-149 104-32 34-61 34-61 2 0-63 157-206 227-206 28 0 38 9 91 82 81 112 101 157 166 354 101 308 134 472 138 701 4 164 2 166-110 171-43 2-140-3-216-12-77-9-144-16-151-16-9 0-11 31-7 125 3 91 1 129-8 140-15 18-42 19-58 3z"/>
    <path d="m477 1529c-83-8-314-44-349-55-32-9-34-66-3-78 8-3 67 3 132 14 64 10 119 17 121 15 3-2 0-165-4-361l-9-356-123-44c-179-62-197-73-197-109 0-25 4-30 28-33 15-2 69 12 120 31 89 33 559 184 644 206 48 13 66 48 42 77-19 23-71 14-253-46-84-27-156-50-160-50s-6 157-4 349l3 349 59 6c32 3 96 6 142 6 74 0 84 2 98 22 20 28 20 33 0 52-17 18-131 20-287 5z"/>
  </g>
</svg>
