<?xml version="1.0"?>
<svg xmlns="http://www.w3.org/2000/svg" height="200pt" preserveAspectRatio="xMidYMid meet" viewBox="0 0 200 200" width="200pt">
  <g transform="matrix(.1 0 0 -.1 0 200)">
    <path d="m495 1746c-18-13-18-20-6-142 7-71 12-144 10-163l-4-34-144-29c-186-38-213-49-209-85 3-26 6-28 48-28 37 1 138 19 276 50 21 5 21 4 8-60-19-91-44-160-140-394-90-218-106-249-191-377-54-81-63-110-41-132 32-32 62-4 156 143 28 45 66 114 85 155 78 173 188 461 207 545 36 154 16 135 174 165l138 27 14-32c19-47 37-285 29-390-13-174-73-427-130-553l-25-54-30 22c-38 27-74 23-78-8-3-17 11-38 51-78 30-30 59-54 66-54 81 0 219 422 237 727 13 217-28 464-82 500-20 12-39 11-171-15l-148-29-7 71c-20 198-37 266-67 266-4 0-16-6-26-14z"/>
    <path d="m1475 1309c-55-4-130-13-168-19-37-6-78-8-91-4-19 4-28 0-39-18-12-20-12-66 0-338 15-349 20-398 45-414 12-7 58-6 155 2 198 18 357 16 388-4 18-12 29-13 43-5 18 10 20 25 26 168 8 203 24 399 41 504 10 65 11 90 2 109-12 25-13 25-157 26-80 1-190-2-245-7zm315-86c0-5-7-53-15-108s-20-188-26-296l-12-196-166-6c-91-4-194-10-227-13l-62-7-6 139c-4 77-11 211-17 298-5 87-8 160-7 162 2 1 62 9 133 17 139 16 405 22 405 10z"/>
  </g>
</svg>
