<?xml version="1.0"?>
<svg xmlns="http://www.w3.org/2000/svg" height="200pt" preserveAspectRatio="xMidYMid meet" viewBox="0 0 200 200" width="200pt">
  <g transform="matrix(.1 0 0 -.1 0 200)">
    <path d="m1340 1810c-8-15-8-37 0-78 6-31 10-109 8-172l-3-115-40-2c-79-5-229-25-252-34-27-10-31-50-7-69 12-11 32-11 103-2 132 18 191 16 191-5-1-91-68-438-121-633-59-212-74-257-120-361-53-121-57-144-29-159 17-9 26-8 47 5 83 55 251 631 300 1031l18 142 65 6c36 3 118 6 183 6h117v-229c0-327-25-529-95-758-44-144-36-134-91-117-61 18-90 18-98-2-7-19 34-58 96-90 94-48 116-31 163 120 90 289 115 471 115 842 0 253-1 273-19 295-19 24-21 24-225 24h-206v116c0 180-22 259-71 259-10 0-23-9-29-20z"/>
    <path d="m575 1629c-261-17-367-28-382-41-12-10-14-24-9-68 19-158 25-302 28-684l3-419-84-28c-98-34-113-44-109-78 4-38 33-38 156 3 59 19 157 49 217 66 61 17 205 60 320 95 116 35 229 69 253 75 58 15 86 43 71 72-10 18-17 20-68 14-31-3-68-8-82-12l-26-6-6 284c-14 607-19 709-34 724-16 15-52 16-248 3zm174-239 3-160h-53c-30-1-130-9-224-19-93-10-171-18-172-17s-7 62-13 136c-5 74-13 147-16 161l-5 27 88 7c74 7 229 17 358 23l30 2zm-104-477c-66-7-164-19-218-28-54-8-104-15-112-15-12 0-15 21-15 120 0 109 2 120 18 120 10 0 88 7 173 15s179 16 209 17l55 3 5-110 5-110zm123-205-3-123-55-18c-133-43-392-118-396-114-2 2-7 79-11 170l-6 167 44 1c24 0 105 9 179 19s161 18 193 19l58 1z"/>
  </g>
</svg>
