<?xml version="1.0"?>
<svg xmlns="http://www.w3.org/2000/svg" height="200pt" preserveAspectRatio="xMidYMid meet" viewBox="0 0 200 200" width="200pt">
  <g transform="matrix(.1 0 0 -.1 0 200)">
    <path d="m1325 1893c-75-6-205-24-221-30-28-11-36-40-19-80s99-154 176-244l48-55-49-65c-27-36-85-99-129-141-59-54-80-80-75-92 8-20 45-30 74-21 40 13 179 156 237 244 1 2 30-21 65-51 114-99 277-217 315-228 21-7 52-10 68-8 24 2 30 8 30 27s-16 34-76 71c-85 53-182 126-281 213l-67 58 41 67c23 37 65 119 95 182 45 95 52 119 44 137-10 22-15 23-123 21-62-1-131-3-153-5zm116-180c-27-54-58-109-68-122l-20-25-86 109c-48 60-85 110-83 112 6 6 158 20 234 22l72 1z"/>
    <path d="m381 1876c-8-10-10-41-5-105 8-102 19-88-89-111-61-13-119-37-129-53-13-21-9-46 10-56 13-7 36-5 78 8 32 10 78 22 102 26 52 8 52 7 16-135l-26-103 20-20c19-18 24-19 53-7 32 14 125 18 136 7 13-13-68-106-148-169-91-74-109-98-89-123 23-28 61-17 136 41 87 66 128 111 175 186l34 57 45-6c25-3 83-17 129-30l85-24 20 20c16 17 18 24 8 45-8 19-28 30-79 46-37 12-89 24-115 27-27 3-48 7-48 8s9 37 20 80 20 97 20 120c0 41 1 43 38 49 20 3 60 6 87 6 60 0 99 18 103 46 6 44-34 53-170 38l-58-6v40c0 61-15 92-44 92-33 0-46-26-46-93v-54l-69-12c-112-18-107-20-115 52-10 94-23 127-51 127-12 0-28-6-34-14zm266-296c-3-28-14-76-24-106l-17-56-70 6c-38 4-71 8-73 9-1 2 3 42 9 89l11 86 56 10c31 5 69 10 85 11l29 1z"/>
    <path d="m940 1051c-5-11-10-37-10-58s-4-43-8-49-45-14-91-18c-112-9-370-53-398-68-13-6-23-21-23-33 0-45 18-47 171-20 125 21 309 45 309 39 0-13-62-134-97-188-97-151-303-366-427-446-66-43-82-64-70-94 23-61 147 15 331 203 68 70 150 162 183 206 58 74 170 280 170 311 0 11 21 14 103 14 57 0 159 3 227 7l123 6-6-97c-8-124-39-256-89-375-64-153-87-194-106-187-9 3-43 15-76 26-64 23-86 21-86-9 0-22 31-47 127-106 59-35 64-37 86-22 25 16 97 154 150 287 57 142 87 296 87 443 0 133 13 128-274 120l-234-6 5 45c3 25 0 55-6 67-15 27-57 28-71 2z"/>
  </g>
</svg>
