<?xml version="1.0"?>
<svg xmlns="http://www.w3.org/2000/svg" height="200pt" preserveAspectRatio="xMidYMid meet" viewBox="0 0 200 200" width="200pt">
  <g transform="matrix(.1 0 0 -.1 0 200)">
    <path d="m777 1858c-38-21-19-52 101-171 66-64 124-117 131-117 25 0 51 21 51 42s-215 236-249 249c-10 4-25 3-34-3z"/>
    <path d="m1404 1823c-21-27-80-92-131-145-52-55-93-106-93-117 0-26 35-36 63-18 39 25 179 160 219 210 41 53 47 77 22 101-24 25-39 19-80-31z"/>
    <path d="m376 1794c-33-32-19-50 119-148 152-109 160-113 180-96 23 19 18 54-12 82-34 32-250 178-262 178-5 0-17-7-25-16z"/>
    <path d="m800 1393c-104-4-608-42-648-49-52-8-57-34-34-150 12-54 24-127 28-161 8-77 30-103 70-84 26 12 27 13 20 79s-32 199-43 228c-4 11 7 14 58 14 35 0 141 7 234 16 114 10 356 17 737 21l568 6-45-69c-50-76-56-117-19-122 33-5 184 180 184 225 0 22-6 36-19 43-18 9-873 12-1091 3z"/>
    <path d="m1000 1148c-11-18-38-72-61-119l-41-85-174-18c-226-23-244-28-244-67 0-44 25-48 170-32 69 7 139 12 157 11l31-3-69-119c-92-159-165-266-236-349-96-114-96-113-88-136 3-11 18-24 33-28 22-5 33 2 84 56 101 108 195 246 337 497 48 85 54 92 89 98 67 11 482 7 482-5 0-64-106-367-173-492-27-51-100-127-121-127-4 0-33 18-63 40-82 58-124 49-89-19 20-38 130-131 156-131 25 0 134 93 170 145 76 111 220 512 220 612-1 68-24 73-320 73h-249l39 86c43 92 47 113 28 132-21 21-48 13-68-20z"/>
  </g>
</svg>
