<?xml version="1.0"?>
<svg xmlns="http://www.w3.org/2000/svg" height="200pt" preserveAspectRatio="xMidYMid meet" viewBox="0 0 200 200" width="200pt">
  <g transform="matrix(.1 0 0 -.1 0 200)">
    <path d="m430 1809c-8-13-10-75-8-176l3-156-100-22c-176-40-236-72-206-109 18-22 43-20 153 9 154 40 479 85 622 85 61 0 96 20 96 55 0 18-7 26-27 32-26 6-399-22-427-33-13-5-26 111-26 238 0 33-5 68-10 79-14 26-56 25-70-2z"/>
    <path d="m1328 1763c-1-5-2-96-2-203l-1-194-97-13c-138-19-172-31-176-66-2-18 2-29 13-33 9-4 71 1 136 11 66 10 122 16 124 13 9-9-17-198-51-368-46-235-91-374-170-525-60-117-64-129-51-148 8-12 25-22 38-22 20 0 34 19 91 125 66 123 109 238 147 395 32 128 72 363 78 452 3 44 9 87 14 94 8 13 363 48 375 37 10-10 20-413 13-513-8-106-36-256-64-340-25-74-94-215-105-215-5 0-32 14-58 30-27 17-57 30-66 30-22 0-21-49 2-75 35-41 115-105 132-105 55 0 169 232 216 439 39 173 46 280 34 526-12 265-15 281-43 299-22 14-136 11-354-9l-83-8v76c0 98-18 275-31 299-9 17-57 26-61 11z"/>
    <path d="m666 1278c-20-28-15-36 86-135 94-93 132-117 160-102 40 21 22 53-92 158-61 55-117 101-124 101-8 0-22-10-30-22z"/>
    <path d="m308 1228c-9-7-23-39-32-71-9-31-37-96-62-143s-44-96-42-107c4-31 44-34 73-7 33 31 92 153 112 232 17 64 17 67-1 87-22 24-27 25-48 9z"/>
    <path d="m646 1038c-2-7-13-54-25-104-12-51-30-116-40-145l-18-54-74 150c-66 134-77 150-101 153-22 3-29-2-34-23-7-29 23-104 112-274l54-105-62-108c-79-139-136-208-223-275-71-54-88-79-63-94 63-40 211 77 320 253 90 146 75 141 135 51 78-119 204-265 259-302 57-38 107-40 112-5 2 15-14 36-59 75-74 64-217 240-276 338l-42 70 24 65c30 81 75 255 75 293 0 16-5 34-12 41-16 16-58 15-62 0z"/>
  </g>
</svg>
