<?xml version="1.0"?>
<svg xmlns="http://www.w3.org/2000/svg" height="200pt" preserveAspectRatio="xMidYMid meet" viewBox="0 0 200 200" width="200pt">
  <g transform="matrix(.1 0 0 -.1 0 200)">
    <path d="m1060 1940c-167-25-398-71-419-85-16-9-13-51 5-66 13-11 39-8 157 15 180 35 328 55 325 45-2-5-32-49-67-99l-64-90-43 40c-24 22-50 40-58 40-19 0-46-27-46-47 0-22 200-223 221-223 23 0 48 36 42 60-3 10-15 28-28 40l-24 22 40 55c78 104 159 238 159 259 0 29-26 54-53 53-12-1-78-9-147-19z"/>
    <path d="m1091 1459c-62-5-204-20-315-34-153-19-205-29-218-43-16-16-16-30 8-252 33-308 31-298 56-311 20-11 218-1 341 17l37 6v-59c0-32-4-63-8-69-4-7-87-17-211-25-174-12-205-17-215-31-8-13-8-23 0-35 10-16 31-18 208-17l197 2-7-32c-12-56-83-179-161-280-141-179-136-171-124-195 21-38 54-26 118 43 129 141 233 311 255 418l12 57 60 5c34 3 135 8 226 11 91 4 173 9 184 12 17 5 18 1 12-63-15-144-76-394-96-394-5 0-20 5-34 11-28 13-56-1-56-27s80-94 111-94c25 0 33 8 62 68 53 106 107 354 107 493 0 106 12 102-299 87l-261-13v66 66l68 6c37 4 115 7 173 7 152 0 148-5 147 220 0 96 3 209 7 250 9 100-3 117-95 130-74 11-127 11-289-1zm260-85 36-6-5-77c-2-42-7-79-11-82-3-4-79-9-168-12l-162-6-6 42c-3 23-6 62-8 87l-2 45 80 6c122 8 206 9 246 3zm-408-108c4-43 6-80 4-82-8-9-280-34-287-27-12 12-24 163-14 164 5 0 52 6 104 14 52 7 115 13 140 12l45-2zm431-192c3-26 6-64 6-84v-37l-157-5c-87-3-160-4-162-2s-6 37-9 78l-5 74 64 6c35 4 91 8 124 9 33 2 76 4 96 5 36 2 36 2 43-44zm-411-61c2-43 3-80 0-83-4-4-215-28-259-29-20-1-22 6-29 75-4 41-4 78 0 82 6 6 180 28 246 31l36 1z"/>
  </g>
</svg>
