<?xml version="1.0"?>
<svg xmlns="http://www.w3.org/2000/svg" height="200pt" preserveAspectRatio="xMidYMid meet" viewBox="0 0 200 200" width="200pt">
  <g transform="matrix(.1 0 0 -.1 0 200)">
    <path d="m236 1665c-10-10-16-33-16-62 0-45-42-165-81-231-23-39-24-56-5-71 39-33 107 50 152 187 26 79 28 82 58 83 17 0 66 4 109 7 53 5 77 4 77-3 0-21-32-120-50-155-10-19-37-58-60-87-36-44-48-52-87-58-81-12-158-35-170-52-7-9-13-35-13-57 0-62 56-317 71-327 8-4 31-11 51-14l38-7v-84c0-100-21-170-86-292-50-93-53-125-13-130 36-4 71 40 124 153 54 114 65 162 65 274v91h70 70l-7-42c-12-64-8-242 6-334 18-113 45-161 112-202 142-86 298-92 884-31 226 23 281 33 289 54 3 8 8 86 12 173 6 134 5 159-8 170-41 33-61-12-78-173-6-55-14-102-18-106s-29-9-57-12c-27-2-102-10-165-16-459-47-588-52-700-25-81 19-144 55-159 91-31 78-50 304-32 397 6 33 13 61 15 64 3 2 41 6 85 9 56 4 85 11 95 22 10 12 15 67 21 218 7 199 6 202-16 224-20 20-28 21-108 15-47-3-110-9-139-13l-53-6 30 49c33 54 81 207 81 259 0 60-18 68-134 58-125-10-206-10-227 0-11 5-22 2-33-8zm507-572c-3-82-6-149-7-150 0 0-42-4-92-8l-92-7-6 48c-10 73-24 239-21 242s146 19 191 21l32 1zm-288-104 7-66-86-9-85-9-21 90c-11 49-23 109-26 132-7 48-13 45 116 66l75 13 6-76c4-41 10-105 14-141z"/>
    <path d="m1261 1651c-16-11-29-87-30-181-1-36-4-88-7-116l-7-52-100-13c-81-11-102-18-114-35-12-19-11-24 5-44 19-23 21-23 102-12 46 7 86 10 89 7 7-7-45-218-77-315-13-41-56-140-94-219-67-139-75-171-44-171 34 0 86 64 141 172 71 137 97 213 139 398l33 145 49 6c27 3 97 9 155 13l106 7 7-47c11-85 6-198-14-288-20-89-114-316-132-316-5 0-20 7-33 16-29 19-55 6-55-29 0-28 75-97 105-97 34 0 43 12 113 156 93 194 106 251 107 470 0 242 11 229-187 220-81-4-161-9-178-12l-30-7 6 160c6 142 5 160-10 176-20 19-25 20-45 8z"/>
  </g>
</svg>
