<?xml version="1.0"?>
<svg xmlns="http://www.w3.org/2000/svg" height="200pt" preserveAspectRatio="xMidYMid meet" viewBox="0 0 200 200" width="200pt">
  <g transform="matrix(.1 0 0 -.1 0 200)">
    <path d="m1120 1831c-5-11-10-29-10-40 0-40-38-121-100-211-80-118-97-157-77-177 23-23 48-8 101 62 27 36 50 65 52 65s16-21 31-47c15-27 56-83 91-126l63-79-28-36c-15-21-70-80-123-133-69-69-117-108-175-140-66-37-80-49-80-69 0-34 35-37 106-11 79 30 180 111 276 222l85 97 97-84c161-143 338-254 403-254 32 0 59 25 51 47-3 8-31 26-61 40-92 40-308 199-421 308-11 11-3 30 54 120 59 94 110 193 129 248 4 11 16 17 38 17 18 0 57 3 86 7 43 5 56 11 64 29 26 57-40 67-253 39-103-14-296-48-342-62-16-4-17-2-9 14 22 40 35 129 23 151-15 28-57 29-71 3zm370-206c0-13-47-97-103-183l-60-94-33 39c-68 78-136 183-122 188 7 2 69 15 138 29 125 24 180 31 180 21z"/>
    <path d="m447 1805c-268-40-296-50-283-99 8-31 32-36 103-20 70 15 330 54 367 54 14 0 26-3 26-6 0-10-144-224-151-224-4 0-23 20-43 44-40 49-69 64-91 46-29-24-14-55 66-150 45-52 97-116 116-142 41-56 76-64 95-23 11 25 3 44-61 126l-21 26 33 44c41 54 185 273 193 293 3 8 1 24-6 35-10 19-19 21-98 20-48 0-158-11-245-24z"/>
    <path d="m655 1189c-177-28-408-81-514-117-62-21-82-43-65-69 16-26 60-22 204 19 69 19 140 38 159 42 33 6 33 6 27-25-8-41-101-279-139-354-47-94-100-166-169-229-73-68-80-78-72-100 12-31 68-19 124 25 90 71 174 200 245 376l43 107 6-60c15-146 24-389 18-499l-7-120-32 3c-24 2-34-2-43-17-9-18-5-27 31-66 44-48 85-59 108-31 45 55 39 680-10 950-6 32-9 59-7 61 6 5 230 37 233 33 3-2-23-40-55-83-64-86-76-125-37-125 27 0 234 210 244 248 17 67-35 73-292 31z"/>
    <path d="m1322 992c-7-5-17-37-23-73-5-35-14-80-19-99l-10-35-157-19c-185-21-203-27-203-60 0-45 18-49 150-32 67 9 137 16 155 16h34l-15-52c-23-85-124-272-196-369-68-89-78-115-56-137 28-28 55-13 116 66 97 125 187 302 227 445l17 57 201-2 202-3 3-130c2-72-2-159-8-195-10-57-39-167-47-179-1-2-20 8-42 23-72 50-120 13-63-49 77-83 131-105 164-67 20 22 64 175 79 272 15 100 8 345-12 385l-14 30-224 3c-207 2-222 4-216 20 4 9 9 50 12 89 7 89-12 122-55 95z"/>
  </g>
</svg>
