<?xml version="1.0"?>
<svg xmlns="http://www.w3.org/2000/svg" height="200pt" preserveAspectRatio="xMidYMid meet" viewBox="0 0 200 200" width="200pt">
  <g transform="matrix(.1 0 0 -.1 0 200)">
    <path d="m1656 1883c-4-5-14-21-21-38-7-16-42-70-79-119-72-96-81-129-35-134 21-2 38 10 92 68 82 89 125 170 109 205-11 25-49 34-66 18z"/>
    <path d="m1320 1865c-10-12-12-61-11-189l2-173-83-6c-46-4-102-7-125-7-34 0-46-5-58-24-19-29-10-54 22-62 14-4 72-3 129 0l105 7-7-28c-4-15-16-53-28-83l-21-55-115-7c-127-7-229-23-243-37-13-13-4-52 15-65 12-7 41-7 100 2 98 14 188 16 188 4 0-18-141-220-224-322-46-58-101-116-122-130-45-30-62-63-44-85 25-30 76-13 146 51 72 65 249 305 323 435 35 64 43 69 109 69 44 0 48-2 70-40 64-113 244-280 379-351 95-51 108-54 133-29 30 30 16 47-88 109-49 29-115 74-146 100-63 51-198 200-192 210 3 4 69 8 147 9 116 2 146 5 161 19 22 20 23 37 2 57-13 13-45 16-194 16h-178l-26 65c-14 36-26 71-26 79 0 14 79 26 177 26 66 0 93 13 93 44 0 44-20 50-159 43l-128-6-6 164c-3 90-11 173-17 184-13 25-42 27-60 6zm49-614c-15-5-22 6-14 19 6 9 10 9 16-1 5-8 4-15-2-18z"/>
    <path d="m1038 1839c-31-18-20-52 48-141 68-92 96-118 127-118 46 0 27 59-56 170-83 112-82 111-119 89z"/>
    <path d="m380 1738c-96-5-179-13-184-18-6-6-5-50 2-117 18-166 25-626 13-823-6-96-22-256-36-354-31-224-32-271-5-286 14-8 26-8 40 0 21 11 25 24 35 105 3 28 16 131 30 230 13 99 27 258 31 353l7 172h178 179v-361-361l-30 26c-37 31-60 25-60-16 0-42 63-104 114-113 69-13 69-14 67 302-1 153 3 494 8 758 9 432 8 482-6 498-18 20-81 20-383 5zm306-100c-3-13-6-60-6-105v-83h-58c-32 0-112-7-177-15-66-8-125-15-131-15-7 0-13 36-17 93-4 50-10 102-13 114-6 22-5 22 117 26 68 1 162 4 208 5 82 2 83 2 77-20zm-8-410-3-133-181-3-181-2-5 117c-3 65-5 119-4 120 4 5 250 31 309 32l68 1z"/>
    <path d="m1356 984c-11-10-16-34-16-72 0-31-3-74-6-94l-7-38h-113c-103 0-114-2-124-20-26-49 20-70 153-70 49 0 67-4 67-13 0-50-87-247-145-328-51-72-57-86-45-109 14-26 54-26 80 0 59 59 154 244 191 373l22 77h42c23 0 76 3 118 6l77 7v-99c0-57-8-143-20-204-11-58-20-106-20-108s-19 10-42 26c-88 60-128 70-128 34 0-26 97-130 141-152 85-44 102-24 135 156 21 114 25 163 22 271-3 121-5 134-25 155-22 21-24 21-125 10-57-7-117-12-134-12h-31l5 88c5 96-5 132-38 132-10 0-26-7-34-16z"/>
  </g>
</svg>
