<?xml version="1.0"?>
<svg xmlns="http://www.w3.org/2000/svg" height="200pt" preserveAspectRatio="xMidYMid meet" viewBox="0 0 200 200" width="200pt">
  <g transform="matrix(.1 0 0 -.1 0 200)">
    <path d="m1315 1918c-2-7-9-56-15-108s-12-95-13-96-51-9-111-18c-114-17-136-26-136-57 0-35 35-42 132-29 49 6 92 9 96 6 11-12-50-266-65-266-3 0-28 14-55 31-53 32-84 34-101 8-16-26-2-46 68-90 56-35 65-44 59-63-14-43-84-187-103-213-38-48-16-95 37-77 34 12 58 49 107 160 22 49 40 91 41 93 2 1 13-4 26-13 29-21 65-20 76 1 13 23-2 54-39 78-34 23-34 25-13 96 9 30 27 103 39 164l22 110 34 7c19 4 69 10 112 14 58 5 77 4 77-6 0-7-16-71-36-144-62-224-63-233-43-328 9-39 21-62 46-85 40-38 77-49 198-58 81-6 93-5 115 13 24 20 24 20 12 102-13 91-32 130-62 130-22 0-24-9-21-92l3-58h-59c-69 0-120 15-132 39-20 36-23 108-7 167 51 194 85 313 97 342 22 54 6 67-82 67-41 0-111-4-157-8l-84-9 7 80c8 91-2 122-41 122-13 0-27-6-29-12z"/>
    <path d="m486 1894c-3-9-6-42-6-74v-58l-72-17c-91-22-118-38-118-71 0-38 31-43 116-21 41 11 76 18 78 16 3-2 6-35 7-73l2-69-139-41c-167-50-184-59-184-91 0-44 28-47 130-14 52 16 95 29 97 29s3-9 3-20c0-27-63-95-117-127-32-18-43-31-43-49 0-72 159-6 215 90 14 23 28 63 31 89l7 46 89 20c108 25 98 25 98 1 0-28 23-70 54-99 47-44 165-36 174 13 6 27-10 37-64 41-51 3-84 29-84 65 0 14 14 20 75 29 42 6 88 11 103 11 34 0 52 16 52 47 0 51-48 52-279 7-69-13-126-23-127-21-1 1-4 34-6 72l-3 70 112 25c62 14 118 30 124 37 16 16 3 60-19 67-9 3-63-5-119-17l-102-23-5 20c-3 12-6 35-6 52 0 16-5 35-12 42-17 17-55 15-62-4z"/>
    <path d="m527 1338c-12-6-17-22-17-58 0-82-10-95-81-110-72-16-105-40-90-69 15-28 32-31 97-15 78 18 74 19 74-23 0-21 4-45 10-53 7-11-10-24-83-60-146-73-207-115-207-145 0-14 8-29 20-35 17-9 34-2 105 41 109 65 302 149 475 206 74 24 141 50 149 58 17 17 6 52-19 60-24 8-136-23-265-74l-100-39-3 45c-2 25-1 47 2 50 2 2 40 14 83 25 95 24 125 42 121 71s-55 34-136 13c-33-9-63-16-66-16s-6 24-6 53c0 28-4 57-8 63-11 17-37 23-55 12z"/>
    <path d="m830 884c-6-14-10-36-10-48 0-13-3-38-6-55-6-28-12-33-78-52-219-64-235-70-241-90-8-25 11-49 39-49 11 0 69 14 128 32 60 17 110 29 113 26 11-11-39-106-105-199-86-121-156-197-243-266-57-46-68-59-65-81 11-93 180 28 340 242 94 126 133 195 162 283 10 29 25 54 34 57 55 17 336 67 440 79l123 13 6-24c10-42-6-232-31-352-14-72-35-139-56-180-18-36-34-67-35-68-2-2-21 8-42 22-94 64-107 4-18-86 72-73 103-60 170 74 58 117 93 277 101 463 7 151-1 201-36 226-24 16-33 16-177-1-139-17-390-62-430-77-14-5-15 1-10 42 7 65-5 95-38 95-18 0-28-7-35-26z"/>
  </g>
</svg>
