<?xml version="1.0"?>
<svg xmlns="http://www.w3.org/2000/svg" height="200pt" preserveAspectRatio="xMidYMid meet" viewBox="0 0 200 200" width="200pt">
  <g transform="matrix(.1 0 0 -.1 0 200)">
    <path d="m605 1874c-11-12-13-31-9-87l7-72-113-24c-92-20-113-22-120-11-9 14-30 123-30 152 0 28-27 42-55 30-22-10-25-18-25-60 0-26 6-71 13-100 16-59 23-53-86-72-62-11-97-29-97-49 0-4 6-15 13-26 13-16 20-17 92-6 43 6 88 14 101 17 19 5 26-1 48-44 48-95 93-131 124-100 18 18 15 31-24 98-20 33-35 62-33 64 8 7 184 44 188 40 3-2 0-45-5-95-12-118 5-148 55-95 17 18 24 43 33 118l11 96 73 12c82 13 104 32 83 71-10 20-17 21-74 16-34-3-68-7-76-9-10-2-16 12-20 52-3 30-9 62-13 72-10 23-43 29-61 12z"/>
    <path d="m1287 1818c-2-7-2-67 1-134 3-66 2-149-2-185l-7-64-140-21c-88-14-147-27-156-37-17-16-10-52 11-60 7-3 72 4 145 15 72 12 134 18 138 15 9-9-14-373-33-516-16-119-78-411-114-536-11-38-20-86-20-106 0-74 62-78 80-6 7 23 22 83 35 132 87 325 135 667 135 957 0 83 1 88 23 92 12 2 103 16 202 31 99 14 191 29 204 32l24 6-6-229c-4-126-18-359-32-519-14-159-25-318-25-352 0-40-4-63-11-63-18 0-130 71-171 108-37 34-68 38-68 9 0-27 60-97 127-146 37-28 83-62 102-76 37-27 73-32 89-12 5 6 13 66 16 132 4 66 18 255 31 420 26 319 42 734 31 778-4 16-15 29-29 32-12 3-103-7-202-24-99-16-205-33-236-36l-56-7-6 114c-4 62-7 139-7 171s-5 67-10 78c-12 21-56 26-63 7z"/>
    <path d="m650 1305c-94-15-281-58-325-75-20-7-31-8-39 0-15 15-42 12-57-6-10-12-10-24-1-57 7-23 21-85 32-137s22-105 25-116c7-33 30-36 126-18 49 9 96 14 104 10 11-4 15-21 15-59v-53l-73-18c-82-19-97-29-97-63 0-39 31-40 158-7 22 6 22 5 22-89v-95l-62-19c-56-16-63-22-66-46-4-35 17-43 78-31l48 10 6-59c6-64 8-157 3-157-2 0-73-15-157-34-159-36-193-52-174-84 18-29 62-25 310 27 132 27 293 59 359 70 84 15 124 26 132 38 17 22 16 28-3 47-21 21-44 20-219-13-82-16-151-27-153-26s-6 50-9 108l-6 104 63 11c68 12 90 25 90 52 0 31-26 43-76 35-26-3-53-9-60-12-11-4-14 13-14 90v95l67 7c91 10 113 19 113 49 0 43-21 50-106 36-42-6-78-10-80-7-3 3-8 29-11 59l-5 55 62 6c35 4 84 7 111 7 88 0 95 7 102 97 3 43 9 118 13 167 6 80 5 90-11 102-24 17-121 17-235-1zm156-126c-3-34-6-81-6-104v-43l-72-7c-40-3-85-8-99-11-31-6-34 2-45 117l-7 77 69 11c72 11 116 17 148 20 17 1 18-4 12-60zm-301-80c3-50 5-92 3-95-5-5-142-33-145-30-8 7-35 167-30 172 6 6 132 41 153 43 7 1 14-33 19-90z"/>
  </g>
</svg>
