<?xml version="1.0"?>
<svg xmlns="http://www.w3.org/2000/svg" height="200pt" preserveAspectRatio="xMidYMid meet" viewBox="0 0 200 200" width="200pt">
  <g transform="matrix(.1 0 0 -.1 0 200)">
    <path d="m666 1858c-10-6-35-48-57-95-114-249-254-459-407-611-85-85-112-119-110-135 3-24 26-32 62-23 28 7 144 112 208 189l48 58v-560c0-495 2-561 16-575 8-9 24-16 33-16 46 0 46-5 46 664v631l48 78c54 89 112 203 151 295 20 47 24 67 17 81-14 25-33 31-55 19z"/>
    <path d="m1029 1743c-7-18-9-194-6-513 3-465 4-492 30-665 36-240 59-304 138-390 80-86 180-109 479-110 232 0 254 4 266 51 6 25-30 357-42 389-10 25-43 18-50-11-4-15-4-95-2-180l6-153-57-7c-68-8-315 2-396 17-80 14-124 41-163 97-57 85-59 91-102 414-23 173-26 288-7 288 20 0 235 103 331 158 110 64 228 149 307 220 48 44 59 60 57 81-5 43-46 40-102-8-122-106-294-215-513-325l-91-45-4 342c-2 188-8 350-12 360-13 28-55 22-67-10z"/>
  </g>
</svg>
