<?xml version="1.0"?>
<svg xmlns="http://www.w3.org/2000/svg" height="200pt" preserveAspectRatio="xMidYMid meet" viewBox="0 0 200 200" width="200pt">
  <g transform="matrix(.1 0 0 -.1 0 200)">
    <path d="m570 1725c-9-11-11-65-9-207l4-193-190-53c-104-30-196-59-203-65-7-5-12-22-10-36 5-41 48-38 235 14 91 25 167 44 168 43 2-2 6-156 10-343 3-187 8-350 11-362 4-20-7-28-78-64-121-61-255-138-285-163-19-16-24-28-19-44 13-40 41-36 136 18 49 28 178 94 287 147 260 126 340 180 326 221-8 22-40 13-155-43-111-55-113-56-119-33-3 13-9 167-13 343-12 542-23 805-37 821-15 18-43 18-59-1z"/>
    <path d="m1101 1632c-18-15-21-35-31-170-16-246-13-823 6-902 28-120 89-191 188-218 73-19 397-28 521-13 75 9 105 17 120 31 20 20 20 21-2 127-23 114-41 146-67 123-12-9-16-33-16-100v-87l-77-7c-189-16-445 1-497 33-76 47-96 132-96 406v205h28c32 0 131 59 328 197 71 49 155 107 187 129s60 49 63 62c7 27-11 52-37 52-17 0-193-117-478-317l-94-66 8 255c7 250 7 256-13 267-16 8-25 7-41-7z"/>
  </g>
</svg>
