<?xml version="1.0"?>
<svg xmlns="http://www.w3.org/2000/svg" height="200pt" preserveAspectRatio="xMidYMid meet" viewBox="0 0 200 200" width="200pt">
  <g transform="matrix(.1 0 0 -.1 0 200)">
    <path d="m266 1714c-20-19-18 19-20-524-2-346-6-489-19-595-9-77-18-166-21-197-8-95 19-110 162-91 380 48 892 56 1210 19 120-14 156-15 167-6 19 16 19 54 1 70-8 6-95 20-193 31-314 33-877 23-1163-21-100-15-94-19-87 58 4 37 12 108 19 157 8 61 12 242 12 558l1 468 637-1c350-1 642 1 648 5 18 11 11 53-12 69-20 14-101 16-675 16-579 0-653-2-667-16z"/>
    <path d="m1485 1512c-6-4-29-32-52-62s-101-113-173-185l-131-130-82 85c-45 47-119 125-163 173-71 77-85 88-110 85-23-2-30-9-32-30-3-27 64-109 246-299l73-77-58-54c-122-116-275-242-384-316-80-55-114-84-114-97 0-17 6-20 41-18 96 4 237 102 518 361l60 54 30-38c17-21 66-79 109-128 44-50 103-123 132-161 66-88 79-99 109-91 30 7 39 31 24 59-20 38-89 129-167 220-42 49-97 114-123 145l-46 57 142 145c151 154 206 224 206 262s-30 59-55 40z"/>
  </g>
</svg>
