<?xml version="1.0"?>
<svg xmlns="http://www.w3.org/2000/svg" height="200pt" preserveAspectRatio="xMidYMid meet" viewBox="0 0 200 200" width="200pt">
  <g transform="matrix(.1 0 0 -.1 0 200)">
    <path d="m266 1714c-20-19-18 19-20-524-2-346-6-489-19-595-9-77-18-166-21-197-8-95 19-110 162-91 380 48 892 56 1210 19 120-14 156-15 167-6 19 16 19 54 1 70-8 6-95 20-193 31-314 33-877 23-1163-21-100-15-94-19-87 58 4 37 12 108 19 157 8 61 12 242 12 558l1 468 637-1c350-1 642 1 648 5 18 11 11 53-12 69-20 14-101 16-675 16-579 0-653-2-667-16z"/>
    <path d="m692 1508c-7-7-12-35-12-63 0-118-69-302-150-399-43-51-47-65-28-84 40-40 123 30 184 157 21 44 41 78 45 76 3-2 45 3 93 11 48 9 94 13 101 10 25-9 30-156 6-194-4-7-56-22-115-34-109-22-136-35-136-67 0-39 24-45 116-27 47 10 88 16 90 14s-15-40-36-85c-29-60-58-99-107-147-36-36-70-66-75-66-4 0-8-11-8-25 0-37 38-52 79-31 60 31 135 119 185 215l47 91 87-80c172-158 302-233 407-234 47-1 50 0 53 27 3 24-2 30-45 48-157 67-212 100-320 192-107 93-129 114-121 122 2 2 61 8 131 14 71 5 135 15 143 22 21 17 17 57-7 70-16 8-50 8-133 0-62-6-118-11-125-11-10 0-12 11-7 43 3 23 2 67-3 97s-8 56-6 58c1 1 58 7 126 11 144 11 157 15 166 49 10 42-18 54-112 47-152-12-379-36-417-44l-38-9 8 42c11 65 8 162-7 180-16 19-42 21-59 4z"/>
  </g>
</svg>
