<?xml version="1.0"?>
<svg xmlns="http://www.w3.org/2000/svg" height="200pt" preserveAspectRatio="xMidYMid meet" viewBox="0 0 200 200" width="200pt">
  <g transform="matrix(.1 0 0 -.1 0 200)">
    <path d="m930 1910c-6-11-8-25-5-30s15-128 25-273c11-145 24-317 30-382s9-119 8-120c-2-2-100-8-218-14-195-11-621-54-662-67-25-8-33-43-14-62 15-15 31-15 194 2 283 28 360 35 534 42l165 7 6-69c4-38 7-114 7-169 0-89 17-377 36-627 8-96 24-126 63-113 31 10 35 44 23 199-15 188-30 447-36 634l-5 152 252 3c139 1 326 2 416 2 155 0 164 1 177 21 13 19 12 24-3 43l-18 22-412-3-412-3-6 60c-13 148-34 398-40 485-8 120-24 240-36 263-13 24-56 22-69-3z"/>
  </g>
</svg>
