<?xml version="1.0"?>
<svg xmlns="http://www.w3.org/2000/svg" height="200pt" preserveAspectRatio="xMidYMid meet" viewBox="0 0 200 200" width="200pt">
  <g transform="matrix(.1 0 0 -.1 0 200)">
    <path d="m1232 1890c-85-80-328-206-591-306-130-50-155-70-113-93 35-19 213 30 375 103l57 26v-98c0-53 3-174 7-269l6-171-54-6c-30-4-155-18-279-31-312-35-520-71-544-94-21-22-15-56 12-63 10-3 83 5 162 18 80 13 251 35 380 49s256 27 281 30l47 5 6-167c11-284 28-615 34-677 5-45 12-62 29-73 19-13 24-12 43 7 18 18 21 30 17 59-3 20-11 153-17 296s-14 326-18 407l-7 147 50 5c74 7 593 44 715 51 57 4 110 11 117 17 21 17 15 46-12 64-29 19-96 17-510-16-132-11-268-21-302-23l-61-3-6 175c-3 97-8 226-10 288l-4 112 82 45c152 83 240 171 216 216-17 32-51 23-108-30z"/>
  </g>
</svg>
