<?xml version="1.0"?>
<svg xmlns="http://www.w3.org/2000/svg" height="200pt" preserveAspectRatio="xMidYMid meet" viewBox="0 0 200 200" width="200pt">
  <g transform="matrix(.1 0 0 -.1 0 200)">
    <path d="m921 1862c-6-11-6-66-1-147 5-72 9-171 10-221v-90l-176-37c-97-20-182-41-190-48-21-18-17-58 6-67 13-5 86 6 186 26 91 19 168 32 170 29 3-2 2-88-2-190l-7-185-46-7c-25-3-167-31-316-61-260-52-295-63-295-95 0-14 31-39 48-39 9 0 141 25 292 55s284 55 296 55c21 0 21-4 28-312 5-190 12-318 18-325 18-23 58-15 68 12 6 15 7 147 3 333l-6 309 49 6c108 15 349 27 531 27 105 0 198 3 207 6 10 4 16 18 16 35 0 22-6 32-26 39-48 19-498 9-712-16l-62-7 2 189 3 188 35 7c19 4 107 15 195 23 88 9 170 18 181 21 44 10 36 69-10 81-20 5-239-15-362-32l-41-6-6 204c-3 112-11 216-16 231-12 32-55 37-70 9z"/>
    <path d="m1174 1674c-68-69-124-133-124-143 0-23 19-41 44-41 29 0 256 235 256 264 0 25-17 46-38 46-7 0-69-57-138-126z"/>
    <path d="m458 1639c-25-14-22-46 5-63 33-22 267-87 288-81 28 9 34 44 13 65-11 10-77 34-149 54-147 41-134 39-157 25z"/>
  </g>
</svg>
