<?xml version="1.0"?>
<svg xmlns="http://www.w3.org/2000/svg" height="200pt" preserveAspectRatio="xMidYMid meet" viewBox="0 0 200 200" width="200pt">
  <g transform="matrix(.1 0 0 -.1 0 200)">
    <path d="m815 1900c-16-18-17-31-10-127 14-185 19-166-50-175-219-29-413-62-432-74-13-8-23-23-23-34 0-37 31-41 162-21 343 54 630 81 866 81 107 0 191 4 203 10 10 6 19 21 19 34 0 47-12 49-278 42-136-3-272-9-303-12-68-7-66-11-75 151-8 137-33 176-79 125z"/>
    <path d="m1246 1515c-9-9-16-31-16-48 0-53-37-166-90-275-55-114-60-138-30-147 33-10 64 17 103 93l37 71 63-38c109-67 167-92 200-89 28 3 32 7 32 32 0 26-10 34-115 92-63 36-123 67-133 71-13 4-17 12-12 27 3 11 13 53 21 93 13 61 14 76 2 100-16 33-40 40-62 18z"/>
    <path d="m563 1448c-4-7-13-44-20-82-16-94-70-199-143-278-33-36-60-71-60-77 0-17 39-33 63-25 12 4 33 15 47 26 22 18 90 101 109 136 7 12 18 8 67-25 111-75 151-95 186-91 59 6 44 59-27 95-16 9-64 38-106 64l-76 49 13 52c17 65 18 140 2 156s-45 15-55 0z"/>
    <path d="m935 1018c-13-19-14-39-9-105l7-82-34-5c-19-3-104-17-189-30-267-43-543-96-557-107-19-16-16-57 5-68 11-6 85 3 232 30 317 57 533 90 541 81 11-13 31-316 31-473-1-118 3-159 14-176 17-27 36-29 58-7 22 21 22 293 0 508-8 87-14 159-12 161 11 10 339 25 560 25 279 0 288 1 288 47 0 44-21 46-384 39-188-3-371-9-408-12l-68-6v79c0 109-35 157-75 101z"/>
  </g>
</svg>
