<?xml version="1.0"?>
<svg xmlns="http://www.w3.org/2000/svg" height="200pt" preserveAspectRatio="xMidYMid meet" viewBox="0 0 200 200" width="200pt">
  <g transform="matrix(.1 0 0 -.1 0 200)">
    <path d="m1182 1918c-7-7-12-41-12-84v-72l-72-12c-123-19-153-31-156-62-5-39 25-52 91-39 120 22 117 22 117-1 0-54-57-253-101-353-53-119-57-136-34-155 12-10 21-10 41-1 52 23 156 301 180 480 4 28 12 55 18 59 11 9 189 32 245 32 33 0 32 17 10-175-11-98-54-255-70-255-4 0-11 5-14 10-10 16-52 12-59-6-10-25-8-32 25-69 36-40 84-48 113-17 48 54 96 254 111 468 9 124 3 134-78 134-34 0-101-5-147-10-150-18-134-23-131 42 1 31-3 66-9 77-12 23-49 28-68 9z"/>
    <path d="m405 1887c-13-20-14-42-6-143 6-65 13-191 17-279l7-160-159-29c-88-15-165-33-172-38-16-14-15-53 2-67 10-9 46-6 151 14 177 33 171 33 179-12 3-21 6-258 6-526 0-317 4-495 10-508 13-23 52-25 70-4 10 12 12 128 8 554l-5 538 60 7c33 3 85 6 116 6 69 0 127 15 135 35 7 20-3 44-23 54-15 8-252-4-278-13-8-3-13 28-18 102-20 341-33 475-46 483-23 14-38 10-54-14z"/>
    <path d="m1519 1079c-12-6-19-30-24-79-4-38-8-70-9-70s-29-5-62-11c-118-21-146-38-124-79 17-33 33-33 158-5 20 5 22 2 22-43 0-120-17-164-165-435-32-60-36-72-26-94 9-19 17-24 38-21 30 3 65 58 163 248 58 115 69 152 78 272l7 93 70 12c39 6 84 12 101 12 30 1 31-1 47-71 33-140 23-251-39-456l-25-84-49 7c-31 4-50 3-55-5-25-40 54-104 122-98 46 4 55 20 109 193 33 107 38 135 41 255 4 115 2 147-17 220-24 94-40 125-69 135-11 3-62-1-115-10-53-8-100-15-105-15-6 0-11 25-13 56-3 62-27 92-59 73z"/>
    <path d="m823 1058c-6-7-13-44-16-82-4-38-12-73-18-77-6-3-44-14-85-24-76-18-98-32-92-61 6-32 33-39 99-26 33 7 63 11 66 9 7-7-26-181-46-247-10-32-37-91-60-131-51-88-52-122-5-127 30-3 35 2 77 72 56 92 90 197 114 350l18 117 37 9c67 19 150 31 156 25 4-4 9-49 10-100 5-114-20-292-55-397-24-74-26-77-46-63-14 10-25 11-39 4-27-14-22-44 13-84 48-54 88-47 123 24 64 126 102 347 93 544-4 70-11 136-17 147-13 25-56 26-167 5-43-8-82-15-87-15-4 0-5 20-2 43 9 58-6 97-38 97-13 0-28-6-33-12z"/>
  </g>
</svg>
