<?xml version="1.0"?>
<svg xmlns="http://www.w3.org/2000/svg" height="200pt" preserveAspectRatio="xMidYMid meet" viewBox="0 0 200 200" width="200pt">
  <g transform="matrix(.1 0 0 -.1 0 200)">
    <path d="m915 1896c-13-19-15-37-10-79l7-53-214-23c-117-12-220-26-228-30-26-14-18-54 14-70 26-12 53-11 215 8 102 12 193 21 202 21 13 0 17-17 22-90 4-49 8-95 9-101 2-9-55-19-197-36-110-12-252-31-315-42s-138-22-167-26-57-13-64-21c-13-15-10-139 10-529 17-318 31-478 43-492 6-7 21-13 34-13 41 0 47 28 35 168-5 70-13 190-16 267s-12 227-21 334c-8 106-14 194-12 195 3 2 28 6 298 46 301 44 400 50 787 50 352 0 374-1 369-17-15-53-38-387-44-655l-7-306-67 40c-157 93-117-24 45-135 61-42 88-43 109-4 7 14 14 153 19 422 5 258 13 443 23 520 20 158 20 188-2 208-17 15-59 17-398 17h-379l-2 104-1 103 231 7c178 5 237 10 255 22 26 17 28 36 5 60-16 16-39 17-260 11l-242-7-6 58c-3 31-10 64-14 72-14 26-48 24-66-4z"/>
    <path d="m1163 1248c-92-77-153-143-153-165 0-51 92-10 196 89 58 54 63 68 38 92-23 23-39 20-81-16z"/>
    <path d="m570 1210c-16-31 0-51 86-104 85-53 127-58 132-18 5 31-8 45-95 97-81 50-107 55-123 25z"/>
    <path d="m1115 1019c-207-21-451-55-513-71-44-11-66-35-56-62 10-25 37-27 127-12 47 9 115 18 151 22l66 7v-87c0-60-4-88-12-91-23-8-249-45-278-45-35 0-54-22-46-55 11-44 33-44 304 2l32 5v-136c0-125 2-136 20-146 17-9 51-2 61 13 1 1 5 65 8 142l6 140 45 7c25 4 112 10 193 14 107 5 153 11 163 21 19 19 18 38-3 59-15 15-33 16-163 10-80-3-166-9-192-12l-48-7v92c0 80 2 91 18 91 9 0 96 7 192 16 174 16 210 26 210 59 0 22-36 45-71 44-19-1-115-10-214-20z"/>
  </g>
</svg>
