<?xml version="1.0"?>
<svg xmlns="http://www.w3.org/2000/svg" height="200pt" preserveAspectRatio="xMidYMid meet" viewBox="0 0 200 200" width="200pt">
  <g transform="matrix(.1 0 0 -.1 0 200)">
    <path d="m1330 1878c-11-13-58-75-105-138-89-120-100-152-56-158 19-3 38 11 86 61 75 79 145 181 145 213 0 13-9 28-19 34-27 14-30 13-51-12z"/>
    <path d="m784 1832c-36-25-19-63 72-159 61-64 98-80 111-47 10 26-8 58-77 139-61 71-81 84-106 67z"/>
    <path d="m482 1788c-24-24-10-48 71-121 105-95 122-104 148-81 10 9 19 22 19 28s-41 50-92 99c-91 86-120 101-146 75z"/>
    <path d="m895 1463c-126-14-270-25-320-26l-90-2-3-31c-2-18 8-91 23-164 14-72 30-177 36-233 8-66 17-109 28-121 17-20 29-20 262 0l75 7 3-106 2-105-93-6c-265-19-608-61-641-78-12-6-17-18-15-36 3-27 4-27 73-26 39 0 131 8 205 17 149 19 458 43 464 36 2-2 7-111 10-243 3-131 9-242 12-247 8-13 48-11 62 3 9 9 12 79 12 254v241l153 7c83 4 277 6 430 5 175-1 282 2 289 9 5 5 8 20 6 33-7 49-21 51-465 45l-412-4-5 51c-4 29-7 75-9 102l-2 50 100 12c126 15 192 16 200 3 11-17 41-11 63 13 19 20 21 30 16 87-4 45 2 122 20 249 35 243 42 231-132 230-70-1-230-13-357-26zm415-78c0-8-5-48-11-89l-11-76-149 1h-148l-5 32c-20 128-20 125 16 131 57 10 100 13 206 14 83 2 102-1 102-13zm-426-32c7-25 19-133 15-133-121-14-268-29-280-30-12 0-19 18-28 71-7 38-11 73-8 76 9 8 175 31 239 32 46 1 58-2 62-16zm386-278v-65h-48c-27 0-86-5-131-11s-84-9-86-7c-3 2-8 37-11 76l-7 72h142 141zm-366 24c10-52 7-109-6-113-7-2-68-10-135-17l-122-14-6 40c-2 22-6 56-7 75l-3 35 105 11c172 18 167 19 174-17z"/>
  </g>
</svg>
