<?xml version="1.0"?>
<svg xmlns="http://www.w3.org/2000/svg" height="200pt" preserveAspectRatio="xMidYMid meet" viewBox="0 0 200 200" width="200pt">
  <g transform="matrix(.1 0 0 -.1 0 200)">
    <path d="m1632 1928c-31-31-14-56 89-133 107-80 140-95 164-75 31 26 17 54-47 101-173 124-183 130-206 107z"/>
    <path d="m379 1893c-11-12-15-76-17-292l-3-277-118-18c-144-21-166-31-166-71 0-39 18-41 165-16 63 11 117 17 120 15 3-3 7-258 10-567s9-570 14-579c11-25 45-33 63-15 13 13 15 74 14 423-1 225-4 487-8 582-5 144-4 172 8 172 8 0 88 7 179 15 133 12 167 18 177 32 17 22 16 38-2 53-16 13-53 12-282-6l-83-7v267c0 165-4 275-10 287-13 23-43 25-61 2z"/>
    <path d="m1234 1875c-11-17-15-40-12-75l3-50-45-5c-120-16-263-45-276-56-20-17-18-56 5-64 10-3 74 4 142 15s139 20 157 20c31 0 32-2 32-39 0-21 3-52 6-69l6-30-103-11c-158-18-177-25-185-67-3-19-1-104 5-187 6-84 11-180 11-214 0-51 4-67 21-84 11-11 27-18 35-15 24 9 494 29 557 23 92-8 88-19 85 290-3 251-4 265-23 279-16 13-43 14-150 9-71-4-138-9-147-11-17-5-19 0-32 98-3 25 0 38 9 42 8 3 67 8 132 11 174 9 201 13 213 36 8 13 7 25-1 40-11 21-15 22-138 16-69-4-150-10-178-13l-53-7v56c0 81-41 115-76 62zm356-487v-73l-78-4c-42-2-95-5-117-5l-40-1-3 72-3 72 68 4c37 2 92 4 121 5l52 2zm-328-25c2-38 3-69 3-70-1-3-208-33-210-30-1 1-5 34-9 74l-6 72 42 5c24 3 54 7 68 10 14 2 44 4 67 5l41 1zm328-218v-85h-87c-49 0-98-3-110-6-20-6-22-2-25 73-2 43-3 79-2 81 3 5 126 19 177 21l47 1zm-316 39c3-9 6-42 6-74v-58l-102-9c-57-5-104-8-104-8-1 0-4 32-8 71l-7 71 73 10c112 15 135 15 142-3z"/>
    <path d="m1482 928c-7-7-12-35-12-64v-52l-77-7c-371-33-656-65-668-75-20-16-19-44 1-61 13-11 75-7 367 19 194 18 359 32 367 32 14 0 18-35 28-232 7-128 12-247 12-265v-32l-46 19c-54 24-77 25-93 6-23-28 13-62 127-120 56-28 69-31 92-16 12 7 14 31 12 117-2 107-19 425-26 494l-4 36 172 8c94 4 177 11 184 17 19 16 14 56-8 68-14 7-73 9-184 4l-164-7-7 49c-4 27-12 55-17 62-13 15-40 16-56 0z"/>
    <path d="m1082 498c-30-30-11-55 100-131 69-48 113-49 113-3 0 26-11 37-85 88-87 60-107 67-128 46z"/>
  </g>
</svg>
