<?xml version="1.0"?>
<svg xmlns="http://www.w3.org/2000/svg" height="200pt" preserveAspectRatio="xMidYMid meet" viewBox="0 0 200 200" width="200pt">
  <g transform="matrix(.1 0 0 -.1 0 200)">
    <path d="m554 1843c-69-168-132-256-257-355-84-66-89-72-83-101 16-87 26-288 26-520v-259l30-29c19-19 36-28 47-25 20 6 350 51 451 62 87 9 120 46 70 78-26 16-74 13-351-27l-156-22-6 70c-3 38-5 124-3 190l3 120 80 17c44 9 139 24 210 33 156 20 175 26 175 59 0 41-29 49-128 36-102-13-303-47-324-55-12-5-16 14-22 112-4 65-9 127-12 138-4 15 6 27 40 48 105 66 232 234 276 365 24 72 16 102-26 102-20 0-28-8-40-37z"/>
    <path d="m1465 1629c-162-8-345-26-371-36-8-3-18-13-23-22s-10-353-12-764c-4-789-5-766 38-767 48 0 53 91 53 906v572l63 6c115 12 351 26 421 26h69l-5-360c-3-199-8-363-11-366-7-7-146 88-172 116-10 11-29 20-42 20-39 0-29-41 23-99 55-61 206-171 234-171 41 0 47 31 59 335 14 331 7 570-17 598-17 19-37 20-307 6z"/>
  </g>
</svg>
