<?xml version="1.0"?>
<svg xmlns="http://www.w3.org/2000/svg" height="200pt" preserveAspectRatio="xMidYMid meet" viewBox="0 0 200 200" width="200pt">
  <g transform="matrix(.1 0 0 -.1 0 200)">
    <path d="m568 1849c-10-5-18-15-18-20 0-20-63-154-97-208-46-72-137-167-191-198-23-14-42-29-42-34s9-50 20-100c33-148 50-331 50-539 0-161 3-200 16-218 19-28 45-28 70-1 37 42 298 208 309 197 2-2-8-46-21-98-33-133-115-293-203-400-39-46-71-90-71-97 0-13 30-33 50-33 18 0 100 82 146 146 60 84 138 252 163 349 65 258 82 473 57 698-24 217-26 221-58 225-46 5-51-27-32-191 16-137 15-390-1-457-5-19-33-40-123-90-64-36-138-79-164-97l-48-32v125c0 187-33 474-65 555-4 11 10 28 50 58 76 58 162 169 213 277 53 112 63 161 37 180-22 16-25 17-47 3z"/>
    <path d="m1550 1775c-429-67-426-65-416-175 16-163 27-494 33-953 7-534 6-526 57-513 19 5 27 15 32 43 15 81-10 1044-35 1353-4 52-7 97-5 99 7 8 484 86 488 79 1-2-1-48-5-103s-7-272-8-483l-1-383-31 16c-44 24-84 17-84-15 0-18 17-37 69-77 75-58 98-64 120-31 21 34 30 1133 9 1154-19 18-48 17-223-11z"/>
    <path d="m1362 1308c-21-21-13-44 38-102 27-31 62-75 78-99 43-61 67-80 91-72 36 11 26 55-30 131-66 89-129 154-149 154-9 0-21-5-28-12z"/>
    <path d="m442 1203c-13-25-6-40 52-108 61-72 65-75 94-75 17 0 22 6 22 28 0 33-18 61-79 125-48 50-74 58-89 30z"/>
  </g>
</svg>
