<?xml version="1.0"?>
<svg xmlns="http://www.w3.org/2000/svg" height="200pt" preserveAspectRatio="xMidYMid meet" viewBox="0 0 200 200" width="200pt">
  <g transform="matrix(.1 0 0 -.1 0 200)">
    <path d="m603 1816c-69-6-127-16-134-23-10-10-10-26 0-75 22-114 25-311 7-433-53-337-102-523-180-670-93-175-148-269-177-303-33-37-33-36-19-63 17-30 58-24 92 14 37 41 211 352 239 427 35 93 77 266 110 455 26 149 32 205 31 325 0 80-5 167-11 195-6 35-6 52 1 56 28 17 251 24 691 20 445-3 479-2 498 14 23 22 24 38 3 59-14 14-73 16-522 14-279 0-562-6-629-12z"/>
    <path d="m1155 1564c-159-13-300-26-312-29-13-3-30-16-39-29-14-23-14-35 5-147 12-68 24-154 28-192 10-112 5-110 223-98 102 6 246 11 321 11 178 0 179 1 190 131 5 52 11 148 15 215 7 115 6 122-15 143-26 26-33 26-416-5zm345-121c0-32-4-63-8-69-5-8-94-13-277-17-148-3-280-8-292-12-23-7-27-1-38 71l-6 40 273 21c150 11 290 21 311 22l37 1zm-97-173h77v-49-49l-177-6c-98-4-224-9-279-12l-102-6-4 53c-2 30-3 56-2 58 5 7 280 19 344 15 36-2 100-4 143-4z"/>
    <path d="m1110 985c-180-20-210-29-210-65 0-39 22-43 168-26 76 9 161 16 187 16 48 0 48 0 30-20-10-11-54-48-97-82s-78-69-78-77c0-9 16-38 35-65s33-51 31-53-68-10-147-18c-240-25-510-65-540-81-16-8-29-23-29-33 0-36 20-40 120-25 148 22 425 53 536 60l102 7 10-54c20-102 22-134 13-217-5-46-11-85-14-88s-22 2-42 10c-58 24-85 21-85-9 0-26 42-75 64-75 7 0 29-9 51-20 84-43 99-22 115 155 9 110 9 143-4 215-8 46-14 85-12 87 1 1 142 4 312 6 171 2 316 7 322 11 19 12 14 44-10 61-20 13-66 15-342 15l-318-2-30 53c-26 44-28 53-15 60 62 35 183 164 193 206 13 49-4 58-107 60-52 0-146-5-209-12z"/>
  </g>
</svg>
