<?xml version="1.0"?>
<svg xmlns="http://www.w3.org/2000/svg" height="200pt" preserveAspectRatio="xMidYMid meet" viewBox="0 0 200 200" width="200pt">
  <g transform="matrix(.1 0 0 -.1 0 200)">
    <path d="m1210 1739c-184-4-450-10-590-13l-255-6-13-24c-10-20-10-43-1-113 15-111 6-395-16-518-63-352-122-603-171-726-34-87-36-112-7-123 27-11 64 23 90 82 55 123 173 671 194 905 11 115 7 337-7 400l-6 27 148 1c82 1 215 4 296 8l146 6 6-44c11-77 7-161-6-161-70 0-282-23-313-34-39-14-40-16-39-58 1-37 39-352 50-414 5-30 26-36 97-25 34 5 101 13 150 17l87 6-1-138c-1-188-13-482-21-489-3-4-18 1-32 10-29 19-56 14-56-11 0-16 52-89 80-111 25-21 68-15 85 10 17 26 35 317 35 575v152h146c80 0 154 4 164 10 31 17 42 70 47 250 6 204-2 256-44 266-14 4-95 4-180 1l-153-7v48c0 26-3 71-6 100l-7 52h179c98 0 251 3 338 7 135 5 162 9 177 24 12 12 16 25 12 36-14 37 22 36-603 22zm200-424c0-52-1-55-25-55-110 0-572-36-599-46-12-4-17 7-23 48-4 29-8 58-8 63 0 12 372 41 543 44l112 1zm-6-154c3-4 3-38-1-73l-6-65-266-6c-146-4-280-9-298-13-30-6-32-4-37 27-3 19-8 50-11 69-5 33-3 35 23 36 28 0 376 22 447 28 88 6 144 6 149-3z"/>
    <path d="m722 578c-16-29-73-101-126-160-94-104-108-132-84-156 32-32 71-4 189 137 91 108 122 160 117 199-2 22-9 28-34 30-29 3-34-2-62-50z"/>
    <path d="m1353 583c-7-2-13-17-13-33 0-44 82-108 234-183 168-82 170-83 196-57 34 34 11 56-136 126-73 35-158 84-188 109-54 44-67 49-93 38z"/>
  </g>
</svg>
