<?xml version="1.0"?>
<svg xmlns="http://www.w3.org/2000/svg" height="200pt" preserveAspectRatio="xMidYMid meet" viewBox="0 0 200 200" width="200pt">
  <g transform="matrix(.1 0 0 -.1 0 200)">
    <path d="m1562 1928c-47-58-110-122-175-175-118-96-130-109-117-133 16-29 39-25 106 19 128 84 254 213 254 262 0 48-38 64-68 27z"/>
    <path d="m830 1895c-23-27-1-61 104-163 111-108 144-124 166-81 14 25 16 23-120 156-57 57-112 103-121 103s-22-7-29-15z"/>
    <path d="m367 1854c-25-25-2-61 115-185 124-130 150-147 178-114 20 24 2 52-118 178-111 116-151 144-175 121z"/>
    <path d="m1557 1474c-4-4-136-10-294-15-257-7-652-35-819-58-33-5-71-7-85-4-37 7-53-18-46-75 2-26 13-101 23-167 15-105 16-136 6-250-27-294-77-510-153-656-23-43-39-86-35-94 3-9 18-15 35-15 140 0 289 705 226 1070-9 51-14 95-11 98 18 17 596 60 985 72 178 6 333 16 343 21 20 11 24 49 6 67-13 13-169 17-181 6z"/>
    <path d="m1183 1188c-6-7-26-77-46-155-36-145-68-230-113-295-55-78 15-113 78-38l33 39 83-105c46-58 82-111 79-117-10-27-128-175-186-234-66-67-73-86-40-103 45-25 116 35 240 202l57 77 83-72c46-39 114-97 151-129 131-114 203-149 236-116 21 21 13 35-43 77-76 57-347 285-364 305-12 15-5 37 62 174 42 86 80 173 85 192 9 38 28 46 105 49 30 1 40 6 49 26 8 19 8 28-3 41-12 15-29 16-139 11-69-4-178-14-244-22-65-9-120-14-123-11-3 2 2 36 11 75 21 92 20 118-3 131-26 13-36 13-48-2zm291-329c-42-102-113-239-123-239-5 0-35 30-66 68-118 141-132 195-52 207 70 11 262 32 265 29 2-1-9-30-24-65z"/>
    <path d="m740 1173c-113-13-235-34-246-44-20-16-17-57 4-68 12-6 33-6 58-1 85 20 84 21 84-79v-90l-57-11c-93-19-123-35-123-64 0-26 25-47 47-39 7 3 15-1 17-9 3-7 6-106 8-219l3-206-62-22c-34-12-67-29-73-36-18-21-8-60 16-63 11-2 100 24 197 57l177 60v-99c0-76 4-102 16-114 21-21 37-20 59 4 17 18 17 43 13 365l-5 345h22c77 0 116 30 94 71-10 20-17 21-88 16-42-4-98-9-124-13l-48-7 3 89 3 89 66 5c89 7 122 36 83 74-15 16-59 18-144 9zm50-393c0-55 8-49-95-70-27-6-58-13-67-16-16-5-18 2-18 50 0 54 0 55 33 61 17 3 52 10 77 14 72 14 70 15 70-39zm0-165c0-20-7-26-42-35-24-6-59-15-79-20-20-6-39-10-43-10-12 0-6 60 7 61 6 0 39 6 72 14 83 18 85 18 85-10zm0-152v-38l-85-26-85-27v43 44l53 14c118 34 117 34 117-10z"/>
  </g>
</svg>
