<?xml version="1.0"?>
<svg xmlns="http://www.w3.org/2000/svg" height="200pt" preserveAspectRatio="xMidYMid meet" viewBox="0 0 200 200" width="200pt">
  <g transform="matrix(.1 0 0 -.1 0 200)">
    <path d="m869 1919c-11-22-9-114 7-260l7-57-44-6c-162-25-396-70-407-79-7-6-12-22-10-36 4-38 33-38 260 0 109 18 199 31 202 28 5-5 26-386 26-478v-68l-127-17c-195-26-609-110-630-128-21-17-15-48 11-59 19-9 64-3 222 30 187 39 473 85 480 78 2-2-11-25-30-53-18-27-59-96-91-154-31-58-100-177-153-265-120-201-126-215-106-243 20-29 41-28 226 7 152 29 402 61 633 81 66 6 129 11 139 13 15 1 38-25 91-103 77-115 101-131 130-86 16 25 16 27-15 78-18 29-79 118-135 198s-114 164-129 188c-29 47-67 57-86 23-15-29-14-31 44-123l53-86-126-11c-204-20-519-60-613-79-49-10-88-16-88-13 0 2 40 72 88 155 49 83 115 200 148 259 32 59 80 137 107 172l47 63 93 6c50 3 164 11 252 16 88 6 240 12 338 14 143 3 182 7 194 19 20 19 9 53-20 64-28 10-332 6-497-6-69-6-177-13-240-16l-116-6-12 248c-7 136-12 260-12 274 0 24 3 26 89 37 49 7 158 15 242 18 85 4 160 11 167 17 23 18 14 57-15 68-33 13-261 5-400-14l-91-13-5 25c-3 15-11 80-17 146-7 66-15 127-19 135-13 25-48 24-62-1z"/>
  </g>
</svg>
