<?xml version="1.0"?>
<svg xmlns="http://www.w3.org/2000/svg" height="200pt" preserveAspectRatio="xMidYMid meet" viewBox="0 0 200 200" width="200pt">
  <g transform="matrix(.1 0 0 -.1 0 200)">
    <path d="m884 1942c-6-4-24-36-41-72-28-62-142-213-246-327-38-41-48-58-45-80 4-38 31-40 115-10 37 14 104 32 148 42 44 9 89 19 100 22 16 4 18 3 8-8-8-7-13-39-13-75 0-34-3-75-6-91l-6-29-148-23c-81-12-153-28-159-34-18-18-13-55 9-67 19-10 30-9 238 26l34 5-36-68c-52-99-162-229-269-318-74-62-123-92-252-155-88-43-177-85-197-93-40-17-53-52-22-64 53-20 358 110 485 206 91 69 227 215 288 307 28 43 52 82 54 88 2 5 37-19 77-54 168-144 285-217 470-293 117-48 355-127 384-127 30 0 50 23 41 49-7 22-36 35-235 103-273 93-452 196-643 372l-59 53 59 6c32 4 99 9 148 13 109 7 151 19 158 44 6 24-12 49-38 52-24 3-216-11-264-19l-34-6 7 44c7 50-7 142-23 147-6 2-11 7-11 12 0 8 123 28 203 32l47 2 50-69c27-38 57-73 65-78 21-12 53 0 60 23 8 25-2 42-105 180-48 65-98 137-111 159-20 37-27 42-54 39-43-4-46-44-6-108 17-28 31-52 31-55s-19-5-42-6c-24 0-113-15-199-32l-156-32 69 85c38 47 85 118 105 158 35 69 36 76 22 100-15 28-36 37-55 24z"/>
    <path d="m930 799c-73-50-279-162-360-194-29-12-37-39-19-62 21-25 86-11 188 41 160 82 322 189 335 222 9 24-12 54-37 53-12 0-60-27-107-60z"/>
    <path d="m1114 659c-133-120-237-182-394-233-86-28-95-33-98-58-6-54 43-56 182-8 124 42 295 155 376 248 41 46 49 69 28 90-20 20-36 14-94-39z"/>
    <path d="m1190 468c-111-104-319-227-460-273-68-22-80-31-80-60 0-78 194-17 415 131 125 83 223 168 231 200 7 27-10 54-35 54-9-1-41-24-71-52z"/>
  </g>
</svg>
