<?xml version="1.0"?>
<svg xmlns="http://www.w3.org/2000/svg" height="200pt" preserveAspectRatio="xMidYMid meet" viewBox="0 0 200 200" width="200pt">
  <g transform="matrix(.1 0 0 -.1 0 200)">
    <path d="m806 1858c-3-7-7-56-10-108-7-109-34-254-50-273-6-7-87-28-181-46-194-37-215-44-215-69 0-49 37-52 210-17 159 32 162 32 154-2-26-124-142-435-205-551-21-40-60-103-86-140-52-72-261-282-303-304-34-18-40-29-29-50 14-27 69-23 115 8 115 78 267 245 354 391l63 103 116-113c64-62 140-133 170-157l53-45-43-39c-38-33-317-177-436-225-34-14-45-47-20-57 31-12 143 18 254 67 142 63 214 104 273 157l44 39 81-52c207-135 512-245 687-248 73-1 101 13 96 47-3 24-21 30-132 46-110 16-214 45-331 91-95 37-253 121-310 164l-26 20 50 66c111 146 195 310 208 405 7 56-7 74-59 74-42 0-296-37-491-71-65-12-120-19-122-17-3 2 15 56 39 119s54 158 67 213c18 76 28 100 44 107 21 9 330 47 595 74 208 21 224 25 228 53 5 35-15 52-62 52-43 0-577-62-686-79-35-6-65-9-66-8s4 29 12 62c21 91 28 264 12 295-15 27-56 39-62 18zm454-921c0-39-132-263-213-361l-24-30-104 91c-191 168-236 213-219 223 8 4 116 24 240 44 124 19 236 37 250 39 50 8 70 7 70-6z"/>
  </g>
</svg>
