<?xml version="1.0"?>
<svg xmlns="http://www.w3.org/2000/svg" height="200pt" preserveAspectRatio="xMidYMid meet" viewBox="0 0 200 200" width="200pt">
  <g transform="matrix(.1 0 0 -.1 0 200)">
    <path d="m1110 1864c-584-46-665-55-686-76-14-14-14-24 0-109 35-200 30-568-10-804-19-115-72-272-128-383-38-78-154-258-193-304-24-27-13-62 21-66 38-5 63 20 149 148 160 237 242 477 265 772l7 93 28-49c48-85 247-363 306-428l57-61-75-66c-42-36-99-86-127-111-80-72-226-168-330-216-98-46-114-65-70-86 19-8 37-8 73 1 121 30 265 124 484 314 62 54 118 96 125 93 6-2 45-28 85-57 210-149 351-232 494-290 184-73 265-87 286-47 17 32-8 48-154 98-158 54-319 139-502 264l-144 100 73 76c135 142 332 424 407 583 34 73 30 101-16 113-36 9-371-31-678-81-153-25-286-45-296-45-16 0-18 14-24 173-3 94-11 201-17 236s-9 65-7 68c15 14 678 64 932 69 121 3 230 7 242 10 27 5 41 47 23 69-10 13-48 15-224 14-116-1-285-7-376-15zm340-603c0-4-28-55-63-112-81-136-262-374-334-439l-56-51-49 48c-44 43-250 323-306 414l-22 37 67 11c543 87 763 114 763 92z"/>
  </g>
</svg>
