<?xml version="1.0"?>
<svg xmlns="http://www.w3.org/2000/svg" height="200pt" preserveAspectRatio="xMidYMid meet" viewBox="0 0 200 200" width="200pt">
  <g transform="matrix(.1 0 0 -.1 0 200)">
    <path d="m580 1825c-7-18-8-164-4-429 4-220 4-417 0-437-6-33-15-41-86-83-44-25-115-71-157-101s-79-53-81-51 2 59 8 127c12 123 9 211-12 404-12 116-20 135-53 135-39 0-43-24-28-170 14-130 13-220-3-492-10-171 12-178 184-54 64 46 140 98 169 114l52 31 3-309c3-271 5-311 19-326 21-20 55-11 64 17 10 31 8 1581-2 1614-13 42-58 48-73 10z"/>
    <path d="m1495 1299c-211-36-480-90-503-99-22-10-23-14-17-63 4-28 17-70 30-93 27-47 171-228 209-263 14-14 26-30 26-37 0-16-142-149-227-213-38-28-98-66-135-83-37-18-70-39-72-46-3-7 4-22 15-33 30-30 74-20 166 37 81 51 156 110 257 205l64 60 109-112c162-166 361-319 416-319 31 0 49 27 36 52-5 10-53 49-107 87-53 38-133 101-177 139-76 67-215 213-215 227 0 3 23 34 52 68 67 81 143 198 207 320 56 107 65 159 32 177-24 13-31 12-166-11zm71-96c-17-43-151-256-203-321l-58-73-48 53c-76 84-198 249-194 262 4 11 23 15 302 65 197 36 209 37 201 14z"/>
  </g>
</svg>
