<?xml version="1.0"?>
<svg xmlns="http://www.w3.org/2000/svg" height="200pt" preserveAspectRatio="xMidYMid meet" viewBox="0 0 200 200" width="200pt">
  <g transform="matrix(.1 0 0 -.1 0 200)">
    <path d="m930 1633c-25-1-117-7-205-13-240-16-512-53-531-72-19-18-11-53 13-62 9-4 61-1 115 5 54 7 101 10 103 7 13-13 24-201 30-528 4-195 11-363 16-372 7-14-4-24-69-59-169-93-221-140-192-174 19-22 47-18 93 14 105 72 339 178 450 205l27 6v-215c0-202 1-216 20-235 23-23 30-24 53-8 15 12 17 50 21 368 3 195 9 438 15 540s13 255 17 341l6 157 30 6c17 3 65 6 107 6 82 0 101 9 101 47 0 41-46 48-220 36zm-110-170c0-43-3-101-6-129l-7-52h-37c-20 0-74-8-120-16-45-9-88-16-95-16-8 0-16 41-24 131-7 72-11 132-9 134 3 3 192 19 271 24l27 1zm-16-359-7-100-101-26c-55-15-110-30-122-33-18-6-22-1-28 25-3 18-6 68-6 110v78l73 12c39 7 99 17 132 24s61 11 63 10c1 0-1-46-4-100zm-16-304-3-111-112-37c-132-44-123-51-123 99v96l93 26c87 24 122 33 140 36 4 0 6-49 5-109z"/>
    <path d="m1435 1259c-77-9-175-18-218-18-89-1-117-12-117-44 0-28 80-169 173-304l70-103-27-35c-52-67-199-215-260-261-73-55-84-71-63-91 21-21 72-10 128 26 42 28 195 179 252 250l28 33 148-144c153-150 217-194 298-205 29-4 42-1 53 12 13 15 11 20-12 39-14 11-52 37-84 56-55 33-315 275-335 311-6 13 12 51 73 150 76 125 148 268 148 297 0 6-9 21-20 32-24 24-43 24-235-1zm124-111c-44-90-154-268-164-265-11 4-128 172-163 235l-23 42 78 1c43 0 121 6 173 13 52 8 101 14 108 15 8 1 6-12-9-41z"/>
  </g>
</svg>
