<?xml version="1.0"?>
<svg xmlns="http://www.w3.org/2000/svg" height="200pt" preserveAspectRatio="xMidYMid meet" viewBox="0 0 200 200" width="200pt">
  <g transform="matrix(.1 0 0 -.1 0 200)">
    <path d="m1010 1833c-41-25-169-94-285-152-218-110-240-128-200-161 23-19 75 0 273 97 199 98 332 184 332 216 0 24-17 47-35 47-6 0-44-21-85-47z"/>
    <path d="m1235 1431c-77-77-141-146-143-154s4-20 13-27c27-22 73 8 199 130 123 119 140 143 124 173-20 38-51 19-193-122z"/>
    <path d="m785 1479c-19-19-19-21 0-56 24-44 130-141 164-150 23-6 51 16 51 40 0 12-175 187-187 187-5 0-18-9-28-21z"/>
    <path d="m452 1438c-20-20-13-45 22-74 58-49 157-106 183-106 23 0 42 15 43 34 0 14-66 71-116 99-29 17-58 37-64 44-15 18-52 19-68 3z"/>
    <path d="m1280 1169c-69-5-222-17-340-28s-323-25-455-31-250-13-261-15c-29-6-36-28-25-78 5-23 15-98 21-167 12-129 26-170 59-170 39 0 44 22 32 147-7 65-14 135-18 156l-6 37h59c116 1 472 20 624 35 243 23 433 35 578 35h134l-30-37c-67-86-164-242-160-260 4-22 37-28 59-10 9 6 51 57 93 112s94 123 116 150c47 61 58 96 35 119-14 14-42 16-203 15-103-1-243-6-312-10z"/>
    <path d="m1065 883c-16-2-102-13-190-24-157-19-205-34-205-64 0-8 6-20 13-27 8-6 11-22 9-35-6-31 27-78 121-178 42-44 73-82 69-85-33-25-185-122-218-138-22-11-74-29-115-40-102-26-154-52-154-77 0-27 59-31 164-11 96 18 163 49 303 142l107 72 58-49c56-48 156-111 218-138 101-44 363-111 435-111 50 0 90 31 74 57-6 10-22 19-35 21-46 5-284 63-349 84-36 11-94 35-130 53-61 31-183 115-196 136-3 5 16 33 41 61 49 55 110 167 140 256 16 49 16 55 1 77s-23 25-74 24c-31-1-70-4-87-6zm65-94c0-28-85-170-126-209l-45-45-106 108c-57 60-103 111-100 113 4 5 302 41 350 43 15 1 27-4 27-10z"/>
  </g>
</svg>
