<?xml version="1.0"?>
<svg xmlns="http://www.w3.org/2000/svg" height="200pt" preserveAspectRatio="xMidYMid meet" viewBox="0 0 200 200" width="200pt">
  <g transform="matrix(.1 0 0 -.1 0 200)">
    <path d="m1345 1674c-398-23-806-75-997-125-59-16-81-18-97-10-17 9-24 8-41-9-11-11-20-31-20-45 0-77 89-718 120-868 47-226 60-272 76-284 24-17 155-16 374 2 145 12 412 23 915 36 39 1 83-2 99-6 24-7 33-4 48 15 17 21 18 56 18 630 0 577-1 609-19 631-16 20-31 23-127 30-106 7-246 8-349 3zm298-91 107-6v-522c0-287-3-536-6-553-6-29-9-31-68-36-33-3-218-10-411-16-192-5-425-17-517-25-92-9-197-15-234-13l-67 3-34 155c-18 85-42 216-53 290-49 325-80 574-73 580 39 34 497 103 858 130 276 20 358 22 498 13z"/>
  </g>
</svg>
