<?xml version="1.0"?>
<svg xmlns="http://www.w3.org/2000/svg" height="200pt" preserveAspectRatio="xMidYMid meet" viewBox="0 0 200 200" width="200pt">
  <g transform="matrix(.1 0 0 -.1 0 200)">
    <path d="m922 1878c-9-9-12-86-12-284 0-304 5-284-74-284-58 0-347-27-481-45-116-16-152-34-139-69 11-29 39-32 142-19 100 12 409 40 497 45l50 2 3-232c2-182 0-232-10-232-7 0-101-9-208-21-168-18-197-23-212-41-24-28-23-59 12-263 17-97 30-198 30-225 0-78 8-80 225-66 99 7 299 14 445 15s273 4 282 7c21 6 23 15 43 129 9 50 31 149 50 221 44 163 45 207 8 231-24 16-59 18-300 21l-273 4v228 228l29 5c17 4 182 11 368 18 196 6 343 15 351 21 6 6 12 21 12 34 0 45-22 47-381 35-184-6-343-14-355-17-21-6-21-4-26 265-4 193-9 276-18 286-15 18-42 19-58 3zm560-1207 26-6-34-130c-18-72-39-163-46-202l-12-73h-35c-125-2-620-21-686-26l-80-6-33 198c-21 128-29 200-22 204 6 3 97 14 203 24 105 10 199 19 207 21 29 6 485 3 512-4z"/>
  </g>
</svg>
