<?xml version="1.0"?>
<svg xmlns="http://www.w3.org/2000/svg" height="200pt" preserveAspectRatio="xMidYMid meet" viewBox="0 0 200 200" width="200pt">
  <g transform="matrix(.1 0 0 -.1 0 200)">
    <path d="m483 1838c-6-7-15-59-22-115-32-268-126-516-230-605-34-28-39-49-17-67 35-29 119 30 175 124 19 31 49 95 67 142l32 86 313 53c232 40 370 57 529 69 118 8 236 17 261 21 43 6 46 5 57-22 70-174 27-610-85-872-32-75-155-308-171-324-4-4-56 27-117 68-108 73-146 87-153 53-4-21 241-239 269-239 33 0 68 46 151 196 143 257 193 424 233 784 15 138-34 402-82 438-13 10-35 12-73 8-30-3-116-11-190-16-281-21-363-31-635-79-154-27-281-48-282-47-2 1 4 34 12 72 23 104 31 250 15 269-15 18-44 20-57 3z"/>
    <path d="m895 1274c-93-12-173-23-176-23-4-1-13-21-21-46-14-41-14-52 2-117 9-40 28-128 41-196 19-99 27-126 43-134 12-6 27-18 35-26 11-11 28-13 65-8 28 3 113 9 188 13 116 5 140 9 154 25 14 15 15 23 6 44-8 16-12 98-12 240 0 129-4 223-10 235-14 25-87 24-315-7zm235-248v-195l-52-5c-191-19-230-21-233-12-1 6-17 81-35 166s-35 165-38 178c-4 20 0 22 34 23 22 0 98 8 169 18 72 10 136 19 143 20 9 1 12-44 12-193z"/>
  </g>
</svg>
