<?xml version="1.0"?>
<svg xmlns="http://www.w3.org/2000/svg" height="200pt" preserveAspectRatio="xMidYMid meet" viewBox="0 0 200 200" width="200pt">
  <g transform="matrix(.1 0 0 -.1 0 200)">
    <path d="m1430 1549c-274-11-610-54-967-125-209-41-243-53-243-88 0-39 31-40 191-7 276 57 679 115 887 127l112 7v-81c0-88-31-518-55-752-8-80-17-189-21-243-4-53-8-97-10-97s-31 18-65 40c-89 58-298 162-309 155-6-3-10-15-10-25 0-22 51-62 210-165 58-37 125-85 149-106 24-22 54-39 67-39 40 0 51 34 58 180 3 74 12 203 21 285 16 170 41 514 51 718l7 137h149c84 0 158 5 169 10 21 12 26 52 7 68-14 11-125 11-398 1z"/>
    <path d="m1095 1183c-115-7-405-42-424-52-10-6-24-24-31-41-11-26-8-51 18-181 17-83 36-157 44-165 11-10 32-10 118 2 59 8 159 13 228 12 109-3 125-1 137 15 7 10 15 65 19 140 4 67 9 145 12 174 6 46 3 54-19 77-15 14-30 25-34 24s-35-3-68-5zm30-110c-2-16-7-72-11-125l-6-98h-61c-60 0-222-15-262-25-19-4-23 6-44 111-13 63-21 117-18 120 5 5 318 41 374 43 30 1 32-1 28-26z"/>
  </g>
</svg>
