<?xml version="1.0"?>
<svg xmlns="http://www.w3.org/2000/svg" height="200pt" preserveAspectRatio="xMidYMid meet" viewBox="0 0 200 200" width="200pt">
  <g transform="matrix(.1 0 0 -.1 0 200)">
    <path d="m828 1788c-30-35-66-79-80-98-101-141-419-563-450-597-21-24-38-49-38-56 0-16 31-47 47-47 6 0 91 25 189 56 239 74 666 147 934 159 74 4 147 10 162 15 23 7 32 2 89-56 63-67 91-77 112-43 20 32-5 70-138 204-74 75-147 152-161 171-28 37-63 45-84 19-20-24-4-57 65-136l65-74-127-7c-142-7-190-13-507-64-185-30-365-71-440-100-13-5-6 10 24 52 162 221 319 431 373 498 95 120 91 113 79 141-20 44-54 33-114-37z"/>
    <path d="m1290 884c-52-7-203-24-335-38-467-50-465-49-465-99 0-13 16-97 35-188 29-142 65-368 65-414 0-28 43-46 81-35 142 42 657 75 764 50 53-12 71-6 84 32 16 46 15 680-1 696-15 15-102 14-228-4zm150-348v-273l-222-6c-123-3-284-13-358-22-74-8-146-17-160-18-23-2-25 1-33 68-4 39-21 138-39 220-45 220-44 203-17 209 13 3 94 12 179 21 245 25 427 45 530 60 52 7 101 13 108 14 9 1 12-60 12-273z"/>
  </g>
</svg>
