<?xml version="1.0"?>
<svg xmlns="http://www.w3.org/2000/svg" height="200pt" preserveAspectRatio="xMidYMid meet" viewBox="0 0 200 200" width="200pt">
  <g transform="matrix(.1 0 0 -.1 0 200)">
    <path d="m828 1929c-23-13-23-48 2-194 11-64 20-125 20-134 0-16-16-19-132-24-109-6-340-33-445-53-45-8-44-28 6-278 30-149 54-243 64-253 13-14 27-14 109-5 51 7 148 15 216 18l123 7-36-99c-19-54-35-100-35-101 0-2-4-3-10-3-5 0-28 34-51 76-39 71-43 75-73 72-53-5-47-46 22-160l59-96-39-67c-145-251-334-482-434-531-58-28-70-55-34-74 48-26 154 32 249 136 56 62 207 274 280 394 18 30 35 57 37 59s51-41 108-97c211-205 416-308 751-376 271-55 325-55 325-1 0 31-21 42-106 55-151 23-334 64-430 95-196 64-318 140-485 303l-117 113 33 82c18 45 43 115 56 155l23 72h155c86 0 211-5 279-12 91-8 126-8 134 0 6 6 15 55 19 109 5 54 22 172 38 263 27 148 29 167 15 187l-14 23h-284-284l-6 28c-2 15-15 87-27 161-26 151-39 175-81 150zm612-422c0-1-13-77-30-167-16-90-30-181-30-201v-37l-232 5c-128 3-234 7-236 8-2 2 4 54 12 116 9 63 19 149 22 191l6 78 181 3c100 1 210 3 245 5 34 1 62 1 62-1zm-584-113c-7-89-28-234-41-274-4-14-32-18-181-29-96-6-188-14-203-17l-27-6-38 187c-21 102-37 187-35 189s60 10 129 19c69 10 136 19 150 21s76 4 139 5l114 1z"/>
  </g>
</svg>
