<?xml version="1.0"?>
<svg xmlns="http://www.w3.org/2000/svg" height="200pt" preserveAspectRatio="xMidYMid meet" viewBox="0 0 200 200" width="200pt">
  <g transform="matrix(.1 0 0 -.1 0 200)">
    <path d="m589 1864c-10-13-9-39 6-150 10-73 16-136 14-138-2-3-85-17-184-31-189-27-224-40-209-79 12-31 42-32 207-9 223 31 201 36 194-49-6-84-54-243-102-338-73-144-293-400-394-456-53-30-71-58-52-77 15-15 91 5 148 39 48 28 169 147 216 211 17 24 32 41 34 39s10-61 18-132c9-71 27-196 41-279 14-82 30-179 35-215 16-109 2-105 311-91 305 15 672 16 696 2 11-6 25-5 44 5 38 20 51 47 37 77-8 18-6 57 10 163 29 196 71 546 71 598 0 73 10 71-369 68-394-3-612-17-764-48l-28-6 19 39c67 130 122 320 122 418v63l48 6c95 11 254 18 568 25 336 7 354 9 354 52 0 10-10 25-22 33-19 13-52 15-222 10-256-6-616-22-683-30l-53-6v38c0 61-30 217-46 242-17 26-46 29-65 6zm1051-937c0-20-59-476-76-594l-17-113h-119c-123 0-719-27-751-34-11-3-19 3-22 17-16 69-67 380-80 487-8 69-17 139-20 156-5 31-5 31 52 42 161 31 390 45 831 49 151 1 202-1 202-10z"/>
  </g>
</svg>
