<?xml version="1.0"?>
<svg xmlns="http://www.w3.org/2000/svg" height="200pt" preserveAspectRatio="xMidYMid meet" viewBox="0 0 200 200" width="200pt">
  <g transform="matrix(.1 0 0 -.1 0 200)">
    <path d="m825 1785c-182-17-212-24-245-52-37-31-38-56-6-173 13-47 38-141 56-210s37-131 43-137c10-14 49-17 60-6 4 4 151 6 327 5 300-2 321-1 339 17 11 11 28 63 44 132 15 63 38 166 53 229 37 161 37 163 20 185-14 19-27 20-288 21-156 1-329-3-403-11zm585-152c-10-43-30-133-46-200l-27-123h-299c-164 0-298 2-298 4s-20 71-44 153c-61 205-60 200-35 208 47 15 328 33 540 34l226 1z"/>
    <path d="m1600 1108c-91-4-230-12-310-18s-230-15-335-20c-281-15-721-72-747-98-15-15-1-60 22-67 10-3 115 8 231 25 117 17 220 30 230 28 15-3 11-18-32-128-51-128-57-175-28-193 12-8 86 0 264 27 242 37 444 60 452 53 13-13-85-301-148-436-45-97-40-97-120 10-38 52-57 69-75 69-36 0-31-44 12-116 81-136 187-199 211-126 3 9 24 58 48 107 76 162 156 399 171 508 5 35 2 45-15 61-19 17-32 18-140 13-98-6-431-50-543-73l-28-6 26 69c14 37 34 91 46 120l21 51 106 6c58 4 196 13 306 21s238 15 284 15c124 0 364 20 379 32 19 16 14 56-7 68-21 11-33 11-281-2z"/>
  </g>
</svg>
