<?xml version="1.0"?>
<svg xmlns="http://www.w3.org/2000/svg" height="200pt" preserveAspectRatio="xMidYMid meet" viewBox="0 0 200 200" width="200pt">
  <g transform="matrix(.1 0 0 -.1 0 200)">
    <path d="m1355 1799c-399-21-1108-102-1141-130-8-7-14-21-12-32 6-37 30-42 130-29 241 32 347 43 665 72 189 16 403 30 476 30h133l-2-422c-1-233-5-435-9-450s-10-153-14-307l-6-280-110 90c-178 145-225 170-225 119 0-22 104-130 215-224 128-109 184-127 206-69 5 13 9 106 9 206s7 288 15 417c19 326 24 983 6 1004-15 18-85 19-336 5z"/>
    <path d="m800 1384c-266-32-297-43-270-95 14-24 21-24 280 6 118 14 249 25 290 25 52 0 82 5 98 16 24 17 29 43 10 62s-188 13-408-14z"/>
    <path d="m945 1153c-203-16-372-47-398-72-18-18-18-22 11-157 17-77 36-175 43-219s17-85 23-91c15-15 560-6 580 10 11 8 17 52 25 183 6 95 11 205 11 246 0 103-6 107-146 105-60-1-127-3-149-5zm201-240c-4-87-9-170-12-185l-6-28h-172c-95 0-193-3-218-6l-45-6-7 48c-4 27-19 98-32 158-14 60-23 114-20 121 8 21 241 51 415 54l103 1z"/>
  </g>
</svg>
