<?xml version="1.0"?>
<svg xmlns="http://www.w3.org/2000/svg" height="200pt" preserveAspectRatio="xMidYMid meet" viewBox="0 0 200 200" width="200pt">
  <g transform="matrix(.1 0 0 -.1 0 200)">
    <path d="m890 1853c-80-2-155-5-167-8-14-3-26-18-34-42-17-55-90-153-158-215-33-29-103-76-157-104s-103-59-109-68c-14-22 5-50 38-54 30-4 184 72 243 119 20 16 39 29 42 29s48-42 101-93 117-106 143-122c27-17 48-32 48-35-1-18-271-177-400-235-52-23-153-63-223-89-159-57-187-72-187-95 0-39 24-45 102-26 215 53 567 220 740 352l56 43 64-36c236-135 585-258 807-285 108-13 131-7 131 32 0 29-40 48-123 59-150 19-345 77-527 157-148 66-280 131-280 139 0 3 28 36 61 72 76 83 151 195 218 329 86 172 76 184-139 181-80-1-210-4-290-5zm370-90c0-12-92-177-130-233-43-63-167-200-181-200-22 0-138 88-216 163l-83 80 35 46c20 25 48 70 62 99l27 52h243c134 0 243-3 243-7z"/>
    <path d="m1105 843c-27-2-160-17-295-33-135-17-265-30-288-30-35 0-44-4-54-25-8-18-8-28 1-38 15-19 57-259 75-436 11-103 20-149 31-160 18-18-3-18 510-1 181 7 337 16 346 20 12 7 19 36 27 119 6 60 22 154 36 208 31 123 56 265 56 320 0 32-5 45-19 53-18 9-305 11-426 3zm355-80c0-17-32-176-60-298-16-72-32-156-35-187l-6-58h-42c-71 0-497-19-588-26l-87-6-7 83c-6 73-41 301-61 397-6 31-5 32 25 32 17 0 123 11 234 25 257 32 627 54 627 38z"/>
  </g>
</svg>
