<?xml version="1.0"?>
<svg xmlns="http://www.w3.org/2000/svg" height="200pt" preserveAspectRatio="xMidYMid meet" viewBox="0 0 200 200" width="200pt">
  <g transform="matrix(.1 0 0 -.1 0 200)">
    <path d="m722 1793c-5-10-15-40-21-68-23-96-108-232-208-335-93-95-106-117-78-140 27-22 67 0 146 79l78 78 68-37c118-63 216-121 275-163 48-33 56-42 48-57-17-31-216-211-316-286-166-123-377-238-538-294-58-19-76-41-56-65 11-13 23-15 59-10 89 13 305 108 431 189 48 31 56 33 62 18 4-9 25-99 48-199 52-233 67-281 88-291 9-5 62-5 117-1s213 7 352 8c200 1 261-2 297-14 24-8 51-12 60-9 26 10 50 112 86 359 11 77 25 175 32 218 16 109 15 110-113 120-130 9-431 0-613-19-76-8-144-14-152-14s30 40 83 89c139 126 228 233 293 353 31 56 84 153 118 215 100 182 119 244 85 279-19 18-85 17-476-8-160-10-179-9-195 6-24 21-49 20-60-1zm593-180c-121-237-225-411-225-377 0 18-186 136-339 216-30 16-56 30-58 32-3 3 71 163 94 205 2 3 420 26 536 30l47 1zm341-860c-10-85-45-319-57-384l-11-56-361-6c-199-3-363-4-365-2-4 4-26 92-71 285-18 74-34 142-37 151-8 27 393 64 740 67l168 2z"/>
  </g>
</svg>
