<?xml version="1.0"?>
<svg xmlns="http://www.w3.org/2000/svg" height="200pt" preserveAspectRatio="xMidYMid meet" viewBox="0 0 200 200" width="200pt">
  <g transform="matrix(.1 0 0 -.1 0 200)">
    <path d="m836 1884c-9-8-16-24-16-35s-10-39-21-62c-70-137-198-289-315-373-35-25-64-48-65-52 0-4-2-56-3-117-5-199-90-442-229-653-35-54-85-121-110-150-50-56-56-72-32-92 40-33 97 16 199 170 120 182 167 286 215 470l28 105 54 11c336 70 422 86 534 103 72 11 213 28 315 37 211 19 230 24 230 58 0 47-13 49-242 26-283-27-581-78-848-145-25-6-25-6-26 73l-2 78 55 28c88 47 264 258 323 388 26 58 26 124 1 138-25 13-27 13-45-6z"/>
    <path d="m1015 919c-127-8-440-60-476-79-10-6-21-19-24-30-10-33 60-434 91-522 8-22 14-53 14-68 0-47 18-53 117-41 109 13 484 39 658 45 97 3 132 8 140 19 6 8 11 105 13 248 2 129 8 269 14 311 9 67 8 81-6 103l-16 25-198-1c-108-1-255-6-327-10zm460-96c-4-10-10-110-12-223s-6-223-9-246l-5-41-152-6c-144-6-465-31-552-42l-40-6-17 58c-41 139-94 443-78 453 19 12 269 52 369 60 53 4 188 8 300 9 190 1 203 0 196-16z"/>
  </g>
</svg>
