<?xml version="1.0"?>
<svg xmlns="http://www.w3.org/2000/svg" height="200pt" preserveAspectRatio="xMidYMid meet" viewBox="0 0 200 200" width="200pt">
  <g transform="matrix(.1 0 0 -.1 0 200)">
    <path d="m470 1851c-5-11-10-32-10-48 0-38-77-224-124-298-20-33-65-85-99-116l-61-57 47-288c52-314 73-498 83-705 4-74 11-144 15-157 10-26 50-30 69-7 28 34-11 487-71 840-48 282-48 255-6 255 19 0 122 11 228 25 107 14 268 29 359 35 91 5 282 16 425 25 143 8 294 18 336 21l76 7 6-39c17-109 19-274 3-389-15-114-32-379-39-602-1-56-6-105-9-109-4-3-40 13-80 36-87 50-121 56-126 22-5-31 17-54 113-119 44-29 92-63 107-75 25-20 28-20 52-5 29 19 30 29 46 432 5 149 17 322 26 385 18 126 15 341-7 458-16 88-31 97-152 88-89-6-414-26-762-46-93-6-257-22-364-36-106-14-196-22-199-19s4 15 15 28c36 38 92 142 132 244 45 113 58 181 42 212-15 27-57 28-71 2z"/>
    <path d="m1055 989c-258-18-337-29-368-51-29-21-29-23-24-87 14-167 40-322 58-345l19-24 309 2c236 2 314 6 325 16 14 11 16 46 16 240 0 275 7 261-126 259-49-1-143-6-209-10zm245-249v-170h-258-258l-20 153c-12 83-20 153-19 155 4 5 381 29 473 31l82 1z"/>
  </g>
</svg>
