<?xml version="1.0"?>
<svg xmlns="http://www.w3.org/2000/svg" height="200pt" preserveAspectRatio="xMidYMid meet" viewBox="0 0 200 200" width="200pt">
  <g transform="matrix(.1 0 0 -.1 0 200)">
    <path d="m1130 1739c-47-4-197-15-335-24-209-13-252-18-262-32-16-21-16-25 1-48 16-22 60-24 242-12l122 7 4-62c8-113 10-112-123-120-279-18-490-38-509-48-26-14-26-56-1-70 11-5 32-8 48-5 38 7 464 35 526 35h49l-7-57c-13-108-7-103-148-103-131 0-167-11-167-50 0-30 18-35 147-40l122-5-48-102c-27-55-67-128-89-160-60-88-203-245-283-309-52-43-69-62-67-78s11-22 38-24c50-4 112 40 223 160l92 99 7-48c3-26 13-94 22-150 9-57 16-125 16-152 0-80 20-95 127-99 48-2 167 4 263 13 96 10 212 20 257 24 45 3 87 11 94 18 31 31 40 561 10 596-11 14-32 17-102 17-79 0-477-40-553-56-15-3-26-2-24 2 46 95 88 187 98 217 6 21 17 40 24 43 6 2 110 8 232 12 163 5 225 11 238 21 13 11 16 34 16 136v122l107 6c58 4 151 7 205 7 110 0 138 9 138 44 0 47-15 49-240 43l-210-5v107c0 139-2 142-126 140-49-1-127-5-174-10zm210-163v-83l-152-12c-84-7-163-15-175-18-21-5-22-1-25 81-2 47-3 87-3 87 0 2 271 26 313 28l42 1zm0-261v-84l-32-5c-18-3-104-7-191-10l-159-4 6 21c3 12 9 48 13 80 3 31 11 57 17 58 6 0 67 6 136 14 69 7 144 13 168 14l42 1zm84-532c8-49 8-192 0-313l-7-96-236-22c-130-13-260-23-288-22h-53v38c-1 20-14 114-29 207-19 116-25 172-18 177 12 7 112 21 312 43 77 8 154 16 170 18 17 2 55 5 86 6l56 1z"/>
  </g>
</svg>
