<?xml version="1.0"?>
<svg xmlns="http://www.w3.org/2000/svg" height="200pt" preserveAspectRatio="xMidYMid meet" viewBox="0 0 200 200" width="200pt">
  <g transform="matrix(.1 0 0 -.1 0 200)">
    <path d="m1485 1790c-22-4-123-11-225-14-222-8-574-32-760-51-106-11-137-17-147-31-18-24-16-31 10-48 17-11 38-12 97-5 127 14 483 39 488 34 12-11-56-155-109-234-101-150-208-261-459-475-95-81-147-117-217-151-94-45-117-71-93-100 7-8 23-15 35-15 35 0 193 84 251 132 257 216 410 364 489 472l50 68 6-104c4-56 7-193 8-304l1-200-177-11c-173-11-229-21-245-46-10-15-4-51 32-197 16-63 34-153 40-200 12-92 25-136 43-143 7-2 91 0 187 4s286 8 421 8c185 1 249 4 257 14 5 6 15 86 21 177 24 365 24 359 6 387l-17 26-239-5-239-5v77c0 42-3 179-7 304l-6 227 111-83c61-46 182-128 269-183 86-55 181-119 211-143 55-46 92-51 106-16 15 38-37 83-254 219-178 112-284 185-386 267l-72 58 24 57c13 32 26 72 30 90 6 30 9 32 58 37 28 3 128 8 221 11 94 2 205 10 249 17 65 10 80 15 89 35 22 48-41 66-158 43zm-69-1167c-3-38-8-126-12-197-3-71-8-134-10-141-5-12-384-30-638-30h-99l-17 100c-10 55-29 144-44 199-15 54-25 100-22 103 9 10 429 30 639 32l208 1z"/>
  </g>
</svg>
