<?xml version="1.0"?>
<svg xmlns="http://www.w3.org/2000/svg" height="200pt" preserveAspectRatio="xMidYMid meet" viewBox="0 0 200 200" width="200pt">
  <g transform="matrix(.1 0 0 -.1 0 200)">
    <path d="m1465 1673c-16-3-120-22-230-43s-261-48-335-60c-163-25-180-32-180-65 0-35 34-41 142-23l91 15-6-76c-6-90-31-170-97-306-48-99-153-268-236-378-46-60-55-91-29-101 24-9 59 9 93 48s120 163 163 234l26 43 18-28c10-15 71-81 134-147l116-118-65-60c-119-109-294-240-375-280-114-57-195-109-195-124 0-20 38-37 66-30 13 4 76 32 139 63 122 60 266 164 412 299l83 75 67-58c119-102 189-152 350-249 198-120 296-150 327-101 15 23-2 49-40 60-146 43-425 215-598 369l-49 43 68 95c152 215 199 391 113 423-9 3-5 13 13 33 59 67 132 177 145 221 26 86 12 189-29 218-21 15-42 16-102 8zm53-151c-3-67-5-71-70-159-37-49-92-113-123-141-59-55-65-71-38-97 13-13 28-16 65-13l49 5-7-31c-12-58-63-157-129-251-36-52-69-95-74-95-10 0-221 216-254 261l-27 35 46 105c51 115 72 201 75 301l2 66 96 17c53 10 148 28 211 40 63 13 130 24 149 24l33 1z"/>
    <path d="m505 1454c-5-2-88-12-183-23-161-18-175-18-202-3-24 14-30 14-45 2-18-15-17-35 5-155 5-27 12-132 16-233 4-114 12-189 19-199 11-14 30-15 213-4 110 7 215 9 234 6 27-5 39-1 66 21 35 29 41 54 17 74-13 10-15 51-15 247 0 142-4 242-10 254-8 15-21 19-58 18-26 0-51-2-57-5zm39-296c-4-117-8-215-10-217-6-7-333-25-339-19-4 3-11 84-16 179-5 96-12 186-15 201-6 24-3 27 27 32 61 9 283 33 322 35l38 1z"/>
  </g>
</svg>
