<?xml version="1.0"?>
<svg xmlns="http://www.w3.org/2000/svg" height="200pt" preserveAspectRatio="xMidYMid meet" viewBox="0 0 200 200" width="200pt">
  <g transform="matrix(.1 0 0 -.1 0 200)">
    <path d="m562 1928c-6-6-12-32-12-57 0-64-34-198-70-278-36-79-106-194-167-277-25-32-42-64-39-72 8-22 67-17 98 9 27 22 104 136 147 217l23 45 62 1c33 1 108 7 166 12 57 6 105 10 106 9s4-119 6-263l6-260-182-18c-274-26-507-61-517-77-14-23-10-38 15-54 21-14 36-14 167 5 370 53 542 64 977 65 398 0 414 1 428 19 18 25 18 32-4 54-16 16-49 17-403 17h-387l-6 65c-3 36-6 153-7 260l-2 195 64 6c35 4 98 7 139 8 81 1 120 18 120 50 0 39-24 44-155 37-68-3-138-9-154-12l-31-6v103c0 126-5 147-36 155-48 12-56-8-53-140l4-121-120-12c-66-6-130-12-141-12l-22-1 18 58c31 100 44 215 28 249-14 31-46 41-66 21z"/>
    <path d="m1030 754c-25-2-128-8-230-14-319-19-337-26-325-135 14-127 66-461 76-484l10-24 452 6c435 5 452 6 468 25 22 28 38 187 41 410 4 241 24 223-246 220-110-1-221-3-246-4zm400-236c0-84-5-189-11-234l-12-81-171-6c-94-4-270-7-391-7h-220l-28 183c-15 100-29 200-30 222l-2 40 105 8c217 16 411 24 583 26l177 1z"/>
  </g>
</svg>
