<?xml version="1.0"?>
<svg xmlns="http://www.w3.org/2000/svg" height="200pt" preserveAspectRatio="xMidYMid meet" viewBox="0 0 200 200" width="200pt">
  <g transform="matrix(.1 0 0 -.1 0 200)">
    <path d="m1470 1903c-30-2-142-10-247-18-106-8-239-15-295-15-57 0-199-7-316-17-260-20-250-14-222-143 44-197 44-448-1-800-34-276-79-444-157-593-36-70-44-92-36-105 59-93 186 145 248 463 64 329 84 802 41 998-9 43-15 80-13 82 7 7 273 26 427 30 91 3 238 10 326 15s204 12 258 15l99 6-6-118c-3-65-3-419 2-788 4-369 7-671 6-673 0-1-45 18-100 43-104 47-151 56-161 29s37-63 179-135c191-97 181-105 174 154-4 111-8 503-11 872-5 669-5 670-26 688-21 17-35 18-169 10z"/>
    <path d="m954 1703c-14-14-16-30-11-95 4-43 3-78-1-78-35-1-195-31-211-39-25-14-27-43-6-61 12-10 34-10 103-1 49 6 96 11 105 11 15 0 17-16 17-154v-153l-90-7c-207-16-283-42-264-91 10-24 39-26 151-11 115 17 396 41 606 52 108 6 129 9 137 25 15 27 12 37-14 54-21 14-46 15-213 5-103-6-196-13-205-16-17-5-18 7-18 150v154l63 6c227 20 230 21 241 39 8 12 8 22 0 35-10 15-29 17-160 17h-149l-5 71c-7 95-35 128-76 87z"/>
    <path d="m1070 863c-236-19-355-34-368-47-12-12-11-35 9-171 14-98 29-165 39-177 15-19 24-19 230-10 118 5 243 7 276 5 56-5 63-3 78 18 9 13 16 39 16 59 0 19 9 77 20 129 23 107 25 172 8 189-11 11-190 14-308 5zm227-105c-3-13-13-63-22-113l-17-90h-86c-48 0-148-3-222-7l-136-8-16 103c-9 56-15 103-13 105 7 7 306 29 409 31 107 1 108 1 103-21z"/>
  </g>
</svg>
