<?xml version="1.0"?>
<svg xmlns="http://www.w3.org/2000/svg" height="200pt" preserveAspectRatio="xMidYMid meet" viewBox="0 0 200 200" width="200pt">
  <g transform="matrix(.1 0 0 -.1 0 200)">
    <path d="m1241 1888c-4-13-4-54 0-93 4-38 8-91 8-116l1-46-152-12c-84-6-166-15-182-19-38-10-55-36-40-59 13-21 58-22 250-9l121 8 6-68c4-38 7-128 7-201v-131l-67-7c-311-30-387-44-403-75-23-43 13-66 81-51 24 5 100 15 169 20 69 6 140 13 158 16 25 3 32 0 32-13-1-60-187-395-269-485-88-95-223-189-331-232-40-15-56-27-58-43-9-63 151-24 290 69 141 95 214 183 336 402l59 106 6-379c4-245 10-386 17-399 6-12 21-21 34-21 47 0 50 16 43 223-3 106-3 285 0 400l6 207 35-62c85-155 355-511 421-555 36-24 85-30 96-13 8 13 6 17-126 177-168 204-272 356-383 556l-37 67h225c124 0 236 4 250 10 20 7 26 16 26 40 0 49-24 53-287 45l-233-7v169c0 92-3 185-6 206l-7 37h176c164 0 177 1 187 19 12 24 4 48-21 61-10 6-90 10-177 10h-160l-7 78c-3 42-11 102-18 132-11 49-15 55-39 58-22 3-30-2-37-20z"/>
    <path d="m510 1303c-166-18-324-45-345-59-14-9-28-28-31-41-4-14 1-104 10-201 23-251 25-263 37-278 15-18 78-18 289 0 91 8 176 12 190 10 38-8 64 17 66 62 0 22 4 134 9 251 10 269 12 264-108 261-45 0-98-3-117-5zm136-235c-9-217-13-237-39-242-27-5-293-26-327-26h-26l-17 178c-10 97-17 182-17 188s60 18 148 28c81 10 156 19 167 20 11 2 42 4 68 5l49 1z"/>
  </g>
</svg>
