<?xml version="1.0"?>
<svg xmlns="http://www.w3.org/2000/svg" height="200pt" preserveAspectRatio="xMidYMid meet" viewBox="0 0 200 200" width="200pt">
  <g transform="matrix(.1 0 0 -.1 0 200)">
    <path d="m1428 1802c-70-63-205-159-330-236-56-34-106-69-111-78-15-22-1-48 25-48 93 0 518 300 518 365 0 24-18 45-37 45-7 0-36-21-65-48z"/>
    <path d="m1330 1545c-10-12-11-65-6-238 3-122 9-238 12-258l6-37-74-7c-119-11-343-44-377-56-40-14-55-40-37-65 13-17 17-17 127 0 136 22 352 45 359 39 3-3 6-166 8-363l3-359-103 54c-103 55-132 64-143 45-13-21 20-52 129-124 63-42 117-80 121-86 12-20 54-11 71 16 16 23 17 61 11 424l-6 398 30 6c17 3 128 9 246 13 165 5 218 10 229 20 21 21 17 41-12 59-22 15-44 16-172 10-81-3-188-9-238-12l-91-7-11 140c-7 76-12 193-12 259 0 123-6 144-41 144-9 0-22-7-29-15z"/>
    <path d="m1687 1467c-54-50-167-196-167-215 0-53 68-24 149 65 68 74 94 119 81 144-15 27-38 30-63 6z"/>
    <path d="m455 1444c-119-16-183-30-211-49-21-13-21-16-16-377 3-219 8-368 14-375 14-17 85-16 242 3 71 9 152 13 180 10 75-8 88-8 98 2s23 377 22 611c-1 193 0 192-138 190-50-1-136-7-191-15zm245-171c0-54-5-196-12-315l-12-218h-68c-38 0-102-5-141-10-40-6-88-12-108-15l-36-5-7 278c-3 152-9 291-12 309-5 26-2 32 17 38 54 17 182 33 277 34l102 1z"/>
    <path d="m936 1349c-8-12-12-27-9-35 6-16 198-142 230-150 56-14 71 25 26 68-43 40-196 138-215 138-9 0-24-10-32-21z"/>
  </g>
</svg>
