<?xml version="1.0"?>
<svg xmlns="http://www.w3.org/2000/svg" height="200pt" preserveAspectRatio="xMidYMid meet" viewBox="0 0 200 200" width="200pt">
  <g transform="matrix(.1 0 0 -.1 0 200)">
    <path d="m863 1902c-7-4-23-39-36-78-40-118-179-315-319-450-100-98-302-254-393-304-61-34-75-46-75-66 0-21 5-24 35-24 76 0 153 43 340 191 172 136 328 309 427 475 18 30 36 53 39 52 4-2 61-62 127-134 225-245 380-374 572-473 168-87 250-102 250-47 0 19-21 33-142 94-207 104-303 177-517 391-203 203-241 253-241 316 0 56-29 81-67 57z"/>
    <path d="m1100 1174c-160-20-423-65-442-76-22-11-23-51-3-68 12-10 51-7 208 18 105 17 224 34 262 38 109 9 135 20 135 55 0 22-6 32-26 39-14 6-26 9-27 9-1-1-49-7-107-15z"/>
    <path d="m1245 940c-38-4-111-8-161-9-140-2-129 36-128-445 1-427 3-446 48-446 47 0 47 6 40 377-4 192-4 365 0 384l6 36 127 6c70 4 129 5 131 2 3-3 7-75 10-161 5-156 5-156-16-145-28 15-59 14-65-3-9-23 29-73 77-101 51-30 83-27 95 8 4 12 4 123 0 247-7 215-8 225-29 242-23 19-25 19-135 8z"/>
    <path d="m655 874c-92-19-127-23-149-15-36 13-66-1-66-32 0-12 11-74 24-137s27-143 31-178c10-85 19-92 108-86 175 13 240 22 255 38 14 14 16 41 13 199-1 112-7 192-14 207-16 34-54 35-202 4zm125-208v-133l-37-7c-66-10-153-7-157 7-10 32-43 222-40 226 5 5 176 39 207 40l27 1z"/>
  </g>
</svg>
