<?xml version="1.0"?>
<svg xmlns="http://www.w3.org/2000/svg" height="200pt" preserveAspectRatio="xMidYMid meet" viewBox="0 0 200 200" width="200pt">
  <g transform="matrix(.1 0 0 -.1 0 200)">
    <path d="m606 1803c-90-111-133-157-251-263-117-105-136-126-133-149 2-20 9-27 29-29 24-3 71 27 175 113l31 25 6-192c3-106 5-193 4-194s-67-12-147-23c-143-21-170-31-170-66 0-38 47-43 205-20 54 8 100 13 102 12 6-7-47-240-71-310-14-43-69-175-122-294-52-118-93-222-90-229 8-20 43-17 66 6 49 49 154 262 220 448l36 103 12-188c7-103 15-250 19-326 6-144 14-167 52-167 41 0 44 21 38 213-6 174-19 393-33 577l-7 85 98-103c79-83 102-102 126-102 25 0 49 22 49 45 0 3-52 60-115 126-63 67-115 124-115 129 0 4 53 11 118 15 160 10 192 16 209 41 12 19 11 24-5 43-18 23-18 23-172 12-85-7-167-14-181-17l-26-5-6 122c-4 67-7 174-7 237v114l46 52c57 62 84 104 84 132 0 42-48 59-74 27z"/>
    <path d="m1005 1310c-17-18-17-28-5-152 7-73 15-290 17-483 3-317 5-351 20-363 10-7 24-10 33-6 18 7 180 6 390-2 106-4 162-11 177-20 35-22 72-18 82 8 12 32 26 452 25 718-2 263-9 298-63 314-35 10-372-6-520-25-68-8-77-7-96 11-27 25-37 25-60 0zm643-235c2-88 0-278-3-421l-7-262-152 4c-83 3-202 7-265 10l-114 6 6 152c6 138 0 307-19 552l-7 91 204 12c233 14 318 18 339 17 13-1 16-28 18-161z"/>
  </g>
</svg>
