<?xml version="1.0"?>
<svg xmlns="http://www.w3.org/2000/svg" height="200pt" preserveAspectRatio="xMidYMid meet" viewBox="0 0 200 200" width="200pt">
  <g transform="matrix(.1 0 0 -.1 0 200)">
    <path d="m970 1829c-96-5-231-15-300-22-71-8-129-11-134-6-16 14-52 10-66-6-11-13-7-50 23-208 20-106 39-218 43-250 3-31 12-63 20-71 22-23 115-30 289-21 88 4 233 10 322 14 125 5 165 9 176 21 8 8 28 83 46 165 18 83 43 190 57 239 28 100 25 132-12 146-29 11-208 11-464-1zm386-111c-3-18-23-107-44-198l-38-165-144-6c-80-4-223-12-319-18-193-12-191-13-191 49 0 19-14 100-30 180s-30 146-30 146c0 12 441 39 699 42l104 2z"/>
    <path d="m1280 859c-102-4-198-12-213-18l-29-11 4-275c3-158 9-280 14-285 15-15 742-16 757-1 17 17 26 133 26 352 1 234 5 227-116 240-89 9-183 9-443-2zm393-85 77-7v-162c0-89-3-183-6-209l-7-46h-298-299v23c0 12-5 103-10 202s-6 182-4 185c3 3 85 8 182 11s202 6 233 7 90-1 132-4z"/>
    <path d="m450 833c-85-8-192-22-238-32-68-15-84-16-93-4-18 21-48 15-61-12-9-20-9-51 1-133 25-221 53-398 67-419 15-24 43-30 60-13 9 9 94 15 513 34 55 3 87 9 92 18 10 15 10 329 1 466-5 66-11 95-22 102-20 13-133 11-320-7zm254-125c3-29 6-121 6-205v-152l-32-5c-18-3-121-11-228-16-107-6-209-13-226-16l-30-6-27 193c-15 105-26 194-24 195 17 17 356 60 498 63l56 1z"/>
  </g>
</svg>
