<?xml version="1.0"?>
<svg xmlns="http://www.w3.org/2000/svg" height="200pt" preserveAspectRatio="xMidYMid meet" viewBox="0 0 200 200" width="200pt">
  <g transform="matrix(.1 0 0 -.1 0 200)">
    <path d="m1126 1864c-83-8-161-20-175-27-24-12-26-17-25-82 1-39 9-131 17-205 9-74 20-193 23-263 6-111 10-129 26-138 12-7 123-8 322-3 224 5 305 4 310-5 10-16 41-14 56 4s97 491 106 610c10 123 18 120-275 122-142 0-295-5-385-13zm573-80c2-2-2-40-8-86-21-146-22-149-40-143-17 5-386-9-537-21l-80-6-14 113c-7 63-13 116-12 119 2 5 109 17 272 28 96 7 410 4 419-4zm-49-331c-1-24-36-202-41-207-2-2-126-7-276-11l-271-7-6 43c-5 38-14 167-12 170 2 4 409 26 499 28 96 1 107-1 107-16z"/>
    <path d="m425 1413c-91-8-262-34-288-45-15-6-30-20-33-32-3-11 2-89 11-171 10-83 18-226 20-319 2-129 6-170 16-177 8-5 34-7 59-4s153 7 285 10c212 4 241 6 252 22 9 12 13 60 13 158 0 78 3 229 7 336 5 176 4 196-11 212-15 15-37 17-154 15-75-1-155-3-177-5zm262-97c-3-8-9-134-13-280l-7-265-41-5c-23-3-120-8-217-12l-177-6-6 114c-4 62-14 184-22 271-9 88-14 161-12 163 12 12 226 32 352 33 123 1 147-1 143-13z"/>
    <path d="m1095 969c-193-14-247-22-259-41-7-12-2-70 22-220 34-216 62-445 62-509 0-43 31-86 53-72 7 4 196 10 422 13l410 5 14 30c10 20 17 85 22 200 4 94 10 186 14 205 3 19 12 105 20 190 11 121 11 160 2 180l-12 25-325 1c-179 1-379-3-445-7zm696-73c3-3 0-59-6-126-8-87-15-124-25-130-8-6-143-10-301-10s-333-5-389-10c-56-6-104-10-106-8-2 3-44 237-44 250 0 12 130 21 375 28 367 9 491 11 496 6zm-39-503c-2-87-5-159-6-160 0-1-166-3-368-5l-366-3-11 75c-6 41-13 109-17 151l-7 77 99 6c55 4 108 8 119 10s142 4 291 5l272 1z"/>
  </g>
</svg>
