<?xml version="1.0"?>
<svg xmlns="http://www.w3.org/2000/svg" height="200pt" preserveAspectRatio="xMidYMid meet" viewBox="0 0 200 200" width="200pt">
  <g transform="matrix(.1 0 0 -.1 0 200)">
    <path d="m906 1894c-13-12-16-39-16-130 0-110-1-114-22-118-13-3-84-15-158-26-177-28-208-37-215-59-7-24 3-48 23-53 9-3 49 0 87 7l70 11 35-125 35-126-80-11c-44-7-141-19-215-28s-162-22-195-29c-55-11-61-15-78-50-17-37-17-40 7-140 32-134 46-238 46-348 0-92 17-378 25-415 7-30 33-38 63-18 25 16 25 17 18 128-3 61-9 172-13 246l-6 135 95 12c114 13 160 35 241 112 80 76 137 196 137 288 0 18 2 33 4 33s61 9 132 20 136 20 144 20c13 0 21-31 39-147 38-251 53-282 145-303 65-14 216-4 383 26 73 13 135 24 139 24 7 0-1-469-9-476-2-2-29 7-60 22-59 26-77 25-77-5 0-25 75-97 127-122 41-20 45-20 68-5 14 9 27 26 29 39 12 54 21 478 16 754-4 273-7 304-23 320-27 28-202 29-425 4-100-12-191-21-201-21-17 0-17 4 5 78 12 43 25 99 29 125l7 47h84c72 0 87 3 105 21s19 23 6 42c-14 21-22 22-163 22-82 0-186-3-231-7l-83-7v105c0 58-5 114-10 125-13 23-43 25-64 3zm259-351c-6-43-52-203-61-212-8-8-259-40-265-33-9 9-79 235-75 240 8 7 299 46 390 51 16 1 18-4 11-46zm615-436v-183l-122-23c-147-28-327-45-373-37-18 4-38 13-45 20-20 25-73 352-57 357 24 8 429 47 500 48l97 1zm-1075 41c-14-75-50-151-92-198-57-63-127-97-225-108l-77-8-11 65c-6 37-20 99-30 139-11 40-20 74-20 76 0 6 69 17 265 41 99 12 184 23 188 24 5 0 6-14 2-31z"/>
    <path d="m710 678c-14-32 31-383 51-403 25-25 72-23 463 23 44 5 62 12 72 28 13 18 12 24-4 45-16 20-18 33-11 79 4 30 8 87 8 126 1 104 1 104-195 104-145 0-244-9-285-25-10-4-19 2-27 20-15 33-58 35-72 3zm486-158c-12-144-8-138-85-145-36-4-113-13-170-21-57-9-105-13-108-10-4 4-32 186-33 213 0 22 113 38 299 41l104 2z"/>
  </g>
</svg>
