<?xml version="1.0"?>
<svg xmlns="http://www.w3.org/2000/svg" height="200pt" preserveAspectRatio="xMidYMid meet" viewBox="0 0 200 200" width="200pt">
  <g transform="matrix(.1 0 0 -.1 0 200)">
    <path d="m1134 1918c-11-13-46-59-78-102-57-79-68-118-35-124 46-9 193 162 187 217-4 36-46 41-74 9z"/>
    <path d="m620 1910c-8-15-7-28 6-52 29-57 114-167 135-173 24-8 49 11 49 37 0 18-111 183-135 200-19 14-44 8-55-12z"/>
    <path d="m1205 1602c-33-1-139-11-235-22-96-10-223-22-282-26-114-7-132-15-126-56 3-23 4-23 146-21l144 1-7-76c-4-43-8-78-9-79s-39-5-85-9c-82-7-111-20-111-49 0-32 41-43 125-36 44 4 81 7 81 7 1-1 4-39 6-87l6-85-158-17c-87-9-164-19-173-23-24-9-28-31-8-55 17-22 19-22 147-10 71 6 144 14 162 17l32 5v-139-139l-122-7c-241-14-584-62-614-87-19-15-18-44 2-60 13-10 45-8 187 14 209 32 225 33 557 54 146 9 431 17 633 17 310 2 370 4 377 16 14 21 12 46-3 58-22 19-410 26-675 13-134-7-246-11-248-9s-6 65-10 140l-7 135 49 7c27 3 121 9 209 12 88 4 166 11 173 17 20 16 14 45-13 63-22 15-44 16-158 10-73-4-160-11-195-15l-63-7 3 85 3 86 86 5c111 7 145 32 102 76-15 14-30 16-110 10l-93-6v78 79l36 6c20 3 100 12 177 18 78 7 148 17 155 22 19 15 10 59-13 66-11 3-47 5-80 3z"/>
    <path d="m1465 959c-33-22-109-65-168-95-93-47-108-58-105-77s9-22 48-21c63 2 142 35 247 104 95 62 109 79 93 111-16 29-49 23-115-22z"/>
    <path d="m430 885c-29-35 9-69 133-118 75-30 105-33 131-14 36 26-4 58-136 107-32 12-60 26-63 31-9 14-51 11-65-6z"/>
    <path d="m865 519c-134-10-357-37-379-45-24-9-20-53 19-203 19-74 35-136 35-137 0-21 78-25 437-24 452 0 426-5 438 86 3 30 20 107 36 170 34 136 33 128 13 148-13 14-49 16-252 15-130-1-286-6-347-10zm511-88c-15-47-46-189-46-208v-23h-268c-148 0-309-3-359-6l-90-7-26 104c-17 67-22 106-16 110 27 16 476 45 727 46 72 0 82-2 78-16z"/>
  </g>
</svg>
