<?xml version="1.0"?>
<svg xmlns="http://www.w3.org/2000/svg" height="200pt" preserveAspectRatio="xMidYMid meet" viewBox="0 0 200 200" width="200pt">
  <g transform="matrix(.1 0 0 -.1 0 200)">
    <path d="m902 1968c-7-7-12-42-12-85 0-61-3-73-16-73-28 0-338-30-360-35-38-8-41-55-4-75 17-9 51-7 308 16l72 7v-90-91l-62-5c-35-4-96-9-137-13-53-4-79-12-93-26-17-17-18-22-5-41 17-26 0-26 342-4 143 10 295 18 339 20 68 2 81 5 93 24 13 19 12 24-8 44-22 22-25 22-201 16l-178-7v89 88l93 7c50 4 162 6 246 5 138-1 156 1 168 17 16 22 16 26-1 50-14 18-28 19-265 18l-251-2v67c0 68-10 91-40 91-9 0-21-5-28-12z"/>
    <path d="m1008 1349c-147-10-296-35-327-55-22-15-23-21-18-78 8-87 46-244 65-262 11-12 26-14 51-10 20 4 132 13 250 21s218 18 223 23c13 13 59 216 65 286 5 50 3 62-13 73-20 14-104 15-296 2zm222-86c-1-5-11-51-24-103l-23-95-99-8c-54-4-142-11-194-16s-97-7-99-5-14 46-26 98l-22 95 21 5c19 4 160 21 246 29 72 7 220 7 220 0z"/>
    <path d="m1250 914c-41-37-108-92-149-122-70-54-77-57-142-60-63-4-73-2-117 27-26 17-82 60-123 96-75 65-95 75-117 53-26-26-12-54 62-119 41-35 73-65 72-67-5-4-201-20-386-32-91-6-187-13-213-16-73-10-100-48-55-78 19-12 40-13 108-6 47 5 204 16 350 25s358 23 471 31 356 17 540 20c194 4 339 11 347 17 6 5 12 20 12 33 0 44-28 47-385 40-275-5-327-4-315 7 8 7 50 44 93 81 61 55 77 74 77 96 0 26-15 40-43 40-7 0-46-30-87-66z"/>
    <path d="m1060 579c-41-4-142-13-225-19-82-6-173-15-202-21-32-6-59-7-70-1-23 12-40 6-54-19-13-25 74-365 101-393 18-19 22-19 152-2 76 10 241 20 386 23 165 4 255 10 260 17 5 6 14 43 21 81 8 39 26 120 42 182 34 131 34 127 13 147-13 13-43 16-182 15-92-1-201-5-242-10zm336-86c-20-71-37-137-46-189l-12-61-221-6c-122-4-271-14-331-22-60-9-112-12-116-8-4 5-19 54-33 109-15 56-29 108-32 117-5 10 3 16 27 21 58 11 555 48 726 54 37 2 43-1 38-15z"/>
  </g>
</svg>
