<?xml version="1.0"?>
<svg xmlns="http://www.w3.org/2000/svg" height="200pt" preserveAspectRatio="xMidYMid meet" viewBox="0 0 200 200" width="200pt">
  <g transform="matrix(.1 0 0 -.1 0 200)">
    <path d="m1314 1863c-138-160-198-253-177-274 19-19 49 0 132 86 117 122 140 165 105 199-22 22-33 20-60-11z"/>
    <path d="m718 1855c-14-31-6-43 107-162 85-91 109-105 133-81 21 21 13 49-25 92-157 178-192 202-215 151z"/>
    <path d="m330 1840c-18-33-3-57 68-107 37-26 93-71 124-100 57-53 84-63 106-41 20 20 14 45-19 83-37 41-234 185-254 185-8 0-19-9-25-20z"/>
    <path d="m1340 1519c-463-24-576-33-800-60-135-17-256-32-270-33-14-2-31-4-37-4-20-3-16-39 27-208 43-168 63-204 100-184 10 5 20 16 23 24s-10 76-30 150c-20 75-33 139-30 142 9 9 407 52 582 63 246 16 667 33 716 30l46-4-136-126c-145-134-184-186-162-213 8-9 17-16 22-16 14 0 278 230 341 297 68 73 81 108 48 135-19 16-40 18-154 17-72-1-201-6-286-10z"/>
    <path d="m1085 1299c-152-11-391-37-429-47-47-13-52-30-32-113 9-41 25-125 35-188 11-62 24-117 31-121s40-5 73-2l60 5-24-44c-24-44-104-130-192-205-38-33-47-46-43-65 3-13 10-100 17-194 6-93 14-181 18-195l8-25 419 3c230 2 423 7 427 11 10 10 42 261 52 407 11 163 23 160-380 119-137-14-268-30-290-35-66-15-67-12-24 42 22 29 56 82 74 118l34 67 127 7c70 3 133 11 140 17 7 5 17 39 23 74s24 108 40 162c40 134 45 164 29 185-18 24-53 27-193 17zm101-101c-4-13-22-77-40-143l-33-120-84-7c-46-3-128-8-181-10-93-4-98-3-98 17 0 21-33 189-44 223-6 18 1 20 110 32 65 7 163 16 218 20 171 12 159 13 152-12zm229-685c-3-38-13-120-21-183s-14-121-14-128c0-11-9-13-37-9-21 3-177 2-348-2-171-5-311-7-312-6-1 0-7 55-13 121-6 65-13 131-16 146-5 25-2 28 58 46 35 11 96 25 137 32 102 17 410 47 499 49l74 1z"/>
  </g>
</svg>
