<?xml version="1.0"?>
<svg xmlns="http://www.w3.org/2000/svg" height="200pt" preserveAspectRatio="xMidYMid meet" viewBox="0 0 200 200" width="200pt">
  <g transform="matrix(.1 0 0 -.1 0 200)">
    <path d="m665 1869c-116-12-295-39-331-50-17-5-41-20-54-33l-22-24 32-164c18-90 37-171 42-180 9-18 53-25 62-10 7 11 313 35 380 30 45-3 51 0 62 22 13 26 34 233 34 332 0 92-13 97-205 77zm115-106c0-16-5-74-12-130l-12-103h-40c-23 0-102-7-176-14-74-8-136-14-137-13-1 2-11 43-22 92-10 50-22 102-26 116l-6 26 113 17c95 14 226 29 301 35 12 1 17-6 17-26z"/>
    <path d="m1087 1859c-19-15-19-18 2-200 19-164 24-186 44-203 17-14 31-17 66-12 24 3 124 6 222 6 159 0 181 2 197 18 23 23 115 346 107 372-13 40-36 43-334 39-239-3-288-7-304-20zm504-194-35-125h-130c-72 0-154-3-181-6l-51-6-12 109c-7 60-12 116-12 125 0 21 31 24 276 26l180 2z"/>
    <path d="m936 1474c-9-8-16-26-16-39 0-29-78-185-93-185-44 0-405-34-461-43-75-13-100-33-80-64 14-21 72-21 321-1 183 15 182 16 101-58-79-73-201-148-328-200-69-29-163-68-210-88-83-34-105-55-82-78 24-24 101-8 253 52 85 34 182 77 217 96 101 57 217 150 273 220 49 62 52 64 73 50 50-37 223-131 313-172 179-81 487-172 594-177 73-3 94 57 29 79-19 7-75 20-125 29-147 27-374 108-555 198l-165 82 50 6c105 15 416 27 541 22 143-6 174 1 174 41 0 13-6 28-12 33-25 20-305 24-533 8-121-8-230-15-241-15h-22l24 58c13 31 24 74 24 94 0 34-20 68-40 68-5 0-16-7-24-16z"/>
    <path d="m1390 739c-140-12-318-57-336-84-12-18-10-49 17-245 19-134 37-231 45-239 11-12 19-12 54-1 31 10 96 12 295 7 193-5 256-3 262 6 10 16 41 272 49 413 6 105 6 112-15 133-19 19-31 21-148 20-71-1-171-5-223-10zm300-112c0-18-9-104-20-192s-20-162-20-165-105-5-234-5h-233l-25 165-24 165 26 12c52 24 261 49 433 52l97 1z"/>
    <path d="m580 724c-108-24-286-54-319-54-25 0-32-5-38-27-12-49 69-469 96-496 8-8 25-7 62 2 32 9 133 15 268 17 190 3 217 5 228 21 16 22 19 504 3 534-10 17-22 19-123 18-62-1-141-7-177-15zm220-263v-198l-187-7c-104-4-198-10-210-13-18-4-23 1-32 34-16 59-63 304-59 307 3 3 285 55 358 66 25 4 64 8 88 9l42 1z"/>
  </g>
</svg>
