<?xml version="1.0"?>
<svg xmlns="http://www.w3.org/2000/svg" height="200pt" preserveAspectRatio="xMidYMid meet" viewBox="0 0 200 200" width="200pt">
  <g transform="matrix(.1 0 0 -.1 0 200)">
    <path d="m1345 1674c-398-23-806-75-997-125-59-16-81-18-97-10-17 9-24 8-41-9-11-11-20-31-20-45 0-77 89-718 120-868 47-226 60-272 76-284 24-17 155-16 374 2 145 12 412 23 915 36 39 1 83-2 99-6 24-7 33-4 48 15 17 21 18 56 18 630 0 577-1 609-19 631-16 20-31 23-127 30-106 7-246 8-349 3zm298-91 107-6v-287-287l-27-1c-16 0-57-5-93-11s-117-11-180-11c-138 0-192 19-215 72-32 77-60 321-60 519 0 3 226 15 296 17 36 1 114-1 172-5zm-529-413c32-175 52-210 144-253 62-29 72-31 186-30 106 1 210 11 284 30l22 5v-195c0-107-3-208-6-225-6-29-9-31-68-36-33-3-218-10-411-16-192-5-425-17-517-25-92-9-197-15-234-13l-67 3-33 150c-18 83-33 157-33 165-1 10 22 26 57 42 75 35 181 125 225 190 81 124 125 275 134 464l6 111 121 12c66 7 130 13 141 14 19 2 20-6 26-153 4-85 14-193 23-240zm-400 288c-11-143-35-253-77-348-35-81-52-106-112-165-39-38-90-85-113-103-41-33-41-33-46-10-27 127-88 600-79 608 21 19 309 78 390 79l41 1z"/>
  </g>
</svg>
