<?xml version="1.0"?>
<svg xmlns="http://www.w3.org/2000/svg" height="200pt" preserveAspectRatio="xMidYMid meet" viewBox="0 0 200 200" width="200pt">
  <g transform="matrix(.1 0 0 -.1 0 200)">
    <path d="m1438 1665c-3-3-165-10-359-15-195-5-415-16-489-24-341-36-361-39-371-58-6-12-1-83 15-215 21-166 25-257 29-564 6-386 11-430 54-442 10-3 216-5 458-5s551-6 687-13c179-9 254-10 271-2l24 11 7 259c3 142 13 375 21 518s15 315 15 382c0 119-1 123-24 138-35 23-320 48-338 30zm266-102c10-7 4-193-19-568-8-132-15-318-15-414v-174l-72 7c-127 12-866 25-1049 19l-176-6-7 39c-4 21-11 203-16 404-7 286-13 394-29 499-12 74-20 135-19 136 6 5 302 36 428 45 74 5 227 10 340 11s248 5 300 9c96 8 317 3 334-7z"/>
    <path d="m885 1259c-107-9-182-24-202-41-17-14-16-103 2-258 24-198 22-190 58-205 46-18 592-32 612-15 17 14 20 56 5 65-6 4-8 80-3 216 6 193 5 210-12 229s-30 20-189 19c-94-1-216-5-271-10zm381-251c-4-95-8-173-9-174s-106-4-232-7l-231-6-17 137c-9 75-17 151-17 169 0 31 0 31 63 37 120 12 143 13 296 14l154 2z"/>
  </g>
</svg>
