<?xml version="1.0"?>
<svg xmlns="http://www.w3.org/2000/svg" height="200pt" preserveAspectRatio="xMidYMid meet" viewBox="0 0 200 200" width="200pt">
  <g transform="matrix(.1 0 0 -.1 0 200)">
    <path d="m1688 1794c-3-3-158-5-344-5-365 1-772-13-1002-32-80-7-146-9-151-4-13 13-48-1-53-21-3-10 1-54 8-98 20-115 33-515 34-1015 0-377 2-438 15-449 12-10 50-10 188-1 210 14 1010 18 1201 5 224-15 228-10 214 226-9 157-4 864 8 1206 6 161 6 162-17 178-22 15-89 22-101 10zm26-252c-5-87-9-410-9-720v-562h-63c-35 0-128 5-206 11-135 10-992-4-1117-18l-46-5-6 569c-5 413-11 604-23 702-8 73-13 135-11 137 4 4 354 31 477 37 36 2 278 4 539 4l474 1z"/>
    <path d="m853 1514c-3-8-3-42 1-75 3-33 3-92-1-133l-6-74-101-11c-55-6-146-13-201-17-145-8-147-8-143-47 3-31 4-32 58-35 30-2 124 2 208 8 84 7 156 10 159 7 12-12-50-185-99-277-73-138-97-168-187-239-44-35-81-67-81-72 0-13 31-39 46-39 36 0 149 78 197 136 65 80 153 254 187 373l24 81 24-43c74-125 286-361 426-473 119-95 166-111 181-63 9 28-2 41-91 107-94 69-222 193-318 307-74 87-161 214-152 222 11 11 239 32 357 33 109 0 130 3 150 19 21 16 22 22 11 45-12 26-12 26-127 26-100 0-347-21-411-35-21-5-22-1-26 124-2 88-8 134-17 145-17 21-60 21-68 0z"/>
  </g>
</svg>
