<?xml version="1.0"?>
<svg xmlns="http://www.w3.org/2000/svg" height="200pt" preserveAspectRatio="xMidYMid meet" viewBox="0 0 200 200" width="200pt">
  <g transform="matrix(.1 0 0 -.1 0 200)">
    <path d="m990 1860c-162-4-402-11-532-15-184-6-241-5-252 4-32 27-75-13-62-56 13-42 48-383 56-548 5-99 10-375 10-612v-433l23-14c17-11 32-12 67-5 130 26 1183 40 1423 18 147-13 152-10 142 86-30 307-42 725-25 895 5 47 14 210 21 362 10 211 10 283 1 303l-12 25-282-2c-156-1-416-5-578-8zm785-237c-3-87-13-241-21-343-16-212-18-512-5-680 5-63 12-158 16-210l6-95-438 4c-389 3-849-8-986-25l-47-6-1 304c0 540-14 824-54 1124l-7 51 188 8c236 10 779 21 1108 23l248 2z"/>
    <path d="m1219 1709c-7-15-9-66-4-168l7-147-193-18c-274-24-560-64-586-82-13-8-23-23-23-34 0-37 30-41 167-20 131 20 474 57 573 62l55 2 6-194c4-107 7-275 8-374 1-166 0-178-16-173-10 4-45 16-77 27-53 19-61 20-74 6-14-14-14-17 2-35 10-11 48-38 85-61 36-22 78-50 92-61 36-28 65-13 75 38 7 39-1 539-12 724l-7 106 153 9c131 8 154 12 166 29 18 24 18 30-3 50-14 15-34 16-163 10l-147-7-5 151c-4 98-10 156-18 166-18 21-47 18-61-6z"/>
    <path d="m767 1003c-4-3-7-17-7-29 0-18 19-36 83-78 46-30 90-62 97-71 28-34 77-5 66 39-14 56-209 169-239 139z"/>
  </g>
</svg>
