<?xml version="1.0"?>
<svg xmlns="http://www.w3.org/2000/svg" height="200pt" preserveAspectRatio="xMidYMid meet" viewBox="0 0 200 200" width="200pt">
  <g transform="matrix(.1 0 0 -.1 0 200)">
    <path d="m1168 1825c-6-7-796-31-938-29-45 1-78-3-82-10-12-18-9-141 7-276 8-69 19-259 25-423 5-164 12-302 15-307 3-6 10-143 16-307 11-361 7-349 113-340 39 4 127 11 196 17 75 7 354 10 698 8 493-2 575 0 583 12 5 8 6 22 2 30-3 8-6 22-5 30 4 155 24 555 27 561 3 4 10 229 16 500l10 492-21 21c-20 20-32 21-338 24-175 1-321 0-324-3zm586-397c-3-172-10-396-15-498-6-102-13-297-16-435l-6-250-481 3c-455 4-762-6-876-28-25-4-46-7-48-5-2 1-7 103-12 226-6 123-15 289-20 369-6 80-15 253-20 385-4 132-16 300-26 372-10 73-15 136-11 139 3 3 206 9 452 14 245 4 448 10 452 14 3 3 147 6 320 6h313z"/>
    <path d="m931 1613c-5-10-7-72-4-149l6-131-94-7c-140-10-300-34-315-47-18-15-18-43 0-58 12-10 43-9 143 3 195 22 269 28 256 18-7-4-30-51-52-103-101-247-152-331-306-507-119-136-133-164-84-170 32-4 74 29 163 128 103 113 154 190 228 339l67 136 1-115c0-63 5-221 11-350 12-244 19-280 58-280 45 0 46 12 28 348-10 175-17 334-17 356v39l51-79c66-101 203-237 354-349 141-106 159-117 179-109 47 18-2 84-137 187-147 111-262 226-330 330-66 99-114 194-103 204 4 4 107 11 227 15 232 7 249 11 249 54 0 39-30 43-241 34-107-5-206-9-220-10h-26l-11 136c-7 74-14 140-17 145-10 15-53 10-64-8z"/>
  </g>
</svg>
