<?xml version="1.0"?>
<svg xmlns="http://www.w3.org/2000/svg" height="200pt" preserveAspectRatio="xMidYMid meet" viewBox="0 0 200 200" width="200pt">
  <g transform="matrix(.1 0 0 -.1 0 200)">
    <path d="m1140 1875c-118-7-377-18-575-25-282-9-363-14-374-25-12-12-12-35-1-162 16-175 19-722 6-1163-8-276-7-306 7-319 14-11 54-11 239-1 445 24 915 20 1213-10 108-11 134-1 133 52-2 80 23 859 32 1013 21 352 31 597 25 616-4 11-18 24-32 30-33 12-411 9-673-6zm616-162c-21-305-37-672-46-1032-6-228-12-416-14-418s-75 2-162 8c-204 16-762 15-1034-1-116-7-213-10-216-7-4 3 0 189 6 414 13 404 4 868-19 1023-5 30-8 56-7 57s183 7 406 13 461 15 530 19c69 5 223 9 343 9l219 2z"/>
    <path d="m1175 1626c-17-12-18-23-11-124l6-110-107-6c-60-4-136-9-170-12l-62-5-5 33c-2 18-9 71-15 117-11 88-22 111-51 111-37 0-41-21-28-144 6-63 9-118 5-122-3-3-61-12-129-20-138-16-168-25-168-53 0-41 23-46 153-33 67 7 130 12 139 12 25 0 33-109 19-249-7-63-13-116-15-118-1-2-58-13-126-26-131-24-156-39-134-74 15-25 60-27 156-9 45 9 83 14 85 12 11-11-69-191-112-255-84-123-82-118-63-137 27-27 63-10 113 54 56 71 107 174 136 274 13 44 29 80 38 83 9 4 100 9 202 12l186 6 12-194c14-229 17-243 53-247 44-5 49 18 38 189-5 85-10 175-10 202v47h116c126 0 154 8 154 45s-28 45-159 45c-67 0-121 3-121 8 0 4-7 79-15 167s-15 168-15 178c0 15 12 17 113 17 98 0 116 3 130 18 21 23 21 36 1 56-12 13-39 16-133 16h-118l-7 32c-3 17-9 63-12 102-6 66-24 116-42 116-5 0-17-6-27-14zm6-328c2-13 28-311 29-335v-33h-87c-49-1-133-5-188-9-55-5-100-8-101-7-1 0 2 84 5 186l6 185 65 6c68 6 270 11 271 7z"/>
  </g>
</svg>
