<?xml version="1.0"?>
<svg xmlns="http://www.w3.org/2000/svg" height="200pt" preserveAspectRatio="xMidYMid meet" viewBox="0 0 200 200" width="200pt">
  <g transform="matrix(.1 0 0 -.1 0 200)">
    <path d="m1050 1809c-283-5-586-12-674-17-182-9-193-14-181-87 46-288 59-548 52-1052-3-226-10-420-15-430s-7-24-5-31c11-29 42-32 165-16 208 28 1173 5 1334-31 11-2 30 2 42 11 19 13 22 24 22 92 0 42 7 190 15 327 9 155 15 432 15 728 0 572 15 518-147 515-60-1-340-5-623-9zm677-581c-2-277-11-612-18-746l-13-242-30 5c-166 26-957 50-1146 35-69-6-139-13-157-16l-32-6 4 88c23 478 2 1108-44 1315l-8 37 186 7c102 4 411 11 686 15 275 3 517 7 539 8l38 2z"/>
    <path d="m1423 1518c-6-7-15-35-22-63-26-110-157-340-271-476l-47-57-69 37c-38 20-88 49-111 65-55 37-93 31-93-14 0-27 9-36 73-78 41-27 88-54 105-61 18-8 32-17 32-22 0-16-385-370-444-409-34-22-67-45-73-50-20-17-15-39 12-52 21-9 34-6 88 20 76 38 162 110 360 303l148 144 32-19c18-11 87-55 154-99 97-62 128-78 147-73 27 7 40 33 30 59-3 9-27 30-52 45-93 58-247 155-250 158-2 1 19 31 46 66 183 234 313 523 260 576-16 16-43 15-55 0z"/>
    <path d="m772 1488c-31-31-14-63 87-161 98-97 126-112 151-82 21 25-5 66-104 164-93 91-111 102-134 79z"/>
    <path d="m524 1375c-6-23 5-37 86-115 52-50 99-90 106-90 18 0 44 28 44 48 0 9-38 54-84 99-69 68-90 83-115 83-24 0-32-5-37-25z"/>
  </g>
</svg>
