<?xml version="1.0"?>
<svg xmlns="http://www.w3.org/2000/svg" height="200pt" preserveAspectRatio="xMidYMid meet" viewBox="0 0 200 200" width="200pt">
  <g transform="matrix(.1 0 0 -.1 0 200)">
    <path d="m1050 1809c-283-5-586-12-674-17-182-9-193-14-181-87 46-288 59-548 52-1052-3-226-10-420-15-430s-7-24-5-31c11-29 42-32 165-16 208 28 1173 5 1334-31 11-2 30 2 42 11 19 13 22 24 22 92 0 42 7 190 15 327 9 155 15 432 15 728 0 572 15 518-147 515-60-1-340-5-623-9zm677-581c-2-277-11-612-18-746l-13-242-30 5c-166 26-957 50-1146 35-69-6-139-13-157-16l-32-6 4 88c23 478 2 1108-44 1315l-8 37 186 7c102 4 411 11 686 15 275 3 517 7 539 8l38 2z"/>
    <path d="m935 1424c-284-27-367-51-351-102 10-30 32-34 110-18 39 8 110 18 159 22l87 7v-144-144l-82-17c-90-19-124-42-114-76 10-30 38-35 97-18 29 9 65 16 81 16h28v-195c0-107-1-195-2-196-2 0-55-4-118-9-63-4-155-16-203-26-75-14-91-21-100-41-8-19-7-27 6-40 15-16 25-16 144 0 117 16 359 30 728 44 153 5 189 17 183 56-7 49-58 51-470 22l-78-5v200 200h78c83 0 122 16 122 49s-21 41-116 41h-93l-3 144-3 145 29 5c16 3 89 6 163 6s143 5 154 10c21 12 25 50 7 68-16 16-258 14-443-4z"/>
    <path d="m1290 825c-21-26-2-59 65-108 94-69 111-75 136-50 31 31 18 53-70 116-82 59-110 68-131 42z"/>
  </g>
</svg>
