<?xml version="1.0"?>
<svg xmlns="http://www.w3.org/2000/svg" height="200pt" preserveAspectRatio="xMidYMid meet" viewBox="0 0 200 200" width="200pt">
  <g transform="matrix(.1 0 0 -.1 0 200)">
    <path d="m740 1788c-173-5-325-11-337-13-29-7-31-23-16-130 8-63 12-266 11-685-1-422 2-611 10-649 11-50 11-55-8-68-24-17-26-46-3-68 15-15 68-17 633-13 499 2 620 6 633 16 18 15 18 7-1 302-21 312-33 705-31 999 1 273 0 296-17 308-21 15-347 16-874 1zm797-356c2-312 29-1030 42-1113 5-30 8-55 7-55 0-1-242-4-537-8l-536-7-7 38c-16 88-24 461-17 773s2 539-14 603l-7 27 103 1c57 1 205 5 329 8 124 4 317 8 430 9l205 2z"/>
    <path d="m962 1628c-7-7-12-33-12-59 0-53 1-52-103-64-32-4-65-14-73-22-18-19-18-47 1-63 14-12 32-11 147 6l36 5 4-76c3-69 1-76-17-79-11-2-69-11-130-21-162-25-205-47-190-96 9-27 39-32 88-15 69 23 257 46 434 53 138 5 165 9 179 24 21 23 10 57-22 65-13 3-76 5-139 3l-115-4v77 78h88c73 0 92 3 105 18 22 24 21 35-1 55-14 13-39 17-109 17h-90l-6 46c-2 26-11 50-18 55-20 12-43 11-57-3z"/>
    <path d="m840 1102-23-19 21-107c24-119 54-172 99-178 24-3 19-10-63-81-49-42-120-96-158-120-83-50-99-72-72-92 11-9 30-12 45-9 48 11 133 56 187 100l54 44v-143c0-186 17-235 71-207 23 13 21 3 19 163l-2 128 79-79c54-55 98-88 143-110 82-40 150-51 173-27 25 24 7 48-50 70-59 22-139 69-175 102l-27 25 67 67c108 106 129 171 59 179-20 3-31-5-55-40-38-55-119-131-135-125-7 2-25 22-41 44l-29 41 19 41c19 40 20 40 73 41 44 0 60 5 93 32l40 31-4 99c-3 86-7 101-26 121-21 20-32 22-125 21-56-1-121-7-144-13-36-10-47-9-66 4-22 14-26 14-47-3zm320-142v-70h-109-109l-7 46c-3 26-9 52-11 59-7 17 69 32 164 34l72 1z"/>
  </g>
</svg>
