<?xml version="1.0"?>
<svg xmlns="http://www.w3.org/2000/svg" height="200pt" preserveAspectRatio="xMidYMid meet" viewBox="0 0 200 200" width="200pt">
  <g transform="matrix(.1 0 0 -.1 0 200)">
    <path d="m930 1721c-5-11-10-81-10-155v-135l-32-6c-18-3-116-17-218-31-156-21-188-29-203-46-15-18-16-23-3-42 18-27 52-27 273 4 95 13 176 21 180 17 7-8 29-754 22-761-5-5-323-37-600-61-205-18-277-32-293-58-19-30 5-52 55-52 57 1 411 30 659 55 379 38 748 60 995 60 108 0 124 2 139 19 23 26 13 59-22 68-31 7-490-4-687-17-76-5-141-7-144-4-5 5-32 767-27 770 0 1 105 11 231 23 127 12 238 25 247 27 24 7 34 50 17 70-16 19-84 17-343-11-81-9-151-13-155-10-3 4-7 65-8 136-1 84-6 135-13 144-17 21-47 19-60-4z"/>
  </g>
</svg>
