<?xml version="1.0"?>
<svg xmlns="http://www.w3.org/2000/svg" height="200pt" preserveAspectRatio="xMidYMid meet" viewBox="0 0 200 200" width="200pt">
  <g transform="matrix(.1 0 0 -.1 0 200)">
    <path d="m945 1769c-71-5-231-18-354-29-159-15-227-18-234-11-16 16-42 13-57-4-10-12-10-38 4-133 52-370-22-816-198-1196-51-110-55-131-26-146 32-17 53 2 98 94 156 315 246 735 228 1066-4 69-11 148-16 175-4 28-7 51-6 52 0 1 111 11 246 23 183 17 348 23 650 27 251 3 410 9 418 15 19 16 14 45-10 62-19 14-65 16-318 15-162-1-353-6-425-10z"/>
    <path d="m960 1515c-9-11-11-55-6-182 4-93 9-180 12-194l5-27-103-6c-144-10-261-26-275-38-18-15-16-55 3-62 9-3 66-2 128 4 61 5 141 11 178 12l66 3 6-35c3-19 6-155 6-302v-268h-27c-16 0-118-7-228-15s-236-15-280-16c-111-1-130-8-130-44 0-28 3-30 45-36 25-3 117-2 205 2 428 24 536 26 882 21 399-5 403-5 403 44 0 17-8 28-26 34-15 6-177 10-389 10h-364v213c0 116-3 253-7 303l-7 91 129 6c71 4 166 7 211 7 61 0 86 4 97 16 22 22 20 41-6 57-19 12-62 13-227 8-132-4-205-3-207 4-1 6-8 91-14 189-6 99-15 187-21 198-12 22-42 24-59 3z"/>
  </g>
</svg>
