<?xml version="1.0"?>
<svg xmlns="http://www.w3.org/2000/svg" height="200pt" preserveAspectRatio="xMidYMid meet" viewBox="0 0 200 200" width="200pt">
  <g transform="matrix(.1 0 0 -.1 0 200)">
    <path d="m771 1877c-6-8-15-83-20-167-6-84-14-156-18-160s-100-17-213-29-215-24-226-27c-27-5-37-29-24-55 14-25 89-25 293 0 81 9 147 14 147 10 0-21-88-257-124-335-50-105-145-250-155-238-4 5-18 77-31 159-29 187-32 197-66 193-16-2-30-11-34-23-4-11 6-105 21-210 15-104 28-200 28-213 1-17-28-51-100-121-108-106-121-133-64-139 25-2 44 9 103 58l72 61v-255c0-141 4-266 10-280 11-29 50-36 69-12 9 10 12 100 10 325l-1 311 50 67c134 182 176 266 258 508l54 160 52 7c135 17 485 40 693 45 186 4 233 8 248 21 22 19 22 36 0 58-16 15-37 16-233 10-118-3-325-15-460-26s-252-20-261-20c-15 0-16 15-12 143 6 151-1 187-36 187-10 0-24-6-30-13z"/>
    <path d="m1009 1249c-8-16-8-59 0-167 6-80 10-146 9-147-2-1-77-15-168-30-91-16-171-33-177-38-21-16-15-47 12-59 20-9 54-7 163 11 75 12 145 25 155 27 16 5 17-12 17-269v-274l-102-7c-165-10-321-27-345-37-16-6-23-17-23-34 0-36 31-45 126-35 208 23 401 32 760 35 215 1 400 6 412 9 28 9 35 43 12 66-18 18-39 18-384 15l-366-3 2 276 3 277 135 22c74 12 155 22 180 22 78 2 121 39 89 78-17 19-113 14-289-17-63-11-118-20-121-20s-11 66-17 147c-7 80-17 152-23 160-17 20-47 16-60-8z"/>
  </g>
</svg>
