<?xml version="1.0"?>
<svg xmlns="http://www.w3.org/2000/svg" height="200pt" preserveAspectRatio="xMidYMid meet" viewBox="0 0 200 200" width="200pt">
  <g transform="matrix(.1 0 0 -.1 0 200)">
    <path d="m1269 1784c-10-13-14-78-17-273l-4-257-127-42c-70-23-133-42-140-42-10 0-13 23-11 103 4 132 5 127-30 127-42 0-51-24-59-153l-6-110-93-31c-93-31-118-50-106-80 10-27 48-29 119-7 37 12 71 21 76 21s9-146 9-337c0-381 0-381 76-438 66-50 237-89 394-89 129 0 371 33 437 60 44 17 47 40 28 178s-21 146-46 146c-30 0-41-45-37-149l3-95-60-12c-231-44-429-45-575-1-59 18-92 33-107 52l-23 26 2 346 3 345 135 44c74 24 136 44 136 44 1 0 5-107 9-237 4-136 11-243 17-250 16-20 45-15 62 9 13 19 16 62 16 265v242l38 10c102 28 215 51 285 59l77 8v-92c0-95-16-191-46-280-19-57-85-204-91-204-2 0-27 10-54 21-54 23-76 17-65-18 8-25 114-113 136-113 29 0 62 48 113 162 73 163 107 323 107 499 0 60-4 82-19 100l-19 23-117-13c-64-7-168-25-230-40l-113-28-6 21c-3 12-6 122-6 247 0 232-3 249-41 249-9 0-23-7-30-16z"/>
    <path d="m338 1549c-16-9-18-26-18-127v-117l-72-25c-86-30-108-55-79-91l19-24 63 23c34 12 64 21 65 19 2-2 7-167 10-368l7-364-115-92c-138-111-151-125-146-155 2-17 10-24 30-26 23-3 78 37 322 232 162 130 304 247 314 261 25 31 18 63-14 71-26 7-25 7-214-145-47-38-86-68-86-68-1 1-4 155-8 343l-7 340 38 12c21 6 78 19 127 29 74 15 90 22 99 42 10 20 8 26-12 42-29 24-36 24-153-5-54-13-100-21-103-18s-5 47-5 98c0 71-4 96-16 108-18 19-23 19-46 5z"/>
  </g>
</svg>
