<?xml version="1.0"?>
<svg xmlns="http://www.w3.org/2000/svg" height="200pt" preserveAspectRatio="xMidYMid meet" viewBox="0 0 200 200" width="200pt">
  <g transform="matrix(.1 0 0 -.1 0 200)">
    <path d="m1575 1789c-403-27-655-55-674-74-12-12-12-29-2-112 18-147 34-585 28-778-4-154-8-183-41-310-20-77-64-206-96-287-33-82-60-156-60-166 0-41 45-55 73-24 18 20 102 220 135 322 62 191 74 264 79 492l5 217 55-77c90-125 183-242 250-313 35-37 63-70 63-74s-35-58-77-119c-83-119-203-244-288-300-68-45-82-63-68-84 17-28 49-25 112 8 106 57 241 203 383 414 3 5 69-51 146-125 222-214 352-295 381-240 7 12 9 26 6 31-4 6-50 44-104 84-54 41-159 134-234 206l-137 133 24 41c104 178 232 431 248 491 11 39 10 47-5 62s-30 16-174 5c-87-6-237-16-333-22s-194-12-217-14l-43-4v92c0 96-14 291-25 349l-7 34 74 7c284 25 432 37 561 45 88 5 154 14 162 21 21 18 18 57-4 70-21 11-29 11-196-1zm90-696c-8-20-45-91-82-157-36-67-82-150-101-186l-35-64-65 69c-36 39-110 129-165 200l-99 130 53 7c30 3 151 11 269 18 118 6 217 14 219 16 16 15 19-2 6-33z"/>
    <path d="m338 1549c-16-9-18-26-18-127v-117l-72-25c-86-30-108-55-79-91l19-24 63 23c34 12 64 21 65 19 2-2 7-167 10-368l7-364-115-92c-138-111-151-125-146-155 2-17 10-24 30-26 23-3 78 37 322 232 162 130 304 247 314 261 25 31 18 63-14 71-26 7-25 7-214-145-47-38-86-68-86-68-1 1-4 155-8 343l-7 340 38 12c21 6 78 19 127 29 74 15 90 22 99 42 10 20 8 26-12 42-29 24-36 24-153-5-54-13-100-21-103-18s-5 47-5 98c0 71-4 96-16 108-18 19-23 19-46 5z"/>
  </g>
</svg>
