<?xml version="1.0"?>
<svg xmlns="http://www.w3.org/2000/svg" height="200pt" preserveAspectRatio="xMidYMid meet" viewBox="0 0 200 200" width="200pt">
  <g transform="matrix(.1 0 0 -.1 0 200)">
    <path d="m962 1728c-7-7-12-31-12-54 0-55-26-203-50-284-25-84-81-201-126-262-40-53-43-91-7-96 47-7 135 105 184 235 22 57 27 62 59 67 19 3 109 17 200 31 270 41 491 57 504 37 3-5 1-157-4-338l-9-329-41-195c-22-107-43-207-46-222-4-16-10-28-13-28-4 0-27 20-51 45-46 47-76 57-87 29-9-25 25-82 88-147 103-107 121-79 206 333l37 175 4 371c3 343 2 371-14 385-36 29-296 13-612-38-89-14-164-24-166-22s2 38 10 79c17 95 18 212 2 228-7 7-19 12-28 12s-21-5-28-12z"/>
    <path d="m338 1549c-16-9-18-26-18-127v-117l-72-25c-86-30-108-55-79-91l19-24 63 23c34 12 64 21 65 19 2-2 7-167 10-368l7-364-115-92c-138-111-151-125-146-155 2-17 10-24 30-26 23-3 78 37 322 232 162 130 304 247 314 261 25 31 18 63-14 71-26 7-25 7-214-145-47-38-86-68-86-68-1 1-4 155-8 343l-7 340 38 12c21 6 78 19 127 29 74 15 90 22 99 42 10 20 8 26-12 42-29 24-36 24-153-5-54-13-100-21-103-18s-5 47-5 98c0 71-4 96-16 108-18 19-23 19-46 5z"/>
    <path d="m1087 1174c-20-20 0-58 78-152 47-56 92-102 100-102 22 0 33 31 24 66-13 46-139 188-170 192-14 2-28 0-32-4z"/>
    <path d="m1333 790c-49-29-327-299-338-327-8-20-6-28 10-39 10-8 22-14 26-14 34 0 363 347 357 377-5 24-19 25-55 3z"/>
  </g>
</svg>
