<?xml version="1.0"?>
<svg xmlns="http://www.w3.org/2000/svg" height="200pt" preserveAspectRatio="xMidYMid meet" viewBox="0 0 200 200" width="200pt">
  <g transform="matrix(.1 0 0 -.1 0 200)">
    <path d="m1055 1800c-106-92-291-207-435-270-93-41-112-59-90-85 23-27 89-13 206 44 58 28 108 51 110 51 3 0 3-62 2-137l-3-137-176-22c-220-27-237-31-250-56-16-29 15-61 53-53 15 3 41 8 58 11l30 6v-106c0-102-1-106-22-110-13-2-108-18-212-35s-200-38-213-46c-27-18-29-37-7-56 13-11 43-8 177 14 89 15 188 30 220 33l57 7v-45c0-25 3-65 6-89l6-44-58-15c-52-13-59-18-62-42-5-45 18-48 168-23 74 12 159 26 188 29l52 7v-141c0-77 0-143 0-147 0-5-60-15-133-25-146-17-223-31-305-54-44-12-52-18-52-38 0-45 19-49 132-27 232 45 531 72 866 77 144 2 267 6 272 9 14 9 12 51-2 63-23 18-191 23-413 12-121-5-232-13-247-16l-28-6v150 149l38 7c20 4 138 9 262 12 133 3 230 10 237 16s13 18 13 27c0 35-21 41-142 41h-118v80c0 69 2 80 18 82 9 2 135 3 280 3 249 0 264 1 278 19 18 25 18 31-2 50-13 14-54 16-295 16h-279v79c0 43-3 93-6 110l-6 31h69c74 0 93 10 93 47 0 43-31 47-246 34-108-7-197-11-199-9s-7 73-11 159l-7 156 49 33c68 46 152 118 170 146 12 17 13 27 4 43-16 31-43 26-95-19zm99-680c4-49 5-98 1-109-7-23-44-31-139-31h-71l-2 104-3 105 43 5c23 4 62 8 87 9 25 2 52 4 61 5 14 2 18-13 23-88zm-294-44v-104l-57-6c-32-4-79-9-104-12l-46-5-5 103c-3 57-5 104-4 105 4 4 138 20 179 22l37 1zm290-255v-78l-77-7c-42-3-89-6-105-6h-28v79 80l33 4c17 2 65 5 105 5l72 2zm-298 4c4-119 7-109-37-116-22-4-68-10-102-14l-63-7v90 91l48 4c26 2 71 4 100 5l52 2z"/>
  </g>
</svg>
