<?xml version="1.0"?>
<svg xmlns="http://www.w3.org/2000/svg" height="200pt" preserveAspectRatio="xMidYMid meet" viewBox="0 0 200 200" width="200pt">
  <g transform="matrix(.1 0 0 -.1 0 200)">
    <path d="m1535 1884c-15-15-15-55-9-425 4-243 3-409-2-409s-27 12-49 25c-45 28-73 32-81 10-15-37 106-145 162-145 61 0 64 11 64 209 0 386-12 722-27 737-19 18-38 18-58-2z"/>
    <path d="m550 1814c-152-21-388-70-406-85-19-15-15-48 8-63 12-7 40-6 102 7 47 10 90 16 94 13 8-4 17-53 38-183 4-30 3-31-36-38-80-14-88-85-10-85 34 0 40-3 40-20 0-53-60-189-117-268-51-68 18-105 77-40s130 235 130 314c0 36 6 38 106 50l61 6 6-58c4-33 9-114 13-182 7-124 16-152 49-152 7 0 21 8 31 17 15 15 16 32 11 138-4 66-10 148-13 183l-7 62h30c84 0 125 28 103 70-9 17-21 20-74 20-74 0-70-6-81 133l-7 87h59c84 0 130 39 91 78-16 16-163 14-298-4zm64-151c4-38 9-87 12-109l6-42-41-6c-134-20-121-21-121 14 0 17-7 65-16 106-8 42-14 78-11 80 4 5 104 21 138 23 26 1 27-2 33-66z"/>
    <path d="m1130 1665c-17-20-10-341 8-372 15-27 44-30 62-8 16 19 15 348-1 377-12 22-52 24-69 3z"/>
    <path d="m885 1070c-16-17-17-34-13-144l5-124-164-12c-156-13-165-14-180-37s-15-26 4-45c20-19 25-20 141-9 66 6 140 11 164 11h44l12-147c7-82 12-183 12-225 0-72-2-78-21-78-42 0-379-32-508-48-104-13-136-21-145-35-16-25 4-51 45-55 18-2 94 3 169 12 394 46 802 61 1150 43 146-8 275-10 286-6 27 9 37 35 24 59s-73 28-537 36l-373 7v82c0 76-12 236-25 328l-5 37h208c220 0 232 2 232 47 0 40-28 45-244 42l-201-4-8 130c-6 103-11 133-24 143-22 16-27 15-48-8z"/>
  </g>
</svg>
