<?xml version="1.0"?>
<svg xmlns="http://www.w3.org/2000/svg" height="200pt" preserveAspectRatio="xMidYMid meet" viewBox="0 0 200 200" width="200pt">
  <g transform="matrix(.1 0 0 -.1 0 200)">
    <path d="m1359 1844c-10-12-16-59-19-153l-5-136-115-7c-63-4-153-12-199-18-59-7-88-6-97 1-7 6-23 9-36 7-30-4-34-38-18-138 54-332 10-588-157-911-30-59-79-139-110-178-58-77-62-101-16-101 96 0 301 374 358 654 26 128 22 124 158 133l87 6v-61c0-34 9-165 20-293 12-127 20-255 18-285l-3-53-42 21c-35 18-45 19-57 8-21-17-20-23 9-58 27-32 102-72 135-72 11 0 27 11 36 25 15 22 16 44 10 158-4 73-14 204-21 292-8 88-15 194-15 235-1 86-13 149-32 162-13 9-126 5-221-8l-47-7v71c0 39-7 122-16 183-8 62-12 115-7 119 8 8 255 30 335 30 45 0 47-1 52-32 3-18 17-118 31-223 33-240 56-353 100-498 19-63 37-121 40-129 3-7-28-56-69-107-62-77-73-97-65-112 18-34 50-22 115 44l62 64 22-39c12-22 53-87 92-144 55-83 74-104 92-104 43 0 59 43 76 209 10 107 5 136-25 125-14-6-38-68-50-134-4-19-10-39-12-43-10-17-133 184-133 217 0 9 15 44 34 78 48 88 126 272 126 296s-23 45-47 40c-20-4-25-12-95-170-29-65-55-118-59-118-9 0-63 200-83 305-21 111-66 418-66 453v29l132 7c134 7 158 14 158 46 0 38-23 43-165 36l-135-8v139c0 138-6 163-36 163-6 0-18-7-25-16z"/>
    <path d="m1567 1809c-36-21-14-80 60-157 42-44 86-56 97-26 7 18-14 62-43 88-12 11-31 35-42 53-26 41-49 55-72 42z"/>
    <path d="m338 1549c-16-9-18-26-18-127v-117l-72-25c-86-30-108-55-79-91l19-24 63 23c34 12 64 21 65 19 2-2 7-167 10-368l7-364-115-92c-138-111-151-125-146-155 2-17 10-24 30-26 23-3 78 37 322 232 162 130 304 247 314 261 25 31 18 63-14 71-26 7-25 7-214-145-47-38-86-68-86-68-1 1-4 155-8 343l-7 340 38 12c21 6 78 19 127 29 74 15 90 22 99 42 10 20 8 26-12 42-29 24-36 24-153-5-54-13-100-21-103-18s-5 47-5 98c0 71-4 96-16 108-18 19-23 19-46 5z"/>
  </g>
</svg>
