<?xml version="1.0"?>
<svg xmlns="http://www.w3.org/2000/svg" height="200pt" preserveAspectRatio="xMidYMid meet" viewBox="0 0 200 200" width="200pt">
  <g transform="matrix(.1 0 0 -.1 0 200)">
    <path d="m1305 1860c-16-18-17-33-12-144l6-123-47-6c-26-3-157-15-292-27s-255-26-268-31c-18-7-23-16-20-37 3-25 7-27 53-30 28-2 167 8 310 22 170 16 262 21 266 15 3-6 9-56 13-112 8-125 55-369 96-497 17-52 61-157 98-232l68-137-48-93c-51-102-56-119-33-138s63 14 105 88c19 34 37 62 40 62s32-34 65-76c78-99 111-134 124-134 6 0 20 9 31 20 15 15 20 33 20 76 0 30 5 87 11 126 13 81 5 156-17 165-25 9-35-11-51-104-8-48-18-94-22-101-6-10-23 5-61 49-29 35-54 69-57 75-2 6 14 65 37 130 74 215 80 274 25 274-29 0-28 3-82-168-21-68-42-123-48-122-14 2-100 195-130 293-38 121-74 306-87 444-6 68-10 125-7 127 2 2 96 9 209 16 113 6 215 16 228 21 15 6 22 17 22 34 0 45-32 48-259 30-112-9-205-14-207-13-2 2-6 60-10 128-4 69-11 131-17 138-14 17-31 15-52-8z"/>
    <path d="m1567 1863c-4-3-7-17-7-30 0-44 128-144 166-129 30 11 13 48-48 106-57 54-93 71-111 53z"/>
    <path d="m338 1549c-16-9-18-26-18-127v-117l-72-25c-86-30-108-55-79-91l19-24 63 23c34 12 64 21 65 19 2-2 7-167 10-368l7-364-115-92c-138-111-151-125-146-155 2-17 10-24 30-26 23-3 78 37 322 232 162 130 304 247 314 261 25 31 18 63-14 71-26 7-25 7-214-145-47-38-86-68-86-68-1 1-4 155-8 343l-7 340 38 12c21 6 78 19 127 29 74 15 90 22 99 42 10 20 8 26-12 42-29 24-36 24-153-5-54-13-100-21-103-18s-5 47-5 98c0 71-4 96-16 108-18 19-23 19-46 5z"/>
    <path d="m1080 1230c-171-24-189-28-232-56-45-29-46-43-23-174 9-47 19-152 22-233 7-181 15-196 84-179 24 6 105 16 179 23 92 8 141 17 153 27 15 14 17 38 16 251 0 130-4 258-8 285-8 47-31 77-55 75-6-1-67-9-136-19zm110-299v-228l-77-7c-43-4-99-9-124-12l-47-6-7 110c-4 61-15 157-25 214-9 57-16 106-14 110 5 7 179 36 282 47 9 1 12-51 12-228z"/>
    <path d="m1085 435c-196-50-342-95-407-125-21-10-28-20-28-41 0-44 27-44 164 0 117 38 392 111 480 127 37 6 76 34 76 53 0 17-31 41-53 41-12-1-116-25-232-55z"/>
  </g>
</svg>
