<?xml version="1.0"?>
<svg xmlns="http://www.w3.org/2000/svg" height="200pt" preserveAspectRatio="xMidYMid meet" viewBox="0 0 200 200" width="200pt">
  <g transform="matrix(.1 0 0 -.1 0 200)">
    <path d="m860 1895c-9-11-11-69-9-232l4-218-60-3c-96-5-528-50-547-57-37-15-41-76-13-213 32-158 37-172 70-172 43 0 47 33 19 171-14 67-27 126-30 131-3 4 1 8 8 8s101 9 208 20 296 22 420 25 295 13 380 21c85 9 185 14 222 12l68-3-89-116c-102-133-113-152-105-173 12-32 59-19 102 28 46 50 171 216 203 270 20 34 20 38 5 61-16 25-19 25-149 25-72 0-186-7-252-14-66-8-175-18-243-22l-122-7v29c0 110-23 421-32 431-14 17-43 16-58-2z"/>
    <path d="m1296 1787c-70-73-153-171-165-195-16-31-7-52 22-52 30 0 237 208 237 239 0 21-25 51-42 51-6 0-30-19-52-43z"/>
    <path d="m432 1708c-7-7-12-18-12-25 0-32 175-193 210-193 11 0 24 9 30 21 10 18 1 31-81 115-92 93-120 109-147 82z"/>
    <path d="m1010 1204c-271-25-383-39-396-49-16-11-15-26 14-200 18-110 37-192 44-197 12-8 37-7 158 8l50 7v-102c0-89-2-101-17-101-52-1-168-21-180-32-8-6-13-23-11-37l3-26h105 105l7-108c3-60 9-114 11-122 4-10-19-14-106-19-479-28-567-43-567-96 0-33 28-38 130-24 155 21 668 43 1085 46 357 2 391 4 407 20 22 22 22 29 4 54-14 18-28 19-439 15l-425-3-7 108c-3 60-9 117-11 127-5 15 3 17 73 18 43 0 96 3 118 7 38 7 40 9 40 42v35h-118-117v26c0 14-3 60-6 102l-7 77h107c94 0 108 2 127 21 15 15 20 29 16 48-3 14 1 91 8 171 17 189 16 191-93 188-42 0-93-3-112-4zm115-171c-3-49-8-104-11-124l-5-36-117-7c-64-4-146-11-182-15-36-5-67-7-69-5-6 6-40 186-41 215 0 26 3 27 73 34 144 15 233 22 295 24l64 1z"/>
  </g>
</svg>
