<?xml version="1.0"?>
<svg xmlns="http://www.w3.org/2000/svg" height="200pt" preserveAspectRatio="xMidYMid meet" viewBox="0 0 200 200" width="200pt">
  <g transform="matrix(.1 0 0 -.1 0 200)">
    <path d="m446 1974c-9-8-16-18-16-22 1-4 7-52 14-107s13-101 12-102c-1-2-51-10-112-19-126-19-144-26-144-59 0-40 26-46 131-30 149 23 134 36 147-117 6-73 8-136 4-139s-45-14-92-23c-112-23-320-84-337-98-18-14-16-43 3-59 13-10 30-9 99 9 47 13 90 25 97 27 9 4 28-37 61-131 27-75 47-138 45-140-2-1-50-13-107-26-110-24-136-42-115-75 17-28 50-27 211 6 212 44 193 51 193-72v-104l-97-17c-114-19-147-33-151-63-6-40 27-46 140-24 57 11 103 19 104 18s6-115 12-253 14-258 18-267c7-20 57-23 72-4 6 8 6 96-1 269-6 142-7 261-3 265s66 9 139 11c134 4 177 15 177 47 0 7-8 21-17 31-15 15-33 16-160 10l-143-7v104 104l53 6c28 4 110 10 180 13 128 7 157 16 157 48 0 7-9 21-20 31-17 16-32 17-111 12l-92-7 7 85c3 47 11 118 17 159l11 74 62 7c76 9 96 19 96 50 0 45-26 48-208 25-92-12-176-22-187-23-18-2-21 6-27 83-3 47-9 108-12 136l-6 52 131 12c134 14 159 23 159 60 0 36-34 43-144 30-55-6-113-13-127-16-25-5-25-4-41 101-19 130-41 161-82 119zm291-691c-4-27-12-98-18-158l-12-111-126-17c-69-9-128-13-132-9-10 11-99 265-95 270 9 8 298 63 380 71 5 1 6-20 3-46z"/>
    <path d="m1223 1933c-213-4-200 13-177-240 13-154 16-312 16-878 0-397 4-697 10-707 10-21 48-24 66-6 8 8 12 55 12 143 0 73 3 281 7 463l6 331 74-128c41-70 113-178 160-241l85-113-18-31c-29-51-117-167-183-240-68-77-76-109-28-114 22-3 40 9 97 64 38 37 97 106 131 154l62 87 55-66c113-134 134-156 209-213 61-47 83-58 107-56 25 2 32 8 34 30 3 23-8 35-79 90-86 67-284 291-275 312 57 128 134 335 156 421 42 168 43 179 21 206-19 24-21 24-208 23-165-1-263-9-380-30l-33-6v138c0 77-4 189-10 249-5 61-12 146-16 190l-6 80 321 4 321 4v-187c0-102-2-186-4-186s-34 11-70 25c-37 14-80 25-96 25-25 0-30-4-30-24 0-30 25-49 142-104 97-47 123-51 138-23 6 12 10 117 10 270 0 238-1 252-20 271-21 21-73 22-607 13zm467-802c0-50-122-413-158-469-14-21-140 153-256 351-32 54-56 100-54 102 17 18 468 33 468 16z"/>
  </g>
</svg>
