<?xml version="1.0"?>
<svg xmlns="http://www.w3.org/2000/svg" height="200pt" preserveAspectRatio="xMidYMid meet" viewBox="0 0 200 200" width="200pt">
  <g transform="matrix(.1 0 0 -.1 0 200)">
    <path d="m1068 1766c-70-7-113-16-122-26-13-13-13-29-1-125 7-60 17-159 21-219 6-99 9-112 34-139l27-30 99 11c54 7 180 17 279 23s200 11 225 13c60 4 90 21 90 52 0 13-7 27-15 30-13 5-15 35-13 198 2 152 0 196-11 209-12 15-41 17-260 16-135-1-294-7-353-13zm532-130v-53l-152-7c-150-7-327-21-379-32-26-5-27-3-33 57-4 33-5 64-1 67 11 11 151 19 358 21l207 1zm-2-208-3-63-75-7c-41-4-142-12-225-18-82-6-168-13-191-16l-41-6-6 63c-4 42-2 66 5 71 20 12 286 34 451 36l88 2z"/>
    <path d="m338 1549c-16-9-18-26-18-127v-117l-72-25c-86-30-108-55-79-91l19-24 63 23c34 12 64 21 65 19 2-2 7-167 10-368l7-364-115-92c-138-111-151-125-146-155 2-17 10-24 30-26 23-3 78 37 322 232 162 130 304 247 314 261 25 31 18 63-14 71-26 7-25 7-214-145-47-38-86-68-86-68-1 1-4 155-8 343l-7 340 38 12c21 6 78 19 127 29 74 15 90 22 99 42 10 20 8 26-12 42-29 24-36 24-153-5-54-13-100-21-103-18s-5 47-5 98c0 71-4 96-16 108-18 19-23 19-46 5z"/>
    <path d="m1740 1153c-30-2-185-17-345-34-159-17-371-39-470-48s-186-20-193-25c-6-4-12-18-12-30 0-43 19-48 151-41l122 8-6-84c-7-98-28-164-92-289-26-49-45-97-41-105 18-48 106 32 162 148 19 39 34 77 34 84 0 9 20 13 70 13 39 0 70-1 70-2 0-2-11-45-25-96-33-122-79-221-156-331-60-88-70-121-34-121 95 0 227 214 287 463l22 95 44 6c61 8 102 8 102-2 0-4-12-73-26-152-30-172-49-229-121-379-52-106-55-115-38-127 39-28 86 15 141 131 59 124 79 194 111 380l28 160 40 7c22 4 72 7 111 7 85 1 84 4 84-135 0-172-74-494-114-494-6 0-26 9-44 20-39 24-70 26-79 4-16-43 64-113 141-121 44-5 45-5 66 38 73 142 120 362 120 557 0 102-4 135-19 168-10 23-25 45-32 50-18 11-168 7-359-11-85-8-202-17-260-21l-105-6 5 78c4 70 7 79 25 81 127 16 625 63 666 63 60 0 99 20 99 50 0 26-27 50-53 48-12-1-47-3-77-5z"/>
  </g>
</svg>
