<?xml version="1.0"?>
<svg xmlns="http://www.w3.org/2000/svg" height="200pt" preserveAspectRatio="xMidYMid meet" viewBox="0 0 200 200" width="200pt">
  <g transform="matrix(.1 0 0 -.1 0 200)">
    <path d="m954 1758c-5-7-9-44-11-83-5-142-79-331-183-465-84-108-84-108-70-125 39-47 129 27 209 171 71 127 65 120 118 127 26 4 109 15 183 26s206 25 294 31c87 6 167 15 177 21 26 13 24 45-4 64-21 14-43 14-203 1-98-8-241-24-318-36-76-12-140-19-142-17s2 36 11 76c17 84 20 174 5 202-12 21-55 26-66 7z"/>
    <path d="m338 1549c-16-9-18-26-18-127v-117l-72-25c-86-30-108-55-79-91l19-24 63 23c34 12 64 21 65 19 2-2 7-167 10-368l7-364-115-92c-138-111-151-125-146-155 2-17 10-24 30-26 23-3 78 37 322 232 162 130 304 247 314 261 25 31 18 63-14 71-26 7-25 7-214-145-47-38-86-68-86-68-1 1-4 155-8 343l-7 340 38 12c21 6 78 19 127 29 74 15 90 22 99 42 10 20 8 26-12 42-29 24-36 24-153-5-54-13-100-21-103-18s-5 47-5 98c0 71-4 96-16 108-18 19-23 19-46 5z"/>
    <path d="m1375 1260c-60-4-179-16-263-26-130-15-155-20-163-37-8-14-5-50 10-131 11-61 23-133 27-159 3-26 12-54 20-61 10-11 66-13 281-8 147 2 278 8 290 13 33 12 43 66 43 235 0 125-3 154-16 165-20 16-91 19-229 9zm157-202c-2-68-5-124-6-124 0-1-102-4-226-6l-225-5-21 108-20 107 36 6c58 8 327 31 421 34l45 2z"/>
    <path d="m1195 764c-205-21-262-33-295-61-37-30-37-49-10-258 11-82 20-155 20-162s-26-14-67-18c-120-11-198-26-215-42-45-41 1-76 82-62 115 19 587 49 762 49 101 0 243-7 317-15 90-9 140-11 153-4 22 12 24 52 3 69-8 6-69 18-136 26-68 8-124 16-126 17-2 2 8 57 21 123 14 65 28 163 32 217 10 143 19 137-220 136-105-1-249-7-321-15zm165-147c0-41-3-129-7-195l-6-122h-64-63v68c0 38-3 123-7 190l-6 121 44 4c24 2 59 4 77 5l32 2zm286 16c-3-32-18-120-33-195l-27-138h-73-72l1 195 2 195h104 104zm-523-45c4-46 7-131 7-189v-106l-31-7c-17-3-46-6-65-6-30 0-34 3-38 33-28 187-45 322-40 326 4 5 107 25 150 30 7 1 14-31 17-81z"/>
  </g>
</svg>
