<?xml version="1.0"?>
<svg xmlns="http://www.w3.org/2000/svg" height="200pt" preserveAspectRatio="xMidYMid meet" viewBox="0 0 200 200" width="200pt">
  <g transform="matrix(.1 0 0 -.1 0 200)">
    <path d="m1142 1848c-8-8-12-62-12-178v-167l-117-16c-147-21-190-33-203-57-7-13-5-24 9-41 17-21 21-21 64-11 61 16 87 15 87-2 0-8 15-64 33-124l33-108-105-18c-138-23-252-53-269-70-19-19-6-55 22-62 12-3 58 4 102 15 178 44 451 73 819 87 99 4 186 11 193 17 20 16 14 45-13 63-23 15-47 16-202 10-147-6-175-5-170 6 2 8 15 64 28 126l23 112h61c34 0 66 5 73 12 18 18 15 43-8 63-18 16-34 17-195 10l-175-7v157c0 88-4 165-10 176-12 21-50 25-68 7zm228-430c0-7-12-66-26-130l-27-116-56-6c-31-3-73-7-94-8l-39-3-32 100c-53 162-53 155-9 156 45 2 253 15 271 17 6 1 12-4 12-10z"/>
    <path d="m338 1549c-16-9-18-26-18-127v-117l-72-25c-86-30-108-55-79-91l19-24 63 23c34 12 64 21 65 19 2-2 7-167 10-368l7-364-115-92c-138-111-151-125-146-155 2-17 10-24 30-26 23-3 78 37 322 232 162 130 304 247 314 261 25 31 18 63-14 71-26 7-25 7-214-145-47-38-86-68-86-68-1 1-4 155-8 343l-7 340 38 12c21 6 78 19 127 29 74 15 90 22 99 42 10 20 8 26-12 42-29 24-36 24-153-5-54-13-100-21-103-18s-5 47-5 98c0 71-4 96-16 108-18 19-23 19-46 5z"/>
    <path d="m1281 1009c-147-11-312-38-338-55-30-19-30-49 1-211 13-71 27-146 31-168 9-55 20-65 72-65 41 0 44-2 38-22-4-13-23-53-43-91-54-105-164-198-285-241-68-24-88-45-68-70 22-27 99-20 167 14 157 78 291 244 318 393 7 36 8 37 51 37h45v-62c0-103 28-234 58-270 52-62 94-72 325-76 264-5 251-13 245 143-5 120-24 179-56 173-14-3-18-21-23-113-4-61-7-112-8-113 0-2-79-2-173 0-139 3-179 7-205 21-17 9-35 22-39 29-14 23-33 135-34 199v66l82 7c46 4 87 11 92 16s10 39 13 77c2 37 8 91 13 118 5 28 12 91 15 142 11 142 3 145-294 122zm205-110c-3-17-6-42-6-55 0-23-3-24-72-24-40 0-142-7-227-15s-156-14-157-12c-1 1-5 23-9 48l-7 46 34 6c102 18 255 33 367 35l84 2zm-26-211c0-24-4-48-8-54-4-7-63-14-147-17-77-4-163-9-191-13l-51-6-7 38c-4 22-9 46-12 55-4 14 14 17 123 26 71 5 165 10 211 11l82 2z"/>
  </g>
</svg>
