<?xml version="1.0"?>
<svg xmlns="http://www.w3.org/2000/svg" height="200pt" preserveAspectRatio="xMidYMid meet" viewBox="0 0 200 200" width="200pt">
  <g transform="matrix(.1 0 0 -.1 0 200)">
    <path d="m1222 1888c-7-7-12-31-12-54s-3-55-6-71l-6-29-161-12c-89-7-206-15-259-19l-98-6v85c0 86-8 108-41 108-30 0-40-27-42-115-2-100 14-89-157-106-63-6-121-16-128-22-19-15-14-55 8-67 15-8 50-8 123 0 181 19 167 20 186-25 25-64 70-134 92-145 24-13 55-5 63 16 3 8-12 48-34 88s-40 77-40 83 47 13 118 17c64 4 168 12 231 17s116 7 119 5c6-6-38-136-55-163-17-26-3-63 24-63 31 0 82 68 103 139 11 37 20 73 20 80 0 8 50 11 175 11 196 0 225 7 225 52 0 42-28 48-216 48h-164v68c0 69-10 92-40 92-9 0-21-5-28-12z"/>
    <path d="m1040 1339c-124-4-256-10-295-14-38-5-87-8-109-9-63-2-64-12-28-213 39-223 41-226 163-216l80 6-10-26c-6-14-21-48-35-75-27-54-27-53-149-68-79-9-105-35-70-69 12-13 28-16 64-13 47 5 48 5 33-16-24-35-155-144-244-204-47-32-129-77-182-101-100-46-122-67-97-98 9-10 24-14 50-10 57 7 214 87 313 158 91 65 232 196 278 257l25 34 189 18 189 18 45-38c111-92 262-195 345-235 129-63 314-105 353-81 16 10 15 51 0 64-7 6-42 15-78 22-156 27-275 81-443 203-98 71-99 72-66 75 58 4 78 12 89 32 8 15 6 24-10 40-20 20-28 21-115 14l-94-7-63 61-63 62 95 1c135 2 153 7 167 49 7 19 12 71 12 115 1 44 6 115 13 157 10 71 10 79-7 98-14 16-29 20-69 18-28 0-152-4-276-9zm260-119v-40h-104c-56 0-194-5-306-10-111-6-203-10-205-8-1 2-5 17-8 35-5 27-3 33 16 39s155 12 545 22l62 2zm-10-175v-45h-92c-87 0-253-11-409-26l-67-6-11 51c-6 29-11 54-11 56 0 6 130 11 373 13l217 2zm-255-145c-8-13 9-44 51-90l34-37-98-7c-53-4-107-10-119-13l-23-5 20 43c11 24 20 58 20 76 0 27 4 32 28 36 54 8 93 7 87-3z"/>
    <path d="m990 640c-15-15-20-34-20-79 0-69 4-66-112-76-82-7-102-19-96-57 3-23 5-23 109-21l106 3 7-77c11-130 10-131-26-137-18-3-132-17-253-31-216-25-265-38-265-69 0-7 7-19 16-26 12-11 59-9 262 14 136 14 301 29 367 33 119 6 397-7 611-29 61-6 123-8 137-4 32 8 47 51 26 70-19 18-253 36-546 43l-243 6v86c0 47-3 95-6 107-5 20-1 21 123 28 135 8 173 20 173 56 0 11-9 24-20 30-17 9-120 7-237-5l-43-5v56c0 86-31 123-70 84z"/>
  </g>
</svg>
