<?xml version="1.0"?>
<svg xmlns="http://www.w3.org/2000/svg" height="200pt" preserveAspectRatio="xMidYMid meet" viewBox="0 0 200 200" width="200pt">
  <g transform="matrix(.1 0 0 -.1 0 200)">
    <path d="m844 1808c-7-22-4-66 22-451 9-129 13-232 8-237-5-4-97-13-204-19-204-12-519-38-557-47-18-3-23-11-23-33 0-41 32-50 155-39 100 9 629 45 631 44 1-1 4-159 6-352l4-351-90-12c-243-31-461-73-480-91-21-20-16-47 10-57 9-3 98 6 198 22 99 15 226 34 281 42 71 11 219 17 515 20 263 3 420 9 428 15 19 16 14 56-9 68-14 8-134 10-388 8l-368-3-7 104c-9 145-8 589 2 595 4 2 104 9 222 15 118 7 256 16 305 22 50 6 140 13 200 16 61 3 116 10 123 16 17 13 15 52-3 67-17 14-160 10-315-9-47-6-181-15-298-21s-219-13-226-16c-14-5-22 78-50 483-8 123-18 198-26 208-19 23-57 19-66-7z"/>
  </g>
</svg>
