<?xml version="1.0"?>
<svg xmlns="http://www.w3.org/2000/svg" height="200pt" preserveAspectRatio="xMidYMid meet" viewBox="0 0 200 200" width="200pt">
  <g transform="matrix(.1 0 0 -.1 0 200)">
    <path d="m949 1923c-10-12-13-43-11-118l2-102-92-7c-51-4-176-16-278-26-150-15-187-22-197-36-17-23-16-29 4-50 19-18 20-18 318 11 83 8 174 15 203 15h52v-173-174l-127-12c-71-6-145-11-165-11-37 0-68-20-68-44 0-7 9-21 20-31 20-18 28-18 233-2 116 10 289 17 382 17 182 0 217 8 223 47 2 15-5 27-23 39-23 15-46 16-206 10l-179-6v173 174l212 6c116 4 265 7 330 7 129 0 158 8 158 44 0 49-6 49-369 41l-339-7-7 104c-4 56-12 109-17 116-15 17-43 15-59-5z"/>
    <path d="m1290 1040c-107-4-329-11-493-15-198-6-303-12-313-20-14-10-17-44-19-226-2-140-8-241-18-292-22-110-91-247-161-319-31-32-56-62-56-67 0-13 29-41 42-41 6 0 30 11 54 25 78 46 190 247 209 377l7 46 47 6c131 17 306 26 634 32 199 4 370 11 379 15 40 21 48 63 48 264 0 173-2 194-18 208-20 19-8 18-342 7zm270-234v-154l-187-6c-104-4-215-8-249-9l-61-3-7 150c-3 82-4 151-2 153 2 3 111 8 243 12 131 4 244 9 251 9 9 2 12-35 12-152zm-596 42c3-50 6-120 6-155v-63h-69c-65 0-235-14-311-26l-35-5v165 166l185 3c102 1 192 3 201 5 13 2 17-14 23-90z"/>
  </g>
</svg>
