<?xml version="1.0"?>
<svg xmlns="http://www.w3.org/2000/svg" height="200pt" preserveAspectRatio="xMidYMid meet" viewBox="0 0 200 200" width="200pt">
  <g transform="matrix(.1 0 0 -.1 0 200)">
    <path d="m899 1928c-7-14-9-45-6-85 4-39 2-63-4-63-59 0-406-43-416-52-18-14-13-48 9-61 12-8 73-6 214 6 108 10 199 16 201 13 4-4 17-135 26-268l4-57-56-6c-114-12-194-26-212-36-22-12-25-52-5-69 12-9 32-9 88-1 40 7 152 21 248 32 274 32 287 34 304 48 9 8 16 21 16 30 0 44-46 50-195 26-49-8-93-15-96-15s-9 64-13 143c-3 78-9 151-12 163-5 20-1 21 88 28 51 3 158 9 238 13 80 3 153 10 163 15 20 10 23 48 5 66-15 15-114 15-326 1-89-7-165-9-169-6-3 3-8 34-12 69s-10 69-14 76c-13 20-55 14-68-10z"/>
    <path d="m1810 1193c-25-2-108-12-185-23-139-19-238-29-535-50-326-24-777-75-843-96-12-4-24 1-33 15-18 25-37 27-58 5-13-13-16-46-16-208 0-203 3-216 47-216 36 0 43 30 43 174v135l38 10c20 6 127 21 237 35 196 25 301 35 595 56 321 24 411 32 539 51 74 10 136 17 139 14 9-9-107-141-193-219-85-78-96-99-64-119 34-22 228 140 329 275 73 96 82 124 50 150-12 10-27 17-34 16-6-1-31-3-56-5z"/>
    <path d="m758 868c-10-9-18-38-22-88-7-82-52-224-98-312-48-90-174-206-286-262-80-40-93-50-90-69 5-35 57-34 152 4 73 29 90 42 182 133 109 109 135 152 189 311 36 108 47 261 20 282-23 16-27 16-47 1z"/>
    <path d="m1050 855c-25-30-17-222 14-350 51-212 142-345 257-379 116-35 430-15 544 34 61 26 71 51 51 120-9 30-16 63-16 74 0 46-21 96-39 96-26 0-31-19-31-120v-89l-37-10c-118-31-357-42-438-20-121 33-218 252-233 529-7 125-7 125-33 128-15 2-31-4-39-13z"/>
  </g>
</svg>
