<?xml version="1.0"?>
<svg xmlns="http://www.w3.org/2000/svg" height="200pt" preserveAspectRatio="xMidYMid meet" viewBox="0 0 200 200" width="200pt">
  <g transform="matrix(.1 0 0 -.1 0 200)">
    <path d="m889 1894c-10-13-10-37 0-136 8-67 9-123 5-128-5-5-99-18-209-30-238-25-242-26-251-53-9-28 28-58 64-52 40 7 218 25 245 25 20 0 25-6 30-37 10-58-12-180-49-279-38-101-41-126-20-143 59-49 162 214 154 392-4 89-15 78 112 97 41 6 87 13 103 16l27 6v-249-250l-22 1c-38 2-34-36 7-73 43-38 69-39 91-6 15 23 16 57 12 304l-4 278 89 7c50 3 123 6 164 6 86 0 113 11 113 45 0 42-29 48-189 41-139-6-284-20-342-32-26-5-27-3-33 48-14 116-29 194-38 206-14 17-43 15-59-4z"/>
    <path d="m1377 1363c-12-11-8-50 6-61 36-30 318-163 339-160 27 4 37 41 17 65-18 21-307 163-334 163-12 0-25-3-28-7z"/>
    <path d="m337 1170c-94-94-118-123-115-142 2-18 10-24 36-26 29-3 42 7 142 106 81 80 110 115 110 133 0 29-17 49-39 48-9-1-69-54-134-119z"/>
    <path d="m1219 915c-3-2-56-9-119-15s-143-16-177-22c-55-10-65-9-81 5-29 26-39 21-75-36-44-68-170-183-244-223-67-36-79-63-39-90 25-16 28-15 79 10 28 14 80 50 113 80l61 55 19-21c11-11 56-49 101-83 76-58 81-63 65-78-61-54-320-199-415-233-23-8-78-20-121-25-87-11-116-22-116-45 0-35 130-53 221-30 104 26 453 216 499 272 19 22 34 18 111-32 140-91 314-161 517-210 147-34 233-30 249 12 8 22-22 44-58 44-34 0-262 53-349 82-109 35-320 141-368 183-2 2 26 39 63 82 71 82 145 217 145 263 0 15-8 34-18 43-17 16-53 23-63 12zm-29-102c0-23-69-122-123-178l-62-65-85 64c-111 83-125 98-109 123 9 16 35 23 138 36 69 10 137 19 151 21 48 7 90 6 90-1z"/>
  </g>
</svg>
