<?xml version="1.0"?>
<svg xmlns="http://www.w3.org/2000/svg" height="200pt" preserveAspectRatio="xMidYMid meet" viewBox="0 0 200 200" width="200pt">
  <g transform="matrix(.1 0 0 -.1 0 200)">
    <path d="m1058 1860c-134-8-530-63-576-81-18-7-23-16-20-36 5-46 25-49 163-29 70 10 129 16 131 13 9-9-39-114-74-161-20-27-41-55-46-62-6-8 0-93 17-236 15-122 27-249 27-281 0-79 26-155 55-163 13-3 65-1 116 5 114 12 240 21 334 23 122 2 113-25 115 352 0 291-1 326-16 341-15 14-32 16-123 10-149-9-330-24-370-32l-34-6 21 30c21 30 57 113 73 170 12 40 16 41 252 53 103 5 196 14 207 20 22 12 27 49 8 68-13 13-45 13-260 2zm150-437-3-48-115-7c-63-4-167-18-230-31-63-14-116-24-117-23s-6 27-11 58l-9 56 106 12c89 10 173 17 359 29 21 1 23-2 20-46zm-8-198v-55h-39c-42 0-282-33-351-49-22-5-42-6-44-2-2 3-6 28-7 55-4 48-3 50 28 58 83 22 256 46 331 47l82 1zm0-210v-64l-32-5c-18-2-103-10-188-16s-167-14-182-17l-28-5v60 60l138 20c75 12 148 23 162 25 14 3 49 5 78 6l52 1z"/>
    <path d="m733 748c-6-7-19-31-29-53-26-57-132-164-222-225-118-81-162-119-162-141 0-26 26-35 64-21 51 20 182 103 236 150l50 44 36-31c19-17 71-50 116-72l80-40-54-40c-64-48-208-139-260-164-28-13-38-23-38-41 0-30 35-40 87-24 79 25 257 136 334 207l26 24 74-29c116-46 232-81 394-118 161-36 216-41 255-21 56 28 28 77-43 77-58 0-343 66-461 107-56 19-109 37-118 40-10 3-18 9-18 12 0 4 25 36 56 72 30 35 76 105 101 156 45 89 45 93 29 118-15 22-23 25-79 25-34 0-134-7-222-15-140-13-161-13-175 0-20 18-44 19-57 3zm427-86c0-15-76-121-127-177-44-47-57-55-75-49-39 12-161 75-196 101l-32 24 22 38 22 39 146 11c80 7 154 14 165 15 42 7 75 6 75-2z"/>
  </g>
</svg>
