<?xml version="1.0"?>
<svg xmlns="http://www.w3.org/2000/svg" height="200pt" preserveAspectRatio="xMidYMid meet" viewBox="0 0 200 200" width="200pt">
  <g transform="matrix(.1 0 0 -.1 0 200)">
    <path d="m742 1864c-12-8-22-23-22-33 0-28-114-252-171-339-62-91-157-208-253-310-61-66-67-75-53-89 68-68 344 240 497 555l55 112h109c61 0 196 5 301 11 111 7 258 8 354 4l163-7-6-41c-15-95-257-587-288-587-6 0-60 22-122 49-210 93-323 133-470 166-113 26-140 26-150-1-10-26 12-53 52-63 20-5 75-19 122-31 161-41 525-194 516-217-3-8-37-60-75-116-138-203-301-381-500-549-129-109-194-151-338-220-94-45-123-64-121-76 5-27 43-26 137 3 158 49 270 121 481 310 154 138 305 314 432 503 285 423 495 920 403 956-30 11-574 8-779-4-161-10-211-11-214-2-8 24-38 32-60 16z"/>
  </g>
</svg>
