<?xml version="1.0"?>
<svg xmlns="http://www.w3.org/2000/svg" height="200pt" preserveAspectRatio="xMidYMid meet" viewBox="0 0 200 200" width="200pt">
  <g transform="matrix(.1 0 0 -.1 0 200)">
    <path d="m1209 1909c-8-16-10-54-5-128 8-131 25-765 34-1288 6-344 9-394 23-409 22-21 57-10 69 21 5 13 5 208 0 451-4 236-6 431-5 432 5 6 172-86 240-132 33-22 110-88 172-148 92-88 118-108 142-108 33 0 53 24 42 50-12 30-242 241-309 284-95 61-247 136-277 136h-25v146c0 179-19 626-29 674-5 28-12 36-33 38-19 2-30-3-39-19z"/>
    <path d="m493 1668c-6-7-18-38-27-68-46-143-184-371-312-513-45-50-55-83-29-93s64 5 104 41c81 73 267 369 308 491 11 31 11 31 114 42 57 6 152 14 212 18l107 6v-31c0-71-35-192-100-348-38-91-71-168-74-170-2-2-45 22-95 54-180 114-229 143-243 143-21 0-38-21-38-47 0-18 19-35 88-79 182-117 242-159 242-170 0-15-113-184-185-276-103-133-289-339-336-374-26-19-68-44-94-55-25-11-49-28-52-36-10-26 26-45 70-38 102 15 189 89 391 331 226 271 285 372 440 751 71 173 103 360 71 409l-17 27-142-7c-77-3-183-11-234-17-82-10-95-10-111 5-21 19-45 21-58 4z"/>
  </g>
</svg>
