<?xml version="1.0"?>
<svg xmlns="http://www.w3.org/2000/svg" height="200pt" preserveAspectRatio="xMidYMid meet" viewBox="0 0 200 200" width="200pt">
  <g transform="matrix(.1 0 0 -.1 0 200)">
    <path d="m1060 1853c-19-2-90-10-157-19-86-11-127-12-141-5-29 15-47-4-83-89-39-92-71-139-143-210-58-56-67-79-41-100s64-2 131 66c46 47 76 90 107 152 35 72 47 87 67 89 14 1 63 6 110 12 181 21 260 24 260 10-1-40-120-266-150-284-5-3-31 8-59 25-59 36-144 68-205 76-37 5-46 3-55-13-17-32 11-59 86-82 38-11 92-35 120-53l53-34-78-75c-93-91-142-131-292-239-126-90-175-118-295-165-81-32-99-51-75-80s122-10 230 45c92 46 340 227 460 334 74 66 152 156 210 241 112 165 178 353 138 393-11 11-110 14-198 5z"/>
    <path d="m1270 1135c-54-7-99-9-104-4-24 22-54 3-154-98-59-60-151-139-205-178-101-73-116-97-74-116 18-8 33-7 61 5 52 22 238 169 295 233l46 52 125 16c115 14 290 21 290 11 0-2-16-42-36-88-44-104-85-178-136-246l-39-53-62 57c-68 63-223 146-257 137-21-6-37-44-25-63 3-6 43-29 87-51 80-40 188-129 188-155 0-38-371-308-510-371-106-49-105-48-108-72-4-27 34-43 80-34 80 15 265 127 456 277 204 158 315 311 441 609 40 94 41 100 26 123-15 24-18 24-153 23-75-1-180-7-232-14z"/>
  </g>
</svg>
