<?xml version="1.0"?>
<svg xmlns="http://www.w3.org/2000/svg" height="200pt" preserveAspectRatio="xMidYMid meet" viewBox="0 0 200 200" width="200pt">
  <g transform="matrix(.1 0 0 -.1 0 200)">
    <path d="m871 1861c-7-12-7-38-1-74 5-30 12-98 16-151 5-77 4-96-7-100-8-2-160-20-339-41-179-20-336-42-350-49-14-6-26-21-28-32-6-43 13-45 212-23 104 11 191 18 194 14 10-10-36-94-123-225-80-121-129-175-269-294-71-60-90-88-82-121 10-41 48-32 115 28 33 28 89 78 125 110l65 58 5-33c3-18 10-157 16-308 13-321 25-467 41-486 17-21 57-17 70 7 8 15 8 52 0 138-6 64-15 224-21 356s-15 282-21 334l-9 93 59 93c66 104 102 171 120 228 8 24 20 39 34 42 55 12 435 41 907 69 113 7 211 15 218 20 6 4 12 21 12 37 0 21-6 32-22 38-21 7-184 0-628-28-96-7-180-13-186-15-7-3-13 29-17 92-8 113-24 212-39 230-16 18-56 15-67-7z"/>
    <path d="m1111 1358c-5-13-17-50-26-83-34-117-161-336-254-439-51-57-61-82-39-104 24-24 52-11 114 55 53 54 64 62 64 44 0-33 32-90 105-187l65-86-98-98c-64-63-129-116-186-151-93-57-106-70-86-94 43-52 229 57 376 218l54 60 72-70c90-87 199-159 315-207 156-66 244-80 267-43 19 29-5 48-98 78-107 35-238 96-302 140-26 18-80 64-121 102l-73 69 20 27c49 63 150 211 180 261 40 68 119 260 149 363 38 128 19 149-112 128-80-12-298-33-302-29-1 2-7 17-12 33-13 40-58 48-72 13zm404-140c-4-18-23-72-42-119l-34-86-131 50c-140 54-160 54-166 4-4-30 15-41 158-97 47-18 89-36 93-40 7-6-121-206-173-270l-20-25-30 35c-17 19-56 73-87 118-50 74-59 83-82 80-26-4-26-3 22 77 27 44 70 124 95 177l46 97 71 6c38 3 108 9 155 14 143 14 133 16 125-21z"/>
  </g>
</svg>
