<?xml version="1.0"?>
<svg xmlns="http://www.w3.org/2000/svg" height="200pt" preserveAspectRatio="xMidYMid meet" viewBox="0 0 200 200" width="200pt">
  <g transform="matrix(.1 0 0 -.1 0 200)">
    <path d="m1222 1888c-7-7-12-31-12-54s-3-55-6-71l-6-29-161-12c-89-7-206-15-259-19l-98-6v85c0 86-8 108-41 108-30 0-40-27-42-115-2-100 14-89-157-106-63-6-121-16-128-22-19-15-14-55 8-67 15-8 50-8 123 0 181 19 167 20 186-25 25-64 70-134 92-145 24-13 55-5 63 16 3 8-12 48-34 88s-40 77-40 83 47 13 118 17c64 4 168 12 231 17s116 7 119 5c6-6-38-136-55-163-17-26-3-63 24-63 31 0 82 68 103 139 11 37 20 73 20 80 0 8 50 11 175 11 196 0 225 7 225 52 0 42-28 48-216 48h-164v68c0 69-10 92-40 92-9 0-21-5-28-12z"/>
    <path d="m1155 1383c-168-5-379-24-485-45-58-11-122-22-143-25-60-8-63-28-28-146 17-56 35-123 42-149 15-64 34-79 84-68 37 8 168 16 640 40 135 7 193 14 203 23 7 8 15 38 18 68s14 90 26 133c26 103 27 144 3 162-19 14-89 15-360 7zm279-110c-3-16-12-50-20-77s-14-62-14-77c0-32-10-35-150-42l-85-4 3 81c1 44 5 96 8 114l5 32h130 129zm-350-90c-4-60-7-109-8-110s-44-3-95-5l-95-3-12 60c-7 33-20 80-28 104-9 24-16 45-16 47 0 4 82 10 178 12l83 2zm-316 5c11-40 24-88 27-105 6-31 5-33-23-33-16 0-56-3-88-6l-59-6-23 88c-13 49-23 94-23 99 0 11 87 32 137 34 30 1 32-1 52-71z"/>
    <path d="m1675 940c-66-3-219-12-340-19-464-25-1059-84-1085-107-12-12-11-27 9-116 35-161 40-177 61-188 24-13 47-4 55 21 4 11-3 62-15 115-12 52-20 98-17 100 12 12 599 65 817 74 129 6 288 15 352 20 64 6 146 10 182 10h66l-52-87c-39-66-48-90-41-102 28-44 70-16 141 94 25 39 55 83 68 98 27 32 29 46 12 69-17 22-70 26-213 18z"/>
    <path d="m1145 704c-11-1-94-11-185-20l-165-18-75-76c-42-43-99-90-130-106-43-23-56-35-58-56-2-19 3-30 18-38 24-13 93 14 150 59 19 15 40 30 46 34 9 5 339-104 351-117 13-13-117-98-262-172-93-47-174-92-178-101-12-21 20-53 54-53 30 0 267 117 354 176 30 19 79 62 109 95 107 115 181 333 130 383-14 15-94 20-159 10zm81-110c-4-15-20-55-36-90l-29-64-158 55c-87 31-164 57-170 60-7 2-10 11-7 18 3 10 31 16 87 21 45 4 114 11 152 15 39 5 92 9 119 10 47 1 48 1 42-25z"/>
  </g>
</svg>
