<?xml version="1.0"?>
<svg xmlns="http://www.w3.org/2000/svg" height="200pt" preserveAspectRatio="xMidYMid meet" viewBox="0 0 200 200" width="200pt">
  <g transform="matrix(.1 0 0 -.1 0 200)">
    <path d="m922 1874c-20-14-22-24-22-123 0-59-3-142-6-184l-7-75-96-7c-455-33-506-42-488-89 16-41 38-41 510 0l68 5-7-38c-17-93-45-186-83-269-75-167-186-365-256-460-142-189-330-373-453-444-64-37-82-61-62-85 71-86 441 232 653 561 56 87 222 411 239 465l11 39 27-68c27-68 122-235 211-368 71-107 199-252 270-310 185-148 421-284 493-284 28 0 57 34 49 56-3 8-51 36-107 63-151 72-336 199-437 300-108 108-186 214-300 405-96 160-149 299-152 394l-2 47 120 12c66 6 197 15 290 19 118 4 177 11 193 20 28 18 29 59 1 74-24 13-173 7-414-16-82-8-157-14-165-14-13 0-15 23-12 162 2 90 0 173-3 185-8 33-37 45-63 27z"/>
  </g>
</svg>
