<?xml version="1.0"?>
<svg xmlns="http://www.w3.org/2000/svg" height="200pt" preserveAspectRatio="xMidYMid meet" viewBox="0 0 200 200" width="200pt">
  <g transform="matrix(.1 0 0 -.1 0 200)">
    <path d="m1390 1803c-205-14-363-27-525-43-104-10-248-21-320-25-191-10-384-32-400-45-19-16-19-44 0-60 13-11 42-11 153-1 75 6 216 16 312 21s202 12 236 16l61 7 6-39c4-22 7-141 7-265v-226l-107-13c-264-29-336-52-307-97 15-23 77-23 252 1 74 10 136 15 140 12 3-4-6-53-20-109-29-112-86-254-140-345-72-122-293-310-442-376-48-22-57-29-54-48 11-77 238 24 412 183 121 111 209 253 276 447l33 92 76-125c146-239 288-394 509-552 104-75 257-146 305-141 26 2 33 8 35 30 3 26-4 31-115 87-277 138-476 330-674 645-138 222-138 221-41 230 37 4 139 11 227 16 306 19 339 22 358 38 22 19 22 36 0 58-15 14-31 16-118 10-55-3-172-10-260-16-88-5-181-12-207-16l-48-6-1 204c0 111-4 230-8 263-5 33-7 62-5 64 7 8 338 30 544 37 118 4 221 11 228 17 19 15 14 44-10 61-18 13-51 16-173 14-82-1-170-3-195-5z"/>
  </g>
</svg>
