<?xml version="1.0"?>
<svg xmlns="http://www.w3.org/2000/svg" height="200pt" preserveAspectRatio="xMidYMid meet" viewBox="0 0 200 200" width="200pt">
  <g transform="matrix(.1 0 0 -.1 0 200)">
    <path d="m912 1868c-8-8-12-54-12-142 0-72-3-154-6-182l-7-52-71-6c-39-3-159-13-266-22-107-8-205-18-216-20-27-5-37-29-24-55 9-17 22-19 103-19 51 0 133 4 182 9 50 5 134 12 189 16l98 7-7-43c-25-148-144-422-272-627-112-178-348-432-484-519-108-71-114-76-100-101 14-26 46-28 98-7 131 55 443 376 572 588 47 76 182 343 216 425 13 31 24 50 25 41 1-44 174-350 278-489 96-130 243-268 382-360 200-131 316-184 359-161 26 14 27 42 4 64-10 8-45 26-78 39-66 27-222 122-326 199-80 59-198 181-272 281-76 103-222 347-247 415-33 90-62 201-58 231 3 27 3 27 123 39 66 7 199 16 296 21 183 8 209 14 209 53 0 10-10 25-22 33-19 12-51 13-198 5-96-5-211-14-255-19-44-6-93-10-110-10h-30l3 169c3 112 0 176-8 190-12 23-49 28-68 9z"/>
    <path d="m817 633c-18-18-1-59 56-135 34-46 89-125 122-176 68-103 94-123 125-92 11 11 20 24 20 30 0 16-175 271-225 328-44 49-79 65-98 45z"/>
  </g>
</svg>
