<?xml version="1.0"?>
<svg xmlns="http://www.w3.org/2000/svg" height="200pt" preserveAspectRatio="xMidYMid meet" viewBox="0 0 200 200" width="200pt">
  <g transform="matrix(.1 0 0 -.1 0 200)">
    <path d="m917 1923c-4-3-4-63 0-133l6-127-24-6c-13-3-87-11-164-17-168-14-187-20-183-57 5-46 23-49 200-31 89 9 163 16 164 15 8-15-32-345-44-364-4-5-66-15-137-22-216-20-517-67-526-82-15-25-9-49 14-60 18-8 75-4 238 19 118 17 252 34 298 37l83 7-7-33c-12-55-74-218-115-299-89-176-249-385-349-455-22-15-69-38-103-50-70-25-82-45-44-70 21-14 33-15 76-6 73 16 121 43 195 112 162 152 316 405 399 657l28 83 80-118c137-201 279-364 403-463 68-54 305-201 380-236 62-29 110-31 124-5s-1 41-89 88c-129 68-332 200-397 256-76 67-200 204-271 300-94 127-166 237-159 244 22 22 692 28 817 7 45-8 86 21 76 53-4 12-14 24-24 28-40 17-497 29-692 17-107-6-196-9-198-7s2 38 8 82c6 43 14 125 18 183l7 105 209 15c195 14 210 16 223 37 13 19 12 24-8 44s-28 21-113 16c-50-4-139-10-197-13l-106-7-7 99c-9 133-20 164-55 164-15 0-31-3-34-7z"/>
  </g>
</svg>
