<?xml version="1.0"?>
<svg xmlns="http://www.w3.org/2000/svg" height="200pt" preserveAspectRatio="xMidYMid meet" viewBox="0 0 200 200" width="200pt">
  <g transform="matrix(.1 0 0 -.1 0 200)">
    <path d="m892 1908c-15-15-15-95 2-209l12-86-181-12c-293-19-335-32-335-97 0-72 58-460 75-505 4-12-15-17-101-27-139-17-253-40-281-58-13-8-23-23-23-34 0-34 31-41 111-26 134 26 311 45 517 57 112 6 205 9 208 6 10-10-39-119-85-190-94-143-313-383-449-490-47-37-62-55-60-71s11-22 36-24c49-5 109 38 248 180 190 194 298 330 353 447l28 60 23-42c42-73 197-272 242-309 131-107 364-231 462-246 66-11 124 0 133 24 10 25-18 42-96 58-139 29-396 178-491 284-59 65-164 213-198 275l-22 42 29 6c16 3 196 7 401 8 204 1 378 5 385 8 24 8 28 43 9 64-16 18-33 19-236 19-120 0-218 3-218 8 0 4 5 23 10 42 33 112 102 422 103 462 1 27-3 52-11 60-17 17-132 26-333 27l-167 1-12 83c-7 45-15 111-18 147-6 60-9 65-32 68-14 2-31-3-38-10zm28-597c0-115-3-229-6-253l-6-46-147-6c-80-4-158-9-172-12-24-5-27-1-42 53-9 32-28 143-43 247-29 206-30 205 31 207 17 0 107 6 200 13 94 7 173 11 178 8 4-2 7-97 7-211zm486 205c5-13-67-329-102-446l-15-50h-142-142v255 255h198c161 0 199-3 203-14z"/>
  </g>
</svg>
