<?xml version="1.0"?>
<svg xmlns="http://www.w3.org/2000/svg" height="200pt" preserveAspectRatio="xMidYMid meet" viewBox="0 0 200 200" width="200pt">
  <g transform="matrix(.1 0 0 -.1 0 200)">
    <path d="m936 1954c-13-12-14-40-9-172l6-157-124-18c-68-10-136-21-151-24l-26-5 5 114c5 99 4 116-11 131-43 42-64 13-71-94-9-152-46-256-142-396-60-88-63-113-14-113 40 0 109 79 162 185l41 83 142 21c77 12 151 24 164 26 22 5 22 4 22-99 0-116-23-312-48-414l-17-67-65-8c-272-33-548-85-576-108-19-15-18-43 2-60 13-10 26-10 72 0 180 40 517 89 529 78 7-7-28-97-70-182-98-198-319-417-517-512-99-48-112-57-103-80 15-38 168 6 282 82 94 62 243 205 314 300 55 74 138 228 166 306 13 38 6 45 107-100 117-169 251-295 422-398 96-57 347-173 376-173 40 0 56 11 56 36 0 21-11 30-62 53-319 145-431 214-573 355-96 96-264 320-250 334 3 3 193 7 422 9 374 2 417 4 434 19 24 22 24 39 0 56-15 11-96 13-387 12-203-1-396-5-428-9-54-7-59-6-52 10 18 48 47 277 53 416l6 157 51 6c28 3 108 6 178 6 133 0 158 8 158 49s-22 44-209 38l-178-6-11 139c-6 77-16 148-21 159-15 26-38 33-55 15z"/>
  </g>
</svg>
