<?xml version="1.0"?>
<svg xmlns="http://www.w3.org/2000/svg" height="200pt" preserveAspectRatio="xMidYMid meet" viewBox="0 0 200 200" width="200pt">
  <g transform="matrix(.1 0 0 -.1 0 200)">
    <path d="m872 1938c-7-7-12-41-12-84 0-61-3-73-17-78-10-2-81-10-158-16-143-13-165-19-165-50 0-41 23-45 177-32 81 7 149 10 152 7 4-5-24-134-32-141-1-2-44-9-95-18-98-15-122-27-122-57 0-32 35-42 107-29 36 6 67 10 69 8 4-5-59-148-84-188l-22-35-152-25c-152-25-153-25-156-52-5-45 26-52 138-34 52 8 96 14 97 12 2-1-15-29-38-62-72-104-157-182-299-275-185-121-174-111-166-136 17-52 80-29 268 96 122 81 200 161 294 300l67 99 91 12c50 6 127 14 171 17l80 6 143-97c296-200 711-362 755-295 21 33-1 47-145 93-155 49-377 153-506 236-125 79-125 80 14 79 66 0 166-4 224-8 113-9 150 0 150 38 0 43-18 46-324 49l-291 2-45 34c-25 19-71 61-103 94l-58 59 113 11c63 7 135 12 160 12 50 0 83 25 72 54-12 32-39 37-156 26-172-15-157-19-142 42 8 29 14 60 14 70 0 21 23 26 209 41 118 10 146 15 155 30 8 12 8 22 0 35-10 14-27 17-115 17-57 0-134-4-171-8l-68-8v43c0 71-17 118-43 118-13 0-28-5-35-12zm51-679c-106-18-135-19-130-6 3 6 15 38 28 69l24 58 58-58 58-57z"/>
    <path d="m1130 923c-65-5-539-73-556-80-20-7-14-53 8-67 12-7 54-5 150 8 73 10 143 20 156 23 20 5 22 2 22-38 0-23-5-70-11-103l-10-61-187-33c-206-37-236-47-240-79-7-45 26-47 210-13 93 17 172 29 175 27 6-7-32-81-71-137-68-100-118-140-296-239-8-4-16-18-18-30-3-18 1-21 36-21 54 0 115 23 189 71 82 54 156 145 223 278l32 63 82-80c133-130 266-209 529-313 165-66 253-83 275-56 16 19 0 57-24 57-21 0-351 133-438 177-98 49-231 142-290 202-47 48-48 50-25 55 13 2 134 10 268 17 247 13 271 18 271 54 0 8-11 22-25 31-23 15-43 15-198 5-94-6-221-14-281-17l-108-7 6 52c3 28 9 73 12 100 7 60 5 60 182 68 134 6 162 14 162 48 0 42-48 51-210 38z"/>
  </g>
</svg>
