<?xml version="1.0"?>
<svg xmlns="http://www.w3.org/2000/svg" height="200pt" preserveAspectRatio="xMidYMid meet" viewBox="0 0 200 200" width="200pt">
  <g transform="matrix(.1 0 0 -.1 0 200)">
    <path d="m947 1957c-8-7-18-34-21-62-4-27-14-71-22-96l-15-47-157-7c-233-9-293-17-306-37-8-13-8-23 0-35 10-16 29-18 209-14l197 4-12-24c-19-34-185-198-259-255-36-27-137-85-225-129-154-77-161-81-161-110 0-43 33-43 134 0 243 103 434 248 566 426l41 56 45-39c58-52 219-158 295-197 147-74 445-161 553-161 30 0 43 5 51 20 16 29-4 58-43 64-226 37-436 104-576 185-91 52-244 161-237 168 2 2 118 7 256 11 245 7 253 8 267 29 13 19 12 24-7 43-21 21-26 21-258 15-130-3-248-8-261-11-19-4-22-2-16 13 15 38 28 131 21 156-8 34-38 51-59 34z"/>
    <path d="m630 1240c-41-39-114-98-162-131-90-62-111-90-85-116 20-21 50-12 123 35l61 40 6-197c7-206 10-238 26-254 7-7 100-6 273 2 145 6 318 13 386 14 97 2 125 5 132 17 14 22 12 36-7 56-16 15-37 16-215 11l-198-6v43 43l61 7c34 3 97 6 140 6 79 0 109 12 109 45 0 44-47 52-227 37l-83-7v26c0 27 0 27 96 34 113 9 144 29 114 75-10 16-87 18-177 5l-43-6v34c0 44 5 45 180 53 136 6 180 18 180 49 0 7-8 21-17 31-15 15-31 16-131 10-63-4-128-10-146-13l-31-6 38 41c38 44 41 50 31 76-13 34-59 18-110-37-27-29-54-61-59-71-9-15-32-21-122-30l-111-12 44 49c44 49 54 83 32 105-20 20-32 14-108-58zm250-194v-34l-77-6c-43-4-95-9-115-12-38-6-38-6-38 29v35l68 7c37 3 74 8 82 9 8 2 30 4 48 5 30 1 32-1 32-33zm0-145v-28l-87-7c-49-4-98-10-110-13-20-4-23-1-23 25v30l78 7c74 6 119 10 135 14 4 0 7-12 7-28zm3-148c8-45-1-53-68-53-27 0-74-3-102-6l-53-7v41 41l53 5c28 3 66 8 82 9 81 10 82 10 88-30z"/>
    <path d="m1170 579c-443-21-726-42-747-56-17-10-23-23-23-51 1-48 66-382 77-393 5-5 61-4 128 1 250 20 498 30 722 30 225 0 233 1 243 21 9 16 8 26-4 44-20 31-20 69 1 238 13 100 14 143 7 155-9 14-30 17-125 18-63 1-188-2-279-7zm314-121c-3-24-7-48-9-54-2-7-66-13-182-18-98-3-204-9-235-12l-58-7v57c0 49 2 56 23 61 20 5 85 7 365 13l102 2zm-564-32v-55l-42-5c-24-3-112-10-195-15-84-6-158-12-165-13-7-2-16 21-24 57-7 33-12 61-11 61 3 2 317 20 380 22l57 2zm538-178-3-52-223-1h-222v47 47l73 4c39 1 141 4 225 5l153 2zm-538 5c0-16 3-37 6-49 5-20 0-21-186-33-105-7-193-11-194-9-6 6-25 92-22 96 5 5 221 19 314 21l82 1z"/>
  </g>
</svg>
