<?xml version="1.0"?>
<svg xmlns="http://www.w3.org/2000/svg" height="200pt" preserveAspectRatio="xMidYMid meet" viewBox="0 0 200 200" width="200pt">
  <g transform="matrix(.1 0 0 -.1 0 200)">
    <path d="m740 1841c-5-11-10-38-10-60 0-74-21-188-59-327-29-105-42-139-57-145-10-4-81-12-157-18-151-13-357-45-387-61-24-13-26-43-4-61 13-10 31-11 97-1 223 34 437 54 437 42 0-25-57-184-101-282-53-116-62-160-38-183 8-7 98-57 202-110l187-97-19-27c-54-76-171-163-296-222-92-43-103-53-85-74 28-34 135-6 258 67 31 18 96 73 144 121l88 88 68-36c79-41 94-52 349-249 49-38 101 9 62 58-29 37-277 220-356 263l-71 39 45 69c101 157 135 242 183 456 18 79 35 147 39 152 4 4 151 11 327 16 175 5 327 12 337 16 20 8 24 60 5 71-14 9-289 7-505-2l-143-7v46c0 46-18 77-45 77-19 0-28-17-40-75l-10-50-180-7c-99-4-201-8-228-10s-47 1-47 7 16 69 36 140c40 148 58 351 34 380-17 21-47 19-60-4zm420-617c0-8-16-79-35-157-37-151-107-310-180-410l-35-47-148 75c-81 41-164 85-185 97l-37 24 36 74c20 41 56 133 79 204 24 71 47 132 52 137 9 9 102 14 321 17 114 2 132 0 132-14z"/>
  </g>
</svg>
