<?xml version="1.0"?>
<svg xmlns="http://www.w3.org/2000/svg" height="200pt" preserveAspectRatio="xMidYMid meet" viewBox="0 0 200 200" width="200pt">
  <g transform="matrix(.1 0 0 -.1 0 200)">
    <path d="m1420 1865c-92-16-247-50-317-71-54-15-78-40-67-68 10-27 39-27 160 3 162 39 404 78 404 65 0-4-46-59-103-123-118-132-207-248-207-267 0-8 15-37 34-66 39-61 106-193 106-208 0-5-11-10-24-10-44 0-506-98-521-110-23-19-18-49 9-62 20-8 71-2 263 36 131 25 254 47 273 48l34 3 9-60c4-33 6-145 4-250-4-196-26-340-66-443l-17-43-78 86c-75 83-110 103-122 71-3-8 2-29 12-48 20-40 158-230 179-248 28-24 60 2 83 67 12 32 27 76 35 98 23 63 55 229 67 352 7 80 7 157 0 269-6 86-9 159-6 161 7 8 207 32 261 33 29 0 60 7 73 16 23 16 30 58 11 70-17 10-125 5-252-11-61-8-114-15-117-15-4 0-38 60-75 133l-69 134 46 59c26 32 92 111 147 174 141 160 157 184 143 215-11 25-14 25-124 24-62-1-147-7-188-14z"/>
    <path d="m432 1723c-5-10-12-63-16-118-8-116-33-290-46-321-6-17-28-26-102-44-105-25-138-42-138-69 0-46 39-47 198-5l23 7-22-54c-64-159-90-235-85-254 3-11 28-49 56-84 77-96 77-85 8-191-33-52-84-125-114-164-62-78-67-109-20-114 24-3 38 6 83 53 29 32 79 97 111 145l57 87 110-153c61-85 118-166 129-180 21-29 62-30 80-2 15 25-4 59-143 250l-121 167 59 113c65 123 104 240 122 372l12 84 88 11c49 6 95 14 103 17 20 8 26 40 12 60-14 19-45 22-133 11l-63-8v50c0 72-37 103-73 63-12-13-17-36-17-75v-56l-55-12c-30-7-57-10-59-8-3 2 2 49 9 104 18 125 20 306 3 323s-46 15-56-5zm141-535c-12-96-54-230-99-321l-49-97-43 55c-23 30-42 59-42 64s20 59 45 120c24 61 49 129 55 151 9 34 16 41 48 49 38 10 72 18 84 20 3 0 4-18 1-41z"/>
  </g>
</svg>
