<?xml version="1.0"?>
<svg xmlns="http://www.w3.org/2000/svg" height="200pt" preserveAspectRatio="xMidYMid meet" viewBox="0 0 200 200" width="200pt">
  <g transform="matrix(.1 0 0 -.1 0 200)">
    <path d="m872 1907c-6-7-12-49-14-92l-3-80-170-13c-93-7-175-18-182-24-18-14-16-43 2-58 12-10 47-11 148-6 73 4 149 9 170 13l37 6v-81-80l-67-6c-138-14-309-39-325-47-22-12-23-58-2-66 13-5 151 8 352 33l42 5v-50c0-60 22-52-233-81-199-22-448-64-479-81-13-7-18-19-16-37 3-25 6-27 48-27 25 1 101 11 170 23 105 18 460 62 506 62 10 0 14-14 14-45 0-53 19-46-209-75-91-11-171-26-178-32-21-17-15-47 11-59 18-8 66-6 197 11 110 15 252 24 386 27 142 4 215 9 221 17 11 14 38 87 52 144l11 42h222c160 0 226 3 235 12 19 19 14 45-10 62-19 13-58 16-226 16-182 0-203 2-198 16 3 9 9 40 12 69 6 50 5 54-20 70s-46 17-227 11l-199-7v81 80h178c184 0 223 8 230 43 2 10-2 25-9 33-11 13-43 15-208 13l-196-2-3 73c-2 41-8 80-14 87-14 17-43 17-56 0zm425-528c-3-22-7-42-9-43-1-2-78-6-170-10l-168-6v44c0 34 4 46 18 49 9 3 88 5 176 6l159 1zm-32-141c-2-7-9-32-15-55l-10-42-140-3-140-3v48c0 26 3 48 8 48 4 1 66 5 137 8 72 4 138 8 147 9 10 1 16-3 13-10z"/>
    <path d="m740 965c-7-8-16-50-21-93-4-42-8-78-8-78-1-1-29-4-63-8-173-18-366-49-386-63-15-9-22-22-20-36 3-20 8-22 68-20 36 0 136 10 223 20l157 20-5-21c-3-12-27-62-52-111-25-50-44-100-42-110 6-30 47-45 121-45 100 0 107-6 51-47-74-53-199-110-293-133-47-11-95-25-107-30-30-13-29-45 1-65 22-15 31-14 111 6 151 37 277 99 398 197l38 31 96-45c111-51 136-66 257-151 49-35 99-63 112-63 25 0 49 32 41 54-10 25-213 161-323 216l-111 56 44 54c47 60 116 172 127 208 7 22 7 22 242 22 143 0 243 4 255 10 21 12 25 50 7 68-9 9-75 12-235 12h-224l7 59c8 72-6 104-44 99-24-3-27-8-39-82-7-44-14-81-16-82-1-1-70-5-154-9l-152-7 6 71c5 60 3 74-12 91-22 24-38 25-55 5zm320-250c0-25-148-235-165-235-2 0-30 7-62 15-31 8-74 15-95 15h-38l29 58c16 32 34 76 40 99 9 34 16 42 39 46 42 6 252 8 252 2z"/>
  </g>
</svg>
