<?xml version="1.0"?>
<svg xmlns="http://www.w3.org/2000/svg" height="200pt" preserveAspectRatio="xMidYMid meet" viewBox="0 0 200 200" width="200pt">
  <g transform="matrix(.1 0 0 -.1 0 200)">
    <path d="m1322 1838c-5-7-13-94-17-194l-7-181-132-22c-142-25-179-40-174-73 6-41 29-44 169-20 72 13 134 20 138 17 3-4 8-46 9-95l4-89-34-5c-253-43-262-46-292-75l-29-30 17-143c9-79 20-174 24-212 6-55 11-72 29-83 19-13 24-12 43 7 20 20 21 28 15 103-3 45-13 131-21 190-9 60-14 110-12 111 2 2 53 11 113 20 61 10 117 19 125 22 14 3 15-48 15-454 0-496 3-533 51-554 21-10 28-8 46 9 19 19 20 25 8 72-13 54-19 553-10 802l5 136 111 11c61 7 121 12 133 12 21 0 21-2 21-199v-200l-51 15c-28 9-57 13-65 10-52-20 59-118 136-120 69-1 70 1 70 294 0 317 11 296-152 287-62-4-134-9-160-13l-48-7v92 99c-1 9 56 19 188 32 56 6 109 13 117 16 25 10 29 45 7 67-20 19-25 20-134 8-62-6-130-14-150-17l-38-7v175c0 179-4 198-41 198-9 0-21-6-27-12z"/>
    <path d="m432 1723c-5-10-12-63-16-118-8-116-33-290-46-321-6-17-28-26-102-44-105-25-138-42-138-69 0-46 39-47 198-5l23 7-22-54c-64-159-90-235-85-254 3-11 28-49 56-84 77-96 77-85 8-191-33-52-84-125-114-164-62-78-67-109-20-114 24-3 38 6 83 53 29 32 79 97 111 145l57 87 110-153c61-85 118-166 129-180 21-29 62-30 80-2 15 25-4 59-143 250l-121 167 59 113c65 123 104 240 122 372l12 84 88 11c49 6 95 14 103 17 20 8 26 40 12 60-14 19-45 22-133 11l-63-8v50c0 72-37 103-73 63-12-13-17-36-17-75v-56l-55-12c-30-7-57-10-59-8-3 2 2 49 9 104 18 125 20 306 3 323s-46 15-56-5zm141-535c-12-96-54-230-99-321l-49-97-43 55c-23 30-42 59-42 64s20 59 45 120c24 61 49 129 55 151 9 34 16 41 48 49 38 10 72 18 84 20 3 0 4-18 1-41z"/>
  </g>
</svg>
