<?xml version="1.0"?>
<svg xmlns="http://www.w3.org/2000/svg" height="200pt" preserveAspectRatio="xMidYMid meet" viewBox="0 0 200 200" width="200pt">
  <g transform="matrix(.1 0 0 -.1 0 200)">
    <path d="m880 1765c-85-52-167-104-182-115-33-25-36-55-7-71 19-10 35-4 111 36 50 25 91 45 93 43s7-41 10-88l7-85-133-24c-174-30-223-48-227-82-6-47 15-51 129-25 133 30 209 40 209 29 0-18-111-143-172-194-92-77-185-134-322-199-128-61-150-77-144-107 6-32 81-22 190 26 144 64 297 168 400 273l88 89v-116c0-126 8-155 43-155 42 0 47 17 47 152v127l83-59c102-74 271-170 357-203 36-13 95-36 132-51 75-29 89-31 106-14 35 35 1 70-109 112-187 71-419 204-538 307l-42 37 48 7c26 4 120 10 209 14 113 4 166 10 178 20 18 16 21 56 4 67-16 10-225 6-341-7-54-6-100-10-102-8s-8 42-15 89c-6 47-13 93-16 102-3 12 12 28 56 58 56 38 61 44 58 73-5 56-36 47-208-58z"/>
    <path d="m1131 966c-9-11-11-34-6-78l7-63-155-15-154-15-12 60c-14 77-42 102-76 69-13-14-15-28-10-79l7-62-109-13c-144-17-189-46-129-85 21-14 35-14 130-2 58 7 106 11 106 8 0-4-9-39-20-79-36-130-34-133 119-167l94-21-71-47c-39-26-113-69-164-96-85-45-123-59-245-91-36-9-43-15-43-35 0-108 306-4 567 192l72 54 58-17c115-33 212-95 318-203 59-61 89-73 113-49 25 25 11 55-60 127-40 40-103 93-140 117-67 45-173 94-203 94-22 0-19 11 20 76 34 57 65 139 65 175 0 24 28 29 190 29 155 0 193 9 198 47 7 51-84 64-300 45l-77-7-6 45c-10 83-52 125-84 86zm-11-248c-1-25-47-126-79-170l-32-44-74 13c-110 18-140 28-139 44 1 8 8 44 15 80l13 67 101 9c152 15 195 15 195 1z"/>
  </g>
</svg>
