<?xml version="1.0"?>
<svg xmlns="http://www.w3.org/2000/svg" height="200pt" preserveAspectRatio="xMidYMid meet" viewBox="0 0 200 200" width="200pt">
  <g transform="matrix(.1 0 0 -.1 0 200)">
    <path d="m942 1908c-12-16-102-288-102-311 0-22 16-30 45-23 17 4 33 23 50 55 24 49 25 49 97 66 67 15 316 55 346 55 8 0 4-13-11-37-33-54-47-90-47-119 0-34 26-41 55-14 33 31 145 202 145 221 0 9-8 23-18 33-17 15-29 15-170-4-149-20-285-43-325-56-17-5-19-3-14 17 18 75 18 96 2 112-20 20-39 22-53 5z"/>
    <path d="m432 1858c-32-32-7-66 117-159 68-52 116-64 128-33 9 25-5 42-108 126-95 78-115 88-137 66z"/>
    <path d="m1085 1658c-44-130-113-237-209-325-75-69-79-93-17-93 25 0 49 9 74 28 37 27 109 109 128 145 10 17 12 17 28 3 45-41 353-166 410-166 31 0 51 16 51 42 0 22-16 31-142 74-57 19-146 56-199 81l-96 46 23 56c26 63 29 92 12 109-16 16-57 15-63 0z"/>
    <path d="m660 1519c-47-44-111-104-143-132-66-58-81-80-72-106 9-31 41-31 82-2 59 43 217 213 237 255 14 29 15 40 6 52-7 8-15 14-19 14s-45-36-91-81z"/>
    <path d="m1267 1184c-4-5-5-34-1-65 11-102 9-105-103-118-54-7-153-21-221-32-67-10-129-19-137-19-11 0-15 13-15 54 0 75-13 106-44 106-34 0-40-13-46-104l-5-80-65-14c-145-31-486-124-498-137-11-10-11-17-3-34 17-30 51-27 225 18 83 22 190 49 237 59l87 19-10-36c-14-50-43-105-94-179-24-35-44-71-44-82 0-30 35-48 84-43 59 7 155-11 244-45l74-28-54-41c-29-22-93-67-141-98-78-50-88-60-85-83 3-29 24-38 62-28 33 8 192 114 254 169 29 26 56 47 61 47 23 0 171-54 211-77 25-15 89-59 144-100 54-40 104-73 112-73 14 0 44 27 44 39 0 51-275 237-398 271l-43 11 30 34c64 74 180 307 196 396 6 34 9 37 52 43 25 3 94 6 152 6 115 0 328 16 354 26 32 12 32 66 0 78-9 4-52 2-97-3-44-6-161-12-258-15l-178-6v58c0 70-17 106-51 110-13 2-28 0-32-4zm-31-296c-13-65-133-291-183-346l-48-53-85 34c-82 32-140 48-222 62l-37 6 34 55c18 31 43 91 56 134l22 78 136 21c198 31 251 38 295 40 38 1 38 1 32-31z"/>
  </g>
</svg>
