<?xml version="1.0"?>
<svg xmlns="http://www.w3.org/2000/svg" height="200pt" preserveAspectRatio="xMidYMid meet" viewBox="0 0 200 200" width="200pt">
  <g transform="matrix(.1 0 0 -.1 0 200)">
    <path d="m1360 1834c-196-18-340-41-367-60-26-17-30-46-8-64 12-10 35-9 118 4 56 9 152 20 212 26 61 6 131 13 158 15l47 6v-43c0-89 5-85-148-92-198-9-349-24-372-36-25-13-26-56-2-69 10-6 47-6 92-1 41 4 153 11 248 15l173 8-3-44-3-44-150-6c-166-7-321-31-343-53-18-18-7-53 18-61 10-3 65 1 122 9s172 18 256 22c90 4 156 11 161 18 21 27 30 93 37 257 6 157 5 177-10 192-20 20-35 20-236 1z"/>
    <path d="m432 1723c-5-10-12-63-16-118-8-116-33-290-46-321-6-17-28-26-102-44-105-25-138-42-138-69 0-46 39-47 198-5l23 7-22-54c-64-159-90-235-85-254 3-11 28-49 56-84 77-96 77-85 8-191-33-52-84-125-114-164-62-78-67-109-20-114 24-3 38 6 83 53 29 32 79 97 111 145l57 87 110-153c61-85 118-166 129-180 21-29 62-30 80-2 15 25-4 59-143 250l-121 167 59 113c65 123 104 240 122 372l12 84 88 11c49 6 95 14 103 17 20 8 26 40 12 60-14 19-45 22-133 11l-63-8v50c0 72-37 103-73 63-12-13-17-36-17-75v-56l-55-12c-30-7-57-10-59-8-3 2 2 49 9 104 18 125 20 306 3 323s-46 15-56-5zm141-535c-12-96-54-230-99-321l-49-97-43 55c-23 30-42 59-42 64s20 59 45 120c24 61 49 129 55 151 9 34 16 41 48 49 38 10 72 18 84 20 3 0 4-18 1-41z"/>
    <path d="m1748 1250c-103-18-757-79-896-85-41-1-67-7-73-16-11-16-7-63 16-188 16-89 27-111 54-111 43 0 51 53 27 168-12 57-12 62 3 62 9 0 97 7 195 15 99 8 180 14 181 13 1-2 5-47 9-100l6-98h-27c-79-1-214-20-242-34-23-12-31-24-31-42 0-40 30-235 41-272 16-51 68-66 84-25 3 9-4 72-15 141-12 68-20 125-18 127 2 1 49 7 106 12l102 9v-206c1-236 13-439 29-469 16-29 49-27 61 4 6 15 7 156 3 355l-6 330h111 112v-120-121l-30 16c-63 33-88 6-46-50 32-42 99-79 127-70 11 4 24 18 30 32 15 39 12 366-4 387-11 16-28 17-155 14l-142-3-4 40c-3 22-7 65-9 96l-3 55 205 21c113 12 207 20 209 18s-22-38-52-81c-58-82-67-108-40-118 34-13 90 34 176 149 68 90 72 102 53 131-17 26-53 30-147 14z"/>
  </g>
</svg>
