<?xml version="1.0"?>
<svg xmlns="http://www.w3.org/2000/svg" height="200pt" preserveAspectRatio="xMidYMid meet" viewBox="0 0 200 200" width="200pt">
  <g transform="matrix(.1 0 0 -.1 0 200)">
    <path d="m1010 1853c-130-12-302-48-380-79-42-17-55-43-35-70 12-17 20-16 141 14 158 38 257 52 379 52h94l-34-82c-30-71-133-235-207-330-20-25-20-29-6-45s50-182 42-192c-2-2-129-17-281-32-325-33-568-65-595-80-12-6-18-19-16-31 6-38 29-43 145-29 312 37 749 78 757 71 14-14 20-592 7-720-7-63-14-116-15-118-2-2-27 9-54 25-40 22-53 25-63 16-19-19 3-56 62-103 40-31 59-40 83-38 39 4 52 29 68 134 14 87 18 672 5 760l-7 51 47 7c27 3 199 9 383 12 195 4 340 11 348 17 20 16 14 55-10 68-17 9-104 10-348 5-179-3-348-9-376-12l-51-6-7 55c-4 30-13 78-21 108-14 53-14 54 14 84 74 80 144 199 195 332 60 155 54 164-112 161-64 0-133-3-152-5z"/>
  </g>
</svg>
