<?xml version="1.0"?>
<svg xmlns="http://www.w3.org/2000/svg" height="200pt" preserveAspectRatio="xMidYMid meet" viewBox="0 0 200 200" width="200pt">
  <g transform="matrix(.1 0 0 -.1 0 200)">
    <path d="m882 1938c-8-8-12-59-12-175 0-161 0-163-22-167-13-3-158-17-323-32s-306-31-312-37c-20-15-16-51 28-216 46-179 58-204 97-199 40 4 39 39-3 196-39 142-38 151 9 152 10 0 143 11 295 25 373 33 533 44 815 52l239 6-32-59c-17-33-56-93-86-133-75-99-80-110-62-128 13-13 18-13 43 0 62 33 153 145 213 264 36 72 40 117 12 133-34 17-590 7-778-15l-43-5v148c0 156-9 195-45 200-11 1-26-3-33-10z"/>
    <path d="m1080 1329c-110-8-295-34-312-45-4-3-13-14-18-24-8-15-6-24 8-38 18-18 24-19 89-6 77 14 314 37 320 30 3-2-45-53-106-112-71-69-111-115-111-128 0-12 13-48 29-82l29-61-132-11c-272-25-590-82-643-118-28-18-30-59-4-74 15-7 43-4 113 15 138 37 545 95 669 95h37l11-63c18-105 14-338-9-439-10-48-25-99-33-113l-13-26-69 35c-76 40-90 43-99 20-11-28 50-88 130-131 50-26 52-26 78-10 69 46 120 241 118 461 0 77-6 168-12 203-7 35-11 66-9 68 10 9 259 25 489 31 140 4 263 11 273 16 20 10 23 48 5 66-22 22-443 14-738-13l-65-7-30 62-31 62 128 128c138 139 157 171 118 202-24 20-30 20-210 7z"/>
  </g>
</svg>
