<?xml version="1.0"?>
<svg xmlns="http://www.w3.org/2000/svg" height="200pt" preserveAspectRatio="xMidYMid meet" viewBox="0 0 200 200" width="200pt">
  <g transform="matrix(.1 0 0 -.1 0 200)">
    <path d="m771 1877c-6-8-15-83-20-167-6-84-14-156-18-160s-100-17-213-29-215-24-226-27c-27-5-37-29-24-55 14-25 89-25 293 0 81 9 147 14 147 10 0-21-88-257-124-335-50-105-145-250-155-238-4 5-18 77-31 159-29 187-32 197-66 193-16-2-30-11-34-23-4-11 6-105 21-210 15-104 28-200 28-213 1-17-28-51-100-121-108-106-121-133-64-139 25-2 44 9 103 58l72 61v-255c0-141 4-266 10-280 11-29 50-36 69-12 9 10 12 100 10 325l-1 311 50 67c134 182 176 266 258 508l54 160 52 7c135 17 485 40 693 45 186 4 233 8 248 21 22 19 22 36 0 58-16 15-37 16-233 10-118-3-325-15-460-26s-252-20-261-20c-15 0-16 15-12 143 6 151-1 187-36 187-10 0-24-6-30-13z"/>
    <path d="m1244 1218c-143-11-427-58-451-74-13-8-23-23-23-33 0-40 20-42 181-17 228 36 304 42 294 25-20-34-98-142-149-204s-56-71-51-107c3-21 14-56 24-77l20-38-132-17c-157-21-334-54-359-67-22-12-24-57-2-66 9-3 78 4 153 16 227 36 364 52 374 42 16-16 37-193 37-309v-114l-34 21c-35 22-60 20-70-6-4-10 12-34 48-70 47-47 59-54 88-51 52 5 61 46 54 248-3 91-12 195-19 232l-14 66 41 6c94 14 341 27 479 25 90-1 152 2 159 9 17 17 5 56-22 70-20 10-67 12-220 7-186-5-401-20-447-30-18-4-27 5-56 58l-34 62 28 17c28 17 105 114 199 251 46 68 52 81 42 101-14 30-29 33-138 24z"/>
  </g>
</svg>
