<?xml version="1.0"?>
<svg xmlns="http://www.w3.org/2000/svg" height="200pt" preserveAspectRatio="xMidYMid meet" viewBox="0 0 200 200" width="200pt">
  <g transform="matrix(.1 0 0 -.1 0 200)">
    <path d="m859 1924c-9-11-12-42-10-104l2-88-28-6c-15-3-73-10-128-17-78-8-104-15-117-31-14-16-15-24-7-40 11-20 17-20 103-14 50 3 110 9 134 12l42 7v-152c0-83-1-151-2-151-5-1-320-49-452-69-123-18-145-27-146-57 0-23 33-38 79-36 25 1 131 15 236 31 248 38 285 43 285 38 0-13-406-289-525-357-90-52-103-75-40-74 47 1 180 61 286 129 52 34 78 45 95 41 13-4 63 5 111 19 110 32 301 71 309 62 8-8-81-120-140-175-51-48-52-51-32-90 7-15 16-43 20-63l6-35-157-18c-87-9-228-28-313-41-85-14-176-25-201-25-55 0-82-17-77-51 3-22 7-24 71-27 39-2 144 8 240 23 220 32 430 54 440 45 9-8 14-386 5-395-4-4-40 11-80 32-76 42-98 44-98 13 0-29 53-84 121-124 63-37 100-45 116-23 25 31 35 140 31 326l-4 190 86 8c95 9 557 8 636-2 41-5 55-2 74 13 25 21 22 55-8 67-52 22-641 22-765 0-17-3-29 0-31 8-29 111-29 110 3 136 37 29 133 144 155 188 20 40 21 87 1 103-20 17-127 7-265-24-58-13-106-23-108-21-1 1 46 38 105 81l108 78 90 7c50 4 218 10 375 14s299 11 317 16c36 11 47 32 33 60-10 17-22 19-133 19-67 0-216-5-332-10-115-5-211-8-212-6-2 1 57 52 129 112 155 127 345 307 353 335 7 23-10 49-32 49-8 0-63-45-121-99-120-110-249-220-395-334-72-56-107-77-128-77h-29v149c0 83 4 152 8 155 5 3 78 10 163 17 159 12 199 24 199 58 0 42-22 45-178 32-81-7-156-14-168-17-17-5-22 0-28 27-3 17-6 54-6 81s-5 58-10 69c-13 23-43 25-61 3z"/>
  </g>
</svg>
