<?xml version="1.0"?>
<svg xmlns="http://www.w3.org/2000/svg" height="200pt" preserveAspectRatio="xMidYMid meet" viewBox="0 0 200 200" width="200pt">
  <g transform="matrix(.1 0 0 -.1 0 200)">
    <path d="m1000 1904c-41-24-137-71-213-106-76-34-143-68-148-74-6-7-8-22-4-34 10-30 65-26 163 14l82 33v-78c0-44-3-79-7-79-92-3-358-32-369-41-19-15-18-58 2-66 8-3 81-1 162 4 81 6 149 9 151 7 6-6-105-105-186-165-71-54-358-231-396-245-12-4-17-15-15-33 3-24 6-26 53-26 45 1 65 10 187 83 159 96 278 182 361 260l57 55v-122c0-133 8-161 45-161s45 28 45 164c0 69 2 126 5 126s27-14 53-30c73-45 180-92 358-158 163-61 355-122 384-122s53 25 46 47c-8 25-18 30-233 101-98 33-225 79-283 101-115 45-261 120-267 137-2 7 56 15 169 23 142 10 176 16 192 31 23 22 14 58-18 66-12 3-102-2-199-10-98-9-185-16-193-16-11 0-14 19-14 98v97l65 35c89 47 112 72 97 105-16 35-44 31-132-21z"/>
    <path d="m1149 1096c-2-3-80-12-173-20-249-24-336-48-336-91 0-20 30-47 46-41 55 21 418 65 431 53 2-3-42-44-99-92s-107-94-111-102c-5-8-3-30 6-52l16-38-97-7c-53-3-140-13-192-21s-192-29-310-46-226-36-240-42c-18-9-25-20-25-42 0-29 1-30 45-29 44 2 180 19 515 68 94 13 207 27 252 30l81 6 17-57c35-118 55-230 55-306v-78l-37 30c-21 17-69 48-108 69-38 21-84 47-101 57-33 20-64 15-64-9 0-26 57-82 125-122 36-21 92-62 125-91 43-40 66-53 89-53 45 0 54 27 59 170 3 116 1 135-30 259-22 84-30 134-24 136 67 20 711 25 815 7 77-14 104-4 99 36-4 39-34 49-187 62-140 13-373 9-626-9-76-6-142-8-146-3-4 4-10 16-13 28-5 17 8 32 73 83 44 34 109 90 145 124 54 51 66 68 66 94 0 19-6 33-16 37-18 7-118 8-125 2z"/>
  </g>
</svg>
