<?xml version="1.0"?>
<svg xmlns="http://www.w3.org/2000/svg" height="200pt" preserveAspectRatio="xMidYMid meet" viewBox="0 0 200 200" width="200pt">
  <g transform="matrix(.1 0 0 -.1 0 200)">
    <path d="m1336 1944c-9-8-16-22-16-30 0-25-36-86-95-163-60-78-66-104-23-109 54-6 175 138 200 238 9 34 8 44-7 60-22 24-38 25-59 4z"/>
    <path d="m820 1915c-7-8-10-25-6-39 6-25 165-187 194-197 26-10 52 9 52 38 0 20-23 48-96 119-96 94-121 107-144 79z"/>
    <path d="m450 1865c-21-25-4-57 57-111 138-121 190-147 211-106 14 25-1 54-44 87-22 16-69 55-105 87-68 59-97 70-119 43z"/>
    <path d="m1345 1623c-27-1-135-7-240-13-104-6-309-22-455-36s-303-28-348-31c-115-8-116-12-72-186 59-233 75-267 117-241 29 18 27 50-13 191-23 82-34 137-28 142 9 9 449 51 744 71 199 14 640 25 640 16 0-14-79-143-118-192-66-84-76-102-63-118 33-40 152 70 234 216 60 105 68 145 37 170-20 16-41 18-204 16-99-1-203-3-231-5z"/>
    <path d="m1080 1329c-110-8-295-34-312-45-4-3-13-14-18-24-8-15-6-24 8-38 18-18 24-19 89-6 77 14 314 37 320 30 3-2-45-53-106-112-71-69-111-115-111-128 0-12 13-48 29-82l29-61-132-11c-272-25-590-82-643-118-28-18-30-59-4-74 15-7 43-4 113 15 138 37 545 95 669 95h37l11-63c18-105 14-338-9-439-10-48-25-99-33-113l-13-26-69 35c-76 40-90 43-99 20-11-28 50-88 130-131 50-26 52-26 78-10 69 46 120 241 118 461 0 77-6 168-12 203-7 35-11 66-9 68 10 9 259 25 489 31 140 4 263 11 273 16 20 10 23 48 5 66-22 22-443 14-738-13l-65-7-30 62-31 62 128 128c138 139 157 171 118 202-24 20-30 20-210 7z"/>
  </g>
</svg>
