<?xml version="1.0"?>
<svg xmlns="http://www.w3.org/2000/svg" height="200pt" preserveAspectRatio="xMidYMid meet" viewBox="0 0 200 200" width="200pt">
  <g transform="matrix(.1 0 0 -.1 0 200)">
    <path d="m1370 1855c-77-78-191-160-323-230-112-60-132-80-107-110 21-25 61-16 158 34 75 39 91 45 86 29-15-50-98-227-124-268-17-26-30-54-30-64 0-16 44-61 110-114l24-20-28-40c-30-44-172-184-244-242-36-29-42-39-40-65 3-29 4-30 64-33 34-2 115 6 181 18 66 11 127 20 135 20 12 0 16-26 21-137 13-262 27-488 33-506 12-38 67-44 79-8 3 10 1 96-5 192-18 300-23 479-14 479 5 0 92 13 194 29l185 29 38-44c44-50 90-61 102-24 8 26-3 44-128 198-96 119-119 136-145 110-21-21-13-47 27-101 22-28 39-53 37-54-1-1-121-21-266-43-146-23-284-45-308-50l-43-8 79 82c111 114 219 289 266 433 24 73 19 107-17 111-25 3-30-2-45-39-9-23-38-85-63-137l-45-96-38 35-38 34 25 50c58 116 127 301 127 340 0 15 19 37 59 68 127 100 175 188 106 195-25 2-39-7-85-53z"/>
    <path d="m500 1692c-86-11-275-45-300-54-24-8-30-16-30-39 0-18 6-32 16-36 8-3 72 4 141 16s127 20 130 17c3-2-21-47-52-100s-65-116-76-141c-23-52-21-57 40-125 43-47 57-75 81-161 12-46 16-75 10-77-9-3-232-136-288-172-41-27-38-90 5-90 7 0 80 40 161 89 103 63 149 86 154 77 4-6 14-63 24-126 19-135 15-357-9-460-8-36-18-82-22-103l-6-38-52 46c-67 58-113 81-133 65-8-7-14-18-14-24 0-18 186-202 210-209 46-12 64 25 98 203 27 139 32 188 32 310 0 85-6 182-16 235-8 50-17 106-21 126l-5 35 110 58c61 32 118 66 127 76 21 23 13 50-14 50-25 0-129-39-198-73l-51-26-12 47c-18 76-58 154-100 197l-38 40 55 85c85 131 126 221 114 252-10 27-31 36-71 30z"/>
    <path d="m1545 557c-29-22-12-57 51-102 31-22 94-79 139-127 50-53 91-88 103-88 27 0 45 25 38 53-12 48-260 277-300 277-7 0-20-6-31-13z"/>
    <path d="m974 428c-72-76-114-135-114-160 0-28 17-48 41-48 18 0 179 192 179 214 0 19-22 36-45 36-12 0-39-19-61-42z"/>
  </g>
</svg>
