<?xml version="1.0"?>
<svg xmlns="http://www.w3.org/2000/svg" height="200pt" preserveAspectRatio="xMidYMid meet" viewBox="0 0 200 200" width="200pt">
  <g transform="matrix(.1 0 0 -.1 0 200)">
    <path d="m862 1897c-9-10-10-56-5-164l6-150-89-7c-49-4-174-16-279-27-104-10-213-19-241-19-90 0-113-22-90-87 7-21 19-69 25-108 28-159 32-175 52-185 13-8 25-7 40 1 20 10 21 17 16 69-4 32-14 93-22 135-9 41-13 80-10 85 3 6 24 10 47 10 22 0 131 9 241 20 263 25 736 50 956 50h174l-67-70c-67-69-74-85-45-103 34-21 152 68 214 161 23 35 26 46 17 66-10 22-13 23-229 29-120 3-283 2-363-3s-170-9-201-9l-57-1-7 134c-4 74-13 145-19 158-13 27-48 35-64 15z"/>
    <path d="m1024 1359c-107-86-310-209-391-236-44-16-58-45-33-68s64-15 158 30c61 29 72 32 72 17 0-9-10-88-22-174l-22-158-30-5c-17-3-155-24-306-46s-280-45-287-51c-19-16-16-46 7-58 16-8 82-2 278 25 141 19 272 38 291 42l34 6-7-84c-8-93 6-263 29-349 32-124 102-138 609-125 285 7 290 8 313 31 19 19 23 33 23 85 0 136-34 241-73 226-15-5-17-24-17-126v-119l-157-8c-335-16-584-5-604 28-4 6-13 41-21 77-13 69-18 354-6 366 11 11 154 23 428 35 454 19 634 31 647 42 19 15 16 56-4 66-10 4-90 5-178 1-403-19-785-40-831-45l-51-6 8 53c5 30 16 119 24 199 9 79 19 147 23 150s48 37 99 74c92 69 108 90 91 120-14 25-51 19-94-15z"/>
  </g>
</svg>
