<?xml version="1.0"?>
<svg xmlns="http://www.w3.org/2000/svg" height="200pt" preserveAspectRatio="xMidYMid meet" viewBox="0 0 200 200" width="200pt">
  <g transform="matrix(.1 0 0 -.1 0 200)">
    <path d="m833 1899c-9-9-10-52-6-159l6-146-149-12c-141-12-478-56-515-67-9-3-20-13-23-21-7-18 58-315 77-354 23-46 77-33 77 19 0 14-14 80-30 146s-30 125-30 131c0 12 280 49 495 65 72 5 321 12 553 16l424 6-116-156c-136-183-146-201-124-223 34-35 67-4 240 231 120 162 127 175 103 211l-17 27-438-5-437-6-6 125c-4 69-12 137-19 151-14 29-46 40-65 21z"/>
    <path d="m990 1280c-131-17-358-56-392-66-35-11-32-60 6-69 11-3 75 3 140 14 66 11 121 20 122 18 1-1 7-58 13-127s13-148 16-176l5-52-68-6c-254-25-505-74-535-105-16-16-17-22-7-41 14-25 18-25 180 9 116 25 313 51 381 51h49v-270c0-148-4-270-8-270s-28 20-52 45c-48 49-80 58-80 24 0-31 75-134 115-159s83-29 95-11c4 7 10 155 14 329s10 319 13 322c6 6 399 7 541 1 84-4 106-2 118 11 19 19 11 53-14 63-35 14-324 26-487 20l-171-6-17 177c-9 98-15 179-13 181s51 10 109 17c130 15 164 38 121 80-19 19-22 19-194-4z"/>
  </g>
</svg>
