<?xml version="1.0"?>
<svg xmlns="http://www.w3.org/2000/svg" height="200pt" preserveAspectRatio="xMidYMid meet" viewBox="0 0 200 200" width="200pt">
  <g transform="matrix(.1 0 0 -.1 0 200)">
    <path d="m922 1908c-7-7-12-37-12-67 0-31-3-113-7-182l-6-126-106-7c-236-14-606-57-621-72-12-12-12-29-3-111 20-169 35-267 44-290 18-47 80-13 78 43 0 16-11 88-23 159-13 72-22 131-21 132 2 4 400 42 555 53 80 6 260 15 400 20 140 6 336 14 435 19s181 8 183 6-25-41-59-87c-77-104-97-143-83-165 6-9 15-18 21-20 18-6 78 53 147 146 98 132 114 185 64 212-21 12-174 8-468-11-80-5-214-12-298-15l-153-5 3 173c2 136 0 177-11 190-16 20-42 22-59 5z"/>
    <path d="m1210 1320c-23-23-23-29-9-214 5-76 9-140 7-141-2-2-86-8-188-14-298-18-462-31-501-42-42-10-54-31-38-61 10-19 17-20 93-14 44 3 162 11 261 16s223 12 276 16l96 6 6-129c4-70 10-212 13-316 8-209 9-205-61-162-22 14-48 25-57 25-56 0 27-111 115-154 45-23 53-24 71-12 20 13 21 23 21 177 0 90-4 255-8 367l-8 203 190-2c203-2 225 3 219 45-6 38-42 46-229 46h-177l-5 33c-4 17-9 88-12 157-8 153-10 167-35 180-15 8-24 6-40-10z"/>
    <path d="m742 698c-22-22-13-57 25-90 21-18 60-54 88-79 63-58 85-70 108-58 48 27 1 94-135 195-66 48-69 49-86 32z"/>
  </g>
</svg>
