<?xml version="1.0"?>
<svg xmlns="http://www.w3.org/2000/svg" height="200pt" preserveAspectRatio="xMidYMid meet" viewBox="0 0 200 200" width="200pt">
  <g transform="matrix(.1 0 0 -.1 0 200)">
    <path d="m861 1851c-17-17-18-33-13-189l5-171-24-5c-13-3-89-12-169-21-265-31-500-72-521-91-26-23-24-51 12-174 16-58 34-136 39-173 4-37 14-74 20-82 16-19 44-19 60 0 19 23 7 145-25 250-15 50-29 97-32 105-4 13 33 21 234 48 131 18 303 39 383 47 148 14 1006 42 1016 33 3-3-29-58-71-123-105-161-121-205-74-205 25 0 62 39 141 148 127 175 153 238 106 263-22 12-296 9-809-8l-196-6-6 24c-4 13-7 86-7 162s-4 146-10 156c-14 28-38 33-59 12z"/>
    <path d="m1120 1255c-5-14-7-45-4-69 4-25 4-60 0-79l-6-34-113-12c-61-6-136-14-164-17l-53-7v54c0 72-16 126-42 140-38 21-51-8-49-110l2-90-33-5c-18-3-73-10-123-16-49-6-104-15-122-21-38-12-52-44-30-66 13-13 29-14 119-4 56 7 118 14 136 17 34 5 34 5 27-28-4-18-22-79-41-136s-34-115-34-128c0-28 40-49 158-85 39-12 72-25 72-30 0-11-73-72-159-131-81-56-171-97-213-98-40 0-58-10-58-32 0-58 101-65 205-14 78 37 216 135 286 202l45 45 80-26c103-34 367-163 428-210 61-46 99-46 104 1 3 26-3 37-34 62-74 61-304 176-454 228-30 10-57 19-58 20-2 2 15 30 37 63 54 80 113 202 136 283l19 66 51 6c27 3 100 9 160 12 115 7 155 20 155 53 0 39-23 44-168 38-75-4-147-10-159-13-22-6-23-4-23 69 0 96-11 127-45 127-18 0-28-7-35-25zm-35-297c-26-94-104-244-164-316l-27-34-103 33c-79 25-101 35-96 47 11 30 54 188 60 223l7 36 131 12c73 7 137 14 142 16 6 2 20 4 33 4 20 1 22-3 17-21z"/>
  </g>
</svg>
