<?xml version="1.0"?>
<svg xmlns="http://www.w3.org/2000/svg" height="200pt" preserveAspectRatio="xMidYMid meet" viewBox="0 0 200 200" width="200pt">
  <g transform="matrix(.1 0 0 -.1 0 200)">
    <path d="m892 1908c-8-8-12-55-12-155 0-140 0-143-22-147-13-3-126-7-253-10-233-4-324-15-346-42-10-12-8-45 10-162 12-81 24-159 27-175 7-34 36-52 64-37 26 14 26 50 0 199-11 63-18 117-16 119 16 16 1275 36 1291 21 3-4-22-47-55-97-65-96-72-125-30-130 29-3 59 25 164 156 110 138 103 145-164 162-129 8-271 11-391 7l-189-7v127c0 136-10 176-45 181-11 1-26-3-33-10z"/>
    <path d="m1030 1219c-36-4-132-16-213-25-132-15-150-19-163-39-17-25-10-52 15-60 9-3 118 6 241 20 124 14 242 25 263 25 35 0 77 27 77 49 0 40-70 49-220 30z"/>
    <path d="m1325 909c-352-27-997-119-1057-151-10-5-18-20-18-33 0-43 26-46 166-20 159 29 294 49 299 44 7-8-18-105-41-158-49-110-178-258-277-315-63-37-259-106-301-106s-62-21-47-48c23-43 78-42 218 3 182 60 277 126 385 267 93 122 148 251 148 344v31l133 14 133 14 1-125c1-126 17-225 53-344 51-164 150-215 460-238 230-16 334-1 347 50 8 32-23 336-37 362-13 24-33 26-50 5-10-12-12-52-7-170l7-154-37-7c-50-9-343 12-425 32-78 18-124 46-150 90-47 81-93 375-74 476l6 35 98 8c53 5 185 9 293 9 150 1 200 4 212 15 21 16 22 45 3 60-18 15-291 22-441 10z"/>
  </g>
</svg>
