<?xml version="1.0"?>
<svg xmlns="http://www.w3.org/2000/svg" height="200pt" preserveAspectRatio="xMidYMid meet" viewBox="0 0 200 200" width="200pt">
  <g transform="matrix(.1 0 0 -.1 0 200)">
    <path d="m882 1878c-8-8-12-59-12-163v-152l-212-6c-306-10-377-16-388-37s40-341 59-364c20-23 50-20 63 8 8 19 6 54-12 156-12 72-19 134-16 138 8 7 561 29 965 38l283 7-61-89c-65-94-73-127-32-132 30-5 96 63 169 171 55 83 62 106 36 131-13 13-34 15-127 11-62-3-199-7-306-10s-225-8-263-12l-68-6v142c0 79-5 151-10 162-12 21-50 25-68 7z"/>
    <path d="m1080 1259c-255-16-333-27-352-50-14-16-15-25-7-41 10-19 18-20 83-15 39 4 154 12 256 18s191 16 198 21c22 18 14 58-14 68-14 6-26 9-27 9-1-1-63-6-137-10z"/>
    <path d="m1000 899c-150-7-460-40-512-55-32-9-34-66-3-78 8-3 77 3 153 14 75 10 174 21 219 25l81 7 9-69c8-71 9-541 0-549-3-3-32 8-66 25-69 35-89 38-98 14-7-19 49-74 140-137 49-34 60-38 81-28 18 8 25 21 30 54 9 60 9 494 1 599l-8 86 54 6c30 4 141 7 247 7 114 0 201 4 213 10 21 12 26 55 8 66-17 10-347 12-549 3z"/>
    <path d="m1377 535c-10-9-17-20-17-24 0-16 28-39 84-70 73-40 178-123 200-157 14-20 24-25 49-22 28 3 32 7 35 34s-6 39-61 91c-73 68-198 150-244 159-21 4-35 1-46-11z"/>
    <path d="m501 460c-34-38-100-99-147-136-90-72-111-107-79-130 9-7 25-10 36-6 69 26 292 236 305 288 7 28-10 54-36 54-9 0-45-31-79-70z"/>
  </g>
</svg>
