<?xml version="1.0"?>
<svg xmlns="http://www.w3.org/2000/svg" height="200pt" preserveAspectRatio="xMidYMid meet" viewBox="0 0 200 200" width="200pt">
  <g transform="matrix(.1 0 0 -.1 0 200)">
    <path d="m830 1835c-9-11-11-50-5-159l7-144-54-6c-29-3-102-11-163-17-60-6-162-20-225-30-219-37-217-34-159-247 45-164 65-195 103-156 22 21 21 28-20 170-20 69-34 127-32 129 7 7 177 34 313 50 157 19 674 37 913 33l172-3-85-99c-47-54-93-112-101-129-14-26-14-31-1-45 14-13 19-12 50 7 19 12 61 50 94 84 154 165 192 239 141 270-19 11-84 12-343 6-176-4-363-9-416-12l-97-5-12 147c-7 80-17 152-22 159-14 16-43 15-58-3z"/>
    <path d="m891 1301c-7-12-7-58-1-132 4-63 11-153 14-200l6-86-163-21c-89-12-185-25-213-28s-57-10-64-14c-9-6-5-55 18-221 17-118 34-239 37-269 12-105 14-110 58-129 35-15 55-17 117-10 131 14 401 29 530 30 69 1 136 4 149 8 36 10 48 34 31 66-13 24-12 41 8 153 43 236 63 385 58 408-4 15-17 27-34 31-15 5-122 7-238 6l-210-2-18 202c-10 111-23 208-28 215-15 18-46 15-57-7zm495-516c-3-13-9-51-12-84-4-32-9-64-13-69-4-6-79-12-183-14-141-2-179 0-183 10-3 8-5 49-5 92 0 66 3 79 18 83 9 3 100 5 201 6l183 1zm-476-83v-98l-161-23c-88-12-162-21-165-19-3 4-24 134-27 172-2 18 12 22 168 42 94 12 173 22 178 23 4 0 7-43 7-97zm425-174c4-4 2-30-4-60-5-29-13-76-16-104l-6-51-146-7c-80-3-147-5-148-4-1 2-5 53-9 115l-7 112 43 4c61 6 286 2 293-5zm-421-25c3-10 6-61 8-113l2-95-124-12c-69-6-137-14-152-17-30-6-26-17-46 147-7 58-6 67 7 68 9 0 72 9 141 19 162 23 158 23 164 3z"/>
  </g>
</svg>
