<?xml version="1.0"?>
<svg xmlns="http://www.w3.org/2000/svg" height="200pt" preserveAspectRatio="xMidYMid meet" viewBox="0 0 200 200" width="200pt">
  <g transform="matrix(.1 0 0 -.1 0 200)">
    <path d="m906 1884c-13-13-16-43-16-168v-153l-178-12c-356-24-463-37-485-59l-20-20 21-79c12-43 31-121 42-173 12-52 26-100 32-107 14-17 53-16 68 2 14 17 10 48-29 203-25 98-26 112-12 112 9 0 102 7 206 16 105 8 298 19 430 24s319 14 416 20 197 10 224 8l48-3-65-80c-128-160-148-202-106-229 22-13 43 6 152 139 147 178 168 218 138 255l-19 23-319-17c-175-9-349-19-386-23l-68-6v152c0 138-2 153-20 171-24 24-34 25-54 4z"/>
    <path d="m1130 1230c-47-4-173-13-280-20-204-12-240-21-240-60 0-11 10-26 23-35 20-13 39-13 131-4 59 6 110 8 113 6 2-3 7-148 10-321 5-249 3-316-6-316-25 0-231 72-241 85-7 9-6 34 5 85 28 134 20 200-25 200-27 0-35-18-53-122-30-174-96-309-216-440-34-36-61-72-61-80 0-21 21-38 49-38 43 0 167 144 230 268 17 33 26 42 39 37 165-67 419-137 612-170 80-13 207-35 283-49 204-38 277-33 277 19 0 29 10 25-190 60-80 14-224 39-320 55-96 17-200 38-230 46l-55 15v172 172l55 12c30 6 78 12 105 12 60 1 98 23 93 54-5 34-38 44-122 36-42-4-89-10-104-14-28-6-29-5-36 41-3 26-6 78-6 115 0 81-17 73 180 88 120 9 137 12 153 32 15 19 16 25 4 43-17 25-49 27-177 16z"/>
  </g>
</svg>
