<?xml version="1.0"?>
<svg xmlns="http://www.w3.org/2000/svg" height="200pt" preserveAspectRatio="xMidYMid meet" viewBox="0 0 200 200" width="200pt">
  <g transform="matrix(.1 0 0 -.1 0 200)">
    <path d="m864 1842c-20-14-23-41-14-154 4-62 7-114 5-116-9-10-445-66-579-74-60-4-63-17-37-169 12-74 28-145 35-159 23-49 76-33 76 24 0 17-9 73-19 124l-18 92 21 5c12 2 71 9 131 15 61 6 191 22 290 35 212 29 557 55 731 55h123l-70-92c-72-98-84-132-48-143 28-9 61 15 127 96 106 130 132 185 100 217-17 17-299 16-549-3-112-9-208-14-215-11-8 3-14 46-19 123-4 65-12 124-17 131-12 13-37 16-54 4z"/>
    <path d="m1130 1253c-214-20-468-57-507-73-27-11-31-51-8-70 12-10 37-9 125 5 61 10 113 15 116 12 8-8 28-312 22-329-4-10-27-17-76-21-124-12-182-43-156-85 13-19 27-20 143-3 69 10 85 10 92-1 5-7 9-80 9-163 0-82 3-167 6-188l7-37h-46c-88 0-442-53-539-80-47-13-67-45-44-68 14-14 33-13 208 16 106 17 243 37 303 43 93 10 443 12 929 5 59-1 70 2 82 20 13 19 12 24-4 45l-20 23-394 4-395 4-5 197c-3 108-4 198-2 199 1 2 75 11 163 20 88 10 165 22 172 29 16 16 3 60-20 66-17 4-99-1-252-18l-66-7-6 58c-4 33-10 112-13 177-7 110-6 117 12 117 85 2 306 30 319 40 19 16 19 34-1 54-15 16-62 18-154 9z"/>
    <path d="m1292 601c-28-17-7-55 58-108 88-72 115-86 140-73 23 12 26 38 8 63-21 27-160 127-177 127-9 0-22-4-29-9z"/>
  </g>
</svg>
