<?xml version="1.0"?>
<svg xmlns="http://www.w3.org/2000/svg" height="200pt" preserveAspectRatio="xMidYMid meet" viewBox="0 0 200 200" width="200pt">
  <g transform="matrix(.1 0 0 -.1 0 200)">
    <path d="m929 1930c-13-8-18-35-24-135-4-69-10-125-14-125-169-2-599-37-638-51-34-13-43-63-27-155 8-43 17-116 21-162 8-106 35-138 79-95 14 15 16 30 10 113-4 52-13 123-20 157l-13 62 36 5c172 27 670 40 1058 29l272-8-45-77c-65-110-71-199-12-167 34 18 178 251 178 288 0 45-21 51-193 51-89 0-260 3-379 7l-218 6v114c0 100-2 115-20 133-22 22-28 23-51 10z"/>
    <path d="m932 1518c-5-7-13-39-17-70-7-57-8-58-44-63-188-31-241-49-241-84 0-39 24-45 113-28 45 9 101 19 125 22l42 7v-85-84l-72-7c-108-10-152-40-117-82 10-13 28-14 102-8l89 7-7-104c-4-57-9-106-11-108s-91-16-198-31c-107-16-200-31-206-35-14-8-13-48 2-63 17-17 55-15 218 9 78 11 144 18 146 16 3-3-23-40-58-83-114-141-325-290-498-350-73-26-91-44-70-69 31-37 180 0 306 76 142 86 347 276 402 374 8 15 22 7 111-69 175-148 366-268 526-330 160-61 260-67 260-15 0 22-11 28-135 70-150 50-263 106-403 200-93 62-265 198-266 211-1 7 64 14 248 25 102 7 126 11 135 26 8 12 8 22 0 35-21 33-58 36-241 24-98-6-178-10-179-9s1 48 4 104l5 102 69 7c93 9 118 34 77 75-19 19-29 21-85 15l-64-7v84 84l123 8c67 4 128 12 135 17 6 6 12 21 12 33 0 42-20 47-149 40l-119-7 5 44c3 25 0 55-6 67-13 23-52 28-69 9z"/>
  </g>
</svg>
