<?xml version="1.0"?>
<svg xmlns="http://www.w3.org/2000/svg" height="200pt" preserveAspectRatio="xMidYMid meet" viewBox="0 0 200 200" width="200pt">
  <g transform="matrix(.1 0 0 -.1 0 200)">
    <path d="m884 1913c-15-15-16-32-11-134 8-137 20-124-123-134-107-7-319-40-386-60-25-7-46-9-50-4-8 14-40 10-55-7-10-13-10-39 5-152 10-75 21-148 25-161 10-34 36-49 59-35 23 15 27 81 9 183-14 80-14 81 7 87 113 27 243 46 411 59 110 8 281 22 380 30 225 19 555 30 555 20 0-4-22-43-50-86-53-83-58-100-36-118 33-28 107 46 191 192 33 57 29 93-12 103-43 11-503-5-671-22-84-9-155-14-158-12-3 3-8 55-11 114-7 141-32 184-79 137z"/>
    <path d="m1140 1443c-14-2-94-20-179-38-85-19-158-32-163-29-21 13-51-12-80-69-38-76-80-139-131-194-75-82-7-120 77-43l43 40 60-48c33-26 72-56 88-67l28-21-77-62c-148-119-265-187-416-242-64-24-75-31-75-51 0-15 10-29 26-38 23-13 33-12 98 9 138 46 334 165 471 288l53 48 146-79c169-91 207-107 412-182 162-59 223-68 234-36 7 24-2 48-23 56-9 4-102 38-206 76-118 43-248 100-343 150-84 44-153 82-153 85 0 2 22 32 50 66 64 80 170 287 170 333 0 49-29 62-110 48zm0-100c0-20-91-172-139-233l-54-69-72 50c-39 27-82 60-94 73l-22 23 26 54c26 52 29 54 68 56 23 1 89 13 147 27 114 27 140 30 140 19z"/>
    <path d="m1130 710c-69-4-181-16-250-26-69-9-143-18-165-18-22-1-46-5-54-10-18-12-11-64 34-263 20-87 38-168 41-181 2-12 16-27 30-32 14-6 133-10 265-10 288 0 279-4 298 126 34 232 41 384 18 402-20 17-81 20-217 12zm135-167c-8-90-32-274-37-278-2-2-94-5-205-7l-202-4-36 146c-19 80-35 152-35 161 0 14 18 19 85 29 141 20 225 27 333 29l104 1z"/>
  </g>
</svg>
