<?xml version="1.0"?>
<svg xmlns="http://www.w3.org/2000/svg" height="200pt" preserveAspectRatio="xMidYMid meet" viewBox="0 0 200 200" width="200pt">
  <g transform="matrix(.1 0 0 -.1 0 200)">
    <path d="m852 1838c-8-8-12-54-12-140 0-115-2-128-17-128-10 0-130-12-268-26-137-15-276-26-308-26-75 0-81-13-56-123 10-44 26-120 35-169 19-99 41-134 73-117 10 6 21 18 25 27 5 14-36 241-50 279-7 18 4 20 376 56 251 24 386 31 668 36l352 6-55-96c-65-110-74-150-35-155 17-2 33 5 47 20 40 42 153 242 153 269 0 52-1 53-388 45-196-3-380-9-408-12l-51-6-5 120c-4 123-13 152-47 152-9 0-22-5-29-12z"/>
    <path d="m1075 1269c-184-9-354-26-406-39-19-6-46-21-58-34-27-29-28-6 14-366 23-191 31-239 47-255 16-18 31-20 136-20 171 0 482 17 488 26 3 5 6 106 8 226s7 265 11 323c10 155 15 153-240 139zm155-123c0-23-3-71-6-105l-7-61-166-1c-91 0-206-6-256-13-49-7-91-12-93-11-5 4-33 188-29 191 12 13 308 38 495 43l62 1zm-20-370v-123l-137-6c-76-4-183-10-239-13l-101-7-6 84c-4 46-10 100-13 120l-6 37 43 7c82 14 194 22 327 24l132 1z"/>
    <path d="m737 349c-181-9-278-22-421-54-114-26-136-36-136-65 0-40 23-43 142-16 162 36 240 44 567 57 215 8 335 8 465 0 97-6 238-11 314-11 77 0 153-5 170-11 22-7 36-7 51 1 25 13 28 52 5 71-35 29-791 47-1157 28z"/>
  </g>
</svg>
