<?xml version="1.0"?>
<svg xmlns="http://www.w3.org/2000/svg" height="200pt" preserveAspectRatio="xMidYMid meet" viewBox="0 0 200 200" width="200pt">
  <g transform="matrix(.1 0 0 -.1 0 200)">
    <path d="m865 1923c-14-13-16-28-11-67 3-28 9-90 12-137l7-87-64-7c-299-31-567-71-586-87-7-5-15-29-18-53-6-34 1-67 33-166 22-68 44-141 47-162 5-24 16-44 31-54 23-14 26-14 44 2 29 26 25 57-26 215-25 78-44 144-42 146 7 6 195 32 383 53 133 15 288 22 595 27 404 6 414 6 400-12-8-10-42-51-75-91-71-84-101-134-92-157 14-36 50-16 136 75 140 148 175 216 135 261-19 21-21 21-416 15l-398-6v47c0 66-20 224-31 245-12 22-43 22-64 0z"/>
    <path d="m1055 1344c-11-2-89-10-174-19-193-21-203-25-199-67l3-33 72 1c52 1 71-1 65-10-4-6-57-86-118-177-124-186-143-223-127-248 15-24 44-25 161-2 59 11 130 23 157 26l50 6-5-98c-4-77-8-98-20-100-8-1-54-7-103-13-96-13-119-30-96-71 11-21 16-21 100-15 49 4 96 9 104 12 13 5 15-15 15-145v-151h-43c-23 0-128-9-232-19-105-11-225-22-268-26-101-9-133-38-88-79 21-19 72-17 431 20 110 11 267 14 654 13 442-1 510 1 523 14 21 21 9 63-19 71-13 3-156 6-318 6s-352 3-422 7l-128 6v147 148l43 5c23 4 74 9 112 13 78 7 95 16 95 50 0 39-29 46-141 34-56-6-102-10-104-8s-5 45-6 96c-4 86-3 92 16 92 11 1 85 7 165 14l145 14 62-59c67-64 66-64 94-49 39 21 24 60-52 135-38 39-95 100-126 138-56 68-84 82-111 55-20-20-14-43 23-92 34-43 34-46 14-46-49 0-371-32-454-45-49-8-90-13-92-11-3 3 191 289 225 332 20 24 33 29 90 36 37 4 100 7 140 7 59 1 76 5 93 22 18 18 19 23 6 42-13 20-24 22-103 23-49 1-98 0-109-2z"/>
  </g>
</svg>
