<?xml version="1.0"?>
<svg xmlns="http://www.w3.org/2000/svg" height="200pt" preserveAspectRatio="xMidYMid meet" viewBox="0 0 200 200" width="200pt">
  <g transform="matrix(.1 0 0 -.1 0 200)">
    <path d="m878 1949c-16-9-18-26-18-133v-123l-67-6c-38-4-149-9-248-12s-199-8-223-11c-67-8-70-25-38-196 35-180 39-190 73-186 47 6 50 25 22 166l-25 129 160 7c89 4 289 11 446 16s348 12 425 15c77 4 152 3 167-2l26-8-54-95c-30-52-53-104-52-115 5-32 49-31 80 2 44 47 148 225 148 254 0 53-10 54-299 50-146-2-309-4-361-5l-95-1-3 120c-2 98-5 122-19 133-20 14-23 14-45 1z"/>
    <path d="m895 1523c-13-13-15-27-10-74l7-57-79-6c-206-17-252-31-239-74 10-30 30-33 141-22 55 5 119 10 143 10h42v-78-78l-91-11c-98-13-119-23-119-59 0-33 27-44 80-34 25 5 66 9 93 10h47v-64c0-34 3-90 6-123l7-60-79-6c-388-28-613-56-640-78-18-15-18-43 1-59 13-11 32-11 98-1 45 6 161 18 257 26s238 20 315 27c77 6 295 12 485 12 302 1 353-1 408-17 72-20 102-12 102 28 0 36-32 52-140 71-80 14-146 16-410 12l-315-5-3 122-3 122 53 6c29 4 71 7 93 7 46 0 65 14 65 47 0 36-31 45-131 37l-89-7v82 81h153c162 0 177 4 177 47 0 38-30 45-190 41l-150-3-6 58c-9 80-41 109-79 70z"/>
    <path d="m1439 626c-2-3-106-10-229-16-124-6-287-17-364-25-76-8-171-15-212-15-81 0-140-21-150-52-3-11 12-79 34-151 22-73 43-144 46-159 4-15 18-35 32-44 23-16 49-16 307-5 155 6 348 11 428 11 185 0 183-1 209 130 10 52 28 126 39 165 40 135 26 165-73 165-34 0-65-2-67-4zm45-168c-12-46-28-108-34-139l-11-56-252-6c-139-4-316-10-394-13-118-6-143-5-147 7-2 8-18 60-35 115-17 56-31 104-31 108 0 3 21 6 47 6 27 0 147 9 268 20 184 17 406 32 576 39l37 1z"/>
  </g>
</svg>
