<?xml version="1.0"?>
<svg xmlns="http://www.w3.org/2000/svg" height="200pt" preserveAspectRatio="xMidYMid meet" viewBox="0 0 200 200" width="200pt">
  <g transform="matrix(.1 0 0 -.1 0 200)">
    <path d="m880 1861c-5-11-10-84-10-164v-145l-77-7c-43-3-161-15-263-25s-222-22-267-25c-59-5-88-12-104-26-12-10-25-19-29-19-21 0-17-43 11-149 17-64 36-131 43-150 25-74 82-67 79 10-1 37-35 172-58 232-6 15 0 17 47 17 30 0 144 9 254 20 231 23 396 35 654 50 102 6 256 18 343 27s160 14 162 11c3-2-25-49-60-103-66-100-82-135-70-154 21-35 89 26 193 173 63 90 77 137 50 164-16 16-123 15-283-2-71-8-188-17-260-20-71-4-163-9-202-13l-73-6v142c0 79-5 151-10 162-6 11-21 19-35 19s-29-8-35-19z"/>
    <path d="m910 1274c-275-36-347-66-293-119 10-11 25-15 42-11 71 15 162 28 166 24 8-8-42-127-76-179-39-61-116-132-233-214-126-88-129-91-115-116 9-17 17-20 46-16 80 13 292 173 360 272 21 30 41 54 45 55 11 0 58-72 58-89 0-42-238-299-340-365-36-24-93-58-127-75-65-32-81-60-46-79 31-18 149 31 263 108 60 41 192 174 255 258l40 53 12-48c23-98 24-97-99-218-121-118-265-222-380-274-52-23-68-35-68-50 0-28 39-36 97-22 107 27 243 119 420 285 72 67 70 71 53-79-12-109-30-194-42-201-5-4-36 6-69 21-64 28-89 27-89-3 0-21 87-94 133-111 38-15 82-14 95 2 29 36 67 268 75 450l2 58 40-52c47-61 208-192 329-268 99-61 339-161 390-161 18 0 39 7 46 15 26 32 6 47-146 109-161 67-212 93-314 164-112 78-190 145-246 211l-55 63 53 35c67 43 173 146 249 241 60 74 69 98 47 120-25 25-53 13-93-40-53-70-210-226-263-262-40-27-43-28-61-12-10 9-24 35-30 59-21 69-81 175-120 210l-37 33 20 65c11 35 20 65 21 66 0 0 52 6 115 12 63 7 122 14 132 17 22 7 30 31 18 55-9 17-21 19-93 18-45-1-129-7-187-15z"/>
  </g>
</svg>
