<?xml version="1.0"?>
<svg xmlns="http://www.w3.org/2000/svg" height="200pt" preserveAspectRatio="xMidYMid meet" viewBox="0 0 200 200" width="200pt">
  <g transform="matrix(.1 0 0 -.1 0 200)">
    <path d="m847 1922c-15-16-16-37-10-159l6-141-44-6c-24-3-98-10-164-16s-174-17-240-25-135-16-154-17c-56-5-58-20-28-185 16-81 34-154 42-162 18-18 61-7 68 18 2 11-6 69-18 131-16 79-19 113-11 115 19 6 281 34 466 50 96 8 341 18 544 21l368 7-27-44c-15-24-47-72-71-106-46-64-55-99-29-109 24-10 60 20 126 103 63 80 109 160 109 191 0 10-8 26-18 35-16 15-46 17-233 16-118-1-300-4-405-8l-191-6-6 134c-5 96-11 140-22 157-19 29-36 30-58 6z"/>
    <path d="m1081 1421c-29-29-13-67 55-131 65-62 175-116 327-160 101-30 109-31 132-16 28 18 32 38 11 55-8 7-68 29-133 51-168 54-246 94-300 155-59 66-68 70-92 46z"/>
    <path d="m605 1378c-2-7-9-35-15-61-16-75-45-121-107-174-94-80-95-81-83-103 21-39 92-13 168 60 103 100 147 290 67 290-14 0-28-6-30-12z"/>
    <path d="m856 1194c-9-8-16-28-16-44 0-42-64-183-125-275-97-146-197-233-424-370-98-59-116-74-116-95 0-38 49-39 123-1 258 130 478 346 568 557 15 35 30 64 33 63 3 0 29-32 56-70 28-38 86-105 131-148 121-117 206-156 498-226 125-30 240-55 255-55 33 0 51 17 51 46 0 28 0 28-293 99-282 68-353 100-467 215-81 81-157 180-186 245-34 74-57 90-88 59z"/>
    <path d="m1150 609c-228-13-596-67-627-92-20-15-16-44 26-183 21-71 42-145 46-164 17-88 26-108 46-113 12-3 28 2 39 13 24 24 169 40 450 47 118 3 222 9 230 14 11 6 15 27 15 86 0 43 4 143 9 223 12 199 31 185-234 169zm146-186c-4-60-9-131-13-159l-5-51-157-6c-157-7-348-22-408-33-26-5-33-3-33 9 0 14-59 216-75 258-8 20 31 28 295 58 184 22 235 26 339 29l64 2z"/>
  </g>
</svg>
