<?xml version="1.0"?>
<svg xmlns="http://www.w3.org/2000/svg" height="200pt" preserveAspectRatio="xMidYMid meet" viewBox="0 0 200 200" width="200pt">
  <g transform="matrix(.1 0 0 -.1 0 200)">
    <path d="m915 1894c-14-14-16-38-13-160l3-143-65-5c-36-4-144-11-240-16-342-19-375-21-397-26-12-2-30-19-41-36l-20-33 23-120c12-66 26-145 30-175 8-64 19-80 51-80 51 0 53 47 9 252l-23 108 32 4c101 16 713 40 1085 44l435 4-47-54c-108-122-131-178-71-178 31 0 165 135 213 214 32 54 33 57 16 82l-16 25-439-3c-432-3-439-3-444 17-3 11-6 72-6 135 0 88-4 121-16 138-18 26-37 28-59 6z"/>
    <path d="m621 1273c-67-134-118-200-249-323-119-111-135-142-80-148 41-5 85 23 173 109l80 78 1-392c1-216 4-402 8-414 10-30 43-39 66-18 18 17 19 35 14 454-3 242-9 440-14 445-6 6-1 20 10 36s41 71 66 124c41 84 45 100 36 121-8 17-20 25-37 25-21 0-31-13-74-97z"/>
    <path d="m1405 1233c-186-15-394-37-412-44-27-10-31-50-8-69 15-12 93-10 214 7l44 6-44-64c-24-34-77-97-117-138-40-42-78-86-83-99s-9-153-9-312c0-283 5-331 34-351 13-10 639 2 652 12 7 6 14 86 18 222 4 116 11 267 17 335 11 136 8 159-24 171-12 5-105 4-207-1s-209-7-238-6l-53 3 45 59c26 32 62 84 81 116l35 57 91 6c51 4 122 7 159 7 70 0 90 10 90 45 0 39-18 45-135 43-60-1-128-3-150-5zm213-495c-3-46-7-98-7-115l-1-33h-227c-126 0-245-4-265-9l-38-9v117 118l152 2c84 1 155 4 157 7 2 2 57 4 120 4h116zm-18-357v-118l-232-6c-128-3-245-9-260-13l-28-6v133 134l260-3 260-3z"/>
  </g>
</svg>
