<?xml version="1.0"?>
<svg xmlns="http://www.w3.org/2000/svg" height="200pt" preserveAspectRatio="xMidYMid meet" viewBox="0 0 200 200" width="200pt">
  <g transform="matrix(.1 0 0 -.1 0 200)">
    <path d="m878 1929c-16-9-18-28-18-164 0-154 0-155-22-155-31 0-435-28-526-36-107-10-108-12-70-199 17-82 35-156 41-163s22-12 36-10c22 3 26 9 29 42 2 21-6 83-18 138s-20 101-18 103c9 9 548 42 1125 68 166 8 249 9 245 2-3-5-44-56-91-113-108-130-119-147-105-170 24-38 49-26 129 61 111 122 195 237 195 268 0 52-5 52-322 40-161-7-348-15-415-18l-121-6-4 147c-3 132-5 149-22 162-23 16-25 17-48 3z"/>
    <path d="m889 1484c-7-8-16-40-20-71s-12-60-18-66c-5-5-52-13-103-18-113-11-118-12-118-42 0-41 22-50 105-44 41 3 75 2 75-2 0-16-59-89-125-155-38-37-102-87-147-113-86-50-98-64-77-89 19-24 79-12 147 28 70 41 207 174 257 250l37 57 43-33c111-84 466-250 565-263 41-6 65 14 56 45-7 21-29 32-176 87-105 40-354 166-384 195-17 17-14 18 115 25 74 4 142 11 152 16 24 13 22 56-4 70-21 11-82 9-258-8l-63-6 7 52c10 77-30 129-66 85z"/>
    <path d="m1195 864c-82-7-204-18-270-24-146-13-516-66-567-80-46-13-63-39-44-66 13-17 22-17 242 14 211 30 389 49 618 67l89 7-8-98c-3-55-13-151-21-214s-14-144-14-180c0-84-8-97-46-77-47 24-89 30-102 14-16-18-3-33 79-95 88-65 86-64 110-57 31 10 39 45 49 214 10 177 39 493 46 500 2 2 73 4 156 4 84 0 161 4 171 9 20 10 23 48 5 66-16 16-292 14-493-4z"/>
    <path d="m888 640c-154-12-188-19-214-45-13-13-24-34-24-47 0-36 49-174 68-191 14-12 43-14 171-9 198 6 191 1 191 156 0 107-1 116-22 130-12 9-34 15-48 15-14-1-69-5-122-9zm102-140v-60h-42c-24 0-73-3-109-6l-67-7-17 52c-9 29-15 55-12 57 5 5 143 20 215 23l32 1z"/>
  </g>
</svg>
