<?xml version="1.0"?>
<svg xmlns="http://www.w3.org/2000/svg" height="200pt" preserveAspectRatio="xMidYMid meet" viewBox="0 0 200 200" width="200pt">
  <g transform="matrix(.1 0 0 -.1 0 200)">
    <path d="m910 1885c-7-9-14-67-17-153l-6-139-81-7c-45-3-128-6-186-6-189-1-386-27-418-56-11-9-12-43-3-188 11-182 19-216 49-216 47 1 49 9 37 221l-7 126 33 6c19 4 138 11 264 17 127 5 289 14 360 20 382 31 815 48 815 34 0-4-29-45-64-93-92-125-101-151-50-151 30 0 108 79 186 186 66 93 77 123 51 146-16 14-42 15-223 7-113-4-272-12-355-18-82-6-187-13-232-15l-83-5v137c0 141-5 162-41 162-9 0-22-7-29-15z"/>
    <path d="m868 1399c-29-16-21-46 28-115 33-47 52-64 69-64 35 0 51 25 36 57-22 47-93 134-110 133-3 0-14-5-23-11z"/>
    <path d="m1184 1388c-11-13-38-48-61-78-22-30-91-106-153-168-96-97-115-111-128-100-24 20-130 188-143 225-9 27-16 33-39 33-16 0-30-7-34-16-17-45-2-82 95-226l58-87-50-37c-27-20-84-54-127-76-94-48-99-53-82-73 33-39 146-5 267 81l63 45 33-25c65-50 214-87 417-106 170-15 295-13 313 5 17 17 40 135 31 159-16 41-64 6-80-58l-7-29-146 6c-215 10-419 49-474 91-17 13-15 17 29 58 121 110 293 322 294 360 0 11-31 38-44 38-7 0-21-10-32-22z"/>
    <path d="m1300 1145c-23-27-4-50 95-117 102-69 122-77 143-56 33 33 7 65-114 139-87 52-105 57-124 34z"/>
    <path d="m435 1041c-50-31-165-145-165-163 0-20 26-48 45-48 20 0 189 160 193 182 4 21-14 48-32 48-6 0-24-9-41-19z"/>
    <path d="m948 789c-16-9-18-34-18-284 0-167-4-275-9-275-31 0-369-32-382-36-14-4-20 14-39 118-11 68-23 138-26 155-6 40-35 59-65 42-20-10-21-16-15-78 13-132 48-295 67-315 17-18 24-19 101-8 235 33 688 48 937 32 141-9 177-8 187 2 8 9 16 87 24 229 13 240 10 263-38 257-35-4-40-26-48-235-7-171-8-174-28-169-12 3-145 6-297 6h-276l-7 273c-6 237-9 274-23 285-20 14-23 14-45 1z"/>
  </g>
</svg>
