<?xml version="1.0"?>
<svg xmlns="http://www.w3.org/2000/svg" height="200pt" preserveAspectRatio="xMidYMid meet" viewBox="0 0 200 200" width="200pt">
  <g transform="matrix(.1 0 0 -.1 0 200)">
    <path d="m889 1914c-10-12-16-57-19-143l-5-126-210-27c-133-17-251-27-321-26-61 1-116-2-122-6-19-12-14-51 22-164 19-59 38-122 43-141 4-18 18-40 30-48 19-13 24-12 42 6 24 24 22 40-19 172l-27 87 86 7c47 4 192 20 323 36 379 46 538 59 749 59h198l-80-129c-82-132-94-172-56-179 29-6 62 32 158 176 146 219 148 216-112 220-175 3-417-8-556-25l-53-6v114c0 88-4 120-16 137-18 26-36 28-55 6z"/>
    <path d="m1075 1412c-84-5-332-45-362-58-25-10-33-19-33-38 0-41 25-45 140-26 58 10 150 23 205 30 128 15 147 22 143 57-3 30-28 40-93 35z"/>
    <path d="m890 1183c-134-12-170-19-193-35-33-24-33-20 6-197 14-62 30-118 35-123 14-14 56-14 277 1 141 10 205 18 216 28 19 16 24 46 39 202 13 139 11 141-119 140-53-1-170-8-261-16zm289-115c0-29-4-73-7-98l-7-45-105-6c-58-4-139-10-180-14l-75-7-17 79c-9 43-19 85-22 94-6 14 15 17 171 28 98 7 180 15 182 17s17 4 33 4c27 0 28-1 27-52z"/>
    <path d="m1230 763c-399-23-772-53-791-64-10-5-20-18-24-28-6-20 78-473 97-523 5-15 15-29 22-31 6-3 230 0 496 5 361 7 490 12 504 22 17 11 20 27 23 127 2 63 11 190 21 282 13 124 15 175 7 190-10 21-18 22-155 23-80 0-170-1-200-3zm266-135c-4-35-9-79-12-99l-5-37-211-7c-173-6-212-5-219 6-5 8-9 51-9 97v82l103 1c56 1 143 4 192 8 50 5 107 9 128 9l39 2zm-541-59c4-49 5-92 3-95-3-2-99-7-215-11l-209-6-13 74c-8 41-16 79-18 85-3 8 34 14 121 19 69 4 161 11 203 15 43 4 88 8 99 9 20 1 22-5 29-90zm511-256c-4-48-9-89-11-91s-88-6-193-9l-189-6-6 33c-4 18-7 59-7 91v58l43 4c23 2 116 4 206 5l164 2zm-493-10c3-49 4-89 4-89-1-1-90-3-196-5l-195-4-17 82c-9 46-14 85-12 87 3 2 89 5 191 6 102 0 188 3 191 5 2 3 10 5 16 5 8 0 14-29 18-87z"/>
  </g>
</svg>
