<?xml version="1.0"?>
<svg xmlns="http://www.w3.org/2000/svg" height="200pt" preserveAspectRatio="xMidYMid meet" viewBox="0 0 200 200" width="200pt">
  <g transform="matrix(.1 0 0 -.1 0 200)">
    <path d="m879 1883c-10-11-15-50-16-127l-2-111-33-3c-18-1-123-12-233-23-110-12-224-22-253-23-80-4-83-15-56-195 16-111 33-151 62-151 45 0 51 35 27 169-8 46-14 85-12 87 3 3 388 39 647 60 211 17 510 30 510 21 0-2-22-44-49-93-59-106-68-136-47-153 36-30 67 3 164 175 52 92 62 130 40 152-17 17-301 15-499-3-89-9-164-14-166-11-3 3-7 53-10 113-4 82-9 111-21 121-21 16-37 15-53-5z"/>
    <path d="m1048 1499c-12-7-18-22-18-49v-39l-57-6c-32-3-75-8-95-11l-37-6-3 49c-3 45-5 48-32 51-35 4-46-10-46-65 0-39-2-42-32-48-94-19-121-43-94-81 11-14 23-16 74-10 61 7 62 7 62-17 0-13 3-45 6-70 7-51 7-51-58-62-29-4-39-12-44-31-10-40 12-57 68-51l48 6v-62c0-34 3-72 6-83 5-20 1-22-98-29-122-8-186-19-200-33s-2-58 18-66c9-3 68-1 131 5 63 5 117 8 120 6 2-3-19-32-46-65-53-63-240-197-396-283-75-41-89-61-63-87 20-20 61-14 127 19 82 41 305 191 354 237 42 40 127 153 127 170 0 14 51 22 143 22h80l81-68c114-96 191-149 346-238 199-115 208-119 239-108 15 5 27 18 29 30 3 24-72 76-248 174-109 60-192 115-267 175l-51 42 75 7c42 3 97 6 122 6 56 0 93 23 89 53-5 38-42 47-153 37-55-5-121-9-147-10h-47l-8 83c-4 45-8 87-8 92 0 6 24 12 54 15 67 6 91 32 65 69-14 20-23 22-69 19l-53-3-6 44c-12 84-10 91 27 91 38 0 57 15 57 45 0 31-19 45-61 45-39 0-49 12-49 54 0 39-28 55-62 35zm-4-231c11-97 20-89-115-103l-57-6-10 68c-5 37-8 70-5 73 5 5 92 16 149 19 30 1 31 0 38-51zm10-205c3-16 8-58 12-95l6-68h-90c-104 0-102-2-102 100v69l33 5c28 5 55 8 119 14 11 1 18-8 22-25z"/>
    <path d="m900 581c-16-31-5-43 83-89 90-47 121-52 137-23 16 31 2 49-74 91-80 44-129 51-146 21z"/>
    <path d="m910 335c-21-25-1-53 80-109 43-31 81-60 85-66 9-15 51-12 65 5 25 30 2 61-89 124-92 63-120 72-141 46z"/>
  </g>
</svg>
