<?xml version="1.0"?>
<svg xmlns="http://www.w3.org/2000/svg" height="200pt" preserveAspectRatio="xMidYMid meet" viewBox="0 0 200 200" width="200pt">
  <g transform="matrix(.1 0 0 -.1 0 200)">
    <path d="m916 1938c-12-17-16-50-16-144v-122l-37-6c-21-3-137-10-258-16-121-7-231-16-244-21-22-9-23-14-18-67 12-134 29-279 35-301 10-33 37-49 59-35 15 10 18 26 16 113-1 55-6 124-12 152-6 29-10 53-8 55 9 9 603 41 950 51l218 6-66-134c-40-82-64-141-60-151 9-22 33-30 55-18 40 21 170 276 170 332 0 19-8 33-26 44-22 15-52 16-287 11-144-4-292-10-329-13l-68-7v131c0 105-3 134-16 146-21 22-40 20-58-6z"/>
    <path d="m765 1450c-76-15-93-15-109-4-28 19-49 3-81-62-15-31-50-85-76-121-54-71-59-87-29-103 22-12 65 5 91 36 13 15 14 15 19-7 4-16 21-31 50-46l45-21-72-71c-82-79-142-118-211-135-93-24-53-85 47-72 59 8 125 46 204 117 186 168 321 440 245 493-12 9-25 16-28 15-3 0-45-9-95-19zm45-84c0-18-24-66-33-65-7 0-32 8-57 19-49 20-46 24 30 39 58 11 60 12 60 7zm-122-127c36-15 50-25 43-32s-26-3-60 13c-27 12-57 20-65 17-13-5-14-3-3 13 6 11 16 18 22 16 5-2 34-14 63-27z"/>
    <path d="m1217 1429c-31-5-74-13-95-19-39-10-112-70-112-92 0-7 31-43 70-80l70-67-48-41c-26-22-73-50-105-62-65-24-80-43-51-65 14-10 33-13 68-8 61 8 116 35 171 86l43 40 86-56c251-164 560-237 574-137 4 27-18 37-104 45-110 11-289 83-418 167l-76 49 55 82c56 83 69 131 43 157-13 13-84 14-171 1zm40-126c-19-26-39-49-45-51-5-1-28 13-52 33-27 22-37 37-28 39 27 10 104 24 131 25l29 1z"/>
    <path d="m860 868c-98-11-134-25-138-54-6-40 17-45 139-34 63 6 150 14 193 18 86 8 112 25 90 60-9 14-27 17-105 18-52 1-132-3-179-8z"/>
    <path d="m1349 635c-3-2-88-5-189-5-267-2-673-49-707-83-19-18-9-54 17-62 10-3 80 3 157 14 76 11 173 23 216 27l77 7v-192-193l-28 7c-36 8-58-14-43-43 20-38 82-83 109-80 48 6 53 31 50 278l-2 225 227 6c186 6 232 10 252 23 27 18 32 45 13 64-11 11-139 18-149 7z"/>
    <path d="m535 334c-22-14-76-43-120-66-133-67-167-102-133-136 21-21 45-14 162 49 167 90 210 131 174 167-18 18-38 14-83-14z"/>
    <path d="m1375 304c-9-9-14-23-11-31s6-17 6-19c0-9 203-100 272-123 75-25 116-25 132 1 18 29-5 50-80 73-38 12-117 43-175 68-59 26-111 47-117 47s-18-7-27-16z"/>
  </g>
</svg>
