<?xml version="1.0"?>
<svg xmlns="http://www.w3.org/2000/svg" height="200pt" preserveAspectRatio="xMidYMid meet" viewBox="0 0 200 200" width="200pt">
  <g transform="matrix(.1 0 0 -.1 0 200)">
    <path d="m1361 1877c-18-22-22-61-29-282l-7-210-115-7c-390-23-741-67-960-120-99-24-112-32-108-67 3-24 7-26 48-26 25 1 91 11 147 23 111 24 309 54 473 72 101 10 504 40 506 37 1-1 4-239 7-529l6-527-42 15c-23 8-71 37-106 64-36 28-68 50-72 50-3 0-12-7-19-15-11-13-8-23 17-58 61-85 185-154 260-145 52 6 52 7 46 599l-6 548 24 5c13 3 71 8 129 11 152 9 291 25 312 36 22 12 25 67 4 75-8 3-85-1-172-10-88-8-190-18-228-21l-69-6 7 123c11 225 10 346-4 363-15 19-34 19-49 2z"/>
    <path d="m710 935c-15-18-4-52 19-60 10-3 60-32 111-65 98-63 120-70 140-45s1 53-68 98c-126 84-177 102-202 72z"/>
  </g>
</svg>
