<?xml version="1.0"?>
<svg xmlns="http://www.w3.org/2000/svg" height="200pt" preserveAspectRatio="xMidYMid meet" viewBox="0 0 200 200" width="200pt">
  <g transform="matrix(.1 0 0 -.1 0 200)">
    <path d="m926 1894c-12-12-16-37-16-105 0-86-1-89-22-89-75-1-392-41-404-51-21-17-17-47 9-63 19-13 46-12 216 5 107 11 195 18 197 17 1-2 4-85 6-184l3-181-135-12c-165-15-559-60-582-67-27-8-33-43-11-65 18-19 23-18 248 6 298 32 808 76 814 69 3-3 7-74 9-159 3-111 1-155-7-155-12 0-599-66-677-76-65-9-84-20-84-48 0-49 7-50 357-12 180 20 347 38 371 42 39 5 42 4 42-18 0-78-22-593-25-596-2-3-23 3-45 12-81 32-83-14-4-78 63-52 115-62 133-27 6 10 16 175 22 367s12 350 13 351 66 9 145 17 149 20 157 27c18 15 18 53 0 69-12 9-41 9-128 0-62-6-128-13-145-16l-33-6v54c0 30-3 102-6 160l-7 104 164 12c90 7 220 15 289 18 69 4 131 11 138 17 6 5 12 20 12 33 0 41-30 48-194 40-146-6-588-39-693-51l-53-6v184 185l83 6c45 3 159 10 252 16 94 6 178 13 187 16 26 8 34 52 15 72-15 14-38 14-244 3-125-7-243-15-260-18l-33-5v89c0 91-8 113-41 113-10 0-25-7-33-16z"/>
    <path d="m847 623c-19-18 0-53 74-137 90-100 120-120 145-94 27 27 9 63-78 154-62 65-87 84-108 84-15 0-30-3-33-7z"/>
  </g>
</svg>
