<?xml version="1.0"?>
<svg xmlns="http://www.w3.org/2000/svg" height="200pt" preserveAspectRatio="xMidYMid meet" viewBox="0 0 200 200" width="200pt">
  <g transform="matrix(.1 0 0 -.1 0 200)">
    <path d="m496 1798c-13-19-15-49-9-205 4-108 2-183-3-183-42 0-332-44-342-53-7-5-12-22-10-36 3-26 3-26 96-25 88 2 92 1 92-20 0-19 108-343 179-534l30-84-38-76c-44-87-104-161-228-278-86-82-97-105-62-127 12-7 26-6 50 3 50 20 247 224 293 303l39 67 36-62c126-216 230-325 281-298 33 17 23 47-36 111-58 63-137 179-198 290l-36 65 51 115c94 212 139 373 139 500v69h65c91 0 134 24 119 65-10 25-46 28-239 23l-183-5-7 181c-4 99-11 189-16 199-13 24-45 21-63-5zm244-490c0-53-18-150-45-242-30-105-107-289-115-278-13 14-180 496-180 517 0 9 184 29 303 34 35 1 37 0 37-31z"/>
    <path d="m1666 1704c-13-13-16-42-16-165v-149h-33c-42 0-360-36-442-51-77-13-111-35-101-66 10-32 29-34 124-18 97 16 365 45 419 45h35l-3-539-4-539-40 16c-22 8-76 31-120 52-84 38-105 40-105 10 0-38 52-81 165-135 62-30 116-59 120-65 9-14 52-13 62 3 4 6 8 113 8 237s1 392 3 596l2 371 62 7c71 8 88 18 88 52s-32 47-96 39l-54-6v138c0 109-3 143-16 161-18 26-37 28-58 6z"/>
    <path d="m1120 880c-20-36 12-71 156-170 95-64 126-71 139-31 10 32-4 47-109 119-56 39-108 78-116 86-18 22-57 20-70-4z"/>
  </g>
</svg>
