<?xml version="1.0"?>
<svg xmlns="http://www.w3.org/2000/svg" height="200pt" preserveAspectRatio="xMidYMid meet" viewBox="0 0 200 200" width="200pt">
  <g transform="matrix(.1 0 0 -.1 0 200)">
    <path d="m936 1944c-12-11-16-36-16-93v-78l-162-13c-90-7-181-15-202-19-46-7-67-32-50-59 13-20 71-22 277-8l127 9v-82c0-77-1-81-22-81-51 0-256-22-289-31-21-5-40-16-43-25-8-22 11-260 34-419 16-109 23-133 41-148 20-16 42-17 298-11 152 4 314 9 361 13 82 6 85 7 99 36 14 30 33 206 47 443 5 96 4 125-7 138-12 15-35 16-221 9l-208-7v85 85l63 6c34 3 125 7 201 9 118 3 141 7 152 21 8 12 10 26 5 39-8 22-12 22-210 20l-201-1v67c0 94-33 136-74 95zm409-581c-4-43-8-79-9-79 0-1-76-5-168-9l-168-7v86 86h176 176zm-433-17 3-85-75-6c-41-3-100-8-131-11l-56-6-6 54c-13 105-11 116 26 122 60 10 92 13 164 15l72 1zm413-258c-4-57-8-104-9-104 0-1-67-4-147-8l-147-6-6 31c-3 17-6 64-6 105v73l58 4c31 2 103 4 160 5l104 2zm-402 15c4-38 7-83 7-100v-33h-120c-66 0-120 1-120 3s-5 30-10 63c-6 32-13 73-16 91l-5 32 63 4c35 2 93 4 129 5l66 2z"/>
    <path d="m1222 838c-7-7-12-43-12-90v-78h-64c-216 0-1039-93-1073-121-18-15-13-49 9-62 11-8 75-3 225 16 339 44 692 77 827 77h73l7-167c4-93 9-185 13-206l6-37-43 15c-75 26-106 13-80-35 14-26 124-80 162-80 47 0 51 23 39 210-6 92-11 200-11 240v71l300-7c315-7 330-6 330 37 0 38-37 49-165 49-66 0-198 3-292 7l-173 6v64c0 35-5 73-10 84-12 21-50 25-68 7z"/>
    <path d="m818 429c-10-5-18-18-18-28 0-26 25-44 118-85 87-39 118-42 136-14 18 29-4 49-105 95-104 46-106 47-131 32z"/>
  </g>
</svg>
