<?xml version="1.0"?>
<svg xmlns="http://www.w3.org/2000/svg" height="200pt" preserveAspectRatio="xMidYMid meet" viewBox="0 0 200 200" width="200pt">
  <g transform="matrix(.1 0 0 -.1 0 200)">
    <path d="m494 1912c-6-4-20-38-32-77-25-81-63-145-138-231l-53-61 14-149c21-213 27-405 18-589l-8-159-88-12c-91-12-117-24-117-54 0-35 23-41 112-31 101 13 412 41 452 41h30l-30-31c-64-68-227-196-377-297-125-85-157-111-155-127 2-14 12-21 33-23 62-6 349 187 512 343l93 90v-177c0-97-3-179-8-182-4-2-34 16-67 40-61 46-87 52-93 21-5-23 174-207 200-207 9 0 25 12 35 26 15 23 17 64 21 318 4 257 7 294 22 316 45 65 95 185 136 331 37 130 43 163 33 175-18 22-52 13-67-19-8-16-27-74-43-130s-39-127-51-157l-23-55-10 363c-8 303-12 364-25 373-17 11-157 4-313-16-56-7-103-12-104-11s14 22 34 46c46 59 90 146 108 217 13 50 13 59 0 80-16 24-32 28-51 15zm256-532c0-108-2-120-17-120-37-1-270-20-309-26l-41-6-10 114c-7 76-7 115 0 119 5 4 62 12 126 19 64 6 123 13 131 15 8 1 39 3 68 4l52 1zm10-290v-80h-57c-59 0-194-13-270-26l-43-7v86 85l78 7c42 3 86 7 97 9s59 4 108 5l87 1zm0-283v-124l-102-6c-57-4-140-10-186-13l-83-7 3 119 3 118 40 8c51 11 193 25 268 27l57 1z"/>
    <path d="m1717 1838c-15-8-17-27-17-137 0-71-3-149-6-173l-6-46-102-7c-55-4-195-19-310-34-170-21-211-29-220-43-17-28 5-52 48-56 20-2 139 8 264 22s250 26 277 28l50 2 6-184c4-102 7-378 8-614 1-376-1-427-14-422-8 3-41 22-72 42-55 35-80 37-90 8-6-18 65-90 130-132 76-50 113-54 124-15 10 36 9 1096-1 1226l-7 97h68c73 0 113 17 113 49s-22 41-102 41h-78v156c0 85-4 163-10 173-12 24-32 31-53 19z"/>
    <path d="m1279 854c-16-20-13-24 96-162 44-56 90-104 103-108 23-7 52 10 52 31 0 18-52 92-125 178-69 80-98 94-126 61z"/>
  </g>
</svg>
