<?xml version="1.0"?>
<svg xmlns="http://www.w3.org/2000/svg" height="200pt" preserveAspectRatio="xMidYMid meet" viewBox="0 0 200 200" width="200pt">
  <g transform="matrix(.1 0 0 -.1 0 200)">
    <path d="m1300 1862c-74-49-197-122-272-162-141-75-168-100-134-126 23-16 43-10 181 56 113 54 375 218 403 253 8 9 12 26 10 39-6 46-45 34-188-60z"/>
    <path d="m486 1897c-17-13-18-27-13-193 24-741 44-1190 57-1284 5-36 10-96 11-135 2-91 10-125 32-139 15-9 22-7 38 13 22 27 26 127 9 245-13 87-27 359-40 761-6 171-15 355-20 410s-10 141-10 190c0 119-22 163-64 132z"/>
    <path d="m1678 1593c-9-10-23-34-33-53s-47-78-82-131c-69-104-78-141-35-147 17-3 34 8 60 36 47 51 162 241 162 268 0 42-44 58-72 27z"/>
    <path d="m177 1534c-18-18-1-80 57-207 76-167 96-197 122-181 32 20 20 71-54 234-60 132-74 155-94 158-13 2-27 0-31-4z"/>
    <path d="m1150 1495c-6-8-10-21-8-29s48-65 102-126c103-115 133-132 156-90 15 28 0 51-103 164-90 98-119 114-147 81z"/>
    <path d="m892 1448c-7-7-12-18-12-25 0-20 201-213 221-213 25 0 42 26 35 54-3 13-47 63-97 110-91 85-121 100-147 74z"/>
    <path d="m1531 1151c-6-11-11-51-11-90v-70l-32-5c-18-3-85-13-148-21-113-16-444-71-487-82-25-6-37-31-27-57 9-23 44-21 251 13 211 35 433 65 438 60 14-14 44-729 31-729-4 0-27 14-52 31-87 59-113 15-37-63 75-77 132-98 169-61 15 16 16 38 11 233-3 118-11 299-18 402s-10 191-6 195c4 3 60 10 124 15 120 9 143 17 143 48 0 37-25 43-150 37l-120-6v57c0 31-6 68-13 82-16 32-52 38-66 11z"/>
    <path d="m270 706c-135-148-160-181-160-212 0-26 22-46 43-39 8 4 35 32 60 63s77 95 117 142 79 99 87 117c17 34 12 63-10 63-8 0-70-60-137-134z"/>
    <path d="m1051 587c-15-19-11-47 9-58 8-4 37-16 64-25 26-10 77-35 112-56 69-42 98-43 109-7 10 31-28 65-123 111-96 46-151 58-171 35z"/>
  </g>
</svg>
