<?xml version="1.0"?>
<svg xmlns="http://www.w3.org/2000/svg" height="200pt" preserveAspectRatio="xMidYMid meet" viewBox="0 0 200 200" width="200pt">
  <g transform="matrix(.1 0 0 -.1 0 200)">
    <path d="m1205 1923c-6-5-22-24-35-43s-50-66-82-104c-61-74-71-101-38-111 39-12 120 59 199 172 30 44 26 87-9 91-14 1-30-1-35-5z"/>
    <path d="m608 1869c-37-21-21-60 55-141 74-79 102-93 127-63 11 13 11 21-1 45-15 30-144 170-157 170-4 0-15-5-24-11z"/>
    <path d="m1180 1594c-108-8-727-64-833-75s-137-24-137-53c0-8 7-19 16-26 12-11 49-10 202 3 103 9 224 20 270 23l82 7v-54-55l-147-12c-81-7-154-18-161-24-9-8-11-23-7-47 4-20 22-139 40-264 18-126 37-233 44-240 8-8 43-8 138 2 71 7 164 17 208 22 44 4 126 8 181 8 94 1 102 0 107-20 8-31-4-129-17-129-6 0-123-11-261-25-474-47-745-94-759-131-9-22 11-54 35-54 10 0 75 11 143 25 159 31 838 107 850 94 2-2 7-97 11-211 8-238 13-228-84-183-81 38-107 17-55-45 28-33 73-58 143-80 43-14 44-14 68 14l24 28-7 243-7 242 122 7c68 4 185 4 262 0 126-6 141-5 159 11 26 23 25 40-2 59-19 14-63 16-279 16h-257l-4 70-3 70h61c41 0 66 5 73 14 7 8 16 56 21 108 5 51 22 169 37 262 26 166 27 169 7 183-15 11-57 13-216 11l-197-3-7 53c-3 29-4 56 0 59 3 4 139 9 302 11 239 4 298 7 310 19 17 18 17 24 2 46-11 15-40 17-218 21-113 2-230 2-260 0zm-220-159c0-50-2-55-22-55-13 0-33-3-45-6-22-6-23-4-23 49 0 59 2 62 68 66 20 1 22-3 22-54zm423-132c2-5-3-42-11-84l-14-77-116-4c-163-5-157-8-170 67-19 98-21 94 56 98 139 7 251 7 255 0zm-398-105c9-51 22-101 29-110 22-30 64-38 197-38h129v-52c0-103 19-95-233-103-122-4-281-15-354-24-151-19-136-27-149 82-6 49-5 57 10 57 27 0 89 36 123 72 40 42 100 141 108 179 6 28 9 29 65 29h58zm-249 33c-34-66-69-105-112-126-19-9-37-15-40-13-6 7-26 159-21 164 4 4 115 18 180 23 15 1 15-4-7-48z"/>
    <path d="m727 433c-4-3-7-16-7-29 0-18 18-32 97-73 96-51 125-56 137-24 11 28-24 64-97 99-68 32-115 42-130 27z"/>
  </g>
</svg>
