<?xml version="1.0"?>
<svg xmlns="http://www.w3.org/2000/svg" height="200pt" preserveAspectRatio="xMidYMid meet" viewBox="0 0 200 200" width="200pt">
  <g transform="matrix(.1 0 0 -.1 0 200)">
    <path d="m1325 1958c-145-103-175-129-175-153 0-26 32-50 55-41 27 10 203 147 209 162 9 24-12 54-37 54-12 0-35-10-52-22z"/>
    <path d="m686 1927c-35-26-17-59 52-93 137-68 201-78 210-33 5 29-25 50-133 94-60 25-110 45-111 45 0 0-8-6-18-13z"/>
    <path d="m206 1744c-9-8-16-22-16-30 0-22 162-173 186-174 23 0 44 18 44 38 0 23-50 80-115 132-69 55-76 57-99 34z"/>
    <path d="m1285 1739c-244-16-598-72-631-100-8-7-14-24-12-38 3-24 7-26 48-25 25 1 93 10 153 21 59 11 107 18 106 14 0-3-30-31-66-61l-66-55 7-210c7-256 13-292 46-317 23-17 34-18 115-8 50 5 159 13 242 16 121 6 156 10 167 23s15 69 18 273c3 231 1 259-14 274-16 16-29 15-220-14-111-17-204-30-204-29-1 1 25 31 57 67 57 63 60 64 121 71 35 4 147 11 251 15 193 7 213 12 205 51-8 43-70 49-323 32zm38-325-5-52-102-7c-56-4-148-12-205-19l-102-12 3 40 3 41 205 31c113 17 206 30 206 30 1-1 0-24-3-52zm-3-167v-33l-157-12c-87-7-179-16-205-19-48-6-48-6-48 25v30l98 11c53 6 140 15 192 20 52 4 101 9 108 10 7 0 12-12 12-32zm0-146c0-27-3-30-42-35-24-3-95-8-158-11s-134-8-157-11c-41-6-43-5-43 19 0 16 7 28 18 31 15 4 202 22 312 29 25 2 51 4 58 5s12-10 12-27z"/>
    <path d="m395 1460c-141-38-197-77-165-115 16-19 37-19 88-1l41 15-9-25c-23-58-5-113 47-145l33-21-30-38c-17-21-75-77-131-125-105-92-116-113-74-141 18-12 26-11 56 5 61 33 140 51 218 51 91 0 122-8 268-66 198-79 291-96 568-101 253-5 429 7 498 34 80 32 64 88-21 78-172-20-250-25-428-25-282 0-382 19-654 126-76 30-113 38-188 43l-93 6 45 52c24 29 47 66 51 82 8 39-16 86-55 106-17 9-30 21-30 28 0 15 24 52 60 92s41 59 24 84c-18 25-29 25-119 1z"/>
    <path d="m1317 718c-12-10-18-32-20-83l-4-70-64-2c-228-8-801-58-837-74-18-7-23-16-20-37 3-24 7-27 48-30 24-2 121 4 215 12 166 15 354 29 563 41l102 6v-186-185l-49 25c-55 28-81 24-81-10 0-51 134-128 188-109l27 9 3 226 2 226 92 7c50 3 134 6 187 6 103 0 141 13 141 49 0 41-20 44-230 37l-200-7v70c0 59-3 72-19 81-24 13-24 13-44-2z"/>
    <path d="m847 385c-34-34-14-54 103-105 52-23 100-44 107-46 6-3 21 4 32 15 33 33 12 57-84 102-105 49-136 56-158 34z"/>
  </g>
</svg>
