<?xml version="1.0"?>
<svg xmlns="http://www.w3.org/2000/svg" height="200pt" preserveAspectRatio="xMidYMid meet" viewBox="0 0 200 200" width="200pt">
  <g transform="matrix(.1 0 0 -.1 0 200)">
    <path d="m900 1895c-23-27 8-552 50-860 11-83 27-348 35-608l7-189-52 41c-57 45-62 47-79 27-13-15 22-67 85-128 96-91 150-65 139 66-3 33-10 187-15 341-6 156-21 377-35 500-26 237-49 500-60 685-4 63-12 121-17 128-14 17-43 15-58-3z"/>
    <path d="m1340 1155c-7-8-10-21-7-28 3-8 76-63 162-122 111-77 176-129 223-182 69-75 97-88 123-57 35 42-88 171-292 308-146 97-184 111-209 81z"/>
    <path d="m433 1118c-4-7-17-33-29-58-35-74-182-287-245-354-59-63-70-91-47-114s51-11 112 51c101 102 286 391 286 448 0 34-59 55-77 27z"/>
  </g>
</svg>
