<?xml version="1.0"?>
<svg xmlns="http://www.w3.org/2000/svg" height="200pt" preserveAspectRatio="xMidYMid meet" viewBox="0 0 200 200" width="200pt">
  <g transform="matrix(.1 0 0 -.1 0 200)">
    <path d="m932 1868c-9-9-12-114-12-450 0-241-2-438-4-438s-20 7-39 15c-32 13-37 13-51-1-20-20-9-42 41-83 51-42 89-49 117-22 21 21 21 29 24 419 1 218-1 435-5 482-8 81-9 85-33 88-14 2-31-3-38-10z"/>
    <path d="m1346 1535c-21-21-20-52 2-65 9-6 114-67 232-137 118-69 245-144 282-166 50-29 74-38 92-33 30 7 44 43 25 62-26 25-557 336-595 348-14 4-28 1-38-9z"/>
    <path d="m542 1473c-11-10-51-59-89-110-37-50-118-145-179-210-125-134-147-163-138-187s46-19 90 13c82 59 360 391 380 453 3 12-1 27-12 39-21 23-26 24-52 2z"/>
    <path d="m1470 1213c-12-21-66-96-120-168-53-71-129-175-168-230-118-170-212-267-392-407-91-71-195-148-232-171-71-44-81-56-71-83 10-28 84-12 155 33 110 69 330 244 410 326 80 81 142 161 314 400 197 275 209 298 182 325-24 24-55 13-78-25z"/>
  </g>
</svg>
