<?xml version="1.0"?>
<svg xmlns="http://www.w3.org/2000/svg" height="200pt" preserveAspectRatio="xMidYMid meet" viewBox="0 0 200 200" width="200pt">
  <g transform="matrix(.1 0 0 -.1 0 200)">
    <path d="m445 1844c-14-14-16-36-13-138l3-122-123-23c-96-18-125-27-137-44-10-15-11-25-4-40 13-23 32-22 219 11 63 11 187 28 275 36 137 14 162 19 177 37 9 11 14 27 11 35-11 30-38 33-169 19-71-8-137-15-146-15-16 0-18 12-18 113 0 98-3 116-18 130-23 21-36 21-57 1z"/>
    <path d="m1170 1825c-10-13-10-38 0-135 14-133 7-338-13-356-7-6-55-16-107-24-52-7-100-14-107-17-19-8-26-42-12-60 14-16 75-15 183 4l39 6-8-79c-15-173-65-402-116-534-16-41-51-113-78-159s-47-90-44-97c3-8 18-14 35-14 41 0 80 46 133 155 50 104 74 180 113 355l28 125 74 6c41 3 76 5 78 3 2-1-4-40-12-86-19-99-21-338-5-453 17-125 43-195 90-244 53-55 81-66 202-81 119-15 195-10 214 16 29 39 9 220-38 347-22 60-42 78-61 59-8-8-6-39 6-109 9-55 16-129 16-166v-67h-52c-29 1-84 7-121 14-117 23-145 68-173 281-18 134-14 288 11 406 19 91 19 134-2 154-14 15-30 16-118 10l-101-7 9 84c5 45 11 85 13 87 2 3 111 12 242 20 130 9 243 20 250 24 6 5 12 19 12 32 0 45-23 48-258 31-119-9-222-16-227-16-7 0-9 52-6 147 3 147-12 317-31 341-14 17-43 15-58-3z"/>
    <path d="m1467 1673c-27-26 21-112 108-191 49-46 69-52 84-24 12 23-5 60-57 117-20 22-49 55-65 73-25 30-55 41-70 25z"/>
    <path d="m570 1375c-47-7-111-18-142-24-40-9-63-9-76-2-14 7-24 7-37-3-19-14-19-34 5-205 13-101 17-104 107-96l73 7v-198c0-110-3-283-7-386l-6-186-50 34c-53 36-64 38-81 12-13-21 20-69 87-126 58-48 97-55 121-20 14 20 16 80 16 454v431l97 6c69 4 100 10 108 20 6 9 12 68 14 132 3 151-4 165-87 164-31-1-95-7-142-14zm140-143v-68l-122-13c-68-7-135-15-149-18-29-5-28-7-44 88l-5 37 62 11c90 17 177 28 221 30l37 1z"/>
    <path d="m639 694c-15-18-19-9 63-132 57-86 79-101 108-72 16 16 18 25 10 45-11 29-81 135-105 159-21 21-59 21-76 0z"/>
    <path d="m282 688c-28-36-144-281-145-308-2-39 23-61 51-44 9 6 52 81 96 166 67 134 77 158 67 177-13 23-53 28-69 9z"/>
  </g>
</svg>
