<?xml version="1.0"?>
<svg xmlns="http://www.w3.org/2000/svg" height="200pt" preserveAspectRatio="xMidYMid meet" viewBox="0 0 200 200" width="200pt">
  <g transform="matrix(.1 0 0 -.1 0 200)">
    <path d="m1095 1759c-77-4-250-10-385-13-195-5-247-9-254-20-6-9-3-42 9-92 15-62 19-131 23-327 6-365-3-412-136-704-63-140-109-214-204-329-32-39-58-80-58-92 0-24 31-37 57-23 32 17 118 114 173 196 56 82 185 359 216 462 10 32 21 62 24 66 4 5 30-20 58-55 138-174 350-334 625-470 228-114 489-235 535-249 54-16 92-6 92 25 0 20-31 38-272 152-377 178-463 223-593 310-139 93-216 161-318 284l-78 95 183 6c101 3 298 4 439 1 249-5 257-5 267 15 6 11 11 28 12 39 8 185 22 365 34 469 20 163 20 215 0 243-15 21-21 22-162 20-81 0-210-5-287-9zm375-96c0-10-9-97-20-193s-20-226-20-287v-113l-424-2-424-3-5 240c-3 159-10 259-19 296l-15 57 321 9c551 16 606 16 606-4z"/>
  </g>
</svg>
