<?xml version="1.0"?>
<svg xmlns="http://www.w3.org/2000/svg" height="200pt" preserveAspectRatio="xMidYMid meet" viewBox="0 0 200 200" width="200pt">
  <g transform="matrix(.1 0 0 -.1 0 200)">
    <path d="m775 1758c-309-27-303-26-319-51-11-19-11-41 1-142 24-201 6-437-47-640-73-276-145-452-219-537-23-25-41-55-41-66 0-23 30-37 60-27 33 10 109 104 146 180 41 87 112 303 151 460l28 115 110-6c72-4 164-1 265 10 169 17 487 36 617 36h82l7-57c4-32 8-132 8-223 1-163 0-167-38-300-21-74-42-139-47-144s-28 8-55 30c-100 85-135 101-148 69-14-37 192-240 238-233 28 4 39 29 93 223l48 170-1 200c-1 227-13 311-46 339-22 18-37 18-250 12-125-4-298-14-385-22-87-9-233-18-324-21l-165-5 3 63c6 98 9 106 40 106 16 0 150 6 298 13 149 7 348 13 443 15 96 2 177 7 182 11 12 13 41 337 34 375-14 70-8 69-293 68-155-1-343-9-476-21zm681-120c-3-29-9-90-12-135l-7-83h-51c-68 0-628-28-738-36l-86-7-7 79c-4 43-10 104-14 135l-7 56 220 18c122 9 223 19 225 21s112 4 244 4h240z"/>
    <path d="m850 858c-47-5-104-18-127-28l-43-19v-71c0-99 29-277 49-301 16-20 22-21 234-12 187 7 219 11 234 26 16 16 18 38 18 190 0 149-2 177-18 200l-17 27-123-1c-67-1-160-6-207-11zm274-99c8-40 8-153 0-201l-7-38-86-1c-47 0-119-4-158-8-61-6-74-4-78 9s-34 213-35 232c0 10 140 26 331 37 22 1 28-4 33-30z"/>
  </g>
</svg>
