<?xml version="1.0"?>
<svg xmlns="http://www.w3.org/2000/svg" height="200pt" preserveAspectRatio="xMidYMid meet" viewBox="0 0 200 200" width="200pt">
  <g transform="matrix(.1 0 0 -.1 0 200)">
    <path d="m960 1854c-102-7-251-14-332-16-89-2-149-7-150-13-1-5-2-129-3-275-2-461-40-673-195-1085-29-77-75-184-102-238-30-62-47-105-43-117 9-28 43-35 67-13 47 42 173 345 253 607 49 163 72 287 91 482 9 93 17 170 18 171s83 12 181 24c140 17 257 22 527 26 263 4 352 8 365 18 16 12 18 35 21 219 3 189 2 205-15 213-28 14-478 12-683-3zm616-77c1-1-1-63-4-138l-5-136-296-7c-205-5-359-14-501-31-113-13-206-22-206-22-1 1-4 71-7 155l-5 152h63c35 0 172 7 306 15s276 16 314 17c66 3 339-2 341-5z"/>
    <path d="m1031 1261c-7-12-4-75 9-201 11-101 17-186 14-189s-106-9-230-12c-194-6-228-9-256-26-21-12-34-28-36-44-2-14 19-124 46-245 28-120 57-262 67-316 22-127 29-136 91-120 101 25 238 35 528 38 335 3 326 1 332 75 2 24 8 107 14 184s18 207 26 289c23 209 33 196-158 195-84 0-192-4-240-7-49-4-88-7-89-7 0 0-11 84-23 187-13 103-29 194-36 203-17 21-47 19-59-4zm525-478c-3-10-8-55-12-99-3-45-9-86-13-92-5-7-361-35-368-28 0 0-4 51-8 113l-8 112 59 4c33 2 126 4 207 5 137 2 148 1 143-15zm-488-119 3-111-145-12c-79-6-167-15-195-20-28-4-53-5-55-2-11 21-57 233-51 239 6 7 282 19 390 18l50-1zm458-196c-3-13-9-70-12-128l-7-105-166 3c-91 2-168 5-170 7-2 3-4 55-5 117l-1 113 75 6c41 3 124 6 184 7 108 2 108 2 102-20zm-448-120 3-115-93-7c-51-4-126-11-166-17-41-6-76-8-80-5-5 6-41 186-42 213 0 7 15 15 33 18 43 8 319 33 332 30 6-1 11-50 13-117z"/>
  </g>
</svg>
