<?xml version="1.0"?>
<svg xmlns="http://www.w3.org/2000/svg" height="200pt" preserveAspectRatio="xMidYMid meet" viewBox="0 0 200 200" width="200pt">
  <g transform="matrix(.1 0 0 -.1 0 200)">
    <path d="m1095 1814c-22-2-112-8-200-14s-196-15-240-21c-68-9-81-8-91 5-16 22-51 20-64-3-7-14-5-38 7-88 13-51 17-110 17-233 0-143-4-181-28-288-15-68-40-163-56-212-47-145-166-365-283-528-48-67-59-87-50-100 18-30 53-26 90 10 70 67 240 354 302 510 34 87 84 282 101 393 19 133 15 125 59 125 21 0 102 7 180 15 217 23 539 37 562 24 47-25 79 18 79 104 0 29 7 95 15 147 22 146 22 146-220 153-77 3-158 3-180 1zm311-97c3-3 0-50-7-106l-13-101h-60c-109 0-541-36-668-56l-38-6v47c0 25-5 78-11 116-6 39-9 73-6 75 4 5 272 29 417 38 82 5 380-1 386-7z"/>
    <path d="m1025 1289c-138-19-261-42-277-50-24-13-23-56 1-69 13-7 36-7 68-1 26 5 60 12 75 14l28 4-42-76c-23-42-53-94-68-116-50-75-53-84-35-111s36-30 91-10c22 7 55 16 74 19l35 7v-88l1-88-85-18c-103-21-121-30-121-60 0-45 21-50 115-31 47 10 88 15 92 11 7-7 22-197 16-205-1-2-69-12-150-23-227-28-313-55-313-97 0-39 26-46 98-28 172 44 518 71 712 56 69-5 157-14 195-19 39-5 98-13 132-16 60-7 63-6 74 20 16 34-1 54-57 66-98 22-313 43-451 44-83 0-150 4-147 7 2 3-1 50-5 105-5 54-6 102-2 106 3 4 53 10 111 14s111 11 118 17c19 15 14 55-9 68-13 7-61 10-128 7l-106-3-3 79c-2 44 1 83 6 88 6 6 54 12 108 15l99 6 41-42c23-22 46-41 52-41 17 0 42 30 42 49 0 30-162 216-191 219-38 4-56-21-38-56 7-15 15-30 17-34 2-5-11-8-30-8-29 0-176-22-236-35-21-5-19 1 23 77 26 46 51 95 56 109 11 30 44 39 142 39 32 0 67 5 78 10 21 12 25 50 7 68-14 14-120 14-213 1z"/>
  </g>
</svg>
