<?xml version="1.0"?>
<svg xmlns="http://www.w3.org/2000/svg" height="200pt" preserveAspectRatio="xMidYMid meet" viewBox="0 0 200 200" width="200pt">
  <g transform="matrix(.1 0 0 -.1 0 200)">
    <path d="m1195 1848c-678-21-693-22-712-40-16-16-16-23 0-122 43-262 8-614-90-921-49-152-96-247-205-409-51-77-100-149-108-162-12-18-12-25-1-38 21-25 54-19 88 17 46 48 189 271 232 362 94 198 168 508 186 777 7 104 8 107 34 114 14 4 210 7 436 8s415 4 420 8c17 10 19 382 3 395-22 17-46 18-283 11zm205-204v-126l-152 4c-84 3-265 1-402-4-136-5-250-7-252-5s-8 37-13 78c-6 41-13 93-17 117l-7 42 174 1c96 1 219 5 274 9 55 3 166 7 248 8l147 2z"/>
    <path d="m1124 1355c-13-20-15-39-9-109l7-84-28-6c-16-3-63-8-106-12l-76-6-6 88c-8 100-14 118-44 122-34 5-45-30-40-129 4-96 3-99-52-99-86 0-128-32-91-69 18-18 29-20 84-14 35 3 67 2 69-3 3-5 7-58 9-119l4-109-155-18c-120-14-158-22-167-35-17-22-16-28 4-48 13-14 28-16 69-11 29 3 55 3 57-1 3-5 10-138 17-298 7-185 16-299 23-315 21-42 48-36 95 18 27 33 84 76 164 127 164 103 195 133 152 149-25 10-261-103-317-152-9-8-19-13-20-11-4 5-26 493-23 496 1 2 49 8 107 14 144 16 450 15 598-1 118-13 124-13 137 5 17 23 17 27 1 49-9 13-41 20-132 31-66 8-143 15-172 15h-51l-6 98c-4 53-9 112-12 130l-5 32h69c116 0 162 10 174 36 21 45-1 54-127 54-130 0-125-4-125 99 0 98-39 143-76 86zm11-406c4-66 6-122 4-124s-49-5-104-6l-100-3-7 114c-4 63-5 116-2 119 6 7 97 17 160 20l42 1z"/>
    <path d="m896 684c-9-8-16-19-16-23 0-21 64-102 116-147 216-184 451-324 663-395 84-27 99-30 133-20 73 22 72 81-2 81-66 0-314 100-418 168l-25 16 36 31c46 39 137 172 137 200 0 11-5 26-12 33-25 25-48 12-89-50-57-85-107-146-129-158-14-8-38 5-121 67-57 42-135 107-172 145-37 37-72 68-77 68s-16-7-24-16z"/>
  </g>
</svg>
