<?xml version="1.0"?>
<svg xmlns="http://www.w3.org/2000/svg" height="200pt" preserveAspectRatio="xMidYMid meet" viewBox="0 0 200 200" width="200pt">
  <g transform="matrix(.1 0 0 -.1 0 200)">
    <path d="m1004 1894c-133-7-295-20-360-29-66-9-140-19-166-22-27-3-53-12-59-19-7-9-7-42 2-116 28-246-26-634-138-983-44-139-129-360-153-403-11-17-17-39-14-47 10-25 58-18 86 13 43 44 166 378 223 601 35 139 95 518 95 599 0 5 39 12 88 16 48 4 177 15 287 26s288 24 395 30 201 13 208 15c8 3 12 26 12 68 0 35 5 89 10 118 17 87 16 120-5 135-23 17-171 17-511-2zm433-96c-3-13-9-51-13-85l-6-61-147-7c-80-3-281-20-445-36-165-16-300-28-302-26-8 7-23 172-16 178 25 22 439 53 766 57l168 2z"/>
    <path d="m935 1429c-39-39-121-111-182-161-86-68-113-96-113-113 0-54 63-37 176 48 32 25 59 45 60 44s4-32 7-68l6-66-87-18c-48-9-99-18-113-19-14-2-31-6-37-10-18-11-15-66 9-164 11-48 22-97 25-108 6-32 26-35 126-23 49 6 91 9 93 7 2-1 5-12 7-22 3-18-14-22-199-50-167-26-205-35-217-51-9-11-16-26-16-34 0-17 69-439 76-463 8-28 44-33 67-10l20 20-37 212c-21 117-36 213-34 216 3 2 331 54 346 54 1 0 2-47 2-105 0-100-1-105-22-109-13-3-48-10-78-16-89-18-116-44-87-84 13-18 17-18 98-2s382 56 424 56c13 0 25-11 33-30 17-38 59-51 79-24 17 23 13 37-50 162-53 106-79 130-112 102-20-17-19-33 5-80 23-46 24-45-80-55-36-3-77-8-92-11l-28-6v106c0 91 2 105 18 110 24 8 319 26 420 26h82v-231-231l-32 8c-55 12-72 10-76-9-5-26 39-69 100-98l50-23 24 27 24 28v282c0 246-2 286-16 306l-17 23-256-6c-141-3-273-8-293-12-34-5-38-4-38 15 0 26 19 31 130 35 96 4 139 15 153 38 13 21 2 49-23 55-25 7-27 62-5 143 32 119 19 129-145 106-63-9-119-16-126-16s-13 35-18 97l-7 97 45 45c57 60 70 85 56 111-20 37-52 24-125-51zm230-376c-3-10-9-49-12-86s-9-69-12-71-38-7-78-11l-71-7-7 77c-4 42-4 79-1 83 4 3 42 12 84 18 107 17 105 17 97-3zm-266-140c1-23-2-44-6-46-5-2-35-7-68-11l-60-6-19 70c-10 39-16 73-14 75s37 10 78 17l75 14 7-35c4-20 7-55 7-78z"/>
  </g>
</svg>
