<?xml version="1.0"?>
<svg xmlns="http://www.w3.org/2000/svg" height="200pt" preserveAspectRatio="xMidYMid meet" viewBox="0 0 200 200" width="200pt">
  <g transform="matrix(.1 0 0 -.1 0 200)">
    <path d="m1365 1863c-22-2-155-15-295-29-313-31-487-42-504-32-7 4-21 1-31-6-17-12-17-20-7-102 27-210-59-623-202-969-67-160-198-407-238-447-21-21-38-42-38-47 0-20 31-33 65-27 47 9 82 58 184 256 159 311 259 625 305 961l7 45 172 13c95 6 295 15 445 18 180 4 275 10 280 17 4 6 7 34 8 61 0 28 4 98 9 156 8 104 7 106-16 122s-50 18-144 10zm79-125c-4-24-10-68-13-98l-6-55-180-3c-166-2-391-14-557-29l-68-6v49c0 27-3 65-6 85l-6 36 138 7c77 4 236 18 354 31 118 12 246 23 283 24l69 1z"/>
    <path d="m1261 1428c-99-66-123-96-101-123 7-8 23-15 35-15 27 0 167 92 196 128 17 22 18 28 5 46-7 12-20 22-28 24-7 1-56-26-107-60z"/>
    <path d="m706 1424c-21-20-20-26 5-58 22-28 136-96 161-96 9 0 21 7 28 15 20 24-2 60-57 91-26 15-59 36-72 46-29 22-45 23-65 2z"/>
    <path d="m965 1204c-362-27-356-26-377-55-19-25-19-30-4-120 8-52 18-137 22-189s12-106 19-120l13-25 424 3c403 3 424 4 443 23 19 18 20 35 23 235 3 183 1 219-13 240-15 24-16 24-193 23-97-1-258-8-357-15zm475-134v-60h-185-185v54c0 34 5 56 13 59 6 3 90 6 185 6l172 1zm-450-8v-59l-107-12c-60-7-129-15-154-18l-46-5-7 43c-4 24-9 54-13 67-5 21-2 22 63 23 38 1 98 5 134 9s80 8 98 8l32 2zm450-202v-70h-174-173l-7 46c-11 87-15 83 72 87 42 1 123 4 180 5l102 2zm-446 19c3-17 6-44 6-60v-29h-67c-38 0-104-3-149-6l-81-7-6 48c-4 27-5 50-3 53 8 7 178 30 237 31 56 1 57 0 63-30z"/>
    <path d="m995 638c-260-16-250-9-235-179 5-63 10-166 10-230 0-100 3-120 19-140l19-24 245 3c157 2 252 0 265-7 14-7 24-6 40 5 22 15 22 20 22 283 0 237-2 270-17 282-20 17-159 20-368 7zm305-112c0-18-3-54-6-80l-7-46-136-1c-75 0-172-4-216-8s-81-7-81-7c-1 1-5 35-9 77l-6 76 118 10c65 6 169 11 231 11l112 2zm-10-291v-75h-93c-52 0-149-3-215-7l-122-6v76 76l38 4c20 2 117 4 215 5l177 2z"/>
  </g>
</svg>
