<?xml version="1.0"?>
<svg xmlns="http://www.w3.org/2000/svg" height="200pt" preserveAspectRatio="xMidYMid meet" viewBox="0 0 200 200" width="200pt">
  <g transform="matrix(.1 0 0 -.1 0 200)">
    <path d="m886 1814c-19-18-19-25-7-90 5-27 14-148 21-269 23-447 50-922 56-997l7-76-44-6c-24-3-100-7-169-10-135-6-238-18-368-43-45-9-84-14-87-12-2 3-25 101-50 219-26 118-53 225-61 238-34 52-82 11-65-56 5-20 28-129 51-242 22-113 43-213 46-223 11-36 39-39 152-18 59 11 143 25 187 31 224 29 989 50 1190 31 104-9 122-9 135 5 13 12 15 57 14 297 0 155-3 299-7 319-9 45-37 64-67 48-20-11-21-18-18-290 1-153 0-281-2-283-3-3-88-1-190 4-170 8-452 5-526-7l-30-4-13 197c-6 109-16 266-22 348-5 83-14 251-19 375-16 359-33 493-66 517-23 17-29 16-48-3z"/>
  </g>
</svg>
