<?xml version="1.0"?>
<svg xmlns="http://www.w3.org/2000/svg" height="200pt" preserveAspectRatio="xMidYMid meet" viewBox="0 0 200 200" width="200pt">
  <g transform="matrix(.1 0 0 -.1 0 200)">
    <path d="m954 1902c-22-15-23-47-8-225 8-100 14-238 12-307l-3-124-150-17c-82-9-171-20-196-24l-45-7-28 179c-16 98-33 184-39 191s-20 12-31 10c-34-5-43-39-34-120s46-313 54-340 45-31 105-14c116 33 412 60 692 62 172 2 273 7 281 14 7 5 16 41 20 78s16 128 26 204c15 98 17 144 10 162-12 32-32 41-57 27-16-8-23-37-42-168-12-87-24-173-27-190l-5-33h-219-220v148c0 168-26 470-42 489-12 14-37 17-54 5z"/>
    <path d="m1290 1000c-349-10-782-61-806-95-18-24-17-30 2-49 19-20 51-20 179-1 55 8 103 15 107 15 10 0-44-145-83-222-87-173-190-294-303-358-68-39-78-56-47-81 29-23 57-18 130 25 68 40 147 118 202 201 34 52 45 62 50 48 3-10 23-87 44-172 21-84 45-160 53-167 28-28 587-11 652 19 29 14 37 41 20 73-11 19-8 44 14 146 14 68 33 149 42 181 14 54 14 60-1 84l-17 26-252-6c-219-4-373-18-473-42-21-5-20-2 12 79 19 46 39 104 46 129 11 44 13 46 53 52 95 12 332 25 476 25 170 0 200 8 200 55 0 22-27 47-47 43-4-1-118-5-253-8zm160-425c0-3-11-54-25-113s-28-133-32-164l-6-57-61-5c-33-3-147-8-251-12l-190-6-38 144c-21 78-40 150-43 159-4 14 10 19 83 29 48 7 122 16 163 20 88 8 400 12 400 5z"/>
  </g>
</svg>
