<?xml version="1.0"?>
<svg xmlns="http://www.w3.org/2000/svg" height="200pt" preserveAspectRatio="xMidYMid meet" viewBox="0 0 200 200" width="200pt">
  <g transform="matrix(.1 0 0 -.1 0 200)">
    <path d="m939 1919c-17-17-20-29-15-58 3-20 8-130 11-246 3-115 7-224 9-241l4-30-162-12c-89-7-188-17-220-23s-62-7-66-2c-4 4-17 46-28 93-12 47-34 117-50 155-24 58-33 71-54 73-14 2-31-4-39-14-11-14-9-29 19-108 37-106 62-207 62-253 0-44 35-68 76-53 92 35 658 69 1171 70 7 0 20 15 30 33 14 26 18 68 21 220 5 195 1 217-38 217-33 0-40-26-48-198-5-95-11-174-13-177-3-2-131-7-285-11l-280-7-13 237c-14 268-22 334-42 347s-27 11-50-12z"/>
    <path d="m1045 1103c-22-2-155-12-295-24-140-11-268-25-283-31-36-14-47-43-47-123 0-104-50-280-123-429-35-72-76-142-91-155-36-33-36-78 0-87 94-24 280 370 301 636l6 79 41 5c145 19 604 46 778 46 113 0 213 3 222 6 10 4 16 18 16 35 0 22-6 32-26 39-23 9-403 11-499 3z"/>
    <path d="m1050 849c-200-20-336-41-357-55-26-17-30-46-8-64 11-9 39-8 131 5 63 9 117 15 119 13 1-2 6-49 10-106 5-81 4-103-7-106-7-2-94-16-193-31-184-27-225-41-225-75 0-33 33-42 102-30 34 7 121 19 194 29l131 17 7-65c3-36 6-127 6-201 0-140 5-160 42-160 35 0 42 37 41 241v196l56 8c31 4 181 9 334 10 168 2 283 7 289 13 5 5 8 20 6 33-6 45-55 52-323 45-132-3-270-9-307-12l-68-6v104 105l61 7c34 3 85 6 113 6 77 0 121 41 84 78-14 14-107 14-238 1z"/>
  </g>
</svg>
