<?xml version="1.0"?>
<svg xmlns="http://www.w3.org/2000/svg" height="200pt" preserveAspectRatio="xMidYMid meet" viewBox="0 0 200 200" width="200pt">
  <g transform="matrix(.1 0 0 -.1 0 200)">
    <path d="m684 1913c-21-60-57-127-102-186-40-52-52-76-52-103 0-20 18-160 39-312s42-324 46-382c6-106 25-160 60-174 8-3 65 4 127 14 62 11 169 26 238 34 69 9 195 24 280 35s191 23 235 26 97 8 119 11l38 5-5-208c-5-210-13-260-73-441-3-10-11-8-33 7-40 28-71 28-71-1 0-30 33-83 64-103 29-19 82-23 98-7 6 6 31 80 55 164 39 136 45 172 55 318 13 189 5 309-22 342-17 22-17 22-176 9-88-6-224-21-304-32s-185-24-235-30c-49-6-149-20-221-32l-132-22-7 78c-3 43-5 81-2 83 6 6 212 32 397 49 91 9 189 18 218 22 79 9 107 46 58 78-22 15-42 14-233-5-114-11-261-28-326-36-65-9-120-14-122-12-2 1-7 31-12 65l-10 61 59 17c50 14 234 43 443 70 28 3 57 10 64 14 9 6 14 44 16 135 2 69 6 154 10 190 6 58 5 66-15 86-22 22-28 23-134 16-149-8-315-36-440-73-16-4-15 0 7 29 41 54 79 144 75 180-3 29-7 33-36 36-24 2-34-1-38-15zm486-292v-49l-67-7c-100-10-297-43-383-65-79-20-90-17-90 27 0 12-3 28-6 36-7 18 16 25 191 62 121 26 234 41 313 44l42 1zm-10-179v-38l-166-23c-91-13-203-33-249-45l-83-22-5 35c-2 20-3 37-1 39 6 9 159 43 273 61 112 18 151 24 214 29 13 2 17-6 17-36z"/>
    <path d="m889 728c-12-21-2-161 21-301 8-54 18-48-110-68-41-6-140-24-219-41-79-16-147-25-151-21s-23 60-43 124c-38 118-53 143-83 137-31-6-40-33-26-80 48-169 82-272 94-280 17-12 63-6 235 31 233 50 479 82 699 91 114 4 211 13 223 19 11 6 26 21 33 34 16 29 23 263 9 300-12 32-37 44-60 30-13-8-17-35-21-144l-5-134-155-6c-85-4-191-12-234-18-44-6-83-8-87-4-4 5-15 80-25 168-9 88-22 166-27 173-15 20-55 14-68-10z"/>
  </g>
</svg>
