<?xml version="1.0"?>
<svg xmlns="http://www.w3.org/2000/svg" height="200pt" preserveAspectRatio="xMidYMid meet" viewBox="0 0 200 200" width="200pt">
  <g transform="matrix(.1 0 0 -.1 0 200)">
    <path d="m1548 1829c-15-9-18-26-18-117 0-59 5-159 10-222 6-63 14-317 20-565 9-460 24-736 41-767 5-10 20-18 33-18 47 0 49 15 37 207-6 98-16 362-21 588s-14 478-20 560c-6 83-13 187-16 233-7 100-24 126-66 101z"/>
    <path d="m437 1773c-13-16-16-75-20-428-7-573-19-646-168-954-43-90-79-173-79-183 0-15 6-19 27-16 38 4 89 74 163 223 126 253 150 414 150 992 0 306-2 354-16 367-20 21-37 20-57-1z"/>
    <path d="m942 1427c-8-9-8-119-1-372 9-348 10-361 31-378 18-15 23-16 42-3 21 13 21 19 18 257-4 286-16 475-33 495-14 17-43 18-57 1z"/>
  </g>
</svg>
