<?xml version="1.0"?>
<svg xmlns="http://www.w3.org/2000/svg" height="200pt" preserveAspectRatio="xMidYMid meet" viewBox="0 0 200 200" width="200pt">
  <g transform="matrix(.1 0 0 -.1 0 200)">
    <path d="m1635 1657c-13-20-13-68 0-427 9-223 18-524 21-670 4-149 11-270 17-277 13-18 52-16 67 2 15 19 10 370-15 960-13 302-20 395-31 413-19 28-40 28-59-1z"/>
    <path d="m555 1610c-17-18-17-28-7-114 39-311-18-836-116-1082-24-60-14-89 28-82 51 7 93 111 134 338 55 303 70 598 41 820-18 140-37 168-80 120z"/>
    <path d="m1064 1448c-12-19-13-921-1-935 5-7 20-13 32-13s27 6 32 13c13 15 29 356 26 527-3 163-23 392-36 408-12 16-44 16-53 0z"/>
    <path d="m1290 1230c-12-23 2-86 51-237 34-103 55-122 92-84l21 20-43 138c-23 76-46 148-51 161-12 28-55 30-70 2z"/>
    <path d="m410 1210c-11-11-20-25-20-31s-34-97-76-201c-72-181-75-190-60-214 42-63 72-17 181 275 47 127 53 159 33 179-17 17-35 15-58-8z"/>
    <path d="m799 1207c-9-19-2-44 38-143 43-107 51-119 75-122 60-7 54 54-21 221-27 57-35 67-56 67-17 0-29-8-36-23z"/>
  </g>
</svg>
