<?xml version="1.0"?>
<svg xmlns="http://www.w3.org/2000/svg" height="200pt" preserveAspectRatio="xMidYMid meet" viewBox="0 0 200 200" width="200pt">
  <g transform="matrix(.1 0 0 -.1 0 200)">
    <path d="m1239 1815c-93-95-114-130-85-141 33-13 92 20 164 91 57 58 72 79 72 103 0 29-14 42-44 42-7 0-55-43-107-95z"/>
    <path d="m767 1883c-4-3-7-19-7-33 0-30 31-60 144-139 65-45 77-48 100-25 29 29 18 51-51 100-38 26-83 60-101 76-31 26-70 36-85 21z"/>
    <path d="m493 1873c-7-2-13-17-13-33 0-24 16-41 102-109 56-45 107-81 113-81 7 0 20 9 30 20 26 28 10 56-61 110-33 24-74 57-92 72-31 27-52 32-79 21z"/>
    <path d="m1000 1583c-62-3-351-29-415-38-36-5-55-29-50-64 43-255 70-390 81-408 13-21 22-23 152-25l137-3 3-76 3-76-133-12c-166-15-534-68-570-82-34-14-46-46-24-67 14-14 36-13 238 16 246 35 447 56 455 49 18-19-136-203-281-335-116-106-183-154-324-233-63-34-116-69-120-77-9-25 13-47 46-46 41 2 166 64 273 136 95 64 291 246 384 357l60 72 12-168c11-165 32-376 39-401 5-18 34-27 52-15 29 18 32 64 12 238-10 93-21 229-25 300l-6 130 123-121c144-142 315-273 483-370 145-85 166-94 211-94 54 0 59 48 8 75-240 123-474 288-647 456l-112 109 367-1c201-1 371 2 377 5 6 4 11 18 11 30 0 50-5 51-426 54l-393 3-6 53c-13 105-19 101 130 103 154 3 170 6 189 36 18 27 60 365 53 426-3 27-12 50-23 58-17 13-156 15-344 6zm270-143v-60h-134-134l-4 55c-2 42 0 55 12 59 8 2 70 4 138 5l122 1zm-360-9v-60l-47-6c-27-4-85-12-130-19l-82-12-11 53c-7 30-9 60-7 68 4 9 36 15 104 20 54 3 103 8 108 10 6 2 22 4 38 4 27 1 27 0 27-58zm338-208c-5-37-10-69-11-70-1 0-55-3-120-5l-117-3v73 72h128 129zm-338-12v-69l-106-7c-82-6-108-5-114 5-11 17-23 100-16 107 5 6 165 30 209 32 27 1 27 1 27-68z"/>
  </g>
</svg>
