<?xml version="1.0"?>
<svg xmlns="http://www.w3.org/2000/svg" height="200pt" preserveAspectRatio="xMidYMid meet" viewBox="0 0 200 200" width="200pt">
  <g transform="matrix(.1 0 0 -.1 0 200)">
    <path d="m1375 1469c-265-14-702-63-898-101-60-11-83-32-71-62 11-28 46-28 266 3 119 17 223 31 231 31 16 0 34-249 45-626l7-222-50-6c-27-3-138-12-245-21-286-22-509-50-542-67-10-5-18-17-18-28 0-23 41-53 61-46 26 10 282 36 494 51 116 8 284 24 375 35 173 20 352 34 684 51 115 5 205 14 213 21 19 15 16 42-7 63-18 16-34 17-158 12-183-8-448-26-599-40l-123-12v160c-1 145-5 249-26 576l-7 107 49 6c104 13 312 26 418 26 85 0 117 4 134 16 47 32 10 85-58 83-19-1-98-5-175-10z"/>
  </g>
</svg>
