<?xml version="1.0"?>
<svg xmlns="http://www.w3.org/2000/svg" height="200pt" preserveAspectRatio="xMidYMid meet" viewBox="0 0 200 200" width="200pt">
  <g transform="matrix(.1 0 0 -.1 0 200)">
    <path d="m963 1908c-6-7-13-49-16-93-4-44-11-114-18-156l-11-76-82-7c-98-8-508-72-553-87-33-11-48-35-37-62 9-23 30-28 82-17 69 13 437 68 506 75l59 5-7-40c-9-60-81-251-134-355-99-199-283-433-465-592-65-57-87-82-85-97 5-33 59-25 126 20 97 64 260 242 372 405l44 66 138 19 137 20 5-70c3-39 7-164 8-279 3-201 2-207-17-207-177-2-580-55-611-81-18-15-18-43 1-59 17-14 38-12 295 24 154 21 496 36 822 36 280 0 288 1 298 21 9 16 8 26-4 44-14 21-26 24-113 30-54 5-204 5-335 2l-236-6-6 102c-3 56-7 181-10 278l-4 176 87 12c47 7 127 15 176 18 51 3 100 11 113 19 24 16 29 43 10 62-20 20-143 14-375-18-120-17-239-33-265-37l-48-6 44 94c45 99 106 269 126 355l11 51 82 7c45 3 222 9 392 12 179 4 315 11 323 17 6 5 12 20 12 32 0 47-7 48-368 41-185-3-357-9-381-12l-44-6 7 28c3 16 9 83 13 149 5 106 4 123-11 138-21 20-40 22-53 5z"/>
  </g>
</svg>
