<?xml version="1.0"?>
<svg xmlns="http://www.w3.org/2000/svg" height="200pt" preserveAspectRatio="xMidYMid meet" viewBox="0 0 200 200" width="200pt">
  <g transform="matrix(.1 0 0 -.1 0 200)">
    <path d="m1203 1918c-57-62-163-205-163-221 0-50 61-24 140 59 96 101 117 143 88 172-18 18-42 14-65-10z"/>
    <path d="m536 1884c-25-25-19-48 25-98 52-59 120-106 153-106 21 0 26 5 26 26 0 20-21 48-84 110-47 46-89 84-95 84-5 0-17-7-25-16z"/>
    <path d="m1044 1569c-205-8-404-26-441-40-15-6-23-17-23-33 0-43 20-49 117-37 48 6 109 11 136 11h47v-84-84l-107-7c-122-8-143-16-143-50 0-39 28-46 143-39l104 7 6-39c4-22 7-60 7-86 0-54 5-52-145-63-127-10-358-45-373-57-7-6-12-20-10-31 6-37 29-41 152-27 64 7 119 10 123 7 8-9-39-132-88-227-53-103-153-201-284-277-84-49-100-63-100-83 0-22 5-25 37-28 65-5 186 66 294 173 82 80 97 101 142 195 41 86 75 176 97 256 5 16 125 24 510 34 187 4 348 11 357 15 34 13 33 69 0 79-10 3-152 2-317-2s-301-7-301-7c-1 0-4 37-8 83l-6 82h114c97 0 117 3 137 19 21 16 22 22 11 45l-12 26h-125-125v89 88l151 9c140 8 153 11 166 31 13 19 12 24-6 42-12 12-27 20-33 19-7 0-99-4-204-9z"/>
    <path d="m1010 709c-153-9-311-34-322-51-14-24-8-48 15-59 17-7 54-6 135 5 62 9 121 16 132 16 18 0 19-10 22-184l3-185-55-5c-30-3-93-8-140-11-136-9-293-27-317-36-15-6-23-17-23-33 0-44 19-49 132-37 259 28 412 35 811 36 385 1 429 3 444 18 13 13 14 21 5 41-10 23-13 24-184 31-95 4-266 6-381 4l-207-4v181 182l31 6c17 3 92 6 166 6s143 5 154 10c24 13 26 65 3 74-20 8-262 5-424-5z"/>
  </g>
</svg>
