<?xml version="1.0"?>
<svg xmlns="http://www.w3.org/2000/svg" height="200pt" preserveAspectRatio="xMidYMid meet" viewBox="0 0 200 200" width="200pt">
  <g transform="matrix(.1 0 0 -.1 0 200)">
    <path d="m1200 1799c-210-17-705-73-737-84-7-2-13-15-13-28 0-51 10-52 297-18 283 32 711 67 720 58 6-6-34-132-80-252-17-44-43-120-57-170l-26-90-155-12c-182-14-531-56-644-78-44-8-96-15-115-15-20 0-41-5-48-12-16-16-17-604-1-659 18-57 63-105 132-138 80-39 153-51 365-58 168-6 271 0 582 32 74 7 174 17 222 20 50 4 91 12 97 19 14 17 15 373 2 409-11 28-38 37-46 15-3-7-10-89-17-183l-13-170-85-6c-47-3-137-11-200-18-269-28-319-31-473-31-263 1-394 27-455 93-34 36-43 121-40 377l3 225 90 17c146 28 622 78 737 78 81 0 110 4 122 15 13 14 46 108 46 134 0 6 22 71 50 145 68 185 111 333 104 361-7 27-50 46-98 44-17-1-137-10-266-20z"/>
  </g>
</svg>
