<?xml version="1.0"?>
<svg xmlns="http://www.w3.org/2000/svg" height="200pt" preserveAspectRatio="xMidYMid meet" viewBox="0 0 200 200" width="200pt">
  <g transform="matrix(.1 0 0 -.1 0 200)">
    <path d="m884 1870c-7-7-9-65-6-163 3-113 0-173-12-236-8-46-17-85-19-87s-67-14-145-28c-145-24-172-35-172-67 0-36 32-40 156-19 64 11 119 18 121 16 7-7-74-159-124-231-45-65-52-71-98-81-28-7-103-24-167-39-129-29-170-52-152-82 17-27 43-27 160 2 58 14 108 24 111 22 7-8-107-125-186-190-42-35-111-87-153-116-59-41-78-59-78-77 0-27 27-38 61-25 99 38 334 234 449 374 25 31 54 58 65 61s135 15 275 27l255 21 127-85c145-97 341-197 387-197 41 0 50 24 21 55-13 14-69 48-124 76-117 60-256 147-256 160 0 5 81 9 184 9 148 0 186 3 196 15 17 21 9 48-20 62-30 15-205 17-369 3l-114-9-81 69c-45 38-109 98-144 133l-64 64 39 7c21 3 90 9 153 12 120 7 160 20 160 52 0 46-50 51-255 27-65-8-121-13-122-11-2 1 4 50 13 107 16 106 13 263-7 331-12 44-42 61-65 38zm126-724 116-114-51-6c-112-13-307-28-311-24-2 3 18 42 45 87s56 102 66 127c9 24 17 44 18 44s54-51 117-114z"/>
    <path d="m1257 1813c-20-26-63-83-97-126-61-79-75-122-44-134 29-11 64 20 150 131 70 91 84 115 82 140s-8 32-29 34-33-6-62-45z"/>
    <path d="m500 1801c-15-29-4-48 69-126 36-39 79-88 94-108 18-25 36-37 52-37 65 0 26 93-90 213-76 80-106 93-125 58z"/>
    <path d="m1040 805c-8-2-80-13-160-25-151-23-190-38-190-69 0-43 19-44 209-15 99 15 183 25 187 21 10-9-27-128-40-133-6-1-105-10-221-20-223-17-248-22-264-52-15-28-41-203-41-275 0-71 24-121 70-144 52-26 569-9 820 27 36 5 68 10 72 10s14 7 22 16c13 12 16 38 16 118 0 114-13 151-47 130-14-8-20-31-27-96l-8-85-87-12c-179-23-471-37-658-33-97 3-100 8-83 160 8 63 19 120 26 127 13 13 85 20 307 31 170 9 176 12 212 126 34 106 41 163 25 183-11 14-92 19-140 10z"/>
  </g>
</svg>
