<?xml version="1.0"?>
<svg xmlns="http://www.w3.org/2000/svg" height="200pt" preserveAspectRatio="xMidYMid meet" viewBox="0 0 200 200" width="200pt">
  <g transform="matrix(.1 0 0 -.1 0 200)">
    <path d="m906 1961c-15-17-16-37-10-194l7-176-24-5c-13-3-121-12-239-21-338-24-400-37-400-79 0-35 27-39 158-28 70 7 197 17 282 22 85 6 171 13 191 16l36 5 6-92c4-51 7-118 7-150v-57l-67-7c-38-4-146-15-240-25-95-11-179-17-187-14-7 3-21-2-30-11-14-15-16-54-16-338 0-348 3-372 50-372 45 0 48 25 39 340-4 159-7 290-6 291 4 4 399 44 433 44h34v-202c1-299 25-805 40-823 16-19 44-19 60 0 10 12 11 59 6 208-3 106-9 334-12 508l-7 316 29 6c16 4 134 10 263 13l234 7-6-174c-4-96-7-229-7-296v-123l-47 19c-27 11-68 31-93 45-49 28-75 32-86 14-12-18 99-114 178-154 74-37 109-39 123-7 5 10 13 179 18 375 9 303 8 360-4 374-13 16-35 16-249 11-129-4-263-10-296-13l-61-7-8 147c-4 81-6 149-4 151 8 7 331 37 491 45 92 5 176 14 187 20 24 12 28 52 7 69-16 14-290 1-531-25-86-9-157-15-159-13-3 2-7 78-11 169-7 166-17 210-49 210-7 0-21-9-30-19z"/>
  </g>
</svg>
