<?xml version="1.0"?>
<svg xmlns="http://www.w3.org/2000/svg" height="200pt" preserveAspectRatio="xMidYMid meet" viewBox="0 0 200 200" width="200pt">
  <g transform="matrix(.1 0 0 -.1 0 200)">
    <path d="m751 1916c-9-11-11-44-5-130 3-63 4-126 0-140-6-23-12-26-49-26-58 0-303-29-349-41-50-13-67-44-41-71 19-19 23-19 124-4 57 8 146 18 197 22 108 8 104 15 71-117-51-205-287-565-449-684-54-39-69-68-49-91 33-40 129 21 246 157l78 90 21-123c11-68 28-157 38-198 9-41 19-85 22-97 6-31 38-47 64-33s26 49 1 148c-21 79-64 323-59 327 2 1 75 12 163 24 88 13 170 25 182 28l21 5 4-410c3-438 4-442 54-442 12 0 26 5 30 12 4 6 6 200 5 429l-3 418 24 6c53 12 278 35 345 35h73v-47c0-63-29-385-38-428l-7-33-90 29c-104 33-121 35-129 12-9-21 34-66 82-86 74-32 169-67 180-67 35 0 54 84 77 355 18 209 19 327 3 343-22 22-314 7-486-24l-34-7 7 109c3 60 8 123 11 140 6 41-23 79-53 70-30-10-32-21-40-182-6-136-7-145-27-149-44-9-359-56-361-53-2 2 24 48 56 103 72 123 111 221 136 345l20 95 49 7c51 7 360 25 599 35 152 6 189 17 183 56-7 46-9 46-508 18-107-6-220-14-250-17l-55-6-2 121c-1 75-7 132-15 149-15 31-49 40-67 18z"/>
  </g>
</svg>
