<?xml version="1.0"?>
<svg xmlns="http://www.w3.org/2000/svg" height="200pt" preserveAspectRatio="xMidYMid meet" viewBox="0 0 200 200" width="200pt">
  <g transform="matrix(.1 0 0 -.1 0 200)">
    <path d="m1193 1906c-45-37-201-146-210-146-4 0-68 30-140 66-110 56-135 65-148 54-44-37 0-84 139-149l69-32-64-46c-35-26-100-69-144-97-132-81-223-145-228-158-8-24 13-48 41-48 29 0 247 132 401 243l84 60 41-22c23-12 82-51 131-86 92-66 112-74 133-53 29 29 13 56-65 113-43 32-95 67-115 79-21 11-37 24-35 27 1 4 39 34 84 68 97 71 120 100 103 130-14 28-42 26-77-3z"/>
    <path d="m785 1430c-8-16-15-39-15-52 0-33-28-160-37-169-5-4-62-13-128-19-181-17-446-58-462-71-8-7-13-21-11-32 6-40 28-43 195-19 196 27 363 45 369 40 6-7-76-164-121-233-54-83-239-266-362-359-57-42-103-82-103-89 0-21 22-37 50-37 43 0 181 103 333 249 42 41 77 72 77 69 0-21 64-285 76-313 11-26 20-35 38-35 50 0 51 19 12 179-20 81-36 159-36 173 0 30 12 33 155 43 50 3 102 8 116 11l26 5 11-218c7-120 15-278 18-351 6-117 9-134 26-147 25-17 47-9 57 19 8 20 2 238-15 562l-7 141 59 6c32 4 119 10 193 14l134 6-6-79c-6-74-44-294-52-303-3-2-46 11-98 29-119 42-152 34-106-24 24-31 195-116 233-116 16 0 31 9 40 23 18 29 62 253 77 393 12 124 7 149-37 160-21 5-386-11-427-19-9-1-13 28-17 106-5 112-13 130-51 120-24-7-28-26-32-143l-2-95-139-12c-76-7-144-14-151-17-7-2 19 56 56 130 38 73 69 140 69 149 0 8 6 15 13 15 6 0 98 9 202 21 162 17 451 27 837 29 11 0 19 36 12 53-3 9-22 21-42 27-79 21-577 7-848-25-70-8-129-13-131-11-3 3 3 42 28 164 12 60 2 82-37 82-16 0-28-10-39-30z"/>
  </g>
</svg>
