<?xml version="1.0"?>
<svg xmlns="http://www.w3.org/2000/svg" height="200pt" preserveAspectRatio="xMidYMid meet" viewBox="0 0 200 200" width="200pt">
  <g transform="matrix(.1 0 0 -.1 0 200)">
    <path d="m1445 1805c-182-23-526-83-541-96-19-15-18-43 2-60 13-10 43-8 177 13 89 14 163 25 164 24 1 0 3-68 4-151l3-150-124-22c-69-12-146-24-172-27-43-4-108-37-108-54 0-4 9-92 20-197 11-104 20-219 20-255 0-70 18-110 49-110 32 0 41 22 41 102 0 70-22 312-35 393l-5 30 156 24c85 13 157 21 160 18 10-10 24-255 35-612 14-469 18-514 44-531 18-12 24-11 44 2 22 16 23 21 18 118-3 55-10 258-16 450s-15 403-20 470c-6 66-9 122-7 124 7 6 241 31 299 32 39 0 57-4 57-12 0-7-11-88-24-179-14-91-28-232-32-313l-7-147-43 7c-35 5-44 3-52-13-15-27 2-51 52-74 49-22 99-24 116-4 7 9 16 75 22 167 5 84 18 225 29 313 40 314 40 307 23 333-14 22-19 23-102 17-48-4-143-13-211-21s-128-11-131-7c-4 4-10 72-13 150l-6 142 27 5c15 3 72 10 127 17 55 6 108 15 117 20 24 13 23 56-1 69-23 12-13 12-156-5z"/>
    <path d="m464 1792c-6-4-31-45-54-92-65-132-143-241-215-304-63-56-79-87-56-112 12-12 71-626 71-736 0-51 4-61 31-89s35-31 71-25c149 24 346 46 367 41 41-9 64 15 72 76 4 30 15 114 25 187 18 131 18 132-2 152-19 20-20 20-179 0-88-11-193-27-234-35-87-18-91-15-91 56 0 40 3 48 23 52 21 5 168 26 327 46 111 15 112 16 108 219-4 227 13 217-278 162-80-16-146-27-147-26 0 0 20 30 47 65 58 78 124 191 156 268 20 50 21 61 10 78-15 22-35 29-52 17zm176-577c0-63-2-115-5-115s-87-11-187-25c-99-15-182-24-185-22-6 7-23 126-23 169v37l73 16c114 25 269 53 300 54l27 1zm49-462c-15-100-32-173-41-179-10-6-340-56-343-52-2 2-6 53-10 115l-7 112 39 10c21 6 85 18 143 26s116 16 130 18c14 3 41 5 61 6l36 1z"/>
  </g>
</svg>
