<?xml version="1.0"?>
<svg xmlns="http://www.w3.org/2000/svg" height="200pt" preserveAspectRatio="xMidYMid meet" viewBox="0 0 200 200" width="200pt">
  <g transform="matrix(.1 0 0 -.1 0 200)">
    <path d="m960 1931c-5-11-10-80-10-154v-134l-97-7c-251-18-459-39-476-48-18-9-19-19-11-176 10-224 7-305-17-450-33-199-82-361-154-512-36-74-65-140-65-146s7-17 15-24c78-64 227 278 295 673 22 132 27 333 10 476-5 47-8 86-7 87 12 13 912 64 1119 64 83 0 110 3 122 16 23 22 20 41-10 60-26 18-92 17-501-3l-133-6v132c0 73-5 141-10 152-6 11-21 19-35 19s-29-8-35-19z"/>
    <path d="m1230 1441c-5-11-10-53-10-94v-75l-92-7c-51-4-133-13-183-20-49-7-93-11-96-9-4 2-10 21-14 41-13 71-32 103-59 103-40 0-49-30-32-97 8-31 14-59 12-61s-33-10-67-18c-35-8-76-19-91-25-34-14-46-46-24-67 15-15 23-15 98 1 46 9 88 17 94 17 12 0 34-102 34-158 0-44 36-68 82-54 18 6 52 14 76 17l43 7-3-64-3-63-165-21c-214-27-223-29-255-67-34-41-30-69 31-226 59-149 68-163 102-159 43 5 40 43-17 187-28 71-51 134-51 139 0 15 20 20 165 37 72 8 146 18 166 21l36 5 6-113c28-509 32-538 73-538 51 0 51-6 14 525-4 71-7 131-5 133 6 7 253 21 363 22 70 0 112-4 112-10 0-11-46-270-55-307-7-30-17-29-93 7-73 34-87 36-96 13-9-24 47-78 118-113 62-32 117-38 134-17 11 13 35 128 73 345 30 173 36 167-144 167-72 0-197-2-277-5l-145-5-3 58-3 57h90c81 0 93 3 118 24 27 24 28 26 25 120l-4 96h129c137 0 153 5 153 47 0 37-39 46-167 38l-113-6v76c0 88-11 115-45 115-14 0-29-8-35-19zm-8-330 3-68-130-7c-71-4-148-8-170-9l-40-2-8 59c-5 32-7 60-4 62 7 7 221 32 284 33l61 1z"/>
  </g>
</svg>
