<?xml version="1.0"?>
<svg xmlns="http://www.w3.org/2000/svg" height="200pt" preserveAspectRatio="xMidYMid meet" viewBox="0 0 200 200" width="200pt">
  <g transform="matrix(.1 0 0 -.1 0 200)">
    <path d="m894 1953c-15-15-16-35-12-170l6-152-42-5c-22-3-96-12-164-21s-127-13-131-10c-5 3-12 32-16 64-7 64-30 96-59 85-28-11-34-36-24-97 6-32 8-61 5-64s-43-9-89-15c-110-13-149-47-95-83 20-13 36-13 106-4 45 6 84 9 86 7s9-44 15-93c6-50 15-101 21-114 11-26 19-26 174 2 150 28 451 50 616 45 86-3 164-1 173 4 13 7 16 26 16 91 0 132-2 128 97 126 98-2 125 12 106 54-13 28-47 37-133 37h-57l5 73c4 60 1 76-13 90-20 20-26 21-48 4-13-9-19-33-24-83l-6-71-209-7c-115-4-213-5-216-1-3 3-10 72-15 153-7 115-13 150-25 160-21 16-27 15-48-5zm502-430c-3-21-6-54-6-73v-35h-195-195l-4 25c-3 14-8 44-11 67l-7 42 89 4c48 1 144 4 212 5l124 2zm-496-15c0-18 3-49 6-69l6-36-68-7c-38-4-113-14-167-22-54-9-100-14-102-12s-6 33-10 70l-7 67 33 6c43 8 245 32 282 34 24 1 27-2 27-31z"/>
    <path d="m1105 1160c-116-4-268-12-340-18-71-7-210-15-308-18-212-7-208-4-189-126 6-40 20-138 32-218s26-153 31-162c13-24 56-23 69 1 10 20-4 143-37 324-8 48-14 89-12 91s128 8 279 14 283 14 292 17c14 6 17-6 23-92 3-54 8-108 10-119 5-21-1-22-98-34-56-7-122-16-147-20-27-5-50-4-57 2-7 5-22 8-35 6-37-5-34-53 13-211 23-78 46-152 52-164 17-39 70-41 80-4 2 10-13 76-35 146-29 96-36 130-27 136 7 4 58 12 113 19 56 6 111 13 124 16 12 2 22 3 23 2 0-2 4-131 9-288 10-304 20-398 46-417 22-16 42-6 49 25 3 15 1 153-5 307-5 154-10 304-10 333v52h146 146l-6-22c-3-13-9-72-12-132l-7-108-48 5c-61 8-78-9-49-46 39-50 148-59 171-15 6 11 15 75 20 142 4 66 11 146 15 176 10 84 7 85-207 85h-178l-6 75c-3 41-8 91-11 111l-5 36 197 6c265 9 426 8 442-2 11-6 6-19-21-57-62-88-127-236-127-291 0-19 5-24 21-21 15 2 38 30 74 93 29 50 79 128 111 174 77 109 86 128 79 152-4 11-19 25-33 31-34 13-380 18-657 8z"/>
  </g>
</svg>
