<?xml version="1.0"?>
<svg xmlns="http://www.w3.org/2000/svg" height="200pt" preserveAspectRatio="xMidYMid meet" viewBox="0 0 200 200" width="200pt">
  <g transform="matrix(.1 0 0 -.1 0 200)">
    <path d="m1415 1803c-159-11-521-67-542-84-18-16-16-43 5-62 15-14 34-13 212 14 107 17 261 33 343 36l147 6v-46-46l-42-5c-24-3-88-8-143-11-126-8-441-60-461-75-18-16-18-44 1-60 18-15 63-11 265 20 74 11 188 23 253 27l118 6-3-44-3-44-65-7c-36-3-121-11-190-17-69-7-185-21-258-33-118-18-135-24-149-45-15-23-15-26 5-45l20-21 139 22c76 12 194 26 263 31 222 17 265 21 287 26 32 6 41 52 49 255l7 176-24 16c-23 17-92 20-234 10z"/>
    <path d="m530 1775c-11-13-11-47 0-180 17-214 8-561-19-741-55-367-135-582-246-666-65-49-67-73-4-72 122 1 210 138 289 449 72 283 99 713 65 1035-9 91-21 171-27 177-14 18-43 16-58-2z"/>
    <path d="m176 1474c-9-8-16-16-16-17s7-34 15-72c10-41 18-148 22-262 6-200 11-219 50-211 32 6 43 48 43 168 0 202-31 390-66 404-24 9-31 8-48-10z"/>
    <path d="m1525 1184c-223-17-437-40-575-62-58-9-131-17-163-17-62 0-86-18-72-53 4-9 13-68 20-130 14-116 24-142 56-142 36 0 49 38 39 115-15 116-17 112 41 124 62 14 380 53 385 48 2-2 7-42 10-89l7-86-89-12c-49-6-103-15-121-20-23-6-35-4-44 6-14 17-41 18-57 2s-15-88 2-228c8-63 18-160 21-215 8-105 22-145 54-145 38 0 44 24 37 148-3 64-13 164-21 222-7 58-11 108-6 112 6 7 213 40 217 35 1-1 9-128 18-282 26-435 27-446 48-467 22-22 28-22 53-4 20 15 21 2-16 595-5 90-8 165-7 167 2 1 62 6 134 10l131 7 6-63c10-89 9-340-1-340-4 0-12 4-17 9-21 19-53 22-69 6-14-14-14-20-2-44 15-27 76-74 120-91 17-6 30-4 45 6 20 15 21 22 20 232 0 236-8 345-27 364-13 13-185 14-288 2l-51-6-6 89c-3 48-4 89-4 89 2 2 232 20 379 30l97 6-20-62c-14-45-16-67-9-81 22-41 47-23 94 64 37 71 47 132 24 155-15 15-154 14-393-4z"/>
  </g>
</svg>
