<?xml version="1.0"?>
<svg xmlns="http://www.w3.org/2000/svg" height="200pt" preserveAspectRatio="xMidYMid meet" viewBox="0 0 200 200" width="200pt">
  <g transform="matrix(.1 0 0 -.1 0 200)">
    <path d="m420 1928c-6-13-14-138-18-278l-7-254-109-16c-59-9-120-14-135-12-43 6-54-16-42-85 6-32 18-141 26-243 24-307 27-330 45-353 16-19 21-20 45-9l28 13-7 82c-21 258-37 427-42 465-5 32-3 42 7 42 8 0 53 6 100 13l86 13 7-215c7-233 42-809 50-832 3-8 10-56 15-108 11-100 21-121 56-121 47 0 49 16 26 212-24 206-47 561-57 869l-7 206 49 6c27 4 83 9 125 13l77 7 7-89c8-88 0-361-11-421l-6-32-44 22c-41 20-45 20-61 4-23-23-10-48 57-102 63-52 104-59 120-22 33 79 52 443 33 640-8 94-17 99-148 87-55-5-122-12-148-16l-48-6 1 261c1 143-1 265-5 271-12 19-55 11-65-12z"/>
    <path d="m1340 1898c-52-5-121-15-154-22-45-11-64-11-78-3-13 9-23 9-36 1-19-13-19 6-7-374 3-129 3-266-2-304l-8-68-80-20c-96-24-124-45-107-82 7-16 21-26 39-28l28-3 12-290c6-159 16-334 22-387 6-54 11-118 11-142 0-37 5-48 24-61 22-15 27-15 54-1 46 24 110 103 148 183 39 80 41 116 8 121-16 2-32-14-73-77-29-44-56-83-61-86-16-10-36 223-45 520-3 105-8 204-11 221l-6 31 139 26c174 33 375 57 478 57 93 0 129 14 133 52 5 43-25 52-145 44-99-6-376-39-438-51l-30-7 3 76c3 62 7 76 22 81 38 12 288 45 342 45 38 0 62 5 72 16 37 37 5 74-63 74-54 0-246-24-311-39-25-6-48-11-52-11-5 0-8 28-8 63v64l113 22c61 13 159 25 217 28 111 6 150 19 150 52 0 38-24 44-148 38-64-3-160-16-212-27-52-12-102-22-110-23-12-2-16 15-22 78-3 44-3 83 0 87 14 14 185 38 319 44 76 4 144 11 151 17 15 12 16 49 0 65-14 14-133 14-278 0z"/>
    <path d="m1613 923c-52-71-229-263-243-263-10 0-86 109-145 210-45 76-54 85-80 85-47 0-45-40 6-133 74-137 187-281 328-422 122-121 152-144 281-223 120-73 151-87 180-85 31 3 35 6 35 32 0 27-12 37-155 125-134 83-172 113-282 221-71 69-128 131-128 138 0 6 9 12 19 12 45 0 260 227 292 308 12 31-5 62-35 62-17 0-36-17-73-67z"/>
  </g>
</svg>
