<?xml version="1.0"?>
<svg xmlns="http://www.w3.org/2000/svg" height="200pt" preserveAspectRatio="xMidYMid meet" viewBox="0 0 200 200" width="200pt">
  <g transform="matrix(.1 0 0 -.1 0 200)">
    <path d="m907 1930c-11-16-13-64-9-254l5-233-64-7c-35-3-125-11-199-16-206-14-354-32-369-44-9-7-11-24-6-61 13-102 67-331 82-347 22-25 52-22 64 6 9 19 4 54-25 175-20 84-36 153-36 155 0 5 100 15 390 37 294 22 835 36 892 22l37-8-95-160c-51-88-93-169-91-180 1-12 11-21 24-23 38-6 95 68 218 281 60 104 67 120 57 142-8 16-23 26-49 32-21 4-197 8-390 8l-353-1v82c0 193-13 386-27 400-20 20-39 18-56-6z"/>
    <path d="m1342 1723c-51-58-95-117-98-130-7-25 10-53 31-53 19 0 214 209 221 237 9 35-2 53-33 53-23 0-44-19-121-107z"/>
    <path d="m427 1743c-4-3-7-19-7-33 0-21 18-44 74-98 82-77 125-105 159-100 46 6 30 37-75 138-95 92-131 114-151 93z"/>
    <path d="m1025 1280c-38-4-121-8-183-9-132-1-172-15-172-59 0-15 13-90 29-167 37-175 41-179 154-173l77 5v-39c0-22-5-40-12-42s-85-11-172-20c-88-9-171-22-185-29-32-15-33-44-7-227 28-200 39-225 88-199 19 10 20 17 14 93-3 46-13 122-21 171-9 48-14 89-12 91s293 34 312 34c1 0 5-140 8-311 5-260 8-315 22-335 18-28 50-32 63-7 6 10 8 144 4 339l-5 322 139 6c76 3 160 8 186 11 47 4 47 4 43-23-3-15-14-94-25-176-11-83-22-151-23-153-2-1-19 2-38 7-18 6-47 10-62 10-25 0-28-3-25-28 2-22 15-34 73-64 76-41 106-46 125-23 15 19 74 468 65 502-9 37-39 42-196 33-79-5-172-11-207-12l-62-3v43 42h88c137 0 145 12 157 232 6 119 5 128-14 147-23 23-81 26-226 11zm151-132c-3-29-6-78-6-109v-56l-107-7c-60-4-139-12-177-17s-71-8-73-5c-3 3-53 213-53 223 0 2 35 4 78 4 42 1 111 5 152 9s102 7 134 8l59 2z"/>
  </g>
</svg>
