<?xml version="1.0"?>
<svg xmlns="http://www.w3.org/2000/svg" height="200pt" preserveAspectRatio="xMidYMid meet" viewBox="0 0 200 200" width="200pt">
  <g transform="matrix(.1 0 0 -.1 0 200)">
    <path d="m1222 1888c-7-7-12-31-12-54s-3-55-6-71l-6-29-161-12c-89-7-206-15-259-19l-98-6v85c0 86-8 108-41 108-30 0-40-27-42-115-2-100 14-89-157-106-63-6-121-16-128-22-19-15-14-55 8-67 15-8 50-8 123 0 181 19 167 20 186-25 25-64 70-134 92-145 24-13 55-5 63 16 3 8-12 48-34 88s-40 77-40 83 47 13 118 17c64 4 168 12 231 17s116 7 119 5c6-6-38-136-55-163-17-26-3-63 24-63 31 0 82 68 103 139 11 37 20 73 20 80 0 8 50 11 175 11 196 0 225 7 225 52 0 42-28 48-216 48h-164v68c0 69-10 92-40 92-9 0-21-5-28-12z"/>
    <path d="m975 1370c-107-8-190-21-298-46-37-9-76-14-87-11s-30-3-42-13l-22-17 26-203c29-235 29-235 115-224 62 7 64 3 28-65l-26-47-130-16c-72-9-137-22-145-29-18-15-18-34 2-54 16-16 68-15 158 2l30 5-35-41c-47-56-231-216-303-263-33-21-85-48-117-59-64-24-93-48-87-76 8-42 125-17 236 49 72 44 279 225 367 322l70 77 192 16 191 17 53-48c72-65 257-187 349-230 82-39 288-101 369-112 55-7 81 4 81 37 0 25-33 44-105 58-101 21-257 72-325 106-74 37-269 164-288 187-11 13-3 16 65 22 193 16 215 19 235 35 26 22 17 58-17 67-12 3-95-1-183-10s-169-16-180-16c-19 0-82 79-82 103 0 5 52 7 120 5 94-2 123 0 129 11 5 7 12 107 16 223 9 264 18 249-144 247-64-1-161-5-216-9zm275-139v-58l-167-7c-93-4-222-14-288-21-172-21-161-23-169 32-3 25-5 47-4 49 7 5 221 46 284 53 38 5 131 9 207 10l137 1zm-10-189v-49l-182-12c-101-6-230-18-288-26-58-7-107-12-109-10s-6 24-8 48c-5 38-2 46 13 50 35 11 218 28 379 36 88 4 168 9 178 10 14 1 17-7 17-47zm-243-166c-3-8 3-31 13-52 11-21 17-40 14-43-6-6-236-30-242-25-2 1 4 23 12 48 9 26 15 52 13 59-2 12 56 22 152 25 33 2 42-1 38-12z"/>
    <path d="m906 654c-12-11-16-36-16-90v-74l-42-1c-24 0-77-6-118-13-44-8-82-10-91-5-24 12-59-17-59-50 0-30 52-221 71-264 23-51 80-42 78 12 0 14-13 66-28 116-20 63-25 92-17 96 13 7 156 29 190 29 23 0 23-2 29-157 7-184 13-220 38-233 20-11 45-4 52 14 3 7 2 95-3 197-4 101-6 185-5 187 1 1 61 5 134 9l131 6v-85-85l-45 10c-78 18-88-21-18-67 55-36 93-42 122-18 23 18 24 27 29 149 3 86 1 137-7 151-16 30-81 37-225 24-66-6-122-9-125-6-3 2-7 35-9 72-3 46-9 71-20 80-21 16-27 15-46-4z"/>
  </g>
</svg>
