<?xml version="1.0"?>
<svg xmlns="http://www.w3.org/2000/svg" height="200pt" preserveAspectRatio="xMidYMid meet" viewBox="0 0 200 200" width="200pt">
  <g transform="matrix(.1 0 0 -.1 0 200)">
    <path d="m1215 1753c-452-28-738-57-772-79-13-8-23-23-23-34 0-34 29-40 136-25 54 8 149 18 211 22l111 8 6-35c3-19 8-130 12-247l7-211-64-6c-35-3-161-13-279-21-349-26-441-37-454-57-8-13-8-23 0-35 14-22 71-22 359 1 110 8 254 18 321 22l121 7 5-435c4-304 9-441 17-456 16-30 59-30 69 0 5 13 5 219 2 458s-5 436-4 438c7 11 276 22 526 21 199 0 303 3 317 11 23 12 28 42 9 58-21 16-484 25-676 12-96-6-176-9-179-7-7 8-25 478-18 485 3 3 93 11 199 17 193 10 226 17 226 51 0 7-10 20-22 28-22 16-43 17-163 9z"/>
  </g>
</svg>
