<?xml version="1.0"?>
<svg xmlns="http://www.w3.org/2000/svg" height="200pt" preserveAspectRatio="xMidYMid meet" viewBox="0 0 200 200" width="200pt">
  <g transform="matrix(.1 0 0 -.1 0 200)">
    <path d="m1240 1740c-91-4-293-13-450-20s-295-16-307-21c-15-6-23-17-23-33 0-46 13-48 250-41l220 8v-249c0-137-3-273-6-301l-7-53-121-1c-145 0-576-31-594-42-6-5-12-19-12-33 0-45 26-48 282-30 129 9 283 16 343 16h108l-7-192c-7-215 9-605 26-625 12-15 37-17 58-3 13 8 15 63 11 415l-3 405 28-5c16-2 198-7 404-10 335-5 378-4 398 11 14 10 22 24 20 37-6 41-39 47-269 47-119 0-296 3-395 7l-179 6-3 302-3 302 107 6c59 4 172 7 251 7 130 0 145 2 163 20 24 24 24 30 6 55-16 23-66 25-296 15z"/>
    <path d="m1449 1478c-7-13-66-78-131-145-103-105-119-126-116-150 2-23 9-29 32-31 25-3 43 10 138 105 122 121 164 180 154 218-9 34-60 35-77 3z"/>
    <path d="m452 1418c-29-29-13-62 66-138 80-76 161-126 187-116 25 9 17 47-18 80-91 86-206 186-214 186-5 0-14-5-21-12z"/>
  </g>
</svg>
