<?xml version="1.0"?>
<svg xmlns="http://www.w3.org/2000/svg" height="200pt" preserveAspectRatio="xMidYMid meet" viewBox="0 0 200 200" width="200pt">
  <g transform="matrix(.1 0 0 -.1 0 200)">
    <path d="m602 1842c-12-12-21-40-25-78-19-162-110-373-207-477-62-66-70-90-35-103 49-19 164 93 223 216 32 68 41 79 67 83 17 3 82 16 145 30 63 13 141 27 173 31l57 7v-176c0-132-3-177-12-179-7-2-53-11-101-20-123-23-216-55-233-81-12-18-10-41 10-170 13-83 27-171 31-197l6-46-58-12c-150-30-346-86-405-117-19-9-28-21-28-38 0-40 30-48 96-24 139 48 509 128 675 146l56 6 11-89c6-49 18-168 27-264 19-203 24-229 48-244 31-20 52 4 55 67 2 47-18 279-44 493l-6 51 43 7c60 10 474 45 629 54 69 4 131 11 138 15 6 5 12 22 12 38 0 54-6 54-475 14-104-8-228-20-274-26-46-5-84-9-86-7-4 6-27 359-24 363 5 4 203 32 291 41 46 4 72 12 83 24 22 25 11 58-23 67-22 5-248-18-323-33l-27-6-4 174c-2 95-3 174-3 175 1 2 83 11 183 21 107 11 187 24 196 32 20 16 20 44 1 60-20 17-59 15-328-15-235-27-357-46-447-70-30-8-56-12-58-10s4 34 13 72c10 37 18 94 19 127 1 49-2 60-21 73s-23 13-41-5zm402-809c3-38 9-120 12-183l7-116-87-12c-48-7-100-15-115-18l-27-6-28 172c-15 95-25 175-21 178 9 10 184 50 221 51l31 1z"/>
  </g>
</svg>
