<?xml version="1.0"?>
<svg xmlns="http://www.w3.org/2000/svg" height="200pt" preserveAspectRatio="xMidYMid meet" viewBox="0 0 200 200" width="200pt">
  <g transform="matrix(.1 0 0 -.1 0 200)">
    <path d="m892 1908c-7-7-12-44-12-94v-83l-42-5c-24-3-101-10-172-16-72-6-138-16-148-21s-18-21-18-34c0-39 28-47 122-36 46 5 122 13 171 16l87 7v-139-140l-202-17c-271-23-485-59-511-84-16-16-17-23-8-41 14-26 10-26 216 4 94 14 185 25 203 25 29 0 32-3 32-29 0-30 56-218 84-283l16-37-43-5c-23-3-100-12-172-21-195-23-235-38-220-84 8-27 29-32 80-21 37 8 503 60 541 60 11 0 14-26 14-129v-128l-82-7c-232-19-228-18-239-37-7-13-6-26 2-40 11-21 14-22 170-15l159 8v-29c0-15 5-102 10-192 12-175 26-231 58-231 41 0 43 16 31 240-10 180-10 213 2 221 8 5 87 9 177 9 93 0 172 4 183 10 10 6 19 21 19 34 0 45-17 48-213 45l-184-4-6 125c-3 68-4 126-2 128s136 5 298 6c161 2 299 6 305 10 17 10 15 51-3 66-10 9-71 12-214 13h-199l13 31c14 34 61 228 70 290l6 38 232-5c128-2 242-8 254-12 31-10 68 28 53 56-23 42-46 44-452 44l-388-1v137 136l53 7c28 3 104 9 167 12 147 8 190 32 143 80-15 15-31 16-123 11-58-4-138-10-177-13l-73-7v80c0 80-9 103-40 103-9 0-21-5-28-12zm288-637c0-26-56-244-76-296l-16-44-62-5c-33-3-99-8-146-11l-85-6-53 159c-28 88-52 166-52 175 0 18 39 23 270 36 233 13 220 13 220-8z"/>
  </g>
</svg>
