<?xml version="1.0"?>
<svg xmlns="http://www.w3.org/2000/svg" height="200pt" preserveAspectRatio="xMidYMid meet" viewBox="0 0 200 200" width="200pt">
  <g transform="matrix(.1 0 0 -.1 0 200)">
    <path d="m1383 1958c-6-7-16-38-23-68-19-81-57-178-92-235-39-61-221-250-301-312-44-34-57-50-55-67 2-16 11-22 37-24 47-5 112 42 238 170 108 111 164 189 208 292l28 66 61-92c83-126 367-423 403-423 14 0 31 8 36 17 16 25-28 84-164 218-147 146-266 306-300 405-17 51-27 65-49 65-10 0-22-6-27-12z"/>
    <path d="m479 1899c-8-17-10-59-5-150l6-126-162-22c-89-12-168-27-175-33-18-14-16-43 3-58 12-11 42-10 162 3 81 10 153 17 160 17 9 0 12-25 12-89 0-100 8-91-93-111-44-9-61-9-72 0-17 14-51 5-59-17-4-9-2-61 4-117 22-213 26-274 16-295-6-14-5-25 4-36 18-22 58-20 205 10 19 4 21-1 23-80 1-80 0-85-21-90-12-3-119-25-237-51-118-25-221-50-227-56-18-14-16-43 2-58 13-11 54-5 228 29 116 23 222 45 235 48l23 5-7-249c-4-137-4-261 0-276 8-34 41-44 67-21 18 16 19 33 19 291 0 150 3 273 7 273 41 0 371 65 382 75 18 18 7 61-17 67-10 3-90-7-178-23-87-15-167-28-176-29-16 0-18 10-18 79 0 86 3 91 63 91 68 0 106 12 123 38 20 30 67 371 57 410-9 36-39 41-156 28l-106-11-3 85c-2 47 1 88 6 91 5 4 68 12 140 18 161 15 203 25 211 52 11 34-12 49-74 49-53 0-184-13-258-25l-33-6-1 83c-1 46-4 110-8 143-6 56-8 60-33 63-19 2-30-3-39-19zm263-639c-2-22-9-43-15-47s-63-12-127-19c-63-7-145-15-181-19l-66-7-5 31c-3 18-2 34 2 36 17 10 303 59 380 64 12 1 15-8 12-39zm-26-177c-3-21-6-49-6-63 0-25-3-25-148-48-81-12-157-25-168-28-20-5-22-1-29 61-4 37-4 70 0 73 6 6 265 38 329 41 28 1 28 0 22-36z"/>
    <path d="m1520 1280c-106-7-221-22-318-41-59-12-80-35-58-64 15-21 46-22 151-5 37 6 69 9 70 8 1-2 6-58 10-124l7-122-54-7c-148-18-320-45-328-50-17-10-11-54 8-64 13-7 73-3 195 13l175 22 6-85c15-204 26-425 26-539 0-68 5-132 10-143 12-21 50-25 68-7 17 17 16 179-4 506-9 150-14 275-11 278 2 3 88 9 190 14 101 5 192 12 201 16 12 5 16 16 14 38l-3 31h-170c-93 0-186-3-206-7l-36-6-7 121c-3 66-4 122-2 125 3 2 53 6 113 9 59 3 114 10 121 16 22 17 14 57-14 67-14 6-31 9-37 8-7 0-59-4-117-8z"/>
  </g>
</svg>
