<?xml version="1.0"?>
<svg xmlns="http://www.w3.org/2000/svg" height="200pt" preserveAspectRatio="xMidYMid meet" viewBox="0 0 200 200" width="200pt">
  <g transform="matrix(.1 0 0 -.1 0 200)">
    <path d="m1331 1738c-5-13-11-75-15-138-11-185-7-175-84-194-208-52-262-78-246-120 10-27 34-26 156 9 137 39 148 41 148 21 0-107-113-668-161-801-6-16-16-49-22-72-12-51 2-76 42-71 33 4 48 44 113 308 72 295 75 308 97 499 11 96 22 175 23 176 6 6 258 44 331 50l77 6v-28c0-62-32-345-51-453-29-169-103-451-131-503-9-18-10-18-31 1-42 37-116 82-135 82-11 0-23-7-26-17-5-12 18-41 83-105 76-77 93-89 117-86 51 6 87 90 160 372 42 166 69 328 89 531 29 312 35 302-157 286-73-7-175-20-227-30l-93-18 7 144c8 152 3 173-36 173-11 0-23-10-28-22z"/>
    <path d="m445 1683c-26-94-66-204-92-258-37-72-106-176-137-204-30-28-34-71-8-93 40-33 261-168 276-168 9 0 16-2 16-5s-41-83-91-177c-51-94-105-200-120-234-16-35-47-91-69-125-44-69-51-112-20-129 14-8 37-4 93 15 138 46 360 95 473 105 60 5 122 12 136 15 23 6 28 2 56-59 17-37 39-69 48-73 22-8 48 9 52 35 6 38-161 352-201 376-20 13-50-2-55-27-2-8 15-48 38-88 22-39 38-74 36-76-3-3-57-9-121-14-77-6-170-23-272-49-86-22-158-39-159-37-2 1 98 200 222 441s228 454 231 472c6 38-9 64-38 64-14 0-29-20-53-72-18-40-60-123-93-185l-59-111-113 73c-62 41-115 76-118 78-2 3 11 25 29 49 71 93 160 295 189 426 13 61 1 92-36 92-21 0-27-8-40-57z"/>
  </g>
</svg>
