<?xml version="1.0"?>
<svg xmlns="http://www.w3.org/2000/svg" height="200pt" preserveAspectRatio="xMidYMid meet" viewBox="0 0 200 200" width="200pt">
  <g transform="matrix(.1 0 0 -.1 0 200)">
    <path d="m881 1946c-8-10-11-56-9-150l3-135-35-5c-19-3-154-17-299-33-145-15-270-33-279-39-14-10-15-22-3-105 19-145 25-411 12-519-25-198-93-453-157-589-37-78-39-97-11-115 40-26 86 44 145 224 89 270 112 406 112 665 0 105-5 230-11 278-6 49-9 90-7 93 4 4 200 26 443 50 83 8 311 18 510 21 287 4 365 8 383 19 26 17 28 36 5 60-16 16-44 17-369 10l-352-7-7 133c-4 73-12 139-17 146-14 16-43 15-57-2z"/>
    <path d="m1420 1140c-30-5-121-8-201-9-237-2-717-48-746-72-18-15-16-44 2-59 13-11 54-9 223 9 290 31 270 30 276 6 16-63 44-409 52-649l7-189-89 48c-49 26-119 68-156 92-36 25-71 42-77 38-47-28 44-120 222-223 188-109 192-105 182 188-6 184-37 601-51 681l-6 37 103 6c57 3 180 8 273 11s178 10 188 16c20 11 24 49 6 67-13 13-118 14-208 2z"/>
  </g>
</svg>
