<?xml version="1.0"?>
<svg xmlns="http://www.w3.org/2000/svg" height="200pt" preserveAspectRatio="xMidYMid meet" viewBox="0 0 200 200" width="200pt">
  <g transform="matrix(.1 0 0 -.1 0 200)">
    <path d="m942 1884c-21-15-22-21-22-194v-179l-32-5c-18-3-64-8-103-11-38-3-124-15-190-25-66-11-146-20-178-20-74 0-103-24-93-79 44-249 35-332-78-732-58-202-93-298-142-385-24-44-27-54-15-68 20-24 44-19 79 16 50 52 98 173 168 416 96 339 107 400 100 557-3 72-8 141-11 155l-6 25 138 18c307 41 529 61 877 82 143 9 268 20 278 26 22 12 24 52 2 69-12 11-56 11-232 1-119-6-270-17-335-23-65-5-121-7-125-4-3 4-9 84-12 178-5 158-7 172-25 184s-24 11-43-2z"/>
    <path d="m901 1263c-5-10-32-93-61-186-87-281-174-477-288-649-34-52-43-73-38-92 9-38 37-40 197-17 79 11 214 28 299 36 85 9 193 22 240 29 47 8 130 17 185 20 55 4 104 11 109 16 6 6 13 10 18 10 4 0 44-52 89-115s91-117 101-121c21-6 58 20 58 41 0 42-352 495-385 495-19 0-45-28-45-48 0-9 29-53 65-97l65-80-127-11c-71-7-155-16-188-22s-148-21-255-32c-107-12-216-25-242-29l-48-8 29 51c79 141 103 192 154 321 31 77 77 215 103 307 40 140 46 169 35 182-18 21-58 20-70-1z"/>
  </g>
</svg>
