<?xml version="1.0"?>
<svg xmlns="http://www.w3.org/2000/svg" height="200pt" preserveAspectRatio="xMidYMid meet" viewBox="0 0 200 200" width="200pt">
  <g transform="matrix(.1 0 0 -.1 0 200)">
    <path d="m859 1908c-7-14-10-63-7-143l4-122-113-11c-144-16-338-49-365-63-17-9-19-17-14-52 29-202 27-385-9-627-29-197-157-545-241-657-28-37-30-56-9-73s65 2 94 41c79 107 217 481 246 669 20 130 31 504 17 580-6 30-10 56-9 56 1 1 70 11 152 23 189 26 369 38 705 47 149 4 270 11 278 17 6 5 12 20 12 33 0 46-25 48-346 35-163-6-299-9-302-6s-9 59-12 124c-5 122-15 151-51 151-10 0-23-10-30-22z"/>
    <path d="m1095 1403c-16-2-120-22-230-44-209-41-235-52-214-91 6-10 17-22 25-25s101 11 207 31c105 21 205 40 221 43 33 6 35 10-37-93l-49-72-55 29c-65 34-84 36-107 10-14-15-15-24-6-40 6-12 15-21 21-21s60-29 120-65c111-66 147-77 169-50 17 21 3 51-35 75l-35 22 39 46c45 55 121 180 121 200 0 38-20 52-73 51-29-1-65-4-82-6z"/>
    <path d="m1489 986c-2-3-83-12-179-20-215-20-299-31-465-61-139-26-301-69-322-87-18-14-16-43 2-58 13-11 39-7 143 18 128 31 293 64 298 60 1-2 8-30 14-63 13-64 27-575 16-575-4 0-42 18-86 40-89 45-110 49-110 20 0-12 26-40 67-73 128-103 184-127 213-92 18 21 7 570-13 675-8 41-13 77-11 79 4 4 180 23 334 36l85 7-58-61c-32-34-57-67-55-74 8-22 57-19 101 7 23 13 72 53 110 88 68 64 83 98 55 126-11 11-129 18-139 8z"/>
  </g>
</svg>
