<?xml version="1.0"?>
<svg xmlns="http://www.w3.org/2000/svg" height="200pt" preserveAspectRatio="xMidYMid meet" viewBox="0 0 200 200" width="200pt">
  <g transform="matrix(.1 0 0 -.1 0 200)">
    <path d="m932 1878c-8-8-12-55-12-145 0-130-1-133-22-137-13-2-122-9-243-16-227-11-299-20-317-38-13-13-13-35 1-157 27-255-2-688-64-930-16-60-70-179-122-267-22-38-26-51-17-65 33-52 94 1 164 141 66 135 103 312 131 631 11 133 7 441-7 541l-6 42 48 6c57 7 445 22 903 36 213 6 328 14 337 21 20 17 17 57-5 69-14 7-113 7-318 0-164-5-315-10-335-10h-38v119c0 137-9 171-43 171-13 0-28-5-35-12z"/>
    <path d="m1080 1379c-88-81-223-172-327-221l-86-40 6-90c11-164-23-463-67-602-26-82-24-107 10-120 25-10 76 27 143 103 41 46 59 74 55 85-8 20-27 20-66 0l-31-16 6 29c4 15 14 96 23 178 9 83 18 151 19 153 4 5 278 73 280 70 1-2 19-46 40-98 64-162 169-330 294-470 59-67 226-190 257-190 39 0 61 57 80 207 5 44 4 54-10 59-25 10-40-9-65-81-13-36-27-65-31-65s-35 20-67 44c-110 81-258 279-344 461-50 107-67 155-53 155 12 0 254 39 281 45 33 8 40 45 13 67-24 20-18 20-219-13-63-10-116-17-118-15s-16 52-30 110l-27 107 50 42c105 89 129 133 85 157-29 15-30 14-101-51zm-100-251c6-24 17-64 24-90l13-46-123-31c-68-17-126-31-129-31s-5 31-5 68v69l38 11c20 7 64 30 97 51 33 22 63 40 67 40 4 1 12-18 18-41z"/>
    <path d="m930 239c-185-8-481-51-517-75-18-11-23-23-21-42 4-33 13-33 218-2 146 22 417 39 631 40 122 0 145 8 137 47-8 44-75 49-448 32z"/>
  </g>
</svg>
