<?xml version="1.0"?>
<svg xmlns="http://www.w3.org/2000/svg" height="200pt" preserveAspectRatio="xMidYMid meet" viewBox="0 0 200 200" width="200pt">
  <g transform="matrix(.1 0 0 -.1 0 200)">
    <path d="m942 1884c-21-15-22-21-22-194v-179l-32-5c-18-3-64-8-103-11-38-3-124-15-190-25-66-11-146-20-178-20-74 0-103-24-93-79 44-249 35-332-78-732-58-202-93-298-142-385-24-44-27-54-15-68 20-24 44-19 79 16 50 52 98 173 168 416 96 339 107 400 100 557-3 72-8 141-11 155l-6 25 138 18c307 41 529 61 877 82 143 9 268 20 278 26 22 12 24 52 2 69-12 11-56 11-232 1-119-6-270-17-335-23-65-5-121-7-125-4-3 4-9 84-12 178-5 158-7 172-25 184s-24 11-43-2z"/>
    <path d="m959 1297c-8-17-7-57 5-148 8-68 18-180 21-249s8-154 11-190l5-66-146-18c-227-28-244-37-231-120 5-34 78-316 104-406 11-36 56-40 257-24 93 8 215 16 270 19 226 13 238 17 229 88-4 27 4 87 21 167 14 69 29 164 32 213 10 139-4 144-295 110-78-9-145-13-148-10-6 5-25 309-21 314 2 1 78 7 171 14 168 13 196 21 196 54 0 7-8 21-17 31-18 18-18 18-274-2l-85-7-14 104c-7 57-19 114-27 127-18 29-51 28-64-1zm486-754c-3-32-17-109-31-171-13-63-24-126-24-142 0-33-14-40-84-40-29 0-151-9-271-20-156-15-220-17-225-10-11 18-102 351-98 355s223 33 518 69c63 7 139 14 169 15l53 1z"/>
  </g>
</svg>
