<?xml version="1.0"?>
<svg xmlns="http://www.w3.org/2000/svg" height="200pt" preserveAspectRatio="xMidYMid meet" viewBox="0 0 200 200" width="200pt">
  <g transform="matrix(.1 0 0 -.1 0 200)">
    <path d="m880 1891c-6-11-10-92-10-189v-170l-87-7c-243-18-494-59-517-84-13-14-14-31-6-106 28-290 21-481-24-671-34-137-58-197-122-304-57-94-62-120-22-120 44 0 82 35 130 121 71 128 118 302 138 504 9 100-1 416-16 487-6 30-9 29 148 53 142 20 549 47 1077 70 69 3 130 10 137 16 20 17 17 57-5 69-14 7-94 7-258 0-224-9-286-13-425-26l-58-5v179c0 125-4 182-12 190-18 18-56 14-68-7z"/>
    <path d="m1436 1343c-4-10-11-73-16-141s-10-125-12-126-100-12-218-24-225-25-238-28c-31-9-41-53-16-71 10-7 30-11 44-9 14 3 99 12 190 21 91 8 182 17 202 20l37 5 5-52c36-333 71-727 64-734-3-2-21 4-39 15-36 20-193 71-222 71-22 0-22-32 1-53 9-8 46-28 82-43s101-52 145-81c120-80 141-71 131 54-16 185-38 422-58 611-18 174-19 205-7 213 8 5 47 9 87 9 84 0 112 11 112 44 0 42-22 50-122 42l-91-6 7 123c4 68 4 131 0 140-8 23-60 23-68 0z"/>
    <path d="m713 1298c-5-7-17-42-27-78-38-141-137-360-228-502-55-87-60-121-17-126 32-4 91 59 135 143l29 55 7-42c3-24 7-84 7-135 1-51 7-141 15-200s18-148 21-198c9-115 37-153 78-107 15 16 16 33 7 143-5 68-14 151-20 184-5 33-15 164-21 291l-12 231 31 79c60 158 75 237 50 262-16 16-43 15-55 0z"/>
    <path d="m904 755c-5-19 1-36 20-64 38-54 170-171 194-171s45 23 40 44c-2 8-48 60-102 116-106 107-140 124-152 75z"/>
  </g>
</svg>
