<?xml version="1.0"?>
<svg xmlns="http://www.w3.org/2000/svg" height="200pt" preserveAspectRatio="xMidYMid meet" viewBox="0 0 200 200" width="200pt">
  <g transform="matrix(.1 0 0 -.1 0 200)">
    <path d="m908 1909c-16-9-18-28-18-173v-163l-112-7c-111-7-394-33-433-41-11-2-26-4-33-4-25-2-31-46-15-122 9-49 15-146 16-289 2-190-1-229-21-330-51-253-115-487-154-564-24-48-13-86 25-86 50 0 86 79 147 313 90 353 113 556 90 812-19 215-24 189 45 197 56 6 172 14 775 53 372 24 514 37 528 48 19 15 14 55-8 67-14 8-119 3-385-16-202-14-368-25-370-23s-7 75-11 162c-6 137-9 159-25 167-21 12-20 12-41-1z"/>
    <path d="m1227 1396c-10-10-17-47-22-116-7-93-9-100-29-100-25 0-284-27-343-36l-43-6-1 38c0 22-6 62-12 89-10 40-17 51-35 53-44 6-55-15-48-93 4-38 9-77 12-86 4-13-12-19-83-34-107-21-123-29-123-60 0-40 28-47 115-29 42 9 83 13 91 10 10-4 14-23 14-71 0-111 12-118 145-90 39 8 144 18 235 21 91 4 171 11 178 17 8 6 12 40 12 102v93l105 7c57 4 134 4 169 0 75-8 106 4 106 39 0 46-20 51-208 50h-175l6 80c7 86-4 128-35 134-8 2-22-4-31-12zm-27-360v-53l-137-7c-75-4-161-12-191-17-29-6-55-9-57-7-1 2-5 24-7 50l-5 47 41 7c61 10 265 32 314 33l42 1z"/>
    <path d="m1065 709c-396-33-387-30-366-99 13-44 82-111 167-163 29-17 54-34 54-37s-66-42-147-87c-125-69-220-113-316-146-24-9-32-34-16-53 20-24 112-13 190 22 61 27 304 160 360 198 26 17 30 16 161-29 164-55 266-78 473-105 88-11 176-23 195-26 62-8 116 42 78 73-7 6-103 23-213 38-249 33-310 45-456 91l-116 37 108 110c60 60 111 118 114 128 4 10 1 27-5 39-9 18-20 20-88 19-42-1-122-5-177-10zm90-120c-22-22-63-58-92-80l-51-40-44 22c-24 12-70 40-102 63l-59 41 54 7c30 4 110 11 179 16s132 10 140 10c8 1-4-16-25-39z"/>
  </g>
</svg>
