<?xml version="1.0"?>
<svg xmlns="http://www.w3.org/2000/svg" height="200pt" preserveAspectRatio="xMidYMid meet" viewBox="0 0 200 200" width="200pt">
  <g transform="matrix(.1 0 0 -.1 0 200)">
    <path d="m929 1903c-10-11-15-54-17-143l-4-127-81-7c-88-7-388-43-423-51-33-7-36-30-23-156 26-241-19-484-163-889-78-217-114-301-157-365-38-55-20-96 33-75 47 18 107 121 162 280 18 52 53 154 79 225 58 162 110 364 125 490 8 57 11 161 8 255l-5 159 36 5c213 32 824 87 1020 91 95 1 177 7 183 13 5 5 8 22 6 38l-3 29-155 3c-133 3-454-18-527-34-23-4-23-4-23 124 0 131-6 152-41 152-9 0-23-7-30-17z"/>
    <path d="m1395 1419c-4-6-13-37-21-70-21-91-70-210-115-279-45-71-47-94-5-98 38-5 70 26 112 111l35 68 87-47c187-103 207-110 232-79 25 30 0 53-145 130-159 84-152 76-124 153 13 34 11 96-3 110-15 15-45 16-53 1z"/>
    <path d="m688 1378c-9-7-19-33-22-58-9-59-61-176-130-294-61-103-66-136-22-136 31 0 68 39 111 115l35 63 107-54c127-64 168-68 168-19 0 28-6 33-112 85-61 30-114 57-117 61-3 3 6 36 19 75 28 80 32 136 9 158-19 19-25 20-46 4z"/>
    <path d="m1050 1305c-14-17-10-130 11-333 6-57 9-105 7-107-1-1-70-15-153-30-162-29-205-45-205-74 0-38 23-44 107-27 43 9 117 22 166 29l87 14v-193c0-106 3-199 6-208 6-16 9-16-176-41-129-18-351-67-405-89-27-12-35-21-35-41 0-14 7-28 16-32 9-3 78 8 153 26 300 70 582 96 968 89 228-4 277-3 289 9 19 19 18 29-5 52-26 26-205 36-498 28l-223-6v208 208l153 7c83 4 158 12 165 18 17 14 15 43-4 59-16 13-137 15-260 3l-60-6-19 201c-10 110-23 211-29 223-14 28-39 34-56 13z"/>
  </g>
</svg>
