<?xml version="1.0"?>
<svg xmlns="http://www.w3.org/2000/svg" height="200pt" preserveAspectRatio="xMidYMid meet" viewBox="0 0 200 200" width="200pt">
  <g transform="matrix(.1 0 0 -.1 0 200)">
    <path d="m925 1884c-14-14-16-38-13-154l3-139-95-6c-321-21-468-39-495-59-14-10-14-25 0-146 8-74 15-180 15-235 0-215-76-577-150-711-44-80-47-96-26-113 34-29 107 45 146 147 32 84 80 289 101 427 22 149 24 315 6 462l-13 101 41 6c110 16 300 27 945 57 293 13 270 10 286 34 12 18 11 24-3 44-16 24-17 24-167 17-83-3-228-9-322-12l-171-7-6 39c-4 21-7 83-7 136 0 74-4 100-16 112-20 20-38 20-59 0z"/>
    <path d="m1007 1472c-11-12-17-36-17-70 0-29-3-52-6-52-30 0-269-43-288-52-32-14-43-45-23-65 14-14 30-13 156 6 77 11 147 21 156 21 12 0 15-12 15-53v-54l-82-11c-46-7-97-12-114-12-57 0-59-12-35-196 21-168 36-215 70-234 11-5 56-10 99-10h80l4-60 3-59-35-6c-64-9-424-45-461-45-44 0-79-32-63-57 23-37 37-38 291-14 136 13 253 25 259 28 7 3 13-56 18-188 4-114 11-198 18-206 16-20 56-16 68 8 7 13 10 84 8 207l-3 187 125 12c69 6 197 12 285 12 128 1 165 4 183 17 29 20 28 50-3 70-22 15-46 15-262 3-131-7-260-13-288-13l-50-1-3 51-3 51 53 6c29 4 81 7 116 7 108 0 102-13 102 239 0 198-2 219-18 234-23 21-77 21-188 3l-82-13-5 56c-3 30-5 56-4 58 1 1 61 7 132 13s135 16 142 22c18 14 16 53-2 68-12 10-40 10-134 1-66-6-123-11-129-11-5 0-12 22-16 50-5 34-13 53-26 60-24 13-24 13-43-8zm283-417v-45h-100-100v34 34l68 9c37 6 82 11 100 12 32 1 32 0 32-44zm-290-25c0-28-3-30-37-30-21 0-55-3-75-6-37-6-38-6-38 24 0 33 9 37 108 40 40 2 42 1 42-28zm290-169v-68l-86-7c-47-4-88-5-90-3-3 2-7 34-11 70l-6 66 49 4c27 2 70 4 97 5l47 2zm-280 27c0-18 3-50 6-70l7-38h-71-71l-6 48c-4 26-7 54-8 62-2 11 12 17 48 21 98 12 95 12 95-23z"/>
  </g>
</svg>
