<?xml version="1.0"?>
<svg xmlns="http://www.w3.org/2000/svg" height="200pt" preserveAspectRatio="xMidYMid meet" viewBox="0 0 200 200" width="200pt">
  <g transform="matrix(.1 0 0 -.1 0 200)">
    <path d="m960 1909c-7-12-10-77-9-172l2-152-119-7c-511-30-526-32-558-67-15-16-15-33-5-182 22-340-10-676-92-954-54-182-55-191-33-203 24-12 59 1 74 28 25 47 101 341 120 468 26 167 37 484 22 662-6 69-9 126-8 128 2 1 97 7 212 13 180 9 519 33 1004 70 69 5 133 12 143 15 22 7 39 38 31 58-12 32-35 32-529-8-88-7-163-10-167-7s-10 74-14 156c-4 83-11 156-17 163-15 19-45 14-57-9z"/>
    <path d="m1334 1322c-22-20-88-79-147-130-104-91-120-115-95-140 20-20 42-14 101 27l55 39 6-46c3-26 8-81 12-122l6-75-127-23c-146-26-165-33-165-67 0-43 28-48 146-25 157 30 150 32 158-42 4-35 10-73 12-84 5-19 0-22-48-28-107-14-140-35-118-77 12-22 51-24 149-9 35 6 124 15 197 19 141 9 164 17 164 57 0 38-30 46-144 38l-104-7-6 29c-3 16-8 54-12 85l-6 56 64 7c34 3 100 9 146 12 95 8 129 26 118 62-11 32-41 35-192 22-75-6-137-10-139-8s-10 72-16 156l-13 152 47 44c48 44 60 79 35 104-20 20-41 13-84-26z"/>
    <path d="m720 1230c-66-60-130-90-188-90-53 0-76-16-70-47 8-44 104-56 177-23 24 11 45 19 47 18 1-2-2-25-8-51-19-90 16-163 87-187 19-6 35-15 35-19 0-13-47-145-66-183-10-21-23-38-29-38-11 0-106 96-147 148-22 27-54 28-68 2-19-35 40-124 131-198l49-40-58-79c-32-43-77-95-100-114-61-52-54-79 21-79 24 0 42 11 83 54 29 30 69 79 90 110 20 31 40 55 43 54 3-2 56-27 116-57 224-109 329-150 535-207 207-57 335-55 335 6 0 23-5 25-120 42-206 31-407 97-697 232-43 19-89 43-103 52l-24 16 25 50c30 60 94 252 94 284 0 36-26 54-80 54-81 0-84 35-22 213 20 59 24 81 16 95-20 31-56 25-104-18z"/>
  </g>
</svg>
