<?xml version="1.0"?>
<svg xmlns="http://www.w3.org/2000/svg" height="200pt" preserveAspectRatio="xMidYMid meet" viewBox="0 0 200 200" width="200pt">
  <g transform="matrix(.1 0 0 -.1 0 200)">
    <path d="m912 1888c-8-8-12-59-12-164v-152l-77-7c-43-3-152-13-243-21-276-25-276-25-255-183 36-268 26-485-30-707-22-87-130-331-174-393-25-34-26-54-6-71 18-15 49-5 76 23 30 32 142 259 173 352 65 194 87 484 57 748-7 65-11 120-9 123 15 15 366 37 750 47 385 11 439 14 454 29 23 23 11 64-20 72-14 3-137 2-273-4-136-5-267-10-290-10h-43v139c0 157-8 191-43 191-13 0-28-5-35-12z"/>
    <path d="m942 1428c-7-7-12-33-12-59v-47l-47-7c-93-13-212-47-228-65-20-22-12-56 15-65 10-3 43 1 72 10 30 8 87 21 126 29l73 14-3-35-3-35-140-29c-171-35-268-64-285-84-16-19 1-65 24-65 8 0 56 11 108 25 75 19 287 65 304 65 2 0 4-18 4-40 0-37-2-39-37-45-194-32-225-46-205-90 14-30 27-31 135-10 43 8 84 15 91 15 12 0 18-60 62-617 3-40 3-73 0-73-4 0-18 7-31 16-50 32-72-5-36-60 23-34 98-96 117-96 7 0 20 8 30 17 15 15 16 34 11 164-3 80-16 260-28 398-14 154-19 255-13 261 5 5 68 12 139 16 72 4 136 11 143 17 17 13 15 56-3 63-11 4-15 21-15 59 0 65-1 65 172 65 102 0 130 3 142 16 21 20 20 30-5 55-20 20-29 21-160 17l-139-3v47c0 76-10 81-169 77l-135-4-6 35c-4 20-10 41-14 48-9 15-39 15-54 0zm288-193c0-17-6-25-17-25-10 0-55-6-100-14l-83-13v33c0 31 3 33 38 37 20 2 65 4 100 5 60 2 62 1 62-23zm-10-160c0-28-5-47-12-49-7-3-48-7-90-9l-78-5v43 43l68 9c117 18 112 19 112-32z"/>
    <path d="m1377 843c-12-15-38-45-58-67-84-96-105-138-76-149 26-10 73 21 139 92 71 74 89 111 68 136-19 23-48 18-73-12z"/>
    <path d="m632 708c-21-21-13-39 50-104 60-63 93-78 104-49 11 27-5 62-52 114-46 52-78 63-102 39z"/>
    <path d="m1089 579c-9-18-6-28 18-63 61-87 312-269 477-346 113-54 229-79 274-61 33 14 44 31 33 50-5 7-52 23-105 37-53 13-134 41-179 62-138 66-383 241-435 311-27 37-66 42-83 10z"/>
    <path d="m655 373c-173-117-190-131-190-157 0-63 21-56 206 67 192 127 222 153 217 189-6 45-39 31-233-99z"/>
  </g>
</svg>
