<?xml version="1.0"?>
<svg xmlns="http://www.w3.org/2000/svg" height="200pt" preserveAspectRatio="xMidYMid meet" viewBox="0 0 200 200" width="200pt">
  <g transform="matrix(.1 0 0 -.1 0 200)">
    <path d="m1220 1817c-89-87-175-147-276-193-75-34-90-54-62-82 27-27 114-1 221 67 34 22 64 38 66 35 2-2 7-197 10-434l6-430-42-5c-24-3-63-7-87-10l-44-6-7 88c-13 168-24 255-36 269-17 20-57 17-64-4-3-11-1-70 5-133 5-63 10-142 10-176 0-54-3-63-18-63-39 0-122-31-132-50-8-15-6-24 9-39 16-16 26-18 50-11 150 43 734 94 936 82 66-4 130-6 143-4 29 6 41 48 18 70-14 14-46 16-234 17-119 0-263-4-319-8l-103-9v211c0 115 4 212 8 215 5 3 64 8 131 12 135 8 170 21 157 61-10 30-37 34-170 22-65-5-120-9-121-7-2 2-10 95-18 208l-14 205 53 57c57 59 60 68 44 99-18 33-43 22-120-54z"/>
    <path d="m405 1363c-11-2-57-15-102-29-73-22-83-27-83-48 0-48 22-52 135-23 56 15 113 27 125 27 22 0 22-3 17-55-6-56-45-139-101-214-51-69-29-105 58-95l56 7v-40c0-38-34-191-45-201-3-3-42 11-88 30-121 53-163 64-182 48-18-15-20-44-2-58 7-6 37-20 67-32 30-11 81-33 113-48l58-27-74-126c-71-122-125-197-206-289-42-47-51-77-26-86 63-25 202 131 330 368 26 49 50 90 53 92 4 2 81-27 172-66 293-124 457-173 756-223 266-46 412-43 422 9 6 31-14 39-107 42-94 3-396 49-546 84-131 30-256 73-465 158-102 41-187 77-189 78-2 2 7 40 19 86 26 98 31 203 11 241-8 15-28 32-45 38l-31 11 38 77c32 64 38 87 40 148 2 63-1 74-22 97-21 22-32 26-80 25-31-1-65-3-76-6z"/>
  </g>
</svg>
