<?xml version="1.0"?>
<svg xmlns="http://www.w3.org/2000/svg" height="200pt" preserveAspectRatio="xMidYMid meet" viewBox="0 0 200 200" width="200pt">
  <g transform="matrix(.1 0 0 -.1 0 200)">
    <path d="m1220 1943c-21-15-22-21-18-127l3-111-25-3c-54-7-234-53-247-63-7-7-13-22-13-35 0-40 27-45 125-20 50 13 107 26 128 29l37 6v-39-39l-57-11c-32-6-130-29-217-50-168-41-204-59-192-98 10-31 33-34 110-12 74 20 332 80 347 80 5 0 9-19 9-43v-44l-113-17c-154-23-184-32-193-58-8-26 29-61 55-54 25 8 203 36 229 36 20 0 22-4 22-63v-62l-78-18c-82-18-102-30-102-58 0-37 26-44 106-27l74 15v-97-97l-112-22c-157-31-265-61-278-76-7-8-10-24-8-37 3-20 9-23 43-23 22 1 92 13 155 28 63 14 133 29 156 33l41 6 6-47c4-26 7-118 7-205 0-139 2-159 18-173 23-21 36-21 56-1 14 13 16 48 16 229v213l63 6c34 3 145 11 247 17 155 9 188 13 204 29 20 20 15 54-10 64-8 3-117-1-242-9-124-8-236-15-249-15-22 0-23 3-23 94v93l31 7c17 3 48 6 68 6 42 0 61 14 61 47 0 34-32 46-101 38l-59-7v60c0 72-1 72 153 72 141 0 147 5 142 124l-4 86h124c135 0 151 3 166 32 8 15 7 24-7 39-15 17-32 19-146 19h-128v65c0 56-3 66-22 76-21 11-132 8-245-8l-43-6v97c0 127-20 164-70 129zm290-305c-1-46-11-55-70-61-32-4-77-9-99-13l-41-7v36c0 39 4 41 100 50 81 8 110 7 110-5zm-8-203 3-55h-50c-27 0-74-3-102-6l-53-7v51 51l48 6c26 4 52 8 57 10 6 2 29 4 52 4l41 1z"/>
    <path d="m355 1495c-149-39-209-70-203-108s30-42 100-13c36 14 97 33 134 41 38 8 79 18 92 20 20 5 22 2 22-35 0-52-36-146-94-243-58-99-63-118-37-141 20-18 22-18 89 3 45 15 86 21 122 19l55-3 3-43c4-57-19-135-79-261-27-58-51-107-54-109-8-8-143 100-175 140-33 40-59 48-80 23-28-34 26-111 135-191 36-26 65-53 65-59 0-7-31-60-70-118-76-115-171-224-207-238-30-11-29-34 1-64 16-16 31-22 45-18 44 11 204 205 285 345l27 47 55-35c161-103 647-291 874-338 41-8 95-22 120-31s74-19 110-22c72-6 94 6 88 49-3 24-15 29-103 46-224 43-598 163-821 263-130 58-274 134-274 145 0 2 18 40 40 84 75 149 102 229 107 315 4 68 1 85-16 112-25 39-81 57-162 51l-57-4 28 50c49 87 72 173 68 247-2 37-10 74-17 83-19 23-107 20-216-9z"/>
  </g>
</svg>
