<?xml version="1.0"?>
<svg xmlns="http://www.w3.org/2000/svg" height="200pt" preserveAspectRatio="xMidYMid meet" viewBox="0 0 200 200" width="200pt">
  <g transform="matrix(.1 0 0 -.1 0 200)">
    <path d="m797 1867c-9-6-21-34-27-62-16-71-75-191-164-333-85-136-94-174-45-180 14-2 95 15 180 37 137 35 421 95 489 103 20 2 36-11 85-72 51-63 65-75 90-75s31 4 33 28c3 22-18 56-104 170-137 182-191 239-223 235-38-5-49-32-26-62 11-13 39-48 63-76 23-29 41-55 39-57-3-2-71-17-153-34-82-16-193-41-248-55-54-14-100-23-103-20-2 2 20 45 51 96 103 171 146 325 100 356-16 11-23 12-37 1z"/>
    <path d="m1140 1295c-10-12-8-40 8-142 11-71 24-151 27-178l6-50-138-18c-76-9-156-20-177-24-27-4-37-3-32 5 10 16-12 230-30 292s-38 90-65 90c-33 0-38-30-18-110 12-47 20-116 22-184l2-110-134-23c-217-36-392-75-413-93-24-19-18-57 10-62 9-2 91 11 182 28 91 18 206 39 257 47l92 14-6-31c-17-98-46-203-73-262-46-101-132-224-205-292-36-34-65-68-65-77 0-26 44-40 80-25 38 16 131 116 186 200 89 139 132 247 159 404 8 49 17 92 20 94 4 4 348 51 352 48s46-374 59-521c18-217 21-233 50-252 23-14 26-14 45 3 17 15 20 26 15 55-3 21-11 95-16 166-6 70-22 224-37 341-14 117-24 214-22 217 6 5 301 33 472 44 84 6 155 15 163 22 23 19 17 58-9 68-23 9-269-6-504-30-62-6-120-9-128-5-9 3-15 18-15 38-1 48-46 281-59 307-14 24-43 28-61 6z"/>
  </g>
</svg>
