<?xml version="1.0"?>
<svg xmlns="http://www.w3.org/2000/svg" height="200pt" preserveAspectRatio="xMidYMid meet" viewBox="0 0 200 200" width="200pt">
  <g transform="matrix(.1 0 0 -.1 0 200)">
    <path d="m1205 1810c-15-16-18-46-24-187l-6-168-170-17c-351-36-679-88-703-112-17-16-8-51 14-60 9-3 125 9 257 28 233 34 517 66 575 66h28l12-130c24-247 79-468 159-630 53-108 63-122 170-228 111-110 136-125 170-104 12 8 94 204 107 255 4 16 0 29-9 37-20 16-59-26-105-111-18-35-35-66-37-68-2-3-33 24-69 60-117 115-187 253-238 467-34 142-53 257-61 368l-7 91 48 8c27 4 122 10 211 14 109 5 167 11 177 20 21 18 20 58-2 70-18 10-326-1-396-14l-38-8 3 175c2 95 0 179-5 186-11 18-41 15-61-8z"/>
    <path d="m1512 1778c-26-26-14-47 101-181 83-98 108-117 131-98 33 28 19 63-65 156-44 50-88 100-96 113-17 24-52 29-71 10z"/>
    <path d="m820 945c-82-14-256-59-295-77-35-16-43-48-17-68 20-16 26-16 105 5l85 23 6-77c4-42 9-105 12-141l5-65-158-30c-87-16-189-36-227-45-75-17-99-37-80-68 17-26 77-21 357 32 137 25 319 53 405 62s167 18 179 20c28 5 41 47 22 70-12 14-29 16-119 10-58-3-145-13-195-20-49-8-91-13-93-11-1 1-7 51-12 111-6 60-13 123-16 140-5 29-3 32 27 38 18 3 64 9 103 12 39 4 79 11 89 16 20 10 23 48 5 66-15 15-90 14-188-3z"/>
  </g>
</svg>
