<?xml version="1.0"?>
<svg xmlns="http://www.w3.org/2000/svg" height="200pt" preserveAspectRatio="xMidYMid meet" viewBox="0 0 200 200" width="200pt">
  <g transform="matrix(.1 0 0 -.1 0 200)">
    <path d="m1185 1889c-210-14-482-53-612-88-45-12-64-41-43-66 16-20 55-19 175 4 143 28 331 50 491 59 77 5 141 7 143 5 4-3-69-214-78-225-6-7-119-28-396-72-153-25-417-86-443-102-16-11-22-24-22-52 0-21-11-94-24-163-38-199-38-204-17-230l19-23 108 21c113 23 317 55 464 73 47 6 180 13 296 17l211 6 6-39c19-111-4-323-50-474-28-93-150-340-167-340-6 0-60 21-121 46-221 92-206 87-224 70-13-14-12-19 14-47 34-34 214-128 299-155 42-13 61-15 79-7 31 14 177 300 211 413 69 229 76 551 13 607-38 35-441 16-798-37-107-16-215-33-238-39-41-9-43-8-38 12 3 12 15 79 28 149l22 127 91 21c111 25 310 61 511 91 83 12 171 31 196 42l47 20 51 142c66 183 71 207 40 229-26 17-50 18-244 5z"/>
  </g>
</svg>
