<?xml version="1.0"?>
<svg xmlns="http://www.w3.org/2000/svg" height="200pt" preserveAspectRatio="xMidYMid meet" viewBox="0 0 200 200" width="200pt">
  <g transform="matrix(.1 0 0 -.1 0 200)">
    <path d="m1325 1746c-18-13-18-23-6-252 7-132 19-322 27-424s18-291 24-420c14-334 21-433 32-447 14-17 53-16 67 1 14 16 0 451-24 761-8 105-21 303-30 440-18 305-22 333-46 345-22 13-22 13-44-4z"/>
    <path d="m476 1694c-116-21-238-53-263-70-28-18-30-59-5-73 13-7 34-5 68 5 93 28 223 54 306 60l83 7-7-119c-4-66-10-138-13-161-6-40-8-43-43-48-236-35-411-86-429-125-11-24-31-215-35-328-2-83 1-84 172-54 64 12 169 24 234 28l119 7-6-129c-8-183-48-326-113-403l-26-31-28 20c-51 37-239 123-255 117-23-10-18-41 12-69 16-14 64-46 108-73 44-26 93-58 108-71 47-40 77-32 140 36 35 37 63 80 76 114 49 131 81 311 81 454 0 65-3 76-26 99l-26 26-147-7c-80-3-186-13-236-20-49-8-91-13-93-12-3 3 19 249 22 253 11 12 260 65 348 74 115 12 148 25 148 59 0 9-4 20-9 26-4 5-5 45-1 89 5 44 11 128 15 187 6 99 5 108-14 127-18 18-33 21-103 20-46 0-119-7-162-15z"/>
  </g>
</svg>
