<?xml version="1.0"?>
<svg xmlns="http://www.w3.org/2000/svg" height="200pt" preserveAspectRatio="xMidYMid meet" viewBox="0 0 200 200" width="200pt">
  <g transform="matrix(.1 0 0 -.1 0 200)">
    <path d="m1231 1823c-71-88-84-119-56-129 31-12 169 105 182 155 7 30-7 55-34 59-16 2-39-19-92-85z"/>
    <path d="m580 1865c-20-25-4-59 58-118 59-55 97-75 127-63 30 11 14 42-61 119-77 77-101 90-124 62z"/>
    <path d="m1380 1633c-311-16-779-83-837-119-27-17-30-46-7-65 13-10 40-8 157 14 78 15 163 30 188 33l46 6 6-133c3-74 3-136 1-138s-121-23-263-47c-143-23-265-45-271-49-5-3-10-27-10-53 1-69 35-269 50-287 18-21 47-19 236 19 221 44 234 46 234 40 0-11-76-123-135-199-115-147-223-236-414-340-82-44-105-69-81-86 25-17 98-3 163 31 186 97 305 200 436 379l76 104 3-76c2-41 6-164 10-272 7-184 8-199 27-211 18-12 24-11 44 2l23 17-7 338c-4 187-6 339-4 339s65 9 139 20c148 21 476 47 485 38 3-3-12-73-33-154-22-82-42-161-46-176l-6-27-34 20c-74 43-89-12-23-84 51-55 96-64 121-24 8 12 40 126 72 253 56 225 57 233 41 258-17 25-21 26-110 26-117 0-315-16-477-39l-125-17-6 25c-11 43-10 161 1 161 5 0 49 7 97 15 49 8 160 22 248 31 88 8 166 20 173 26 15 13 16 54 1 64-12 7-7 193 7 261 5 26 1 36-19 57-27 27-26 27-177 19zm94-205c-4-68-7-124-8-125s-69-9-151-18c-83-8-180-22-217-29l-68-13v138 137l83 7c133 13 258 22 315 23l53 2zm-524-378c0-85-1-90-22-94-246-51-411-77-418-66-9 15-35 169-29 175 4 3 422 73 452 74 15 1 17-10 17-89z"/>
  </g>
</svg>
