<?xml version="1.0"?>
<svg xmlns="http://www.w3.org/2000/svg" height="200pt" preserveAspectRatio="xMidYMid meet" viewBox="0 0 200 200" width="200pt">
  <g transform="matrix(.1 0 0 -.1 0 200)">
    <path d="m1445 1860c-170-26-307-59-329-80-21-21-15-56 13-65 10-3 55 3 101 14 92 22 397 67 404 60 3-3-1-32-8-64-8-33-19-92-26-131l-11-71-67-12c-37-7-137-26-222-41-227-42-292-57-301-72-14-22-11-402 3-416s50-16 64-3c22 23 263 60 500 76l91 7 11-29c30-76 36-125 36-278-1-195-18-271-96-423-29-57-56-106-60-108-4-3-20 1-35 9-35 18-53 12-53-17 0-57 80-128 119-106 26 13 146 233 171 312 67 212 66 510-2 655-27 58-51 73-118 73-130 0-446-39-532-66-17-5-18 5-18 124v130l118 21c64 12 188 34 275 50 122 22 164 33 180 49 14 15 26 50 37 114 10 51 25 130 35 176 16 76 16 84 1 107s-22 25-89 24c-39 0-126-9-192-19z"/>
    <path d="m620 1800c-185-31-366-84-384-113-14-22 2-51 31-55 11-2 66 10 124 26 111 32 306 69 314 60 3-2-3-54-13-113l-19-109-84-18c-166-36-312-81-331-102-10-12-27-29-36-39-15-16-17-47-20-221-3-176-1-204 13-216 13-11 34-7 133 23 114 35 286 72 367 79l40 3 9-110c15-193-16-377-96-582-35-92-41-102-58-93-28 15-67 12-74-6-7-19 4-42 36-70 61-56 99-52 132 15 33 65 92 225 111 296 60 230 59 587-2 633-13 10-35 12-83 8-103-10-288-46-367-71l-73-23v153 152l88 26c121 36 270 69 314 69 51-1 66 21 79 114 6 43 17 110 25 147 19 90 18 121-4 140-22 20-37 20-172-3z"/>
    <path d="m1166 819c-13-19-13-25-1-48 26-47 161-181 182-181 56 0 25 85-68 183-35 37-72 67-81 67s-24-10-32-21z"/>
    <path d="m302 743c-15-28-2-47 86-128 81-76 105-86 118-50 11 27-16 72-81 134-66 64-106 78-123 44z"/>
    <path d="m1490 583c-33-12-328-188-377-225-29-21-53-47-53-56 0-23 19-42 41-42 23 0 343 205 392 251 48 46 46 90-3 72z"/>
    <path d="m441 442c-89-61-260-203-266-223-10-31 26-66 54-53s281 265 281 280c0 24-29 22-69-4z"/>
  </g>
</svg>
