<?xml version="1.0"?>
<svg xmlns="http://www.w3.org/2000/svg" height="200pt" preserveAspectRatio="xMidYMid meet" viewBox="0 0 200 200" width="200pt">
  <g transform="matrix(.1 0 0 -.1 0 200)">
    <path d="m1435 1829c-239-13-342-25-368-42l-25-16 6-361 5-360h-24c-13 0-73-11-134-25-117-27-152-47-141-83 9-27 30-31 87-16l47 12 7-192c4-105 8-272 9-371l1-180h35c33 0 40 7 138 138 65 85 102 143 98 152-12 32-50 15-116-52l-67-68-8 245c-4 135-8 267-9 295-1 48-1 49 34 56 120 26 567 69 718 69 70 0 85 3 103 21s19 23 6 42c-14 21-21 22-158 20-129-2-422-25-506-40l-33-5v80 80l33 6c58 10 211 26 258 26 58 0 84 18 75 53-4 17-15 27-33 31-26 6-166-4-285-20l-48-7v70 70l47 7c25 3 105 9 177 12 153 8 176 14 176 48 0 44-20 50-148 43-64-4-147-10-183-13-63-6-66-6-72 17-4 13-7 51-7 85v61l148 11c81 6 194 14 252 17 57 4 110 11 117 17 23 19 16 58-13 68-14 6-33 9-42 8-9 0-80-5-157-9z"/>
    <path d="m595 1713c-150-15-379-53-392-66-18-17-10-52 13-61 9-3 99 5 200 19 228 31 257 32 250 7-4-11-15-65-26-122s-21-105-23-106c-4-4-451-64-475-64-30 0-40-60-31-200 4-74 8-192 8-263 1-162-5-158 175-122 71 14 167 29 213 32l83 6v-49c0-27-5-69-11-93-5-25-18-101-29-171-10-69-28-147-39-173l-20-46-56 24c-97 43-150 73-198 109-57 44-87 47-87 10 0-44 83-112 226-187 87-46 136-66 150-63 37 10 96 167 114 301 5 44 16 114 24 155s17 112 20 157c6 75 5 84-15 104-17 17-28 20-56 14-19-3-82-10-141-15s-142-16-185-25-80-15-82-13c-1 1-5 99-7 215l-5 213 31 5c17 3 123 16 235 29 237 28 244 32 256 121 3 30 17 103 31 162 28 127 28 127 8 147-15 16-61 18-159 9z"/>
    <path d="m1665 954c-26-40-217-255-259-292l-38-33-30 28c-16 15-82 88-145 161-64 72-122 132-129 132-17 0-44-28-44-45 0-39 230-299 378-427 134-115 220-174 360-245 103-53 156-65 180-41 29 29 13 48-80 92-118 57-247 138-342 216-42 33-78 64-80 69-3 5 13 21 35 36 42 30 211 218 256 286 33 50 26 89-16 89-20 0-34-8-46-26z"/>
  </g>
</svg>
