<?xml version="1.0"?>
<svg xmlns="http://www.w3.org/2000/svg" height="200pt" preserveAspectRatio="xMidYMid meet" viewBox="0 0 200 200" width="200pt">
  <g transform="matrix(.1 0 0 -.1 0 200)">
    <path d="m1232 1908c-5-7-22-38-37-68s-68-122-117-204c-149-248-162-278-139-315 11-18 46-12 193 29 65 19 121 30 125 26s12-54 18-112l11-104-30-5c-17-2-71-12-120-20-48-9-101-13-118-10-37 9-58-9-58-49 0-17 14-110 30-206 32-190 39-205 95-197 17 2 74 12 128 22s99 16 101 14 6-77 10-166l6-162-57-6c-266-30-336-50-341-97-4-37 22-43 111-24 39 9 142 23 227 31 85 9 224 25 309 36 84 11 159 18 166 16 6-3 22-40 35-84 12-43 27-84 33-90 17-23 56-15 69 13 10 22 4 48-46 199-32 95-63 178-69 184-17 17-55 13-66-8-8-14-6-33 4-67 8-26 13-49 12-50-3-4-291-44-293-41-1 1-4 74-6 162l-3 160 120 6c66 4 134 7 152 8 58 2 63 16 62 174-1 185-10 256-34 273-15 12-44 13-140 7-66-4-138-8-160-8h-39l-13 95c-6 52-12 103-12 112-1 19 32 31 137 47 35 6 70 15 77 21 11 9 25-5 67-69 59-89 84-108 117-85 11 8 21 22 21 31 0 23-223 335-254 355-22 15-47 7-58-17-10-22-7-31 25-77 20-29 35-54 33-55-2-2-79-19-172-38s-191-42-219-50c-27-8-51-12-53-10-3 2 32 66 77 142s100 175 123 219c34 69 38 85 29 103-13 23-53 28-69 9zm421-890c4-46 7-108 7-139v-56l-46-7c-26-3-82-6-125-6h-77l-6 38c-3 20-8 80-11 134l-7 96 74 6c40 4 93 8 118 9 25 2 50 4 56 5 7 1 13-29 17-80zm-349-25c3-42 6-102 6-134v-58l-37-6c-21-3-68-11-105-18l-66-13-18 95c-9 53-18 114-18 136l-1 40 95 17c148 25 136 30 144-59z"/>
    <path d="m476 1694c-116-21-238-53-263-70-28-18-30-59-5-73 13-7 34-5 68 5 93 28 223 54 306 60l83 7-7-119c-4-66-10-138-13-161-6-40-8-43-43-48-236-35-411-86-429-125-11-24-31-215-35-328-2-83 1-84 172-54 64 12 169 24 234 28l119 7-6-129c-8-183-48-326-113-403l-26-31-28 20c-51 37-239 123-255 117-23-10-18-41 12-69 16-14 64-46 108-73 44-26 93-58 108-71 47-40 77-32 140 36 35 37 63 80 76 114 49 131 81 311 81 454 0 65-3 76-26 99l-26 26-147-7c-80-3-186-13-236-20-49-8-91-13-93-12-3 3 19 249 22 253 11 12 260 65 348 74 115 12 148 25 148 59 0 9-4 20-9 26-4 5-5 45-1 89 5 44 11 128 15 187 6 99 5 108-14 127-18 18-33 21-103 20-46 0-119-7-162-15z"/>
  </g>
</svg>
