<?xml version="1.0"?>
<svg xmlns="http://www.w3.org/2000/svg" height="200pt" preserveAspectRatio="xMidYMid meet" viewBox="0 0 200 200" width="200pt">
  <g transform="matrix(.1 0 0 -.1 0 200)">
    <path d="m869 1923c-11-13-15-92-19-382l-5-366-169-16c-140-14-172-20-183-35-17-24-17-28 7-49 19-17 29-18 153-7 378 34 482 41 592 43l120 3 5-167c3-108 1-167-5-167-44 0-473-32-542-40-48-5-118-10-155-10-67 0-98-14-98-45 0-46 63-54 248-35 128 14 555 40 560 35 8-7 21-370 14-377-4-3-205-10-447-14-242-3-448-11-457-16-26-13-23-55 4-69 17-9 134-10 482-5 384 6 463 9 477 22 38 34 40 77 24 451-8 197-16 391-18 431-4 105-5 106-187 98-80-3-187-9-237-12l-93-7v360c0 336-1 361-18 376-23 21-36 21-53 0z"/>
    <path d="m1325 1702c-6-4-29-32-51-62-23-30-75-92-117-136-79-84-88-102-61-125 13-11 21-10 51 6 65 35 243 241 243 281 0 16-28 44-43 44-7 0-17-4-22-8z"/>
    <path d="m448 1619c-22-13-23-47-2-77 9-13 57-59 107-103 96-83 137-100 137-56 0 24-54 117-68 117-4 0-39 29-76 65s-71 65-74 65c-4 0-15-5-24-11z"/>
  </g>
</svg>
