<?xml version="1.0"?>
<svg xmlns="http://www.w3.org/2000/svg" height="200pt" preserveAspectRatio="xMidYMid meet" viewBox="0 0 200 200" width="200pt">
  <g transform="matrix(.1 0 0 -.1 0 200)">
    <path d="m1548 1668c-8-7-26-33-41-58-41-71-163-206-287-317-117-104-138-135-105-159 21-16 39-10 95 35 131 103 336 325 380 412 24 46 25 63 4 83-19 19-26 20-46 4z"/>
    <path d="m805 1620c-164-12-601-82-618-99-14-14 0-58 20-65 9-4 52-1 95 5s81 9 83 7c16-16 45-257 43-348l-3-104-52-11c-80-18-102-45-66-80 16-16 48-16 107 2 18 5 18 0 12-88-11-152-33-253-98-446-50-151-59-185-48-198 17-20 46-19 69 4 20 20 121 318 141 416 7 33 18 121 24 195l11 135 75 12c41 6 86 12 100 12l25 1 1-389c0-408 2-421 44-421 44 0 45 12 45 424v391l60 8c108 14 127 21 136 45 6 17 4 27-11 42-11 11-25 18-32 16-7-3-42-7-78-10l-65-6-1 229v229l63 5c70 5 93 18 93 51 0 30-19 46-49 45-15-1-71-5-126-9zm-65-292c0-106-3-209-6-229l-6-36-91-13c-51-7-97-14-103-17-7-3-13 37-17 129-4 73-16 176-27 227-10 52-18 96-16 98 5 5 187 31 229 32l37 1z"/>
    <path d="m1602 1187c-36-64-122-153-294-306-71-62-128-118-128-125 0-19 22-36 46-36 34 0 135 82 285 230 102 101 143 149 163 192 22 46 25 60 16 77-20 39-55 27-88-32z"/>
    <path d="m1690 818c-5-7-43-60-84-118s-96-129-122-157c-88-95-288-262-357-299-38-20-71-42-74-50-8-22 16-44 51-44 99 1 409 265 557 475 82 116 103 159 89 184-12 23-44 28-60 9z"/>
  </g>
</svg>
