<?xml version="1.0"?>
<svg xmlns="http://www.w3.org/2000/svg" height="200pt" preserveAspectRatio="xMidYMid meet" viewBox="0 0 200 200" width="200pt">
  <g transform="matrix(.1 0 0 -.1 0 200)">
    <path d="m1140 1800c-36-4-97-8-137-9-96-1-106-12-96-95 4-33 8-117 8-186-1-114-4-133-34-220-18-52-39-102-47-111-46-50 27-96 74-46 29 31 66 124 87 221 14 60 16 109 13 211l-4 132 136 12c75 6 173 11 219 11 82 0 83 0 77-22-4-13-12-76-17-141-18-192 15-345 87-412 24-23 35-25 115-25 107 0 109 3 109 119 0 99-11 134-43 129-22-3-25-10-42-120-6-36-8-38-45-38-36 0-40 3-62 48-20 41-23 64-26 193-3 115 0 160 13 210 42 155 47 149-159 147-88 0-190-4-226-8z"/>
    <path d="m523 1778c-5-7-18-35-28-63-39-108-148-258-304-418-105-107-124-131-115-145 30-47 82-21 207 105 198 200 346 459 297 518-15 18-44 20-57 3z"/>
    <path d="m608 1378c-20-57-98-201-141-258-68-92-164-185-278-271-60-46-109-90-109-99 0-23 20-40 46-40s133 70 217 142l57 49 2-148c1-81 2-243 2-360 1-184 3-215 18-229 28-28 66-11 74 33 4 20 4 209 0 419l-7 381 51 67c70 93 152 264 148 308-3 29-7 33-36 36s-34 0-44-30z"/>
    <path d="m1440 950c-74-4-217-11-318-15-133-6-185-12-193-22-17-19-5-85 26-148 48-100 105-173 185-241 44-37 80-71 80-76 0-11-114-95-163-119-45-24-179-59-224-59-36 0-47-11-38-39 14-46 129-51 242-11 61 21 196 105 233 145 13 14 27 25 32 25 4 0 37-18 73-40 109-67 195-106 317-145 97-31 124-36 150-29 22 7 34 17 36 31 4 28-17 39-181 93-85 29-160 62-228 102-89 53-99 61-87 76 7 9 37 46 67 81 93 112 201 300 201 352 0 20-37 50-60 47-8-1-76-5-150-8zm90-95c0-30-109-190-204-300l-34-39-88 74c-66 57-99 95-137 158-28 45-48 84-46 86 10 11 509 31 509 21z"/>
  </g>
</svg>
