<?xml version="1.0"?>
<svg xmlns="http://www.w3.org/2000/svg" height="200pt" preserveAspectRatio="xMidYMid meet" viewBox="0 0 200 200" width="200pt">
  <g transform="matrix(.1 0 0 -.1 0 200)">
    <path d="m523 1778c-5-7-18-35-28-63-39-108-148-258-304-418-105-107-124-131-115-145 30-47 82-21 207 105 198 200 346 459 297 518-15 18-44 20-57 3z"/>
    <path d="m1030 1755c-18-22-5-61 61-181 95-171 106-186 137-182 22 2 28 9 30 33 2 23-15 62-70 157-40 69-81 140-90 157-18 33-48 40-68 16z"/>
    <path d="m608 1378c-20-57-98-201-141-258-68-92-164-185-278-271-60-46-109-90-109-99 0-23 20-40 46-40s133 70 217 142l57 49 2-148c1-81 2-243 2-360 1-184 3-215 18-229 28-28 66-11 74 33 4 20 4 209 0 419l-7 381 51 67c70 93 152 264 148 308-3 29-7 33-36 36s-34 0-44-30z"/>
    <path d="m1485 1293c-22-2-197-29-390-59-340-53-395-67-395-99 0-25 32-47 61-41 120 24 381 58 388 50 5-5 11-64 13-130l3-122-120-12c-137-15-155-21-155-55 0-46 34-49 241-20l37 5 6-148c3-81 8-172 10-203l4-56-132-18c-216-28-370-56-393-71-26-17-31-59-8-68 9-3 68 3 133 14 309 51 634 82 862 81 196 0 230 7 230 48 0 42-17 44-288 37-141-3-270-7-287-9l-30-2-8 199c-4 109-6 201-4 202 2 2 68 11 147 20 80 8 152 20 162 25 26 14 23 58-4 68-13 5-72 3-138-5-63-7-129-13-146-13l-31-1-7 126c-3 70-5 129-3 131 9 8 276 43 334 43 65 0 93 15 93 49 0 39-44 47-185 34z"/>
  </g>
</svg>
