<?xml version="1.0"?>
<svg xmlns="http://www.w3.org/2000/svg" height="200pt" preserveAspectRatio="xMidYMid meet" viewBox="0 0 200 200" width="200pt">
  <g transform="matrix(.1 0 0 -.1 0 200)">
    <path d="m523 1778c-5-7-18-35-28-63-39-108-148-258-304-418-105-107-124-131-115-145 30-47 82-21 207 105 198 200 346 459 297 518-15 18-44 20-57 3z"/>
    <path d="m1295 1743c-157-14-402-46-412-55-21-17-25-46-9-75 15-30 130-144 210-208l48-39-38-35c-106-92-284-214-414-280-8-5-16-18-18-30-5-33 36-44 96-26s226 127 352 232l95 79 80-58c137-100 492-258 578-258 44 0 63 44 31 71-9 7-61 28-116 46-174 57-378 159-473 236l-30 25 146 150c81 82 149 160 152 172 3 14-1 28-14 41-17 17-32 19-121 17-57-1-121-3-143-5zm25-198c-63-63-118-115-122-115-8 0-188 150-207 173-7 10-10 17-5 18 5 0 79 8 164 19 85 10 184 18 220 19l65 1z"/>
    <path d="m608 1378c-20-57-98-201-141-258-68-92-164-185-278-271-60-46-109-90-109-99 0-23 20-40 46-40s133 70 217 142l57 49 2-148c1-81 2-243 2-360 1-184 3-215 18-229 28-28 66-11 74 33 4 20 4 209 0 419l-7 381 51 67c70 93 152 264 148 308-3 29-7 33-36 36s-34 0-44-30z"/>
    <path d="m1121 1117c-5-14-3-74 7-155 19-153 22-146-71-157-87-9-127-28-127-58 0-44 20-50 104-33 126 27 123 28 130-56 3-40 7-121 9-180l2-107-25-5c-14-3-106-10-205-16-203-12-211-13-226-42-9-16-7-24 8-39 18-18 26-19 198-7 246 18 722 17 851-1 77-11 105-11 122-2 24 13 30 52 10 69-25 19-271 42-455 42h-181l-6 93c-3 50-7 134-8 186l-3 95 113 16c127 18 150 32 119 74-15 21-54 23-162 7-38-6-75-11-81-11-7 0-18 53-28 132-10 72-22 142-27 155-12 31-56 32-68 0z"/>
  </g>
</svg>
