<?xml version="1.0"?>
<svg xmlns="http://www.w3.org/2000/svg" height="200pt" preserveAspectRatio="xMidYMid meet" viewBox="0 0 200 200" width="200pt">
  <g transform="matrix(.1 0 0 -.1 0 200)">
    <path d="m1142 1808c-8-8-12-44-12-105 0-51-1-93-2-93-2 0-41-7-87-15-146-25-174-42-151-86 13-23 37-24 149-4 47 8 86 14 87 12 1-1 3-83 5-181l4-180-190-33c-246-43-269-50-273-85-5-39 23-50 90-38 29 6 175 31 323 55 149 25 280 48 293 50l22 5v-149-149l-27-6c-16-3-100-15-189-26-192-23-304-46-323-64-18-19-5-55 24-62 13-3 48-1 77 5 51 11 430 60 435 57 4-3 22-510 18-514-2-2-17 4-33 14-32 18-62 14-62-10 0-39 107-126 155-126 37 0 43 27 34 155-3 61-10 194-13 296l-7 186 32 7c17 3 66 6 109 6 61 0 83 4 101 19 21 16 22 22 11 45-12 26-12 26-130 26h-119l-7 46c-3 26-6 93-6 149v102l172 7c94 4 180 12 190 17 22 12 24 52 3 69-21 18-342 5-498-19l-115-18-7 111c-4 61-5 143-3 181l3 70 152 15c167 16 196 28 174 69-17 32-50 35-194 19-73-8-133-14-135-13-1 1-6 44-10 96-7 91-8 94-32 97-14 2-31-3-38-10z"/>
    <path d="m523 1778c-5-7-18-35-28-63-39-108-148-258-304-418-105-107-124-131-115-145 30-47 82-21 207 105 198 200 346 459 297 518-15 18-44 20-57 3z"/>
    <path d="m608 1378c-20-57-98-201-141-258-68-92-164-185-278-271-60-46-109-90-109-99 0-23 20-40 46-40s133 70 217 142l57 49 2-148c1-81 2-243 2-360 1-184 3-215 18-229 28-28 66-11 74 33 4 20 4 209 0 419l-7 381 51 67c70 93 152 264 148 308-3 29-7 33-36 36s-34 0-44-30z"/>
    <path d="m1092 628c-21-21-13-51 24-89 19-20 50-58 67-85 33-51 65-66 93-44 23 20 16 43-36 117-68 98-118 131-148 101z"/>
  </g>
</svg>
