<?xml version="1.0"?>
<svg xmlns="http://www.w3.org/2000/svg" height="200pt" preserveAspectRatio="xMidYMid meet" viewBox="0 0 200 200" width="200pt">
  <g transform="matrix(.1 0 0 -.1 0 200)">
    <path d="m1235 1852c-6-4-32-39-58-78s-83-112-127-162-80-99-80-110c0-29 34-53 101-71l61-17-113-106c-63-58-140-127-171-152-60-49-70-73-42-100 23-24 73-20 291 24 178 35 214 39 362 41l164 1 49-59c56-65 88-84 112-63 27 22 18 53-36 115-70 82-157 201-183 250-25 48-66 60-85 25-12-22 6-72 49-136l21-31-142-6c-79-4-163-11-188-17-25-7-87-20-139-30l-94-18 104 96c153 141 212 204 275 300 67 101 71 112 45 136-27 25-51 10-101-65-23-33-54-75-71-93-28-32-30-33-76-25-80 15-80 16-41 57 53 56 113 135 148 198 28 47 31 59 21 80-10 24-36 31-56 16z"/>
    <path d="m523 1778c-5-7-18-35-28-63-39-108-148-258-304-418-105-107-124-131-115-145 30-47 82-21 207 105 198 200 346 459 297 518-15 18-44 20-57 3z"/>
    <path d="m608 1378c-20-57-98-201-141-258-68-92-164-185-278-271-60-46-109-90-109-99 0-23 20-40 46-40s133 70 217 142l57 49 2-148c1-81 2-243 2-360 1-184 3-215 18-229 28-28 66-11 74 33 4 20 4 209 0 419l-7 381 51 67c70 93 152 264 148 308-3 29-7 33-36 36s-34 0-44-30z"/>
    <path d="m1334 1005c-45-7-112-19-150-28s-84-18-103-19c-31-3-38-9-64-61-19-37-70-100-143-176-63-65-114-126-114-134 0-23 27-40 53-33 13 3 53 32 89 65l65 60 83-91 83-90-89-89c-49-50-133-120-187-157-74-50-97-71-95-86 12-81 144-17 327 160l116 111 75-49c98-64 394-210 492-243 120-39 196-31 186 22-2 11-19 23-48 31-124 37-155 48-280 106-131 60-302 155-347 192l-23 19 102 160c137 216 158 255 158 292 0 55-34 62-186 38zm-13-222c-48-76-96-153-106-170-11-18-22-33-25-33-10 0-160 157-160 166 0 5 13 28 28 50 15 23 32 49 37 58 10 16 217 64 282 65l32 1z"/>
  </g>
</svg>
