<?xml version="1.0"?>
<svg xmlns="http://www.w3.org/2000/svg" height="200pt" preserveAspectRatio="xMidYMid meet" viewBox="0 0 200 200" width="200pt">
  <g transform="matrix(.1 0 0 -.1 0 200)">
    <path d="m1152 1934c-23-16-23-18-16-144l7-129-39-6c-90-16-209-46-221-57-19-16-16-45 7-61 18-12 30-12 93 3 39 9 93 20 118 24l46 7 7-163c4-90 9-182 12-204l6-41-99-18c-130-23-220-49-299-85-53-24-64-33-64-53 0-39 25-54 63-38 77 31 208 70 284 83l82 15 5-26c3-14 12-143 21-286 8-143 18-275 21-292 3-19 1-33-5-33-15 0-104 36-204 83l-89 41 7 93c6 77 5 97-9 118-30 46-84 22-73-32 6-33-37-338-57-407-8-27-31-75-50-106-39-62-43-79-24-98 21-21 45-13 78 25 47 53 80 131 98 233l16 89 30-18c60-37 250-112 345-137 130-34 346-71 519-89 125-13 147-13 177-1 37 16 46 44 22 64-7 6-81 18-165 26-154 16-411 57-482 76-44 12-45 15-56 181l-6 106 113 22c63 12 171 30 241 40 130 19 158 30 158 61 0 38-24 44-126 31-94-12-344-57-375-66-14-5-17 16-28 151-6 86-10 158-8 160 9 9 378 44 462 44 52 0 101 3 109 6 26 10 38 41 26 64-10 18-21 20-127 20-64 0-157-5-207-11-50-5-122-14-161-18-38-5-72-7-74-5-6 5-25 403-20 408 3 3 67 12 142 20 142 14 170 25 165 60-6 38-36 43-178 28-72-8-132-13-135-11-2 3-7 56-11 119-4 81-11 120-22 133-19 21-22 21-50 1z"/>
    <path d="m523 1778c-5-7-18-35-28-63-39-108-148-258-304-418-105-107-124-131-115-145 30-47 82-21 207 105 198 200 346 459 297 518-15 18-44 20-57 3z"/>
    <path d="m608 1378c-20-57-98-201-141-258-68-92-164-185-278-271-60-46-109-90-109-99 0-23 20-40 46-40s133 70 217 142l57 49 2-148c1-81 2-243 2-360 1-184 3-215 18-229 28-28 66-11 74 33 4 20 4 209 0 419l-7 381 51 67c70 93 152 264 148 308-3 29-7 33-36 36s-34 0-44-30z"/>
  </g>
</svg>
