<?xml version="1.0"?>
<svg xmlns="http://www.w3.org/2000/svg" height="200pt" preserveAspectRatio="xMidYMid meet" viewBox="0 0 200 200" width="200pt">
  <g transform="matrix(.1 0 0 -.1 0 200)">
    <path d="m523 1778c-5-7-18-35-28-63-39-108-148-258-304-418-105-107-124-131-115-145 30-47 82-21 207 105 198 200 346 459 297 518-15 18-44 20-57 3z"/>
    <path d="m1492 1708c-33-40-72-84-87-98-40-36-85-100-85-120 0-28 29-32 65-10 45 28 185 177 210 223 15 29 17 41 9 55-24 37-50 26-112-50z"/>
    <path d="m872 1718c-19-19-14-46 20-110 59-111 191-206 212-152 8 22-14 55-80 119-29 29-63 74-76 101-24 51-52 66-76 42z"/>
    <path d="m608 1378c-20-57-98-201-141-258-68-92-164-185-278-271-60-46-109-90-109-99 0-23 20-40 46-40s133 70 217 142l57 49 2-148c1-81 2-243 2-360 1-184 3-215 18-229 28-28 66-11 74 33 4 20 4 209 0 419l-7 381 51 67c70 93 152 264 148 308-3 29-7 33-36 36s-34 0-44-30z"/>
    <path d="m1410 1344c-237-23-582-68-614-80-23-9-31-44-12-62 14-14 30-14 173 6 87 12 168 22 181 22h22v-308c0-335-8-522-22-522-9 0-200 70-206 75-2 2 4 29 13 61 21 78 32 292 16 322-14 26-47 29-59 5-5-10-12-67-15-128-9-169-41-267-148-441-57-92-61-127-18-132 34-4 71 39 130 154 32 62 48 82 59 78 203-83 356-124 628-169 81-14 186-34 233-46 48-11 97-19 109-17 31 4 48 33 34 56-14 22-142 57-305 82-110 17-275 48-347 65l-24 6 7 227c4 125 8 228 9 228 0 1 57 10 126 19 69 10 131 22 138 28s12 22 10 36c-3 24-7 26-58 29-30 1-91-4-135-12-44-7-81-13-81-12-1 0-4 74-7 164-5 160-5 162 16 166 12 3 117 12 232 21 116 9 220 20 233 25 28 12 30 55 3 70-25 13-25 13-321-16z"/>
  </g>
</svg>
