<?xml version="1.0"?>
<svg xmlns="http://www.w3.org/2000/svg" height="200pt" preserveAspectRatio="xMidYMid meet" viewBox="0 0 200 200" width="200pt">
  <g transform="matrix(.1 0 0 -.1 0 200)">
    <path d="m1245 1793c-163-11-313-27-327-35-23-12-23-48 2-177 11-57 23-145 27-195 3-50 11-97 17-105 8-10 25-12 71-7 139 16 366 23 469 15 87-7 113-6 123 4 9 9 15 54 17 142 3 72 10 172 17 223 17 132 22 128-201 134-96 2-193 3-215 1zm321-96c4-3 3-30 0-60l-7-54-252-6c-139-4-261-8-271-9-17-3-22 7-32 55-8 43-9 60 0 62 54 19 545 29 562 12zm-16-256v-58l-232-6c-128-3-243-8-254-12-20-6-22-2-29 50-3 31-4 59-2 62 7 7 239 20 390 22l127 1z"/>
    <path d="m523 1778c-5-7-18-35-28-63-39-108-148-258-304-418-105-107-124-131-115-145 30-47 82-21 207 105 198 200 346 459 297 518-15 18-44 20-57 3z"/>
    <path d="m608 1378c-20-57-98-201-141-258-68-92-164-185-278-271-60-46-109-90-109-99 0-23 20-40 46-40s133 70 217 142l57 49 2-148c1-81 2-243 2-360 1-184 3-215 18-229 28-28 66-11 74 33 4 20 4 209 0 419l-7 381 51 67c70 93 152 264 148 308-3 29-7 33-36 36s-34 0-44-30z"/>
    <path d="m1225 1099c-116-9-359-42-460-62-53-11-60-15-63-38-6-51 11-53 210-25 208 30 398 46 534 46h94v-27c0-16-3-58-7-95l-6-68h-91c-96 0-422-31-526-50-96-17-110-25-110-59 0-40 19-44 126-27 105 18 382 44 507 48l87 3v-262c0-145-2-263-5-263s-27 11-53 24c-76 38-132 51-150 33-8-8-11-20-8-26 11-17 111-79 189-118 65-32 70-33 93-18l24 15v305 305h43c50 0 90 19 95 43 6 32-17 47-74 47-62 0-60-6-47 123l6 67h79c75 0 79 1 90 26 11 23 10 29-11 45-21 17-41 19-240 18-119-1-265-6-326-10z"/>
    <path d="m1112 578c-30-30-9-59 88-121 71-46 94-52 114-32 34 34 21 51-89 120-74 47-93 53-113 33z"/>
  </g>
</svg>
