<?xml version="1.0"?>
<svg xmlns="http://www.w3.org/2000/svg" height="200pt" preserveAspectRatio="xMidYMid meet" viewBox="0 0 200 200" width="200pt">
  <g transform="matrix(.1 0 0 -.1 0 200)">
    <path d="m972 1793c-5-10-12-57-16-105-13-180-69-359-148-470-39-56 9-92 64-49 32 26 83 123 117 224 27 79 29 82 65 89 107 22 398 58 524 64 125 6 144 9 153 25 15 29-5 56-46 61-67 8-316-11-478-37-88-14-164-25-167-25s-4 47-2 105c4 111-3 135-39 135-10 0-22-8-27-17z"/>
    <path d="m523 1778c-5-7-18-35-28-63-39-108-148-258-304-418-105-107-124-131-115-145 30-47 82-21 207 105 198 200 346 459 297 518-15 18-44 20-57 3z"/>
    <path d="m608 1378c-20-57-98-201-141-258-68-92-164-185-278-271-60-46-109-90-109-99 0-23 20-40 46-40s133 70 217 142l57 49 2-148c1-81 2-243 2-360 1-184 3-215 18-229 28-28 66-11 74 33 4 20 4 209 0 419l-7 381 51 67c70 93 152 264 148 308-3 29-7 33-36 36s-34 0-44-30z"/>
    <path d="m1347 1375c-77-13-173-31-215-41-43-10-81-17-85-16s-17-2-27-8c-25-14-25-45-1-143 11-42 25-113 31-159s17-89 24-96c10-10 29-10 102 3 49 9 162 24 252 35 90 10 169 24 177 30 8 7 15 28 15 47s10 99 21 179c20 134 20 146 5 169s-22 25-89 24c-39 0-134-11-210-24zm218-92c-4-21-8-39-9-41-2-1-57-7-122-13s-166-19-222-28l-104-17-9 24c-12 32-14 30 29 41 37 10 316 57 382 64 19 2 41 5 49 5 10 2 12-7 6-35zm-25-170c0-21-4-44-9-51-5-8-55-19-127-28-65-9-151-21-191-28l-72-12-6 49c-4 27-3 52 1 57 5 4 70 15 144 24 282 34 260 35 260-11z"/>
    <path d="m1093 798c-5-7-21-33-35-58-37-64-108-134-172-170s-73-53-45-81c15-15 28-19 47-14 33 8 85 40 129 78l33 29 34-30c18-16 59-45 90-63 30-19 56-37 56-41 0-9-105-84-205-145-97-59-164-88-258-113-59-14-73-22-75-39-4-25 30-41 88-41 93 0 335 125 497 256l42 34 103-46c169-76 372-153 424-159 59-8 104 7 104 34s-20 40-80 51c-29 5-84 21-124 36-86 31-356 144-356 150 0 2 17 30 37 61 44 70 103 199 103 230 0 56-56 65-254 38-97-13-112-13-126 0-20 18-44 19-57 3zm298-155c-23-43-51-91-64-106l-23-29-61 37c-33 20-78 51-99 69-37 32-38 34-22 57 13 21 28 26 104 35 49 6 115 12 147 13l58 1z"/>
  </g>
</svg>
