<?xml version="1.0"?>
<svg xmlns="http://www.w3.org/2000/svg" height="200pt" preserveAspectRatio="xMidYMid meet" viewBox="0 0 200 200" width="200pt">
  <g transform="matrix(.1 0 0 -.1 0 200)">
    <path d="m1169 1856c-8-18-8-50 0-119 6-53 11-113 11-135v-40l-57-6c-32-3-119-11-193-17s-143-15-152-20c-10-5-18-21-18-34 0-41 22-44 220-29 101 8 190 12 197 10 9-4 13-33 13-109v-103l-171-12c-94-7-179-17-190-22-12-7-19-21-19-41 0-33 55-288 72-331 10-28 33-42 49-32 6 3 175 10 377 14 328 8 368 11 379 26 7 10 10 28 7 40-3 13 2 98 11 189 14 136 14 169 4 182-11 13-34 14-159 9-80-4-173-9-206-12l-62-6-7 102c-4 56-3 106 1 110 5 5 104 12 219 16 116 3 218 11 228 16 20 10 23 48 5 66-13 13-158 15-344 4l-111-7-12 135c-7 74-17 145-22 158-12 31-56 30-70-2zm447-731c-3-36-9-94-12-129l-6-64-37-6c-51-8-131-7-131 2 0 4 12 62 27 129l28 122 35 4c19 2 50 4 69 5l33 2zm-220 39c-9-23-43-162-50-206l-7-38h-83-84l-7 48c-4 26-17 79-30 119l-22 71 81 6c44 4 97 8 116 9 85 9 92 8 86-9zm-353-66c9-29 23-83 30-120l14-66-64-4-64-3-9 35c-23 90-50 199-50 204 0 3 28 6 63 6h63z"/>
    <path d="m523 1778c-5-7-18-35-28-63-39-108-148-258-304-418-105-107-124-131-115-145 30-47 82-21 207 105 198 200 346 459 297 518-15 18-44 20-57 3z"/>
    <path d="m608 1378c-20-57-98-201-141-258-68-92-164-185-278-271-60-46-109-90-109-99 0-23 20-40 46-40s133 70 217 142l57 49 2-148c1-81 2-243 2-360 1-184 3-215 18-229 28-28 66-11 74 33 4 20 4 209 0 419l-7 381 51 67c70 93 152 264 148 308-3 29-7 33-36 36s-34 0-44-30z"/>
    <path d="m1316 684c-25-24-20-40 35-101 112-128 136-133 200-47 39 51 41 56 26 71-15 16-20 15-57-6l-41-23-64 61c-35 34-68 61-73 61-6 0-18-7-26-16z"/>
    <path d="m962 678c-37-37 27-145 173-293 126-128 192-167 355-210 152-40 345-32 370 15 16 31 13 130-5 137-19 7-51-21-59-51-7-27-38-36-126-36-72 0-237 41-310 77-71 36-240 203-304 301-47 71-69 85-94 60z"/>
    <path d="m1732 678c-25-25-10-48 71-112 81-65 112-77 135-54 25 25 11 49-70 113s-113 76-136 53z"/>
    <path d="m764 642c-6-4-24-27-41-52s-60-78-97-119c-73-81-88-114-62-139 12-12 22-14 40-6 43 17 204 214 220 270 10 35-31 66-60 46z"/>
  </g>
</svg>
