<?xml version="1.0"?>
<svg xmlns="http://www.w3.org/2000/svg" height="200pt" preserveAspectRatio="xMidYMid meet" viewBox="0 0 200 200" width="200pt">
  <g transform="matrix(.1 0 0 -.1 0 200)">
    <path d="m817 1384c-20-21 1-66 90-195 129-187 151-195 210-74 21 41 33 79 30 89-11 27-53 19-77-14-12-17-26-30-30-28s-43 53-87 113c-60 85-84 111-103 113-14 2-29 0-33-4z"/>
    <path d="m1465 1330c-11-36 4-57 105-139 54-45 111-97 126-116 37-49 94-44 94 8 0 25-86 114-191 198-90 71-123 84-134 49z"/>
    <path d="m468 1219c-40-22-6-165 79-333 113-226 190-307 378-401 142-71 245-97 405-102 213-8 439 40 470 98 17 31 19 251 3 256-20 7-52-57-70-139l-16-76-41-11c-90-22-235-41-322-41-170 0-382 73-529 184-97 72-230 298-279 472-23 82-47 111-78 93z"/>
    <path d="m304 1122c-7-4-29-36-50-72-20-36-70-114-111-173-72-107-88-152-58-163 37-15 61 7 142 128 105 159 133 209 133 239 0 39-28 59-56 41z"/>
  </g>
</svg>
