<?xml version="1.0"?>
<svg xmlns="http://www.w3.org/2000/svg" height="200pt" preserveAspectRatio="xMidYMid meet" viewBox="0 0 200 200" width="200pt">
  <g transform="matrix(.1 0 0 -.1 0 200)">
    <path d="m750 1711c-13-24 1-63 70-201 67-135 93-170 127-170 37 0 84 40 116 98 47 86 15 108-61 42l-45-40-35 62c-19 35-53 100-74 146-33 69-43 82-63 82-14 0-29-8-35-19z"/>
    <path d="m1381 1611c-6-10-24-69-41-130-16-61-41-138-54-170-59-146-204-368-334-511l-50-55-32 30c-43 39-196 243-278 370-72 110-127 214-138 260-9 41-22 55-50 55-34 0-41-39-18-113 33-110 240-430 391-604l62-72-77-72c-116-109-274-222-399-286-62-32-115-65-118-73s2-21 12-28c64-48 334 104 547 309l100 96 88-63c48-34 132-85 185-112 130-66 369-165 467-192 78-22 79-22 105-3 19 15 39 56 75 154 56 154 63 202 29 207-24 4-46-33-113-188-18-41-35-78-39-82-15-17-265 78-453 172-64 32-153 83-198 115l-80 57 30 36c136 166 167 206 210 270 89 136 167 306 205 450 19 74 35 141 35 151 0 39-51 56-69 22z"/>
    <path d="m1592 1138c-26-26-10-48 96-126 59-44 134-101 167-126 63-49 98-56 119-24 17 28-17 62-179 180-144 105-178 121-203 96z"/>
    <path d="m274 1008c-17-18-74-86-127-151-80-97-95-121-87-136 13-25 37-33 60-21 39 21 240 271 240 299 0 21-19 41-40 41-9 0-30-15-46-32z"/>
  </g>
</svg>
