<?xml version="1.0"?>
<svg xmlns="http://www.w3.org/2000/svg" height="200pt" preserveAspectRatio="xMidYMid meet" viewBox="0 0 200 200" width="200pt">
  <g transform="matrix(.1 0 0 -.1 0 200)">
    <path d="m925 1930c-16-17-17-32-11-123l7-104-228-17c-289-21-297-23-301-58-6-50 18-52 289-30 134 11 245 19 246 18 6-5 23-205 29-342l7-150-164-18c-90-10-172-22-181-27-10-6-18-21-18-34 0-49 1-49 415 0 116 13 262 27 325 31 63 3 121 11 128 16 21 18 14 57-13 70-23 10-221 1-358-18l-47-7v69c0 69-14 263-26 361l-6 51 43 6c24 4 157 10 296 16 145 5 261 13 272 20 24 12 28 52 8 69-13 10-302 3-538-15l-86-6-7 32c-3 18-6 65-6 106 0 96-32 132-75 84z"/>
    <path d="m556 807c-13-20-13-31-1-92 8-39 32-106 54-150 34-69 57-97 153-190 124-121 179-156 324-204 113-38 219-51 409-51 163 0 175 4 175 51 0 20-11 37-43 63-58 47-127 78-144 64-18-14-16-25 8-59l20-29h-63c-107 0-239 19-323 46-142 46-203 85-317 202-90 93-108 117-136 183-17 42-34 96-38 120s-11 50-17 57c-15 19-45 14-61-11z"/>
    <path d="m1614 785c-8-33 9-51 106-120 128-89 170-102 185-55 10 31-2 43-124 124-124 82-157 92-167 51z"/>
    <path d="m1086 771c-27-30-11-63 74-145 80-78 105-89 133-58 23 25 40 108 27 132-15 29-47 25-64-7l-14-28-61 63c-33 34-65 62-69 62-5 0-17-8-26-19z"/>
    <path d="m284 667c-58-45-188-158-196-171-12-17-9-33 8-50 26-27 48-18 129 52 43 37 100 84 126 105 49 38 60 62 37 85-21 21-62 13-104-21z"/>
  </g>
</svg>
