<?xml version="1.0"?>
<svg xmlns="http://www.w3.org/2000/svg" height="200pt" preserveAspectRatio="xMidYMid meet" viewBox="0 0 200 200" width="200pt">
  <g transform="matrix(.1 0 0 -.1 0 200)">
    <path d="m700 1921c-5-11-10-71-10-134v-114l-192-12c-106-7-208-15-227-19-42-9-61-34-45-59 13-20 28-21 185-10l106 8 7-63c3-35 13-130 22-213 10-93 21-159 31-173 8-13 36-33 61-44 43-20 59-21 237-15 233 7 586 36 603 50 16 13 15 42-3 57-17 14-117 11-495-15-232-16-258-16-292-2-33 14-37 20-46 69-13 72-45 348-41 352 4 3 380 24 859 47 129 6 231 15 238 22 18 15 11 50-14 62-21 10-124 8-549-14-116-6-242-14-281-17l-72-6-3 121c-3 94-7 124-19 131-24 15-48 12-60-9z"/>
    <path d="m556 807c-13-20-13-31-1-92 8-39 32-106 54-150 34-69 57-97 153-190 124-121 179-156 324-204 113-38 219-51 409-51 163 0 175 4 175 51 0 20-11 37-43 63-58 47-127 78-144 64-18-14-16-25 8-59l20-29h-63c-107 0-239 19-323 46-142 46-203 85-317 202-90 93-108 117-136 183-17 42-34 96-38 120s-11 50-17 57c-15 19-45 14-61-11z"/>
    <path d="m1614 785c-8-33 9-51 106-120 128-89 170-102 185-55 10 31-2 43-124 124-124 82-157 92-167 51z"/>
    <path d="m1086 771c-27-30-11-63 74-145 80-78 105-89 133-58 23 25 40 108 27 132-15 29-47 25-64-7l-14-28-61 63c-33 34-65 62-69 62-5 0-17-8-26-19z"/>
    <path d="m284 667c-58-45-188-158-196-171-12-17-9-33 8-50 26-27 48-18 129 52 43 37 100 84 126 105 49 38 60 62 37 85-21 21-62 13-104-21z"/>
  </g>
</svg>
