<?xml version="1.0"?>
<svg xmlns="http://www.w3.org/2000/svg" height="200pt" preserveAspectRatio="xMidYMid meet" viewBox="0 0 200 200" width="200pt">
  <g transform="matrix(.1 0 0 -.1 0 200)">
    <path d="m926 1948c-12-19-13-41-5-117 5-52 7-96 5-98-2-3-75-8-162-13-88-5-188-12-224-16s-77-6-92-5c-48 4-51-22-23-176 15-76 30-187 35-248 10-122 21-141 75-131 67 13 187 25 308 32l127 7 1-29c1-77 27-286 37-296 16-16 60-1 67 23 4 12 1 82-5 155-7 74-11 136-9 139 3 2 92-1 199-7 108-6 207-8 221-5 25 6 26 9 33 117 3 61 18 171 31 245 32 172 32 190-1 211-22 15-50 16-266 10-133-4-246-8-252-9s-14 40-21 99c-10 99-23 134-51 134-7 0-20-10-28-22zm551-310c-13-52-46-258-52-326-5-53-11-72-20-69-6 3-89 9-184 13-156 6-171 8-171 25 0 10-4 76-10 146-5 70-12 149-13 175l-4 47 51 4c28 2 131 4 230 5l178 2zm-534-80c4-46 9-131 13-190l7-108h-79c-74 0-224-13-304-25l-35-6-3 73c-1 40-12 128-25 195l-23 122 81 5c44 4 98 8 120 9 22 2 85 4 141 5l101 2z"/>
    <path d="m556 807c-13-20-13-31-1-92 8-39 32-106 54-150 34-69 57-97 153-190 124-121 179-156 324-204 113-38 219-51 409-51 163 0 175 4 175 51 0 20-11 37-43 63-58 47-127 78-144 64-18-14-16-25 8-59l20-29h-63c-107 0-239 19-323 46-142 46-203 85-317 202-90 93-108 117-136 183-17 42-34 96-38 120s-11 50-17 57c-15 19-45 14-61-11z"/>
    <path d="m1614 785c-8-33 9-51 106-120 128-89 170-102 185-55 10 31-2 43-124 124-124 82-157 92-167 51z"/>
    <path d="m1086 771c-27-30-11-63 74-145 80-78 105-89 133-58 23 25 40 108 27 132-15 29-47 25-64-7l-14-28-61 63c-33 34-65 62-69 62-5 0-17-8-26-19z"/>
    <path d="m284 667c-58-45-188-158-196-171-12-17-9-33 8-50 26-27 48-18 129 52 43 37 100 84 126 105 49 38 60 62 37 85-21 21-62 13-104-21z"/>
  </g>
</svg>
