<?xml version="1.0"?>
<svg xmlns="http://www.w3.org/2000/svg" height="200pt" preserveAspectRatio="xMidYMid meet" viewBox="0 0 200 200" width="200pt">
  <g transform="matrix(.1 0 0 -.1 0 200)">
    <path d="m1136 1894c-20-19-20-15 4-153 11-62 20-130 20-151v-37l-167-17c-194-20-213-26-213-60 0-44 23-47 211-26 95 10 174 18 176 17 5-5-17-233-27-287-6-30-20-89-31-131l-20-75-87-13c-158-22-384-70-408-86-29-19-31-50-5-65 14-7 38-6 83 5 77 18 346 65 370 65 16 0 15-7-8-72-79-222-218-443-338-536-31-24-68-59-82-78-23-30-25-38-16-59 17-37 45-31 104 22 200 181 311 341 399 578 18 50 36 93 39 98 3 4 26-27 50-69 58-102 108-164 259-317 151-154 222-212 325-267 93-51 129-50 124 3-3 28-11 36-72 69-103 57-155 100-332 280-128 130-173 183-222 263-52 85-59 101-44 106 32 12 309 29 465 29 128 0 158 3 171 16 22 21 20 40-6 58-18 13-52 16-165 16h-143v133c0 72 5 182 11 242 14 153 14 164-4 182-15 15-30 15-157 4-78-7-143-11-146-8s-9 36-15 73c-15 113-41 238-52 252-13 16-32 15-51-4zm340-416c-4-13-10-123-13-245-5-192-8-223-21-223-9 0-67-5-130-11-62-6-115-9-118-7-2 3 4 43 15 89 24 103 41 242 41 331v66l78 7c42 3 84 8 92 9 8 2 26 4 39 5 20 1 22-2 17-21z"/>
    <path d="m319 1858c-9-17-10-110-4-388 5-201 10-509 10-685 1-176 5-405 9-510 8-199 16-235 55-235 41 0 44 19 36 237-4 115-9 354-10 533-4 511-21 1039-35 1056-18 21-48 17-61-8z"/>
    <path d="m477 1523c-4-3-7-13-7-20 0-18 120-344 133-360 13-18 52-16 68 3 11 14 10 26-9 81-49 139-104 274-118 288-16 15-55 20-67 8z"/>
    <path d="m141 1087c-6-8-28-79-48-159-41-164-40-201 5-196 35 4 43 22 83 191 25 103 30 143 23 155-14 22-48 27-63 9z"/>
  </g>
</svg>
