<?xml version="1.0"?>
<svg xmlns="http://www.w3.org/2000/svg" height="200pt" preserveAspectRatio="xMidYMid meet" viewBox="0 0 200 200" width="200pt">
  <g transform="matrix(.1 0 0 -.1 0 200)">
    <path d="m933 1958c-5-7-15-28-22-45-35-89-282-266-580-418-104-52-192-103-195-112-9-23 12-43 48-43 60 0 337 140 511 258 114 77 208 156 247 206l33 43 58-44c58-45 333-216 457-285 36-20 132-66 214-103 127-58 152-66 172-56 29 13 33 56 7 71-10 6-92 46-183 88-156 74-485 262-595 340-27 20-69 53-92 74-45 40-64 46-80 26z"/>
    <path d="m995 1520c-241-17-312-40-285-90 11-20 17-22 68-17 32 3 131 11 222 18s171 17 178 22c14 11 16 36 4 55-12 18-60 21-187 12z"/>
    <path d="m1240 1304c-36-2-197-18-359-36-312-34-341-42-327-85 4-12 14-24 22-27s122 6 252 20c278 30 432 42 432 34 0-7-187-188-274-265-31-28-56-56-56-62 0-17 29-43 48-43 24 0 140 95 255 208 221 218 222 267 7 256z"/>
    <path d="m556 807c-13-20-13-31-1-92 8-39 32-106 54-150 34-69 57-97 153-190 124-121 179-156 324-204 113-38 219-51 409-51 163 0 175 4 175 51 0 20-11 37-43 63-58 47-127 78-144 64-18-14-16-25 8-59l20-29h-63c-107 0-239 19-323 46-142 46-203 85-317 202-90 93-108 117-136 183-17 42-34 96-38 120s-11 50-17 57c-15 19-45 14-61-11z"/>
    <path d="m1614 785c-8-33 9-51 106-120 128-89 170-102 185-55 10 31-2 43-124 124-124 82-157 92-167 51z"/>
    <path d="m1086 771c-27-30-11-63 74-145 80-78 105-89 133-58 23 25 40 108 27 132-15 29-47 25-64-7l-14-28-61 63c-33 34-65 62-69 62-5 0-17-8-26-19z"/>
    <path d="m284 667c-58-45-188-158-196-171-12-17-9-33 8-50 26-27 48-18 129 52 43 37 100 84 126 105 49 38 60 62 37 85-21 21-62 13-104-21z"/>
  </g>
</svg>
