<?xml version="1.0"?>
<svg xmlns="http://www.w3.org/2000/svg" height="200pt" preserveAspectRatio="xMidYMid meet" viewBox="0 0 200 200" width="200pt">
  <g transform="matrix(.1 0 0 -.1 0 200)">
    <path d="m733 1868c-5-7-20-34-32-60-15-31-50-73-102-119-81-74-96-103-64-129 8-7 25-10 37-6 24 6 164 134 190 173 13 20 24 22 197 29l183 7-7-24c-17-54-75-157-106-187-19-19-47-34-68-38-240-38-397-79-412-105-12-22 4-59 25-59 8 0 63 12 123 26 155 37 347 64 506 71l137 6v-75-74l-122-13c-445-46-542-60-555-77-17-23-16-29 4-50 14-14 29-16 97-10 76 6 255 24 447 46 141 16 129 24 129-80 0-64-4-92-12-95-7-2-87-9-178-15-294-19-534-41-552-51-10-5-18-20-18-33 0-44 18-48 147-37 105 9 247 19 553 37 52 3 103 8 112 10 30 9 38 73 38 319 0 202-3 244-16 263-14 21-22 22-144 22h-128l34 68c19 37 44 97 56 134 21 67 22 68 2 89-19 21-23 21-194 15-96-3-188-9-205-12-25-4-32-1-40 18-11 26-47 35-62 16z"/>
    <path d="m556 807c-13-20-13-31-1-92 8-39 32-106 54-150 34-69 57-97 153-190 124-121 179-156 324-204 113-38 219-51 409-51 163 0 175 4 175 51 0 20-11 37-43 63-58 47-127 78-144 64-18-14-16-25 8-59l20-29h-63c-107 0-239 19-323 46-142 46-203 85-317 202-90 93-108 117-136 183-17 42-34 96-38 120s-11 50-17 57c-15 19-45 14-61-11z"/>
    <path d="m1614 785c-8-33 9-51 106-120 128-89 170-102 185-55 10 31-2 43-124 124-124 82-157 92-167 51z"/>
    <path d="m1086 771c-27-30-11-63 74-145 80-78 105-89 133-58 23 25 40 108 27 132-15 29-47 25-64-7l-14-28-61 63c-33 34-65 62-69 62-5 0-17-8-26-19z"/>
    <path d="m284 667c-58-45-188-158-196-171-12-17-9-33 8-50 26-27 48-18 129 52 43 37 100 84 126 105 49 38 60 62 37 85-21 21-62 13-104-21z"/>
  </g>
</svg>
