<?xml version="1.0"?>
<svg xmlns="http://www.w3.org/2000/svg" height="200pt" preserveAspectRatio="xMidYMid meet" viewBox="0 0 200 200" width="200pt">
  <g transform="matrix(.1 0 0 -.1 0 200)">
    <path d="m319 1858c-9-17-10-117-3-418 4-217 9-537 9-710 1-350 12-646 27-672 10-21 51-24 66-5 16 18-15 1788-32 1815-12 20-54 14-67-10z"/>
    <path d="m1225 1856c-17-12-18-27-11-253l7-239-123-16c-68-9-125-15-127-13s2 38 8 80 11 109 11 150c0 80-15 109-54 103-19-3-22-11-28-103-14-195-60-408-118-545-18-41-37-87-43-102-8-20-8-30 2-42 35-42 81 2 129 124 17 42 35 93 40 115 6 22 16 59 21 82l11 41 68 11c37 6 97 15 135 19l67 9v-198-197l-32-5c-18-4-71-11-118-17-110-14-130-23-130-55 0-36 32-40 170-24l118 15 6-86c4-47 12-149 18-227 7-79 9-145 6-148-3-4-75-15-159-26-185-23-355-53-426-74-58-17-77-45-49-73 14-15 25-14 123 6 339 69 748 97 1003 69 117-13 138-13 158-1 26 17 29 50 4 63-32 17-224 34-394 35l-168 1v25c0 14-4 75-9 135-5 61-12 156-16 211l-6 102 68 11c37 6 101 15 141 20 79 10 105 24 100 54-6 37-30 42-135 28-54-7-117-15-140-18l-43-6v195 195l63 7c34 4 114 9 177 13 63 3 125 10 138 14 24 9 30 47 10 67-15 15-105 15-264-1l-122-12-6 85c-3 47-9 152-12 233-5 108-11 152-21 163-18 17-24 18-48 0z"/>
    <path d="m488 1529c-10-5-18-17-18-25 0-14 85-254 117-331 15-36 43-56 67-47 33 13 28 50-24 189-60 162-83 210-105 219-20 7-16 8-37-5z"/>
    <path d="m132 1073c-20-48-72-266-72-300 0-44 34-64 62-35 23 23 91 279 86 326-3 27-7 31-34 34-26 3-33-2-42-25z"/>
  </g>
</svg>
