<?xml version="1.0"?>
<svg xmlns="http://www.w3.org/2000/svg" height="200pt" preserveAspectRatio="xMidYMid meet" viewBox="0 0 200 200" width="200pt">
  <g transform="matrix(.1 0 0 -.1 0 200)">
    <path d="m800 1873c-30-2-118-11-195-20s-160-17-185-17c-43-1-45-2-48-32-2-18 6-79 17-135 11-57 25-162 31-234 29-351 32-370 53-378 7-2 107 0 222 4 116 4 346 8 512 8 300 1 302 1 317 23 9 13 16 43 16 70 0 49 43 444 60 553 15 91 12 130-8 148-17 15-56 17-378 15-197-1-384-3-414-5zm714-83c2-3-8-111-25-239-16-129-32-269-35-311l-7-77-361-7c-198-3-404-9-457-13l-97-6-6 89c-10 148-37 385-51 454-7 35-12 67-9 71 5 10 209 31 374 39 160 8 665 8 674 0z"/>
    <path d="m947 1732c-11-11-17-36-17-63 0-87 3-84-132-98-124-12-148-20-148-51 0-36 25-43 130-35 63 4 100 3 100-3 0-5-18-37-40-70-35-53-81-101-148-154-26-21-27-31-6-52 40-41 110-1 199 114 23 30 50 70 59 88l17 33 51-56c79-86 258-185 311-171 59 14 36 71-39 99-73 27-189 103-223 146-31 39-31 39-8 45 12 3 51 6 87 7 104 1 171 14 186 34 18 24 18 30-3 50-13 14-28 16-72 11-31-3-97-9-147-12l-91-7 5 57c7 85-31 132-71 88z"/>
    <path d="m556 807c-13-20-13-31-1-92 8-39 32-106 54-150 34-69 57-97 153-190 124-121 179-156 324-204 113-38 219-51 409-51 163 0 175 4 175 51 0 20-11 37-43 63-58 47-127 78-144 64-18-14-16-25 8-59l20-29h-63c-107 0-239 19-323 46-142 46-203 85-317 202-90 93-108 117-136 183-17 42-34 96-38 120s-11 50-17 57c-15 19-45 14-61-11z"/>
    <path d="m1614 785c-8-33 9-51 106-120 128-89 170-102 185-55 10 31-2 43-124 124-124 82-157 92-167 51z"/>
    <path d="m1086 771c-27-30-11-63 74-145 80-78 105-89 133-58 23 25 40 108 27 132-15 29-47 25-64-7l-14-28-61 63c-33 34-65 62-69 62-5 0-17-8-26-19z"/>
    <path d="m284 667c-58-45-188-158-196-171-12-17-9-33 8-50 26-27 48-18 129 52 43 37 100 84 126 105 49 38 60 62 37 85-21 21-62 13-104-21z"/>
  </g>
</svg>
