<?xml version="1.0"?>
<svg xmlns="http://www.w3.org/2000/svg" height="200pt" preserveAspectRatio="xMidYMid meet" viewBox="0 0 200 200" width="200pt">
  <g transform="matrix(.1 0 0 -.1 0 200)">
    <path d="m787 1954c-3-3-28-52-56-108-27-55-74-130-104-167-76-91-82-104-59-127 15-15 20-40 25-133 18-337 30-496 39-513 11-21 19-20 233 9 154 20 480 32 489 17 11-18 54-14 65 6 13 24-6 722-21 739-19 23-346 13-582-18-43-6-80-8-83-6-2 3 12 30 32 61 55 86 98 201 85 226-10 19-49 27-63 14zm533-431v-78l-123-1c-137-1-460-30-494-44-23-9-23-9-23 74v83l78 7c247 24 378 34 465 35l97 1zm0-223v-70h-128c-133 0-363-15-444-29-46-8-46-8-52 22-10 47-7 109 4 102 5-3 87 1 182 10s232 20 303 24c72 4 131 9 133 10 1 0 2-30 2-69zm10-215v-55h-88c-108 0-321-17-439-34-48-7-89-13-90-12 0 0-4 31-8 67l-7 66 133 10c74 5 216 10 317 11l182 2z"/>
    <path d="m556 807c-13-20-13-31-1-92 8-39 32-106 54-150 34-69 57-97 153-190 124-121 179-156 324-204 113-38 219-51 409-51 163 0 175 4 175 51 0 20-11 37-43 63-58 47-127 78-144 64-18-14-16-25 8-59l20-29h-63c-107 0-239 19-323 46-142 46-203 85-317 202-90 93-108 117-136 183-17 42-34 96-38 120s-11 50-17 57c-15 19-45 14-61-11z"/>
    <path d="m1614 785c-8-33 9-51 106-120 128-89 170-102 185-55 10 31-2 43-124 124-124 82-157 92-167 51z"/>
    <path d="m1086 771c-27-30-11-63 74-145 80-78 105-89 133-58 23 25 40 108 27 132-15 29-47 25-64-7l-14-28-61 63c-33 34-65 62-69 62-5 0-17-8-26-19z"/>
    <path d="m284 667c-58-45-188-158-196-171-12-17-9-33 8-50 26-27 48-18 129 52 43 37 100 84 126 105 49 38 60 62 37 85-21 21-62 13-104-21z"/>
  </g>
</svg>
