<?xml version="1.0"?>
<svg xmlns="http://www.w3.org/2000/svg" height="200pt" preserveAspectRatio="xMidYMid meet" viewBox="0 0 200 200" width="200pt">
  <g transform="matrix(.1 0 0 -.1 0 200)">
    <path d="m613 1919c-134-8-163-18-163-53 0-43 16-47 170-36 79 5 147 7 151 5 4-3 10-40 14-83 4-42 8-84 11-92 4-16-25-22-269-57-57-8-62-28-33-125 14-46 29-114 35-151 13-89 22-99 80-92 25 2 81 7 125 10l78 6-3-85c-2-46-7-88-12-92-4-4-62-11-130-16-186-12-370-37-379-51-15-23-8-47 16-58 18-9 63-7 183 6 128 15 272 19 751 22l593 5 11 24c10 21 8 28-10 47-22 22-27 22-317 22h-295v99 99l126-5c152-6 149-8 158 132 3 52 8 123 12 157 6 57 5 63-19 87-25 25-29 26-160 26-155 0-147-6-147 108v62h149c123 0 152 3 165 16 21 20 20 37-2 57-17 15-57 17-393 16-206-1-429-5-496-10zm487-141c0-35 3-73 6-85 7-27-3-30-132-37l-92-5-6 72c-4 40-10 82-13 95-5 22-5 22 116 22h121zm25-309c4-61 5-112 3-114-1-1-53-5-114-7l-112-3-4 105c-3 58-3 107 0 110 2 3 43 8 90 11 48 3 97 6 108 7 20 2 22-4 29-109zm302 89c-3-13-9-62-12-110l-7-88h-94-94v33c0 19-3 68-6 110l-7 77h113c111 0 112 0 107-22zm-623-24c9-23 7-192-1-197-5-3-47-8-95-12l-87-7-6 39c-4 21-15 68-24 105l-18 66 66 10c108 15 158 14 165-4zm326-364v-100h-121-122l7 38c3 20 6 63 6 94v57l103 4c56 1 108 4 115 5 9 1 12-24 12-98z"/>
    <path d="m556 807c-13-20-13-31-1-92 8-39 32-106 54-150 34-69 57-97 153-190 124-121 179-156 324-204 113-38 219-51 409-51 163 0 175 4 175 51 0 20-11 37-43 63-58 47-127 78-144 64-18-14-16-25 8-59l20-29h-63c-107 0-239 19-323 46-142 46-203 85-317 202-90 93-108 117-136 183-17 42-34 96-38 120s-11 50-17 57c-15 19-45 14-61-11z"/>
    <path d="m1614 785c-8-33 9-51 106-120 128-89 170-102 185-55 10 31-2 43-124 124-124 82-157 92-167 51z"/>
    <path d="m1086 771c-27-30-11-63 74-145 80-78 105-89 133-58 23 25 40 108 27 132-15 29-47 25-64-7l-14-28-61 63c-33 34-65 62-69 62-5 0-17-8-26-19z"/>
    <path d="m284 667c-58-45-188-158-196-171-12-17-9-33 8-50 26-27 48-18 129 52 43 37 100 84 126 105 49 38 60 62 37 85-21 21-62 13-104-21z"/>
  </g>
</svg>
