<?xml version="1.0"?>
<svg xmlns="http://www.w3.org/2000/svg" height="200pt" preserveAspectRatio="xMidYMid meet" viewBox="0 0 200 200" width="200pt">
  <g transform="matrix(.1 0 0 -.1 0 200)">
    <path d="m1088 1785c-9-19-7-61 6-182 10-87 20-268 23-403 3-137 10-250 16-257 12-16 49-17 65-1 8 8 12 47 12 110v98h193c158 0 197 3 215 16 24 17 29 43 10 62-9 9-70 12-215 12h-203v59c0 44 4 60 16 65 9 3 62 6 119 6 141 0 182 19 154 72-10 19-18 20-154 16l-143-4-6 35c-16 99-19 97 157 111 65 5 122 12 128 15 5 4 9 20 9 36 0 45-32 53-160 40-58-6-117-14-132-17-28-6-28-6-28 43 0 81-55 127-82 68z"/>
    <path d="m694 1768c-4-6-6-32-5-57l1-46-140-17c-155-19-180-28-180-62 0-44 18-48 139-32 62 9 130 16 151 16h40v-64c0-73-3-76-83-76-72 0-188-18-204-31-18-15-17-44 2-59 13-10 40-11 137-2 67 6 124 9 126 7s-2-30-10-61l-13-57-54-3c-30-1-94-8-143-15-78-10-91-15-100-35-8-18-8-27 3-40 12-14 27-16 102-10 49 4 102 10 119 13 28 6 30 5 19-16-7-11-43-54-81-93-39-40-70-80-70-88 0-23 20-40 47-40 50 0 190 162 231 265 36 90 62 238 62 345 0 110-16 238-32 258-13 15-54 16-64 0z"/>
    <path d="m556 807c-13-20-13-31-1-92 8-39 32-106 54-150 34-69 57-97 153-190 124-121 179-156 324-204 113-38 219-51 409-51 163 0 175 4 175 51 0 20-11 37-43 63-58 47-127 78-144 64-18-14-16-25 8-59l20-29h-63c-107 0-239 19-323 46-142 46-203 85-317 202-90 93-108 117-136 183-17 42-34 96-38 120s-11 50-17 57c-15 19-45 14-61-11z"/>
    <path d="m1614 785c-8-33 9-51 106-120 128-89 170-102 185-55 10 31-2 43-124 124-124 82-157 92-167 51z"/>
    <path d="m1086 771c-27-30-11-63 74-145 80-78 105-89 133-58 23 25 40 108 27 132-15 29-47 25-64-7l-14-28-61 63c-33 34-65 62-69 62-5 0-17-8-26-19z"/>
    <path d="m284 667c-58-45-188-158-196-171-12-17-9-33 8-50 26-27 48-18 129 52 43 37 100 84 126 105 49 38 60 62 37 85-21 21-62 13-104-21z"/>
  </g>
</svg>
