<?xml version="1.0"?>
<svg xmlns="http://www.w3.org/2000/svg" height="200pt" preserveAspectRatio="xMidYMid meet" viewBox="0 0 200 200" width="200pt">
  <g transform="matrix(.1 0 0 -.1 0 200)">
    <path d="m1302 1888c-7-7-12-42-12-85 0-40-3-73-7-73-42-1-257-41-268-50-19-16-19-44 0-60 12-10 40-9 141 4 70 9 127 16 129 14 1-2 5-36 7-76 5-68 4-73-16-77-11-2-59-12-106-21-106-20-126-28-140-53-8-16-7-24 8-39 19-19 22-19 137 5 64 13 120 22 123 18 3-3 8-54 10-113l4-108-213-43c-118-23-225-48-239-54-30-14-37-48-15-67 13-11 51-6 228 29 295 57 455 80 651 91 135 7 172 12 187 26 23 21 24 38 3 58-18 18-132 15-368-10-76-8-139-14-141-12-6 8-13 218-7 222 4 2 61 9 127 16 66 6 135 14 152 16 39 6 59 35 43 64-16 30-109 28-307-5l-33-6v74c0 51 4 76 13 80 6 2 89 12 182 21 94 10 181 23 195 29 51 26 32 77-29 77-36 0-261-24-333-36l-38-6v69c0 70-10 93-40 93-9 0-21-5-28-12z"/>
    <path d="m319 1858c-9-17-10-110-4-388 5-201 10-509 10-685 1-176 5-405 9-510 8-199 16-235 55-235 41 0 44 19 36 237-4 115-9 354-10 533-4 511-21 1039-35 1056-18 21-48 17-61-8z"/>
    <path d="m477 1523c-4-3-7-13-7-20 0-18 120-344 133-360 13-18 52-16 68 3 11 14 10 26-9 81-49 139-104 274-118 288-16 15-55 20-67 8z"/>
    <path d="m141 1087c-6-8-28-79-48-159-41-164-40-201 5-196 35 4 43 22 83 191 25 103 30 143 23 155-14 22-48 27-63 9z"/>
    <path d="m1443 1005c-94-13-198-29-230-36s-68-12-80-11-25-4-29-10c-4-7-8-102-9-212-1-180-4-214-29-324-41-184-60-240-98-279-26-27-30-37-22-51 19-29 58-26 97 8 45 40 66 99 122 358 5 22 7 22 178 23 94 0 208 4 252 8s82 6 84 4c9-7 13-293 5-293-5 0-29 11-53 25-49 29-69 31-77 10-9-22 33-74 91-111 69-43 97-50 120-28 16 16 17 37 12 223-9 370-28 674-43 699-18 28-59 28-291-3zm217-135v-70h-65c-36 0-140-9-232-20-91-12-167-20-168-18s-6 28-9 59l-7 57 69 12c95 16 340 48 380 49l32 1zm10-224v-73l-77-6c-43-4-154-10-247-13l-169-7 6 33c4 18 7 48 7 66 0 33 1 34 43 35 23 0 107 8 187 18 80 11 169 19 198 20l52 1z"/>
  </g>
</svg>
