<?xml version="1.0"?>
<svg xmlns="http://www.w3.org/2000/svg" height="200pt" preserveAspectRatio="xMidYMid meet" viewBox="0 0 200 200" width="200pt">
  <g transform="matrix(.1 0 0 -.1 0 200)">
    <path d="m574 1854c-4-15-4-71-1-125l6-98-57-12c-103-21-161-47-168-76-8-30 19-58 46-48 55 22 150 42 150 33 0-23-90-199-140-274-76-113-107-150-152-179-41-27-46-50-16-68 26-17 98 10 136 51 43 45 140 189 183 272l34 65 6-160c6-162 22-280 41-302 16-20 56-15 68 7 8 14 8 37 1 76-10 55-14 110-26 354l-6 114 28-26c39-36 123-88 144-88 9 0 22 7 29 15 19 23-1 54-59 94-27 18-61 45-76 61-31 33-29 34 68 45 41 5 60 12 67 25 15 28 12 38-13 55-20 13-34 13-107 1-55-9-87-10-91-4s-10 51-14 102c-7 99-15 116-51 116-17 0-25-7-30-26z"/>
    <path d="m1350 1839c-52-4-116-12-143-17-27-6-50-6-53-1-10 16-53 9-64-10-14-28-12-198 5-391 8-91 15-219 15-286 0-157 3-161 102-154 40 3 164 5 275 5 132 0 204 4 207 10 2 6 1 194-2 419-4 334-8 410-19 422-16 16-157 17-323 3zm250-161v-83l-93-3c-85-2-251-23-311-38l-26-6v90 90l113 11c141 15 177 17 255 19l62 2zm0-242v-74l-127-7c-71-4-163-13-205-19l-78-13v27c0 15-3 47-6 72l-6 44 128 17c147 20 180 23 247 25l47 2zm0-208c0-24 3-66 6-94l6-51-188-5c-104-3-197-9-206-13-16-6-18 1-18 83v91l43 6c116 17 180 23 265 24l92 1z"/>
    <path d="m556 807c-13-20-13-31-1-92 8-39 32-106 54-150 34-69 57-97 153-190 124-121 179-156 324-204 113-38 219-51 409-51 163 0 175 4 175 51 0 20-11 37-43 63-58 47-127 78-144 64-18-14-16-25 8-59l20-29h-63c-107 0-239 19-323 46-142 46-203 85-317 202-90 93-108 117-136 183-17 42-34 96-38 120s-11 50-17 57c-15 19-45 14-61-11z"/>
    <path d="m1614 785c-8-33 9-51 106-120 128-89 170-102 185-55 10 31-2 43-124 124-124 82-157 92-167 51z"/>
    <path d="m1086 771c-27-30-11-63 74-145 80-78 105-89 133-58 23 25 40 108 27 132-15 29-47 25-64-7l-14-28-61 63c-33 34-65 62-69 62-5 0-17-8-26-19z"/>
    <path d="m284 667c-58-45-188-158-196-171-12-17-9-33 8-50 26-27 48-18 129 52 43 37 100 84 126 105 49 38 60 62 37 85-21 21-62 13-104-21z"/>
  </g>
</svg>
