<?xml version="1.0"?>
<svg xmlns="http://www.w3.org/2000/svg" height="200pt" preserveAspectRatio="xMidYMid meet" viewBox="0 0 200 200" width="200pt">
  <g transform="matrix(.1 0 0 -.1 0 200)">
    <path d="m890 1930c-7-13-9-55-4-119l7-98-49-7c-131-18-301-49-316-57-10-5-18-21-18-35 0-33 29-43 98-32 30 5 58 7 62 6 5-2 27-28 49-58l42-55-78-13c-185-31-476-92-489-103-18-15-18-43 1-59 12-10 46-6 177 19 226 43 399 68 563 81 281 21 646 41 725 39 84-2 110 8 110 42 0 35-38 49-135 49-85 0-296-12-449-25l-69-7 42 48c23 26 44 58 47 71 6 21 11 23 74 23 49 0 73 5 84 16 20 19 20 24 0 53-17 23-17 23-199 19l-182-4-7 100c-4 55-12 106-18 113-16 20-56 16-68-7zm221-307c-5-10-36-44-68-75-55-54-61-57-113-60l-55-3-54 60-53 60 53 8c67 10 211 24 262 26 33 1 37-1 28-16z"/>
    <path d="m1065 1319c-133-10-348-46-394-65-41-17-41-17-41 1 0 23-46 41-65 25-21-17-19-36 15-196 16-77 27-150 24-161-4-15 1-26 19-37 21-15 38-15 138-6 238 23 337 30 444 30 160 0 158-1 167 140 3 63 11 135 17 160 15 63 14 77-9 100-17 17-32 20-112 19-51-1-142-6-203-10zm235-101c0-13-4-28-8-34-4-7-61-14-137-18-169-9-382-33-439-50-50-15-56-13-56 21 0 30 24 39 170 65 128 22 263 34 388 37 79 1 82 0 82-21zm-22-175-3-38-150-7c-82-4-210-14-283-23-72-9-137-13-142-10-6 3-10 17-10 31 0 33 24 41 178 59 149 17 195 21 320 23l93 2z"/>
    <path d="m556 807c-13-20-13-31-1-92 8-39 32-106 54-150 34-69 57-97 153-190 124-121 179-156 324-204 113-38 219-51 409-51 163 0 175 4 175 51 0 20-11 37-43 63-58 47-127 78-144 64-18-14-16-25 8-59l20-29h-63c-107 0-239 19-323 46-142 46-203 85-317 202-90 93-108 117-136 183-17 42-34 96-38 120s-11 50-17 57c-15 19-45 14-61-11z"/>
    <path d="m1614 785c-8-33 9-51 106-120 128-89 170-102 185-55 10 31-2 43-124 124-124 82-157 92-167 51z"/>
    <path d="m1086 771c-27-30-11-63 74-145 80-78 105-89 133-58 23 25 40 108 27 132-15 29-47 25-64-7l-14-28-61 63c-33 34-65 62-69 62-5 0-17-8-26-19z"/>
    <path d="m284 667c-58-45-188-158-196-171-12-17-9-33 8-50 26-27 48-18 129 52 43 37 100 84 126 105 49 38 60 62 37 85-21 21-62 13-104-21z"/>
  </g>
</svg>
