<?xml version="1.0"?>
<svg xmlns="http://www.w3.org/2000/svg" height="200pt" preserveAspectRatio="xMidYMid meet" viewBox="0 0 200 200" width="200pt">
  <g transform="matrix(.1 0 0 -.1 0 200)">
    <path d="m944 1918c-145-87-263-145-344-167-83-23-102-36-98-65 2-17 11-22 51-24 26-2 74 4 105 13 104 30 401 196 423 236 13 25 3 56-20 62-11 3-57-19-117-55z"/>
    <path d="m1252 1681c-107-101-123-132-74-139 50-7 206 120 226 184 7 23-15 54-37 54-7 0-59-45-115-99z"/>
    <path d="m812 1658c-34-34-5-64 93-98 76-26 102-26 111 2 9 29-26 59-101 87-64 24-86 26-103 9z"/>
    <path d="m547 1608c-20-11-22-51-4-66 21-17 179-72 209-72 38 0 54 31 30 59-23 28-213 92-235 79z"/>
    <path d="m1200 1464c-96-7-241-23-323-34-369-52-545-73-585-71-53 2-61-14-50-107 4-37 7-94 7-128 1-103 36-158 78-122 14 11 15 31 9 140l-6 126 28 6c24 6 292 40 623 81 183 22 450 37 620 33l157-3-45-99c-24-54-46-110-49-125-7-32 16-56 45-46 38 12 158 276 146 322-3 13-17 28-31 33-36 14-416 10-624-6z"/>
    <path d="m1342 1238c-33-33-12-55 115-124 58-31 76-37 90-28 50 31 17 72-104 133-69 34-83 37-101 19z"/>
    <path d="m898 1206c-9-20-7-30 8-55 26-41 140-131 166-131 27 0 88 65 88 95s-17 36-57 17c-29-14-33-13-62 7-17 12-43 38-57 57-32 42-69 46-86 10z"/>
    <path d="m481 1156c-6-7-20-46-30-87-11-41-37-112-60-158-30-62-38-88-31-101 14-26 35-30 60-13 32 23 97 167 116 258 15 72 15 78-2 96-20 22-37 24-53 5z"/>
    <path d="m616 1127c-12-9-17-23-14-42 4-38 107-112 255-183 178-85 409-140 457-109 25 17 72 165 56 181-15 15-40-2-68-48-25-42-30-45-68-46-56 0-228 52-339 102-85 39-226 126-240 148-8 13-18 13-39-3z"/>
    <path d="m821 738c-6-7-35-47-66-88-55-75-135-150-232-217-54-37-65-61-38-83 30-25 96 7 202 97l62 53 18-31c19-32 105-102 174-141 22-12 38-26 36-31-2-6-52-36-112-68-111-59-283-122-365-135-59-9-80-20-80-45 0-91 356 7 607 167l52 33 138-60c259-113 405-155 452-129 36 19 24 53-24 68-171 53-267 87-373 132l-122 52 51 56c66 72 128 164 151 224 40 107 17 131-112 118-47-5-147-9-222-9-115-1-138 1-138 14 0 8-9 19-19 25-25 13-28 13-40-2zm418-174c-19-31-66-91-105-132l-71-76-49 29c-86 49-158 104-187 140-27 34-28 36-10 60 17 24 22 24 143 26 69 0 166 4 215 8 50 3 92 5 94 4s-11-28-30-59z"/>
  </g>
</svg>
