<?xml version="1.0"?>
<svg xmlns="http://www.w3.org/2000/svg" height="200pt" preserveAspectRatio="xMidYMid meet" viewBox="0 0 200 200" width="200pt">
  <g transform="matrix(.1 0 0 -.1 0 200)">
    <path d="m1205 1926c-13-20-14-36-7-90 5-36 6-68 4-71-3-3-57-5-121-5-107 0-452-22-546-35-87-12-136-28-145-46-7-12-7-56 1-134 21-209-29-472-117-615-37-60-39-85-9-97 50-19 110 62 160 214 55 169 68 263 61 434l-6 146 58 7c122 13 482 36 579 36 98 0 103-1 107-22 49-238 66-283 161-423l74-109-36-48c-19-27-32-55-29-63 10-26 60-18 91 15l28 29 65-59c36-33 85-70 109-82l42-23 28 21c47 35 185 223 181 247-6 46-38 31-129-62-50-50-93-91-96-91-11 0-113 91-123 110-7 14 2 35 45 99 30 45 55 87 55 92 0 25-22 49-45 49-19 0-35-16-75-75-28-41-52-75-54-75s-31 42-64 93c-71 108-93 159-120 286l-20 93 148-3c158-4 184 3 178 45-5 37-44 46-194 46-162 0-150-7-160 98-4 37-11 73-17 80-15 20-45 14-62-12z"/>
    <path d="m1475 1927c-13-10-16-21-11-40 8-35 98-88 141-85 26 3 30 7 30 33 0 25-8 35-60 67-68 42-74 43-100 25z"/>
    <path d="m868 1466c-70-12-133-27-139-33-16-16-3-60 19-67 9-3 56 1 102 9 47 8 125 18 173 22 107 7 138 25 119 67-11 24-16 26-79 25-38 0-125-10-195-23z"/>
    <path d="m845 1216c-38-6-76-15-82-19-25-16-10-175 22-243 24-52 29-53 179-45 136 7 139 7 163 36 24 27 25 33 22 140-3 76-9 117-18 128-11 14-32 17-115 16-55-1-132-7-171-13zm213-138-3-73-95-6c-56-3-98-1-102 4-8 13-21 117-15 123 3 3 42 9 88 13 146 14 130 22 127-61z"/>
    <path d="m556 807c-13-20-13-31-1-92 8-39 32-106 54-150 34-69 57-97 153-190 124-121 179-156 324-204 113-38 219-51 409-51 163 0 175 4 175 51 0 20-11 37-43 63-58 47-127 78-144 64-18-14-16-25 8-59l20-29h-63c-107 0-239 19-323 46-142 46-203 85-317 202-90 93-108 117-136 183-17 42-34 96-38 120s-11 50-17 57c-15 19-45 14-61-11z"/>
    <path d="m1614 785c-8-33 9-51 106-120 128-89 170-102 185-55 10 31-2 43-124 124-124 82-157 92-167 51z"/>
    <path d="m1086 771c-27-30-11-63 74-145 80-78 105-89 133-58 23 25 40 108 27 132-15 29-47 25-64-7l-14-28-61 63c-33 34-65 62-69 62-5 0-17-8-26-19z"/>
    <path d="m284 667c-58-45-188-158-196-171-12-17-9-33 8-50 26-27 48-18 129 52 43 37 100 84 126 105 49 38 60 62 37 85-21 21-62 13-104-21z"/>
  </g>
</svg>
