<?xml version="1.0"?>
<svg xmlns="http://www.w3.org/2000/svg" height="200pt" preserveAspectRatio="xMidYMid meet" viewBox="0 0 200 200" width="200pt">
  <g transform="matrix(.1 0 0 -.1 0 200)">
    <path d="m483 1933c-11-10-44-47-73-83-30-36-78-90-108-121-44-46-53-62-50-85 5-42 36-42 241 5 96 23 185 41 197 41s31 5 42 11c17 9 26 5 63-31 33-33 48-41 71-38 24 2 30 8 32 32 3 26-8 41-87 118-73 71-97 88-120 88-43 0-57-30-31-63l20-26-57-11c-32-6-91-20-131-30l-72-18 32 42c18 22 47 59 65 80 34 41 42 73 21 94-17 17-32 15-55-5z"/>
    <path d="m1155 1906c-18-13-19-28-17-222s4-212 25-254c37-75 66-85 232-82 198 4 324 18 348 40 15 14 18 27 15 69-5 59-30 96-62 91-17-2-21-11-22-46 0-23-3-45-6-48s-96-8-205-11l-200-6-16 24c-13 18-17 46-17 120v97l46 7c60 9 233 62 251 76 18 15 17 44-3 60-19 16-83 4-216-39l-87-28-3 69c-2 57-7 72-24 83-17 12-23 12-39 0z"/>
    <path d="m530 1558c-121-13-180-23-190-34-13-12-15-67-17-341-3-337-1-353 38-353 38 0 49 37 49 162 0 88 3 118 13 118 6 0 83 7 170 17 86 9 159 14 161 12 3-3 8-52 12-109l7-105-21 18c-28 25-56 18-60-14-4-38 92-149 130-149 16 0 31 7 37 18 13 24-8 752-22 770-13 16-91 14-307-10zm230-121v-54l-137-6c-76-4-155-10-175-13l-38-7v52c0 46 2 51 23 52 12 0 74 6 137 13 63 8 132 14 153 15l37 1zm0-176v-28l-112-13c-62-7-141-15-175-19l-63-7v42 43l58 4c31 2 110 4 175 5l117 2z"/>
    <path d="m1186 1288c-13-18-16-53-16-172v-149l48-47c27-28 64-53 87-60 55-18 387-25 437-11 44 14 54 38 44 108-8 62-27 98-51 98-15 0-21-8-23-30-1-16-5-45-8-62l-5-33h-147c-160 1-220 10-264 41-25 18-28 27-28 73 0 49 1 52 28 54 64 5 346 72 353 84 13 20 11 35-7 52-22 22-38 21-214-19-85-19-156-35-157-35-2 0-3 22-3 48 0 35-5 54-18 65-25 23-38 21-56-5z"/>
    <path d="m556 807c-13-20-13-31-1-92 8-39 32-106 54-150 34-69 57-97 153-190 124-121 179-156 324-204 113-38 219-51 409-51 163 0 175 4 175 51 0 20-11 37-43 63-58 47-127 78-144 64-18-14-16-25 8-59l20-29h-63c-107 0-239 19-323 46-142 46-203 85-317 202-90 93-108 117-136 183-17 42-34 96-38 120s-11 50-17 57c-15 19-45 14-61-11z"/>
    <path d="m1614 785c-8-33 9-51 106-120 128-89 170-102 185-55 10 31-2 43-124 124-124 82-157 92-167 51z"/>
    <path d="m1086 771c-27-30-11-63 74-145 80-78 105-89 133-58 23 25 40 108 27 132-15 29-47 25-64-7l-14-28-61 63c-33 34-65 62-69 62-5 0-17-8-26-19z"/>
    <path d="m284 667c-58-45-188-158-196-171-12-17-9-33 8-50 26-27 48-18 129 52 43 37 100 84 126 105 49 38 60 62 37 85-21 21-62 13-104-21z"/>
  </g>
</svg>
