<?xml version="1.0"?>
<svg xmlns="http://www.w3.org/2000/svg" height="200pt" preserveAspectRatio="xMidYMid meet" viewBox="0 0 200 200" width="200pt">
  <g transform="matrix(.1 0 0 -.1 0 200)">
    <path d="m890 1885c-8-9-14-67-17-159l-6-144-101-7c-56-4-179-10-275-14-165-6-174-8-192-30-13-16-19-39-19-75 0-47 31-253 45-296 8-24 32-32 56-20 25 14 24 45-2 200-11 67-19 124-16 126 2 2 100 9 218 14 118 6 268 15 334 20 66 6 199 14 295 20s215 15 263 21c49 6 91 8 94 5s-16-53-42-110c-52-119-54-141-10-141 37 0 55 25 124 179 51 112 52 118 37 141s-23 25-84 25c-37 0-86-5-109-10-24-6-125-14-225-20-101-5-209-12-240-16l-58-7v145c0 148-5 168-41 168-9 0-22-7-29-15z"/>
    <path d="m902 1458c-7-7-12-38-12-69v-57l-97-17c-54-10-104-22-111-28s-12-22-10-36c3-24 7-26 53-26 28 0 74 4 103 9l52 8v-31c0-27-4-31-37-36-88-14-98-19-101-52-4-39 13-46 86-34l52 8v-58c0-67 21-56-184-89-152-24-180-35-184-72-4-33 20-42 79-29 143 32 585 81 731 81 56 0 81 4 92 16 23 22 20 41-9 60-22 14-42 15-197 5-95-7-188-14-205-17l-33-6v60 60l75 7c45 4 81 13 90 22 18 18 19 24 1 48-11 16-23 17-90 12l-76-5v34c0 20 5 34 13 34 6 1 59 5 116 10 82 6 108 12 118 26 17 23 16 29-3 48-17 17-84 20-186 7l-58-7v44c0 70-33 105-68 70z"/>
    <path d="m1305 830c-44-4-147-13-230-19-82-6-215-18-295-27s-160-17-179-19c-59-5-62-34-16-149 14-34 25-72 25-83 0-40 20-45 142-34 62 6 226 16 363 22 138 6 255 15 261 20s14 31 17 57c3 27 15 76 26 110 12 34 21 70 21 81 0 18-36 53-50 50-3-1-41-5-85-9zm35-82c-1-2-9-32-19-68l-18-65-78-3c-76-3-77-3-72 20 3 13 9 40 12 60 8 40 1 37 120 51 17 2 36 5 43 6 6 0 12 0 12-1zm-264-83-12-60-84-5-83-5-24 54c-13 29-22 55-20 58 3 3 223 20 234 18 1 0-4-27-11-60zm-292-17c26-61 22-66-50-67-38-1-41 1-62 44-33 67-36 63 71 73 12 1 24-14 41-50z"/>
    <path d="m1654 506c-12-31 4-53 71-98 80-55 127-62 133-20 5 31-7 43-87 91-70 43-108 51-117 27z"/>
    <path d="m1140 415c-6-8-9-23-5-33 8-27 155-122 187-122 30 0 98 71 98 102 0 23-32 24-70 1-28-16-29-16-95 25-71 45-95 51-115 27z"/>
    <path d="m712 398c-18-18-14-44 13-88 63-100 297-197 535-220 52-5 180-14 284-21l189-12 19 23c20 24 18 71-3 128-15 38-47 28-59-19l-11-42-82 7c-45 4-152 11-237 16-272 17-503 94-571 192-35 50-54 59-77 36z"/>
    <path d="m475 369c-17-17-69-60-117-95-90-68-106-88-87-110 27-32 89-6 194 83 73 62 97 101 79 131-18 27-38 25-69-9z"/>
  </g>
</svg>
