<?xml version="1.0"?>
<svg xmlns="http://www.w3.org/2000/svg" height="200pt" preserveAspectRatio="xMidYMid meet" viewBox="0 0 200 200" width="200pt">
  <g transform="matrix(.1 0 0 -.1 0 200)">
    <path d="m1160 1875c-9-11-11-59-9-182l4-168-75-7c-41-4-156-14-255-23s-243-25-320-36c-151-22-170-31-157-78 4-14 7-107 7-206-1-154-5-201-29-330-16-82-40-184-54-225-35-104-129-308-161-349-49-62-53-70-46-90 14-46 74-26 122 41 41 58 144 282 176 384 14 43 33 124 42 179 10 55 19 101 20 103 1 1 84 13 185 28 133 18 186 22 194 14 7-7 11-82 11-223 0-188-2-220-22-287-21-73-70-190-79-190-17 0-81 35-127 69-63 48-97 54-97 17 0-54 189-201 249-194 21 2 34 17 68 84 23 44 54 121 69 170 24 78 27 111 32 266 5 204-9 339-39 369-24 24-41 24-247-6-95-14-173-25-175-25-1 0-1 87-1 193l2 192 46 7c91 13 334 38 466 48 74 6 149 13 166 16l30 5 12-123c15-159 52-362 104-563 22-88 43-169 45-180 3-14-19-45-76-107-85-91-99-123-57-134 32-8 50 4 114 69l54 55 34-66c19-36 50-85 70-108 41-51 196-185 226-196 34-13 55 9 88 94 67 175 88 302 54 315-25 9-41-15-78-122-19-55-42-117-51-138l-16-39-72 64c-80 72-136 147-166 224l-20 52 72 109c40 60 91 148 115 195 37 73 42 90 32 108-8 15-19 20-38 18-22-2-35-18-75-93-66-123-129-218-137-208-7 8-47 162-74 288-30 137-56 298-62 389-6 81-5 94 10 99 9 4 112 10 229 13 117 4 220 11 230 16 9 5 17 19 17 32 0 47-16 50-228 42-108-4-213-9-233-12l-36-6-7 168c-4 93-12 174-18 181-14 17-43 16-58-2z"/>
    <path d="m1444 1835c-13-33 9-67 89-133 99-83 117-94 140-81 35 20 20 55-50 116-37 32-80 70-96 86-33 30-74 36-83 12z"/>
  </g>
</svg>
