<?xml version="1.0"?>
<svg xmlns="http://www.w3.org/2000/svg" height="200pt" preserveAspectRatio="xMidYMid meet" viewBox="0 0 200 200" width="200pt">
  <g transform="matrix(.1 0 0 -.1 0 200)">
    <path d="m523 1828c-5-7-18-44-28-81-21-82-67-147-184-262-82-80-93-102-66-125 24-20 62 2 148 83l76 72 5-30c10-65 18-285 10-285-21 0-374-69-384-75-14-8-13-38 2-53 7-7 24-12 38-12 23 0 260 40 328 55l22 5-2-247-3-248-132-90c-163-112-193-138-193-169 0-38 35-43 78-11 76 55 244 166 247 163 1-2 5-74 7-160 4-146 3-156-13-147-23 12-56 12-64-1-10-16 21-63 69-108 51-47 49-46 78-31 20 11 20 17 17 264l-4 254 97 80c91 76 117 108 103 131-12 19-32 10-118-50l-86-60 6 218c3 119 8 220 12 224 6 7 306 52 436 66l70 7 32-129c38-148 99-296 184-445 32-58 59-107 59-111 0-22-221-154-302-179-38-12-51-30-42-56 19-48 209 20 352 127 28 21 52 35 52 31 0-5 26-41 58-81 63-79 214-202 249-202 33 0 48 21 94 137 48 125 58 208 24 208-21 0-25-6-86-143-23-50-44-92-47-92-2 0-26 16-52 35-55 40-102 91-149 158l-33 48 37 41c53 58 185 239 185 253 0 19-38 48-54 42-8-3-48-50-89-104-101-131-124-159-129-153-14 16-82 137-118 208-61 124-147 399-129 416 2 2 132 14 289 26s293 26 303 31c20 11 22 40 5 57s-115 15-383-8c-126-10-232-17-234-14-3 3-7 105-8 226-2 122-7 226-12 231-15 15-45 3-58-23-10-19-13-78-11-238 2-116 0-212-3-212-18 0-326-43-403-56-66-11-91-12-96-4-4 6-10 71-14 143-4 73-11 159-15 191-7 49-5 67 11 103 28 64 34 135 13 156-20 20-39 22-52 5z"/>
    <path d="m1416 1647c-31-23-15-57 52-114 48-41 70-53 90-51 48 5 39 35-35 109-38 38-74 69-79 69-6 0-18-6-28-13z"/>
  </g>
</svg>
