<?xml version="1.0"?>
<svg xmlns="http://www.w3.org/2000/svg" height="200pt" preserveAspectRatio="xMidYMid meet" viewBox="0 0 200 200" width="200pt">
  <g transform="matrix(.1 0 0 -.1 0 200)">
    <path d="m416 1744c-9-8-16-22-16-29 0-8 28-51 63-97 53-72 66-83 92-83s30 4 33 30c2 23-12 49-59 113-62 84-83 97-113 66z"/>
    <path d="m805 1746c-32-22-137-182-133-203 2-10 14-19 27-21 26-4 85 52 140 132 35 51 37 72 6 92-18 12-24 12-40 0z"/>
    <path d="m192 1738c-20-20-14-38 44-119 57-79 77-95 107-83 39 15 30 43-46 149-44 62-79 79-105 53z"/>
    <path d="m1282 1698c-9-9-12-70-12-215 0-146-3-203-12-203-47 0-286-34-296-43-7-6-12-19-10-30 6-38 28-42 173-28 153 15 155 15 155-49 0-38 73-402 91-459 12-35 12-35-51-94-90-85-250-210-309-242-56-31-69-51-47-73 39-39 210 60 382 220 34 32 64 55 67 51s25-61 50-125c67-171 161-308 213-308 29 0 32 5 72 120 91 261 99 302 56 308-23 3-23 4-97-170l-53-126-31 46c-17 26-51 101-77 167s-51 131-57 143c-8 20-4 31 30 70 66 80 141 194 141 217 0 25-18 45-41 45-10 0-40-32-73-77-30-43-64-89-75-103l-19-24-10 39c-16 61-70 334-77 391-6 48-5 52 17 58 13 3 106 6 208 6 196 0 210 3 210 46 0 44-17 47-240 42l-210-4v189c0 111-4 196-10 208-12 21-40 25-58 7z"/>
    <path d="m1542 1558c-23-23-11-54 48-125 62-75 100-94 114-57 10 27-3 55-61 127-53 66-77 79-101 55z"/>
    <path d="m403 1385c-112-15-140-25-152-59-9-22 0-144 19-260 5-33 10-83 10-109 0-41 5-53 31-79 30-30 31-31 113-26l83 6 7-100c4-55 5-102 3-105-3-2-85-22-182-43-97-22-184-45-192-51-8-7-13-24-11-38 2-20 9-27 30-29 22-3 151 22 336 63 21 5 22 3 22-82 1-159 19-404 31-419 16-20 57-17 67 3 5 11 6 82 1 168-4 83-8 196-8 251l-1 101 73 11c39 7 97 15 127 18 64 8 80 18 80 50 0 39-33 45-160 28-62-8-115-12-118-9s-8 45-10 94l-4 88 97 7c54 4 102 9 106 12 5 3 9 112 9 242 0 199-3 241-16 260-14 21-21 22-152 21-75-1-183-7-239-14zm317-129v-64l-67-4c-38-2-70-3-72-1-10 6-16 123-7 127 6 2 41 5 79 5l67 1zm-240 25c0-10 3-38 6-63l6-44-71-15c-81-18-75-23-86 73l-6 57 33 4c88 11 118 8 118-12zm240-256v-75h-64-64l-4 71c-2 39-1 73 1 75s33 4 68 4h63zm-220-15v-70h-65c-65 0-65 0-65 29 0 16-3 42-6 58-6 28-4 30 38 40 23 6 55 11 71 12 27 1 27 1 27-69z"/>
  </g>
</svg>
