<?xml version="1.0"?>
<svg xmlns="http://www.w3.org/2000/svg" height="200pt" preserveAspectRatio="xMidYMid meet" viewBox="0 0 200 200" width="200pt">
  <g transform="matrix(.1 0 0 -.1 0 200)">
    <path d="m1115 1719c-277-23-533-57-593-80-19-7-23-15-20-41 3-32 4-33 48-32 25 0 108 10 185 22 192 29 512 53 677 51 144-2 168 4 168 42 0 41-35 49-205 48-88-1-205-5-260-10z"/>
    <path d="m1120 1404c-159-17-386-51-468-70-35-8-74-14-87-14s-27-6-32-12c-4-7-6-89-5-183 4-189-5-248-59-400-54-155-126-278-226-386-54-58-62-82-29-95 8-3 35 3 60 14 105 47 265 331 321 572 13 55 22 76 34 76 9 1 63 9 121 19 80 13 183 19 429 22 300 5 324 6 342 24 10 10 19 31 19 47 0 15 14 97 32 183 45 219 45 220-202 218-69-1-181-7-250-15zm380-96c0-13-13-77-28-143l-28-120-289-6c-263-6-405-19-509-45l-26-6v95c0 52-3 108-6 124-6 29-4 31 38 41 146 36 528 80 706 81 141 1 142 1 142-21z"/>
  </g>
</svg>
