<?xml version="1.0"?>
<svg xmlns="http://www.w3.org/2000/svg" height="200pt" preserveAspectRatio="xMidYMid meet" viewBox="0 0 200 200" width="200pt">
  <g transform="matrix(.1 0 0 -.1 0 200)">
    <path d="m1438 1809c-10-5-26-30-37-54-38-86-254-347-342-412-58-44-69-68-41-93 28-26 34-76 22-177-24-195-72-353-130-428-42-55-48-73-28-93 34-34 103 19 147 112 47 101 101 338 101 447 0 49 0 49 34 49 18 0 91 9 162 20 169 26 160 27 169-17 4-21 6-265 6-544-1-453 0-509 14-523 21-21 38-20 59 3 16 17 17 60 14 547-2 291-7 536-11 545-7 14 6 17 105 23 82 5 117 11 130 23 23 21 23 36-1 57-17 15-33 17-128 11-149-8-265-21-421-47-104-16-135-19-145-9-9 9-3 20 31 47 83 69 296 338 330 417 27 63 3 120-40 96z"/>
    <path d="m620 1649c-177-22-315-46-342-60-10-5-18-21-18-34 0-43 27-47 157-26 65 11 192 27 283 36 91 10 173 21 183 26 20 11 23 49 5 67-16 16-81 14-268-9z"/>
    <path d="m562 1295c-106-18-201-31-210-29-36 9-45-10-43-97 3-160-43-358-150-641-39-104-69-198-67-210 4-31 48-36 72-9 22 24 150 364 173 459l16 70 106 11c178 18 338 24 346 12 10-18 53-13 64 7 15 29 34 418 21 442-15 29-93 25-328-15zm240-142c-1-49-5-111-8-140l-5-52-52-5c-29-3-99-8-157-11s-129-9-158-14c-44-7-52-6-48 6 3 7 11 64 18 126 6 62 13 114 14 116 3 3 344 58 379 60 19 1 20-4 17-86z"/>
  </g>
</svg>
