<?xml version="1.0"?>
<svg xmlns="http://www.w3.org/2000/svg" height="200pt" preserveAspectRatio="xMidYMid meet" viewBox="0 0 200 200" width="200pt">
  <g transform="matrix(.1 0 0 -.1 0 200)">
    <path d="m1123 1896c-48-42-207-147-360-235-99-57-118-72-118-92 0-54 92-30 245 64 41 25 78 44 81 41 10-5 75-164 93-222l14-48-177-27c-289-44-355-67-325-114 15-24 65-22 244 10 80 14 175 28 212 32 65 7 67 6 73-16 11-46 35-225 35-260v-35l-166-12c-297-22-701-80-764-110-25-12-36-25-38-44-5-40 19-42 169-14 172 31 429 63 640 79l166 12 6-180c6-167-3-509-14-519-2-2-55 20-118 50s-122 54-132 54c-32 0-22-36 20-72 41-35 256-158 276-158 6 0 19 8 28 18 21 24 39 401 30 641l-6 170 24 5c38 9 471 36 565 36 81 0 85 1 96 26 11 23 10 29-11 45-18 15-40 19-102 19-80 0-474-25-540-35l-36-5-7 73c-3 39-13 112-22 161-8 48-14 90-12 91 6 6 256 35 299 35 70 0 112 43 77 78-16 16-131 15-248-3-159-25-152-27-179 58-13 39-40 109-61 153l-38 82 78 56c88 64 108 92 91 125-17 30-45 26-88-13z"/>
  </g>
</svg>
