<?xml version="1.0"?>
<svg xmlns="http://www.w3.org/2000/svg" height="200pt" preserveAspectRatio="xMidYMid meet" viewBox="0 0 200 200" width="200pt">
  <g transform="matrix(.1 0 0 -.1 0 200)">
    <path d="m1007 1903c-12-11-8-52 13-132 25-98 61-321 54-332-3-5-22-9-43-9-45 0-367-33-580-59-86-11-183-22-216-26s-66-12-72-17c-17-13-17-55-1-64 19-12 113-6 333 20 110 14 287 33 393 42 163 15 195 16 202 4 5-7 11-61 14-119 4-58 9-131 12-163l6-56-80-89c-160-178-598-583-706-653-103-66-102-66-90-87 16-26 66-28 111-4 85 43 337 265 606 533l167 167v-345c0-189-2-344-5-344s-21 25-41 55c-35 52-64 69-79 45-10-16 23-104 56-150 33-45 105-85 134-74 9 4 20 16 23 28 4 11 5 217 2 456l-5 435 37 51c52 72 138 225 138 245 0 22-25 42-47 37-17-3-44-39-108-144l-29-49-8 95c-4 52-9 107-12 121-5 26-4 27 62 33 138 13 371 26 489 26 128 0 153 8 153 49 0 42-18 44-273 38-133-4-287-11-341-17-55-5-101-9-102-7-1 1-14 72-29 157-27 155-58 274-77 298-11 13-50 17-61 5z"/>
  </g>
</svg>
