<?xml version="1.0"?>
<svg xmlns="http://www.w3.org/2000/svg" height="200pt" preserveAspectRatio="xMidYMid meet" viewBox="0 0 200 200" width="200pt">
  <g transform="matrix(.1 0 0 -.1 0 200)">
    <path d="m502 1768c-8-8-12-66-12-193v-182l-142-37c-79-20-148-36-155-36-17 0-34-35-27-55 14-35 48-35 186-1l133 34 5-222c5-189 4-224-10-240-8-10-62-59-120-109-180-153-221-197-218-226 2-20 9-27 32-29 22-3 38 5 70 35 22 22 89 81 149 132l107 92v-226-225l-52 40c-56 42-85 50-95 25-6-19 22-60 101-150 46-52 63-65 86-65 19 0 33 7 40 19 6 13 10 140 10 345v324l108 92c121 104 145 131 136 154-13 35-68 11-179-79-31-26-60-44-63-40-4 4-8 89-10 190l-4 183 104 12c57 7 109 17 116 22 17 14 15 53-3 68-15 13-105 10-182-6l-31-6-7 173c-4 96-12 180-17 187-13 15-40 16-56 0z"/>
    <path d="m972 1688c-9-9-12-111-12-397 0-213-5-429-10-481-6-52-13-213-17-357-7-282-5-293 43-293 15 0 30 10 41 28 41 64 126 175 218 282 126 147 155 188 155 217 0 26-21 39-43 26-17-10-190-199-269-295l-58-70v119c0 65 7 210 15 323s15 233 15 268c0 38 4 62 11 62 20 0 274 103 292 118 23 20 22 38-4 55-24 17-28 17-183-42-60-23-110-40-112-39-2 2-6 107-10 233-4 127-11 236-17 243-12 15-39 16-55 0z"/>
    <path d="m1472 1667c-17-20-19-157-10-647 10-567 19-709 49-756 36-58 58-64 248-64 212 0 204-5 196 129-15 236-30 321-55 321-23 0-30-48-30-199v-161h-134c-97 0-137 4-144 13-23 28-34 156-39 475l-5 332h21c24 0 180 76 259 127 57 36 66 64 29 87-15 9-45-3-167-67l-150-78v225c0 123-4 236-10 250-10 28-40 35-58 13z"/>
  </g>
</svg>
