<?xml version="1.0"?>
<svg xmlns="http://www.w3.org/2000/svg" height="200pt" preserveAspectRatio="xMidYMid meet" viewBox="0 0 200 200" width="200pt">
  <g transform="matrix(.1 0 0 -.1 0 200)">
    <path d="m950 1904c-118-12-243-23-278-23-48-1-66-5-82-21s-18-25-10-40c6-11 21-22 33-25s123 4 246 15c123 12 225 19 227 17 3-2-52-64-121-136s-125-139-125-148 11-39 24-67c14-28 27-65 31-82 6-30 4-32-32-37-21-4-69-9-108-13-96-9-134-45-82-78 19-12 39-13 134-2l112 12 12-56c6-30 15-73 19-95 5-22 8-40 7-40-1-1-42-7-91-14-110-15-128-24-124-59 3-26 6-27 58-27 30 1 82 3 115 5l60 5 3-106 3-106-53-6c-29-4-105-9-168-13-130-8-150-14-150-50 0-43 29-47 210-32l163 13-7-100c-6-95-55-357-70-372-11-11-71 23-125 71-82 73-111 81-111 31 0-33 80-118 166-176 79-53 94-57 118-34 41 41 102 303 113 480 3 55 11 103 17 107s67 8 137 8c133 0 149 5 149 47 0 38-39 46-177 39l-122-6-3 109-3 110 29 5c16 3 44 6 63 6 47 0 73 16 73 45 0 34-15 40-104 40h-80l-18 85c-9 47-17 88-18 93 0 4 42 7 94 7 73 0 98 4 110 16 21 20 20 38-1 60-15 14-31 16-120 11l-102-7-11 43c-6 23-17 59-25 81l-14 38 114 122c141 150 174 193 175 228 0 27-24 49-52 47-7-1-110-12-228-25z"/>
    <path d="m1489 1290c-86-87-172-167-192-176-48-23-49-53-4-115 17-25 61-94 97-153 185-305 319-488 439-599 54-51 84-58 105-24 13 21 17 15-104 152-125 141-147 172-323 447l-149 232 29 19c46 32 300 292 307 315 9 27-10 62-32 61-9-1-87-72-173-159z"/>
    <path d="m670 1163c-8-1-118-12-244-23s-235-25-243-31c-19-17-16-37 10-54 20-13 43-13 202 0 99 8 188 15 198 15 14 0 8-19-37-108-69-139-165-282-303-451-85-106-119-140-158-160-62-32-68-41-48-63 23-26 83-23 126 6 102 70 344 395 453 611 31 60 70 132 87 158 25 40 28 52 19 71-10 23-34 34-62 29z"/>
  </g>
</svg>
