<?xml version="1.0"?>
<svg xmlns="http://www.w3.org/2000/svg" height="200pt" preserveAspectRatio="xMidYMid meet" viewBox="0 0 200 200" width="200pt">
  <g transform="matrix(.1 0 0 -.1 0 200)">
    <path d="m504 1776c-18-14-19-26-16-199l3-184-88-22c-142-34-217-55-230-64-21-14-15-45 13-63 24-16 31-16 149 14 68 18 131 32 140 32 14 0 15-27 13-227l-3-227-169-145c-93-80-172-156-177-167-8-24 13-64 36-64 7 0 81 59 165 131 83 72 153 129 155 127s1-99-2-215l-6-211-52 39c-72 54-113 35-68-31 30-45 125-151 150-167 21-14 25-14 48 1l25 16v333 333l92 80c134 115 160 141 156 161-8 46-83 15-198-82l-45-38-7 49c-9 69-10 322 0 327 4 3 50 10 102 16 113 14 142 32 121 77l-12 27-87-7c-48-3-96-9-108-12-20-5-21-2-28 173-5 149-9 180-23 191-21 15-25 15-49-2z"/>
    <path d="m1370 1649c-69-4-149-12-179-18-29-6-71-11-93-11-51 0-58-20-40-118 9-50 12-124 9-212-3-124-7-144-41-243-20-60-36-118-34-130 4-29 48-35 71-10 22 25 65 140 82 225 16 74 19 271 6 350-6 39-5 49 8 52 34 11 150 25 251 31l105 7 1-149c0-158 19-278 55-363 25-57 96-130 125-130 26 0 74 54 104 116 49 100-2 129-70 39-37-50-50-48-75 11-33 81-49 198-50 367 0 155-2 170-19 183-21 15-24 15-216 3z"/>
    <path d="m1030 809c-26-48 58-196 181-319l63-63-39-33c-75-62-176-112-305-149-69-20-135-34-146-31-13 4-27-1-35-10-11-14-10-19 10-35 17-14 39-19 85-19 139 0 327 72 446 171l56 46 34-29c63-53 163-106 315-167 160-65 217-75 234-42 7 13 7 23-2 35-7 9-87 47-179 85-176 73-251 111-308 159l-34 29 30 35c45 51 182 251 194 283 8 22 7 33-5 51-14 22-22 24-108 24-50 0-163-5-250-11-117-8-161-9-170 0-18 18-55 13-67-10zm478-77c-9-22-131-191-152-211l-24-22-63 64c-35 36-79 85-97 110l-33 46 33 6c75 12 341 18 336 7z"/>
  </g>
</svg>
