<?xml version="1.0"?>
<svg xmlns="http://www.w3.org/2000/svg" height="200pt" preserveAspectRatio="xMidYMid meet" viewBox="0 0 200 200" width="200pt">
  <g transform="matrix(.1 0 0 -.1 0 200)">
    <path d="m1317 1695c-48-52-143-141-210-199s-134-121-150-140l-27-35 11-123c26-299-31-582-158-781-14-21-15-31-7-45 40-63 128 39 190 221 40 117 64 281 64 442v143l118 22c64 12 125 24 135 26 16 5 17-8 17-183 0-103 5-253 11-333 5-80 14-252 18-382 9-255 13-272 60-266l26 3 3 145c2 80-4 249-13 375-9 127-17 327-18 445l-2 214 70 13c39 6 114 15 168 19 100 7 122 17 115 51-7 36-49 45-162 33-90-9-508-82-543-95-8-3-13 5-13 20 0 18 26 46 113 118 122 102 313 295 326 330 11 29-4 57-32 57-16 0-49-29-110-95z"/>
    <path d="m502 1768c-8-8-12-66-12-193v-182l-142-37c-79-20-148-36-155-36-17 0-34-35-27-55 14-35 48-35 186-1l133 34 5-222c5-189 4-224-10-240-8-10-62-59-120-109-180-153-221-197-218-226 2-20 9-27 32-29 22-3 38 5 70 35 22 22 89 81 149 132l107 92v-226-225l-52 40c-56 42-85 50-95 25-6-19 22-60 101-150 46-52 63-65 86-65 19 0 33 7 40 19 6 13 10 140 10 345v324l108 92c121 104 145 131 136 154-13 35-68 11-179-79-31-26-60-44-63-40-4 4-8 89-10 190l-4 183 104 12c57 7 109 17 116 22 17 14 15 53-3 68-15 13-105 10-182-6l-31-6-7 173c-4 96-12 180-17 187-13 15-40 16-56 0z"/>
  </g>
</svg>
