<?xml version="1.0"?>
<svg xmlns="http://www.w3.org/2000/svg" height="200pt" preserveAspectRatio="xMidYMid meet" viewBox="0 0 200 200" width="200pt">
  <g transform="matrix(.1 0 0 -.1 0 200)">
    <path d="m502 1768c-8-8-12-66-12-193v-182l-142-37c-79-20-148-36-155-36-17 0-34-35-27-55 14-35 48-35 186-1l133 34 5-222c5-189 4-224-10-240-8-10-62-59-120-109-180-153-221-197-218-226 2-20 9-27 32-29 22-3 38 5 70 35 22 22 89 81 149 132l107 92v-226-225l-52 40c-56 42-85 50-95 25-6-19 22-60 101-150 46-52 63-65 86-65 19 0 33 7 40 19 6 13 10 140 10 345v324l108 92c121 104 145 131 136 154-13 35-68 11-179-79-31-26-60-44-63-40-4 4-8 89-10 190l-4 183 104 12c57 7 109 17 116 22 17 14 15 53-3 68-15 13-105 10-182-6l-31-6-7 173c-4 96-12 180-17 187-13 15-40 16-56 0z"/>
    <path d="m1130 1633c-171-3-186-5-202-23-14-18-16-50-12-298 2-152 9-391 16-530l11-253 29-15c24-12 77-14 353-8 212 5 328 11 332 18 4 6 8 51 10 101 1 49 7 180 13 290 7 110 12 312 13 448 2 236 1 249-17 263-21 15-23 15-546 7zm480-160c0-43-3-129-7-190l-6-113h-112c-102 0-401-23-451-35-20-4-21 0-28 168-3 94-9 189-12 210l-7 37h312 311zm-25-628c-7-132-14-241-14-241-1-1-436-17-500-18-42-1-44 0-46 29-11 179-16 435-9 435 5 0 50 5 99 11 63 8 436 26 481 24 1 0-4-108-11-240z"/>
    <path d="m957 271c-220-17-236-21-237-58 0-7 11-19 23-28 22-14 44-14 228 1 145 12 301 17 543 15 240-1 343 2 352 10 17 14 18 55 2 65-6 4-165 8-352 10-252 2-398-2-559-15z"/>
  </g>
</svg>
