<?xml version="1.0"?>
<svg xmlns="http://www.w3.org/2000/svg" height="200pt" preserveAspectRatio="xMidYMid meet" viewBox="0 0 200 200" width="200pt">
  <g transform="matrix(.1 0 0 -.1 0 200)">
    <path d="m502 1768c-8-8-12-66-12-193v-182l-142-37c-79-20-148-36-155-36-17 0-34-35-27-55 14-35 48-35 186-1l133 34 5-222c5-189 4-224-10-240-8-10-62-59-120-109-180-153-221-197-218-226 2-20 9-27 32-29 22-3 38 5 70 35 22 22 89 81 149 132l107 92v-226-225l-52 40c-56 42-85 50-95 25-6-19 22-60 101-150 46-52 63-65 86-65 19 0 33 7 40 19 6 13 10 140 10 345v324l108 92c121 104 145 131 136 154-13 35-68 11-179-79-31-26-60-44-63-40-4 4-8 89-10 190l-4 183 104 12c57 7 109 17 116 22 17 14 15 53-3 68-15 13-105 10-182-6l-31-6-7 173c-4 96-12 180-17 187-13 15-40 16-56 0z"/>
    <path d="m1505 1693c-200-20-546-62-554-68-16-9-13-51 3-64 11-9 42-9 135 2l121 13v-25c-1-52-41-205-68-260-15-31-51-88-80-127-53-73-66-119-37-130 35-14 61 8 122 98 91 136 119 208 143 376l12 79 113 11c62 7 141 12 175 12h63l-6-64c-8-86-80-303-131-396-36-66-44-75-67-72-14 2-31-4-38-12-11-13-8-21 23-52 28-28 42-35 68-32 30 3 36 10 85 103 117 222 186 523 137 593-14 20-23 22-97 20-45-1-100-3-122-5z"/>
    <path d="m1590 853c-73-3-502-47-568-58-62-11-72-32-72-152 0-60 7-173 14-253 8-79 13-147 11-150s0-12 5-20c8-13 68-14 397-12 258 2 391 6 400 14 17 14 17 53-1 67-10 8-15 66-20 234-7 220-16 301-32 317-14 13-51 17-134 13zm63-91c3-4 8-109 12-235l8-227h-200c-110 0-247-3-305-6l-105-7-6 54c-19 159-29 361-19 368 7 4 96 16 199 26 356 36 409 39 416 27z"/>
  </g>
</svg>
