<?xml version="1.0"?>
<svg xmlns="http://www.w3.org/2000/svg" height="200pt" preserveAspectRatio="xMidYMid meet" viewBox="0 0 200 200" width="200pt">
  <g transform="matrix(.1 0 0 -.1 0 200)">
    <path d="m502 1768c-8-8-12-66-12-193v-182l-142-37c-79-20-148-36-155-36-17 0-34-35-27-55 14-35 48-35 186-1l133 34 5-222c5-189 4-224-10-240-8-10-62-59-120-109-180-153-221-197-218-226 2-20 9-27 32-29 22-3 38 5 70 35 22 22 89 81 149 132l107 92v-226-225l-52 40c-56 42-85 50-95 25-6-19 22-60 101-150 46-52 63-65 86-65 19 0 33 7 40 19 6 13 10 140 10 345v324l108 92c121 104 145 131 136 154-13 35-68 11-179-79-31-26-60-44-63-40-4 4-8 89-10 190l-4 183 104 12c57 7 109 17 116 22 17 14 15 53-3 68-15 13-105 10-182-6l-31-6-7 173c-4 96-12 180-17 187-13 15-40 16-56 0z"/>
    <path d="m1590 1773c-154-12-609-55-684-65-99-12-135-33-117-67 15-27 28-29 106-20 96 12 369 39 371 36 1-1 5-56 9-123l7-121-128-12c-71-7-146-16-166-22-42-11-59-42-36-66 13-12 32-13 124-4 60 6 133 13 162 16l52 5v-154-153l-87-11c-49-6-119-14-158-18-89-9-107-18-103-52 3-24 8-27 48-30 44-4 247 14 283 24 16 5 17-6 17-130 0-101-3-136-12-136-33 0-452-53-517-65-79-16-101-27-101-55 0-38 24-43 117-26 102 18 424 56 475 56h35l7-77c3-42 6-142 6-223 0-132 2-149 19-164 28-25 57-7 65 41 3 21 3 127-1 236l-6 198 251-2c256-2 282 2 282 37 0 37-23 41-279 49l-251 7v133 132l68 6c37 4 103 7 148 7 90 0 118 12 112 50-5 38-40 45-190 34-73-6-135-9-137-7-3 2-7 68-9 147l-4 144 28 5c16 3 74 9 129 12 104 7 135 20 135 56 0 34-30 39-164 27-70-6-128-9-130-7s-7 58-11 125l-7 121 168 11c93 7 192 12 220 12 27 0 55 5 62 12 18 18 14 56-7 68-19 9-100 11-201 3z"/>
  </g>
</svg>
