<?xml version="1.0"?>
<svg xmlns="http://www.w3.org/2000/svg" height="200pt" preserveAspectRatio="xMidYMid meet" viewBox="0 0 200 200" width="200pt">
  <g transform="matrix(.1 0 0 -.1 0 200)">
    <path d="m1298 1919c-16-9-18-28-18-159 0-113-3-150-12-150-7 0-88-11-181-23-120-17-172-28-184-40-16-16-16-24 0-124 10-60 22-162 28-228 13-140 6-506-11-580-26-113-72-257-100-317-17-35-30-73-30-85 0-25 25-43 51-36 38 10 115 204 162 413 19 85 22 122 21 350-2 235-10 341-40 511l-6 35 223 29c134 17 301 30 414 34 105 3 196 10 203 14 15 10 16 49 0 65-14 14-260 16-373 3-38-5-71-7-72-7-1 1-5 65-9 141-5 110-10 143-22 153-19 14-22 14-44 1z"/>
    <path d="m502 1768c-8-8-12-66-12-193v-182l-142-37c-79-20-148-36-155-36-17 0-34-35-27-55 14-35 48-35 186-1l133 34 5-222c5-189 4-224-10-240-8-10-62-59-120-109-180-153-221-197-218-226 2-20 9-27 32-29 22-3 38 5 70 35 22 22 89 81 149 132l107 92v-226-225l-52 40c-56 42-85 50-95 25-6-19 22-60 101-150 46-52 63-65 86-65 19 0 33 7 40 19 6 13 10 140 10 345v324l108 92c121 104 145 131 136 154-13 35-68 11-179-79-31-26-60-44-63-40-4 4-8 89-10 190l-4 183 104 12c57 7 109 17 116 22 17 14 15 53-3 68-15 13-105 10-182-6l-31-6-7 173c-4 96-12 180-17 187-13 15-40 16-56 0z"/>
    <path d="m1357 1346c-9-10-17-48-22-103-19-236-86-542-189-868-32-100-34-112-20-132 19-29 39-29 78 1 71 54 161 89 358 141l128 33 67-96c77-111 107-142 137-142 24 0 46 17 46 35 0 6-21 38-46 71-26 32-74 100-107 149-149 223-188 260-225 223-20-20-13-40 34-103l45-60-33-8c-91-21-231-63-295-87-40-16-73-24-73-20 0 5 11 44 24 87 29 91 101 373 116 453 15 76 40 305 40 362 0 64-31 96-63 64z"/>
  </g>
</svg>
