<?xml version="1.0"?>
<svg xmlns="http://www.w3.org/2000/svg" height="200pt" preserveAspectRatio="xMidYMid meet" viewBox="0 0 200 200" width="200pt">
  <g transform="matrix(.1 0 0 -.1 0 200)">
    <path d="m502 1768c-8-8-12-66-12-193v-182l-142-37c-79-20-148-36-155-36-17 0-34-35-27-55 14-35 48-35 186-1l133 34 5-222c5-189 4-224-10-240-8-10-62-59-120-109-180-153-221-197-218-226 2-20 9-27 32-29 22-3 38 5 70 35 22 22 89 81 149 132l107 92v-226-225l-52 40c-56 42-85 50-95 25-6-19 22-60 101-150 46-52 63-65 86-65 19 0 33 7 40 19 6 13 10 140 10 345v324l108 92c121 104 145 131 136 154-13 35-68 11-179-79-31-26-60-44-63-40-4 4-8 89-10 190l-4 183 104 12c57 7 109 17 116 22 17 14 15 53-3 68-15 13-105 10-182-6l-31-6-7 173c-4 96-12 180-17 187-13 15-40 16-56 0z"/>
    <path d="m1290 1678c-23-90-103-314-132-372-46-92-169-254-295-388-66-70-70-77-51-96 17-17 48-15 84 7 57 35 280 314 331 416 15 27 45 102 69 165 32 87 44 110 50 95 26-72 61-146 89-191 66-103 203-270 271-330 132-116 181-143 212-112 22 22 12 47-35 85-124 99-200 175-282 282-100 131-145 214-190 350-34 104-52 131-87 131-19 0-25-8-34-42z"/>
    <path d="m1375 963c-109-10-271-36-282-45-18-15-16-57 3-65 10-3 63-1 119 6 57 6 163 14 236 18 74 3 142 10 152 15 23 12 22 55-2 68-18 9-136 11-226 3z"/>
    <path d="m1340 699c-159-13-295-28-314-35-26-10-36-46-26-90 5-22 24-104 41-184s35-152 40-161c15-30 81-39 270-38 169 0 271 8 284 21 7 7 31 159 44 278 6 52 13 116 17 141 10 72-4 79-139 78-62-1-159-6-217-10zm260-91c-1-64-42-313-52-320-7-4-98-7-202-5l-190 2-33 149c-19 82-31 151-28 154 7 7 305 29 418 31 64 1 87-2 87-11z"/>
  </g>
</svg>
