<?xml version="1.0"?>
<svg xmlns="http://www.w3.org/2000/svg" height="200pt" preserveAspectRatio="xMidYMid meet" viewBox="0 0 200 200" width="200pt">
  <g transform="matrix(.1 0 0 -.1 0 200)">
    <path d="m1310 1776c-5-14-5-62 0-117 5-51 7-95 5-97s-68-12-146-22c-141-18-159-25-159-61 0-38 24-43 158-30 70 7 135 15 145 17 16 5 17-7 17-158v-163l-175-23c-192-25-231-35-245-62-12-22-4-46 16-54 8-3 69 3 137 13 166 26 485 57 493 48 7-7 26-198 20-204-2-2-100-8-217-13-288-13-335-23-326-70 5-28 42-36 138-29 52 4 165 9 253 13l159 5-5-259c-3-143-7-262-9-265-3-2-25 3-50 12-51 19-79 13-79-16 0-27 31-54 106-93 53-27 66-31 87-21 24 11 25 15 32 150 3 76 7 220 8 320l2 183h61c73 0 97 14 92 55l-3 30-77 3c-89 3-83-6-93 128l-6 81 62 7c34 3 79 6 99 6 51 0 85 28 77 62-4 14-15 27-24 30-10 2-109-3-221-11-111-8-204-12-206-10s-7 74-11 160l-7 156 124 5c68 3 131 9 140 13 27 11 32 44 12 66-17 19-26 20-150 13l-132-7-6 29c-3 16-8 61-12 99-3 39-11 78-16 88-13 26-57 22-68-7z"/>
    <path d="m502 1768c-8-8-12-66-12-193v-182l-142-37c-79-20-148-36-155-36-17 0-34-35-27-55 14-35 48-35 186-1l133 34 5-222c5-189 4-224-10-240-8-10-62-59-120-109-180-153-221-197-218-226 2-20 9-27 32-29 22-3 38 5 70 35 22 22 89 81 149 132l107 92v-226-225l-52 40c-56 42-85 50-95 25-6-19 22-60 101-150 46-52 63-65 86-65 19 0 33 7 40 19 6 13 10 140 10 345v324l108 92c121 104 145 131 136 154-13 35-68 11-179-79-31-26-60-44-63-40-4 4-8 89-10 190l-4 183 104 12c57 7 109 17 116 22 17 14 15 53-3 68-15 13-105 10-182-6l-31-6-7 173c-4 96-12 180-17 187-13 15-40 16-56 0z"/>
    <path d="m1250 605c-17-21-3-53 33-72 18-9 58-33 89-54 59-41 104-50 114-24 13 32-7 61-63 96-112 71-149 83-173 54z"/>
  </g>
</svg>
