<?xml version="1.0"?>
<svg xmlns="http://www.w3.org/2000/svg" height="200pt" preserveAspectRatio="xMidYMid meet" viewBox="0 0 200 200" width="200pt">
  <g transform="matrix(.1 0 0 -.1 0 200)">
    <path d="m502 1768c-8-8-12-66-12-193v-182l-142-37c-79-20-148-36-155-36-17 0-34-35-27-55 14-35 48-35 186-1l133 34 5-222c5-189 4-224-10-240-8-10-62-59-120-109-180-153-221-197-218-226 2-20 9-27 32-29 22-3 38 5 70 35 22 22 89 81 149 132l107 92v-226-225l-52 40c-56 42-85 50-95 25-6-19 22-60 101-150 46-52 63-65 86-65 19 0 33 7 40 19 6 13 10 140 10 345v324l108 92c121 104 145 131 136 154-13 35-68 11-179-79-31-26-60-44-63-40-4 4-8 89-10 190l-4 183 104 12c57 7 109 17 116 22 17 14 15 53-3 68-15 13-105 10-182-6l-31-6-7 173c-4 96-12 180-17 187-13 15-40 16-56 0z"/>
    <path d="m1053 1743c-14-50-9-491 6-588 22-146 54-163 285-152 164 7 353 25 397 37 21 6 39 16 42 24s9 61 13 119c6 97 5 106-13 115-32 17-46-2-63-90l-17-83-124-12c-197-19-343-26-381-19l-36 6-10 78c-25 177-25 170 11 177 56 13 176 64 335 143 199 100 222 122 167 158-23 15-30 13-222-80-109-53-224-110-255-126l-58-29v162c0 172-4 187-47 187-16 0-25-8-30-27z"/>
    <path d="m1316 859c-98-10-177-26-221-45-39-16-41-24-49-214-6-143 16-417 35-436 19-18 554-8 573 12 21 20 76 432 76 564 0 91-3 101-37 119-25 13-253 13-377 0zm321-176c-10-156 4-143-156-144-75-1-183-4-239-8-57-3-106-3-108 1-3 4-2 53 2 107l7 100 56 12c91 19 168 26 310 28l134 1zm-27-239c0-17-30-177-33-181-5-4-418-25-423-21-1 2-6 48-10 103l-6 100 236 4c130 2 236-1 236-5z"/>
  </g>
</svg>
