<?xml version="1.0"?>
<svg xmlns="http://www.w3.org/2000/svg" height="200pt" preserveAspectRatio="xMidYMid meet" viewBox="0 0 200 200" width="200pt">
  <g transform="matrix(.1 0 0 -.1 0 200)">
    <path d="m1379 1888c-18-24-84-96-147-160-84-86-113-121-108-134s14-15 39-10c70 14 196 126 283 251 30 45 34 56 25 74-19 35-55 27-92-21z"/>
    <path d="m403 1902c-11-7-17-26-14-48 2-22 58-83 159-173 84-75 108-92 130-89 21 2 28 9 30 31 3 23-8 37-65 89-37 35-99 93-136 130-68 67-81 75-104 60z"/>
    <path d="m745 1880c-11-35 4-57 88-131 114-99 151-123 182-115 19 5 25 13 25 35 0 23-13 38-72 84-40 31-93 76-118 101-49 51-94 62-105 26z"/>
    <path d="m1235 1530c-55-5-179-13-275-20-96-6-276-24-400-40-179-23-227-33-237-46-16-22-16-26 1-49 13-19 18-19 167-2 85 10 157 17 162 17 11 0-19-66-56-125-53-84-310-338-412-407-100-67-116-83-108-104 9-25 64-15 146 29 67 35 107 67 233 192 170 168 243 265 276 366 21 65 24 69 52 70 17 0 85 4 151 8l120 9 75-72c267-253 710-503 769-432 25 30-6 55-129 105-129 53-388 222-549 360l-54 46 69 6c38 4 116 7 175 8 67 1 109 5 117 13 17 17 15 44-4 62-17 18-106 19-289 6z"/>
    <path d="m920 1203c-48-32-123-78-167-102-91-48-129-82-120-105 11-27 64-18 155 24 47 22 89 37 93 33 10-11 49-116 45-121-2-2-46-12-97-23-143-30-200-50-212-76-7-16-6-27 3-39 15-18 14-18 175 19 61 14 124 28 142 31l31 5 26-76c14-43 23-80 18-83-4-4-65-17-137-29-167-28-413-87-442-106-27-18-30-47-8-65 13-11 39-8 148 19 121 29 322 70 423 86l42 6 12-70c16-94 9-255-13-304l-16-38-31 16c-52 27-200 76-210 70-17-11-11-41 13-62 12-12 54-37 92-57 39-20 86-45 105-56 62-36 80-25 127 75 26 57 28 68 28 205 0 80-2 165-5 190l-5 45 50 7c28 4 129 10 225 14 135 5 179 10 193 22 20 18 22 43 5 60-20 20-304 12-459-13l-36-6-25 78-24 78 23 7c13 3 57 10 99 13 55 6 82 13 95 26 24 24 24 32-1 54-18 16-28 16-122 5-57-6-110-13-118-16-11-3-26 20-52 83-21 48-36 88-35 88 1 1 26 18 55 39 47 34 53 42 50 70-5 51-39 45-138-21z"/>
  </g>
</svg>
