<?xml version="1.0"?>
<svg xmlns="http://www.w3.org/2000/svg" height="200pt" preserveAspectRatio="xMidYMid meet" viewBox="0 0 200 200" width="200pt">
  <g transform="matrix(.1 0 0 -.1 0 200)">
    <path d="m1282 1868c-5-7-17-40-27-72-42-148-142-300-263-400-82-68-96-85-86-111 16-41 116 10 214 108 60 59 148 190 173 256l10 27 96-97c109-109 389-336 426-345 31-8 57 12 53 40-2 13-61 67-159 146-215 172-285 235-335 303-37 49-42 62-37 92 6 39-9 65-37 65-10 0-22-6-28-12z"/>
    <path d="m502 1768c-8-8-12-66-12-193v-182l-142-37c-79-20-148-36-155-36-17 0-34-35-27-55 14-35 48-35 186-1l133 34 5-222c5-189 4-224-10-240-8-10-62-59-120-109-180-153-221-197-218-226 2-20 9-27 32-29 22-3 38 5 70 35 22 22 89 81 149 132l107 92v-226-225l-52 40c-56 42-85 50-95 25-6-19 22-60 101-150 46-52 63-65 86-65 19 0 33 7 40 19 6 13 10 140 10 345v324l108 92c121 104 145 131 136 154-13 35-68 11-179-79-31-26-60-44-63-40-4 4-8 89-10 190l-4 183 104 12c57 7 109 17 116 22 17 14 15 53-3 68-15 13-105 10-182-6l-31-6-7 173c-4 96-12 180-17 187-13 15-40 16-56 0z"/>
    <path d="m1298 1469c-16-9-18-26-18-129v-118l-37-6c-21-3-60-8-86-12-26-3-57-14-69-23-18-15-19-20-8-40 12-23 15-23 105-17l92 7 8-140c4-77 4-144 1-149s-34-13-68-16c-96-11-328-55-350-67-13-7-18-19-16-37 4-35 32-39 135-18 138 28 447 65 625 77 95 5 183 12 194 15 41 8 40 58-1 74-20 8-264-2-372-16l-51-6-6 43c-3 24-7 90-10 146-4 82-2 102 9 107 8 3 81 8 161 12 105 5 150 11 160 21 19 19 18 38-3 58-14 15-31 16-117 11-56-4-127-9-158-13l-58-6v111c0 87-3 114-16 126-18 19-23 19-46 5z"/>
    <path d="m1535 643c-16-2-111-15-210-29-99-15-199-26-222-26-59 0-69-15-54-81 7-29 25-112 41-186 16-73 35-141 44-149 13-14 25-14 93-3 158 25 309 41 384 41 86 0 113 14 104 53-3 12 5 81 19 152 32 160 33 210 7 225-19 9-140 12-206 3zm135-87c0-2-8-46-19-97-10-52-22-111-25-131l-7-38h-77c-66 0-189-14-312-36l-35-6-25 114c-14 62-25 120-25 128 0 12 41 20 195 41 174 24 330 36 330 25z"/>
  </g>
</svg>
