<?xml version="1.0"?>
<svg xmlns="http://www.w3.org/2000/svg" height="200pt" preserveAspectRatio="xMidYMid meet" viewBox="0 0 200 200" width="200pt">
  <g transform="matrix(.1 0 0 -.1 0 200)">
    <path d="m1440 1863c-14-10-59-45-100-78-100-81-231-159-338-202-102-41-132-64-112-87 42-51 230 20 426 160 179 128 226 186 175 214-25 13-22 13-51-7z"/>
    <path d="m502 1768c-8-8-12-66-12-193v-182l-142-37c-79-20-148-36-155-36-17 0-34-35-27-55 14-35 48-35 186-1l133 34 5-222c5-189 4-224-10-240-8-10-62-59-120-109-180-153-221-197-218-226 2-20 9-27 32-29 22-3 38 5 70 35 22 22 89 81 149 132l107 92v-226-225l-52 40c-56 42-85 50-95 25-6-19 22-60 101-150 46-52 63-65 86-65 19 0 33 7 40 19 6 13 10 140 10 345v324l108 92c121 104 145 131 136 154-13 35-68 11-179-79-31-26-60-44-63-40-4 4-8 89-10 190l-4 183 104 12c57 7 109 17 116 22 17 14 15 53-3 68-15 13-105 10-182-6l-31-6-7 173c-4 96-12 180-17 187-13 15-40 16-56 0z"/>
    <path d="m1732 1491c-122-111-136-127-129-146 9-21 40-19 88 5 52 27 189 157 189 181 0 19-25 49-41 49-5 0-53-40-107-89z"/>
    <path d="m1257 1493c-13-12-7-50 11-65 26-23 140-87 166-94 23-5 56 16 56 37 0 17-45 52-115 92-64 35-103 45-118 30z"/>
    <path d="m994 1396c-8-35-2-42 87-86 87-44 101-47 119-25 22 27-3 59-78 98-84 44-119 48-128 13z"/>
    <path d="m1750 1220c-30-5-149-13-265-20-374-20-578-39-593-54-12-12-12-23-3-63 6-26 15-105 21-174 11-143 14-156 41-164 50-16 60 50 39 239-6 49-8 91-5 94 6 6 151 17 430 31 116 6 241 13 278 17l68 5-46-86c-28-54-45-99-45-121 0-48 24-55 60-18s140 236 140 268c0 24-33 57-55 55-5-1-35-5-65-9z"/>
    <path d="m1305 958c-115-17-217-33-225-37-22-12-24-46-3-78 27-43 131-182 180-239l43-51-74-84c-115-131-175-172-303-207-49-14-69-24-72-37-9-46 69-58 164-25 106 37 175 89 293 225l52 59 58-56c74-73 216-164 348-223 107-47 139-52 157-24 19 30-2 49-131 112-190 95-296 166-347 232l-25 34 75 126c130 218 149 271 106 295-27 14-56 12-296-22zm153-160c-33-57-70-118-81-136-15-25-22-30-32-22-22 18-160 200-158 208 2 6 256 48 310 51 20 1 16-9-39-101z"/>
  </g>
</svg>
