<?xml version="1.0"?>
<svg xmlns="http://www.w3.org/2000/svg" height="200pt" preserveAspectRatio="xMidYMid meet" viewBox="0 0 200 200" width="200pt">
  <g transform="matrix(.1 0 0 -.1 0 200)">
    <path d="m1427 1812c-55-57-284-176-459-237-43-15-79-34-83-43-6-17 26-52 49-52 43 0 182 51 301 111 222 111 300 177 269 227-18 28-47 25-77-6z"/>
    <path d="m502 1768c-8-8-12-66-12-193v-182l-142-37c-79-20-148-36-155-36-17 0-34-35-27-55 14-35 48-35 186-1l133 34 5-222c5-189 4-224-10-240-8-10-62-59-120-109-180-153-221-197-218-226 2-20 9-27 32-29 22-3 38 5 70 35 22 22 89 81 149 132l107 92v-226-225l-52 40c-56 42-85 50-95 25-6-19 22-60 101-150 46-52 63-65 86-65 19 0 33 7 40 19 6 13 10 140 10 345v324l108 92c121 104 145 131 136 154-13 35-68 11-179-79-31-26-60-44-63-40-4 4-8 89-10 190l-4 183 104 12c57 7 109 17 116 22 17 14 15 53-3 68-15 13-105 10-182-6l-31-6-7 173c-4 96-12 180-17 187-13 15-40 16-56 0z"/>
    <path d="m1744 1478c-15-24-63-82-106-130-87-96-99-130-46-136 22-3 40 8 84 50 60 57 141 159 155 196 12 32-5 62-36 62-18 0-32-11-51-42z"/>
    <path d="m1267 1422c-10-10-17-24-17-31 0-17 109-130 142-147 15-8 34-11 42-8 19 7 30 39 19 58-11 20-151 146-162 146-4 0-15-8-24-18z"/>
    <path d="m996 1389c-18-26-13-40 35-106 53-71 102-107 134-99 41 10 33 52-17 101-24 23-59 60-79 83-40 48-52 51-73 21z"/>
    <path d="m1280 1190c-12-7-16-39-20-147l-5-138-151-11c-211-16-244-25-244-65 0-26 33-40 77-34 57 8 297 25 301 21 8-9-52-109-116-191-92-119-165-191-280-272-51-36-96-72-99-80-3-7 1-20 8-29 47-57 254 92 420 301l84 106 8-253c5-149 13-258 19-265 17-20 56-15 69 8 11 21 8 222-7 488l-6 104 75-90c206-247 471-503 522-503 16 0 45 27 45 42 0 6-17 25-37 42-128 108-391 381-506 526l-60 75 39 7c21 4 100 10 174 14s143 11 153 16c20 10 23 48 5 66-19 19-223 12-375-14l-33-5v130c0 104-3 133-16 145-18 18-23 19-44 6z"/>
  </g>
</svg>
