<?xml version="1.0"?>
<svg xmlns="http://www.w3.org/2000/svg" height="200pt" preserveAspectRatio="xMidYMid meet" viewBox="0 0 200 200" width="200pt">
  <g transform="matrix(.1 0 0 -.1 0 200)">
    <path d="m502 1768c-8-8-12-66-12-193v-182l-142-37c-79-20-148-36-155-36-17 0-34-35-27-55 14-35 48-35 186-1l133 34 5-222c5-189 4-224-10-240-8-10-62-59-120-109-180-153-221-197-218-226 2-20 9-27 32-29 22-3 38 5 70 35 22 22 89 81 149 132l107 92v-226-225l-52 40c-56 42-85 50-95 25-6-19 22-60 101-150 46-52 63-65 86-65 19 0 33 7 40 19 6 13 10 140 10 345v324l108 92c121 104 145 131 136 154-13 35-68 11-179-79-31-26-60-44-63-40-4 4-8 89-10 190l-4 183 104 12c57 7 109 17 116 22 17 14 15 53-3 68-15 13-105 10-182-6l-31-6-7 173c-4 96-12 180-17 187-13 15-40 16-56 0z"/>
    <path d="m1130 1713c-135-8-251-20-257-25-18-15-16-64 8-207 23-142 31-161 63-161 42 0 45 41 17 196l-18 102 86 6c140 10 781 19 781 12 0-4-14-27-31-52-45-66-63-113-48-130 6-8 15-14 20-14 34 0 179 190 179 235 0 51-22 55-300 54-140-1-365-8-500-16z"/>
    <path d="m1211 1501c-8-5-22-41-32-79-37-147-74-203-152-233-33-13-42-22-42-40 0-33 38-44 93-30 65 18 114 75 150 174 42 115 49 172 27 197-20 22-24 23-44 11z"/>
    <path d="m1409 1458c-16-29-6-145 16-188 45-90 88-112 227-118 89-4 112-2 133 12 29 19 32 38 9 60-12 12-37 16-110 16-156 0-194 31-194 158 0 32-5 63-12 70-19 19-56 14-69-10z"/>
    <path d="m1299 1138c-8-14-10-47-6-94l7-72-88-6c-195-16-253-37-237-86 7-21 11-22 69-15 105 12 216 21 216 17 0-15-101-195-139-246-88-122-214-256-275-296-76-49-86-57-86-75 0-23 34-35 70-25 60 17 131 73 222 173 105 118 161 194 216 295l39 73 7-108c3-59 9-205 12-323s7-230 10-247c6-43 38-61 65-37 16 14 19 31 19 102 0 93-18 504-24 566-4 36-1 33 52-55 69-115 183-237 316-336 74-55 105-73 125-71 21 2 26 8 26 32 0 26-13 40-95 103-178 138-283 262-359 423-26 55-28 66-16 73 9 4 88 11 176 14 156 6 161 7 176 30s15 26-5 45c-21 21-23 21-194 9-95-6-182-13-193-14-17-2-21 6-28 63-14 107-15 110-42 110-15 0-29-9-36-22z"/>
  </g>
</svg>
