<?xml version="1.0"?>
<svg xmlns="http://www.w3.org/2000/svg" height="200pt" preserveAspectRatio="xMidYMid meet" viewBox="0 0 200 200" width="200pt">
  <g transform="matrix(.1 0 0 -.1 0 200)">
    <path d="m1221 1821c-17-17-18-31-13-153l5-134-104-22c-150-32-178-41-189-62-23-43 15-68 77-51 21 6 43 11 50 11 10 0 100-247 92-255-2-1-51-12-108-24s-110-26-118-32c-18-16-17-58 3-66 8-3 84 6 167 21 172 29 392 52 609 62 153 7 173 14 166 51-7 36-45 43-199 34-79-4-145-6-147-5s18 68 45 148l48 145 70 1c98 0 141 33 99 74-25 26-196 22-431-10l-53-7v124c0 97-4 130-16 147-19 27-28 28-53 3zm273-398c-40-102-64-182-64-209 0-13-1-24-2-25-2 0-49-6-105-13l-103-12v23c0 12-18 72-39 132-37 104-38 110-20 116 17 6 315 52 346 54 9 1 4-21-13-66z"/>
    <path d="m502 1768c-8-8-12-66-12-193v-182l-142-37c-79-20-148-36-155-36-17 0-34-35-27-55 14-35 48-35 186-1l133 34 5-222c5-189 4-224-10-240-8-10-62-59-120-109-180-153-221-197-218-226 2-20 9-27 32-29 22-3 38 5 70 35 22 22 89 81 149 132l107 92v-226-225l-52 40c-56 42-85 50-95 25-6-19 22-60 101-150 46-52 63-65 86-65 19 0 33 7 40 19 6 13 10 140 10 345v324l108 92c121 104 145 131 136 154-13 35-68 11-179-79-31-26-60-44-63-40-4 4-8 89-10 190l-4 183 104 12c57 7 109 17 116 22 17 14 15 53-3 68-15 13-105 10-182-6l-31-6-7 173c-4 96-12 180-17 187-13 15-40 16-56 0z"/>
    <path d="m1486 1005c-11-11-13-29-9-70 3-30 2-55-3-55s-74-11-154-25-151-25-157-25c-9 0-13 18-13 59 0 64-13 85-52 79-21-3-24-10-30-77-4-41-9-75-11-77-1-1-56-12-122-23-124-21-151-35-141-69 10-31 29-33 142-16 58 9 107 15 109 13 2-3-7-49-21-104-13-55-22-110-19-122 7-29 24-37 120-58 44-10 84-21 89-26 11-10-132-103-236-155-64-31-78-43-78-61 0-40 41-51 99-26 71 30 204 111 272 166l60 47 72-29c40-16 139-70 221-120s165-94 183-97c40-7 63 8 63 43 0 18-9 28-43 42-24 10-96 51-162 91-65 40-151 88-192 107l-74 34 26 31c40 47 72 118 103 225l28 98 65 6c35 4 103 7 152 8 73 1 90 4 107 21 24 24 14 54-21 65-20 7-209-1-260-11-25-5-27-2-33 42-9 72-46 103-80 69zm-26-221c0-3-7-31-16-62-21-74-78-182-112-215l-28-27-105 27-106 26 25 101c13 55 25 103 27 104 4 4 269 49 298 51 9 1 17-2 17-5z"/>
  </g>
</svg>
