<?xml version="1.0"?>
<svg xmlns="http://www.w3.org/2000/svg" height="200pt" preserveAspectRatio="xMidYMid meet" viewBox="0 0 200 200" width="200pt">
  <g transform="matrix(.1 0 0 -.1 0 200)">
    <path d="m502 1768c-8-8-12-66-12-193v-182l-142-37c-79-20-148-36-155-36-17 0-34-35-27-55 14-35 48-35 186-1l133 34 5-222c5-189 4-224-10-240-8-10-62-59-120-109-180-153-221-197-218-226 2-20 9-27 32-29 22-3 38 5 70 35 22 22 89 81 149 132l107 92v-226-225l-52 40c-56 42-85 50-95 25-6-19 22-60 101-150 46-52 63-65 86-65 19 0 33 7 40 19 6 13 10 140 10 345v324l108 92c121 104 145 131 136 154-13 35-68 11-179-79-31-26-60-44-63-40-4 4-8 89-10 190l-4 183 104 12c57 7 109 17 116 22 17 14 15 53-3 68-15 13-105 10-182-6l-31-6-7 173c-4 96-12 180-17 187-13 15-40 16-56 0z"/>
    <path d="m1112 1761c-7-4-20-36-28-70-22-97-118-276-182-340-55-55-63-84-25-89 17-3 66 14 104 35 4 2 12-62 19-143 9-107 11-246 6-503-7-347 0-491 24-515 6-6 91-3 227 9 120 10 304 19 408 21 105 1 193 2 198 3 4 1 7 15 7 31 0 24-6 33-27 42-31 13-260 15-365 4l-66-7-6 73c-3 40-8 115-11 165l-5 93h119c95 0 123 3 135 16 20 20 20 38 0 58-12 13-40 16-140 16h-124v154 153l61 7c34 3 90 6 125 6 67 0 94 15 94 50s-33 42-158 34l-117-7 3 159c2 87 5 160 6 161 1 2 72 8 157 14s162 15 172 20c23 13 22 56-2 68-13 7-52 7-118 1-54-5-119-10-145-10h-48l52 105 53 105-22 21c-33 33-55 12-122-120-57-111-64-121-94-125-146-22-178-26-191-26-11 0-5 21 25 86 22 47 46 113 54 147 13 54 12 64-1 84-15 24-30 28-52 14zm186-553-3-163-85-11c-131-19-120-23-121 49 0 34-6 105-13 157s-12 96-10 98c4 6 157 30 197 31l37 1zm-8-387c0-77 2-146 5-153 5-12-16-17-97-25-57-6-103-10-103-9 0 0 2 69 5 151l5 150 80 11c44 6 86 12 93 13 9 1 12-33 12-138zm14-293c3-24 8-100 11-169l6-126-108-10c-59-5-111-8-115-6-5 2-8 78-8 168v163l68 7c37 3 74 8 82 9 51 11 59 7 64-36z"/>
  </g>
</svg>
