<?xml version="1.0"?>
<svg xmlns="http://www.w3.org/2000/svg" height="200pt" preserveAspectRatio="xMidYMid meet" viewBox="0 0 200 200" width="200pt">
  <g transform="matrix(.1 0 0 -.1 0 200)">
    <path d="m502 1768c-8-8-12-66-12-193v-182l-142-37c-79-20-148-36-155-36-17 0-34-35-27-55 14-35 48-35 186-1l133 34 5-222c5-189 4-224-10-240-8-10-62-59-120-109-180-153-221-197-218-226 2-20 9-27 32-29 22-3 38 5 70 35 22 22 89 81 149 132l107 92v-226-225l-52 40c-56 42-85 50-95 25-6-19 22-60 101-150 46-52 63-65 86-65 19 0 33 7 40 19 6 13 10 140 10 345v324l108 92c121 104 145 131 136 154-13 35-68 11-179-79-31-26-60-44-63-40-4 4-8 89-10 190l-4 183 104 12c57 7 109 17 116 22 17 14 15 53-3 68-15 13-105 10-182-6l-31-6-7 173c-4 96-12 180-17 187-13 15-40 16-56 0z"/>
    <path d="m1200 1753c-171-14-187-17-210-39l-24-24 17-157c10-87 20-205 23-263s10-117 16-133c11-29 43-43 81-33 13 3 138 13 278 21 179 11 258 20 267 29 10 10 15 81 19 298l6 285-24 16c-30 21-180 21-449 0zm380-148v-75h-77c-43 0-136-7-208-15-71-8-151-15-176-15h-46l-7 71c-4 39-5 74-1 77 9 9 272 29 408 30l107 2zm-10-269v-105l-42-5c-24-3-117-10-208-16s-177-14-192-17c-26-5-28-3-28 29 0 19-3 69-6 110l-7 75 144 15c79 8 188 16 242 17l97 1z"/>
    <path d="m1615 1003c-285-23-686-69-732-84-33-10-46-29-37-53 10-25 32-26 202-6 92 11 169 20 172 20s6-105 8-233c2-127 5-249 8-270l6-37-54 21c-29 12-80 30-113 42-33 11-61 20-62 21s12 39 28 86c32 91 34 127 7 144-30 18-49-4-83-95-65-171-132-293-220-397-25-29-45-57-45-62 0-19 33-41 54-34 38 11 113 95 167 186 62 104 42 101 217 32 189-75 277-93 574-115 136-10 170-10 182 0 19 16 21 55 4 69-7 5-105 17-218 26-179 15-334 37-347 50-2 2-7 62-10 134l-6 129 34 6c19 4 85 11 148 17 62 5 119 15 127 21 17 14 18 41 2 57-15 15-121 16-224 1-62-8-79-8-85 3-5 7-9 56-9 110v96l48 6c26 3 106 11 177 16 153 13 162 15 170 41 7 22-19 60-39 57-6-1-29-3-51-5z"/>
  </g>
</svg>
