<?xml version="1.0"?>
<svg xmlns="http://www.w3.org/2000/svg" height="200pt" preserveAspectRatio="xMidYMid meet" viewBox="0 0 200 200" width="200pt">
  <g transform="matrix(.1 0 0 -.1 0 200)">
    <path d="m502 1768c-8-8-12-66-12-193v-182l-142-37c-79-20-148-36-155-36-17 0-34-35-27-55 14-35 48-35 186-1l133 34 5-222c5-189 4-224-10-240-8-10-62-59-120-109-180-153-221-197-218-226 2-20 9-27 32-29 22-3 38 5 70 35 22 22 89 81 149 132l107 92v-226-225l-52 40c-56 42-85 50-95 25-6-19 22-60 101-150 46-52 63-65 86-65 19 0 33 7 40 19 6 13 10 140 10 345v324l108 92c121 104 145 131 136 154-13 35-68 11-179-79-31-26-60-44-63-40-4 4-8 89-10 190l-4 183 104 12c57 7 109 17 116 22 17 14 15 53-3 68-15 13-105 10-182-6l-31-6-7 173c-4 96-12 180-17 187-13 15-40 16-56 0z"/>
    <path d="m1790 1744c-14-2-155-8-315-14-159-6-343-15-408-20-77-7-125-6-137 0-13 7-24 5-40-8l-23-18 21-115c12-63 27-152 34-198 12-82 26-111 53-111 8 0 21 10 29 23 13 20 13 37-5 156-10 73-22 143-25 155-5 22-2 23 78 29 46 4 211 11 368 17s306 12 332 14l47 3-14-31c-33-74-78-224-72-240 8-19 50-21 66-3 12 15 131 303 131 318 0 5-9 18-20 29-19 19-38 22-100 14z"/>
    <path d="m1370 1591c-5-11-10-71-10-134 0-128 1-127-74-127-24 0-71-3-105-7-53-5-65-10-73-29-8-18-8-27 3-40 12-14 29-16 126-11l113 5v-48-49l-47-5c-118-14-175-25-190-38-13-10-15-27-10-98 13-177 29-262 54-288 24-24 31-24 149-6 30 4 32 2 38-33 3-21 6-66 6-100v-63h-37c-64 0-416-49-426-59-5-5-7-19-5-32 4-34 40-35 269-9 105 12 193 20 195 17 3-2 7-83 10-178 3-96 7-184 10-195 6-33 35-39 56-14 16 19 18 46 18 210v187l38 7c20 3 107 9 192 13 85 3 165 10 178 14 24 9 30 47 10 67-15 15-119 15-283 1-69-6-128-10-129-8-2 2-7 43-11 91l-7 86 107 4c135 4 139 8 148 140 4 51 16 131 27 177s18 92 15 102c-9 28-46 33-172 23l-114-9 3 50 3 50 103 5c76 4 105 9 112 20 14 22 12 35-10 55-17 16-32 17-115 12l-95-5v122c0 126-6 146-42 146-9 0-22-9-28-19zm256-528c-3-10-8-30-11-44-6-24-12-27-67-33-118-12-118-12-118 38v45l48 4c127 10 154 8 148-10zm-284-43c-4-43-8-45-109-52-38-3-43-1-43 17 0 11-3 30-6 42-6 23 8 27 116 31l46 2zm250-170-4-50h-79-79v50 50h83 82zm-252-4c0-41-2-44-31-50-17-3-46-6-64-6-31 0-33 2-37 43-3 23 0 45 6 49s37 8 69 8h57z"/>
  </g>
</svg>
