<?xml version="1.0"?>
<svg xmlns="http://www.w3.org/2000/svg" height="200pt" preserveAspectRatio="xMidYMid meet" viewBox="0 0 200 200" width="200pt">
  <g transform="matrix(.1 0 0 -.1 0 200)">
    <path d="m1450 1843c-93-4-304-31-378-48-35-8-76-15-92-15-50 0-52-22-15-165 38-148 47-160 115-151 122 17 388 36 496 36 140 0 158 9 148 71-4 22 2 66 16 115 42 155 35 165-119 162-58-1-135-3-171-5zm196-167c-24-99-18-96-185-96-58 0-169-7-246-15s-141-15-141-15c-9 0-34 144-27 151 9 9 224 44 313 52 25 2 104 4 176 5l131 2z"/>
    <path d="m502 1768c-8-8-12-66-12-193v-182l-142-37c-79-20-148-36-155-36-17 0-34-35-27-55 14-35 48-35 186-1l133 34 5-222c5-189 4-224-10-240-8-10-62-59-120-109-180-153-221-197-218-226 2-20 9-27 32-29 22-3 38 5 70 35 22 22 89 81 149 132l107 92v-226-225l-52 40c-56 42-85 50-95 25-6-19 22-60 101-150 46-52 63-65 86-65 19 0 33 7 40 19 6 13 10 140 10 345v324l108 92c121 104 145 131 136 154-13 35-68 11-179-79-31-26-60-44-63-40-4 4-8 89-10 190l-4 183 104 12c57 7 109 17 116 22 17 14 15 53-3 68-15 13-105 10-182-6l-31-6-7 173c-4 96-12 180-17 187-13 15-40 16-56 0z"/>
    <path d="m1480 1384c-91-7-223-20-294-30-71-9-146-13-167-10-27 4-42 2-53-10-19-19-19-5-1-117 16-103 40-613 31-662-5-24-1-36 14-50 18-16 27-17 107-6 49 6 142 16 208 21 66 6 163 15 215 20s120 10 151 10c38 0 61 5 69 15 9 11 14 97 16 328 3 171 9 347 15 390 17 129 20 128-311 101zm214-161c-4-49-9-90-11-93-2-2-86-7-186-11s-235-12-300-19c-66-7-122-8-127-4-4 5-11 41-14 81-7 70-6 72 16 77 67 14 463 52 571 55l57 1zm-4-277v-94l-122-6c-68-4-203-11-301-17-98-7-180-9-182-7-3 3-8 45-11 95l-7 90 109 8c91 6 252 14 472 23l42 2zm-10-245v-58l-72-7c-146-13-385-37-448-45-36-5-66-8-66-7-1 0-4 33-6 73l-4 71 81 7c125 12 311 22 418 23l97 2z"/>
    <path d="m962 277c-62-63-112-117-112-121 0-23 24-46 47-46 18 0 48 22 109 81 109 107 139 150 124 178-22 42-51 26-168-92z"/>
    <path d="m1626 374c-9-8-16-18-16-20 0-19 28-46 82-79 35-21 95-61 133-90 83-63 107-72 129-50 19 20 20 36 4 56-32 38-278 199-305 199-7 0-19-7-27-16z"/>
  </g>
</svg>
