<?xml version="1.0"?>
<svg xmlns="http://www.w3.org/2000/svg" height="200pt" preserveAspectRatio="xMidYMid meet" viewBox="0 0 200 200" width="200pt">
  <g transform="matrix(.1 0 0 -.1 0 200)">
    <path d="m1193 1783c-66-3-85-7-92-21-10-19 2-293 14-312 18-29 72-37 242-38 229-2 215-14 221 191 3 117 1 161-8 172-13 15-133 18-377 8zm297-178v-105h-150-150v63c0 34-3 79-6 99l-7 37 139 4c77 1 147 4 157 5 15 2 17-9 17-103z"/>
    <path d="m502 1768c-8-8-12-66-12-193v-182l-142-37c-79-20-148-36-155-36-17 0-34-35-27-55 14-35 48-35 186-1l133 34 5-222c5-189 4-224-10-240-8-10-62-59-120-109-180-153-221-197-218-226 2-20 9-27 32-29 22-3 38 5 70 35 22 22 89 81 149 132l107 92v-226-225l-52 40c-56 42-85 50-95 25-6-19 22-60 101-150 46-52 63-65 86-65 19 0 33 7 40 19 6 13 10 140 10 345v324l108 92c121 104 145 131 136 154-13 35-68 11-179-79-31-26-60-44-63-40-4 4-8 89-10 190l-4 183 104 12c57 7 109 17 116 22 17 14 15 53-3 68-15 13-105 10-182-6l-31-6-7 173c-4 96-12 180-17 187-13 15-40 16-56 0z"/>
    <path d="m1555 1318c-71-4-141-13-154-18-22-10-23-15-17-63 21-178 35-250 48-263s40-14 181-8c210 9 210 9 237 144 26 126 25 175 0 200-23 23-64 24-295 8zm225-95c0-10-8-53-17-95l-16-78h-122-122l-12 63c-6 34-14 74-17 89-5 27-4 27 53 31 32 2 102 4 156 5 86 2 97 0 97-15z"/>
    <path d="m1067 1301c-174-19-181-22-172-81 3-19 10-75 16-125 16-136 16-135 56-152 31-12 49-13 110-4 41 6 102 11 137 11 45 0 67 4 76 16 10 11 14 58 14 165 1 147 0 151-23 170-13 10-31 18-40 18-9-1-87-9-174-18zm151-163-3-93-75-12c-41-6-87-12-102-12-30-1-33 7-44 120l-6 66 103 10c57 5 110 11 117 11 10 2 12-20 10-90z"/>
    <path d="m1329 903c-6-16-8-49-6-74l6-46-42-6c-23-3-98-11-167-17s-135-14-147-16c-41-8-40-69 2-80 12-3 86 2 165 10 79 9 145 15 146 13 7-6-155-207-230-285-71-74-164-145-255-194-35-19-38-30-15-52 66-67 297 107 497 376l52 69 7-38c4-21 7-133 7-248 1-174 4-214 17-233 19-27 36-28 59-2 17 18 18 39 13 267l-6 247 32-39c55-71 225-249 283-297 77-64 146-100 186-96 24 2 33 8 35 25 3 17-15 33-87 83-100 68-308 275-378 377l-42 60 52 6c29 4 104 9 167 12 142 8 157 11 170 34 7 15 5 25-9 42l-18 23-169-12c-93-7-186-15-207-19l-37-6v52c0 65-13 91-46 91-18 0-27-8-35-27z"/>
  </g>
</svg>
