<?xml version="1.0"?>
<svg xmlns="http://www.w3.org/2000/svg" height="200pt" preserveAspectRatio="xMidYMid meet" viewBox="0 0 200 200" width="200pt">
  <g transform="matrix(.1 0 0 -.1 0 200)">
    <path d="m960 1905c-9-11-12-60-11-180l2-165h-48c-58 0-462-46-486-56-26-10-34-54-13-70 10-7 23-11 29-9 10 4 246 30 460 51l67 6v-149-150l-151-18c-196-24-203-30-148-132 65-121 147-231 240-325l97-96-123-134c-67-74-151-156-186-183-81-61-249-143-311-151-103-14-81-64 29-64 73 0 147 25 246 82 98 57 171 122 303 267l116 129 72-58c159-129 617-411 692-426 40-7 73 17 58 43-13 21-118 88-266 169-114 63-353 222-438 293-30 25-56 46-58 47-1 1 29 48 67 105 90 134 241 407 241 435 0 44-18 47-210 42l-179-5-3 137-3 138 65 6c36 3 182 6 325 6 276 0 285 2 285 47 0 44-22 47-361 40l-316-6-7 91c-3 50-6 120-6 155s-5 73-10 84c-13 23-43 25-60 4zm360-790c0-23-238-407-262-421-17-11-180 161-250 264-38 57-68 106-65 108 20 20 577 68 577 49z"/>
  </g>
</svg>
