<?xml version="1.0"?>
<svg xmlns="http://www.w3.org/2000/svg" height="200pt" preserveAspectRatio="xMidYMid meet" viewBox="0 0 200 200" width="200pt">
  <g transform="matrix(.1 0 0 -.1 0 200)">
    <path d="m1124 1839c-3-6-15-54-25-107-33-168-65-246-169-407-64-99-70-127-29-140 26-9 56 19 106 96l38 58 33-126c43-165 80-256 157-388 53-92 62-112 53-130-6-11-49-72-97-135-103-138-220-259-279-289-49-25-60-44-41-67 21-25 83-11 146 32 58 40 170 165 272 304 35 47 64 86 66 88 1 1 28-31 59-73 110-142 292-299 421-361 78-38 97-41 119-18 25 24 4 49-82 96-90 50-159 103-265 207-76 74-197 220-197 239 0 5 26 56 57 113 108 197 175 398 189 568l7 80 46 5c25 3 73 8 106 12s66 11 73 16c21 17 15 58-10 67-34 13-448-32-642-70-55-10-101-17-104-15-2 2 6 35 18 72 29 96 50 233 39 261-9 25-52 32-65 12zm445-443c-8-85-38-206-74-303-27-70-135-283-145-283-12 0-106 179-137 261-49 129-96 321-82 329 19 12 341 65 419 69l26 1z"/>
    <path d="m635 1593c-85-5-236-23-327-39-95-17-131-41-112-72 15-24 51-26 157-8 98 16 355 41 362 35 2-3-13-72-34-154l-38-150-106-7c-58-3-168-17-244-29-197-33-183-8-183-316 0-377 17-451 113-497 29-14 87-30 130-35 90-13 416-15 434-3 29 18 32 60 17 214-19 196-25 222-46 226-31 6-40-43-36-207l3-153-190 5c-282 7-301 16-325 146-8 45-15 521-7 521 1 0 63 9 137 20s190 23 257 26c67 4 127 10 134 15 7 4 13 33 15 71 1 35 17 119 38 192 42 150 44 170 14 190-22 16-43 17-163 9z"/>
  </g>
</svg>
