<?xml version="1.0"?>
<svg xmlns="http://www.w3.org/2000/svg" height="200pt" preserveAspectRatio="xMidYMid meet" viewBox="0 0 200 200" width="200pt">
  <g transform="matrix(.1 0 0 -.1 0 200)">
    <path d="m314 1819c-7-11 3-248 12-304l5-31-103-16c-149-24-182-37-186-70-5-43 24-52 111-34 39 8 95 17 123 21l51 6 7-33c44-223-22-780-125-1055-27-71-21-96 25-101 24-3 29 3 56 61 57 126 103 343 131 619 15 136-1 124 172 134l117 7v-204c0-128-6-263-17-362l-17-158-26 2c-45 2-51 0-48-23 7-49 118-89 148-53 6 8 21 90 32 182 25 208 30 643 9 682l-13 24-142-7c-77-3-153-9-167-12l-26-6-6 109c-4 59-10 131-13 159l-6 51 118 12c200 20 248 29 262 48 7 10 11 24 10 33-7 33-41 36-213 17-191-21-185-23-185 58 0 75-21 228-32 243-13 15-54 16-64 1z"/>
    <path d="m1053 1795c-17-12-21-30-26-118-11-170-67-334-170-492-49-74-50-105-4-105 39 1 83 51 142 162l34 63 15-35c42-102 59-134 121-240 37-63 91-148 121-189l54-74-19-31c-10-17-37-63-60-103-77-131-219-277-318-327-38-19-44-50-13-66 83-45 307 157 440 398 13 23 27 42 31 42s36-37 72-83c96-122 333-351 380-366 93-31 121 25 40 78-89 57-443 435-443 472 0 5 11 35 24 67 50 119 135 427 151 548l7 51 60 7c34 3 82 6 108 6 61 0 89 26 71 67l-12 26-138-7c-165-7-262-19-441-52-74-14-149-28-167-31l-32-5 9 34c14 50 28 207 22 256-5 50-28 69-59 47zm487-378c0-70-139-548-159-547-29 2-281 442-281 490 0 10 53 21 243 55 178 31 197 31 197 2z"/>
  </g>
</svg>
