<?xml version="1.0"?>
<svg xmlns="http://www.w3.org/2000/svg" height="200pt" preserveAspectRatio="xMidYMid meet" viewBox="0 0 200 200" width="200pt">
  <g transform="matrix(.1 0 0 -.1 0 200)">
    <path d="m1128 1759c-10-5-18-19-18-31 0-44-53-256-81-324-16-39-55-111-86-160-30-49-59-98-63-110-11-28 6-54 35-54 28 0 52 30 125 153 25 42 48 77 51 77 4 0 16-28 29-62 62-172 141-379 164-432l26-59-30-52c-69-120-180-236-358-374-91-70-109-121-43-121 61 0 333 238 423 369l55 80 56-87c65-102 223-286 305-356 112-96 174-125 202-91 21 25 6 49-55 89-116 75-339 326-421 473l-36 64 50 102c100 204 176 420 200 567l7 45 80 8c95 10 131 22 138 46 14 56-38 63-229 31-95-16-398-86-500-115l-20-6 23 93c12 51 26 122 29 157 6 55 5 66-11 78-22 15-25 16-47 2zm446-336c-22-99-39-159-68-238-37-98-103-252-129-300l-16-30-17 40c-35 82-173 449-170 452 8 8 353 96 399 102 4 1 5-11 1-26z"/>
    <path d="m595 1710c-369-77-478-108-489-137-8-19 11-53 28-53 7 0 75 16 152 35 76 19 141 35 145 35 15 0 30-497 24-825l-5-350-73-47c-39-26-75-48-79-48-5 0-8 52-8 115 0 167-20 458-32 472-6 7-19 13-29 13-39 0-42-27-29-344 7-165 14-303 16-305s-20-21-49-41c-58-42-81-75-75-111 5-35 35-36 72-1 57 55 533 350 633 393 37 16 43 22 43 48 0 25-5 32-26 37-28 7-81-16-211-91l-63-36v143c0 79 3 207 7 286l6 142 76 24c42 13 90 27 108 30 39 9 56 28 51 58-4 33-45 34-143 4-46-14-85-26-88-26-10 0-43 467-34 477 2 2 85 19 183 39 99 19 187 37 196 40 22 7 33 41 18 59-19 23-77 17-325-35z"/>
  </g>
</svg>
