<?xml version="1.0"?>
<svg xmlns="http://www.w3.org/2000/svg" height="200pt" preserveAspectRatio="xMidYMid meet" viewBox="0 0 200 200" width="200pt">
  <g transform="matrix(.1 0 0 -.1 0 200)">
    <path d="m444 1768c-5-7-7-96-5-199l2-186-108-17c-126-20-223-44-240-58s-16-43 2-58c11-9 42-7 147 14 73 14 150 28 171 31l37 6v-149c0-82-3-163-6-180-6-29-10-31-63-38-163-19-210-41-184-83 7-11 20-111 29-228 11-131 21-213 29-222 11-11 46-11 211-2 272 16 301 20 322 39 18 16 19 27 11 152-4 74-8 185-8 247-1 157 4 154-211 127l-45-6v176c0 148 2 177 15 181 8 2 71 14 140 25 132 22 153 31 148 63-6 40-30 43-170 19-72-12-133-21-134-19-2 2-6 79-10 173-4 93-11 177-16 187-10 20-53 23-64 5zm256-945c0-38 3-125 7-194l6-126-109-6c-60-4-148-10-195-13l-86-7-13 177c-7 97-11 178-9 180s65 12 139 21c136 18 239 31 253 34 4 0 7-29 7-66z"/>
    <path d="m1018 1738c-10-9-21-54-32-138-24-177-51-286-91-360-94-177-92-170-72-185 36-26 65-5 119 87l40 68 43-94c46-103 116-234 177-335 37-62 38-64 22-90-33-52-311-318-374-359-103-66-104-67-97-86 6-16 16-18 62-14 43 4 67 13 112 44 69 48 261 231 323 308 25 31 47 56 50 55 3 0 37-38 75-84 87-105 246-254 332-311 69-47 135-60 147-29 9 25-2 38-87 95-82 55-267 231-364 345l-51 60 55 75c58 80 187 334 222 437 12 34 21 82 21 106v44l60 7c81 9 112 43 74 81-18 18-57 15-219-15-55-11-152-26-215-35-107-14-239-37-295-51-23-6-23-5-14 34 15 68 39 240 39 281 0 23-7 46-16 55-19 19-26 20-46 4zm547-415c-21-116-228-521-267-523-23-1-260 461-245 476 10 10 394 73 506 83 10 1 12-8 6-36z"/>
  </g>
</svg>
