<?xml version="1.0"?>
<svg xmlns="http://www.w3.org/2000/svg" height="200pt" preserveAspectRatio="xMidYMid meet" viewBox="0 0 200 200" width="200pt">
  <g transform="matrix(.1 0 0 -.1 0 200)">
    <path d="m411 1826c-9-11-9-38 3-118 8-57 17-133 21-170l6-67-38-6c-67-12-267-57-303-69-26-8-36-17-38-37-6-51 17-55 141-26s238 50 242 45c9-10 25-361 30-658 3-190 8-365 10-390l5-45-22 30c-49 62-68 78-83 65-8-7-15-18-15-24 0-25 50-115 94-169 48-58 81-72 105-44 15 19-10 983-32 1232-2 18 9 21 142 36 127 14 146 18 162 38 14 17 16 27 9 42-13 23-68 25-215 5-55-7-103-12-106-10s-9 41-13 86c-8 104-24 205-38 241-12 30-47 37-67 13z"/>
    <path d="m570 1815c-25-31-1-55 112-111 61-30 116-54 123-54s20 9 29 19c30 33 5 57-111 111-113 53-134 58-153 35z"/>
    <path d="m1052 1758c-7-7-12-40-12-77 0-164-45-337-125-489-50-93-54-125-16-130 32-5 71 35 106 108l29 60 26-47c58-104 175-310 192-340l19-31-107-159c-147-216-231-317-307-367-49-32-62-46-62-66s6-26 27-28c37-4 107 28 156 73 51 46 165 194 267 348 62 92 81 115 90 105 6-7 50-60 97-118 92-113 256-265 370-343 54-36 79-47 102-45 27 3 31 7 31 32 0 26-11 37-73 82-122 86-276 228-365 336-135 166-131 132-43 305 87 171 123 263 134 336l7 52 76 5c81 5 112 21 107 53-6 40-26 42-260 23-123-10-268-24-323-31s-101-13-101-12c-1 1 4 34 12 72 17 89 19 276 2 293-7 7-19 12-28 12s-21-5-28-12zm451-440c-14-79-162-408-183-408-3 0-14 17-26 38-11 20-60 107-107 192-48 84-87 157-87 160 0 6 122 22 310 39 47 5 88 9 92 10 4 0 5-14 1-31z"/>
    <path d="m713 1278c-5-7-35-68-67-135-62-129-66-163-21-163 18 0 32 14 59 58 48 79 96 183 96 208 0 38-46 60-67 32z"/>
    <path d="m158 1163c-24-6-32-38-16-66 32-57 140-206 154-211 24-9 34 2 34 35 0 36-25 86-85 172-46 67-58 76-87 70z"/>
    <path d="m622 818c-20-20-14-42 26-95 20-28 62-89 92-137 51-80 57-87 85-84 54 5 46 41-38 170-103 157-130 181-165 146z"/>
    <path d="m298 671c-126-101-190-163-201-194-9-26 28-61 51-48 9 6 81 73 160 149 139 135 164 172 127 185-8 4-62-32-137-92z"/>
  </g>
</svg>
