<?xml version="1.0"?>
<svg xmlns="http://www.w3.org/2000/svg" height="200pt" preserveAspectRatio="xMidYMid meet" viewBox="0 0 200 200" width="200pt">
  <g transform="matrix(.1 0 0 -.1 0 200)">
    <path d="m425 1899c-61-4-137-12-170-17-33-6-72-8-86-5-45 8-63-20-55-91 31-285 36-367 36-620 0-326 15-560 37-595 17-26 2-26 391-3 122 8 132 12 131 67 0 17 4 93 10 170 5 77 12 350 16 606l7 467-23 16c-26 18-101 19-294 5zm221-166c-3-42-6-113-6-158v-82l-132-6c-73-4-163-10-200-13l-67-7-5 34c-2 19-11 89-18 157-13 120-13 123 7 127 61 14 166 23 289 24l139 1zm-6-463c0-97-3-130-12-130-27 0-344-40-365-46l-23-6v145 145l88 7c48 3 98 7 112 9s64 4 113 5l87 1zm-7-352c-2-73-6-160-9-194l-5-61-92-7c-51-3-131-9-178-12l-86-7-6 74c-4 41-9 122-13 180-6 97-5 107 12 114 19 7 294 42 349 44l31 1z"/>
    <path d="m1038 1849c-13-7-18-22-18-50 0-105-72-342-152-502-31-62-37-82-27-93 27-32 78-6 110 58l21 40 22-33c12-19 64-106 115-194s109-186 128-218l35-58-28-47c-50-87-161-237-207-279-25-23-68-53-96-68-51-26-61-41-39-63 19-19 65-14 123 14 67 31 140 109 236 255l72 108 78-107c127-175 256-312 360-381 92-62 127-73 149-46 24 29 2 59-87 115-99 63-214 184-351 370-47 63-88 120-92 125-4 6 15 48 42 95 69 118 176 332 205 410 14 35 30 92 37 125l12 60 109 5c61 3 116 9 123 13 15 10 16 49 0 65-26 26-300 7-673-48-104-15-192-26-194-24s7 40 19 86 25 121 28 167c4 74 3 86-13 98-22 15-25 16-47 2zm552-398c0-40-54-171-142-341-49-96-97-186-107-199l-18-24-43 74c-84 146-223 371-246 399-32 37-30 46 9 47 26 1 334 42 427 56 14 2 46 5 73 6 40 1 47-2 47-18z"/>
    <path d="m600 400c-15-28-3-47 72-115 82-74 203-155 233-155 27 0 48 22 43 47-2 9-43 45-92 79s-115 85-147 113c-62 55-92 63-109 31z"/>
    <path d="m231 369c-11-12-43-72-71-135-42-93-49-117-40-134 13-25 51-26 72-2 9 9 35 61 58 115 23 53 46 100 51 103 13 8 11 48-3 62-18 18-45 14-67-9z"/>
  </g>
</svg>
