<?xml version="1.0"?>
<svg xmlns="http://www.w3.org/2000/svg" height="200pt" preserveAspectRatio="xMidYMid meet" viewBox="0 0 200 200" width="200pt">
  <g transform="matrix(.1 0 0 -.1 0 200)">
    <path d="m417 1863c-4-3-7-47-7-98v-91l-115-33c-63-18-119-39-126-47-15-19-3-62 19-66 9-2 59 9 111 24 51 16 97 28 102 28s9-71 9-158v-159l-154-37c-153-37-186-53-186-89s33-37 171-3c74 19 154 37 178 41l43 7-18-28c-46-71-126-180-229-309-177-222-196-255-160-285 27-22 53 2 198 186 121 152 142 173 162 168 12-3 45 1 73 9 27 9 76 19 107 22l58 8-44-62c-23-33-51-63-61-67-24-7-32-43-17-79 6-17 17-49 25-72l13-42-132-41c-167-53-274-97-281-116-8-21 11-54 31-54 8 0 88 24 177 54 88 29 176 57 195 61l33 7-3-165c-2-91-7-168-10-172-4-3-24 3-44 14-37 19-65 19-65-2 0-22 52-85 85-103 27-14 40-16 62-8 47 16 57 63 57 276l1 186 90 17c50 9 104 21 122 27 41 12 52 43 25 70-19 20-20 20-127-2-60-12-114-24-120-26-6-3-18 20-29 55l-18 59 44 54c62 76 89 123 90 157 2 64-30 72-182 47-47-8-93-17-103-21-11-5 8 32 50 98l68 105 75 11c41 6 109 13 150 17 81 7 120 24 120 53 0 41-23 46-152 33-67-7-122-11-124-9-2 1 20 41 48 87 28 47 74 132 101 188 54 111 55 137 6 137-27 0-32-8-121-170-73-134-164-275-177-275-8 0-21 305-14 319 1 2 41 11 89 21 102 21 127 45 88 84-21 21-29 21-161-9-22-5-23-3-23 73 0 47-5 83-12 90-13 13-50 16-61 5z"/>
    <path d="m1081 1787c-6-8-18-52-26-100-50-285-68-352-143-510-42-91-44-99-29-114 37-37 96 29 153 168l27 68 42-102c60-144 99-227 129-275l26-41-54-108c-111-221-238-386-377-490-90-67-99-79-77-101 67-67 297 134 451 396 29 49 65 116 81 150s33 62 37 62c3 0 46-53 95-117 107-144 278-348 356-425 72-71 110-93 138-78 35 19 25 55-30 102-64 55-259 283-404 473l-113 148 48 121c57 144 118 343 126 407l6 47 83 7c52 4 87 12 95 21 14 18 4 60-17 68-22 9-321-20-468-44-66-11-120-19-122-18-1 2 6 50 17 108 22 123 23 162 7 178s-43 15-57-1zm374-359c-11-50-110-347-133-398l-20-45-60 125c-73 152-121 285-107 299 10 10 240 48 298 50 27 1 28-1 22-31z"/>
  </g>
</svg>
