<?xml version="1.0"?>
<svg xmlns="http://www.w3.org/2000/svg" height="200pt" preserveAspectRatio="xMidYMid meet" viewBox="0 0 200 200" width="200pt">
  <g transform="matrix(.1 0 0 -.1 0 200)">
    <path d="m655 1916c-16-12-19-25-17-85 2-39 1-71 0-71-2 0-57-11-123-24s-121-23-122-22c-2 1-7 35-13 75-12 85-24 111-49 111-36 0-44-24-37-119l7-89-73-17c-108-25-107-25-118-46-8-13-7-25 0-39 13-24 52-26 130-5 30 8 58 15 63 15 4 0 7-72 7-160 0-157 0-160-23-165-12-2-65-12-117-21s-101-21-107-26c-19-15-16-56 6-67 20-11 297 30 604 89 87 16 170 30 183 30 27 0 64 32 64 55 0 8-10 21-22 29-20 12-34 13-95 2l-73-12v162 161l52 5c34 4 56 12 65 24 18 24 17 30-8 55-17 17-28 20-64 15-41-7-42-6-49 25-3 17-6 46-6 65 0 30-21 64-39 64-4 0-16-6-26-14zm-15-419v-164l-102-17c-57-10-110-19-119-22-15-4-17 13-21 158-2 90-3 164-2 166 3 5 188 40 217 41l27 1z"/>
    <path d="m1093 1858c-6-7-13-73-17-147-14-271-24-317-117-509-47-98-57-127-48-138 33-40 82-1 134 105 21 44 42 81 45 81s26-53 50-117c24-65 75-180 113-256l68-138-58-111c-32-60-88-149-125-197-116-147-121-157-108-180 6-12 21-21 35-21 42 0 181 176 269 341l42 79 74-103c132-181 268-308 395-368 71-34 120-38 135-9 8 15 6 23-12 40-12 11-27 20-34 20-30 0-196 125-274 207-78 81-198 238-223 290-8 18-1 42 41 135 72 159 199 500 213 570 8 42 16 58 28 58 39 0 90 22 96 41 15 46-47 61-163 39-38-7-473-60-494-60-2 0-2 74 0 165 5 172 0 195-38 195-10 0-22-6-27-12zm517-404c0-40-224-604-240-604-19 0-110 207-228 521-6 14-7 31-3 37 4 8 88 22 207 36 254 30 264 30 264 10z"/>
    <path d="m694 1109c-40-5-137-20-215-35-79-15-161-29-181-32-58-6-62-17-49-129 6-54 16-246 22-427 5-181 13-344 17-364 9-43 34-62 60-46 15 10 17 32 17 220v209l90 18c50 9 146 23 215 30l125 13 2-26c1-14 7-81 13-150s13-137 15-151c4-26 3-26-39-22-34 4-44 2-49-11-7-19 13-41 85-94 52-37 68-39 92-13 18 20 18 13-15 291-5 47-12 220-16 385-6 344-7 346-76 344-23-1-74-5-113-10zm96-139c0-33-3-60-7-60-16 0-379-49-409-56l-31-6-6 53c-4 29-5 54-4 55 8 8 353 64 445 73 8 1 12-17 12-59zm0-234v-84l-87-7c-84-6-298-39-335-51-16-5-18 3-18 80 0 76 2 85 20 91 24 7 350 52 393 54l27 1z"/>
  </g>
</svg>
