<?xml version="1.0"?>
<svg xmlns="http://www.w3.org/2000/svg" height="200pt" preserveAspectRatio="xMidYMid meet" viewBox="0 0 200 200" width="200pt">
  <g transform="matrix(.1 0 0 -.1 0 200)">
    <path d="m666 1864c-12-11-16-36-16-93 0-51-4-82-12-88-11-8-211-43-245-43-7 0-14 26-18 66-10 89-46 122-80 71-12-19-13-34-4-86 5-35 6-67 2-71-4-3-30-12-58-19-78-19-100-33-103-64-5-38 18-44 94-24 34 9 69 17 77 17s23-25 37-62c33-90 79-130 109-94 10 11 6 31-15 91-16 44-23 80-18 84 9 8 206 42 212 36 1-1-9-33-24-71-34-89-36-128-8-132 32-5 78 58 105 142 12 39 23 72 24 74 1 1 37 7 80 12 88 11 107 22 103 59-3 26-3 26-88 24l-86-2 4 70c6 98-29 147-72 103z"/>
    <path d="m1147 1756c-8-8-20-50-27-93-31-194-98-358-185-452-53-59-56-64-42-84 32-46 101-6 168 99l42 65 23-79c25-86 87-233 137-323l32-58-80-162c-44-89-97-189-118-221-37-59-190-253-208-263-16-10-10-34 11-45 37-20 69 0 143 89 115 137 126 153 222 342l91 178 58-87c130-192 321-435 371-473 53-40 100-50 123-27 21 21 13 36-47 83-43 32-97 95-189 218-143 191-272 372-272 382 0 4 33 97 74 208 77 209 109 315 104 345-3 14 9 18 77 25 99 10 125 17 139 40 8 12 8 22 0 35-18 26-132 19-399-26-126-22-231-39-233-37-1 1 7 40 18 86 28 116 36 214 20 234-16 19-34 19-53 1zm343-375c0-29-122-380-148-428-9-15-20 5-82 148-39 88-85 237-77 246 5 4 256 49 295 52 6 1 12-7 12-18z"/>
    <path d="m282 1294c-17-12-22-25-22-58 0-99-73-299-150-411-38-55-36-79 6-83 26-3 37 4 67 38 19 23 52 79 73 125l39 83 100 22c55 11 150 28 210 36 61 8 125 16 144 19l34 4-6-162c-5-162-26-272-83-445-19-59-93-209-110-222-12-11-32-4-83 25-46 26-67-7-35-53 25-37 94-82 124-82 34 0 64 37 125 153 45 86 80 186 121 352 21 83 27 133 31 292 4 147 3 196-7 208-16 19-100 20-240 0-98-14-244-40-282-51-14-4-15 0-7 33 5 21 9 68 9 105 0 55-3 69-18 77-14 7-25 6-40-5z"/>
    <path d="m430 850c-30-4-64-6-76-3-12 2-29-3-38-13-15-15-17-31-11-118 9-150 11-160 47-186l32-24 131 17c97 12 133 21 142 34 9 11 13 53 13 117 0 105-11 164-32 178-15 9-131 8-208-2zm148-152-3-82-85-12c-47-7-86-12-86-11-1 1-5 39-8 84-8 94-13 90 94 96 30 2 63 4 73 5 16 2 18-6 15-80z"/>
  </g>
</svg>
