<?xml version="1.0"?>
<svg xmlns="http://www.w3.org/2000/svg" height="200pt" preserveAspectRatio="xMidYMid meet" viewBox="0 0 200 200" width="200pt">
  <g transform="matrix(.1 0 0 -.1 0 200)">
    <path d="m459 1813c-11-13-13-58-11-217l4-202-144-33c-79-18-150-37-158-41s-16-19-18-33c-6-48 28-53 153-23 59 15 110 24 112 22 11-10-116-180-229-309-75-85-85-108-52-121 45-17 156 85 275 254l64 91 3-131c3-128 3-131 27-142 20-9 28-8 45 7 17 16 20 33 22 157l3 139 90-71c50-39 101-73 114-77 32-8 56 8 56 38 0 18-27 43-119 112-81 62-114 92-105 97 8 5 59 15 114 24 110 19 144 40 125 77-13 24-75 25-187 4-43-8-83-15-89-15-8 0-14 60-19 193-4 105-12 198-17 205-15 17-43 15-59-5z"/>
    <path d="m1056 1807c-12-9-24-51-42-147-31-169-44-214-105-363-39-93-47-122-38-133 17-20 33-17 67 11 17 14 32 25 35 25 2 0 7-19 10-42 11-78 67-231 138-379l71-145-38-65c-37-65-231-314-311-401-27-30-41-53-37-62 9-24 64-20 101 7 40 27 228 256 291 354 26 40 50 72 54 73 3 0 23-22 42-49 56-76 134-142 268-227 231-146 407-204 396-131-2 17-35 38-148 97-262 136-390 234-481 366l-29 43 81 163c45 90 99 215 121 278 50 148 108 357 108 391 0 26 2 27 73 34 97 10 131 40 90 80-14 14-28 16-82 11-70-7-470-86-561-111-30-8-56-13-58-11s3 37 12 77c8 41 20 109 27 152 11 71 10 79-6 97-21 24-26 24-49 7zm464-348c0-27-49-194-100-343-37-108-163-376-176-376-3 0-32 55-64 122-61 128-112 284-125 378-4 30-13 62-21 70-26 30-6 58 55 76 45 13 394 90 424 93 4 1 7-8 7-20z"/>
    <path d="m728 1703c-104-132-102-131-88-148 18-22 32-19 84 22 70 54 147 161 144 198-2 24-8 31-29 33-23 3-38-12-111-105z"/>
    <path d="m178 1782c-28-6-34-50-12-89 30-58 128-167 157-178 31-10 60 2 65 28 2 8-27 48-63 89-37 40-75 89-85 109-20 39-34 48-62 41z"/>
    <path d="m682 877c-6-7-17-49-24-92l-14-80-93-16-93-15 7 58c6 49 4 63-11 79-36 40-60 18-76-72-6-35-14-70-18-77-3-8-56-30-116-50-105-36-109-38-109-66 0-49 24-54 117-23 45 14 83 25 85 23s-7-48-21-102c-23-89-24-101-10-121 10-17 25-23 52-24 20 0 55-6 76-12l40-12-45-39c-24-21-65-48-90-61-61-31-76-50-58-71 10-12 24-15 56-10 59 8 110 36 176 96 30 27 62 50 70 50 9 0 50-18 92-40 82-43 106-48 125-26 26 32 7 57-75 102-44 24-84 45-88 47-4 1 3 27 17 57 13 30 35 98 47 150l22 96 144 21c79 11 150 26 158 33s15 23 15 36c0 42-28 46-162 24-68-11-127-20-132-20-4 0-5 32-1 70 5 50 4 75-5 85-15 18-44 19-58 2zm-59-289c-16-72-48-168-65-199l-20-35-69 15c-78 18-76 11-50 126l17 80 80 17c109 23 113 22 107-4z"/>
  </g>
</svg>
