<?xml version="1.0"?>
<svg xmlns="http://www.w3.org/2000/svg" height="200pt" preserveAspectRatio="xMidYMid meet" viewBox="0 0 200 200" width="200pt">
  <g transform="matrix(.1 0 0 -.1 0 200)">
    <path d="m399 1948c-8-14-9-46-5-93 8-84 14-78-109-90-85-9-105-18-105-51 0-39 32-48 135-35 49 6 91 8 94 6 2-3 7-32 9-64l4-58-68-14c-38-7-84-13-103-13-54-1-58-19-31-142 13-60 30-120 38-133 13-21 18-23 69-16 31 4 63 9 71 12 29 12-6-31-131-163-69-72-130-141-136-152-23-43 15-73 58-46 14 9 75 66 134 127l108 112-5-108c-6-131 4-167 44-167 16 0 32 6 37 13 4 6 10 81 13 165l5 153 65-45c64-43 78-50 111-47 24 2 32 30 15 56-8 12-45 41-82 66l-68 44 79 3c43 2 85 8 92 14 15 12 18 54 4 62-5 3-6 53-4 110 5 97 4 105-16 125-24 24-21 24-167 5l-41-6-6 59c-2 32-2 61 2 65 4 5 49 10 101 14 129 7 139 10 146 39 11 43-10 55-95 54-42 0-97-4-123-8-45-7-46-7-52 22-3 16-6 46-6 66 0 68-55 108-81 59zm247-500c-3-29-6-60-6-70 0-13-12-17-60-20l-60-3v67c0 75 0 75 84 77l49 1zm-222-9c3-17 6-44 6-60 0-28-10-33-89-42-9-1-18 17-27 53-7 30-10 57-8 59 4 5 69 18 95 20 11 1 19-10 23-30z"/>
    <path d="m1063 1875c-11-8-31-40-43-72-33-83-96-207-141-279-43-67-48-98-21-113 22-12 57 6 81 42l17 27 112-119 111-119-32-45c-37-52-193-185-222-189-45-7-17-78 30-78 45 0 219 138 265 210l32 50 41-34c106-84 429-272 511-297 37-11 66 5 66 35 0 29-11 36-187 128-131 68-293 168-358 221l-29 24 75 129c77 130 119 216 119 240 0 7 16 16 38 19 93 14 116 21 126 38 8 12 8 22 0 35-10 14-25 17-85 16-69-1-390-44-470-63l-37-8 28 68c39 94 42 122 12 138-14 7-25 6-39-4zm322-270c-20-46-152-266-161-267-15-2-225 215-216 224 14 14 110 37 240 57 165 27 154 28 137-14z"/>
    <path d="m1140 845c-69-8-208-21-310-30s-203-20-224-25c-58-13-74-48-34-74 20-12 41-12 153-1 72 8 139 14 150 14 20 1 21-8 33-206 7-115 12-227 12-249v-41l-46-7c-26-3-73-6-105-6h-59v128c0 133-10 174-43 180-41 8-47-13-47-170 0-110-3-150-12-152-7-2-87-16-178-30-122-19-168-30-177-43-16-21-16-25 1-48 15-21 19-20 281 19 294 45 943 64 1181 36 52-6 103-8 114-5 26 8 37 52 19 70-25 25-197 38-521 39l-318 1v70c0 39-3 87-6 108l-7 37h44c82 1 289 28 304 40 21 17 19 57-4 69-13 7-57 6-142-4-68-8-143-15-166-15h-43v94 93l113 11c61 7 156 15 209 18 77 5 101 11 114 26 14 15 15 23 6 43-11 24-16 25-89 24-43-1-134-7-203-14z"/>
  </g>
</svg>
