<?xml version="1.0"?>
<svg xmlns="http://www.w3.org/2000/svg" height="200pt" preserveAspectRatio="xMidYMid meet" viewBox="0 0 200 200" width="200pt">
  <g transform="matrix(.1 0 0 -.1 0 200)">
    <path d="m444 1876c-13-21-14-45-8-165l7-140-39-6c-91-16-250-57-271-71-27-17-30-46-7-64 12-11 28-10 87 3 89 21 84 22 90-5 3-13 21-66 40-119l35-95-87-17c-49-10-102-14-118-11-20 4-33 1-39-7-5-8-9-174-9-369s-4-416-9-491c-10-150-6-183 25-200 16-8 24-7 38 5 16 14 19 45 27 209 5 105 8 319 8 474-1 252 0 283 15 287 46 14 256 48 406 67 94 11 190 23 214 26l43 6-6-29c-30-151-40-463-23-704 9-113 14-206 12-208-1-2-60 26-130 62-101 52-132 63-146 55-31-16-22-35 44-88 68-53 236-141 272-141 12 0 30 9 40 20 20 22 20 18-5 395-12 169-9 251 17 511 9 89 13 173 9 188-9 37-37 40-172 18-66-10-120-18-122-17-2 2 28 247 32 252 0 1 57 7 125 14 96 9 128 16 143 31 22 22 22 28 4 53-13 18-19 18-212 1-110-9-209-19-220-21-21-5-22-1-29 143-4 81-12 153-17 160-17 20-46 14-64-12zm176-393c0-10-8-68-17-130-14-92-20-113-33-113-10 0-38-3-64-6-33-5-46-3-46 5 0 7-18 60-40 118-22 59-37 109-34 112 7 7 148 29 197 30 29 1 37-3 37-16z"/>
    <path d="m1228 1878c-10-9-20-44-27-108-31-254-97-469-172-563-39-48-36-81 7-85 26-3 37 4 68 39 20 23 38 40 41 38 2-3 21-52 41-109 45-131 79-206 132-294 23-37 42-73 42-79 0-36-225-372-285-425-48-42-54-66-24-85 60-38 152 66 357 403l15 24 16-23c90-136 254-323 330-375 72-50 141-52 141-4 0 17-13 30-48 50-64 36-220 199-315 329-42 59-77 112-77 118s29 98 64 204c36 105 88 265 117 354 57 177 53 173 140 173 32 0 51 6 62 18 22 24 21 35-3 57-19 18-27 17-223-4-111-13-242-29-290-38-49-8-90-13-92-11-1 1 6 50 16 108s21 140 25 183c6 66 4 80-11 97-21 23-26 24-47 8zm379-450c-3-7-49-145-102-306-75-228-99-291-109-283-22 18-104 202-155 346-45 129-48 143-36 171 13 31 14 31 151 52 77 12 150 23 164 25 57 9 92 7 87-5z"/>
    <path d="m490 1081c-5-11-10-44-10-75v-54l-78-26c-96-32-122-50-122-82 0-36 25-40 94-17 114 40 106 41 106-16 0-42-3-51-18-51-10 0-42-12-72-28-43-21-56-33-58-53-3-27 32-180 49-211 10-19 48-24 64-9 13 12 145 38 232 47 37 4 73 11 79 16 7 5 20 61 30 125l18 116-23 18c-21 17-34 18-117 13l-94-7v50 51l80 12c85 13 103 25 98 62-3 20-9 23-55 26-29 2-68-1-88-7l-35-9v42c0 70-54 115-80 67zm209-418c-13-69-15-73-46-73-15 0-68-9-117-20-50-11-91-20-92-20s-8 23-14 51c-10 43-10 53 1 60 32 21 154 46 230 48l46 1z"/>
  </g>
</svg>
