<?xml version="1.0"?>
<svg xmlns="http://www.w3.org/2000/svg" height="200pt" preserveAspectRatio="xMidYMid meet" viewBox="0 0 200 200" width="200pt">
  <g transform="matrix(.1 0 0 -.1 0 200)">
    <path d="m905 1823c-15-15-16-32-9-152 4-75 8-152 8-171l1-34-165-17c-198-20-560-78-578-92-20-16-10-50 18-64 28-13 32-12 280 27 126 20 136 20 145 4 78-132 320-463 370-504 18-15 14-22-131-195-160-192-339-351-425-376-21-7-47-21-56-31-17-19-17-20 2-35 43-32 155 7 265 92 75 58 238 229 334 350 44 55 82 103 86 107 3 4 57-38 120-93 252-221 575-417 694-422 37-2 41 0 44 24 3 25-7 31-135 97-214 111-414 250-612 429l-53 48 37 55c74 108 214 421 223 498 4 39 7 42 36 42 99 0 455 23 474 30 26 11 30 51 6 71-16 13-226 7-697-22-99-6-180-9-182-7s-10 77-18 168c-13 134-19 166-33 177-23 17-29 16-49-4zm375-438c0-40-130-333-190-429-23-37-47-65-54-63-18 6-182 214-267 340-44 64-79 117-77 118 32 6 472 47 521 48 53 1 67-2 67-14z"/>
  </g>
</svg>
