<?xml version="1.0"?>
<svg xmlns="http://www.w3.org/2000/svg" height="200pt" preserveAspectRatio="xMidYMid meet" viewBox="0 0 200 200" width="200pt">
  <g transform="matrix(.1 0 0 -.1 0 200)">
    <path d="m1498 1848c-1-7-2-233-3-503v-490l-107-12c-59-6-194-25-300-42s-211-34-233-37c-22-4-46-11-52-16-20-16-15-46 9-59 26-14 88-8 338 31 102 16 222 32 268 36l82 7v-154c1-158 21-437 34-458 10-16 51-14 66 4 9 11 11 40 6 107-3 51-9 186-12 301l-6 207h94c79 0 98 3 111 18 21 23 21 36 1 56-12 12-37 16-110 16h-94l-1 78c-3 458-17 893-29 907-15 18-59 20-62 3z"/>
    <path d="m469 1823c-11-13-14-68-14-257v-240l-169-28c-94-16-176-34-183-40-16-13-17-40-1-56 17-17 63-15 201 8 66 12 126 20 135 18 15-3-96-231-247-505-82-149-94-196-49-201 35-4 54 23 166 233 50 94 104 194 120 224l29 53 6-393c4-217 11-409 15-428 9-42 34-61 60-45 20 13 19-37 9 569l-7 450 99-103c86-90 103-103 128-100 22 2 29 9 31 31 3 24-11 43-97 131-56 56-101 105-101 108s51 9 113 13c61 3 120 9 130 11 27 8 40 40 26 65-11 21-15 22-133 16-66-4-138-10-158-13l-38-7-2 169c-2 93-3 201-3 239 0 39-4 76-8 83-11 17-42 15-58-5z"/>
    <path d="m709 1764c-15-18-99-213-99-230 0-20 28-36 50-29 20 6 101 159 115 216 11 45-38 77-66 43z"/>
    <path d="m192 1678c-7-7-12-21-12-31 0-28 53-117 94-156 30-29 38-32 50-21 22 17 12 50-37 135-52 88-68 100-95 73z"/>
    <path d="m1076 1364c-9-8-16-21-16-28 0-16 36-49 76-69 17-9 53-32 79-52 49-38 80-42 99-13 16 27-19 65-114 126-91 57-101 60-124 36z"/>
    <path d="m1098 1099c-26-15-22-45 8-66 14-10 55-40 91-66 75-55 116-61 121-17 4 31-39 74-122 124-65 39-72 41-98 25z"/>
  </g>
</svg>
