<?xml version="1.0"?>
<svg xmlns="http://www.w3.org/2000/svg" height="200pt" preserveAspectRatio="xMidYMid meet" viewBox="0 0 200 200" width="200pt">
  <g transform="matrix(.1 0 0 -.1 0 200)">
    <path d="m542 1828c-16-16-15-67 4-351 9-131 14-240 11-243s-62-15-131-26c-131-22-155-34-140-72 10-26 49-29 152-13 53 8 98 14 99 13 6-6-115-264-153-325-90-146-91-148-72-167 11-11 25-15 42-10 33 8 124 145 182 274 43 94 44 96 45 57 10-290 14-338 32-349 22-14 49 2 61 37 6 15 5 106 0 228-5 112-9 205-9 206s30-18 65-43c77-53 123-58 128-12 3 23-7 33-73 79-75 53-76 54-48 61 15 4 55 10 88 14 79 9 97 19 93 51-5 45-26 49-148 29-62-9-114-16-116-13-4 3-44 490-44 534 0 40-43 66-68 41z"/>
    <path d="m1589 1793c-50-74-354-377-451-450-52-39-88-73-88-83s7-51 15-91c41-200 36-393-14-657-44-227-43-251 10-252 25 0 39 23 49 81 5 30 21 115 36 189 32 167 42 417 22 552l-14 87 121 21c66 12 125 23 131 25 8 2 13-43 17-153 3-86 12-213 21-282 15-121 31-333 42-550 3-58 7-115 10-127 6-31 41-39 66-16 19 17 20 25 15 143-11 209-27 418-43 555-16 134-35 437-28 444 2 2 83 9 180 16 180 12 193 16 194 56 0 9-7 22-16 30-31 26-396-11-669-67-27-5-24-2 19 27 100 67 387 362 450 462 25 41 18 81-16 85-22 3-32-5-59-45z"/>
    <path d="m802 1738c-5-7-13-24-17-38s-27-60-52-102c-63-109-69-171-14-153 24 7 94 107 133 190 26 56 29 70 19 91-12 26-51 33-69 12z"/>
    <path d="m250 1695c-21-26-3-60 86-154 72-76 91-92 113-89 20 2 27 9 29 30 3 22-10 41-60 96-35 37-75 82-91 100-29 35-57 41-77 17z"/>
    <path d="m144 1544c-7-26-3-96 16-289 6-55 9-264 8-464l-1-364 22-19c13-10 32-16 45-13 46 10 608 65 669 65 73 0 93 14 83 55-4 16-16 27-32 31-35 9-172 0-454-30-129-14-236-23-238-21s-5 171-7 377c-3 291-7 406-22 523-11 83-23 156-27 163s-18 12-31 12c-18 0-26-7-31-26z"/>
  </g>
</svg>
