<?xml version="1.0"?>
<svg xmlns="http://www.w3.org/2000/svg" height="200pt" preserveAspectRatio="xMidYMid meet" viewBox="0 0 200 200" width="200pt">
  <g transform="matrix(.1 0 0 -.1 0 200)">
    <path d="m386 1854c-13-12-16-40-16-134v-119l-57-16c-132-36-158-49-161-76-5-40 19-54 70-41 23 6 43 10 43 9 1-1 20-35 44-76 23-41 40-76 37-78-2-2-39-13-83-24-141-35-153-39-163-59-16-29 4-60 38-60 15 0 87 16 160 34l132 34v-127-127l-118-23c-147-28-162-34-162-64 0-52 35-58 170-28 47 11 86 18 87 17s-25-73-58-161c-67-180-158-373-213-454-54-79-46-120 17-84 63 37 153 184 234 383l42 105 1-291c0-212 3-293 12-302 18-18 56-14 68 7 6 13 10 146 11 363 0 326 1 342 17 318 47-69 139-185 154-194 14-8 23-6 40 11 27 28 22 40-62 155-100 137-110 148-130 148-11 0-20 4-20 9 0 11 24 16 138 31 99 13 110 17 123 41 16 30-6 59-44 59-28 0-108-11-189-25l-27-4-3 124c-2 89 0 126 9 129 6 3 40 8 75 11 123 11 148 16 163 31 19 19 20 60 1 67-14 5-131 0-180-8-28-5-28-5-12 18 25 34 76 140 76 158 0 19 28 29 86 29 61 0 92 40 58 74-21 21-74 20-214-4-63-11-116-20-117-20-2 0-3 46-3 103 0 77-4 108-16 125-18 26-37 28-58 6zm139-389c-19-43-35-86-35-96 0-11-4-19-9-19s-16-3-25-6c-10-4-18 1-23 12-4 11-22 45-40 76s-33 61-33 66c0 8 189 52 198 47 1-1-13-37-33-80z"/>
    <path d="m1334 1803c-100-184-276-445-334-498-17-16-20-31-20-114 0-108-17-229-50-347-26-94-108-271-138-298-29-25-28-54 3-68 19-9 29-8 49 5 101 67 211 385 229 662l2 39 85 17c47 10 104 20 128 24l42 6v-111c0-61 7-197 15-303 8-105 19-310 25-455 5-145 14-272 20-282 13-23 52-26 70-6 14 18-1 491-24 751-26 286-30 414-15 419 8 3 97 15 199 26 102 12 191 26 198 32 19 16 14 56-9 68-15 9-55 7-157-5-180-21-386-52-494-74l-87-18 60 66c113 126 262 356 275 428 11 61-43 88-72 36z"/>
  </g>
</svg>
