<?xml version="1.0"?>
<svg xmlns="http://www.w3.org/2000/svg" height="200pt" preserveAspectRatio="xMidYMid meet" viewBox="0 0 200 200" width="200pt">
  <g transform="matrix(.1 0 0 -.1 0 200)">
    <path d="m872 1888c-8-8-12-66-12-195v-182l-32-6c-51-8-434-53-518-61-100-9-135-38-91-78 21-19 87-15 441 29 107 13 197 22 199 20 10-11 1-284-13-370-20-118-65-280-109-384-35-85-118-240-154-289-27-36-27-59 0-76 41-26 94 35 186 214 75 145 149 374 166 512l7 55 100 17c128 21 335 38 418 34l65-3 13-90c19-137 9-338-23-450-25-86-75-214-95-245-8-13-20-9-80 22-78 43-120 49-120 19 0-35 173-165 212-159 12 2 35 21 50 43 34 49 102 220 129 323 29 110 36 334 15 472-20 132-34 154-102 158-74 5-356-17-469-36l-100-17-2 131-2 131 49 7c27 4 132 11 232 16 355 18 520 33 534 48 19 18 18 37-3 58-19 19-2 19-478-10-137-9-269-18-291-22l-42-6-3 175c-4 180-11 207-48 207-9 0-22-5-29-12z"/>
  </g>
</svg>
