<?xml version="1.0"?>
<svg xmlns="http://www.w3.org/2000/svg" height="200pt" preserveAspectRatio="xMidYMid meet" viewBox="0 0 200 200" width="200pt">
  <g transform="matrix(.1 0 0 -.1 0 200)">
    <path d="m319 1819c-15-15-20-29-15-50 3-15 8-77 11-136 4-59 8-118 10-129 4-19-1-22-52-28-85-10-206-36-220-48-17-14-16-53 1-67 12-10 43-8 141 9 70 12 129 19 131 17 11-11 24-241 19-322-19-279-71-582-122-715-37-95-40-135-13-150 34-18 61 8 92 87 54 140 97 349 120 585l12 126 36 6c20 3 82 9 138 12l102 7-1-219c0-139-7-270-18-359l-17-140-30 3c-34 3-58-17-49-40 9-22 78-58 113-58 16 0 36 7 43 16 29 36 66 519 54 727-9 176-1 169-180 156-71-5-142-11-157-15l-28-6v75c0 42-5 110-11 153-6 42-7 80-2 85 4 4 82 15 173 24 171 17 210 29 210 65 0 37-37 50-120 40-212-25-263-30-266-27-2 2-9 53-14 113-15 159-21 193-37 209-19 20-29 19-54-6z"/>
    <path d="m1042 1808c-7-7-12-32-12-57 0-83-19-213-40-276-11-33-47-109-80-168-58-105-64-129-33-141 37-15 97 55 160 184 30 62 43 79 63 83 14 3 78 17 144 31 65 15 121 25 123 22 8-7-88-229-125-291-43-71-132-176-249-296-91-92-102-121-50-127 38-5 111 53 202 157l70 81 5-412c3-227 9-419 13-425 12-19 64-16 71 3 3 9 6 169 6 357v342l71-135c62-119 247-409 296-465 44-50 114-73 126-41 3 7-35 68-84 135-147 202-294 451-266 451 27 0 105 89 183 206 41 63 79 126 84 140 13 33-3 64-33 64-18 0-40-26-105-124-45-69-104-148-130-177l-49-53-32 77c-17 42-34 91-38 109-3 18-10 41-15 50-6 13 2 39 30 95 22 43 56 123 77 178s42 105 47 111c7 10 52 16 281 39 50 5 57 11 57 46 0 45-27 50-171 33-216-24-461-66-520-89-12-5-14 14-11 130 4 140-1 165-37 165-9 0-22-5-29-12z"/>
  </g>
</svg>
