<?xml version="1.0"?>
<svg xmlns="http://www.w3.org/2000/svg" height="200pt" preserveAspectRatio="xMidYMid meet" viewBox="0 0 200 200" width="200pt">
  <g transform="matrix(.1 0 0 -.1 0 200)">
    <path d="m314 1819c-7-11 3-248 12-304l5-31-103-16c-149-24-182-37-186-70-5-43 24-52 111-34 39 8 95 17 123 21l51 6 7-33c44-223-22-780-125-1055-27-71-21-96 25-101 24-3 29 3 56 61 57 126 103 343 131 619 15 136-1 124 172 134l117 7v-204c0-128-6-263-17-362l-17-158-26 2c-45 2-51 0-48-23 7-49 118-89 148-53 6 8 21 90 32 182 25 208 30 643 9 682l-13 24-142-7c-77-3-153-9-167-12l-26-6-6 109c-4 59-10 131-13 159l-6 51 118 12c200 20 248 29 262 48 7 10 11 24 10 33-7 33-41 36-213 17-191-21-185-23-185 58 0 75-21 228-32 243-13 15-54 16-64 1z"/>
    <path d="m1026 1817c-12-9-20-35-26-84-20-154-78-335-135-419-37-54-42-73-23-92 21-21 55-13 83 19 30 36 76 125 95 182 8 25 21 42 37 48 51 19 255 50 462 69 118 11 220 25 227 31 22 18 17 58-9 70-25 11-366-19-522-47-44-8-96-17-116-20l-37-6 14 58c7 33 14 87 14 121 0 51-3 64-19 73-24 13-24 13-45-3z"/>
    <path d="m1098 1378c-9-7-30-53-48-103-42-116-91-219-135-285-40-60-43-75-16-90 40-21 78 8 129 100l31 55 93 17c51 9 104 17 116 17l24 1-4-134c-1-74-5-137-8-139-3-3-72-19-153-35-158-32-200-50-195-84 6-40 29-43 130-20 51 11 117 24 147 28 53 7 53 7 46-17-50-162-141-305-232-364-67-44-81-75-42-96 74-39 231 112 314 304l28 64 48-72c63-93 226-260 309-316 119-80 228-110 264-73 25 24 7 42-80 80-43 19-110 55-147 81-75 51-222 203-278 288-41 63-75 133-67 140 3 3 83 15 179 26 136 16 178 24 193 38 23 24 14 59-18 67-20 5-254-18-326-32l-25-4-3 143-3 144 163 12c205 16 206 16 214 46 11 42-10 55-90 55-117 0-411-37-533-67-22-5-22-5 7 83 35 103 37 130 11 144-24 13-24 13-43-2z"/>
  </g>
</svg>
