<?xml version="1.0"?>
<svg xmlns="http://www.w3.org/2000/svg" height="200pt" preserveAspectRatio="xMidYMid meet" viewBox="0 0 200 200" width="200pt">
  <g transform="matrix(.1 0 0 -.1 0 200)">
    <path d="m314 1819c-7-11 3-248 12-304l5-31-103-16c-149-24-182-37-186-70-5-43 24-52 111-34 39 8 95 17 123 21l51 6 7-33c44-223-22-780-125-1055-27-71-21-96 25-101 24-3 29 3 56 61 57 126 103 343 131 619 15 136-1 124 172 134l117 7v-204c0-128-6-263-17-362l-17-158-26 2c-45 2-51 0-48-23 7-49 118-89 148-53 6 8 21 90 32 182 25 208 30 643 9 682l-13 24-142-7c-77-3-153-9-167-12l-26-6-6 109c-4 59-10 131-13 159l-6 51 118 12c200 20 248 29 262 48 7 10 11 24 10 33-7 33-41 36-213 17-191-21-185-23-185 58 0 75-21 228-32 243-13 15-54 16-64 1z"/>
    <path d="m986 1778c-3-13-10-57-16-100-25-171-88-360-151-450-31-43-21-78 21-78 37 0 120 125 150 226 12 40 15 42 59 47 25 4 190 11 366 17s331 14 345 18c28 8 39 44 20 68-16 18-121 18-480 0-146-8-266-13-268-11-2 1 4 38 13 82s15 106 13 139c-3 58-3 59-35 62-27 3-33-1-37-20z"/>
    <path d="m1462 1348c-7-7-12-41-12-83v-71l-112-12c-62-7-127-16-145-19l-32-5-3 82c-2 66-7 85-20 94-13 8-23 8-35 0-15-9-19-28-21-102l-3-90-72-13c-91-15-107-24-107-54 0-38 29-47 105-34 37 6 67 10 69 8s6-136 10-297c6-236 5-293-6-296-7-3-57-12-112-21-122-21-160-50-119-90 11-12 25-15 47-10 205 42 284 48 620 51 187 2 346 6 353 8 7 3 13 17 13 31 0 42-47 55-201 55h-131l3 98c1 53-1 195-6 315l-8 217h111c113 0 142 9 142 45s-29 45-139 45h-108l-7 31c-3 17-6 48-6 68 0 40-14 61-40 61-9 0-21-5-28-12zm-12-312v-74l-62-6c-35-3-98-8-140-12l-78-6v65c0 76-8 71 125 86 83 10 128 16 148 20 4 0 7-32 7-73zm10-255v-88l-82-7c-46-3-111-9-145-13l-63-6v91 91l53 5c76 9 125 12 185 14l52 2zm0-241v-60h-62c-35 0-101-3-147-7l-84-6 6 53c4 29 8 55 10 57 8 7 131 20 205 22l72 1z"/>
    <path d="m1512 324c-20-36 0-53 133-120 73-36 141-64 150-62 27 5 42 34 30 56-13 21-252 142-282 142-12 0-26-7-31-16z"/>
    <path d="m1050 265c-65-56-75-69-75-97 0-30 3-33 32-33 25 0 47 14 107 68 75 67 88 91 64 115-23 23-54 10-128-53z"/>
  </g>
</svg>
