<?xml version="1.0"?>
<svg xmlns="http://www.w3.org/2000/svg" height="200pt" preserveAspectRatio="xMidYMid meet" viewBox="0 0 200 200" width="200pt">
  <g transform="matrix(.1 0 0 -.1 0 200)">
    <path d="m1215 1864c-22-2-107-11-190-19-82-8-186-17-230-20-44-4-131-15-194-25-99-16-116-17-128-4-21 21-40 17-60-12-15-24-16-42-5-228 7-110 21-284 32-386s27-264 35-360c9-96 22-231 31-300 8-69 19-179 24-245 12-150 15-154 121-143 162 16 760 34 894 27 84-4 144-3 150 3s9 178 6 491c-5 763-15 1159-29 1184-7 13-25 24-45 27-44 7-362 14-412 10zm379-126c3-18 7-165 9-325l3-293h-83c-46 0-183-11-306-24-122-14-276-30-342-36s-164-20-219-31c-54-11-101-17-105-14-16 16-71 658-58 672 11 10 134 30 267 43 63 6 174 17 245 24 72 8 232 14 357 15l227 1zm16-1065c0-197 3-374 6-393l6-35-294-2c-263-1-508-12-655-29l-53-7v64c0 35-7 109-14 164-22 155-51 474-44 481 21 20 157 38 808 104 41 4 112 8 158 9l82 1z"/>
  </g>
</svg>
