<?xml version="1.0"?>
<svg xmlns="http://www.w3.org/2000/svg" height="200pt" preserveAspectRatio="xMidYMid meet" viewBox="0 0 200 200" width="200pt">
  <g transform="matrix(.1 0 0 -.1 0 200)">
    <path d="m398 1626c-8-19-7-60 6-170 13-115 16-248 16-648 0-379 3-507 12-516 18-18 42-15 62 7 16 18 17 58 14 548-4 444-7 548-23 653-10 69-22 131-28 138-16 20-47 14-59-12z"/>
    <path d="m1475 1624c-27-3-174-18-326-34-222-25-282-28-303-19-20 9-29 9-41-1-19-16-19-64 0-207 8-61 19-266 26-454 6-189 14-409 17-489l7-145 49-3c27-2 149 3 270 12 123 8 273 12 337 9 109-5 118-4 138 16 15 15 21 34 21 69 2 143 20 892 26 1037 7 167 6 170-15 190-23 20-96 27-206 19zm131-236c-3-84-9-201-13-260l-6-108h-176c-97 0-245-5-329-12-83-6-155-8-159-4s-10 66-14 139-12 176-19 230-11 99-9 101c4 3 75 11 469 51 69 7 156 13 194 14l69 1zm-16-570c0-68-3-194-7-280l-6-158h-131c-72 0-213-5-313-12-101-6-184-10-187-7-8 8-29 539-22 546 10 10 334 30 519 32l147 1z"/>
  </g>
</svg>
