<?xml version="1.0"?>
<svg xmlns="http://www.w3.org/2000/svg" height="200pt" preserveAspectRatio="xMidYMid meet" viewBox="0 0 200 200" width="200pt">
  <g transform="matrix(.1 0 0 -.1 0 200)">
    <path d="m1065 1810c-303-8-556-25-587-41-9-5-25-9-36-9-42 0-46-22-33-158 31-334 59-454 111-482 11-6 110-10 229-10h210l3-147c2-82 3-149 3-150 0 0-94-9-210-18-115-9-273-25-350-35s-165-22-195-26c-71-8-90-19-90-49 0-48 27-49 310-11 63 8 180 20 260 25 80 6 175 14 211 17l66 6 6-38c4-22 7-168 7-325 0-269 1-287 19-303 27-24 58-6 67 38 3 19 4 170 2 335l-3 299 110 6c61 3 261 9 446 13 351 8 369 11 369 53s-13 43-388 36c-196-3-401-9-454-12l-98-7v145 145l128 6c70 4 177 7 239 7 97 0 114 2 121 18 10 19 19 153 29 439l6 191-26 26c-24 24-32 26-104 24-43-1-213-5-378-8zm415-188v-109l-172-6c-95-4-245-7-333-7s-226-5-307-12c-82-6-151-9-154-5-9 8-28 196-21 203 17 17 433 40 770 42l217 2zm-16-304c-4-57-8-105-10-107s-205-6-452-9l-449-5-11 59c-6 32-14 78-17 102l-7 42 74 1c410 8 792 16 831 17l47 2z"/>
  </g>
</svg>
