<?xml version="1.0"?>
<svg xmlns="http://www.w3.org/2000/svg" height="200pt" preserveAspectRatio="xMidYMid meet" viewBox="0 0 200 200" width="200pt">
  <g transform="matrix(.1 0 0 -.1 0 200)">
    <path d="m1525 1830c-230-8-413-32-460-59-28-16-30-20-28-77 14-526-7-761-97-1067-68-230-109-313-208-419-52-56-55-91-8-96 25-3 39 7 100 70 45 46 83 98 104 141 52 105 132 364 168 544 3 15 9 20 22 16 10-2 67 3 128 11 60 8 203 22 318 32 175 13 210 14 217 3 5-8 9-144 9-304 1-159 4-320 8-357l8-67-36 16c-68 29-112 43-121 37-26-15-5-45 64-91 89-60 129-77 162-69 31 8 39 39 25 96-7 28-15 229-20 525-4 264-13 539-20 610-6 72-14 210-18 307-5 106-12 182-19 189-16 16-65 17-298 9zm225-162c0-46 3-120 7-165l6-83h-59c-54 0-406-31-515-45l-47-7-6 94c-4 51-9 127-12 169l-6 76 84 13c75 12 281 24 476 28l72 2zm23-420c4-46 7-113 7-150 0-65-1-68-24-68-57 0-402-32-519-49l-129-17 6 40c3 23 8 95 12 162l7 121 236 20c130 11 272 21 317 22l81 1z"/>
    <path d="m415 1693c-243-18-243-18-255-48-6-15-6-208-2-488 6-370 10-467 21-480 18-22 89-22 246-1 77 10 159 14 228 11 92-4 109-2 116 12 5 9 11 131 15 271 3 140 9 353 12 472 8 273 10 269-104 267-42-1-167-8-277-16zm293-118c2-22 1-108-3-191l-7-151-143-6c-79-4-178-14-221-22s-79-13-81-12c-2 2-6 91-10 199l-6 195 204 15c276 21 263 22 267-27zm-18-615v-180h-92c-51 0-136-7-188-15s-110-15-127-15h-33v174c0 200-15 176 120 195 87 13 136 17 243 19l77 2z"/>
  </g>
</svg>
