<?xml version="1.0"?>
<svg xmlns="http://www.w3.org/2000/svg" height="200pt" preserveAspectRatio="xMidYMid meet" viewBox="0 0 200 200" width="200pt">
  <g transform="matrix(.1 0 0 -.1 0 200)">
    <path d="m960 1743c-36-2-158-10-271-18s-211-15-217-15-18-11-27-23c-14-21-14-42-1-193 8-93 18-225 22-293 9-159 13-163 119-154 88 7 87 8 54-90-45-134-185-329-308-430-39-32-71-64-71-71 0-19 22-36 45-36 56 0 208 143 297 279 27 42 57 79 67 83 27 10 204 30 228 26l21-3-22-86c-42-160-110-277-248-424-61-66-72-99-37-110 39-13 81 17 165 119 119 143 182 273 217 446l13 65 117 3c137 3 128 16 97-139-37-183-92-308-201-460-38-53-69-106-69-117 0-28 35-38 65-18s122 142 163 216c73 134 142 367 142 481v42l130-6c72-4 136-9 142-13 7-5 9-54 6-153-5-139-7-150-40-233-20-47-55-112-79-142-48-62-51-62-128-20-126 69-98-38 30-114 61-37 82-30 145 46 58 70 103 150 137 242 15 43 21 89 24 210 6 182-3 235-45 252-40 17-687 17-820 0-57-7-106-11-109-8s2 26 11 52 16 65 16 86v38l153 3c83 1 230 0 325-1 189-4 216-1 231 27 6 10 15 87 21 172s19 214 30 287c24 161 24 166 4 186-13 14-48 16-247 14-128-1-261-3-297-5zm466-90c-2-10-10-57-16-105l-12-88h-197c-183 0-604-30-643-45-11-4-18-3-18 4s-5 55-11 107c-6 53-9 98-6 100 8 8 307 27 547 33 140 4 279 8 308 9 46 2 53 0 48-15zm-43-365c-7-141 29-125-290-133-153-3-334-10-403-15-69-4-126-7-128-6-1 2-5 46-9 98l-6 96 32 7c74 16 351 32 572 34l236 1z"/>
  </g>
</svg>
