<?xml version="1.0"?>
<svg xmlns="http://www.w3.org/2000/svg" height="200pt" preserveAspectRatio="xMidYMid meet" viewBox="0 0 200 200" width="200pt">
  <g transform="matrix(.1 0 0 -.1 0 200)">
    <path d="m1202 1882c-19-13-32-70-32-143v-67l-127-6c-71-4-162-9-204-12l-76-6-6 54c-4 29-7 72-7 96 0 29-6 48-20 62-24 24-34 25-55 4-13-13-14-32-9-118l7-103-94-13c-121-17-155-43-109-85 18-16 27-17 111-5 50 6 92 10 94 8 6-6 25-196 25-255v-58l-157-18c-167-18-292-41-333-60-16-8-26-22-28-39-4-37 25-43 119-24 152 30 288 44 694 72 233 16 402 15 711-2 107-6 112-6 123 15 15 27-1 59-32 65-47 10-320 26-433 26h-119l3 150 3 150h74c98 0 125 11 125 50s-27 50-124 50h-72l4 93c4 78 1 96-13 110-18 19-24 20-43 9zm-37-449c-4-76-8-143-8-150 0-14-37-20-172-28-55-3-122-8-150-11l-50-6v69c0 37-4 109-9 160l-8 92 48 4c27 2 118 4 203 5l154 2z"/>
    <path d="m1250 1013c-193-6-421-25-505-41-77-15-91-21-102-42-9-19-9-109 0-384 11-353 11-358 33-373 19-12 54-12 256-2 215 10 317 9 395-7 53-11 63 11 63 139 0 62 5 166 10 232s12 190 16 277l7 156-26 26c-14 14-34 25-44 24s-56-3-103-5zm76-154c-3-34-6-95-6-135v-74h-78c-119 0-443-20-479-30-41-11-43-6-43 140 0 136-13 122 130 139 104 13 165 17 344 19l139 2zm-20-360c-3-34-6-101-6-148v-87l-102 4c-57 2-181-1-277-7s-176-10-177-8c-1 1-4 64-7 139l-5 137 55 7c79 10 280 21 412 22l114 2z"/>
  </g>
</svg>
