<?xml version="1.0"?>
<svg xmlns="http://www.w3.org/2000/svg" height="200pt" preserveAspectRatio="xMidYMid meet" viewBox="0 0 200 200" width="200pt">
  <g transform="matrix(.1 0 0 -.1 0 200)">
    <path d="m1326 1894c-3-9-6-69-6-133v-118l-102-7c-57-3-130-13-163-21s-72-14-87-15c-37 0-43-28-28-122 11-72 40-400 35-406-1-1-31-7-66-13-73-12-109-31-109-58 0-38 21-42 131-26 57 8 157 19 221 23l117 7-6-25c-67-283-190-509-367-679-66-63-79-92-43-99 28-5 131 64 188 126 101 110 209 300 259 457 27 85 35 95 43 55 12-57 67-181 111-249 59-91 241-248 371-320 98-54 135-61 149-25 11 28-13 53-100 100-81 44-232 162-309 241-49 50-118 195-153 318l-28 100 90 6c50 4 174 10 276 14 144 6 189 11 203 23 43 38 3 72-86 72-79 0-76-12-52 175 17 135 20 322 5 345-8 13-43 15-212 15h-203l-3 114c-1 64-8 121-14 128-15 18-55 16-62-3zm420-391c-3-38-14-141-23-229l-17-161-95-7c-53-3-126-6-164-6-65 0-67 1-62 23 19 86 25 159 25 288v148l103 4c56 1 133 4 171 5l68 2zm-422-88c-2-113-24-309-36-320-2-1-53-6-114-10l-112-7-7 119c-4 65-13 165-21 222-8 58-14 105-14 107 0 1 37 7 83 13 45 6 93 13 107 15s45 3 70 2l45-1z"/>
    <path d="m415 1693c-243-18-243-18-255-48-6-15-6-208-2-488 6-370 10-467 21-480 18-22 89-22 246-1 77 10 159 14 228 11 92-4 109-2 116 12 5 9 11 131 15 271 3 140 9 353 12 472 8 273 10 269-104 267-42-1-167-8-277-16zm293-118c2-22 1-108-3-191l-7-151-143-6c-79-4-178-14-221-22s-79-13-81-12c-2 2-6 91-10 199l-6 195 204 15c276 21 263 22 267-27zm-18-615v-180h-92c-51 0-136-7-188-15s-110-15-127-15h-33v174c0 200-15 176 120 195 87 13 136 17 243 19l77 2z"/>
  </g>
</svg>
