<?xml version="1.0"?>
<svg xmlns="http://www.w3.org/2000/svg" height="200pt" preserveAspectRatio="xMidYMid meet" viewBox="0 0 200 200" width="200pt">
  <g transform="matrix(.1 0 0 -.1 0 200)">
    <path d="m941 1943c-5-9-7-50-4-89l6-73-34-5c-19-3-81-11-139-16-58-6-113-13-122-16-34-10-33-68 0-78 10-3 78 1 152 8 74 8 136 13 138 11 3-2-14-122-23-161-4-17-17-22-86-33-109-17-129-25-129-55 0-43 22-51 107-38 42 7 78 11 79 9 6-6-38-150-61-203l-23-51-58-7c-123-15-310-48-321-58-20-16-15-46 10-62 19-13 37-12 142 5 157 25 169 25 155 0-22-43-122-167-187-234-121-125-322-256-418-272-66-11-75-15-75-35 0-44 94-53 187-18 205 76 445 295 589 536l36 61 91 8c51 4 97 8 103 8s38-34 72-77c120-150 327-308 556-423 92-46 120-56 166-57 65-1 96 7 104 29 9 23-12 43-45 43-16 0-50 7-76 16-64 21-310 161-398 227-74 55-255 230-255 246 0 13 72 20 303 30 169 7 200 11 217 26 23 21 25 35 8 58-12 14-34 15-233 7-121-5-254-12-295-16l-75-6-42 64c-78 119-90 161-50 172 12 3 72 9 132 12 67 4 119 12 133 20 24 16 29 43 10 62-13 13-127 15-221 3l-59-7 6 40c3 23 8 64 12 92l6 52 47 6c25 4 95 9 154 13 108 6 137 16 137 48 0 7-8 21-17 31-15 15-31 16-128 10-60-3-128-9-151-12l-41-6-7 67c-4 38-11 76-17 86-12 24-55 25-68 2zm33-726c14-21 26-39 26-41s-20-6-45-8c-28-2-43 1-41 7 3 5 10 27 17 48 7 20 13 36 15 34 2-1 14-19 28-40z"/>
    <path d="m1050 830c-285-19-340-24-352-31-8-5-12-26-11-56 2-88 74-577 88-610 17-39-7-36 284-33 127 1 224 6 238 13 13 6 26 21 29 34 7 27-13 495-26 598-13 102-8 101-250 85zm166-176 7-82-74-6c-143-13-284-27-315-32l-32-4-11 75c-18 123-31 111 132 124 171 14 270 18 279 11 4-3 10-42 14-86zm14-258c0-45 3-111 6-145l7-61h-197c-150 0-196 3-196 13 0 6-8 64-18 129l-19 116 46 1c25 1 109 8 186 15s150 14 163 15c21 1 22-2 22-83z"/>
  </g>
</svg>
