<?xml version="1.0"?>
<svg xmlns="http://www.w3.org/2000/svg" height="200pt" preserveAspectRatio="xMidYMid meet" viewBox="0 0 200 200" width="200pt">
  <g transform="matrix(.1 0 0 -.1 0 200)">
    <path d="m1081 1858c-5-13-14-59-21-102-29-193-105-379-214-525l-56-73 7 250c6 225 4 253-11 276-13 20-25 26-54 26-48 1-510-31-540-36-12-3-27-16-32-29-6-15-6-208-2-488 6-370 10-467 21-480 18-22 89-22 246-1 77 10 159 14 228 11 97-4 109-3 117 14 6 10 10 107 11 216 0 109 4 207 9 218 7 16 9 17 9 3 1-22 35-32 61-18 29 16 95 103 141 186l39 71 78 16c42 8 78 14 80 13 1-2 7-165 12-362s17-422 25-499 18-210 21-295c4-85 11-163 16-172 12-24 55-23 68 1 15 28 12 192-6 380-8 90-13 166-10 168 3 3 94 8 203 10 109 3 206 10 216 15s17 20 17 38c0 41-18 44-250 36l-197-7-6 92c-4 51-7 120-7 154v63l73 10c39 6 132 17 206 23 146 14 179 27 167 67-4 12-19 25-34 29-22 5-271-17-376-34l-36-6-1 39c0 22-4 90-7 151-5 85-4 114 5 117 7 3 81 10 165 16 384 27 392 28 410 51 13 15 15 26 8 39-14 27-26 28-135 20-55-5-172-14-260-20s-215-21-282-34c-68-12-123-21-123-20s7 21 16 45c22 62 54 231 54 287 0 27-5 53-12 60-19 19-48 14-57-10zm-373-283c2-22 1-108-3-191l-7-151-143-6c-79-4-178-14-221-22s-79-13-81-12c-2 2-6 91-10 199l-6 195 204 15c276 21 263 22 267-27zm-18-615v-180h-92c-51 0-136-7-188-15s-110-15-127-15h-33v174c0 200-15 176 120 195 87 13 136 17 243 19l77 2z"/>
  </g>
</svg>
