<?xml version="1.0"?>
<svg xmlns="http://www.w3.org/2000/svg" height="200pt" preserveAspectRatio="xMidYMid meet" viewBox="0 0 200 200" width="200pt">
  <g transform="matrix(.1 0 0 -.1 0 200)">
    <path d="m1400 1709c-124-9-257-18-296-18-75-1-94-11-94-48 0-39 32-46 162-39l118 7v-57c0-118-90-325-198-454-63-76-70-95-41-113 94-59 329 346 329 567v62l171 12c95 6 176 9 180 6 15-9 10-152-7-217-21-84-123-307-139-307-8 0-25 4-39 10-34 13-56 3-56-25 0-40 66-85 125-85 31 0 59 42 125 189 73 161 90 227 90 340 0 110-13 166-40 181-25 13-118 11-390-11z"/>
    <path d="m415 1693c-243-18-243-18-255-48-6-15-6-208-2-488 6-370 10-467 21-480 18-22 89-22 246-1 77 10 159 14 228 11 92-4 109-2 116 12 5 9 11 131 15 271 3 140 9 353 12 472 8 273 10 269-104 267-42-1-167-8-277-16zm293-118c2-22 1-108-3-191l-7-151-143-6c-79-4-178-14-221-22s-79-13-81-12c-2 2-6 91-10 199l-6 195 204 15c276 21 263 22 267-27zm-18-615v-180h-92c-51 0-136-7-188-15s-110-15-127-15h-33v174c0 200-15 176 120 195 87 13 136 17 243 19l77 2z"/>
    <path d="m1535 800c-38-4-176-13-305-20-166-8-239-16-249-25-11-11-11-31-3-112 6-54 16-176 23-271 10-133 16-175 28-186 13-12 31-13 91-6 41 5 181 9 311 10 241 0 294 7 303 38 3 10 10 60 16 112s17 142 24 200c29 207 29 214 7 241-17 21-28 24-98 25-43 1-109-2-148-6zm165-112c0-12-9-90-20-173-11-82-23-169-26-191l-5-42-272-4c-150-2-273-3-275-2-1 1-9 77-17 170s-17 186-19 207l-4 37 156 1c87 1 182 4 212 9 30 4 103 8 163 9 104 1 107 0 107-21z"/>
  </g>
</svg>
