<?xml version="1.0"?>
<svg xmlns="http://www.w3.org/2000/svg" height="200pt" preserveAspectRatio="xMidYMid meet" viewBox="0 0 200 200" width="200pt">
  <g transform="matrix(.1 0 0 -.1 0 200)">
    <path d="m1025 1819c-116-10-246-23-289-29-44-5-107-10-141-10-90 0-100-11-89-96 23-179-1-400-71-645-61-215-165-394-296-513-64-57-74-88-31-94 83-12 287 225 362 419 37 97 82 267 105 394 9 50 18 99 20 111 4 20 12 21 212 27 115 4 271 13 348 21 77 9 163 16 192 16 50 0 52-1 58-32 21-92 94-289 151-403 77-154 235-390 283-422 42-28 77-29 91-3 9 17 4 27-33 68-69 74-200 275-267 410-34 68-81 184-105 258-42 127-43 135-31 176 15 49 47 247 49 301 2 63-8 67-167 66-77-1-235-10-351-20zm421-99c-3-17-11-61-17-98s-13-76-15-88c-3-19-12-22-106-27-57-3-170-13-253-21-82-8-217-17-300-21l-150-7v68c0 38-3 90-7 115l-7 46 67 6c37 3 144 12 237 21 297 28 368 33 464 35l94 1z"/>
    <path d="m1140 1123c-25-2-135-15-245-30s-220-26-244-25c-53 2-71-11-71-47 0-14 18-121 39-237 22-116 43-238 47-272 10-92 11-92 189-81 83 5 222 12 310 15s170 7 182 10c30 6 53 53 54 111 0 26 4 71 9 98 5 28 16 135 25 239 21 235 30 221-133 222-64 1-137 0-162-3zm216-100c-2-10-7-53-11-95l-7-78h-68c-96 0-358-19-468-34-51-7-94-10-96-7-7 14-28 162-24 167 5 5 329 49 418 57 25 2 94 4 153 5 99 2 108 0 103-15zm-30-295c-4-18-9-67-13-109l-6-77-166-6c-91-3-213-10-271-15s-107-7-109-6c-1 2-11 49-20 103l-17 100 36 6c38 6 227 24 300 29 25 2 96 4 159 5l114 2z"/>
    <path d="m1235 238c-110-4-339-11-509-15-302-8-309-8-323-30-13-19-12-24 7-43 22-22 24-22 324-17 165 3 477 10 691 17 337 10 392 14 403 28 16 21 15 29-8 52-19 19-32 20-202 18-101-1-273-5-383-10z"/>
  </g>
</svg>
