<?xml version="1.0"?>
<svg xmlns="http://www.w3.org/2000/svg" height="200pt" preserveAspectRatio="xMidYMid meet" viewBox="0 0 200 200" width="200pt">
  <g transform="matrix(.1 0 0 -.1 0 200)">
    <path d="m1247 1892c-13-14-16-29-11-65l7-47h-40c-22 0-66-5-99-11-118-21-146-38-124-79 14-25 39-32 80-20 19 5 70 13 113 16l79 7-7-174c-3-96-8-183-10-194-4-18-21-22-182-42-143-17-180-25-190-40-18-24-13-45 14-58 16-8 56-7 155 6 137 18 392 39 472 39h46v-120c0-109-2-120-18-120-124 0-567-53-588-71-19-15-18-43 2-59 12-11 50-10 212 8 108 12 243 25 300 28l102 7v-367-368l-64 46c-86 62-133 60-100-4 26-51 172-170 208-170 46 0 46 1 46 441v417l79-5c93-7 126 0 142 28 8 16 7 25-6 39-13 15-35 19-115 22-54 1-100 5-103 8s-7 58-9 123l-4 117h110c120 0 184 11 197 32 13 19 11 26-13 50-21 21-24 21-264 14-133-3-263-9-289-13l-47-6 7 194c4 107 8 195 9 196 1 2 85 6 185 10 169 7 185 10 197 28s11 24-3 44l-16 24-188-6-187-7-6 45c-11 69-46 94-79 57z"/>
    <path d="m415 1693c-243-18-243-18-255-48-6-15-6-208-2-488 6-370 10-467 21-480 18-22 89-22 246-1 77 10 159 14 228 11 92-4 109-2 116 12 5 9 11 131 15 271 3 140 9 353 12 472 8 273 10 269-104 267-42-1-167-8-277-16zm293-118c2-22 1-108-3-191l-7-151-143-6c-79-4-178-14-221-22s-79-13-81-12c-2 2-6 91-10 199l-6 195 204 15c276 21 263 22 267-27zm-18-615v-180h-92c-51 0-136-7-188-15s-110-15-127-15h-33v174c0 200-15 176 120 195 87 13 136 17 243 19l77 2z"/>
    <path d="m1202 738c-23-23-12-46 74-152 83-103 106-120 132-94 25 25 12 60-54 142-97 118-121 135-152 104z"/>
  </g>
</svg>
