<?xml version="1.0"?>
<svg xmlns="http://www.w3.org/2000/svg" height="200pt" preserveAspectRatio="xMidYMid meet" viewBox="0 0 200 200" width="200pt">
  <g transform="matrix(.1 0 0 -.1 0 200)">
    <path d="m1460 1908c-41-5-133-12-205-16l-130-7-17-69c-20-85-74-195-133-274-49-65-58-107-25-117 28-9 55 9 99 68 58 79 91 140 122 230l28 82 118 7c65 4 135 9 155 12 37 6 38 6 27-21-16-45-113-233-155-303l-39-65-105-18c-58-10-132-21-164-25-82-10-85-16-57-159 12-65 27-149 33-188 5-38 14-76 20-83 8-9 30-11 85-6l74 7-5-24c-3-13-12-62-21-107-41-229-87-329-208-457-54-58-108-104-151-129-75-44-79-48-70-70 18-47 109-22 200 54 185 156 268 320 319 625 9 55 19 102 21 105 3 3 45 7 93 8l87 4 12-139c7-76 17-208 23-293 11-176 20-219 55-273 34-53 87-74 205-82 121-9 175-1 195 30 14 21 12 36-21 171-40 164-53 199-75 199s-25-119-5-212c23-114 29-106-79-101-161 7-171 23-192 306-8 109-19 230-24 270-6 40-10 87-10 102v30l109-7c86-5 110-3 117 8 5 8 9 50 10 94s11 125 23 180c37 167 37 171 10 188-21 14-47 14-203 6-98-6-180-8-183-6-2 3 25 60 61 128 119 227 148 317 107 339-22 11-24 11-131-2zm266-561c-6-24-46-267-46-279 0-5-58-8-130-8h-130v68c0 37-5 100-10 141-6 41-8 76-6 79 5 4 191 18 275 21 51 1 53 0 47-22zm-402-43c3-26 6-93 6-150v-104h-47c-27 0-77-3-113-6l-65-6-23 113c-13 63-26 124-29 135-4 20 2 23 89 38 108 18 137 23 159 25 12 1 18-11 23-45z"/>
    <path d="m415 1693c-243-18-243-18-255-48-6-15-6-208-2-488 6-370 10-467 21-480 18-22 89-22 246-1 77 10 159 14 228 11 92-4 109-2 116 12 5 9 11 131 15 271 3 140 9 353 12 472 8 273 10 269-104 267-42-1-167-8-277-16zm293-118c2-22 1-108-3-191l-7-151-143-6c-79-4-178-14-221-22s-79-13-81-12c-2 2-6 91-10 199l-6 195 204 15c276 21 263 22 267-27zm-18-615v-180h-92c-51 0-136-7-188-15s-110-15-127-15h-33v174c0 200-15 176 120 195 87 13 136 17 243 19l77 2z"/>
  </g>
</svg>
