<?xml version="1.0"?>
<svg xmlns="http://www.w3.org/2000/svg" height="200pt" preserveAspectRatio="xMidYMid meet" viewBox="0 0 200 200" width="200pt">
  <g transform="matrix(.1 0 0 -.1 0 200)">
    <path d="m865 1920c-71-5-172-14-223-21-108-14-114-20-100-103 40-244 52-291 80-320 21-20 35-26 51-22 12 3 66 8 118 12l95 7 13-108c6-59 11-109 9-111-2-1-64-10-138-19-334-38-391-48-401-67-6-12-6-25 1-38 14-26 49-26 248 0 85 11 251 27 370 36 186 14 251 15 456 5 250-12 266-10 266 30 0 39-38 49-241 60-107 6-255 8-331 4l-136-6-6 28c-3 15-8 57-11 93-4 36-9 73-11 83-5 16 8 17 164 17 216 0 206-6 222 150 25 256 25 253 0 275-20 18-37 20-194 21-94 1-229-2-301-6zm421-111c-3-17-6-42-6-55v-24h-202c-112 0-254-5-317-10-63-6-115-9-117-8-1 2-5 24-9 50-7 44-6 47 16 53 48 10 268 22 453 24l189 1zm-20-185c-3-9-6-24-6-35 0-18-9-19-162-20-90 0-220-6-291-12l-127-12-10 35c-5 19-6 38-2 42 10 10 96 14 366 16 213 2 238 0 232-14z"/>
    <path d="m1045 1080c-190-9-331-28-347-47-22-27 35-262 70-290 10-8 49-13 109-13 68 0 93-3 93-12 0-7 9-83 20-168 21-167 39-411 29-404-3 2-30 19-58 39-61 41-91 45-91 14 0-22 85-122 129-151 32-22 84-23 101-3 18 22 7 306-20 500-29 216-40 193 95 197 89 2 118 7 130 19 17 17 44 180 45 266 0 68 4 67-305 53zm211-107c-3-16-8-53-12-84l-6-57-192-7c-105-4-200-6-211-4-13 3-23 19-32 54-23 89-22 92 50 100 34 5 134 11 222 15s166 8 173 8c10 2 12-6 8-25z"/>
    <path d="m1330 455c-30-36 4-61 145-106 39-12 126-44 194-71 105-41 129-48 149-39 18 9 23 18 20 38-3 24-13 32-83 61-113 46-366 132-391 132-12 0-27-7-34-15z"/>
    <path d="m540 419c-186-136-221-165-226-186-7-27 11-53 36-53 10 0 83 49 162 108 127 96 143 111 143 138 0 25-4 29-30 31-22 2-45-9-85-38z"/>
  </g>
</svg>
