<?xml version="1.0"?>
<svg xmlns="http://www.w3.org/2000/svg" height="200pt" preserveAspectRatio="xMidYMid meet" viewBox="0 0 200 200" width="200pt">
  <g transform="matrix(.1 0 0 -.1 0 200)">
    <path d="m1328 1949c-15-8-18-24-18-92v-82l-166-21c-179-23-202-32-190-78 8-32 21-32 191-11 183 23 165 31 165-79v-94l-96-17c-120-22-157-50-117-90 12-13 26-15 52-11 121 22 154 26 160 21 3-4 8-53 9-109l4-102-78-12c-110-17-375-81-391-94-18-14-16-43 3-59 18-14 38-12 280 39 78 17 222 37 320 46 260 24 434 45 455 57 12 6 19 21 19 39 0 42-21 44-191 26-79-9-171-19-204-21-33-3-76-8-95-11l-35-5 3 111 3 110h80c90 0 119 10 119 43 0 39-18 47-111 47h-86l-7 46c-3 26-6 68-6 95v48l43 5c23 2 100 9 170 15 71 5 135 15 143 22 21 17 17 57-7 69-15 8-50 9-127 1-59-6-133-12-164-15l-58-5v67c0 93-26 129-72 101z"/>
    <path d="m415 1693c-243-18-243-18-255-48-6-15-6-208-2-488 6-370 10-467 21-480 18-22 89-22 246-1 77 10 159 14 228 11 92-4 109-2 116 12 5 9 11 131 15 271 3 140 9 353 12 472 8 273 10 269-104 267-42-1-167-8-277-16zm293-118c2-22 1-108-3-191l-7-151-143-6c-79-4-178-14-221-22s-79-13-81-12c-2 2-6 91-10 199l-6 195 204 15c276 21 263 22 267-27zm-18-615v-180h-92c-51 0-136-7-188-15s-110-15-127-15h-33v174c0 200-15 176 120 195 87 13 136 17 243 19l77 2z"/>
    <path d="m1392 974c-78-7-163-17-187-22s-55-7-68-5c-14 3-28-1-33-9-5-7-9-121-10-253 0-252-4-281-60-431-9-23-14-54-12-70 2-25 8-29 36-32 30-3 34 0 53 45 11 26 30 82 41 124l21 76 136 11c75 7 196 14 269 17l132 5v-77c0-104-4-109-64-82-45 19-50 20-65 5-15-16-11-22 56-87 59-58 77-70 100-67 18 2 32 12 40 28 22 48 36 286 30 495-7 205-23 320-48 336-19 12-196 9-367-7zm313-145c4-38 5-73 2-75-3-3-86-10-184-15s-211-13-252-19-75-9-77-8c-1 2-4 34-6 72l-3 69 33 9c38 10 314 34 413 37l67 1zm5-238v-69l-127-6c-71-3-178-10-239-16-169-15-154-20-154 54v64l38 6c103 15 146 19 300 26 92 4 170 8 175 8 4 1 7-29 7-67z"/>
  </g>
</svg>
