<?xml version="1.0"?>
<svg xmlns="http://www.w3.org/2000/svg" height="200pt" preserveAspectRatio="xMidYMid meet" viewBox="0 0 200 200" width="200pt">
  <g transform="matrix(.1 0 0 -.1 0 200)">
    <path d="m660 1868c-35-5-68-14-72-21-12-19-9-65 12-187 11-63 23-130 26-147 4-27 13-37 51-54 42-19 57-20 147-14l101 6 1-59v-60l-35-6c-20-3-61-6-92-6-41 0-60-5-72-18-23-25-21-39 8-58 21-14 40-16 110-10l85 7v-89-89l-131-12c-154-14-304-38-339-55-32-15-38-51-11-66 16-8 43-7 108 4 114 19 268 36 335 36h52l-100-68c-54-38-205-141-335-230s-242-168-249-176c-16-20-6-46 17-46 38 0 173 69 279 143l111 76 6-97c4-53 10-162 13-242 7-141 18-193 48-212 6-4 144-8 306-8 244 0 299 3 317 15 20 14 21 25 28 335 6 249 5 323-5 335-8 9-30 15-59 15-47 0-247-21-426-45-55-7-101-13-102-11-1 1 73 53 165 116l167 114 95 7c52 4 150 7 218 8 139 1 162 8 162 51 0 40-16 43-195 38l-146-3 53 44c85 71 224 215 230 239 4 13-1 31-11 43-15 18-21 20-39 10-12-6-33-27-48-47-29-38-165-157-283-247-56-44-81-57-107-57h-34v88 89l117 7c64 3 122 11 130 17 19 17 16 57-6 69-13 6-62 8-135 4l-116-7v55 55l143 6c78 3 150 8 159 12 24 9 34 53 54 223 12 108 14 149 5 168l-11 24-317-1c-175-1-347-6-383-11zm618-107-3-30-220-6c-121-3-255-9-297-13-67-7-78-6-78 8 0 8-3 25-6 37-4 15-1 22 13 26 10 3 148 5 306 6l288 1zm-18-165v-44l-62-6c-35-3-158-8-274-10l-212-5-4 42c-3 23-3 44-1 46 4 6 267 17 436 19l117 2zm40-970c0-68-4-99-14-109-11-10-63-16-218-21-111-4-224-11-250-15-45-7-46-7-52 22-3 16-6 59-6 96 0 62 1 66 23 67 22 0 152 15 347 39 58 7 120 13 138 14l32 1zm-15-383-6-43h-250-249v74c0 40-3 86-6 102-5 29-5 29 38 26 24-1 140 1 258 5l215 8 3-65c2-36 0-84-3-107z"/>
  </g>
</svg>
