<?xml version="1.0"?>
<svg xmlns="http://www.w3.org/2000/svg" height="200pt" preserveAspectRatio="xMidYMid meet" viewBox="0 0 200 200" width="200pt">
  <g transform="matrix(.1 0 0 -.1 0 200)">
    <path d="m1290 1920c-18-18-20-33-20-155 0-74-4-135-9-135s-80-13-166-29c-159-30-195-45-195-82 0-31 30-38 105-24 38 8 70 13 71 12s28-51 62-112l60-110-161-23c-162-23-187-31-187-61 0-47 30-49 245-21 83 10 213 24 290 30s178 15 225 20c47 6 128 10 180 10 101 0 120 7 120 46 0 44-19 48-205 41-133-4-175-3-175 6 0 7 9 46 20 87s20 92 20 113v37h54c79 0 106 13 106 50 0 44-21 48-199 38-123-7-156-6-162 4-5 7-9 66-9 130 0 92-3 120-16 132-20 21-30 20-54-4zm175-477c-15-60-28-115-30-123-2-17-5-17-92-23-51-3-63 0-63 12 0 8-25 59-56 114-31 54-54 100-52 102 4 3 228 34 278 38 19 1 36-1 38-5s-9-56-23-115z"/>
    <path d="m415 1693c-243-18-243-18-255-48-6-15-6-208-2-488 6-370 10-467 21-480 18-22 89-22 246-1 77 10 159 14 228 11 92-4 109-2 116 12 5 9 11 131 15 271 3 140 9 353 12 472 8 273 10 269-104 267-42-1-167-8-277-16zm293-118c2-22 1-108-3-191l-7-151-143-6c-79-4-178-14-221-22s-79-13-81-12c-2 2-6 91-10 199l-6 195 204 15c276 21 263 22 267-27zm-18-615v-180h-92c-51 0-136-7-188-15s-110-15-127-15h-33v174c0 200-15 176 120 195 87 13 136 17 243 19l77 2z"/>
    <path d="m1360 1003c-117-9-274-34-288-45-12-11-13-32-8-128 4-63 10-241 12-395 3-191 9-283 17-293 9-12 50-13 237-8 124 4 247 9 273 12 87 11 83-9 90 436 6 353 5 394-10 410-14 16-33 18-147 16-72-1-151-3-176-5zm246-160c-3-42-6-99-6-128v-52l-204-6c-111-4-210-9-218-12-13-5-16 10-22 87-4 51-9 107-12 125-6 30-4 32 28 38 65 12 205 22 322 24l119 1zm-6-443v-170h-93c-52 0-149-3-215-7l-122-6v171 171l78 4c42 1 139 4 215 5l137 2z"/>
  </g>
</svg>
