<?xml version="1.0"?>
<svg xmlns="http://www.w3.org/2000/svg" height="200pt" preserveAspectRatio="xMidYMid meet" viewBox="0 0 200 200" width="200pt">
  <g transform="matrix(.1 0 0 -.1 0 200)">
    <path d="m1222 1888c-7-7-12-31-12-54s-3-55-6-71l-6-29-161-12c-89-7-206-15-259-19l-98-6v85c0 86-8 108-41 108-30 0-40-27-42-115-2-100 14-89-157-106-63-6-121-16-128-22-19-15-14-55 8-67 15-8 50-8 123 0 181 19 167 20 186-25 25-64 70-134 92-145 24-13 55-5 63 16 3 8-12 48-34 88s-40 77-40 83 47 13 118 17c64 4 168 12 231 17s116 7 119 5c6-6-38-136-55-163-17-26-3-63 24-63 31 0 82 68 103 139 11 37 20 73 20 80 0 8 50 11 175 11 196 0 225 7 225 52 0 42-28 48-216 48h-164v68c0 69-10 92-40 92-9 0-21-5-28-12z"/>
    <path d="m1180 1369c-282-25-433-41-531-56-101-16-110-19-116-42-9-35 17-252 33-278 13-20 20-22 81-17 38 3 83 7 101 9 32 4 34 3 28-23-19-78-18-77-132-91-102-13-134-26-134-55 0-30 28-39 105-31 41 4 75 3 75 0 0-29-214-226-385-355-153-114-162-124-145-145 33-40 104-4 290 146 137 110 267 239 318 315l41 62 118 6c65 4 145 9 178 11l60 5 57-83c32-45 85-111 119-145 110-111 364-251 493-272 76-12 96-5 96 35 0 32-19 44-86 55-66 11-168 57-293 132-104 63-147 101-224 198l-60 75 54 3c57 3 89 22 89 53 0 29-35 40-118 38l-77-3-28 52-28 52h83c152 0 171 14 182 135 3 33 12 80 21 104 21 60 19 98-4 111-22 11-122 11-261-1zm180-86c-1-29-24-34-176-44-217-13-373-27-473-44-86-15-101-13-101 10 0 18 63 31 260 50 341 33 490 41 490 28zm-30-146c0-24-1-24-152-31-84-3-232-15-328-26-218-25-220-25-220-1 0 14 12 21 58 30 106 20 382 44 590 50 48 1 52-1 52-22zm-233-176 21-49-117-7c-64-3-125-8-137-10-20-5-21-3-9 48l11 52 50 6c27 3 74 7 105 7l55 2z"/>
    <path d="m1060 525c-85-7-228-19-318-26-146-11-164-15-174-33-7-13-8-56-3-130 5-61 10-142 11-180 3-98 6-100 134-81 140 21 428 29 569 17 62-6 120-8 127-5 22 8 26 39 15 135-6 51-13 135-17 187-8 122-17 131-116 130-40-1-143-7-228-14zm260-128v-54l-197-7c-109-4-259-11-333-15-74-5-137-7-138-5-2 1-6 20-9 43-5 36-3 41 18 46 33 8 487 42 582 44l77 1zm12-181 4-34-291-5c-159-3-309-10-332-15l-43-9-6 34c-4 19-4 37-1 40 8 8 273 19 488 21l177 2z"/>
  </g>
</svg>
