<?xml version="1.0"?>
<svg xmlns="http://www.w3.org/2000/svg" height="200pt" preserveAspectRatio="xMidYMid meet" viewBox="0 0 200 200" width="200pt">
  <g transform="matrix(.1 0 0 -.1 0 200)">
    <path d="m1476 1851c-66-7-90-27-70-58 9-15 30-18 133-21l121-3v-54-55h-115c-101 0-117-2-135-20-22-22-18-45 11-60 10-6 67-10 128-10h111v-49-48l-46-7c-26-3-80-6-120-6-62 0-75-3-84-19-13-25-13-27 6-45 12-13 40-16 135-16 65 0 119-4 119-9 0-19 42-19 61 0 18 18 19 35 19 238 0 216 0 220-22 235-23 17-126 19-252 7z"/>
    <path d="m1080 1845c-8-2-48-9-88-15-80-13-102-32-81-71 10-20 17-21 68-15 196 23 191 25 191-51v-43l-67-1c-119-2-174-12-189-35-12-17-12-23 0-39 12-17 26-19 135-16l121 3v-46-46l-57-1c-161-2-223-28-177-73 21-22 270-23 300-2 17 13 19 30 22 153 5 177-4 259-29 284-15 15-32 19-76 18-32-1-65-3-73-4z"/>
    <path d="m465 1579c-90-8-198-22-264-33-53-10-54-16-42-238 6-111 16-299 21-415 8-195 11-215 31-242 12-17 27-32 33-34s104-1 218 2c197 6 209 7 230 28l22 22-13 293c-8 161-17 362-20 446-8 201 6 190-216 171zm128-236c3-86 4-159 1-162-5-5-327-20-332-15-7 5-24 295-19 301 5 5 227 27 318 32l26 1zm21-439c4-102 5-188 3-190-3-3-79-8-170-12l-166-7-5 55c-3 30-8 117-12 192l-6 137 143 4c79 1 158 4 175 5l31 2z"/>
    <path d="m1082 1249c-28-52-95-139-176-229-59-65-76-91-74-110 4-31 38-39 72-16l23 15 6-162c4-89 13-235 21-324 13-149 16-164 41-197 15-19 34-38 43-40 10-3 55-1 102 4s225 10 396 10c228 0 313 3 322 12 19 19 14 45-10 62-18 13-57 16-214 16h-191l-7 76c-4 42-4 79-1 83 4 3 93 8 198 11l192 5v34c0 31-4 36-35 44-19 5-108 7-197 4-187-6-170-17-175 106l-3 67h126c109 0 128 2 142 18 22 24 21 35-2 56-16 15-37 17-144 14l-125-3-6 44c-12 91-10 99 32 105 20 3 109 8 197 11 168 7 205 17 205 54 0 40-22 44-198 38-92-4-196-10-232-13l-64-7 30 39c78 100 99 162 58 178-28 11-50-12-115-118-38-62-72-106-84-110-11-2-65-8-119-12l-100-7 48 58c52 64 96 143 96 173 0 48-53 56-78 11zm236-381-3-72-105-17c-58-9-123-21-144-27-22-7-42-9-45-6s-8 43-9 88l-4 83 114 10c62 5 132 11 156 11l43 2zm12-187c0-15 3-56 6-90l7-61h-44c-24 0-89-7-143-15-55-8-103-15-107-15s-10 21-14 48c-3 26-8 61-11 78l-4 31 77 17c88 18 177 33 211 35 18 1 22-4 22-28zm14-253c3-13 6-48 6-80v-56l-87-7c-49-4-114-10-145-14l-58-8-4 31c-3 17-7 52-9 77l-4 46 116 13c64 6 121 13 126 15 31 10 53 3 59-17z"/>
  </g>
</svg>
