<?xml version="1.0"?>
<svg xmlns="http://www.w3.org/2000/svg" height="200pt" preserveAspectRatio="xMidYMid meet" viewBox="0 0 200 200" width="200pt">
  <g transform="matrix(.1 0 0 -.1 0 200)">
    <path d="m1220 1791c-6-12-10-129-10-309v-290l-112-7c-62-3-153-5-203-3l-90 3-25 284c-21 242-28 286-43 295-12 8-22 8-35 0-24-16-27-109-8-330 9-99 16-197 16-217v-37h-212c-117 0-218-4-223-8-6-4-19-20-29-36-17-27-18-33-2-135 9-58 25-167 36-241 10-74 28-196 40-270 11-74 20-156 20-182 0-53 26-107 55-113 11-2 191-6 400-9s502-9 650-12c223-5 272-4 281 7 15 18 34 131 34 200 0 30 7 92 15 139 34 191 66 419 71 514 6 92 5 103-14 126-25 30-96 38-354 39l-178 1v286c0 177-4 293-10 305-6 11-21 19-35 19s-29-8-35-19zm442-688 96-6-5-76c-4-71-30-262-36-268-2-1-96 3-210 9l-207 11v169 168h133c72 0 175-3 229-7zm-452-168v-165h-195-195v138c0 75-3 147-6 159l-6 23 173 3c96 1 186 4 202 5l27 2zm-486 133c3-13 6-87 6-165v-142l-177-3c-98-2-180-2-182-1s-50 308-51 331c0 1 89 2 199 2 198 0 199 0 205-22zm486-593c3-110 6-200 5-201 0 0-84 2-187 4l-186 4-6 92c-3 50-8 137-10 193l-5 102 62 4c34 2 121 3 192 3l130-1zm-476 113c3-46 8-134 10-195l6-113h-160-160v38c0 38-37 303-46 335-5 16 8 17 169 17h175zm962 69c4-3-1-55-10-114s-18-148-22-197l-6-88-172 7c-94 4-173 9-176 12-2 2-6 92-8 200l-4 196 196-5c108-3 199-8 202-11z"/>
  </g>
</svg>
