<?xml version="1.0"?>
<svg xmlns="http://www.w3.org/2000/svg" height="200pt" preserveAspectRatio="xMidYMid meet" viewBox="0 0 200 200" width="200pt">
  <g transform="matrix(.1 0 0 -.1 0 200)">
    <path d="m961 1924c-18-13-21-25-21-77v-62l-193-23c-191-24-227-35-227-68 0-8 11-21 24-29 23-15 38-15 193 4 223 28 203 31 203-29 0-27-3-50-7-50-37 0-452-66-538-85-60-14-113-25-117-25-17 0-29-40-18-60 13-25 39-25 160 0 79 16 225 39 483 75l37 5v-49-50l-52-5c-276-26-288-29-288-67 0-36 38-49 120-39 41 5 107 10 147 13l72 4 7-44c3-24 4-46 2-48-3-3-43-10-89-16-92-13-129-29-129-58 0-43 48-49 188-24l32 5v-113-114l-217-29c-120-16-265-38-323-50-99-20-105-23-108-47-6-52 13-55 196-25 380 61 812 106 1090 115 186 5 205 8 218 25 17 24 17 28 0 51-13 18-27 19-187 16-96-1-230-8-299-16s-160-17-202-21l-78-6v110 110l88 7c48 4 93 12 100 17 17 15 15 44-5 64-14 14-30 16-100 10l-83-6v48 49l153 13c150 13 152 14 184 45 26 26 33 42 39 93l7 62h147c130 0 149 2 163 18 22 24 21 35-1 55-16 14-43 17-165 17h-147v80c0 74-2 81-25 96s-41 15-178 5c-83-6-160-11-169-11-15 0-18 9-18 51 0 79-27 112-69 83zm369-258v-44l-62-6c-35-3-102-8-150-12l-88-6v50 51l78 4c42 1 110 4 150 5l72 2zm-5-178c-4-24-10-46-14-49-5-5-230-29-268-29-9 0-13 17-13 49v49l108 7c59 3 116 7 127 9 65 10 67 9 60-36z"/>
    <path d="m1435 743c-22-1-98-8-170-13-348-28-755-81-783-103-20-16-14-79 27-254 66-281 66-281 190-263 39 5 145 15 237 20 91 6 247 19 346 30 160 17 183 17 203 4 25-16 50-11 60 14 4 9 13 60 20 112s23 157 34 233c12 76 21 151 21 167 0 54-39 65-185 53zm81-148c-4-36-9-78-12-93l-6-27-106-2c-111-1-676-38-756-49-43-6-45-6-51 22-4 16-11 45-16 64s-9 38-9 41c0 15 400 64 715 89 201 15 218 16 234 18 11 2 12-11 7-63zm-40-262c-4-31-8-58-9-59-3-4-287-33-422-45-66-5-178-15-250-21-71-7-134-13-140-13-5 0-17 29-26 65-15 60-15 66 0 73 16 7 665 53 790 56l64 1z"/>
  </g>
</svg>
