<?xml version="1.0"?>
<svg xmlns="http://www.w3.org/2000/svg" height="200pt" preserveAspectRatio="xMidYMid meet" viewBox="0 0 200 200" width="200pt">
  <g transform="matrix(.1 0 0 -.1 0 200)">
    <path d="m1095 1899c-265-7-549-30-618-50-22-6-41-18-45-30-7-18 28-356 43-416 7-32 38-36 147-23 53 6 219 10 379 9 388-2 409 2 409 70 0 14 12 107 26 208 27 197 26 215-22 233-14 6-33 9-42 8s-134-5-277-9zm261-141c-4-35-9-64-10-66-5-4-810-21-814-17-3 2-7 24-9 48-5 43-4 45 23 51 73 14 292 29 534 35 146 4 269 8 274 9s5-26 2-60zm-31-215c-4-32-9-60-11-62-2-3-161-6-352-7-191-2-360-4-377-6-29-3-30-2-37 52-3 30-4 57-1 60 2 3 147 8 321 11s350 6 391 7l73 2z"/>
    <path d="m1335 1290c-479-7-576-14-929-66-348-50-376-57-376-94 0-42 22-45 188-21 86 13 166 25 178 28 20 4 21 0 27-135 6-122 29-407 41-498l4-31-76-16c-123-27-237-65-256-86-14-16-15-23-6-41 14-27 43-25 180 13 77 22 232 52 513 102l27 5v-166c0-95 4-174 10-185 14-25 46-24 60 2 20 37 23 226 10 658-6 232-9 425-5 429s208 9 454 12c480 5 481 5 481 56 0 23-27 46-52 42-7-1-220-5-473-8zm-505-190c0-66-3-90-13-90-21 0-260-30-284-35-23-5-23-4-23 84v90l33 6c17 3 86 12 152 19 66 8 123 14 128 15 4 0 7-39 7-89zm10-234c0-44-4-56-17-60-48-13-284-49-289-44-3 4-8 33-11 66l-6 60 54 7c30 3 83 10 119 14 36 5 84 9 108 10l42 1zm2-233c2-49 4-89 3-90-1-2-53-12-116-23s-129-22-145-26l-31-6-7 88c-3 48-5 89-3 90 3 4 253 50 283 53 8 1 13-29 16-86z"/>
    <path d="m1510 989c-373-38-400-44-400-80 0-28 71-127 191-265l98-112-72-74c-40-40-119-104-175-142-56-37-102-71-102-75 0-21 30-44 59-44 44 0 185 98 282 197l78 78 48-44c66-62 250-205 298-234 53-30 114-40 139-21 28 21 14 42-46 73-49 25-247 174-347 262l-43 38 71 132c112 208 131 271 93 305-20 18-41 19-172 6zm85-100c-6-19-132-259-141-268-2-2-11 2-20 10-25 20-204 230-204 239 0 4 73 14 163 22 227 21 209 22 202-3z"/>
  </g>
</svg>
