<?xml version="1.0"?>
<svg xmlns="http://www.w3.org/2000/svg" height="200pt" preserveAspectRatio="xMidYMid meet" viewBox="0 0 200 200" width="200pt">
  <g transform="matrix(.1 0 0 -.1 0 200)">
    <path d="m960 1929c-124-4-261-12-305-18-49-6-84-6-89 0-17 16-55 10-66-10-7-14-5-42 9-103 10-46 27-181 36-301 27-324 12-541-55-842-68-298-90-387-115-445-26-62-26-100 0-100 25 0 72 49 93 99 26 59 112 409 142 576 12 66 22 120 23 121 1 0 61 6 132 12 196 18 456 26 586 17l116-7 6-136c4-76 10-240 14-366l6-228-54 35c-30 20-61 36-69 37-63 8-52-27 33-103 79-70 105-87 136-87 46 0 49 24 40 340-5 162-13 378-19 480s-17 343-25 535c-16 376-26 473-52 493-19 13-148 14-523 1zm461-116c3-17 9-92 13-166l7-134-238-6c-131-4-313-10-404-14l-165-6-12 139c-7 76-15 151-18 165-6 26-5 26 68 34 69 7 585 23 693 21 47-1 50-2 56-33zm23-425c3-18 7-107 10-198l6-165-288-1c-246 0-410-10-508-29-20-4-20-2-20 200l1 205 85 1c47 1 168 5 270 8 102 4 242 8 312 9l127 2z"/>
  </g>
</svg>
