<?xml version="1.0"?>
<svg xmlns="http://www.w3.org/2000/svg" height="200pt" preserveAspectRatio="xMidYMid meet" viewBox="0 0 200 200" width="200pt">
  <g transform="matrix(.1 0 0 -.1 0 200)">
    <path d="m942 1868c-6-6-12-35-12-62 0-54-13-158-31-243l-10-53h-51c-28 0-126-7-217-15s-206-18-255-23c-68-5-91-11-100-24-8-13-8-23 0-35 16-26 146-28 387-7 108 9 200 14 204 11 11-12-57-191-127-332-87-177-148-265-280-406-152-164-290-319-290-328 0-19 31-32 59-26 29 6 75 50 267 255 124 132 175 195 222 268l39 64 7-37c4-21 11-197 16-392 7-316 10-357 26-374 21-23 32-24 56-3 16 16 17 31 11 194l-6 177 114 11c133 14 382 33 384 29 2-1 5-65 8-142l5-139-20 24c-47 59-60 71-76 68-9-2-18-11-20-21-6-28 46-125 93-174 34-36 49-44 71-41 44 5 52 35 43 168-4 63-8 207-8 319-1 240-26 535-48 570-15 23-16 24-142 17-69-4-182-14-251-22-158-18-154-18-145 4 5 9 28 73 51 142l44 125 162 6c90 3 274 7 410 8 136 0 258 5 272 11 37 14 37 66 1 80-27 10-691 5-774-6l-43-6 5 39c21 145 30 275 21 300-10 31-50 43-72 21zm393-855c3-38 8-82 10-98l5-31-177-13c-98-7-213-15-255-18l-78-6v39c0 22-3 62-6 90-6 48-5 52 18 57 29 8 286 35 368 40 30 2 67 4 82 5 26 2 27 0 33-65zm19-245c8-33 7-158-1-158-53-1-320-22-391-31-51-6-94-10-96-8s-7 46-11 97l-7 92 58 1c33 0 120 7 194 14s160 13 191 14c51 1 57-1 63-21z"/>
  </g>
</svg>
