<?xml version="1.0"?>
<svg xmlns="http://www.w3.org/2000/svg" height="200pt" preserveAspectRatio="xMidYMid meet" viewBox="0 0 200 200" width="200pt">
  <g transform="matrix(.1 0 0 -.1 0 200)">
    <path d="m1495 1764c-16-1-130-8-253-15-138-8-229-17-239-24-28-21-35-237-29-884 4-436 8-607 17-617 6-8 22-14 34-14 47 0 48 9 43 341-3 170-2 307 2 302 4-4 29-39 55-76 49-70 118-145 213-231 32-28 50-52 45-59-4-7-50-63-102-125-125-148-119-138-99-158 36-36 94 5 212 149l70 85 89-62c221-153 247-167 302-164 42 3 50 6 53 24 2 17-9 28-55 54-77 43-334 221-331 229 2 3 29 53 60 111 59 108 114 256 124 332 5 35 2 48-12 62-16 17-38 18-298 13-155-3-293-8-308-12l-28-7v224c0 124 3 266 6 315l7 91 101 7c125 9 450 22 455 18 5-3-21-423-26-423-2 0-34 18-70 40-71 43-107 50-117 24-13-33 177-184 229-184 50 0 54 27 71 432 9 211 10 209-110 206-45 0-94-2-111-4zm115-818c0-25-52-161-91-236-77-151-63-146-159-59-73 66-230 256-230 279 0 5 15 11 33 13 43 5 447 8 447 3z"/>
    <path d="m380 1738c-96-5-179-13-184-18-6-6-5-50 2-117 18-166 25-626 13-823-6-96-22-256-36-354-31-224-32-271-5-286 14-8 26-8 40 0 21 11 25 24 35 105 3 28 16 131 30 230 13 99 27 258 31 353l7 172h178 179v-361-361l-30 26c-37 31-60 25-60-16 0-42 63-104 114-113 69-13 69-14 67 302-1 153 3 494 8 758 9 432 8 482-6 498-18 20-81 20-383 5zm306-100c-3-13-6-60-6-105v-83h-58c-32 0-112-7-177-15-66-8-125-15-131-15-7 0-13 36-17 93-4 50-10 102-13 114-6 22-5 22 117 26 68 1 162 4 208 5 82 2 83 2 77-20zm-8-410-3-133-181-3-181-2-5 117c-3 65-5 119-4 120 4 5 250 31 309 32l68 1z"/>
  </g>
</svg>
