<?xml version="1.0"?>
<svg xmlns="http://www.w3.org/2000/svg" height="200pt" preserveAspectRatio="xMidYMid meet" viewBox="0 0 200 200" width="200pt">
  <g transform="matrix(.1 0 0 -.1 0 200)">
    <path d="m451 1846c-9-11-10-44-5-119 3-58 4-125 0-149l-7-44-110-18c-129-22-144-31-133-90 10-54 7-605-5-920-5-139-5-259-1-272 13-34 47-40 79-15 14 11 71 53 126 93s126 97 157 129l57 56 53-99c76-142 124-208 152-208 51 0 60 45 19 98-28 37-56 87-194 342-43 80-83 151-89 158-18 20-50 14-62-13-9-21-5-36 36-116 26-50 45-92 44-94-2-1-35-29-75-62-60-52-150-117-201-147-10-6-11 49-6 286 4 161 10 300 15 309 11 21 112 36 299 45 80 3 151 11 158 16 33 27 40 74 46 295 6 219 6 223-15 244-20 20-29 21-93 16-39-4-91-9-116-13l-45-6-2 136c-1 75-7 145-13 156-12 23-52 27-69 6zm269-395c0-15-3-49-6-75-7-45-7-46-43-46-20 0-106-9-191-20s-163-20-172-20c-15 0-18 10-18 64 0 53 3 66 18 70 44 14 312 52 380 55 29 1 32-2 32-28zm-10-285v-74l-107-6c-126-7-261-22-285-31-16-6-18 1-18 69 0 54 4 76 13 77 6 0 75 8 152 18 77 11 164 19 193 20l52 1z"/>
    <path d="m1655 1779c-60-5-186-16-278-24s-178-13-192-9c-18 4-27 0-39-18-14-22-14-36 1-153 27-211 23-543-10-775-34-237-55-322-110-445-48-107-48-135-2-135 70 0 159 243 196 535 7 55 16 105 21 111 10 14 223 49 373 62 61 6 117 13 126 17 14 5 17-12 23-137 6-129 18-314 30-485l5-61-77 42c-132 74-187 84-180 34 2-16 28-39 83-74 44-29 108-73 142-98 99-73 123-62 123 53 0 42-12 245-26 451-15 222-27 520-31 730-4 299-8 358-21 373-8 9-22 16-31 16-9-1-65-6-126-10zm85-238v-150l-42-5c-438-53-439-53-443-31-12 68-30 291-23 296 5 3 90 11 191 18 100 7 187 14 192 16 6 2 36 4 68 4l57 1zm0-294c0-30 3-94 6-143l6-89-103-2c-103-3-292-25-358-43-19-5-36-8-38-6s-1 67 3 144l7 140 96 12c129 17 320 37 354 39 26 1 27-1 27-52z"/>
  </g>
</svg>
