<?xml version="1.0"?>
<svg xmlns="http://www.w3.org/2000/svg" height="200pt" preserveAspectRatio="xMidYMid meet" viewBox="0 0 200 200" width="200pt">
  <g transform="matrix(.1 0 0 -.1 0 200)">
    <path d="m452 1868c-8-8-12-53-12-149v-138l-42-5c-24-3-99-7-166-10-125-5-152-13-152-45s22-41 106-41h83l3-144c3-144 3-144 34-183 58-72 133-83 388-59 140 14 155 20 156 57 0 44-23 45-305 23-100-8-157 6-173 41-7 15-12 77-12 149v123l182 6c99 4 224 7 277 7 133 0 170 8 183 36 9 19 8 28-8 45-18 21-24 21-189 15-93-4-194-9-222-13l-53-6-1 94c-1 52-4 119-7 149-6 49-10 55-32 58-14 2-31-3-38-10z"/>
    <path d="m1425 1829c-199-19-287-32-299-44-10-10-15-69-19-217-5-193-25-383-46-457-13-43 1-71 34-71 35 0 54 35 67 127l12 80 120 12c67 6 176 14 244 18l122 6v-81c0-45-4-82-8-82-5 0-31 7-58 15-43 13-51 13-63 0-24-24 15-65 93-98 69-29 99-29 115 1 5 9 12 182 16 384 9 454 21 419-133 417-59-1-147-6-197-10zm245-159c0-94 22-84-205-99-88-6-186-14-217-18l-58-6v87c0 62 4 86 13 87 6 0 73 6 147 13 74 8 177 14 228 15l92 1zm0-212c0-86 0-86-108-93-54-3-160-12-237-20-77-7-140-13-141-12s1 30 4 64c5 72-8 66 197 83 72 5 148 12 170 13 22 2 57 4 78 5l37 2z"/>
    <path d="m1135 923c-399-34-674-71-702-95-18-14-16-43 2-58 13-10 35-10 118 3 56 9 145 21 197 27s114 13 138 16l42 5v-105c0-58-3-106-7-106-25 0-193-31-220-41-24-8-33-17-33-34 0-43 20-48 121-31 152 26 139 35 139-98v-113l-46-7c-26-3-95-6-153-6-158 0-497-46-527-71-8-6-14-20-14-30 0-36 31-40 167-19 249 38 388 43 983 36 437-5 569-3 578 6 16 16 15 53 0 66-8 6-179 13-460 18l-448 7v117c0 137-7 130 120 130 41 0 85 3 98 6 27 8 39 48 21 71-12 14-30 15-127 10l-113-6 3 102 3 102 70 6c39 4 151 7 250 8 146 1 185 4 203 17 26 18 28 37 6 58-13 14-43 16-192 14-97-1-195-3-217-5z"/>
  </g>
</svg>
