<?xml version="1.0"?>
<svg xmlns="http://www.w3.org/2000/svg" height="200pt" preserveAspectRatio="xMidYMid meet" viewBox="0 0 200 200" width="200pt">
  <g transform="matrix(.1 0 0 -.1 0 200)">
    <path d="m440 1809c-10-18-7-104 6-150 4-14-17-19-137-33-78-9-145-19-149-21-18-11-18-47 1-66 23-23 24-23 173-3 65 8 120 14 121 12s5-31 7-64l4-62-99-16c-55-9-104-19-108-22-5-3-13-22-19-42-9-30-5-73 24-241 44-261 41-256 163-255h90l7-89c3-50 6-104 6-122v-32l-102-12c-166-21-330-50-345-62-20-17-16-57 8-69 14-8 34-8 68-1 79 17 373 52 380 46 3-4 8-88 11-187 5-163 7-181 24-194 24-17 28-17 51 0 16 11 19 28 19 117 1 57-1 144-4 194l-5 90 50 7c257 33 279 38 298 56 24 24 15 60-16 67-12 3-87-3-167-15-79-11-152-20-160-20-13 0-18 21-27 118-6 64-10 118-9 120 2 1 51 4 111 5 80 3 109 7 115 18 12 22 22 504 11 532-13 35-29 38-161 28-63-4-116-7-117-7-1 1-5 29-8 62l-7 61 38 6c22 4 84 10 139 13 58 4 109 12 123 20 27 17 29 59 4 73-17 9-201 0-279-14-36-6-38-3-49 90-3 33-11 66-16 73-16 19-56 14-68-9zm310-533v-73l-117-7c-65-4-153-11-197-17-43-6-80-8-83-5-5 5-33 129-30 133 2 1 179 27 252 36 17 2 63 5 103 6l72 1zm0-240v-74l-92-7c-51-4-122-11-158-16-120-16-116-18-124 52-4 33-9 66-12 74-4 9 8 15 38 20 43 8 210 21 301 23l47 2z"/>
    <path d="m1249 1763c-121-6-118 2-88-256 27-235 31-543 10-754-12-115-69-444-98-566-18-74-12-100 24-105 28-4 50 26 67 93 26 103 86 441 98 560l12 113 73 11c41 6 152 14 248 18l175 6v-304c0-167 3-322 7-343l6-39-29 8c-53 15-88 12-92-8-6-28 33-63 98-87s95-18 105 23c9 34-14 1183-28 1408-8 136-16 201-26 212-12 15-41 17-250 15-130-1-270-4-312-5zm491-175c0-51 3-110 6-130l7-38h-84c-46 0-145-5-219-11s-146-11-160-12c-25-2-25 0-42 123-9 69-17 133-17 143-1 16 17 17 254 17h255zm23-380c11-204 10-237-10-232-21 6-428-23-458-31-19-6-20-1-20 174v179l55 8c60 8 255 20 361 22l66 2z"/>
  </g>
</svg>
