<?xml version="1.0"?>
<svg xmlns="http://www.w3.org/2000/svg" height="200pt" preserveAspectRatio="xMidYMid meet" viewBox="0 0 200 200" width="200pt">
  <g transform="matrix(.1 0 0 -.1 0 200)">
    <path d="m722 1778c-7-7-12-42-12-85 0-67-2-73-22-77-13-3-79-15-148-26-69-12-135-24-147-27-22-5-23-2-24 58-2 85-10 120-32 133-15 9-22 6-39-14-18-22-20-34-14-110l5-86-44-12c-53-14-71-39-49-70 13-19 21-21 55-16l39 7v-69c0-38 5-212 12-386 6-175 10-320 7-322-3-3-38-10-79-17-92-14-110-23-110-54 0-38 27-46 121-34 209 24 468 49 624 59 94 6 181 17 195 24 16 7 26 22 28 38 5 43-20 49-159 38-67-6-124-8-127-5-9 9-14 447-7 628l7 187h34c32 0 74 28 74 48 0 26-30 45-67 44-38-2-41 0-47 29-3 17-6 48-6 68 0 40-14 61-40 61-9 0-21-5-28-12zm-17-413-7-91-129-12c-71-7-143-15-159-19l-30-5v116c0 112 1 116 23 121 12 3 85 16 162 29l140 23 3-36c2-20 1-77-3-126zm-9-250 1-65-31-5c-70-11-248-35-260-35-11 0-15 19-18 70l-3 70 32 6c47 9 171 21 228 23l50 1zm4-219c0-34 3-90 6-123l6-60-143-16c-79-10-150-17-156-17-10 0-13 30-13 119v119l88 12c48 7 112 16 142 20s58 8 63 9c4 0 7-28 7-63z"/>
    <path d="m1380 1689c-47-5-113-10-148-10-46-1-65-6-69-16-3-8 0-74 7-147 7-72 12-198 12-281-1-217-39-751-62-870-29-149-25-175 27-175 30 0 38 18 63 155 16 86 49 443 50 536 0 13 21 17 128 24 158 9 367 21 368 20 4-1 25-588 21-591-2-2-35 16-73 41s-76 44-84 43c-23-5-23-35 0-68 22-31 137-127 178-149 28-15 67-7 76 14 3 9-4 231-15 493-12 262-23 587-25 721-3 159-8 249-15 258-13 15-292 16-439 2zm360-209v-130h-212c-117 0-222-3-233-6-19-5-21 2-32 118-7 67-11 124-9 126 8 7 210 19 344 21l142 1zm4-237c2-10 6-65 8-123l3-105-115-6c-63-3-172-10-242-14l-128-8v130c0 71 3 133 7 136 3 4 109 7 234 7 208 0 228-1 233-17z"/>
    <path d="m383 528c-6-7-45-75-88-151-69-124-76-141-66-164 9-19 17-24 38-21 30 3 59 46 147 212 35 66 44 91 37 108-9 26-52 36-68 16z"/>
    <path d="m643 522c-11-7-16-25-14-52 1-22 147-203 172-214 15-7 25-4 41 12 27 27 20 45-54 133-30 35-64 79-77 97-22 31-44 39-68 24z"/>
  </g>
</svg>
