<?xml version="1.0"?>
<svg xmlns="http://www.w3.org/2000/svg" height="200pt" preserveAspectRatio="xMidYMid meet" viewBox="0 0 200 200" width="200pt">
  <g transform="matrix(.1 0 0 -.1 0 200)">
    <path d="m920 1915c-13-15-11-93 6-232l7-51-44-6c-34-4-315-27-479-39-20-2-26-8-28-34-5-54 20-59 206-44 180 16 352 27 352 24 0-26-55-137-145-293-268-465-322-544-472-695-57-56-103-107-103-112 0-6 7-16 15-23 28-23 99 15 179 94 128 128 210 251 441 658l100 177 12-127c6-70 16-266 22-437 14-422 30-615 53-642 17-20 56-15 69 8 6 13 8 37 5 58-11 60-36 508-36 638 0 66-7 205-16 307-8 103-14 202-12 222l3 36 129-152c71-83 197-216 280-295 164-157 377-332 415-342 25-6 52 5 58 24 6 18-45 70-166 167-159 128-375 338-517 503-66 75-138 158-162 184l-43 47 83 6c46 3 173 10 283 17 208 11 245 20 245 58 0 39-23 44-168 37-391-20-458-23-464-17-3 3-12 60-19 126-6 66-18 130-26 143-16 25-45 29-63 7z"/>
  </g>
</svg>
