<?xml version="1.0"?>
<svg xmlns="http://www.w3.org/2000/svg" height="200pt" preserveAspectRatio="xMidYMid meet" viewBox="0 0 200 200" width="200pt">
  <g transform="matrix(.1 0 0 -.1 0 200)">
    <path d="m912 1968c-8-8-12-63-12-180 0-166 0-168-22-172-13-3-90-10-173-16-215-16-252-30-225-81 14-24 52-24 363 6l57 6-2-228-3-228-130-12c-71-6-229-19-350-28s-230-20-242-25c-16-6-23-18-23-35 0-32 29-44 91-39 24 2 143 11 264 19 121 9 251 18 289 22l68 6-18-29c-44-69-187-258-275-364-157-188-273-300-371-360-89-54-103-71-70-89 36-19 129 15 214 80 96 72 365 381 498 573l55 78 6-133c4-74 7-244 8-379 1-205 4-249 17-268 8-12 23-22 33-22 44 0 45 9 38 427l-7 396 213-209c135-134 272-256 377-339 215-170 296-211 331-169 18 22 3 42-59 79-124 74-419 323-627 530l-210 210 95 6c52 4 220 7 373 8 171 1 286 5 298 11 23 13 25 52 4 70-12 10-95 12-388 7-205-3-380-8-389-12-17-7-18 8-18 222v230l138 11c76 7 168 12 206 12 37 0 76 5 87 10 21 12 25 50 7 68-15 15-118 15-299-1l-136-12-6 161c-4 89-10 169-13 178-7 19-45 21-62 4z"/>
  </g>
</svg>
