<?xml version="1.0"?>
<svg xmlns="http://www.w3.org/2000/svg" height="200pt" preserveAspectRatio="xMidYMid meet" viewBox="0 0 200 200" width="200pt">
  <g transform="matrix(.1 0 0 -.1 0 200)">
    <path d="m909 1944c-10-12-15-62-19-175-3-86-9-161-13-165-4-5-108-14-230-21-289-17-477-38-495-57-18-18-7-53 18-61 11-3 102 1 202 9 101 8 244 18 318 21s147 8 163 11l27 6v-230-230l-62-6c-245-20-392-37-404-47-18-15-18-58 0-65 8-3 108 2 221 11 114 9 208 15 210 13 7-6-114-181-193-278-43-52-96-120-119-150-108-142-308-319-449-397-55-30-64-40-57-60 9-22 74-15 138 16 128 60 317 229 439 391 28 36 82 106 122 155 39 50 92 120 117 157l45 68 6-31c3-17 11-182 16-367 6-193 15-349 22-364 11-30 47-38 66-15 11 13 0 598-14 708l-6 54 33-40c106-127 278-280 449-400 47-33 128-91 181-131 167-123 246-168 298-168 40-1 46 2 46 19 0 14-28 39-95 83-202 135-525 374-640 474-75 65-250 259-250 277 0 12 286 31 446 31 120 0 154 3 164 15 18 22 8 48-24 64-25 12-69 12-285 1-141-6-276-14-300-17l-44-5 5 226c3 125 8 230 12 233 8 9 158 19 481 33 149 7 276 17 283 22 6 6 12 21 12 34 0 41-29 47-199 40-199-8-506-25-549-31l-32-4 6 162c6 146 5 164-10 180-22 21-40 22-57 1z"/>
  </g>
</svg>
