<?xml version="1.0"?>
<svg xmlns="http://www.w3.org/2000/svg" height="200pt" preserveAspectRatio="xMidYMid meet" viewBox="0 0 200 200" width="200pt">
  <g transform="matrix(.1 0 0 -.1 0 200)">
    <path d="m455 1890c-5-8-10-143-14-367l-1-71-42-7c-95-15-257-57-268-70-17-20-8-57 15-65 11-4 55 1 99 11 43 11 101 23 130 27l52 8-8-75c-15-136-68-423-104-561-34-130-72-233-148-405-40-89-43-107-21-125 12-10 21-10 41-1 55 25 187 355 241 606l28 129 5-415c5-439 6-449 51-449 10 0 26 11 35 25 15 23 16 61 10 378-3 193-9 437-12 541l-6 190 93-87c92-85 122-100 147-75 27 27 9 53-118 175-71 69-130 133-130 143 0 23 32 29 188 37 128 6 152 15 152 53 0 39-29 46-166 38-71-4-139-10-151-13l-23-5v208c0 148-3 211-12 220-14 14-54 16-63 2z"/>
    <path d="m1425 1549c-211-19-369-39-381-50-11-9-14-60-14-238 0-351-17-482-101-770-50-169-71-216-115-262-44-45-44-82-1-87 85-10 151 116 237 455 51 204 62 302 62 580 0 226 2 253 16 257 26 8 423 39 428 34 2-3-2-34-10-69-39-167-48-296-43-584 4-224 8-292 22-340 40-140 125-251 245-317 87-49 129-56 155-28 19 21 19 24 2 174-20 173-37 250-61 274-16 16-18 16-32-3-8-11-12-31-9-50 9-49 25-298 20-303-8-9-104 59-141 100-97 107-118 221-111 603 4 251 8 293 31 410 41 200 40 190 21 208-18 19-56 20-220 6z"/>
  </g>
</svg>
