<?xml version="1.0"?>
<svg xmlns="http://www.w3.org/2000/svg" height="200pt" preserveAspectRatio="xMidYMid meet" viewBox="0 0 200 200" width="200pt">
  <g transform="matrix(.1 0 0 -.1 0 200)">
    <path d="m1610 1911c-6-12-10-93-10-194v-175l-77-7c-250-21-438-47-476-67-12-6-17-18-15-35 5-44 25-48 145-30 98 16 203 27 366 41l57 5v-125-124l-132-129c-165-160-219-206-336-288-72-51-92-70-90-86 2-11 10-25 19-30 40-25 210 94 417 290l119 112 7-242c4-133 11-327 17-431 5-104 8-190 7-191-2-2-68 20-148 47-169 59-194 62-198 31-5-35 39-67 141-104 118-42 213-84 221-98 4-6 18-11 30-11 50 0 51 6 37 358-7 180-15 418-18 529l-6 203 70 73c75 79 103 129 86 156-22 35-49 24-98-38-25-34-48-61-51-61-2 0-4 35-4 79v78l82 7c88 7 108 16 108 50 0 38-19 46-107 46h-83v174c0 145-3 177-16 190-21 22-51 20-64-3z"/>
    <path d="m455 1890c-5-8-10-143-14-367l-1-71-42-7c-95-15-257-57-268-70-17-20-8-57 15-65 11-4 55 1 99 11 43 11 101 23 130 27l52 8-8-75c-15-136-68-423-104-561-34-130-72-233-148-405-40-89-43-107-21-125 12-10 21-10 41-1 55 25 187 355 241 606l28 129 5-415c5-439 6-449 51-449 10 0 26 11 35 25 15 23 16 61 10 378-3 193-9 437-12 541l-6 190 93-87c92-85 122-100 147-75 27 27 9 53-118 175-71 69-130 133-130 143 0 23 32 29 188 37 128 6 152 15 152 53 0 39-29 46-166 38-71-4-139-10-151-13l-23-5v208c0 148-3 211-12 220-14 14-54 16-63 2z"/>
  </g>
</svg>
