<?xml version="1.0"?>
<svg xmlns="http://www.w3.org/2000/svg" height="200pt" preserveAspectRatio="xMidYMid meet" viewBox="0 0 200 200" width="200pt">
  <g transform="matrix(.1 0 0 -.1 0 200)">
    <path d="m459 1859c-21-21-21-25-14-213 4-105 8-202 9-216 1-23-4-25-64-36-36-7-101-15-145-19s-86-12-92-17c-19-15-16-42 7-63 20-18 68-18 224 2 48 6 49 6 42-18-4-13-31-118-61-234-60-235-145-475-206-580-44-76-47-108-11-113 33-5 87 56 129 143 45 97 140 370 169 490l24 100-5-335c-6-391 1-595 22-616 19-18 38-18 57 2 14 14 16 76 17 527v512l28-70c60-151 89-193 126-179 33 13 37 41 12 91-14 27-39 89-57 138-18 50-43 111-56 136l-23 47 137 17c141 19 182 33 182 63 0 47-63 53-245 23-60-10-112-17-114-15s-10 99-17 216-13 214-13 215c-1 1-10 7-21 13-16 8-24 6-41-11z"/>
    <path d="m1470 1815c-8-9-11-30-7-53 3-20 15-104 27-185 12-82 20-150 18-152-6-5-300-35-425-44-74-4-128-12-137-20-23-20-19-48 9-67 26-17 117-12 424 22 74 8 135 13 137 11s11-66 21-143c21-177 21-462-1-654-9-80-19-180-23-223-7-89-2-87-105-36-68 34-98 37-98 10 0-42 167-151 232-151 41 0 55 32 62 145 3 55 13 161 21 235 27 248 29 415 6 630-23 214-23 210 41 210 39 0 182 18 210 26 37 11 28 66-13 79-11 4-74 1-140-6-65-7-122-10-125-6-4 3-15 64-25 134-23 157-36 213-56 236-20 21-37 22-53 2z"/>
    <path d="m1060 975c-7-8-10-23-8-32 3-10 55-84 117-165 90-119 117-148 136-148 14 0 29 8 35 20 16 29-4 65-121 213-103 131-129 149-159 112z"/>
  </g>
</svg>
