<?xml version="1.0"?>
<svg xmlns="http://www.w3.org/2000/svg" height="200pt" preserveAspectRatio="xMidYMid meet" viewBox="0 0 200 200" width="200pt">
  <g transform="matrix(.1 0 0 -.1 0 200)">
    <path d="m889 1943c-10-11-13-39-12-90 1-40 1-73-1-73-8 0-234-33-321-46-118-19-135-26-135-60 0-37 31-44 130-28 143 23 330 47 334 43 2-2 6-53 8-114l3-110-85-7c-47-4-132-12-189-19-115-14-141-29-141-83 0-28 53-316 66-359 11-36 39-40 191-27 78 8 145 11 148 9 8-8-172-239-265-340-108-116-184-176-303-235-48-25-90-51-94-59-8-22 16-45 46-45 35 1 146 49 212 93 75 50 254 232 345 352 41 55 79 101 83 103 5 1 11-107 15-240 7-254 32-544 49-566 5-6 20-12 33-12 43 0 48 36 30 220-8 91-18 257-21 370l-6 204 93-90c140-137 339-263 538-342 96-38 221-72 264-72 40 0 65 24 50 47-10 17-41 29-209 83-192 62-426 196-561 323-77 72-179 195-170 205 4 4 105 8 224 10 181 3 220 6 235 19 22 21 22 36-2 57-17 15-17 22-6 89 7 39 19 123 26 185 11 100 11 114-3 128s-47 16-224 15c-115-1-224-4-241-7-24-5-33-2-34 7-1 8-4 60-8 117l-6 102 30 5c75 12 279 27 373 28 89 0 104 3 113 19 11 21-2 52-27 62-27 10-172 7-333-9-85-8-156-13-158-11s-7 36-12 76c-7 68-18 89-47 90-6 0-18-7-25-17zm514-590c-3-27-13-97-22-158l-16-110-180-6c-99-3-181-5-182-4-1 0-3 70-4 155l-1 155 138 5c77 3 169 7 206 8l68 2zm-500-40c4-38 7-107 7-154v-86l-82-6c-46-4-110-10-143-13l-60-6-30 145c-16 81-27 148-25 151 4 4 250 32 306 35 19 1 22-6 27-66z"/>
  </g>
</svg>
