<?xml version="1.0"?>
<svg xmlns="http://www.w3.org/2000/svg" height="200pt" preserveAspectRatio="xMidYMid meet" viewBox="0 0 200 200" width="200pt">
  <g transform="matrix(.1 0 0 -.1 0 200)">
    <path d="m870 1883c-102-8-190-19-196-24s-14-31-17-58c-11-90-79-187-189-267-34-26-48-43-48-60 0-50 75-36 154 29l29 24 111-90c61-49 113-91 114-92 17-16-176-195-345-322-138-103-239-158-320-174-72-13-90-28-73-58 23-45 176-18 292 50 128 75 313 223 445 357l83 83 157-104c212-139 294-185 451-252 153-65 280-97 306-76 39 32 10 59-104 96-117 38-298 119-400 179-115 67-336 212-344 224-3 5 18 48 47 94 72 115 186 345 193 389 12 75-8 78-346 52zm240-84c0-26-205-389-220-389-3 0-55 41-117 90l-112 90 29 47c16 27 35 71 42 99l12 52 131 9c191 14 235 15 235 2z"/>
    <path d="m874 1094c-4-14-5-90-2-169l5-142-127-12c-135-12-284-35-337-52-38-12-52-44-30-66 14-14 29-13 144 6 70 11 168 24 217 27 87 7 88 7 77-13-28-54-286-265-402-330-30-17-98-47-151-68-76-29-98-42-98-57 0-53 114-41 255 27 86 41 282 187 383 284l72 70v-268c0-229 2-270 15-281 12-10 22-10 39-2 22 10 25 19 31 94 4 46 5 176 3 289l-3 205 52-43c181-147 769-409 875-389 39 7 57 32 36 52-7 6-65 30-128 52-186 65-265 98-445 188-155 76-325 183-325 202 0 8 359 33 457 32 50 0 72 25 52 61-11 22-14 22-203 15-105-3-232-9-282-12l-91-7-7 154c-4 85-11 159-18 166-19 23-57 16-64-13z"/>
  </g>
</svg>
