<?xml version="1.0"?>
<svg xmlns="http://www.w3.org/2000/svg" height="200pt" preserveAspectRatio="xMidYMid meet" viewBox="0 0 200 200" width="200pt">
  <g transform="matrix(.1 0 0 -.1 0 200)">
    <path d="m945 1944c-15-15-16-33-10-166 6-124 5-148-6-148-8 0-104-11-214-25-161-21-204-29-219-45-18-18-18-20-2-45 16-24 23-26 54-21 162 25 385 47 391 37 4-6 13-100 20-209 7-108 16-228 20-267 5-41 4-73-1-76-6-4-60-9-121-13-62-4-175-16-252-26s-192-24-255-30c-149-15-187-25-196-52-8-26 29-61 55-54 9 3 70 10 136 16s190 19 275 30c85 10 195 22 244 25l90 7-18-28c-49-77-115-152-261-299-156-157-186-181-392-310-60-38-66-69-13-73 47-4 170 57 275 135 89 66 316 297 397 404 29 38 54 64 55 57 2-7 12-172 23-366 11-195 25-362 30-373 14-25 56-25 70 1 8 14 5 119-10 377-11 196-20 368-19 382 0 22 18 8 127-106 160-166 362-327 518-414 183-102 244-121 244-76 0 30-38 65-127 116-181 102-216 126-338 224-164 133-379 350-350 354 59 8 568 33 662 33s112 3 126 18c20 22 22 43 5 60-15 15-297 16-479 3-68-6-186-13-261-16l-137-7-6 34c-14 83-44 533-35 538 5 3 98 17 206 30 193 23 224 32 224 65 0 22-30 45-58 45-15-1-106-11-202-24l-175-22-7 50c-3 28-7 87-7 131-2 113-33 162-76 119z"/>
    <path d="m1450 1483c-12-16-56-82-99-148s-105-150-139-188c-66-71-69-78-49-95 40-33 176 96 285 272 71 116 83 151 60 174-19 19-35 14-58-15z"/>
    <path d="m522 1368c-47-47 73-193 224-273 60-32 94-33 94-3 0 22-33 54-125 123-56 41-85 72-121 128-25 38-50 47-72 25z"/>
  </g>
</svg>
