<?xml version="1.0"?>
<svg xmlns="http://www.w3.org/2000/svg" height="200pt" preserveAspectRatio="xMidYMid meet" viewBox="0 0 200 200" width="200pt">
  <g transform="matrix(.1 0 0 -.1 0 200)">
    <path d="m945 1956c-17-12-18-23-11-124l6-110-27-6c-16-3-113-17-218-32-185-26-225-38-225-69 0-7 8-19 18-29 18-15 31-15 208 9 104 14 204 28 222 31l32 6v-64-63l-117-23c-132-25-218-59-228-91-3-11 3-65 13-118 11-54 31-154 43-223 31-163 32-164 155-155 55 4 94 4 94-2 0-19-133-173-229-266-56-53-143-128-194-167-96-71-253-170-273-170-6 0-19-9-29-20-15-17-16-22-4-36 35-42 184 20 354 148 121 90 325 288 396 384l46 62 6-136c4-74 7-215 7-312 0-98 3-192 6-209 8-39 36-56 65-40 21 11 21 13 17 335-2 178-3 324-3 324 1 0 23-33 49-74 51-81 173-203 269-268 103-70 432-220 497-226 80-7 95 44 23 74-130 54-399 184-458 222-107 68-242 210-293 309l-42 81 37 6c21 3 77 8 125 11 53 4 91 12 98 20 17 21 40 254 40 412 0 183 6 177-177 168-70-3-145-8-165-10l-38-5v64 64l38 6c20 4 122 11 226 16 205 10 224 15 212 63-3 14-13 27-21 31-16 6-351-10-421-20l-41-6-6 39c-3 21-9 71-13 111-5 55-11 75-25 82-22 13-22 13-44-4zm385-600v-83l-82-6c-46-4-109-7-140-7h-58v85 84l103 4c56 1 119 4 140 5l37 2zm-370-20v-74l-115-7c-63-4-118-7-122-7-6 1-32 82-33 103 0 12 184 56 238 58l32 1zm355-233c-4-43-10-81-13-84-4-4-59-10-123-13l-116-7-6 38c-4 21-7 59-7 85v47l83 4c45 1 106 4 136 5l53 2zm-355-13c0-44 1-83 3-87 4-13-186-24-194-11-4 6-12 38-19 72-6 34-13 69-16 78-6 19 20 23 154 26l72 2z"/>
  </g>
</svg>
