<?xml version="1.0"?>
<svg xmlns="http://www.w3.org/2000/svg" height="200pt" preserveAspectRatio="xMidYMid meet" viewBox="0 0 200 200" width="200pt">
  <g transform="matrix(.1 0 0 -.1 0 200)">
    <path d="m455 1890c-5-8-10-143-14-367l-1-71-42-7c-95-15-257-57-268-70-17-20-8-57 15-65 11-4 55 1 99 11 43 11 101 23 130 27l52 8-8-75c-15-136-68-423-104-561-34-130-72-233-148-405-40-89-43-107-21-125 12-10 21-10 41-1 55 25 187 355 241 606l28 129 5-415c5-439 6-449 51-449 10 0 26 11 35 25 15 23 16 61 10 378-3 193-9 437-12 541l-6 190 93-87c92-85 122-100 147-75 27 27 9 53-118 175-71 69-130 133-130 143 0 23 32 29 188 37 128 6 152 15 152 53 0 39-29 46-166 38-71-4-139-10-151-13l-23-5v208c0 148-3 211-12 220-14 14-54 16-63 2z"/>
    <path d="m1136 1757c-8-7-24-53-35-103-37-168-117-353-200-463-49-65-53-98-14-107 24-6 33-1 76 47 54 60 140 228 181 351 36 109 58 235 46 258-13 24-35 31-54 17z"/>
    <path d="m1402 1728c-47-47 55-209 293-467 71-77 135-143 143-146 21-8 49 3 56 21 10 26-18 65-143 196-129 136-227 262-268 343-33 65-55 79-81 53z"/>
    <path d="m1273 1168c-6-7-18-55-27-106-23-131-126-441-202-608-78-171-83-193-55-218 21-19 23-19 134 17 61 20 140 44 173 52 90 23 319 55 390 55h60l44-77c24-43 52-90 63-105 23-34 61-37 78-7 9 18 6 31-20 81-64 122-169 272-306 441-21 25-53 21-67-8-13-28-7-39 85-155l59-74-163-22c-162-22-232-36-358-75-35-11-65-18-66-17-1 2 17 46 41 98 85 183 204 586 204 687 0 46-43 72-67 41z"/>
  </g>
</svg>
