<?xml version="1.0"?>
<svg xmlns="http://www.w3.org/2000/svg" height="200pt" preserveAspectRatio="xMidYMid meet" viewBox="0 0 200 200" width="200pt">
  <g transform="matrix(.1 0 0 -.1 0 200)">
    <path d="m455 1890c-5-8-10-143-14-367l-1-71-42-7c-95-15-257-57-268-70-17-20-8-57 15-65 11-4 55 1 99 11 43 11 101 23 130 27l52 8-8-75c-15-136-68-423-104-561-34-130-72-233-148-405-40-89-43-107-21-125 12-10 21-10 41-1 55 25 187 355 241 606l28 129 5-415c5-439 6-449 51-449 10 0 26 11 35 25 15 23 16 61 10 378-3 193-9 437-12 541l-6 190 93-87c92-85 122-100 147-75 27 27 9 53-118 175-71 69-130 133-130 143 0 23 32 29 188 37 128 6 152 15 152 53 0 39-29 46-166 38-71-4-139-10-151-13l-23-5v208c0 148-3 211-12 220-14 14-54 16-63 2z"/>
    <path d="m1575 1789c-403-27-655-55-674-74-12-12-12-29-2-112 18-147 34-585 28-778-4-154-8-183-41-310-20-77-64-206-96-287-33-82-60-156-60-166 0-41 45-55 73-24 18 20 102 220 135 322 62 191 74 264 79 492l5 217 55-77c90-125 183-242 250-313 35-37 63-70 63-74s-35-58-77-119c-83-119-203-244-288-300-68-45-82-63-68-84 17-28 49-25 112 8 106 57 241 203 383 414 3 5 69-51 146-125 222-214 352-295 381-240 7 12 9 26 6 31-4 6-50 44-104 84-54 41-159 134-234 206l-137 133 24 41c104 178 232 431 248 491 11 39 10 47-5 62s-30 16-174 5c-87-6-237-16-333-22s-194-12-217-14l-43-4v92c0 96-14 291-25 349l-7 34 74 7c284 25 432 37 561 45 88 5 154 14 162 21 21 18 18 57-4 70-21 11-29 11-196-1zm90-696c-8-20-45-91-82-157-36-67-82-150-101-186l-35-64-65 69c-36 39-110 129-165 200l-99 130 53 7c30 3 151 11 269 18 118 6 217 14 219 16 16 15 19-2 6-33z"/>
  </g>
</svg>
