<?xml version="1.0"?>
<svg xmlns="http://www.w3.org/2000/svg" height="200pt" preserveAspectRatio="xMidYMid meet" viewBox="0 0 200 200" width="200pt">
  <g transform="matrix(.1 0 0 -.1 0 200)">
    <path d="m1359 1878c-9-16-10-89-7-269l6-248-72-11c-162-25-231-42-243-57-18-23-16-37 7-58 18-16 24-16 102-2 46 9 105 19 132 23l48 7-7-34c-10-45-135-422-175-525-33-88-104-217-181-331-47-70-53-96-24-106 30-12 81 29 137 113 85 127 130 224 207 445l70 200v-135c1-74-4-253-10-396-8-195-8-267 0-283 13-23 52-28 69-8 13 16 32 412 32 692l1 210 58-120c32-66 73-145 93-175 19-30 60-102 91-160 72-134 174-288 209-313 36-27 51-14 46 38-4 30-25 73-75 151-39 60-80 129-93 154-12 25-54 97-92 162-61 102-224 437-216 442 2 1 89 17 193 35 187 31 215 41 215 76 0 7-9 20-20 30-18 17-24 17-117 0-248-43-284-48-289-42-3 3-8 113-11 244s-10 246-15 256c-13 24-55 22-69-5z"/>
    <path d="m459 1859c-21-21-21-25-14-213 4-105 8-202 9-216 1-23-4-25-64-36-36-7-101-15-145-19s-86-12-92-17c-19-15-16-42 7-63 20-18 68-18 224 2 48 6 49 6 42-18-4-13-31-118-61-234-60-235-145-475-206-580-44-76-47-108-11-113 33-5 87 56 129 143 45 97 140 370 169 490l24 100-5-335c-6-391 1-595 22-616 19-18 38-18 57 2 14 14 16 76 17 527v512l28-70c60-151 89-193 126-179 33 13 37 41 12 91-14 27-39 89-57 138-18 50-43 111-56 136l-23 47 137 17c141 19 182 33 182 63 0 47-63 53-245 23-60-10-112-17-114-15s-10 99-17 216-13 214-13 215c-1 1-10 7-21 13-16 8-24 6-41-11z"/>
  </g>
</svg>
