<?xml version="1.0"?>
<svg xmlns="http://www.w3.org/2000/svg" height="200pt" preserveAspectRatio="xMidYMid meet" viewBox="0 0 200 200" width="200pt">
  <g transform="matrix(.1 0 0 -.1 0 200)">
    <path d="m455 1890c-5-8-10-143-14-367l-1-71-42-7c-95-15-257-57-268-70-17-20-8-57 15-65 11-4 55 1 99 11 43 11 101 23 130 27l52 8-8-75c-15-136-68-423-104-561-34-130-72-233-148-405-40-89-43-107-21-125 12-10 21-10 41-1 55 25 187 355 241 606l28 129 5-415c5-439 6-449 51-449 10 0 26 11 35 25 15 23 16 61 10 378-3 193-9 437-12 541l-6 190 93-87c92-85 122-100 147-75 27 27 9 53-118 175-71 69-130 133-130 143 0 23 32 29 188 37 128 6 152 15 152 53 0 39-29 46-166 38-71-4-139-10-151-13l-23-5v208c0 148-3 211-12 220-14 14-54 16-63 2z"/>
    <path d="m1043 1708c-6-7-14-58-17-113-13-189-91-464-168-591-43-72-43-96 1-102 46-7 105 87 160 256 16 48 32 80 35 72s24-82 46-165c29-108 57-183 98-266l58-117-74-108c-142-207-238-308-360-377-59-33-71-49-52-72 24-29 74-18 153 35 98 65 203 178 302 324 67 99 82 115 90 100 29-51 181-231 264-314 103-103 238-200 276-200 15 0 29 9 36 22 14 25 10 29-143 145-94 70-204 188-318 339-80 105-80 96-14 209 112 194 148 289 190 503 4 21 8 22 128 22 105 0 127 3 146 18 26 21 21 57-10 67-25 8-485-13-650-29-74-8-136-13-138-11s4 50 12 108c19 125 21 228 4 245-16 16-43 15-55 0zm477-425c0-29-49-202-71-252-27-63-132-251-140-251-16 0-103 213-139 344-22 82-39 150-38 151 6 5 225 22 306 24 72 1 82-1 82-16z"/>
  </g>
</svg>
