<?xml version="1.0"?>
<svg xmlns="http://www.w3.org/2000/svg" height="200pt" preserveAspectRatio="xMidYMid meet" viewBox="0 0 200 200" width="200pt">
  <g transform="matrix(.1 0 0 -.1 0 200)">
    <path d="m990 1904c-242-15-403-32-435-44-13-5-31-20-40-33-14-21-14-32 0-108 8-46 26-176 40-289 32-252 30-250 137-232 40 7 102 15 138 18s77 7 93 9l27 5v-90-89l-52-5c-29-3-89-8-133-11-44-4-156-17-250-30-130-19-173-29-182-42-17-23-16-38 3-54 13-10 44-9 182 10 184 24 402 44 408 38 16-15-103-204-200-318-102-120-319-300-474-394-47-28-87-56-89-62-6-17 26-43 53-43 108 0 506 330 660 547l69 97 5-348c6-327 7-349 25-362 25-18 31-18 55 6 19 19 20 29 14 397l-6 378 53-60c74-83 317-337 398-414 168-163 375-280 406-230 17 26-6 57-66 89-119 63-250 174-449 381-259 269-312 328-304 340 4 7 119 10 331 8 281-2 326 0 340 13 21 22 8 56-25 65-15 5-174 8-355 8h-327v86 86l53 7c84 10 204 7 232-6 43-19 55 4 86 174 15 84 39 220 54 301 15 82 24 159 21 173-4 14-18 29-32 34-33 13-218 10-464-6zm389-166c-10-51-19-94-19-95 0 0-74-1-164-1-189 1-176-7-176 110v67l73 4c39 1 124 4 188 5l116 2zm-449 28c0-24 3-63 6-87l6-45-123-13c-68-8-140-16-160-18l-35-5-16 89c-11 62-13 90-5 95 6 3 54 9 106 13 53 3 103 8 111 9 8 2 36 4 63 5l47 1zm410-228c0-7-7-57-17-110l-18-98h-80c-44 0-104-3-132-6l-53-7v117 116h150c113 0 150-3 150-12zm-392-110-3-113-40-3c-55-3-196-21-221-28-19-5-21 1-32 84-20 150-26 138 76 152 48 6 94 13 102 15 8 1 39 3 68 4l53 1z"/>
  </g>
</svg>
