<?xml version="1.0"?>
<svg xmlns="http://www.w3.org/2000/svg" height="200pt" preserveAspectRatio="xMidYMid meet" viewBox="0 0 200 200" width="200pt">
  <g transform="matrix(.1 0 0 -.1 0 200)">
    <path d="m455 1890c-5-8-10-143-14-367l-1-71-42-7c-95-15-257-57-268-70-17-20-8-57 15-65 11-4 55 1 99 11 43 11 101 23 130 27l52 8-8-75c-15-136-68-423-104-561-34-130-72-233-148-405-40-89-43-107-21-125 12-10 21-10 41-1 55 25 187 355 241 606l28 129 5-415c5-439 6-449 51-449 10 0 26 11 35 25 15 23 16 61 10 378-3 193-9 437-12 541l-6 190 93-87c92-85 122-100 147-75 27 27 9 53-118 175-71 69-130 133-130 143 0 23 32 29 188 37 128 6 152 15 152 53 0 39-29 46-166 38-71-4-139-10-151-13l-23-5v208c0 148-3 211-12 220-14 14-54 16-63 2z"/>
    <path d="m1185 1629c-4-6-5-85-4-177l4-167-175-16c-96-10-176-17-176-18-10-7-12-37-4-52 9-16 22-19 93-19 45 0 124 5 176 10 52 6 96 8 98 6 3-3 7-59 10-125l6-120-24-5c-13-3-74-14-136-26-160-29-190-44-183-89 2-19 148-199 229-284 56-58 64-70 51-80-162-126-262-191-352-227-63-25-75-41-52-65 51-50 196 14 410 181l80 63 118-89c228-171 508-285 552-225 23 32 0 51-103 86-157 52-310 139-467 266l-28 22 94 103c51 57 107 121 123 143s55 75 87 117c60 79 71 115 43 138-13 11-43 11-158 1-78-7-154-15-168-18l-26-5-6 123c-3 68-5 124-4 126 8 7 201 24 342 29 122 5 164 10 178 22 22 20 22 35-3 57-18 16-34 18-163 12-78-4-191-12-250-18s-109-10-111-8-9 71-16 153c-6 82-16 158-21 168-11 20-54 25-64 7zm303-800c-43-62-182-222-231-268l-26-24-67 69c-36 38-92 101-125 141l-59 71 53 12c110 24 348 55 445 58l53 2z"/>
  </g>
</svg>
