<?xml version="1.0"?>
<svg xmlns="http://www.w3.org/2000/svg" height="200pt" preserveAspectRatio="xMidYMid meet" viewBox="0 0 200 200" width="200pt">
  <g transform="matrix(.1 0 0 -.1 0 200)">
    <path d="m1006 1918c-12-16-16-47-16-109v-86l-115-18c-112-17-145-30-145-59 0-8 7-19 16-27 13-11 34-10 120 2 57 8 104 14 104 12 0-18-103-289-132-346-21-44-38-89-36-100 4-29 43-34 70-10 32 28 102 183 149 333 23 74 44 136 45 138 2 3 228 31 231 28 1 0-5-30-14-66-21-93-15-281 11-334 39-78 141-127 292-142 65-6 74-4 93 15 24 24 24 40-6 198-18 94-31 120-58 109-16-6-17-18-13-121 4-101 2-115-11-111-9 2-38 7-66 11-66 9-121 39-145 78-17 26-20 50-20 137 0 117 18 201 49 234 25 26 27 59 6 76-13 11-44 10-164-4-81-9-153-16-159-16-8 0-12 25-12 78 0 80-16 122-45 122-8 0-21-10-29-22z"/>
    <path d="m375 1867c-31-24-11-58 79-135 93-79 123-95 149-81 25 15 21 44-13 77-39 39-179 152-189 152-4 0-15-6-26-13z"/>
    <path d="m345 1597c-32-24-12-58 66-109 76-51 99-57 119-33 19 23 3 50-53 92-87 66-102 71-132 50z"/>
    <path d="m690 1425c-14-15-86-73-160-130-209-160-233-188-198-223 20-20 39-14 92 31 28 24 97 78 154 121 126 96 184 160 180 195-4 36-37 39-68 6z"/>
    <path d="m922 1158c-8-8-12-48-12-115 0-76-3-103-12-103-24 0-433-50-468-58-28-6-36-12-38-34-6-49 17-51 243-23 113 14 216 25 230 25h26l-21-37c-29-53-193-233-282-310-40-35-140-109-223-165-193-130-225-156-225-178 0-24 32-42 57-33 43 16 365 236 437 299 44 38 123 117 175 175l96 105 7-40c3-23 12-115 19-206 6-91 15-204 18-251 7-88 20-119 50-119 45 0 51 58 26 265-7 66-17 190-20 275l-7 155 98-102c172-178 296-279 482-392 103-63 229-121 262-121 25 0 43 25 35 51-5 14-33 33-89 59-93 43-273 154-368 226-81 62-369 344-362 355 3 5 124 9 270 9 164 0 273 4 285 10 25 14 25 56-1 70-13 7-116 9-314 6l-294-5-6 31c-3 17-6 59-6 93 0 35-3 70-6 79-7 19-45 21-62 4z"/>
  </g>
</svg>
