<?xml version="1.0"?>
<svg xmlns="http://www.w3.org/2000/svg" height="200pt" preserveAspectRatio="xMidYMid meet" viewBox="0 0 200 200" width="200pt">
  <g transform="matrix(.1 0 0 -.1 0 200)">
    <path d="m455 1890c-5-8-10-143-14-367l-1-71-42-7c-95-15-257-57-268-70-17-20-8-57 15-65 11-4 55 1 99 11 43 11 101 23 130 27l52 8-8-75c-15-136-68-423-104-561-34-130-72-233-148-405-40-89-43-107-21-125 12-10 21-10 41-1 55 25 187 355 241 606l28 129 5-415c5-439 6-449 51-449 10 0 26 11 35 25 15 23 16 61 10 378-3 193-9 437-12 541l-6 190 93-87c92-85 122-100 147-75 27 27 9 53-118 175-71 69-130 133-130 143 0 23 32 29 188 37 128 6 152 15 152 53 0 39-29 46-166 38-71-4-139-10-151-13l-23-5v208c0 148-3 211-12 220-14 14-54 16-63 2z"/>
    <path d="m1177 1813c-21-20-1-54 74-128 44-44 94-99 111-123 24-35 35-43 55-40 14 2 31 10 36 19 19 30-14 81-115 182-78 77-103 97-126 97-16 0-32-3-35-7z"/>
    <path d="m1390 1403c-72-7-406-54-422-59-34-10-33-68 1-79 10-3 85 4 166 15 81 12 149 20 151 18 1-2 6-89 10-194l7-191-104-13c-131-17-149-23-149-54 0-45 21-51 128-38 53 7 103 12 110 12 9 0 12-58 12-254v-254l-72-7c-264-23-395-38-410-46-25-13-23-56 3-70 16-8 50-8 133 0 304 29 400 34 611 27 121-3 242-11 268-16 59-12 87 0 87 35 0 53-52 65-334 74l-191 6-3 256-2 256 37 7c21 3 63 6 93 6 61 0 100 19 100 49 0 37-25 44-129 38l-98-5-7 121c-3 66-6 153-6 192v73l31 6c17 3 87 6 155 6 98 0 126 3 138 16 9 8 16 22 16 29s-7 21-16 29c-13 13-39 16-147 14-73 0-148-3-167-5z"/>
  </g>
</svg>
