<?xml version="1.0"?>
<svg xmlns="http://www.w3.org/2000/svg" height="200pt" preserveAspectRatio="xMidYMid meet" viewBox="0 0 200 200" width="200pt">
  <g transform="matrix(.1 0 0 -.1 0 200)">
    <path d="m905 1910c-15-17-17-30-11-90 3-38 4-70 2-70-18 0-287-31-311-36-38-8-55-22-55-44 0-44 51-47 299-13l45 6-50-63c-67-86-244-253-340-322-44-31-154-102-244-158-191-117-210-133-194-158 19-29 48-25 135 20 238 123 483 306 636 475l83 92v-237-238l-107-14c-60-8-122-13-139-12-53 5-57-11-44-150 11-129 30-680 23-688-2-2-69-15-149-27-160-25-197-38-202-70s27-45 81-33c50 11 344 51 557 76 95 11 270 19 505 23l360 6 3 33c3 27-1 34-23 42-14 6-120 10-236 10h-209v393c0 324-3 397-14 413-13 18-25 19-164 16l-150-4-4 64c-1 35-2 145 0 246l4 182 119-112c135-126 213-186 346-264 105-62 435-224 456-224 23 0 40 28 33 55-5 20-41 41-209 124-303 148-387 205-600 403-72 67-104 103-96 108 6 5 91 11 188 14 97 4 191 9 208 12 40 6 59 35 42 66-11 21-14 21-178 15-91-4-201-10-243-13l-78-7v64c0 95-34 135-75 89zm325-988v-89l-157-7c-87-3-203-13-258-20-55-8-103-11-106-7-4 3-9 40-12 82l-5 77 71 11c62 9 172 22 297 34 19 2 65 5 103 5l67 2zm0-270v-87l-46 4c-59 4-309-16-395-33l-67-12-6 59c-10 102-8 127 12 128 9 0 67 6 127 13 61 8 170 14 243 15l132 1zm0-277v-104l-32-5c-18-3-73-8-123-11-49-3-145-12-213-21-68-8-128-12-133-9-5 4-9 53-9 110 0 102 1 105 24 111 58 14 252 32 364 33l122 1z"/>
  </g>
</svg>
