<?xml version="1.0"?>
<svg xmlns="http://www.w3.org/2000/svg" height="200pt" preserveAspectRatio="xMidYMid meet" viewBox="0 0 200 200" width="200pt">
  <g transform="matrix(.1 0 0 -.1 0 200)">
    <path d="m1339 1883c-8-10-28-38-44-63s-64-82-107-127-78-88-78-97c0-28 34-37 69-18 97 52 235 225 229 286-2 25-8 32-29 34-15 2-31-4-40-15z"/>
    <path d="m752 1838c-30-30-14-62 75-145 47-45 95-84 105-86 10-3 28 3 39 12 28 23 18 41-63 118-33 32-74 70-90 86-31 30-48 33-66 15z"/>
    <path d="m404 1815c-8-32 0-42 134-156 101-88 126-101 150-77 29 29 15 48-161 201-74 65-112 75-123 32z"/>
    <path d="m1310 1509c-504-14-839-30-932-42-55-7-105-9-113-4-20 11-55-9-55-31 0-24 68-350 75-362 10-16 51-12 66 6 11 14 9 38-14 153-15 75-27 139-27 142 0 11 116 19 390 29 419 15 943 30 946 27 1-1-31-46-72-100-71-94-86-128-63-142 25-16 151 101 218 201 42 64 48 90 26 114-20 22-10 22-445 9z"/>
    <path d="m890 1355c-9-11-11-37-6-93 14-180 18-289 10-294-5-3-98-12-207-19s-208-18-220-24c-30-15-33-41-5-59 20-13 44-14 173-6 83 5 169 12 193 15 40 4 42 3 32-15-19-36-183-201-264-267-113-90-220-154-350-209-124-52-136-59-136-84 0-28 27-32 97-14 212 53 442 206 644 430l57 62 4-317c4-329 8-361 47-361 44 0 45 13 42 383l-3 351 69-65c92-86 184-159 323-256 63-44 175-122 249-173 138-96 192-123 230-113 21 5 27 28 13 49-6 10-84 64-498 351-66 46-164 122-218 170-85 74-97 88-80 94 10 4 108 8 216 8 165 1 199 4 212 17 19 18 21 45 4 62-13 13-285 15-439 4l-86-7-7 95c-17 250-49 342-96 285z"/>
  </g>
</svg>
