<?xml version="1.0"?>
<svg xmlns="http://www.w3.org/2000/svg" height="200pt" preserveAspectRatio="xMidYMid meet" viewBox="0 0 200 200" width="200pt">
  <g transform="matrix(.1 0 0 -.1 0 200)">
    <path d="m1319 1863c-8-20-8-72 0-187 6-87 10-160 9-161-2-1-75-16-163-34-160-32-195-47-195-82 0-34 35-42 108-25 137 33 558 104 715 121 84 9 113 48 62 81-22 15-36 15-123 4-53-6-144-20-202-31-57-10-105-17-107-16-6 7-23 190-23 258 0 80-9 99-47 99-16 0-27-9-34-27z"/>
    <path d="m459 1859c-21-21-21-25-14-213 4-105 8-202 9-216 1-23-4-25-64-36-36-7-101-15-145-19s-86-12-92-17c-19-15-16-42 7-63 20-18 68-18 224 2 48 6 49 6 42-18-4-13-31-118-61-234-60-235-145-475-206-580-44-76-47-108-11-113 33-5 87 56 129 143 45 97 140 370 169 490l24 100-5-335c-6-391 1-595 22-616 19-18 38-18 57 2 14 14 16 76 17 527v512l28-70c60-151 89-193 126-179 33 13 37 41 12 91-14 27-39 89-57 138-18 50-43 111-56 136l-23 47 137 17c141 19 182 33 182 63 0 47-63 53-245 23-60-10-112-17-114-15s-10 99-17 216-13 214-13 215c-1 1-10 7-21 13-16 8-24 6-41-11z"/>
    <path d="m1547 1323c-15-14-6-53 16-68 103-74 272-175 291-175 30 0 49 23 41 49-5 17-188 141-272 185-33 17-65 21-76 9z"/>
    <path d="m1092 1259c-9-17-47-82-84-145-69-116-77-141-56-162s46-13 72 21c49 64 146 242 146 267 0 55-51 68-78 19z"/>
    <path d="m1182 1138c-7-7-12-19-12-28s38-112 85-230c98-247 102-200-29-370-80-103-250-282-314-330-76-57 14-85 99-32 55 35 204 195 300 322 40 52 75 95 80 95 4 0 28-29 55-65 66-90 228-250 296-294 61-39 135-63 161-53 10 4 17 17 17 30 0 20-15 33-77 70-124 72-304 255-377 382l-19 33 61 109c61 108 117 236 128 291 9 45-38 81-64 50-5-7-24-49-41-93-30-75-101-214-124-243-8-10-18 4-40 60-115 292-143 338-185 296z"/>
  </g>
</svg>
