<?xml version="1.0"?>
<svg xmlns="http://www.w3.org/2000/svg" height="200pt" preserveAspectRatio="xMidYMid meet" viewBox="0 0 200 200" width="200pt">
  <g transform="matrix(.1 0 0 -.1 0 200)">
    <path d="m455 1890c-5-8-10-143-14-367l-1-71-42-7c-95-15-257-57-268-70-17-20-8-57 15-65 11-4 55 1 99 11 43 11 101 23 130 27l52 8-8-75c-15-136-68-423-104-561-34-130-72-233-148-405-40-89-43-107-21-125 12-10 21-10 41-1 55 25 187 355 241 606l28 129 5-415c5-439 6-449 51-449 10 0 26 11 35 25 15 23 16 61 10 378-3 193-9 437-12 541l-6 190 93-87c92-85 122-100 147-75 27 27 9 53-118 175-71 69-130 133-130 143 0 23 32 29 188 37 128 6 152 15 152 53 0 39-29 46-166 38-71-4-139-10-151-13l-23-5v208c0 148-3 211-12 220-14 14-54 16-63 2z"/>
    <path d="m1313 1848c-4-7-10-92-13-188l-5-174-73-11-74-11 6 30c11 53 19 223 12 249-7 29-30 41-55 27-15-7-19-27-24-112-10-163-49-285-128-398-35-50-40-62-29-75 36-44 103 7 160 121 21 44 38 65 53 69 50 11 149 26 152 23 1-2 5-101 8-220l6-218-22-4c-12-2-98-11-191-19-169-16-206-27-206-62 0-33 25-35 204-19 97 9 179 14 182 11 14-14-116-219-213-335-31-37-103-115-161-174-109-111-122-138-65-138 41 0 89 33 166 114 91 95 163 183 235 289l60 87 6-102c3-57 8-192 12-301 6-182 8-199 26-212 11-7 27-11 35-8 31 12 34 54 23 273-7 118-10 255-8 304l3 89 39-59c73-111 304-399 374-466 55-53 77-68 100-68 16 0 35 6 41 14 9 11-4 31-68 97-104 110-307 367-393 498-37 58-67 106-65 107 1 1 94 8 207 14s215 13 226 16c28 5 37 29 23 56-11 21-16 21-198 14-102-3-209-9-237-12l-51-6-8 221c-4 122-5 224-3 227 3 2 49 10 103 17 106 13 132 29 109 65-10 15-26 17-113 15l-101-2v160c0 91-4 169-10 180-12 21-45 25-57 7z"/>
  </g>
</svg>
