<?xml version="1.0"?>
<svg xmlns="http://www.w3.org/2000/svg" height="200pt" preserveAspectRatio="xMidYMid meet" viewBox="0 0 200 200" width="200pt">
  <g transform="matrix(.1 0 0 -.1 0 200)">
    <path d="m455 1890c-5-8-10-143-14-367l-1-71-42-7c-95-15-257-57-268-70-17-20-8-57 15-65 11-4 55 1 99 11 43 11 101 23 130 27l52 8-8-75c-15-136-68-423-104-561-34-130-72-233-148-405-40-89-43-107-21-125 12-10 21-10 41-1 55 25 187 355 241 606l28 129 5-415c5-439 6-449 51-449 10 0 26 11 35 25 15 23 16 61 10 378-3 193-9 437-12 541l-6 190 93-87c92-85 122-100 147-75 27 27 9 53-118 175-71 69-130 133-130 143 0 23 32 29 188 37 128 6 152 15 152 53 0 39-29 46-166 38-71-4-139-10-151-13l-23-5v208c0 148-3 211-12 220-14 14-54 16-63 2z"/>
    <path d="m1440 1713c-120-10-467-65-486-78-21-13-22-20-18-112 13-340 26-1079 20-1204-7-129-5-154 8-175 27-41 50-30 124 59 105 126 144 184 140 209-6 40-28 30-104-44l-76-73 3 130c2 72 0 221-5 332l-8 201 43 6c24 4 159 10 299 14l255 7 17 35c13 27 20 84 28 245 6 116 15 246 20 290 13 114 12 123-10 145-17 17-32 20-112 18-51-1-113-3-138-5zm165-180c-4-54-10-101-13-105-4-3-86-11-182-17-151-9-314-30-372-47-16-5-18 4-18 95 0 55 4 103 10 106 22 13 404 60 519 63l63 2zm-19-234c-3-17-6-75-6-129v-97l-232-7c-128-4-249-9-269-12-36-6-37-6-43 32-3 22-7 73-8 114l-3 75 95 17c89 17 279 33 414 37l59 1z"/>
    <path d="m1602 890c-41-62-120-162-186-235-49-54-58-70-49-83 27-44 74-17 181 102 60 66 142 189 142 213 0 16-29 43-46 43-8 0-27-18-42-40z"/>
    <path d="m1075 894c-11-12-14-25-10-43 17-69 205-345 323-473 65-70 244-226 300-261 81-52 156-58 150-14-2 14-29 39-73 70-100 68-263 208-326 280-77 87-197 250-248 337-24 41-50 85-58 98-16 26-35 28-58 6z"/>
  </g>
</svg>
