<?xml version="1.0"?>
<svg xmlns="http://www.w3.org/2000/svg" height="200pt" preserveAspectRatio="xMidYMid meet" viewBox="0 0 200 200" width="200pt">
  <g transform="matrix(.1 0 0 -.1 0 200)">
    <path d="m455 1890c-5-8-10-143-14-367l-1-71-42-7c-95-15-257-57-268-70-17-20-8-57 15-65 11-4 55 1 99 11 43 11 101 23 130 27l52 8-8-75c-15-136-68-423-104-561-34-130-72-233-148-405-40-89-43-107-21-125 12-10 21-10 41-1 55 25 187 355 241 606l28 129 5-415c5-439 6-449 51-449 10 0 26 11 35 25 15 23 16 61 10 378-3 193-9 437-12 541l-6 190 93-87c92-85 122-100 147-75 27 27 9 53-118 175-71 69-130 133-130 143 0 23 32 29 188 37 128 6 152 15 152 53 0 39-29 46-166 38-71-4-139-10-151-13l-23-5v208c0 148-3 211-12 220-14 14-54 16-63 2z"/>
    <path d="m1360 1799c-36-5-111-16-168-25s-106-13-109-10-14 1-24-4c-13-7-19-28-24-77-8-71-63-260-97-328-11-22-38-63-59-91-22-28-39-55-39-61 0-20 38-45 59-38 23 7 67 60 101 123 13 23 27 42 31 42s29-30 55-67c27-38 73-91 103-120l54-52-27-40c-78-112-309-308-434-367-46-22-61-34-61-50-1-43 71-46 144-8 115 61 318 238 420 366l30 37 85-65c47-36 123-96 170-133 80-64 236-168 307-205 40-20 82-21 90 0 12 32-18 63-133 133-109 67-365 257-440 326l-33 30 58 96c100 168 167 364 173 507 3 83-7 92-96 91-39-1-100-5-136-10zm139-131c-19-142-82-296-186-462l-25-38-45 43c-24 24-74 84-111 133l-66 89 18 66c10 36 23 93 30 126 9 48 15 61 31 63 114 15 261 30 306 31l56 1z"/>
    <path d="m1555 713c-27-2-140-14-250-28-110-13-237-27-282-30-120-10-128-23-96-160 23-98 39-193 48-297 8-84 18-93 87-79 81 16 238 31 394 38 124 5 144 4 171-12 23-13 35-15 49-7 18 10 19 24 16 239-2 125-5 247-9 271-5 44-32 74-63 70-8-1-37-3-65-5zm45-278v-195h-122c-112 0-173-5-354-25l-61-7-7 63c-6 58-38 223-52 275-5 20-1 22 78 28 46 4 155 16 243 26 88 11 178 21 200 23s48 4 58 5c16 2 17-13 17-193z"/>
  </g>
</svg>
