<?xml version="1.0"?>
<svg xmlns="http://www.w3.org/2000/svg" height="200pt" preserveAspectRatio="xMidYMid meet" viewBox="0 0 200 200" width="200pt">
  <g transform="matrix(.1 0 0 -.1 0 200)">
    <path d="m851 1922c-5-10-6-52-2-98l6-81-185-24c-102-12-211-23-243-23-84-1-86-6-50-159 19-82 40-112 71-103 31 10 37 46 18 108-8 29-12 56-8 59 18 16 670 85 901 96l144 6-43-60c-45-64-49-96-12-101 27-4 51 14 130 102 69 76 77 106 36 132-22 15-47 16-207 11-100-4-243-13-317-22-74-8-138-15-141-15s-9 37-12 81c-4 45-12 88-18 95-16 20-57 17-68-4z"/>
    <path d="m1136 1568c-8-13-22-42-31-66-19-47-21-48-130-57-38-3-91-8-117-12l-48-6v47c0 56-14 86-40 86-29 0-50-39-50-92v-47l-42-5c-183-24-221-32-232-48-8-13-8-23 0-35 13-20 70-23 191-10l72 8-15-45c-18-52-16-85 6-97 8-5 37-14 63-21l48-13-98-61c-79-50-98-66-98-85 0-55 116-22 234 66 72 55 74 56 110 44 59-19 103-45 159-93 30-25 60-46 68-46 19 0 46 44 38 63-10 26-115 108-171 134-29 14-53 27-53 29 0 5 39 53 111 137 23 27 33 30 110 38 46 4 133 8 192 8 119 1 147 10 147 45 0 46-17 50-201 43-158-6-170-5-164 11 16 42 16 69 0 85-23 23-42 21-59-5zm-136-215c0-5-24-34-53-65l-52-58-50 11c-27 6-53 14-57 18s-3 23 2 43c10 36 12 37 68 43 31 3 66 7 77 9 41 6 65 6 65-1z"/>
    <path d="m915 1036c-16-11-17-23-12-90 4-55 2-78-6-80-7-2-97-15-202-30-239-33-265-40-265-70 0-43 22-51 108-37 117 19 357 49 360 46 2-2-6-22-18-44-46-92-245-268-417-370-37-22-124-66-193-96-68-31-128-61-132-68-14-22 11-47 48-47 65 0 265 92 399 183 106 71 253 196 298 251l44 54 6-116c4-65 10-187 13-272 7-161 17-200 52-200 47 0 50 44 28 410-7 113-11 206-11 208 1 1 22-13 46-31 71-55 245-169 373-247 306-184 474-239 464-153-2 23-12 31-53 47-162 62-391 189-625 347-114 77-204 148-197 155 6 7 401 34 492 34 66 0 97 4 113 16 24 17 29 43 10 62-16 16-158 15-383-3-99-8-199-15-221-15h-41l-7 70c-7 63-23 100-45 100-4 0-15-6-26-14z"/>
  </g>
</svg>
