<?xml version="1.0"?>
<svg xmlns="http://www.w3.org/2000/svg" height="200pt" preserveAspectRatio="xMidYMid meet" viewBox="0 0 200 200" width="200pt">
  <g transform="matrix(.1 0 0 -.1 0 200)">
    <path d="m455 1890c-5-8-10-143-14-367l-1-71-42-7c-95-15-257-57-268-70-17-20-8-57 15-65 11-4 55 1 99 11 43 11 101 23 130 27l52 8-8-75c-15-136-68-423-104-561-34-130-72-233-148-405-40-89-43-107-21-125 12-10 21-10 41-1 55 25 187 355 241 606l28 129 5-415c5-439 6-449 51-449 10 0 26 11 35 25 15 23 16 61 10 378-3 193-9 437-12 541l-6 190 93-87c92-85 122-100 147-75 27 27 9 53-118 175-71 69-130 133-130 143 0 23 32 29 188 37 128 6 152 15 152 53 0 39-29 46-166 38-71-4-139-10-151-13l-23-5v208c0 148-3 211-12 220-14 14-54 16-63 2z"/>
    <path d="m1197 1734c-18-19-2-66 55-157 65-103 94-132 121-121 43 16 29 56-65 199-40 61-59 81-78 83-14 2-29 0-33-4z"/>
    <path d="m1718 1703c-18-20-75-82-126-137-123-133-145-176-91-176 34 0 72 26 145 102 150 155 182 206 152 236-21 21-47 13-80-25z"/>
    <path d="m933 1723c-30-11-12-62 58-164 92-135 107-151 139-147 19 2 26 10 28 30s-19 58-89 157c-87 125-102 138-136 124z"/>
    <path d="m1007 1188c-12-19-12-40-4-111 6-48 8-89 6-91s-71-13-153-25-157-26-167-32c-24-12-25-57-2-66 9-4 73 1 142 11 187 25 175 28 167-46-9-75-31-141-62-188-28-41-31-76-6-88 9-5 40-12 67-15 59-7 173-41 198-59 16-12 10-19-58-78-42-36-113-86-158-112-141-80-160-102-113-134 24-15 28-14 107 27 96 50 182 111 261 187l57 54 53-33c29-19 108-80 176-136 67-57 131-103 142-103 31 0 44 35 24 68-19 32-182 170-272 231l-63 42 45 52c25 28 62 84 81 124 33 69 75 204 75 243 0 25 76 33 240 24 117-6 137-4 149 9 7 9 11 24 9 34-7 35-46 43-219 43h-167l-8 76c-10 84-28 109-61 88-14-9-19-28-21-90l-3-80-181-11c-100-7-185-10-188-8-4 3-10 41-13 85-7 114-45 164-80 108zm453-282c0-37-39-155-71-216-16-30-49-77-73-105l-43-49-69 31c-38 18-92 38-120 44l-51 12 19 55c11 30 24 93 31 139 9 71 14 84 31 88s196 17 319 24c22 1 27-3 27-23z"/>
  </g>
</svg>
