<?xml version="1.0"?>
<svg xmlns="http://www.w3.org/2000/svg" height="200pt" preserveAspectRatio="xMidYMid meet" viewBox="0 0 200 200" width="200pt">
  <g transform="matrix(.1 0 0 -.1 0 200)">
    <path d="m1356 1894c-18-17-20-127-7-431l6-161-75-7c-161-13-387-37-419-44-44-9-59-43-31-71 13-13 29-18 43-15 21 4 240 26 408 41l75 6 12-119c17-174 47-335 99-533l45-175-82-76c-92-86-101-112-39-117 30-3 45 4 92 43l56 45 36-77c46-99 79-143 109-143 31 0 37 8 81 115 91 219 119 346 79 362-24 9-39-14-78-118-19-52-47-122-62-155l-26-59-19 35c-10 19-25 57-33 83l-15 48 60 92c72 109 120 201 148 285 22 65 20 88-9 97s-48-5-61-43c-16-50-101-217-138-271-20-30-32-40-35-30-51 152-126 561-126 686v33h133c140 0 177 10 177 49 0 36-20 41-170 41h-147l-6 163c-14 343-20 408-34 423-18 18-28 18-47-2z"/>
    <path d="m455 1890c-5-8-10-143-14-367l-1-71-42-7c-95-15-257-57-268-70-17-20-8-57 15-65 11-4 55 1 99 11 43 11 101 23 130 27l52 8-8-75c-15-136-68-423-104-561-34-130-72-233-148-405-40-89-43-107-21-125 12-10 21-10 41-1 55 25 187 355 241 606l28 129 5-415c5-439 6-449 51-449 10 0 26 11 35 25 15 23 16 61 10 378-3 193-9 437-12 541l-6 190 93-87c92-85 122-100 147-75 27 27 9 53-118 175-71 69-130 133-130 143 0 23 32 29 188 37 128 6 152 15 152 53 0 39-29 46-166 38-71-4-139-10-151-13l-23-5v208c0 148-3 211-12 220-14 14-54 16-63 2z"/>
    <path d="m1565 1684c-21-21-16-44 32-146 42-91 75-128 101-112 29 19 22 56-31 164s-71 124-102 94z"/>
    <path d="m1141 1042c-5-10-13-57-17-104l-7-86-74-7c-41-4-77-5-79-2-2 2-7 35-10 73-8 104-11 114-37 114-39 0-47-18-47-112 0-98 10-86-89-105-50-9-72-33-55-60 10-15 24-18 79-16l68 3-7-78c-13-137-44-256-95-355-23-45-18-67 14-67 34 0 70 34 93 87 29 69 59 188 66 269 4 38 9 88 12 111l5 42 57 6c31 3 69 8 83 10l25 4 12-177c7-97 13-206 15-241 3-48 8-67 22-77 24-18 30-18 49 2 21 20 21 135 1 334-8 80-15 150-15 157s23 14 56 18c77 10 105 43 68 79-12 13-27 15-70 10l-55-7 2 85c1 47-2 91-5 97-11 17-54 13-65-7z"/>
  </g>
</svg>
