<?xml version="1.0"?>
<svg xmlns="http://www.w3.org/2000/svg" height="200pt" preserveAspectRatio="xMidYMid meet" viewBox="0 0 200 200" width="200pt">
  <g transform="matrix(.1 0 0 -.1 0 200)">
    <path d="m455 1890c-5-8-10-143-14-367l-1-71-42-7c-95-15-257-57-268-70-17-20-8-57 15-65 11-4 55 1 99 11 43 11 101 23 130 27l52 8-8-75c-15-136-68-423-104-561-34-130-72-233-148-405-40-89-43-107-21-125 12-10 21-10 41-1 55 25 187 355 241 606l28 129 5-415c5-439 6-449 51-449 10 0 26 11 35 25 15 23 16 61 10 378-3 193-9 437-12 541l-6 190 93-87c92-85 122-100 147-75 27 27 9 53-118 175-71 69-130 133-130 143 0 23 32 29 188 37 128 6 152 15 152 53 0 39-29 46-166 38-71-4-139-10-151-13l-23-5v208c0 148-3 211-12 220-14 14-54 16-63 2z"/>
    <path d="m1314 1826c-14-11-19-30-22-84l-4-69-135-7c-157-8-183-15-183-50 0-41 24-46 174-35 76 6 140 8 143 6 6-7-17-161-28-178-6-10-34-15-96-17-114-5-152-33-103-77 17-15 31-17 100-12l79 6-20-52c-11-29-32-77-45-108l-26-56-60-7c-34-3-85-6-115-6-67 0-93-13-93-46 0-35 37-46 126-38 43 4 74 3 74-2 0-19-163-185-251-254-60-48-88-78-85-87 3-8 6-17 6-19s15-4 33-4c20 0 53 13 87 36 70 45 216 189 281 275l50 67 132 4 132 5 130-128c72-71 141-137 155-147 45-35 111-63 138-60 22 2 27 8 27 32 0 26-9 35-70 72-40 25-108 82-160 135l-90 91 98-6c112-6 147 2 147 38 0 13-6 28-13 34-7 7-81 14-165 18l-151 7-49 61c-27 34-61 82-76 107l-26 46 82 6c46 4 108 7 138 7 61 0 80 11 80 47 0 38-28 44-175 37l-135-7 5 29c4 16 9 58 13 94l7 65 169 5c159 5 169 6 183 27 13 19 12 24-8 44-21 21-25 22-185 15l-164-7v70c0 58-3 72-19 80-13 7-24 6-37-3zm40-658 46-68h-76c-42 0-74 3-72 8 2 4 14 35 28 69 13 34 25 61 26 60s23-32 48-69z"/>
    <path d="m1312 948c-8-8-12-45-12-100 0-48-1-88-2-89-2 0-51-4-111-8-131-10-165-32-120-76 14-15 31-16 125-10l108 7v-119-120l-112-6c-62-4-153-7-201-7-95 0-127-10-127-39 0-39 20-42 237-40l208 2 1-114c2-132 12-169 48-169 13 0 27 7 30 16s6 74 6 145v129h198c210 0 242 7 242 50 0 38-32 43-240 36l-197-7-6 68c-4 37-7 93-7 124v56l77 7c42 3 98 6 124 6 69 0 100 37 63 75-14 14-33 15-128 10-61-4-116-8-122-10-7-2-13 27-17 82-7 103-29 137-65 101z"/>
  </g>
</svg>
