<?xml version="1.0"?>
<svg xmlns="http://www.w3.org/2000/svg" height="200pt" preserveAspectRatio="xMidYMid meet" viewBox="0 0 200 200" width="200pt">
  <g transform="matrix(.1 0 0 -.1 0 200)">
    <path d="m852 1938c-7-7-12-38-12-69v-58l-57-11c-109-21-238-61-257-79-35-35 7-86 52-62 26 14 182 53 198 49 21-4-52-119-126-201-70-76-205-186-263-213-28-13-37-23-35-39 3-17 10-20 54-20 43 1 62 8 118 44 85 56 221 190 275 272 22 35 41 62 41 59 12-210 21-304 31-316 6-8 22-14 35-14 41 0 46 27 35 185-6 79-11 151-11 159 0 11 19 3 68-26 37-23 126-69 197-104 278-132 406-169 413-117 4 29-15 40-178 108-164 67-385 177-447 221l-46 33 34 5c65 11 270 36 298 36 38 0 66 32 52 58-6 11-18 23-27 26-18 7-27 6-222-20-67-9-129-14-137-10-10 4-15 19-15 49 0 45-13 67-40 67-9 0-21-5-28-12z"/>
    <path d="m1235 1181c-3-11-1-57 5-102 5-46 10-95 10-109v-26l-162-17c-89-10-167-22-175-28-18-15-17-44 2-59 13-11 44-11 163-1 81 7 156 15 166 18 32 9 13-47-60-179-82-147-132-215-230-308-63-59-75-76-67-89 14-21 57-16 108 14 67 39 185 187 251 315l28 55 7-45c4-25 12-135 19-245 8-139 16-204 25-214 20-20 62-6 69 24 6 25-6 267-24 464-6 58-8 106-6 108s16-13 32-34 88-103 160-183c212-235 302-309 342-284 9 6 17 18 17 27 0 8-76 93-169 188s-211 222-263 283c-110 129-116 119 71 135 120 11 146 20 146 51 0 45-56 51-257 27l-102-13-6 46c-14 108-27 176-37 187-16 20-56 16-63-6z"/>
    <path d="m501 1096c-8-9-10-39-5-92l6-79-113-23c-129-27-159-41-159-77s30-39 150-11c58 13 107 23 108 21 8-7-23-85-93-238-81-175-138-275-203-355-46-56-49-82-10-82 70 0 173 135 274 362l59 130 7-48c3-27 7-136 7-242 1-112 5-201 11-213 15-26 56-25 71 3 9 17 10 97 5 315-3 161-4 293-1 293 4 0 38-13 77-30 83-35 94-36 108-10 9 17 6 25-17 49-28 28-127 71-163 71-11 0-20 4-20 9s30 12 68 16c126 12 173 36 156 79-9 24-28 25-130 10-53-8-98-13-100-11-2 1-8 34-14 72s-16 75-22 82c-14 17-43 17-57-1z"/>
  </g>
</svg>
