<?xml version="1.0"?>
<svg xmlns="http://www.w3.org/2000/svg" height="200pt" preserveAspectRatio="xMidYMid meet" viewBox="0 0 200 200" width="200pt">
  <g transform="matrix(.1 0 0 -.1 0 200)">
    <path d="m455 1890c-5-8-10-143-14-367l-1-71-42-7c-95-15-257-57-268-70-17-20-8-57 15-65 11-4 55 1 99 11 43 11 101 23 130 27l52 8-8-75c-15-136-68-423-104-561-34-130-72-233-148-405-40-89-43-107-21-125 12-10 21-10 41-1 55 25 187 355 241 606l28 129 5-415c5-439 6-449 51-449 10 0 26 11 35 25 15 23 16 61 10 378-3 193-9 437-12 541l-6 190 93-87c92-85 122-100 147-75 27 27 9 53-118 175-71 69-130 133-130 143 0 23 32 29 188 37 128 6 152 15 152 53 0 39-29 46-166 38-71-4-139-10-151-13l-23-5v208c0 148-3 211-12 220-14 14-54 16-63 2z"/>
    <path d="m1270 1810c-6-11-9-56-8-102l3-82-129-22c-135-23-159-35-149-75 3-10 16-22 29-25 20-5 157 13 242 33 21 5 22 3 22-68 0-41-4-79-8-85-4-7-47-15-97-19-153-11-169-25-155-131 5-38 16-161 25-274s22-261 30-330 18-160 21-203c7-99 15-104 135-88 128 17 334 15 364-5 27-17 57-8 70 23 4 10 10 242 13 515 4 415 3 500-9 514-12 15-30 16-145 11-72-3-137-7-145-9-11-2-15 15-17 78-3 97-22 87 195 105 164 13 192 24 178 68-10 32-40 34-212 18-87-8-161-13-165-10-5 2-8 33-8 68 0 84-12 115-44 115-15 0-30-8-36-20zm320-598v-98l-202-18c-112-9-218-20-235-23l-33-5-1 53c0 30-4 75-8 101l-8 47 41 5c115 14 338 34 389 35l57 1zm-2-299-3-108-40-3c-36-2-302-36-366-47-27-4-27-3-33 73-4 42-9 96-12 118l-6 42 84 7c172 16 255 22 316 24l63 1zm-4-320c-3-65-7-123-9-129-2-8-53-14-142-19-76-4-162-11-190-15l-53-7-4 31c-3 17-7 65-10 107s-8 83-11 90c-4 12 25 19 152 36 87 11 184 21 215 22l57 1z"/>
    <path d="m860 1165c-8-10-11-32-7-63 29-253 47-564 47-796 0-126 2-148 18-164s52-17 501-16c401 1 485 4 492 15 14 22 11 34-12 55-20 18-43 19-465 19h-444v122c0 290-41 768-72 826-11 21-41 22-58 2z"/>
  </g>
</svg>
