<?xml version="1.0"?>
<svg xmlns="http://www.w3.org/2000/svg" height="200pt" preserveAspectRatio="xMidYMid meet" viewBox="0 0 200 200" width="200pt">
  <g transform="matrix(.1 0 0 -.1 0 200)">
    <path d="m722 1868c-15-15-15-95 1-225 9-74 10-103 2-103-39 0-293-22-355-31-91-13-110-23-110-54 0-37 28-47 108-35 38 5 119 12 180 16 109 7 112 7 112-14 0-34 38-126 70-170l28-40-81-6c-123-10-230-27-244-38-18-14-16-43 2-58 12-10 55-9 218 4 111 9 219 19 240 21l37 5v-54-54l-42-6c-24-3-67-9-96-12-56-7-82-24-82-53 0-37 22-43 119-30 51 6 93 10 95 8s6-43 8-91l4-88-30-5c-17-3-110-12-206-20-287-25-301-27-316-51-12-17-12-23 0-40 17-22 27-22 285 0 96 9 176 14 178 12 5-4-168-145-277-226-53-39-153-95-266-150-101-50-184-96-188-105-9-24 11-45 42-45 44 0 312 121 402 181 77 53 230 172 338 265l42 37v-240c0-172 3-242 12-251 16-16 55-15 65 0 4 7 10 118 13 245l5 233 70-56c216-172 620-395 722-398 50-1 84 24 68 50-6 9-50 31-99 50-176 68-427 212-613 350l-91 69 46 7c26 3 143 7 260 7 126 1 221 5 233 11 10 6 19 21 19 34 0 48-9 49-330 44l-300-6v78c0 43-3 85-6 93-4 12 13 16 96 22 82 6 102 10 110 25 13 24 3 50-24 59-11 5-58 6-103 3l-83-5v51c0 45 2 50 25 56 15 4 116 6 226 6 208-2 229 2 229 41 0 41-34 49-222 49h-177l23 34c12 19 36 66 52 105l29 71h181c168 0 182 1 199 20 15 17 16 24 7 45l-11 25-233 2-233 3-3 157c-2 145-4 158-22 168-14 7-26 7-39 1-16-9-20-27-26-126-4-64-5-136-2-161l5-44h-97-97l-18 158c-10 86-23 163-28 170-13 15-40 16-56 0zm368-440c-5-13-24-61-44-108l-35-85-68-7-68-7-39 42c-40 44-78 112-90 160l-6 27h180 180z"/>
    <path d="m1273 1788c-21-28-65-143-67-172-1-27 2-31 23-31 49 0 129 141 110 193-9 25-50 31-66 10z"/>
    <path d="m430 1715c-21-25 3-61 72-105 88-57 128-64 128-21 0 30-132 141-168 141-11 0-25-7-32-15z"/>
  </g>
</svg>
