<?xml version="1.0"?>
<svg xmlns="http://www.w3.org/2000/svg" height="200pt" preserveAspectRatio="xMidYMid meet" viewBox="0 0 200 200" width="200pt">
  <g transform="matrix(.1 0 0 -.1 0 200)">
    <path d="m455 1890c-5-8-10-143-14-367l-1-71-42-7c-95-15-257-57-268-70-17-20-8-57 15-65 11-4 55 1 99 11 43 11 101 23 130 27l52 8-8-75c-15-136-68-423-104-561-34-130-72-233-148-405-40-89-43-107-21-125 12-10 21-10 41-1 55 25 187 355 241 606l28 129 5-415c5-439 6-449 51-449 10 0 26 11 35 25 15 23 16 61 10 378-3 193-9 437-12 541l-6 190 93-87c92-85 122-100 147-75 27 27 9 53-118 175-71 69-130 133-130 143 0 23 32 29 188 37 128 6 152 15 152 53 0 39-29 46-166 38-71-4-139-10-151-13l-23-5v208c0 148-3 211-12 220-14 14-54 16-63 2z"/>
    <path d="m1405 1744c-189-8-471-37-492-50-27-17-30-46-7-65 13-10 44-10 180 2l164 14v-21c0-11-18-48-40-82-44-70-70-117-70-130 0-5 25-40 55-78 91-114 122-239 131-534 5-128 3-225-5-282-14-106-34-165-52-159-8 3-30 5-49 5-54 1-53-33 3-90 74-73 107-60 150 62 41 114 50 210 44 457-8 318-47 481-141 585l-37 41 41 64c22 36 46 88 52 115l12 50 115 7c63 4 144 5 181 1 57-5 72-3 90 12 25 21 21 55-8 67-20 9-201 14-317 9z"/>
    <path d="m1484 1045c-13-51 31-227 82-327 13-26 24-53 24-60 0-8-34-51-75-96s-75-89-75-96c0-23 28-39 57-32 16 4 57 37 92 73l63 66 26-34c85-109 157-163 209-157 14 2 31 11 37 21 9 15 5 23-23 45-52 42-133 123-165 165l-29 37 26 58c53 117 91 318 67 347-10 12-41 15-161 15h-149zm221-112c-9-63-44-173-54-173-11 0-36 62-60 150l-20 70h71 70z"/>
    <path d="m970 1040c-70-8-107-24-114-48-4-10-2-51 4-89 5-39 13-141 16-227 9-202-1-191 181-183 106 6 140 11 155 24 16 15 18 36 18 250v234l-25 24c-22 23-32 25-102 24-43-1-103-5-133-9zm168-267-3-188-81-3-81-3-7 113c-4 62-11 144-16 183-6 51-6 72 3 77 7 4 51 8 100 8h87z"/>
    <path d="m1029 187c-153-12-189-21-189-52 0-6 9-20 20-30 18-16 32-17 226-5 201 13 361 10 614-9 63-5 120-6 127-4 7 3 16 16 19 30 11 43-14 56-128 65-186 14-530 16-689 5z"/>
  </g>
</svg>
