<?xml version="1.0"?>
<svg xmlns="http://www.w3.org/2000/svg" height="200pt" preserveAspectRatio="xMidYMid meet" viewBox="0 0 200 200" width="200pt">
  <g transform="matrix(.1 0 0 -.1 0 200)">
    <path d="m808 1878c-9-7-21-30-27-50-15-45-84-155-114-178l-21-18 17-163c9-90 20-208 24-262 6-94 7-99 35-119 26-18 40-20 103-15l72 5 7-125c4-69 5-127 2-130-2-3-152-14-333-25-180-11-334-23-342-27-32-16-37-40-14-63l23-22 311 18c171 10 312 16 315 14 2-3-32-43-75-90-152-162-393-323-663-442-58-25-69-41-46-64 71-71 538 192 766 432l72 76v-107c0-60 5-151 11-203 5-52 13-133 18-179 8-83 17-101 52-101 44 0 47 48 19 320-5 52-10 133-10 179v84l60-66c159-173 480-388 696-467 68-24 102-24 118 2s2 36-199 137c-218 109-420 255-559 403l-88 93 48 7c27 4 196 9 376 12 180 2 332 7 337 11 17 10 13 51-6 66-22 19-250 23-553 11-129-5-236-9-237-8s-6 59-9 129l-7 127 89 1c49 0 97 4 107 8 17 6 18 26 20 255 2 203 0 251-12 268-14 20-20 21-190 14-97-3-195-10-218-15l-42-8 39 46c74 89 111 196 78 229-15 15-30 15-50 0zm308-360c-3-13-6-39-6-59v-36l-112-7c-62-4-141-9-175-13l-61-6-7 57c-4 31-5 59-3 61 9 10 149 23 257 24 113 1 113 1 107-21zm-6-268v-80h-88c-49 0-123-3-164-6l-76-7-7 72c-4 40-4 75-1 78 7 7 158 19 269 21l67 2z"/>
    <path d="m1410 1610c-158-158-182-192-143-207 31-12 109 42 221 155 131 133 148 159 126 191-8 11-22 21-30 21s-86-72-174-160z"/>
    <path d="m222 1644c-47-33-23-57 103-103 50-18 129-51 176-73 48-22 95-38 104-36 27 5 42 34 30 56-14 22-155 93-264 131-121 42-124 43-149 25z"/>
    <path d="m1277 1343c-4-3-7-19-7-34 0-23 14-38 89-93 113-83 203-138 315-192 96-47 126-53 150-28 27 27 3 49-133 120-71 37-183 105-248 151-108 76-148 94-166 76z"/>
    <path d="m515 1233c-27-15-108-52-180-83-115-50-130-60-133-83-2-18 3-29 17-37 17-8 38-4 108 23 205 80 302 144 276 186-15 24-33 23-88-6z"/>
  </g>
</svg>
