<?xml version="1.0"?>
<svg xmlns="http://www.w3.org/2000/svg" height="200pt" preserveAspectRatio="xMidYMid meet" viewBox="0 0 200 200" width="200pt">
  <g transform="matrix(.1 0 0 -.1 0 200)">
    <path d="m460 1890c-19-19-20-33-20-229v-209l-47-6c-27-4-96-19-156-32-110-26-135-42-121-79 13-33 39-35 150-10 147 33 154 33 154-7 0-49-36-273-70-438-46-221-82-333-174-538-53-119-57-149-21-158 38-9 53 9 116 141 64 136 105 253 142 405 14 58 30 123 35 145 7 28 10-83 11-371 1-385 2-412 19-427 26-24 49-21 68 8 15 23 16 63 10 423-3 218-9 462-12 542l-7 145 91-87c72-70 97-88 121-88 29 0 41 15 41 48 0 9-59 73-130 142-72 68-130 132-130 141 0 20 34 26 195 35 128 8 145 14 145 54 0 45-20 50-161 40-68-5-136-10-151-10h-28v204c0 173-2 207-16 220-20 21-30 20-54-4z"/>
    <path d="m1511 1799c-64-74-70-89-46-109 12-10 21-10 44 0 35 14 131 112 131 134 0 31-13 46-40 46-23 0-41-14-89-71z"/>
    <path d="m1007 1833c-4-3-7-19-7-34 0-21 17-43 78-98 81-75 113-91 137-71 34 28 13 59-111 166-47 41-81 54-97 37z"/>
    <path d="m1635 1643c-22-1-105-8-185-13-147-11-385-45-427-61-27-10-31-50-8-69 16-14 34-12 205 14 52 9 95 14 96 13 0-1 4-17 7-34 7-37 16-33-113-53-92-15-110-24-110-54 0-43 21-50 112-36 46 6 91 14 101 17 14 4 17-3 17-46 0-58 12-52-140-76-127-20-192-36-207-48-18-14-16-41 5-60 17-16 72-10 325 38l29 5-7-503c-4-276-9-503-10-505-2-2-30 10-63 27-102 51-128 12-41-61 29-24 68-57 88-74 47-40 64-46 90-28 21 15 21 21 21 297 0 257 2 279 15 252 57-114 331-413 417-454 56-26 88-21 88 14 0 17-18 38-64 74-86 69-231 223-317 338-54 72-76 93-94 93-13 0-29-8-35-17-9-14-10-2-6 52 3 39 6 167 6 286 0 216 0 217 23 223 12 3 99 9 192 13 94 3 178 10 188 15 9 5 17 19 17 32 0 46-17 49-213 43-100-3-190-8-199-12-16-6-18-1-18 42v50l92 7c91 6 128 21 128 51s-34 40-129 40h-96l-3 33c-3 32-3 32 40 33 124 2 268 16 282 28 36 30 8 84-41 79-10-1-36-3-58-5z"/>
    <path d="m1683 1058c-6-7-25-47-42-88s-49-106-72-145c-64-110-79-143-73-159 9-25 48-19 76 12 71 74 183 303 176 361-2 20-9 27-29 29-14 2-30-3-36-10z"/>
    <path d="m942 918c-20-20-13-46 21-76 151-135 161-143 186-140 19 2 27 10 29 27 4 26-34 71-131 152-59 50-84 58-105 37z"/>
    <path d="m998 473c-159-157-193-201-183-232 7-23 31-34 49-24 22 13 187 194 253 278 65 81 75 108 47 119-11 4-59-36-166-141z"/>
  </g>
</svg>
