<?xml version="1.0"?>
<svg xmlns="http://www.w3.org/2000/svg" height="200pt" preserveAspectRatio="xMidYMid meet" viewBox="0 0 200 200" width="200pt">
  <g transform="matrix(.1 0 0 -.1 0 200)">
    <path d="m455 1890c-5-8-10-143-14-367l-1-71-42-7c-95-15-257-57-268-70-17-20-8-57 15-65 11-4 55 1 99 11 43 11 101 23 130 27l52 8-8-75c-15-136-68-423-104-561-34-130-72-233-148-405-40-89-43-107-21-125 12-10 21-10 41-1 55 25 187 355 241 606l28 129 5-415c5-439 6-449 51-449 10 0 26 11 35 25 15 23 16 61 10 378-3 193-9 437-12 541l-6 190 93-87c92-85 122-100 147-75 27 27 9 53-118 175-71 69-130 133-130 143 0 23 32 29 188 37 128 6 152 15 152 53 0 39-29 46-166 38-71-4-139-10-151-13l-23-5v208c0 148-3 211-12 220-14 14-54 16-63 2z"/>
    <path d="m1545 1829c-144-12-532-49-582-55-51-6-70-31-52-65 11-21 16-22 125-15l114 6v-69-68l-67-6c-38-4-87-7-110-7-61 0-67-17-49-132 8-51 18-126 22-167 10-112 15-115 178-107 72 3 246 11 386 17 261 11 297 16 317 47 6 10 14 94 18 189 7 169 7 171-15 193s-26 23-161 16l-139-7v70 69l128 3c138 4 162 12 162 55 0 45-52 51-275 33zm-105-168v-69l-37-6c-21-3-66-8-100-12l-63-6v70 71l43 5c171 23 157 28 157-53zm314-268c-4-71-7-129-8-129 0-1-49-4-108-6l-108-5v128 128l98 4c53 1 105 4 115 5 16 2 17-7 11-125zm-314-17v-123l-37-7c-21-3-63-6-94-6h-56l-7 116c-4 64-6 117-4 120 3 3 128 19 181 23 15 1 17-11 17-123zm-287 12c4-46 7-100 7-120v-38h-60c-67 0-63-5-75 100-3 30-9 71-12 92-6 41 0 44 88 47l46 1z"/>
    <path d="m1300 1044c-8-1-46-6-83-9-59-6-70-10-79-31-8-18-8-27 2-39 12-14 32-16 144-10 72 3 180 7 240 10 121 4 143 14 132 59l-6 26-168-1c-92-1-174-3-182-5z"/>
    <path d="m1445 779c-216-8-399-23-482-40-75-15-104-49-68-79 12-10 34-10 103-1 124 16 334 32 340 26 3-3 9-49 13-102 4-54 13-141 18-193 6-52 11-119 11-147 0-52 0-52-24-41-31 14-56 4-56-21 0-23 74-89 109-98 18-4 29 0 44 18 18 22 19 34 13 169-3 80-10 174-15 210s-12 97-15 136l-7 71 47 7c26 3 133 6 239 6 173 0 194 2 208 18 22 24 21 35-1 55-21 19-107 20-477 6z"/>
    <path d="m1601 454c-11-8-21-22-21-31 0-29 191-197 270-238 42-22 80-8 80 29 0 20-14 34-69 69-38 25-99 74-137 109-80 75-94 82-123 62z"/>
    <path d="m998 328c-71-72-128-138-128-148 0-27 26-43 56-36 33 9 224 199 246 246 12 24 14 39 7 52-20 38-52 18-181-114z"/>
  </g>
</svg>
