<?xml version="1.0"?>
<svg xmlns="http://www.w3.org/2000/svg" height="200pt" preserveAspectRatio="xMidYMid meet" viewBox="0 0 200 200" width="200pt">
  <g transform="matrix(.1 0 0 -.1 0 200)">
    <path d="m455 1890c-5-8-10-143-14-367l-1-71-42-7c-95-15-257-57-268-70-17-20-8-57 15-65 11-4 55 1 99 11 43 11 101 23 130 27l52 8-8-75c-15-136-68-423-104-561-34-130-72-233-148-405-40-89-43-107-21-125 12-10 21-10 41-1 55 25 187 355 241 606l28 129 5-415c5-439 6-449 51-449 10 0 26 11 35 25 15 23 16 61 10 378-3 193-9 437-12 541l-6 190 93-87c92-85 122-100 147-75 27 27 9 53-118 175-71 69-130 133-130 143 0 23 32 29 188 37 128 6 152 15 152 53 0 39-29 46-166 38-71-4-139-10-151-13l-23-5v208c0 148-3 211-12 220-14 14-54 16-63 2z"/>
    <path d="m1522 1857c-6-7-12-44-14-82l-3-70-175-6c-119-4-177-2-182 5-4 6-10 30-14 54-3 24-13 50-21 58-13 13-18 13-37 0-18-12-21-22-18-73l3-60-79-6c-43-3-85-9-95-12-22-9-31-43-16-61 11-13 29-15 114-9l100 7 23-70c25-77 40-95 74-90 32 4 34 36 8 104-11 31-19 58-17 60s75 7 162 10l158 7-6-40c-4-23-16-62-27-87-20-48-19-71 6-80 40-15 82 46 105 152l11 52h79c67 0 82 3 100 21s19 23 6 42c-12 19-25 22-96 25l-81 3v64c0 35-3 70-6 79-7 19-47 21-62 3z"/>
    <path d="m1365 1359c-215-23-338-45-349-61-12-20 38-344 57-367 9-10 32-12 108-6l97 6-10-43c-5-24-17-72-26-108-17-63-18-65-52-68-108-9-264-33-276-43-18-15-18-43 0-58 14-12 48-9 229 14 48 7 48-7 0-94-35-63-154-192-261-283-46-38-51-62-20-82 29-18 84 19 203 139 70 69 121 130 139 165 16 30 30 57 32 58 1 2 51-37 111-87 136-115 223-175 342-237 79-41 104-49 149-49 41 0 57 4 66 18 16 26-4 50-50 60-53 12-196 80-269 130-69 46-248 192-284 231-14 14-21 29-17 33s117 14 252 23c208 13 247 18 255 32 13 23 1 47-29 55-26 6-251-1-378-13l-72-7 15 64c8 35 13 83 11 106-4 51 0 53 134 53 53 0 104 3 112 6 27 10 36 38 47 145 5 57 19 129 30 161 37 111 30 118-111 117-58-1-141-6-185-10zm211-86c-3-10-8-30-11-44l-6-26-162-7c-89-4-189-10-222-15-64-9-75-4-75 36 0 12 8 24 18 27 33 10 329 41 415 44 42 2 48 0 43-15zm-34-198c-4-41-6-45-31-45-14 0-75-4-136-9-60-6-139-11-175-13l-65-3-6 43c-5 38-3 43 18 48 26 7 223 20 328 23l70 1z"/>
  </g>
</svg>
