<?xml version="1.0"?>
<svg xmlns="http://www.w3.org/2000/svg" height="200pt" preserveAspectRatio="xMidYMid meet" viewBox="0 0 200 200" width="200pt">
  <g transform="matrix(.1 0 0 -.1 0 200)">
    <path d="m455 1890c-5-8-10-143-14-367l-1-71-42-7c-95-15-257-57-268-70-17-20-8-57 15-65 11-4 55 1 99 11 43 11 101 23 130 27l52 8-8-75c-15-136-68-423-104-561-34-130-72-233-148-405-40-89-43-107-21-125 12-10 21-10 41-1 55 25 187 355 241 606l28 129 5-415c5-439 6-449 51-449 10 0 26 11 35 25 15 23 16 61 10 378-3 193-9 437-12 541l-6 190 93-87c92-85 122-100 147-75 27 27 9 53-118 175-71 69-130 133-130 143 0 23 32 29 188 37 128 6 152 15 152 53 0 39-29 46-166 38-71-4-139-10-151-13l-23-5v208c0 148-3 211-12 220-14 14-54 16-63 2z"/>
    <path d="m1068 1808c-11-9-18-39-22-104-9-123-48-266-91-331-38-57-43-80-20-89 49-19 121 60 151 167l16 57 59 4c53 3 59 1 59-17 0-37-62-234-76-239-7-3-48-8-91-12-111-9-153-42-102-78 16-11 38-13 90-9 41 4 69 2 69-4 0-16-69-125-113-178-52-63-99-105-200-179-43-32-81-64-84-72-7-20 15-44 42-44 20 0 132 68 195 119l25 20 8-27c4-15 11-175 14-355 5-270 9-331 21-343 8-9 21-13 29-10 46 18 420 49 610 51 220 2 243 6 243 45 0 40-19 43-286 38l-255-4 7 90c3 50 8 93 10 95s61 10 131 18c131 16 163 28 163 64 0 35-31 40-157 24-168-21-153-26-153 49s-12 69 165 86c90 9 113 15 127 32 19 21 11 51-15 61-8 3-72-1-142-9-71-8-129-13-130-12-1 2 0 40 3 85l4 81 32 6c17 3 87 8 156 12 90 5 130 11 143 22 21 19 22 36 0 57-17 17-73 17-256-1l-58-6 25 51c29 57 32 83 11 101-27 22-49 5-92-70-23-41-44-79-46-84-2-7-153-35-194-36-7 0 4 26 25 58 20 32 50 87 67 123 16 35 30 65 31 67 4 8 255 32 388 37 96 3 164 9 172 16 17 14 18 41 2 57-17 17-273 15-413-2-60-8-111-13-112-12s8 37 21 81 27 99 31 123c8 51 2 49 195 58 80 3 153 10 163 15 24 13 22 56-3 69s-404-6-511-26l-26-5 5 99c4 83 2 101-12 115-21 20-27 21-48 5zm212-1025-5-88-92-14c-51-8-96-11-100-7-13 12-19 166-8 167 6 0 46 6 90 14 132 21 121 28 115-72zm0-242v-69l-62-11c-35-6-77-15-95-20-27-8-32-7-37 12-3 12-6 45-6 74v51l73 12c39 6 79 13 87 14 39 9 40 7 40-63zm0-245v-94l-27-6c-16-3-58-8-95-12l-68-6v86c0 97-12 85 115 110 39 8 71 15 73 15 1 1 2-41 2-93z"/>
  </g>
</svg>
