<?xml version="1.0"?>
<svg xmlns="http://www.w3.org/2000/svg" height="200pt" preserveAspectRatio="xMidYMid meet" viewBox="0 0 200 200" width="200pt">
  <g transform="matrix(.1 0 0 -.1 0 200)">
    <path d="m1522 1908c-8-8-12-46-12-105 0-51-3-93-7-94-5 0-69-8-143-18s-136-17-137-17c-1 1-5 46-10 101-8 95-9 100-32 103-13 2-28-1-35-8-6-6-13-57-16-113l-5-101-80-14c-89-15-111-28-101-65 8-33 29-37 114-22l70 12 4-136c2-75 3-138 2-139-2-2-62-15-136-28-166-31-166-31-174-56-10-32 30-62 71-53 252 51 655 95 878 95 71 0 137 5 148 10 24 13 26 65 3 74-9 3-87 6-174 6h-157l5 138c2 75 9 140 14 143s41 9 78 12c84 7 110 19 110 53 0 37-31 46-122 36s-88-13-88 97c0 78-9 101-40 101-9 0-21-5-28-12zm-15-429c-3-78-8-143-11-146-6-6-260-31-266-26-3 3-7 65-8 138-4 134-4 134 20 140 19 4 71 11 262 34 5 1 7-58 3-140z"/>
    <path d="m455 1890c-5-8-10-143-14-367l-1-71-42-7c-95-15-257-57-268-70-17-20-8-57 15-65 11-4 55 1 99 11 43 11 101 23 130 27l52 8-8-75c-15-136-68-423-104-561-34-130-72-233-148-405-40-89-43-107-21-125 12-10 21-10 41-1 55 25 187 355 241 606l28 129 5-415c5-439 6-449 51-449 10 0 26 11 35 25 15 23 16 61 10 378-3 193-9 437-12 541l-6 190 93-87c92-85 122-100 147-75 27 27 9 53-118 175-71 69-130 133-130 143 0 23 32 29 188 37 128 6 152 15 152 53 0 39-29 46-166 38-71-4-139-10-151-13l-23-5v208c0 148-3 211-12 220-14 14-54 16-63 2z"/>
    <path d="m1337 1166c-8-8-17-46-21-87-3-40-8-74-9-76-2-1-58-9-124-17-124-14-156-24-167-51-3-9 5-86 18-173 13-86 27-185 31-219 10-94 19-99 158-84 62 6 194 11 294 11 159 0 182 2 195 18 21 23 36 405 19 469-17 62-32 67-193 59l-138-7v75c0 64-3 77-19 86-25 13-27 13-44-4zm303-306v-70h-43c-24 0-78-3-120-6l-77-7v71 71l53 4c28 2 82 4 120 5l67 2zm-330-14v-63l-72-7c-40-4-82-10-93-12-19-5-22 2-32 58-6 35-10 64-9 65 2 3 146 20 179 22 27 1 27 0 27-63zm330-216v-71l-117 3-118 3-3 68-3 67h121 120zm-330-5c0-72 5-68-97-80-28-3-54-2-56 2-2 5-7 36-11 70l-7 62 33 4c18 2 57 5 86 5l52 2z"/>
    <path d="m1130 353c-108-83-211-179-216-200-9-33 16-58 48-49 12 3 72 49 132 101s113 95 118 95 13 11 20 25c25 55-42 74-102 28z"/>
    <path d="m1555 321c-11-34 6-49 118-105 62-31 138-78 170-106 64-54 90-62 108-29 26 49-51 119-225 205-117 57-161 66-171 35z"/>
  </g>
</svg>
