<?xml version="1.0"?>
<svg xmlns="http://www.w3.org/2000/svg" height="200pt" preserveAspectRatio="xMidYMid meet" viewBox="0 0 200 200" width="200pt">
  <g transform="matrix(.1 0 0 -.1 0 200)">
    <path d="m455 1890c-5-8-10-143-14-367l-1-71-42-7c-95-15-257-57-268-70-17-20-8-57 15-65 11-4 55 1 99 11 43 11 101 23 130 27l52 8-8-75c-15-136-68-423-104-561-34-130-72-233-148-405-40-89-43-107-21-125 12-10 21-10 41-1 55 25 187 355 241 606l28 129 5-415c5-439 6-449 51-449 10 0 26 11 35 25 15 23 16 61 10 378-3 193-9 437-12 541l-6 190 93-87c92-85 122-100 147-75 27 27 9 53-118 175-71 69-130 133-130 143 0 23 32 29 188 37 128 6 152 15 152 53 0 39-29 46-166 38-71-4-139-10-151-13l-23-5v208c0 148-3 211-12 220-14 14-54 16-63 2z"/>
    <path d="m1002 1838c-8-8-12-45-12-100v-88l-57-1c-90-2-117-11-121-37-7-44 15-55 99-49l77 5 5-47c4-36 3-133-2-183-1-4-22-10-48-14-64-9-83-20-83-49 0-36 26-45 105-35 39 5 111 9 160 10 97 0 115 8 115 47 0 31-30 42-102 35l-58-4v126 126h101c111 0 139 9 139 44 0 42-21 49-140 44l-110-4v81c0 82-9 105-40 105-9 0-21-5-28-12z"/>
    <path d="m1791 1786c-8-10-11-55-9-145l3-130-80-5c-44-3-145-11-225-16-181-13-208-18-220-40s-4-46 17-54c9-4 61-2 117 3 55 6 167 13 249 17l147 6 3-363c3-500 1-819-6-826-3-3-21 4-39 16-68 43-77 46-95 29-14-15-14-19 6-52 13-20 26-36 30-36s32-23 63-50c31-28 65-50 77-50 46 0 46 5 43 692l-2 647 32 9c62 16 63 74 1 80-29 3-31 6-37 55-3 29-6 83-6 120 0 38-5 77-10 88-13 22-43 25-59 5z"/>
    <path d="m1020 1020c-196-15-196-16-182-202 13-178 0-168 238-168 111 0 192 4 207 11 23 10 24 17 30 122 11 192 10 214-15 231s-105 19-278 6zm216-112c-3-18-8-63-11-99l-6-66-82-7c-45-3-109-6-143-6h-61l-7 53c-3 28-6 73-6 99v47l43 4c23 2 95 4 160 5l118 2z"/>
    <path d="m1508 919c-10-5-18-18-18-28 0-26 147-229 172-236 28-10 52 16 44 48-7 27-116 181-148 210-23 20-27 20-50 6z"/>
    <path d="m1196 458c-9-12-16-29-16-38 0-8-10-48-21-87l-22-73h-51-51l-39 90c-43 99-55 115-86 105-33-10-30-45 11-134 18-40 26-67 19-71-5-3-43-12-84-19-79-13-102-28-91-60 9-30 33-33 136-16 59 9 161 15 276 15 172 0 183 1 193 20 8 14 8 26 0 40-9 17-21 20-81 20-64 0-70 2-63 18 4 9 16 52 27 94 19 75 20 79 2 98-23 26-40 25-59-2z"/>
  </g>
</svg>
