<?xml version="1.0"?>
<svg xmlns="http://www.w3.org/2000/svg" height="200pt" preserveAspectRatio="xMidYMid meet" viewBox="0 0 200 200" width="200pt">
  <g transform="matrix(.1 0 0 -.1 0 200)">
    <path d="m455 1890c-5-8-10-143-14-367l-1-71-42-7c-95-15-257-57-268-70-17-20-8-57 15-65 11-4 55 1 99 11 43 11 101 23 130 27l52 8-8-75c-15-136-68-423-104-561-34-130-72-233-148-405-40-89-43-107-21-125 12-10 21-10 41-1 55 25 187 355 241 606l28 129 5-415c5-439 6-449 51-449 10 0 26 11 35 25 15 23 16 61 10 378-3 193-9 437-12 541l-6 190 93-87c92-85 122-100 147-75 27 27 9 53-118 175-71 69-130 133-130 143 0 23 32 29 188 37 128 6 152 15 152 53 0 39-29 46-166 38-71-4-139-10-151-13l-23-5v208c0 148-3 211-12 220-14 14-54 16-63 2z"/>
    <path d="m1370 1815c-47-24-134-65-193-91-85-38-109-53-114-72-13-53 40-58 148-13 40 17 74 29 76 27 7-6-37-114-60-148-22-31-27-33-101-40-82-8-106-19-106-48 0-27 21-38 75-42l50-3-137-139c-76-76-138-142-138-145 0-15 26-31 50-31 32 0 60 19 126 82l51 49 5-103c7-128 23-173 68-182 18-3 97-6 175-6 158 0 160 1 176 67 34 147 30 217-15 229-12 3-89 4-171 2-140-3-152-2-172 17l-22 21 56 69c30 39 57 72 59 74s22-13 46-34c42-37 412-225 442-225 24 0 47 40 35 62-6 10-98 61-207 114-140 68-192 98-181 104 8 5 59 11 114 15 133 8 162 13 180 31 21 21 19 51-4 64-18 9-181 1-313-16l-47-6 24 58c29 69 31 101 9 125-15 17-11 20 58 54 109 55 126 75 92 109-23 23-40 20-134-29zm79-722c-2-88-1-87-129-94-63-3-116-5-117-5-1 1-5 29-8 63l-7 62 38 4c22 2 81 4 132 5l92 2z"/>
    <path d="m1285 829c-317-15-444-26-460-39-22-18-19-74 14-309 17-113 33-232 36-264 9-79 42-109 80-71 20 20 16 74-29 364l-32 205 75 7c97 9 546 28 674 28h97l-1-167c-1-185-10-348-21-358-3-4-15-2-26 4-26 14-52 4-52-19s60-83 100-100c28-12 33-11 50 6 24 24 40 228 40 502 0 170-2 191-18 205-16 15-43 17-188 15-93 0-245-5-339-9z"/>
    <path d="m1295 568c-73-13-95-13-116-4-24 10-49-20-49-59 0-18 7-70 15-116 29-153 38-167 96-147 20 7 70 9 138 5 159-9 155-13 159 155 3 127 2 138-17 157-18 18-33 21-93 20-40-1-100-6-133-11zm155-132c0-30-4-66-10-81-10-25-11-26-102-23l-92 3-12 60c-7 34-9 64-4 69 13 13 76 24 153 25l67 1z"/>
  </g>
</svg>
