<?xml version="1.0"?>
<svg xmlns="http://www.w3.org/2000/svg" height="200pt" preserveAspectRatio="xMidYMid meet" viewBox="0 0 200 200" width="200pt">
  <g transform="matrix(.1 0 0 -.1 0 200)">
    <path d="m455 1890c-5-8-10-143-14-367l-1-71-42-7c-95-15-257-57-268-70-17-20-8-57 15-65 11-4 55 1 99 11 43 11 101 23 130 27l52 8-8-75c-15-136-68-423-104-561-34-130-72-233-148-405-40-89-43-107-21-125 12-10 21-10 41-1 55 25 187 355 241 606l28 129 5-415c5-439 6-449 51-449 10 0 26 11 35 25 15 23 16 61 10 378-3 193-9 437-12 541l-6 190 93-87c92-85 122-100 147-75 27 27 9 53-118 175-71 69-130 133-130 143 0 23 32 29 188 37 128 6 152 15 152 53 0 39-29 46-166 38-71-4-139-10-151-13l-23-5v208c0 148-3 211-12 220-14 14-54 16-63 2z"/>
    <path d="m1210 1835c-11-13-9-63 14-298 15-155 33-311 40-345 9-46 10-65 2-67-6-2-87-15-180-30s-182-32-198-37c-46-16-60-67-22-82 7-3 91 8 186 24 95 15 189 30 208 32l35 3 27-125c32-151 66-255 123-377l43-92-49-69c-26-38-69-92-94-119-50-57-54-68-26-83 42-22 101 21 178 128 42 58 63 76 63 52 0-5 59-70 131-145 131-135 161-154 186-123 6 7 25 63 42 123 34 116 43 207 23 227-24 24-47-7-81-113-18-57-35-106-37-108-7-7-111 98-170 171l-54 67 56 113c87 174 126 307 110 373-5 21-12 26-33 23-32-4-36-13-57-108-9-43-40-125-73-193l-57-118-20 38c-36 71-78 198-107 326-16 71-29 132-29 136 0 11 171 29 353 37 108 5 152 11 163 21 19 19 18 29-7 54-21 21-28 22-168 15-80-3-192-11-249-17-61-7-107-8-112-3-13 14-37 180-60 424-12 124-27 236-34 250-13 30-47 37-66 15z"/>
    <path d="m1484 1798c-15-29-40-72-56-94-43-60-36-90 27-132 28-18 49-36 48-40s-31-59-67-121c-68-118-77-149-51-171 16-13 40-11 125 14 77 22 93 20 123-14 32-35 71-40 87-9 9 16 8 26-4 44-16 24-15 24 22 30 20 4 44 9 53 11s22-2 29-11c25-30 80-12 80 26 0 29-129 179-154 179-46 0-59-38-26-80 26-33 25-40-7-40-16 0-66-9-113-19-47-11-86-18-88-16-1 1 38 73 88 160 89 154 105 200 75 211-32 13-62-6-89-56-15-27-30-50-34-50s-17 7-29 15l-21 15 33 56c56 93 56 144-1 144-19 0-29-11-50-52z"/>
    <path d="m986 1798c-26-42-96-228-96-258 0-32 31-67 67-76 13-4 23-11 23-18 0-6-25-74-55-150-58-145-62-165-43-184 20-20 40-14 148 39l103 51 21-27c15-19 29-26 46-23 39 5 38 51-4 137-41 85-53 101-76 101-32 0-45-27-33-71l10-39-45-20c-25-11-46-19-48-18-2 2 70 184 139 351 15 35 0 62-34 62-19 0-30-12-54-57-28-54-55-73-69-50-3 5 13 55 34 111 45 114 46 123 24 145s-41 20-58-6z"/>
    <path d="m942 798c-5-7-13-33-16-58-16-108-75-226-191-389-27-37-20-71 15-71 27 0 91 60 130 121 18 27 34 49 35 49 2 0 55-25 119-56 122-60 202-78 231-54 26 22 16 41-32 62-179 76-254 112-264 125-10 11-8 27 10 77 28 80 38 170 21 191-15 18-44 20-58 3z"/>
  </g>
</svg>
