<?xml version="1.0"?>
<svg xmlns="http://www.w3.org/2000/svg" height="200pt" preserveAspectRatio="xMidYMid meet" viewBox="0 0 200 200" width="200pt">
  <g transform="matrix(.1 0 0 -.1 0 200)">
    <path d="m556 1828c-8-13-16-62-19-113-8-125-45-235-129-382-38-68-68-131-66-140 5-25 55-29 80-7 19 18 110 174 145 249l18 40 170 32c167 32 437 63 542 63h53l-61-82c-34-46-71-102-82-126-20-39-20-43-5-59 15-15 19-14 46 3 33 21 252 291 252 310 0 7-8 20-17 30-16 15-35 16-188 10-200-7-348-24-539-61-76-14-140-24-142-22s0 28 6 57c16 83 13 186-6 204-22 22-41 20-58-6z"/>
    <path d="m873 1438c-6-7-13-76-16-153-7-166-33-303-88-470-65-195-206-434-316-536-72-66-78-76-63-94 31-38 109-1 184 86 87 101 225 347 269 478l24 70 40-62c56-85 221-273 336-385 180-173 364-265 391-196 9 24-18 50-88 85-94 48-144 85-250 188-179 174-323 350-369 449-23 50-24 55-11 116 19 89 36 316 28 368-8 50-19 68-44 68-10 0-22-6-27-12z"/>
  </g>
</svg>
