<?xml version="1.0"?>
<svg xmlns="http://www.w3.org/2000/svg" height="200pt" preserveAspectRatio="xMidYMid meet" viewBox="0 0 200 200" width="200pt">
  <g transform="matrix(.1 0 0 -.1 0 200)">
    <path d="m1043 1748c-5-7-17-40-26-74-24-91-117-300-178-400-29-48-80-122-114-164-34-41-64-81-69-87-11-19 12-53 35-53 31 0 114 85 181 185l60 90 97 22c81 19 517 83 565 83 12 0 9-11-14-48-69-113-86-192-42-192 24 0 47 27 114 135 90 145 92 152 73 182-16 23-21 25-78 20-104-8-456-57-557-77-52-11-95-18-97-16-2 1 15 45 37 97 73 170 96 269 68 297-16 16-43 15-55 0z"/>
    <path d="m266 1728c-23-13-20-54 6-91 40-58 186-242 206-261 31-27 66-18 70 19 2 26-14 52-102 163-58 73-110 141-116 151-12 23-42 32-64 19z"/>
    <path d="m1196 1168c-10-15-16-44-16-84 0-83-33-272-64-360-45-132-131-286-203-364-54-58-65-75-56-88 28-45 97-14 168 75 46 59 137 228 171 317 15 42 19 47 28 31 6-10 41-57 78-105 72-94 111-130 288-264 169-127 267-171 299-132 19 23 3 42-77 91-116 71-336 240-391 301-68 74-148 196-162 246-8 30-8 63 0 121 17 125 14 201-7 220-25 23-38 21-56-5z"/>
    <path d="m648 743c-39-45-150-298-233-532-4-9-17-3-45 23-22 20-48 36-58 36-23 0-42-19-42-41s100-114 139-127c46-16 65 8 107 128 20 58 69 190 110 294 41 105 74 199 72 210-4 27-30 31-50 9z"/>
  </g>
</svg>
