<?xml version="1.0"?>
<svg xmlns="http://www.w3.org/2000/svg" height="200pt" preserveAspectRatio="xMidYMid meet" viewBox="0 0 200 200" width="200pt">
  <g transform="matrix(.1 0 0 -.1 0 200)">
    <path d="m372 1828c-7-7-12-19-12-28 0-30-97-214-144-275-55-69-57-98-10-103 27-3 38 4 74 45 51 58 160 275 160 318 0 34-15 55-40 55-9 0-21-5-28-12z"/>
    <path d="m662 1808c-25-25-12-55 56-119 68-66 169-146 209-167 45-24 91-4 77 32-4 9-41 43-84 76-42 32-109 88-148 124-74 67-89 75-110 54z"/>
    <path d="m1172 1773c-5-10-12-64-15-119-7-124-27-186-113-355-38-76-62-133-58-143 4-9 18-16 34-16 36 0 58 28 113 141 25 51 48 86 57 87 8 0 68 9 133 21 138 24 344 47 352 39 6-6-54-129-97-199-24-39-19-69 11-69s105 91 149 182c51 106 59 140 36 163-16 15-30 17-113 10-108-7-406-49-435-61-15-6-18-4-13 8 17 45 28 144 25 228-3 95-3 95-30 98-18 2-30-3-36-15z"/>
    <path d="m548 1403c-9-10-26-38-38-63-61-121-210-328-310-428-77-78-101-107-98-125 2-17 11-23 37-25 31-3 41 5 136 101 97 98 183 215 276 375l37 63 58-51c66-58 239-160 271-160 11 0 26 7 33 15 22 26-3 58-71 95-93 48-166 100-233 164-64 61-75 65-98 39z"/>
    <path d="m1311 1277c-6-8-20-63-31-123-60-314-199-712-301-860-24-36-30-51-22-63 48-77 154 71 254 354l42 120 191-190c182-182 264-250 383-317 56-31 87-31 98 1 9 30-3 47-53 74-108 59-208 142-394 327l-198 196 21 69c11 39 34 143 52 232 26 135 29 164 18 177-16 19-45 21-60 3z"/>
    <path d="m710 859c-258-35-390-69-390-100 0-6 4-51 10-102 5-51 14-156 19-235 6-84 14-149 21-157 9-11 26-14 59-11 25 3 127 10 226 16 223 14 227 16 237 116 28 278 37 434 28 458-9 25-13 26-77 25-38-1-97-5-133-10zm126-126c-3-27-11-106-16-178-6-72-13-144-15-161l-5-31-158-11c-86-7-167-15-179-18-20-6-21-2-28 83-3 48-12 139-18 200l-13 113 31 5c82 15 306 43 353 44l54 1z"/>
  </g>
</svg>
