<?xml version="1.0"?>
<svg xmlns="http://www.w3.org/2000/svg" height="200pt" preserveAspectRatio="xMidYMid meet" viewBox="0 0 200 200" width="200pt">
  <g transform="matrix(.1 0 0 -.1 0 200)">
    <path d="m1132 1748c-7-7-12-27-12-46 0-45-53-203-92-272-17-30-55-90-84-134-57-83-61-95-42-114 35-35 83 4 164 132 20 32 34 44 46 41 9-3 60 3 115 14 105 21 266 46 376 57l68 6-17-35c-34-72 8-98 68-41 74 72 94 140 47 165-30 15-445-36-583-72-21-6-40-8-43-6-2 3 10 44 26 92 46 128 42 225-9 225-9 0-21-5-28-12z"/>
    <path d="m545 1739c-212-11-466-38-482-51-19-15-16-56 5-67 12-6 65-5 158 4 76 8 198 17 270 21l131 7 6-39c4-22 10-163 14-314l6-275h-34c-54 0-51-33 7-84 50-44 69-49 99-28 17 13 18 30 11 328-3 173-9 338-12 367l-7 52h90c95 0 113 8 113 47 0 45-47 49-375 32z"/>
    <path d="m291 1480c-74-18-87-75-46-207 15-48 33-95 41-104 11-13 33-15 131-11 65 2 126 9 136 14 33 17 47 71 47 178 0 139-2 140-157 139-65-1-133-5-152-9zm188-76 31-6v-74-74h-82-83l-17 53c-33 104-34 95 14 100 80 7 105 7 137 1z"/>
    <path d="m1280 1321c-5-11-10-72-10-136 0-354-90-682-252-923-54-80-59-115-20-120 47-7 150 130 218 288 15 36 39 105 54 154l27 89 12-48c20-80 95-216 160-289 68-77 190-175 264-213 61-30 120-29 125 3 2 17-20 36-111 97-232 155-325 290-379 551-5 28-11 160-13 293-2 253-6 273-46 273-10 0-23-9-29-19z"/>
    <path d="m705 854c-244-22-588-65-615-78-29-13-34-53-8-69 12-8 82-3 250 16 128 15 269 29 313 32 44 4 90 8 103 11l22 4v-188c0-104-3-230-6-279l-7-91-31 2c-43 2-44-22-4-75 36-47 84-63 106-36 20 23 32 189 32 433v232l23 6c12 3 50 6 85 6 48 0 66 4 82 20 20 20 18 47-4 62-16 11-169 7-341-8z"/>
    <path d="m420 606c-55-14-116-51-130-76-7-13 0-44 26-116 43-117 63-143 96-126 13 6 49 18 80 27 45 12 62 13 76 4 45-28 68 10 98 158 14 73 16 97 6 117-11 25-14 26-109 25-54 0-118-6-143-13zm153-133c-9-38-16-69-17-69 0-1-32-3-69-5l-69-4-19 50c-10 28-19 51-19 52 0 15 100 40 172 42l36 1z"/>
  </g>
</svg>
