<?xml version="1.0"?>
<svg xmlns="http://www.w3.org/2000/svg" height="200pt" preserveAspectRatio="xMidYMid meet" viewBox="0 0 200 200" width="200pt">
  <g transform="matrix(.1 0 0 -.1 0 200)">
    <path d="m853 1748c-12-15 0-1382 11-1409 6-15-11-17-161-21-92-3-169-4-171-3-2 2-7 81-12 176-23 436-20 409-47 426-23 15-26 15-45-4-19-20-20-26-9-219 5-110 12-242 13-294l3-95-50-3c-84-4-218-23-237-33-22-12-24-52-3-69 11-9 37-10 117-1 200 22 517 31 1040 31 346 0 536 4 549 10 28 16 26 68-4 79-12 5-218 6-458 3l-436-5v29c-1 16-4 182-8 369l-8 341 199 12c109 7 238 12 285 12 73 0 89 3 104 20s16 24 6 46l-12 27-187-7c-103-3-232-9-288-12l-101-7-6 287c-4 172-10 294-17 306-12 22-52 27-67 8z"/>
  </g>
</svg>
