<?xml version="1.0"?>
<svg xmlns="http://www.w3.org/2000/svg" height="200pt" preserveAspectRatio="xMidYMid meet" viewBox="0 0 200 200" width="200pt">
  <g transform="matrix(.1 0 0 -.1 0 200)">
    <path d="m1559 1766c-2-2-141-9-309-15-383-15-652-42-885-87-106-21-138-50-99-89 11-10 25-14 38-11 67 20 337 60 471 71 44 4 88 9 98 11 16 5 17-31 17-650v-656h-52c-29 0-103-3-165-7l-111-6-7 69c-10 114-65 473-78 512-22 67-94 52-84-18 3-19 15-93 26-165 20-124 52-398 48-400-1-1-73-12-160-24-204-29-225-36-233-66-8-33 1-55 23-55 10 0 95 12 188 26 282 42 964 53 1453 23 176-11 192-8 192 36 0 12-6 28-14 34-21 18-199 29-586 37l-350 7v302 301l193 22c105 12 219 22 253 22 46 0 65 4 77 18 21 23 21 36 1 56-22 23-112 21-331-6-100-12-184-20-186-18-3 3-7 141-9 306l-4 302 35 6c20 3 87 6 149 6 61 0 203 5 315 11 157 9 206 14 220 27 23 20 22 49-2 62-19 9-123 15-132 6z"/>
  </g>
</svg>
