<?xml version="1.0"?>
<svg xmlns="http://www.w3.org/2000/svg" height="200pt" preserveAspectRatio="xMidYMid meet" viewBox="0 0 200 200" width="200pt">
  <g transform="matrix(.1 0 0 -.1 0 200)">
    <path d="m1080 1861c-13-25-13-95 1-261 9-100 8-134 0-140-13-7-190-31-426-55-175-19-315-42-380-64-42-13-50-20-53-44-5-40 15-43 147-19 118 22 156 27 481 62 102 11 202 23 223 26 36 6 37 6 37-23 0-47 49-332 71-413 32-120 137-375 181-440 52-79 98-115 245-193 153-82 157-83 184-56 20 20 21 26 14 173-4 83-11 156-17 161-22 22-46-33-58-135l-12-100-90 47c-164 88-191 122-292 375-47 116-72 199-90 288-33 167-56 324-48 331 4 3 59 14 122 23 250 36 312 59 284 104-15 23-90 27-157 8-29-8-88-20-132-26s-92-13-106-16c-26-5-27-3-33 43-4 26-11 113-16 191-5 81-14 150-21 158-16 20-47 17-59-5z"/>
    <path d="m1356 1854c-30-29-24-36 136-168 96-80 122-97 145-94 22 2 29 9 31 29 3 23-10 38-85 101-120 102-182 148-198 148-7 0-21-7-29-16z"/>
    <path d="m665 1644c-216-33-325-67-325-103 0-22 34-43 59-37 224 48 292 58 422 65 92 6 155 13 164 21 18 15 19 42 3 58s-207 14-323-4z"/>
    <path d="m664 1175c-3-14-3-41 0-59 4-19 13-143 21-275 7-132 19-249 25-261 9-17 8-21-7-27-10-3-49-18-88-34l-70-27-7 42c-4 22-14 124-23 226-17 184-29 230-60 230-29 0-46-31-40-74 11-83 35-363 35-412v-52l-72-34c-91-44-138-82-138-114 0-39 37-40 101-2 96 58 275 130 568 228 183 61 288 101 295 112 13 22-2 51-29 56-9 2-98-22-197-53s-181-55-184-53c-6 7-27 258-21 264 3 3 57 11 121 19 122 14 149 25 144 58-6 37-29 42-148 29-61-7-115-10-119-8-4 3-11 45-14 93-9 121-21 153-58 153-22 0-30-6-35-25z"/>
  </g>
</svg>
