<?xml version="1.0"?>
<svg xmlns="http://www.w3.org/2000/svg" height="200pt" preserveAspectRatio="xMidYMid meet" viewBox="0 0 200 200" width="200pt">
  <g transform="matrix(.1 0 0 -.1 0 200)">
    <path d="m865 1883c-15-14-16-28-10-87 4-39 10-193 14-342l6-272-139-26c-76-15-142-23-147-19-4 4-13 62-19 128-19 195-41 249-94 229-15-6-21-22-18-54 1-8 9-84 18-169 8-84 12-157 7-161-4-3-44-15-88-24-44-10-115-29-157-43-90-28-111-50-78-83 12-12 29-19 38-16 71 21 289 70 447 100 349 67 425 75 845 92 241 9 399 19 407 26 19 15 16 42-7 63-19 17-37 18-378 6-196-7-398-18-448-25l-92-13-6 45c-3 25-6 93-6 152v108l60 10c33 6 106 16 162 23 112 14 128 20 128 53 0 52-51 57-235 27-60-10-111-18-112-17 0 0-6 60-13 131-14 162-38 206-85 158z"/>
    <path d="m950 1040c-12-12-19-28-16-38 6-19 46-346 46-375 0-15-7-18-32-17-52 3-58 1-58-19 0-37 104-90 153-77 16 4 29 15 32 29 7 25-42 438-56 474-4 12-17 27-28 33-17 8-25 6-41-10z"/>
    <path d="m1332 891c-8-4-12-20-10-36 3-26 15-34 158-97 211-94 270-118 290-118 26 0 43 26 36 54-5 19-29 34-128 76-317 137-320 138-346 121z"/>
    <path d="m612 748c-38-51-92-120-121-153-61-70-67-108-17-113 24-3 38 6 85 55 74 79 181 230 181 257 0 12-5 27-12 34-26 26-49 11-116-80z"/>
    <path d="m1313 551c-175-175-428-360-491-361-21 0-206-72-221-86-12-11-12-16-1-28 19-24 83-19 210 16 99 27 128 40 210 96 127 86 216 158 329 267 107 103 148 163 132 193-22 42-38 33-168-97z"/>
  </g>
</svg>
