<?xml version="1.0"?>
<svg xmlns="http://www.w3.org/2000/svg" height="200pt" preserveAspectRatio="xMidYMid meet" viewBox="0 0 200 200" width="200pt">
  <g transform="matrix(.1 0 0 -.1 0 200)">
    <path d="m886 1924c-14-13-16-60-16-358v-343l-81-7c-44-4-100-9-125-13l-44-6v159c0 128-3 164-16 182-18 27-36 28-57 4-14-15-17-48-19-187l-3-170-165-23c-168-24-200-36-200-73 0-31 33-41 102-29 365 57 918 99 1323 100 94 0 175 4 181 8 22 15 24 42 2 64-21 21-23 21-352 15-182-4-359-10-393-13l-63-7v157 156l78 1c105 1 182 13 193 30 13 21 11 36-8 54-14 15-32 16-140 10l-123-7v140c0 114-3 143-16 156-8 9-22 16-29 16s-21-7-29-16z"/>
    <path d="m1268 1041c-48-42-150-187-146-208 6-32 34-25 88 24 57 51 150 158 150 173 0 14-30 40-45 40-8 0-29-13-47-29z"/>
    <path d="m942 1048c-8-8-12-62-12-175v-163h-31c-49 0-241-30-261-41-21-11-24-52-4-68 10-9 37-8 107 4 52 8 105 15 118 15 24 0 24 0 5-21-34-38-177-126-289-177-114-53-133-68-122-96 21-53 258 37 415 158l72 56v-113c0-120 6-137 47-137 35 0 43 29 43 159v120l73-55c147-111 338-184 410-155 16 6 27 18 27 30 0 25-6 29-77 47-81 21-247 103-317 158l-59 46h135c117 0 139 3 158 18 18 14 21 25 17 44-4 14-12 28-19 30s-89 1-183-3c-93-3-171-5-172-5-1 1-5 69-9 151-4 83-11 158-16 168-10 20-39 22-56 5z"/>
    <path d="m1691 1008c-16-40-41-416-41-597v-174l-132 6c-73 3-227 11-343 17-154 9-291 10-515 2-196-6-307-6-311 0-3 5-9 102-12 216-6 208-28 394-49 419-6 8-20 13-31 11-37-6-42-30-28-140 7-57 17-210 21-341 6-189 11-242 22-254 13-12 58-13 344-3 241 8 383 8 529 0 311-17 520-23 548-16 39 9 47 51 47 245 0 97 7 268 16 380 18 224 15 251-31 251-17 0-28-7-34-22z"/>
    <path d="m610 985c-19-23-4-60 37-87 153-100 228-121 221-60-3 28-11 34-158 125-67 41-82 44-100 22z"/>
  </g>
</svg>
