<?xml version="1.0"?>
<svg xmlns="http://www.w3.org/2000/svg" height="200pt" preserveAspectRatio="xMidYMid meet" viewBox="0 0 200 200" width="200pt">
  <g transform="matrix(.1 0 0 -.1 0 200)">
    <path d="m1295 1794c-16-1-145-8-285-14-413-18-644-30-661-35-36-11-42-46-28-158 10-86 10-148 1-318-24-413-70-680-153-888-53-132-57-164-22-169 60-9 157 220 203 483 58 330 81 806 45 946l-7 27 179 6c98 4 266 11 373 16 107 6 296 13 420 16 124 4 231 11 238 17 17 13 15 42-4 61-13 13-39 16-142 14-70 0-140-2-157-4z"/>
    <path d="m716 1624c-12-11-16-35-16-88v-72l-85-12c-100-13-139-29-143-58-6-39 22-49 99-36 84 15 99 15 99 2 0-28-47-127-105-220-67-107-78-143-48-154 27-11 63 23 123 112l55 82 5-97c3-54 9-104 13-110 5-7 19-13 32-13s27 6 32 13c4 6 10 83 13 170l5 159 39-32c48-38 80-37 84 3 4 32-8 49-60 87l-38 27 38 7c20 3 58 6 83 6 31 0 55 6 70 19 21 17 22 21 11 46l-13 28-101-7c-56-4-106-8-112-9-7-1-13 27-16 71-3 50-10 76-20 82-21 13-26 12-44-6z"/>
    <path d="m1272 1628c-7-7-12-39-12-74v-61l-81-7c-59-6-86-13-100-27-23-23-24-33-3-54 16-16 74-15 152 1l24 5-29-53c-15-29-72-98-125-154-97-100-117-137-83-150 33-13 73 11 157 95l88 88v-128c0-118 2-129 20-139 31-17 56 3 62 48 3 22 3 90 0 153l-5 114 74-66c135-119 196-159 243-159 14 0 28 5 31 10 14 22-10 51-98 118-101 78-237 205-237 221 0 7 34 11 94 11 114 0 126 4 126 40 0 40-48 55-152 47l-78-6v57c0 59-11 82-40 82-9 0-21-5-28-12z"/>
    <path d="m970 920c-20-20-21-28-16-128 3-59 8-191 12-293l6-186-103-7c-56-4-114-10-130-13l-27-5-7 118c-4 66-11 129-16 142-12 31-36 38-60 16-20-18-21-26-14-129 3-60 9-119 11-131 5-19-1-21-132-32-75-6-143-17-150-23-24-19-17-58 10-65 26-6 288 10 436 27 143 16 670 23 832 10 80-6 153-8 162-5 21 8 30 42 16 59-25 30-90 36-412 42l-328 6v86c0 47-3 103-6 124l-7 37h125c128 0 148 6 148 41 0 37-38 49-156 49h-111l-9 126c-8 114-11 128-31 141-19 13-24 12-43-7z"/>
  </g>
</svg>
