<?xml version="1.0"?>
<svg xmlns="http://www.w3.org/2000/svg" height="200pt" preserveAspectRatio="xMidYMid meet" viewBox="0 0 200 200" width="200pt">
  <g transform="matrix(.1 0 0 -.1 0 200)">
    <path d="m1075 1623c-241-7-480-26-675-54-118-17-223-35-233-40-21-12-22-52-1-70 13-11 41-9 167 9 84 12 162 22 174 22h21l-19-52c-11-29-44-102-74-163-49-102-60-116-144-193-89-82-109-116-76-128 22-9 70 14 126 58 43 34 48 36 54 19 7-24 75-86 188-173l87-68-26-42c-65-105-174-223-281-306-29-22-101-65-161-96-116-59-136-74-126-99 9-25 44-27 108-6 184 61 394 238 530 447 126 193 276 516 276 596 0 57-14 61-158 47-70-7-161-18-202-25-41-8-77-12-78-10-2 1 14 49 36 106l40 103 73 6c41 4 135 10 209 13l136 7-4-160c-4-164 8-401 33-621 34-301 65-400 140-452 68-47 136-58 411-65l251-6 23 23c21 21 22 27 15 134-9 151-16 180-42 184-27 4-31-8-39-137l-7-111-106 1c-218 1-373 14-423 36-76 34-99 102-133 401-19 165-19 212-2 212 25-1 546 265 550 281 7 26-12 49-41 49-35 0-274-118-416-204-60-37-111-64-113-62-8 7-23 356-18 394 3 17 7 48 10 67l6 35 267 2 267 3 3 32c2 23-2 34-15 41-18 9-425 20-588 15zm-185-379c0-14-77-189-122-277-34-67-54-95-62-89-6 5-51 39-101 77-49 37-103 80-120 95-16 15-36 29-42 31-8 3 0 23 24 60l37 56 105 17c88 14 159 23 269 35 6 0 12-2 12-5z"/>
  </g>
</svg>
