<?xml version="1.0"?>
<svg xmlns="http://www.w3.org/2000/svg" height="200pt" preserveAspectRatio="xMidYMid meet" viewBox="0 0 200 200" width="200pt">
  <g transform="matrix(.1 0 0 -.1 0 200)">
    <path d="m1530 1946c-24-30-7-60 65-108 103-69 156-75 141-14-4 18-32 43-89 81-88 59-98 63-117 41z"/>
    <path d="m1272 1888c-8-8-12-56-12-149 0-159 17-140-145-160-110-13-125-20-125-55 0-41 29-47 146-30 57 9 109 16 114 16 6 0 10-42 10-99v-98l-62-12c-73-15-108-34-108-60 0-38 25-45 100-29l70 15v-86c0-47 3-102 6-122l6-36-83-16c-151-30-310-79-338-103-21-19-24-26-15-41 16-25 45-22 224 24 219 57 219 57 225 30 30-140 69-285 90-332l25-59-32-34c-95-99-333-265-406-284-49-12-64-34-37-54 62-46 243 43 440 216 44 38 82 70 85 70s16-19 29-42c37-66 98-125 193-189 49-32 94-59 99-59 25 0 58 50 69 106 7 32 30 113 52 178 35 106 38 121 24 134-13 13-18 13-31 2-23-19-79-133-105-211-11-35-23-70-25-77-12-33-147 81-200 169l-37 59 91 103c77 86 91 107 89 132-2 24-8 31-30 33-20 2-35-6-65-39-98-109-126-139-133-139-19 0-108 337-92 351 4 3 104 19 222 33 118 15 221 32 227 38 19 15 16 56-5 67-12 6-87 0-236-20-120-16-222-27-225-23-3 3-7 58-9 123l-4 117 94 17c52 9 108 17 125 17 43 0 78 30 69 58-11 32-47 37-160 18-55-9-107-16-113-16-10 0-13 25-13 94v93l88 12c49 6 103 11 121 11 45 0 71 16 71 44 0 45-20 50-147 37-64-7-122-15-129-18-11-4-14 20-14 129 0 137-5 158-40 158-9 0-21-5-28-12z"/>
    <path d="m580 1575c-68-11-290-58-427-90-51-12-49-85 2-85 13 0 68 9 120 21 53 12 99 18 102 15 9-9-25-150-53-220-13-33-53-105-89-161-65-103-75-131-53-153 19-19 35-14 73 25 23 24 35 31 35 20 0-8 33-39 73-68 178-129 247-182 247-191 0-5-22-41-49-81-58-87-212-236-309-301-40-26-74-52-78-57-10-17 17-39 48-39 65 0 129 42 272 180 154 148 249 315 286 500 22 115 39 275 32 303-7 27-39 30-217 17-92-7-169-10-171-7-3 3 2 31 12 63 9 32 22 90 28 128l12 71 64 11c35 7 111 15 169 19s114 11 124 16c23 13 22 56-2 69-26 13-146 11-251-5zm140-467c0-77-51-328-67-328-3 0-69 46-146 101-77 56-153 107-168 113l-27 11 31 52 31 51 130 9c219 16 216 16 216-9z"/>
  </g>
</svg>
