<?xml version="1.0"?>
<svg xmlns="http://www.w3.org/2000/svg" height="200pt" preserveAspectRatio="xMidYMid meet" viewBox="0 0 200 200" width="200pt">
  <g transform="matrix(.1 0 0 -.1 0 200)">
    <path d="m533 1858c-6-7-20-35-33-62-22-47-109-142-199-218l-44-38 6-92c21-322 26-439 31-658l5-245-77-33c-113-47-142-67-142-97 0-42 35-41 135 4l90 40 5-158c5-158 13-191 45-191 35 0 40 30 37 206l-4 174 29 11c15 6 84 25 153 41 139 33 149 37 164 61 8 13 6 22-10 38l-22 21-98-22c-55-13-123-31-153-41-30-11-57-16-60-13s-6 60-6 127v122l140 30c77 17 146 34 153 38 15 10 16 53 0 63-19 12-69 6-183-21-59-14-110-23-113-21-2 3-7 54-10 114l-5 110 72 16c39 9 106 22 149 28 89 13 104 22 100 57-3 26-4 26-83 24-44 0-116-10-160-21l-80-19-14 136-13 136 23 15c38 24 129 111 170 162 70 89 89 188 35 188-13 0-28-6-33-12z"/>
    <path d="m1335 1774c-11-1-89-11-174-20-190-22-199-27-181-104 28-118-21-390-99-543-22-43-37-85-34-92 8-23 42-28 68-11 76 50 175 432 156 599-4 31-5 57-2 57 4 0 53 7 111 15s143 15 189 15h83l-6-42c-39-260-46-415-22-471 16-39 61-82 99-96 42-16 259-14 282 2 23 18 17 87-15 170-38 101-72 87-63-25l6-68h-96c-92 0-96 1-117 28-21 25-22 35-17 157 2 72 15 191 27 266 13 75 20 144 17 153-5 13-22 16-99 15-51-1-102-3-113-5z"/>
    <path d="m1360 964c-187-23-361-57-376-72-9-9-12-22-8-36 12-39 108-169 186-251l77-82-37-35c-90-87-289-212-370-232-35-9-48-17-50-33-2-15 4-24 20-29 37-11 101-7 142 10 56 23 221 134 299 200l67 58 48-40c109-90 225-161 348-211 145-60 197-65 202-20 4 33-4 38-113 78-49 19-120 48-156 67-79 39-272 181-264 194 3 5 37 51 76 102 75 99 159 257 159 299 0 14-5 30-12 37-15 15-101 14-238-4zm140-80c0-30-179-294-200-294-11 0-148 148-188 203l-32 45 93 16c179 31 327 45 327 30z"/>
  </g>
</svg>
