<?xml version="1.0"?>
<svg xmlns="http://www.w3.org/2000/svg" height="200pt" preserveAspectRatio="xMidYMid meet" viewBox="0 0 200 200" width="200pt">
  <g transform="matrix(.1 0 0 -.1 0 200)">
    <path d="m744 1922c-6-4-29-34-51-67s-70-91-105-130l-65-70-54 46c-85 72-104 82-128 69-41-21-26-54 50-117l71-58-94-89c-51-49-131-121-178-160-95-80-108-109-52-114 47-5 111 39 266 184l131 122 83-65c63-48 90-63 110-61 22 2 28 9 30 34 3 28-4 36-78 93l-80 62 67 77c70 81 143 186 143 208 0 16-28 44-43 44-7 0-17-4-23-8z"/>
    <path d="m1280 1688c-80-4-154-12-166-17-19-9-22-20-27-138-7-153-31-257-87-366-21-42-37-84-34-92 9-23 43-28 69-11 57 37 128 252 141 429l7 95 56 6c31 3 113 8 183 12l127 6-44-68c-51-77-79-156-96-263-17-112-9-169 30-203l31-28h168c190 0 212 6 212 63 0 47-37 179-52 188-27 17-42-18-42-91l1-70h-127c-103 0-129 3-134 15-3 8-1 52 4 98 15 130 42 194 134 316 31 41 56 80 56 86 0 7-8 19-18 28-21 19-134 21-392 5z"/>
    <path d="m506 1334c-13-12-16-38-16-118v-103l-67-7c-38-4-122-16-188-27-93-15-124-24-137-40-19-22-12-52 14-61 7-3 78 5 158 18 148 23 200 28 200 18 0-3-16-68-35-146-46-183-118-324-261-519-67-90-74-108-49-129 22-18 66 3 102 48 57 72 135 195 194 305l59 112v-271c0-287 2-301 47-292 37 7 43 44 44 293 1 132 4 302 8 378l6 139 90-102c80-91 92-101 120-98 25 2 31 8 33 31 3 23-9 41-67 102-38 42-88 97-110 124l-41 49 62 6c35 3 101 9 147 14 69 6 86 11 98 28 12 19 11 24-5 44l-19 23-139-11c-77-7-148-12-157-12-15 0-17 12-17 88 0 115-29 161-74 116z"/>
    <path d="m1230 925c-58-8-128-14-157-14-33-1-57-7-67-17-22-21-20-73 5-146 34-103 85-180 194-297l50-53-45-40c-50-44-203-123-265-136-33-7-40-12-40-32 0-17 9-29 28-38 59-29 240 47 347 145l57 53 134-64c186-89 324-127 404-112 25 5 35 12 35 25 0 25-16 37-70 51-145 40-217 66-322 117l-117 56 30 44c41 60 85 156 104 228 18 71 20 216 3 233-16 16-169 14-308-3zm230-117c0-85-47-212-110-297l-32-43-30 28c-108 104-241 322-196 325 7 0 60 6 118 14 58 7 138 13 178 14l72 1z"/>
  </g>
</svg>
