<?xml version="1.0"?>
<svg xmlns="http://www.w3.org/2000/svg" height="200pt" preserveAspectRatio="xMidYMid meet" viewBox="0 0 200 200" width="200pt">
  <g transform="matrix(.1 0 0 -.1 0 200)">
    <path d="m855 1838c-44-5-142-15-218-23-78-7-145-19-153-26-26-21-32-50-44-186-11-133-40-407-43-410-1-1-68-16-147-33-173-38-209-61-161-104 18-16 26-15 150 10 72 15 134 24 138 21 3-4 1-71-5-149-7-79-15-226-18-328-6-178-6-186 14-203 18-17 28-18 94-8 194 29 462 38 658 21 173-15 183-17 176-43-3-12-13-60-23-107-9-47-18-86-18-88-1-1-23 6-48 15-44 16-48 16-64 0-16-15-15-18 3-38 33-38 106-79 140-79 39 0 50 13 58 70 14 89 48 230 56 230 25 0 159-33 262-64 65-20 129-36 143-36 31 0 50 32 35 60-12 22-132 63-315 107-60 15-111 27-112 28-2 1 4 38 13 82 8 45 30 183 48 307s35 229 39 232c6 6 207-21 311-42 61-13 72-13 92 1 30 20 31 50 2 69-21 13-204 46-341 62l-57 7 5 31c30 173 47 562 27 594-5 7-24 17-43 22-42 12-543 11-654-2zm612-240c-5-141-29-374-40-384-2-2-66 1-143 7-149 12-637 6-734-10-30-5-57-7-59-5-1 1 2 40 8 86s16 157 21 248c6 91 15 169 19 173s86 15 182 23 183 16 194 18 141 4 289 5l269 1zm-199-468c73-5 136-11 141-14 11-7-77-608-92-622-2-2-37 1-78 6-190 25-573 22-762-6l-39-6 8 173c4 96 12 234 18 308l11 135 34 9c87 22 537 32 759 17z"/>
    <path d="m860 1566c-22-27-5-52 77-119 119-95 128-101 152-87 49 26 20 70-112 169-71 53-96 61-117 37z"/>
    <path d="m797 923c-23-23-1-57 100-157 105-104 127-118 151-94 23 23 11 55-42 114-95 105-184 163-209 137z"/>
  </g>
</svg>
