<?xml version="1.0"?>
<svg xmlns="http://www.w3.org/2000/svg" height="200pt" preserveAspectRatio="xMidYMid meet" viewBox="0 0 200 200" width="200pt">
  <g transform="matrix(.1 0 0 -.1 0 200)">
    <path d="m530 1741c-5-11-10-40-10-65 0-86-85-313-179-481-55-99-64-140-30-150 14-5 28 0 45 16 30 28 103 152 137 234l25 60 108 22c192 39 465 82 615 97 161 16 189 24 189 61 0 41-24 45-186 29-126-12-521-75-647-104-37-8-39-7-33 13 60 205 60 287 1 287-14 0-29-8-35-19z"/>
    <path d="m1070 1269c-204-25-358-52-397-71-40-20-42-24-57-92-9-39-19-88-23-109-3-20-9-40-13-42-4-3-78-25-165-50-206-59-245-76-245-109 0-44 27-48 126-16 49 15 130 39 180 53l90 25v-115c-1-142 1-144 101-120 135 32 321 58 462 64l144 6-7-38c-16-81-59-215-102-311l-45-100h-47c-40 1-47-2-50-20-3-23 19-41 85-67 39-15 43-15 61 1 43 38 153 312 183 459l13 62 45-6c61-7 182-29 253-44 65-15 88-5 88 38 0 18-8 28-33 38-39 16-235 55-280 55-54 0-56 5-44 104l11 89 156-7c85-4 186-12 223-18 59-10 70-9 84 5 27 27 9 65-36 77-46 12-248 30-347 30h-72l-4 101c-5 136-10 139-157 138-58-1-140-6-181-10zm250-153v-74l-107-6c-60-4-127-9-150-13l-43-5v80 81l53 4c28 2 96 4 150 5l97 2zm-390-31c0-53-4-75-12-75-7 0-62-9-123-20-60-10-111-17-113-15-7 7 21 146 30 152 12 6 153 31 191 32l27 1zm376-187c-4-29-9-68-12-85l-6-33h-112c-61 0-121-3-133-6-22-6-23-4-23 74v81l53 5c63 7 126 12 191 14l49 2zm-376-56v-78l-140-25-140-25 1 51c1 27 4 63 8 80 7 32 11 34 161 60 119 21 110 26 110-63z"/>
  </g>
</svg>
