<?xml version="1.0"?>
<svg xmlns="http://www.w3.org/2000/svg" height="200pt" preserveAspectRatio="xMidYMid meet" viewBox="0 0 200 200" width="200pt">
  <g transform="matrix(.1 0 0 -.1 0 200)">
    <path d="m872 1937c-6-7-12-42-14-77l-3-65-55-8c-111-16-265-48-277-59-18-14-16-43 2-58 14-12 112 0 308 36 27 6 27 5 27-49v-55l-69-12c-75-13-94-26-89-62 3-22 6-23 86-20l83 3-3-58-3-58-90-7c-226-17-608-82-640-108-19-16-19-44 0-60 12-10 42-7 152 14 189 35 244 43 423 60 222 21 577 37 891 38 277 2 299 5 299 41-1 34-20 42-112 48-91 5-584-5-745-16l-83-5v64 64l88 7c100 7 116 13 120 45 6 41-20 50-124 43l-94-6v50 50l46 7c26 3 112 6 191 6 80 0 153 5 164 10 11 6 19 21 19 35 0 44-27 49-231 42l-187-7-6 23c-3 12-6 38-6 58 0 52-40 80-68 46z"/>
    <path d="m805 1184c-83-7-174-26-185-39-6-8-14-56-16-107-7-138-14-161-49-169-17-4-100-12-186-18-176-12-232-25-237-57-6-41 18-47 140-36 239 23 288 25 288 10 0-7-13-60-30-118-16-58-30-114-30-126 0-39 28-51 140-57 101-6 250-35 392-78l68-20-14-27c-8-15-34-56-58-92l-44-65-44 3c-25 2-63 7-85 12-30 7-43 6-54-5-18-17-3-38 42-62 42-21 148-49 170-45 15 3 96 117 162 227 10 16 21 12 120-38 61-30 141-78 179-106 39-29 76-50 84-49 8 2 21 13 29 24 12 19 11 25-13 53-37 45-126 103-245 161-57 28-104 52-106 54-3 2 9 42 25 87 16 46 37 119 47 161l18 77 71-6c79-5 190-23 314-50 61-13 87-15 100-7 19 13 26 43 14 62-15 22-295 81-388 82-23 0-54 3-70 6l-29 5 3 159c2 103-1 166-8 179-10 20-18 21-243 19-128-1-250-3-272-4zm435-204c0-108-3-132-15-137-9-3-75 0-147 7l-130 13 6 45c3 25 6 78 6 118 0 86-11 81 163 83l117 1zm-366 18c-3-57-7-109-10-115-2-9-31-13-97-13h-94l8 48c4 26 8 75 8 109l1 62 38 4c20 2 63 4 94 5l57 2zm-28-270c-4-29-14-84-23-122l-15-68-37 6c-20 3-67 9-104 12-63 7-68 9-63 28 3 12 16 60 27 109l22 87h100 100zm252 30c67-6 122-16 122-21 0-27-71-265-85-284-1-2-21 4-46 12-24 8-78 23-119 33-51 13-74 23-73 33 1 8 12 65 24 127 18 84 27 112 39 112 8 0 70-5 138-12z"/>
  </g>
</svg>
