<?xml version="1.0"?>
<svg xmlns="http://www.w3.org/2000/svg" height="200pt" preserveAspectRatio="xMidYMid meet" viewBox="0 0 200 200" width="200pt">
  <g transform="matrix(.1 0 0 -.1 0 200)">
    <path d="m1146 1678c-29-45-46-170-71-513-8-116-19-244-25-285-25-171-7-466 31-529 34-56 88-74 234-79 136-4 410 26 465 52 33 15 36 63 16 271-9 88-17 186-19 218-4 69-19 89-45 64-15-16-17-42-16-247v-229l-25-5c-109-22-280-38-377-34-149 6-156 10-172 120-16 112-15 266 3 434 8 77 16 161 17 187l3 48 51 18c28 9 104 50 170 91 65 41 174 104 243 140 68 36 129 73 135 83 14 22-3 51-32 55-28 4-205-86-396-202-88-53-161-94-164-92-7 8 18 276 32 346 15 74 8 110-24 110-11 0-26-10-34-22z"/>
    <path d="m252 1568c-26-33-52-523-52-1010 0-373-16-355 205-229 282 160 455 277 455 307 0 42-113-2-328-129-59-35-137-80-174-101l-68-37v263c0 145 3 314 7 375l6 113 106 59c58 33 164 88 234 122 71 34 131 69 134 77 11 26-12 47-50 46-36-1-218-84-354-162-85-48-78-65-62 144 10 114 9 147-1 159-15 18-44 20-58 3z"/>
  </g>
</svg>
