<?xml version="1.0"?>
<svg xmlns="http://www.w3.org/2000/svg" height="200pt" preserveAspectRatio="xMidYMid meet" viewBox="0 0 200 200" width="200pt">
  <g transform="matrix(.1 0 0 -.1 0 200)">
    <path d="m1095 1889c-87-75-228-170-360-239-55-29-112-62-127-72-31-21-37-55-12-65 24-9 115 23 210 73l84 44v-57c0-32-3-94-6-138l-7-81-131-27c-176-36-204-45-216-67-12-23-4-47 19-55 10-3 53 4 97 14 92 23 223 46 229 40 6-7-7-307-15-319-4-7-68-23-141-36-156-27-514-102-547-115-24-9-29-38-10-57s68-14 236 23c161 36 452 88 458 82 2-2 6-79 9-173 10-268 27-345 92-406 37-35 145-85 211-98 29-5 185-10 346-11 267-2 297-1 321 15 26 17 27 21 20 75-4 31-9 107-11 170s-7 118-12 123c-30 30-62-87-62-221v-73l-297 4c-278 4-302 6-353 26-73 29-127 74-141 120-6 21-14 132-16 252l-5 215 233 33c129 18 306 39 393 47 196 19 297 34 314 47 19 16 14 46-11 62-19 13-34 13-117 1-52-7-151-18-220-25-127-11-539-66-574-77-19-5-19 0-13 163 5 104 11 170 18 175 14 8 181 28 309 36 109 7 130 14 130 48 0 51-62 54-334 19-61-8-112-14-114-14s0 60 3 134c5 85 4 140-3 151-8 16 4 29 87 91 99 74 171 144 171 167 0 19-21 37-44 37-12 0-52-27-91-61z"/>
  </g>
</svg>
