<?xml version="1.0"?>
<svg xmlns="http://www.w3.org/2000/svg" height="200pt" preserveAspectRatio="xMidYMid meet" viewBox="0 0 200 200" width="200pt">
  <g transform="matrix(.1 0 0 -.1 0 200)">
    <path d="m971 1805c-166-135-364-250-520-301-56-18-75-49-52-86 18-29 33-214 26-318-8-120-23-196-75-390-79-297-118-407-171-476-57-76-65-97-44-118 27-27 50-19 152 50 182 123 390 315 377 348-3 9-14 16-24 16s-82-49-161-109c-79-61-145-108-147-106s12 52 31 112c34 106 119 431 131 505 6 34 9 36 25 26 15-9 49-4 172 30 84 23 154 40 156 38s15-45 28-95c27-102 58-178 131-324 58-117 114-191 192-252 65-52 240-145 272-145 13 0 82 59 196 167 148 141 175 171 172 192-2 14-10 27-19 29-20 4-117-70-251-192l-107-96-88 42c-129 63-211 147-287 295-83 165-161 381-143 399 3 3 99 23 213 45 226 43 257 56 235 98-16 29-49 27-278-18l-191-37-7 40c-3 23-17 129-31 236l-24 195 32 25c132 102 228 183 228 191 0 6-5 19-10 30-19 34-55 22-139-46zm-166-445c10-85 20-175 24-200l6-45-155-42c-85-24-158-43-161-43-4 0-9 78-12 173-3 94-9 183-12 197-6 25-2 28 77 58 46 18 110 47 143 65 73 40 68 50 90-163z"/>
  </g>
</svg>
