<?xml version="1.0"?>
<svg xmlns="http://www.w3.org/2000/svg" height="200pt" preserveAspectRatio="xMidYMid meet" viewBox="0 0 200 200" width="200pt">
  <g transform="matrix(.1 0 0 -.1 0 200)">
    <path d="m1025 1773c-33-2-159-13-280-25-121-11-246-22-278-23-38-1-62-6-68-16-6-8-7-60-3-129 6-116-5-332-31-625-8-88-17-200-20-250-8-115-44-446-50-456-3-4-1-19 5-33 7-20 16-26 39-26 24 0 37 11 79 68 62 83 90 131 102 172 21 72-24 82-70 14-18-25-34-43-36-41-3 3 0 53 6 113s14 145 18 189l7 80 150 17c83 9 185 18 228 20l78 3 23-70c36-112 63-155 155-244 174-168 475-332 555-302 44 17 176 204 176 250 0 41-35 21-120-71l-86-92-65 23c-102 37-262 138-366 231-77 70-100 98-128 155-19 39-36 86-37 105l-3 35 65 6c36 4 145 10 243 14 177 8 179 8 190 33 10 21 8 27-13 45-23 18-34 19-175 13-82-3-192-11-244-16-52-6-95-9-97-8-7 7-24 207-24 281v84l83 7c45 3 141 9 212 12 72 4 138 11 148 16 37 19 49 76 55 249 6 213 19 200-203 197-88-1-187-3-220-5zm332-214c-3-72-9-134-12-137-4-4-57-10-118-13-240-14-576-40-657-52l-86-12-1 142c0 123 2 143 16 147 20 7 440 45 536 49 39 2 128 4 199 5l129 2zm-497-356c0-49 5-130 10-182 6-52 9-96 7-97-5-5-421-52-425-49-2 2 1 58 7 123 6 66 11 147 11 180 0 35 5 64 13 70 13 11 230 39 320 41l57 1z"/>
  </g>
</svg>
