<?xml version="1.0"?>
<svg xmlns="http://www.w3.org/2000/svg" height="200pt" preserveAspectRatio="xMidYMid meet" viewBox="0 0 200 200" width="200pt">
  <g transform="matrix(.1 0 0 -.1 0 200)">
    <path d="m543 1918c-6-7-13-32-17-56-9-59-60-155-151-287-81-117-90-148-44-153 31-4 65 29 142 138l53 75 184 27c238 35 469 58 585 58 57 0 95 4 103 12 19 19 14 56-10 69-41 22-406-7-712-56-49-8-91-13-93-11s1 16 7 32c20 50 28 117 19 141-9 25-50 32-66 11z"/>
    <path d="m915 1474c-229-34-263-42-275-65-15-26 4-59 34-59 13 0 46 4 74 10 112 21 336 50 387 50 89 0 128 26 105 71-9 16-21 19-88 18-42 0-149-12-237-25z"/>
    <path d="m1450 1209c-41-4-156-15-255-24-99-8-350-40-558-70-209-30-385-55-392-55s-23-8-35-18c-26-21-21-57 9-67 10-3 193 19 407 50 214 30 468 62 564 70 96 9 216 19 265 24 50 4 91 7 93 6 1-1-2-44-8-96-13-123-13-360 0-474 13-109 53-230 103-307 44-70 77-83 111-47 32 34 79 145 71 169-11 34-43 23-77-25l-32-46-19 37c-36 70-56 145-68 252-15 141-6 444 17 530 15 60 15 64-2 83-19 21-59 23-194 8z"/>
    <path d="m1143 958c-4-7-17-33-29-58-29-62-163-260-180-267-14-5-81 44-219 158-66 55-98 68-120 49-26-22-18-56 23-86 20-15 64-51 97-79s81-68 108-87l47-36-72-67c-60-56-98-79-232-144-89-43-192-91-231-106-86-33-104-48-85-69 29-36 122-15 313 70 145 64 229 116 311 194l72 69 74-46c41-24 99-63 128-86 140-110 138-109 166-81 25 25 19 43-31 91-46 42-235 175-263 185-9 3 14 45 70 129 112 168 140 235 108 267-16 16-45 15-55 0z"/>
  </g>
</svg>
