<?xml version="1.0"?>
<svg xmlns="http://www.w3.org/2000/svg" height="200pt" preserveAspectRatio="xMidYMid meet" viewBox="0 0 200 200" width="200pt">
  <g transform="matrix(.1 0 0 -.1 0 200)">
    <path d="m919 1899c-7-15-9-52-5-113 4-50 11-264 16-476 9-340 48-957 66-1042 4-16 2-28-3-28-15 0-83 47-120 82-38 37-63 32-63-13 0-41 84-124 168-163 54-26 65-28 88-17l27 12-6 97c-3 53-15 205-26 337s-23 312-26 400-8 178-10 200c-4 32 11 7 74-121 263-539 480-803 719-875 37-11 45-10 53 2 5 8 9 17 9 21s-61 53-135 108c-175 131-271 247-422 510-64 111-196 371-191 374 2 2 19 9 38 16 97 39 285 216 381 358 53 80 61 115 29 132-28 15-43 4-88-65-81-124-206-249-334-336-49-33-61-38-78-29-12 6-30 8-40 5-19-6-20-1-20 177 0 198-17 435-33 456-15 19-55 14-68-9z"/>
    <path d="m755 1383c-22-2-137-15-255-28-190-22-217-27-232-46-13-16-15-26-8-40 13-23 6-23 231 1 101 11 210 22 241 25l56 6-14-63c-24-101-79-228-174-398-142-254-245-394-350-474-79-60-62-105 26-71 99 38 230 194 370 442 141 249 211 421 230 563 5 41 3 54-11 70-18 20-27 21-110 13z"/>
  </g>
</svg>
