<?xml version="1.0"?>
<svg xmlns="http://www.w3.org/2000/svg" height="200pt" preserveAspectRatio="xMidYMid meet" viewBox="0 0 200 200" width="200pt">
  <g transform="matrix(.1 0 0 -.1 0 200)">
    <path d="m950 1820c-8-15-8-58 0-158 7-75 10-215 9-312-1-96 1-376 5-622 4-247 3-448-1-448s-42 21-83 45c-41 25-77 45-81 45s-12-7-19-15c-22-27 18-75 119-142 52-35 103-63 113-63 9 0 25 11 33 24 14 21 15 78 13 454-2 237 0 428 3 424s40-52 82-108c125-167 203-238 437-395 222-150 338-198 348-146 5 26-21 51-97 94-103 57-349 225-426 290-64 54-174 175-196 214-7 13 0 23 31 43 71 47 276 317 365 480 47 86 51 118 19 130-29 11-53-14-116-119-107-181-329-453-361-442-7 2-21 21-33 43-15 28-28 40-47 42l-27 3v245c0 237-11 376-32 402-16 19-46 14-58-8z"/>
    <path d="m512 1588c-19-19-14-53 11-79 68-71 160-149 175-149 10 0 23 5 30 12 28 28 12 55-82 142-94 86-112 96-134 74z"/>
    <path d="m655 1249c-223-24-331-41-344-54-18-18-7-62 18-70 16-5 174 10 324 30l38 5-75-147c-104-206-182-320-298-438-69-69-98-106-96-120 4-25 39-31 79-15 46 20 185 173 260 287 82 127 242 444 242 481 0 27-27 53-52 51-9-1-52-6-96-10z"/>
  </g>
</svg>
