<?xml version="1.0"?>
<svg xmlns="http://www.w3.org/2000/svg" height="200pt" preserveAspectRatio="xMidYMid meet" viewBox="0 0 200 200" width="200pt">
  <g transform="matrix(.1 0 0 -.1 0 200)">
    <path d="m747 1873c-27-26 18-114 129-255 79-101 95-113 123-98 34 18 25 53-33 126-30 38-80 106-110 152-43 63-61 82-79 82-13 0-27-3-30-7z"/>
    <path d="m1543 1494c-6-3-42-54-79-115-64-102-207-295-258-347l-23-24-21 36c-31 53-82 44-82-14 0-32 139-251 245-386 44-56 105-134 135-174 73-96 234-249 302-289 61-34 98-39 122-16 23 23 10 41-56 81-79 48-225 188-306 294-36 47-98 126-137 175-40 50-91 119-114 154l-43 63 45 47c104 106 327 431 327 475 0 15-27 47-38 45-4 0-12-3-19-5z"/>
    <path d="m805 1336c-249-43-295-58-295-96 0-40 25-44 118-22 48 11 134 28 192 37 58 8 117 18 133 21l27 6v-551-551l-52 26c-115 58-220 81-231 49-10-25 26-54 123-96 52-22 112-54 134-70 48-35 80-37 101-5 14 21 15 96 13 636l-3 612-24 19c-28 23-6 24-236-15z"/>
    <path d="m637 960c-279-34-319-45-303-85 10-28 46-31 169-14 67 9 155 20 196 23l74 8-64-74c-111-127-302-311-385-370-44-31-114-74-155-94-82-40-93-52-76-72 16-20 106-8 171 23 122 59 371 286 574 527 128 151 106 165-201 128z"/>
  </g>
</svg>
