<?xml version="1.0"?>
<svg xmlns="http://www.w3.org/2000/svg" height="200pt" preserveAspectRatio="xMidYMid meet" viewBox="0 0 200 200" width="200pt">
  <g transform="matrix(.1 0 0 -.1 0 200)">
    <path d="m900 1972c-21-17-21-18-5-164 22-212 25-196-37-202-29-3-120-13-203-21-185-20-336-44-352-57-7-6-13-21-13-35 0-34 31-42 114-27 77 13 302 39 434 50l82 7v-65c0-77 36-601 50-738 12-111 26-520 18-520-3 0-50 30-103 67-53 38-107 74-119 82-26 16-56 9-56-13 0-20 85-111 137-147 24-17 72-55 105-85 60-54 96-66 116-41 26 33 19 343-17 777-11 129-25 312-30 405-6 94-13 195-15 226l-4 56 167 12c91 6 231 14 311 18 109 4 149 9 163 21 22 19 22 35-1 55-22 20-97 22-292 7-69-5-175-12-237-16l-111-7-6 44c-3 24-10 96-17 159-6 63-15 124-19 136-12 30-35 36-60 16z"/>
    <path d="m1270 1895c-23-28 0-50 102-102 57-29 133-69 170-90 76-43 103-39 103 12 0 32-21 46-204 141-108 55-149 65-171 39z"/>
    <path d="m1464 1393c-32-43-69-94-83-113s-63-75-109-125c-65-70-82-95-80-115 2-17 10-26 26-28 40-6 200 162 316 331 50 74 54 88 30 111-27 28-42 18-100-61z"/>
    <path d="m339 1251c-37-30-14-59 113-145 62-42 132-91 156-109 34-25 46-29 60-21 32 20 26 53-16 94-32 29-198 145-278 193-7 4-22-2-35-12z"/>
    <path d="m1146 844c-27-26-18-48 47-125 159-185 479-452 615-512 80-36 137-35 137 3 0 21-13 32-89 72-174 93-432 307-618 516-31 34-61 62-66 62-6 0-18-7-26-16z"/>
    <path d="m720 789c-29-16-69-41-88-55-83-64-418-347-430-364-8-10-11-28-8-38 10-29 42-33 73-9 73 57 266 219 333 281 41 38 102 91 137 119 94 75 82 120-17 66z"/>
  </g>
</svg>
