<?xml version="1.0"?>
<svg xmlns="http://www.w3.org/2000/svg" height="200pt" preserveAspectRatio="xMidYMid meet" viewBox="0 0 200 200" width="200pt">
  <g transform="matrix(.1 0 0 -.1 0 200)">
    <path d="m1269 1784c-10-13-14-78-17-273l-4-257-127-42c-70-23-133-42-140-42-10 0-13 23-11 103 4 132 5 127-30 127-42 0-51-24-59-153l-6-110-93-31c-93-31-118-50-106-80 10-27 48-29 119-7 37 12 71 21 76 21s9-146 9-337c0-381 0-381 76-438 66-50 237-89 394-89 129 0 371 33 437 60 44 17 47 40 28 178s-21 146-46 146c-30 0-41-45-37-149l3-95-60-12c-231-44-429-45-575-1-59 18-92 33-107 52l-23 26 2 346 3 345 135 44c74 24 136 44 136 44 1 0 5-107 9-237 4-136 11-243 17-250 16-20 45-15 62 9 13 19 16 62 16 265v242l38 10c102 28 215 51 285 59l77 8v-92c0-95-16-191-46-280-19-57-85-204-91-204-2 0-27 10-54 21-54 23-76 17-65-18 8-25 114-113 136-113 29 0 62 48 113 162 73 163 107 323 107 499 0 60-4 82-19 100l-19 23-117-13c-64-7-168-25-230-40l-113-28-6 21c-3 12-6 122-6 247 0 232-3 249-41 249-9 0-23-7-30-16z"/>
    <path d="m266 1728c-23-13-20-54 6-91 40-58 186-242 206-261 31-27 66-18 70 19 2 26-14 52-102 163-58 73-110 141-116 151-12 23-42 32-64 19z"/>
    <path d="m237 1143c-27-26 17-105 151-267 47-57 68-76 87-76 18 0 26 7 31 24 7 31-5 55-75 141-31 39-76 96-99 128-30 41-49 57-66 57-12 0-26-3-29-7z"/>
    <path d="m648 743c-39-45-150-298-233-532-4-9-17-3-45 23-22 20-48 36-58 36-23 0-42-19-42-41s100-114 139-127c46-16 65 8 107 128 20 58 69 190 110 294 41 105 74 199 72 210-4 27-30 31-50 9z"/>
  </g>
</svg>
