<?xml version="1.0"?>
<svg xmlns="http://www.w3.org/2000/svg" height="200pt" preserveAspectRatio="xMidYMid meet" viewBox="0 0 200 200" width="200pt">
  <g transform="matrix(.1 0 0 -.1 0 200)">
    <path d="m1160 1795c-10-12-11-44-6-130 7-114 7-114-16-119-13-2-70-11-127-20-108-17-131-26-131-56 0-40 23-44 153-26 67 9 125 16 130 16 4 0 7-92 7-205 0-188-1-205-17-205-10 0-79-7-153-15s-172-15-217-15c-83 0-113-12-113-45 0-49 76-56 325-30 77 8 146 15 154 15 30 0-13-267-62-389-48-120-131-254-201-329-57-60-68-77-59-90 71-114 330 246 392 546l18 87 26-51c84-166 221-322 364-417 204-134 323-173 323-107 0 21-31 45-105 83-92 46-239 149-307 215s-155 186-201 277c-32 66-71 174-65 181 10 9 177 23 432 35 197 9 255 15 269 27 22 19 22 36 0 58-16 15-35 16-190 10l-173-6v214c0 217-6 261-37 273-9 4-84 1-166-6-82-6-151-11-153-9-1 2-8 53-14 113-7 61-17 116-22 123-14 17-43 15-58-3zm360-511 5-202-100-6c-55-4-114-9-132-12l-32-6-3 203c-2 112-3 205-2 207 2 5 179 20 219 18l40-1z"/>
    <path d="m266 1728c-23-13-20-54 6-91 40-58 186-242 206-261 31-27 66-18 70 19 2 26-14 52-102 163-58 73-110 141-116 151-12 23-42 32-64 19z"/>
    <path d="m237 1143c-27-26 17-105 151-267 47-57 68-76 87-76 18 0 26 7 31 24 7 31-5 55-75 141-31 39-76 96-99 128-30 41-49 57-66 57-12 0-26-3-29-7z"/>
    <path d="m648 743c-39-45-150-298-233-532-4-9-17-3-45 23-22 20-48 36-58 36-23 0-42-19-42-41s100-114 139-127c46-16 65 8 107 128 20 58 69 190 110 294 41 105 74 199 72 210-4 27-30 31-50 9z"/>
  </g>
</svg>
