<?xml version="1.0"?>
<svg xmlns="http://www.w3.org/2000/svg" height="200pt" preserveAspectRatio="xMidYMid meet" viewBox="0 0 200 200" width="200pt">
  <g transform="matrix(.1 0 0 -.1 0 200)">
    <path d="m937 1796c-8-9-16-45-20-88-7-89-42-199-108-337-52-110-59-145-32-155 42-17 114 89 174 255l31 86 136 13c76 7 215 17 309 24 135 9 176 15 189 28 22 21 10 56-23 64-28 7-316-10-484-29l-106-12 5 63c4 51 1 66-13 82-21 24-38 25-58 6z"/>
    <path d="m266 1728c-23-13-20-54 6-91 40-58 186-242 206-261 31-27 66-18 70 19 2 26-14 52-102 163-58 73-110 141-116 151-12 23-42 32-64 19z"/>
    <path d="m1235 1424c-77-7-155-17-174-21-42-10-61-35-45-60 14-22 69-23 318-3 148 11 183 17 198 32 22 22 23 32 2 52-19 20-99 20-299 0z"/>
    <path d="m237 1143c-27-26 17-105 151-267 47-57 68-76 87-76 18 0 26 7 31 24 7 31-5 55-75 141-31 39-76 96-99 128-30 41-49 57-66 57-12 0-26-3-29-7z"/>
    <path d="m1490 1119c-185-13-356-36-525-70-82-16-158-32-167-35-35-10-33-68 2-79 10-3 85 8 167 24 177 36 344 58 523 67l133 7-7-24c-47-170-49-185-50-339-1-99 4-175 12-210 22-86 96-233 137-269 65-57 97-37 115 71 6 40 22 122 36 183 13 60 24 118 24 127 0 28-22 33-41 10-20-26-70-153-89-229l-14-52-18 30c-10 17-30 65-45 107-24 70-26 91-25 219 1 150 20 260 61 356 47 110 18 124-229 106z"/>
    <path d="m648 743c-39-45-150-298-233-532-4-9-17-3-45 23-22 20-48 36-58 36-23 0-42-19-42-41s100-114 139-127c46-16 65 8 107 128 20 58 69 190 110 294 41 105 74 199 72 210-4 27-30 31-50 9z"/>
  </g>
</svg>
