<?xml version="1.0"?>
<svg xmlns="http://www.w3.org/2000/svg" height="200pt" preserveAspectRatio="xMidYMid meet" viewBox="0 0 200 200" width="200pt">
  <g transform="matrix(.1 0 0 -.1 0 200)">
    <path d="m266 1728c-23-13-20-54 6-91 40-58 186-242 206-261 31-27 66-18 70 19 2 26-14 52-102 163-58 73-110 141-116 151-12 23-42 32-64 19z"/>
    <path d="m1520 1569c-145-19-750-116-782-125-22-6-30-31-18-55 15-27 46-25 288 15 114 19 275 44 357 56 83 11 165 23 183 26l32 5v-75c0-41 4-130 9-198 6-68 12-327 15-576l5-453-47 27c-26 15-87 54-136 86-87 57-134 71-143 42-7-21 174-177 251-216 22-11 54-31 69-44 31-26 66-31 85-12 21 21 12 803-14 1300l-7 126 64 6c35 3 84 7 108 9 51 2 73 25 55 55-16 25-189 26-374 1z"/>
    <path d="m1060 1174c-193-31-227-40-239-63-7-12-5-46 3-102 8-46 17-137 21-203 9-137 22-163 78-152 18 3 101 9 186 12 199 9 190 1 193 172 4 229-2 336-20 350-21 16-38 15-222-14zm150-238v-173l-105-7c-59-4-119-9-135-12l-28-6-7 68c-3 38-11 109-16 157-6 49-8 91-4 95 4 5 212 42 288 51 4 1 7-77 7-173z"/>
    <path d="m237 1143c-27-26 17-105 151-267 47-57 68-76 87-76 18 0 26 7 31 24 7 31-5 55-75 141-31 39-76 96-99 128-30 41-49 57-66 57-12 0-26-3-29-7z"/>
    <path d="m648 743c-39-45-150-298-233-532-4-9-17-3-45 23-22 20-48 36-58 36-23 0-42-19-42-41s100-114 139-127c46-16 65 8 107 128 20 58 69 190 110 294 41 105 74 199 72 210-4 27-30 31-50 9z"/>
  </g>
</svg>
