<?xml version="1.0"?>
<svg xmlns="http://www.w3.org/2000/svg" height="200pt" preserveAspectRatio="xMidYMid meet" viewBox="0 0 200 200" width="200pt">
  <g transform="matrix(.1 0 0 -.1 0 200)">
    <path d="m1286 1758c-13-19-16-60-16-243 0-121-3-243-6-271l-6-51-122-12c-66-6-162-11-212-11-119 0-128-8-121-112 4-64 40-441 66-688 14-135-21-126 476-125 249 1 419 5 425 11 9 9 19 96 51 429 6 66 22 187 35 269 29 181 30 198 3 222-20 18-39 19-263 19h-241l3 276c3 246 2 278-13 292-22 23-41 21-59-5zm492-662c3-3-5-72-17-153-13-82-24-155-25-163-1-9-10-14-21-12-11 1-96 5-190 10l-170 7-3 157-3 157 98 4c114 5 323 0 331-7zm-526-148c-2-84-4-153-5-154s-74-4-162-7l-161-6-17 137c-9 75-17 143-17 150 0 9 27 12 98 13 53 1 124 5 157 9s71 8 85 9l25 1zm12-325c3-42 6-120 6-173 0-79-3-99-16-104-8-3-78-9-155-12-116-6-139-5-139 7 0 41-21 298-26 321-5 26-4 27 48 31 29 2 103 4 164 5l111 2zm433 51 29-6-8-66c-4-37-11-112-15-167l-8-100-40 2c-22 1-97 5-167 9l-128 6v123c0 67-3 144-7 170l-6 48 160-6c88-4 173-10 190-13z"/>
    <path d="m266 1728c-23-13-20-54 6-91 40-58 186-242 206-261 31-27 66-18 70 19 2 26-14 52-102 163-58 73-110 141-116 151-12 23-42 32-64 19z"/>
    <path d="m237 1143c-27-26 17-105 151-267 47-57 68-76 87-76 18 0 26 7 31 24 7 31-5 55-75 141-31 39-76 96-99 128-30 41-49 57-66 57-12 0-26-3-29-7z"/>
    <path d="m648 743c-39-45-150-298-233-532-4-9-17-3-45 23-22 20-48 36-58 36-23 0-42-19-42-41s100-114 139-127c46-16 65 8 107 128 20 58 69 190 110 294 41 105 74 199 72 210-4 27-30 31-50 9z"/>
  </g>
</svg>
