<?xml version="1.0"?>
<svg xmlns="http://www.w3.org/2000/svg" height="200pt" preserveAspectRatio="xMidYMid meet" viewBox="0 0 200 200" width="200pt">
  <g transform="matrix(.1 0 0 -.1 0 200)">
    <path d="m1097 1762c-10-10-17-30-17-45 0-52-146-424-227-577-30-57-68-121-84-141-34-43-38-84-9-99 15-8 46-2 137 26 267 81 491 123 700 133l142 6 31-85c16-47 37-96 46-108 26-38 74-22 74 25 0 55-204 509-244 542-19 16-53 6-61-18-3-11 18-68 53-143l59-125-131-6c-72-3-184-15-248-27-104-18-375-82-415-97-8-3 7 34 36 88 51 97 199 467 220 551 15 63 14 84-5 102-20 21-37 20-57-2z"/>
    <path d="m266 1728c-23-13-20-54 6-91 40-58 186-242 206-261 31-27 66-18 70 19 2 26-14 52-102 163-58 73-110 141-116 151-12 23-42 32-64 19z"/>
    <path d="m237 1143c-27-26 17-105 151-267 47-57 68-76 87-76 18 0 26 7 31 24 7 31-5 55-75 141-31 39-76 96-99 128-30 41-49 57-66 57-12 0-26-3-29-7z"/>
    <path d="m1540 863c-210-12-608-73-647-99-13-8-23-23-23-34 0-24 51-257 85-390 14-52 25-111 25-131 0-63 4-63 249-43 183 14 239 15 342 6 97-9 126-9 136 1 12 12 43 442 43 590 0 108-8 112-210 100zm120-120c-1-29-28-473-30-479 0-1-48 1-107 3-65 3-175-1-277-12-92-9-170-14-172-12s-24 87-49 188c-63 258-64 263-61 267 13 12 417 66 571 75 136 9 125 11 125-30z"/>
    <path d="m648 743c-39-45-150-298-233-532-4-9-17-3-45 23-22 20-48 36-58 36-23 0-42-19-42-41s100-114 139-127c46-16 65 8 107 128 20 58 69 190 110 294 41 105 74 199 72 210-4 27-30 31-50 9z"/>
  </g>
</svg>
