<?xml version="1.0"?>
<svg xmlns="http://www.w3.org/2000/svg" height="200pt" preserveAspectRatio="xMidYMid meet" viewBox="0 0 200 200" width="200pt">
  <g transform="matrix(.1 0 0 -.1 0 200)">
    <path d="m266 1728c-23-13-20-54 6-91 40-58 186-242 206-261 31-27 66-18 70 19 2 26-14 52-102 163-58 73-110 141-116 151-12 23-42 32-64 19z"/>
    <path d="m1348 1629c-31-18-21-62 29-130 69-94 277-350 310-381 46-44 165-118 190-118s46 30 37 55c-4 8-36 35-73 59-36 24-83 60-104 80-43 43-275 329-324 399-35 50-38 52-65 36z"/>
    <path d="m1056 1604c-9-8-16-30-16-47 0-130-141-419-259-531-33-31-39-54-19-74 21-21 47-13 94 30 56 51 121 141 162 223 83 166 127 372 87 401-24 18-30 17-49-2z"/>
    <path d="m237 1143c-27-26 17-105 151-267 47-57 68-76 87-76 18 0 26 7 31 24 7 31-5 55-75 141-31 39-76 96-99 128-30 41-49 57-66 57-12 0-26-3-29-7z"/>
    <path d="m1310 864c-19-2-105-9-190-15s-161-15-167-21c-7-6-13-28-13-49 0-73 62-474 75-488 11-11 67-13 288-12 184 2 277-1 282-8 11-18 62-13 70 6 4 10 13 140 21 288l15 270-22 18c-18 15-42 17-173 15-83 0-167-3-186-4zm286-151c-3-38-8-130-12-205l-6-138h-248-248l-11 63c-21 125-45 317-40 322 11 10 214 22 392 24l178 1z"/>
    <path d="m648 743c-39-45-150-298-233-532-4-9-17-3-45 23-22 20-48 36-58 36-23 0-42-19-42-41s100-114 139-127c46-16 65 8 107 128 20 58 69 190 110 294 41 105 74 199 72 210-4 27-30 31-50 9z"/>
  </g>
</svg>
