<?xml version="1.0"?>
<svg xmlns="http://www.w3.org/2000/svg" height="200pt" preserveAspectRatio="xMidYMid meet" viewBox="0 0 200 200" width="200pt">
  <g transform="matrix(.1 0 0 -.1 0 200)">
    <path d="m824 1912c-6-4-24-31-40-61s-73-100-126-157c-96-100-115-133-88-160 11-11 34-116 61-284 11-69 26-131 34-139 10-10 40-13 115-12 61 1 99-2 96-7s-1-81 4-168c13-221 18-664 8-664-5 0-26 11-46 25-80 54-115 10-44-56 45-43 126-89 157-89 35 0 49 24 41 73-4 23-11 184-16 357s-12 366-16 428l-7 113 118-2c138-3 145 2 145 87 0 28 12 132 26 230 34 238 42 224-128 224-73 0-191-7-263-15-71-8-134-15-140-15-5 0 14 24 42 53 63 63 123 161 123 199 0 17-7 31-19 38-23 12-23 12-37 2zm353-355c-3-8-8-39-12-70l-7-57h-72c-65 0-286-22-362-36l-30-6-13 67c-6 37-10 70-7 72 8 8 344 41 430 42 62 1 77-2 73-12zm-42-279c-4-40-8-74-10-76-3-4-389-20-393-17-5 4-22 119-18 122 2 2 57 10 122 18 110 13 169 18 268 23l38 2z"/>
    <path d="m1339 1038c-25-47-100-135-169-197l-71-63-29 27c-38 36-80 29-80-13 0-87 499-462 757-568 67-27 82-29 107-11 32 24 11 50-71 91-169 83-349 196-520 328-56 43-105 82-107 87-3 4 20 25 50 46 112 77 232 234 208 272-17 28-60 29-75 1z"/>
    <path d="m410 881c-40-5-45-9-48-33-5-45 20-50 190-42l150 7-18-29c-53-84-176-233-247-301-77-72-207-166-245-177-9-3-36-10-59-16-46-12-57-36-28-60 24-20 116-7 175 23 165 86 405 338 500 526 26 53 30 68 21 88-11 23-11 23-178 21-93 0-188-4-213-7z"/>
  </g>
</svg>
