<?xml version="1.0"?>
<svg xmlns="http://www.w3.org/2000/svg" height="200pt" preserveAspectRatio="xMidYMid meet" viewBox="0 0 200 200" width="200pt">
  <g transform="matrix(.1 0 0 -.1 0 200)">
    <path d="m1193 1768c-4-7-7-73-5-145 2-122 1-133-15-133-61-1-307-31-323-40-24-13-26-43-5-60 13-11 47-10 183 2 92 8 168 14 168 14 1-1 4-103 6-227l4-226-132-6c-167-8-352-34-381-53-13-8-23-23-23-34 0-34 29-40 130-25 105 16 371 37 378 31 8-8-70-172-156-329-118-214-172-322-172-346 0-38 25-45 98-28 138 33 362 68 522 82 91 7 186 21 210 29l45 16 82-87c70-76 84-86 100-77 10 6 19 25 21 42 3 28-7 42-70 109-41 43-108 121-150 173-98 123-115 140-138 140-11 0-24-9-30-21-13-23 0-47 85-151l46-57-38-10c-21-5-105-15-188-21-82-6-220-24-305-39-85-16-157-27-159-25-1 1 23 51 54 111 141 267 185 353 211 419l29 71 287 5c298 5 318 8 318 48 0 41-19 43-308 44l-277 1-5 222c-5 216-4 222 15 227 11 3 88 6 170 6 160 0 195 9 195 49s-21 44-209 39l-179-5-6 36c-3 20-6 73-6 119s-5 92-10 103c-12 21-54 26-67 7z"/>
    <path d="m266 1728c-23-13-20-54 6-91 40-58 186-242 206-261 31-27 66-18 70 19 2 26-14 52-102 163-58 73-110 141-116 151-12 23-42 32-64 19z"/>
    <path d="m237 1143c-27-26 17-105 151-267 47-57 68-76 87-76 18 0 26 7 31 24 7 31-5 55-75 141-31 39-76 96-99 128-30 41-49 57-66 57-12 0-26-3-29-7z"/>
    <path d="m648 743c-39-45-150-298-233-532-4-9-17-3-45 23-22 20-48 36-58 36-23 0-42-19-42-41s100-114 139-127c46-16 65 8 107 128 20 58 69 190 110 294 41 105 74 199 72 210-4 27-30 31-50 9z"/>
  </g>
</svg>
