<?xml version="1.0"?>
<svg xmlns="http://www.w3.org/2000/svg" height="200pt" preserveAspectRatio="xMidYMid meet" viewBox="0 0 200 200" width="200pt">
  <g transform="matrix(.1 0 0 -.1 0 200)">
    <path d="m1224 1853c-15-16-16-38-10-243 4-124 9-244 12-267l6-41-149-4c-82-2-158 1-171 6-17 7-27 6-38-6-19-19-20-23-4-227 26-333-24-587-156-797-30-48-53-95-52-103 2-9 15-17 32-19 40-5 100 62 153 168 54 112 79 196 100 339l17 118 18-36c31-62 144-205 214-271l68-63-107-103c-58-57-118-106-132-110-58-15-46-74 15-74 52 0 80 19 190 126l109 106 62-43c97-66 390-199 437-199 26 0 54 27 50 48-2 10-70 46-175 93-170 77-303 152-303 171 0 5 18 31 40 56 56 67 181 290 187 334 8 57-14 64-183 49-75-6-138-10-140-8s-1 84 3 184l6 180 166 12c91 6 172 11 179 11 17 0-28-62-103-142-46-48-54-62-44-74 15-18 52-18 89 1 29 15 90 82 157 175 51 71 55 83 36 110-16 23-18 23-177 17-89-4-193-10-233-13l-71-7-6 44c-3 24-10 144-14 266-9 222-15 253-48 253-7 0-20-8-30-17zm6-700c0-32-3-115-7-185l-6-127-122-3-122-3-7 140c-4 77-9 161-13 188l-6 47h142 141zm254-450c-57-104-142-223-159-223-14 0-130 118-188 190l-60 75 148 7c82 4 156 9 164 11 9 3 42 5 74 6l59 1z"/>
    <path d="m266 1728c-23-13-20-54 6-91 40-58 186-242 206-261 31-27 66-18 70 19 2 26-14 52-102 163-58 73-110 141-116 151-12 23-42 32-64 19z"/>
    <path d="m237 1143c-27-26 17-105 151-267 47-57 68-76 87-76 18 0 26 7 31 24 7 31-5 55-75 141-31 39-76 96-99 128-30 41-49 57-66 57-12 0-26-3-29-7z"/>
    <path d="m648 743c-39-45-150-298-233-532-4-9-17-3-45 23-22 20-48 36-58 36-23 0-42-19-42-41s100-114 139-127c46-16 65 8 107 128 20 58 69 190 110 294 41 105 74 199 72 210-4 27-30 31-50 9z"/>
  </g>
</svg>
