<?xml version="1.0"?>
<svg xmlns="http://www.w3.org/2000/svg" height="200pt" preserveAspectRatio="xMidYMid meet" viewBox="0 0 200 200" width="200pt">
  <g transform="matrix(.1 0 0 -.1 0 200)">
    <path d="m1166 1812c-3-9-2-77 3-149 12-189 17-178-89-192-90-11-320-65-352-82-22-12-23-52-2-70 13-11 26-10 77 4 34 9 63 14 65 13 12-13 64-342 77-491 16-192 32-351 41-426l6-47-48-11c-27-5-96-18-154-26-58-9-116-20-130-24-29-7-39-44-19-68 17-20 95-13 265 21 197 40 298 47 642 45 334-3 342-2 342 36 0 43-52 55-247 55-149 0-163 2-163 18 0 9 7 73 15 142 29 254 46 470 52 663l6 197h39c51 0 78 15 78 44 0 42-20 48-152 46-68 0-151-5-186-9-34-4-64-5-67-3-3 3-5 42-5 86 0 97-16 214-31 233-16 19-57 16-63-5zm304-421c0-132-29-493-67-838l-17-153h-55c-31 0-99-3-152-6l-95-7-12 79c-7 44-17 142-22 219-15 204-36 361-69 525-19 96-26 147-19 151 17 10 378 56 456 58 51 1 52 0 52-28z"/>
    <path d="m266 1728c-23-13-20-54 6-91 40-58 186-242 206-261 31-27 66-18 70 19 2 26-14 52-102 163-58 73-110 141-116 151-12 23-42 32-64 19z"/>
    <path d="m237 1143c-27-26 17-105 151-267 47-57 68-76 87-76 18 0 26 7 31 24 7 31-5 55-75 141-31 39-76 96-99 128-30 41-49 57-66 57-12 0-26-3-29-7z"/>
    <path d="m648 743c-39-45-150-298-233-532-4-9-17-3-45 23-22 20-48 36-58 36-23 0-42-19-42-41s100-114 139-127c46-16 65 8 107 128 20 58 69 190 110 294 41 105 74 199 72 210-4 27-30 31-50 9z"/>
  </g>
</svg>
