<?xml version="1.0"?>
<svg xmlns="http://www.w3.org/2000/svg" height="200pt" preserveAspectRatio="xMidYMid meet" viewBox="0 0 200 200" width="200pt">
  <g transform="matrix(.1 0 0 -.1 0 200)">
    <path d="m1177 1813c-21-20-1-54 74-128 44-44 94-99 111-123 24-35 35-43 55-40 14 2 31 10 36 19 19 30-14 81-115 182-78 77-103 97-126 97-16 0-32-3-35-7z"/>
    <path d="m266 1728c-23-13-20-54 6-91 40-58 186-242 206-261 31-27 66-18 70 19 2 26-14 52-102 163-58 73-110 141-116 151-12 23-42 32-64 19z"/>
    <path d="m1390 1403c-72-7-406-54-422-59-34-10-33-68 1-79 10-3 85 4 166 15 81 12 149 20 151 18 1-2 6-89 10-194l7-191-104-13c-131-17-149-23-149-54 0-45 21-51 128-38 53 7 103 12 110 12 9 0 12-58 12-254v-254l-72-7c-264-23-395-38-410-46-25-13-23-56 3-70 16-8 50-8 133 0 304 29 400 34 611 27 121-3 242-11 268-16 59-12 87 0 87 35 0 53-52 65-334 74l-191 6-3 256-2 256 37 7c21 3 63 6 93 6 61 0 100 19 100 49 0 37-25 44-129 38l-98-5-7 121c-3 66-6 153-6 192v73l31 6c17 3 87 6 155 6 98 0 126 3 138 16 9 8 16 22 16 29s-7 21-16 29c-13 13-39 16-147 14-73 0-148-3-167-5z"/>
    <path d="m237 1143c-27-26 17-105 151-267 47-57 68-76 87-76 18 0 26 7 31 24 7 31-5 55-75 141-31 39-76 96-99 128-30 41-49 57-66 57-12 0-26-3-29-7z"/>
    <path d="m648 743c-39-45-150-298-233-532-4-9-17-3-45 23-22 20-48 36-58 36-23 0-42-19-42-41s100-114 139-127c46-16 65 8 107 128 20 58 69 190 110 294 41 105 74 199 72 210-4 27-30 31-50 9z"/>
  </g>
</svg>
