<?xml version="1.0"?>
<svg xmlns="http://www.w3.org/2000/svg" height="200pt" preserveAspectRatio="xMidYMid meet" viewBox="0 0 200 200" width="200pt">
  <g transform="matrix(.1 0 0 -.1 0 200)">
    <path d="m1136 1894c-25-24-20-40 38-143 30-53 63-113 72-134 21-45 60-60 81-32 7 11 13 25 13 33 0 33-134 268-161 283-23 12-25 12-43-7z"/>
    <path d="m266 1728c-23-13-20-54 6-91 40-58 186-242 206-261 31-27 66-18 70 19 2 26-14 52-102 163-58 73-110 141-116 151-12 23-42 32-64 19z"/>
    <path d="m1127 1445c-122-18-135-22-142-46-16-50 40-62 180-39 33 5 79 10 103 10 37 0 42-3 42-22 0-13 7-99 14-193 23-269 29-579 17-780-7-98-14-181-16-183s-45 21-96 52-98 55-103 53c-43-14 6-74 156-188 77-59 107-70 125-47 18 22 36 502 30 746l-7 227 32-85c72-193 312-619 401-712 29-30 45-38 65-36 42 5 40 40-6 101-121 161-392 655-365 664 43 15 131 121 200 242 24 42 43 85 43 96 0 26-18 45-42 45-19 0-32-16-86-107-20-35-61-94-91-132l-55-70-17 28c-10 16-23 31-31 34-19 6-48-11-48-30 0-9-2-14-4-12s-10 87-16 189c-7 102-17 191-23 198-12 16-140 14-260-3z"/>
    <path d="m237 1143c-27-26 17-105 151-267 47-57 68-76 87-76 18 0 26 7 31 24 7 31-5 55-75 141-31 39-76 96-99 128-30 41-49 57-66 57-12 0-26-3-29-7z"/>
    <path d="m1200 1083c-84-9-316-55-328-65-7-6-12-20-10-31 6-40 29-42 177-17 78 13 144 20 148 17 7-8-21-52-138-212-88-122-214-258-327-354-47-39-62-59-60-75 2-17 9-21 39-20 42 1 100 38 188 120 179 166 436 539 416 604-6 19-45 43-63 38-4 0-23-3-42-5z"/>
    <path d="m648 743c-39-45-150-298-233-532-4-9-17-3-45 23-22 20-48 36-58 36-23 0-42-19-42-41s100-114 139-127c46-16 65 8 107 128 20 58 69 190 110 294 41 105 74 199 72 210-4 27-30 31-50 9z"/>
  </g>
</svg>
