<?xml version="1.0"?>
<svg xmlns="http://www.w3.org/2000/svg" height="200pt" preserveAspectRatio="xMidYMid meet" viewBox="0 0 200 200" width="200pt">
  <g transform="matrix(.1 0 0 -.1 0 200)">
    <path d="m1525 1779c-21-29-62-81-91-116-30-35-54-67-54-72s7-14 15-21c24-20 66 4 133 73 68 71 95 117 90 155-2 21-9 28-29 30-22 3-33-6-64-49z"/>
    <path d="m894 1765c-15-23-15-27 9-68 37-63 183-199 209-195 33 5 46 33 28 62-22 35-207 226-219 226-6 0-18-11-27-25z"/>
    <path d="m266 1728c-23-13-20-54 6-91 40-58 186-242 206-261 31-27 66-18 70 19 2 26-14 52-102 163-58 73-110 141-116 151-12 23-42 32-64 19z"/>
    <path d="m1498 1469c-184-15-525-70-615-100-42-13-53-47-24-70 17-14 28-15 63-7 111 25 313 57 319 51 4-5 10-63 14-129l7-122-38-6c-22-3-76-11-122-17-93-13-128-33-118-66 10-32 27-34 139-18 159 23 144 31 151-82 4-54 9-128 12-164l6-67-44-7c-128-21-391-76-427-91-31-12-41-22-41-39 0-45 20-48 142-21 143 31 367 70 373 64 3-2 9-92 15-199 5-107 13-219 16-249 10-83 47-115 79-67 12 20 13 43 5 158-22 327-23 379-6 379 64 0 516 43 534 50 18 8 23 17 20 37-6 53 18 52-509 6l-66-6-6 44c-3 24-9 96-13 161l-6 116 78 6c44 4 90 10 104 14 30 9 38 43 14 67-15 14-30 16-109 10l-92-7-7 66c-3 36-9 95-12 130l-6 64 28 6c16 3 89 10 163 16s138 13 143 16c4 3 13 14 18 24 8 15 6 24-10 40-21 21-23 22-172 9z"/>
    <path d="m237 1143c-27-26 17-105 151-267 47-57 68-76 87-76 18 0 26 7 31 24 7 31-5 55-75 141-31 39-76 96-99 128-30 41-49 57-66 57-12 0-26-3-29-7z"/>
    <path d="m648 743c-39-45-150-298-233-532-4-9-17-3-45 23-22 20-48 36-58 36-23 0-42-19-42-41s100-114 139-127c46-16 65 8 107 128 20 58 69 190 110 294 41 105 74 199 72 210-4 27-30 31-50 9z"/>
  </g>
</svg>
