<?xml version="1.0"?>
<svg xmlns="http://www.w3.org/2000/svg" height="200pt" preserveAspectRatio="xMidYMid meet" viewBox="0 0 200 200" width="200pt">
  <g transform="matrix(.1 0 0 -.1 0 200)">
    <path d="m1237 1855c-11-10-17-53-22-155-4-77-8-140-9-141 0 0-47-6-104-13-102-12-103-12-97 8 3 12 9 64 12 117 5 90 4 98-14 107-15 8-25 7-40-3-16-11-22-30-27-88-13-150-68-291-145-379-44-49-50-68-26-88 38-32 117 39 178 158l33 67 95 12c52 6 104 12 117 12l22 1v-210-209l-32-5c-18-3-102-13-186-22-181-19-201-24-219-50-11-17-11-23 1-39 13-19 19-19 150-4l136 15v-51c0-64-26-225-46-290-35-109-156-295-229-350-66-51-31-92 47-57 108 48 254 286 288 472 7 36 15 115 19 175l6 110 60 6c33 4 87 9 120 12l60 6 2-293c3-264 5-300 24-360 21-71 69-135 120-162 21-10 68-14 181-14 222 0 219-4 169 223-17 72-33 156-37 185-7 58-19 72-41 50-29-30-23-201 13-344 5-20 1-21-88-27-158-10-201 12-234 118-17 54-32 532-20 600l7 35h187c199 0 232 7 232 49s-19 44-258 38c-125-4-253-10-284-13l-58-7v210 211l31 6c17 3 82 6 143 6 74 0 116 4 124 12 19 19 14 46-13 64-22 15-44 16-155 10l-130-7v139c0 137-6 162-36 162-7 0-19-7-27-15z"/>
    <path d="m266 1728c-23-13-20-54 6-91 40-58 186-242 206-261 31-27 66-18 70 19 2 26-14 52-102 163-58 73-110 141-116 151-12 23-42 32-64 19z"/>
    <path d="m237 1143c-27-26 17-105 151-267 47-57 68-76 87-76 18 0 26 7 31 24 7 31-5 55-75 141-31 39-76 96-99 128-30 41-49 57-66 57-12 0-26-3-29-7z"/>
    <path d="m648 743c-39-45-150-298-233-532-4-9-17-3-45 23-22 20-48 36-58 36-23 0-42-19-42-41s100-114 139-127c46-16 65 8 107 128 20 58 69 190 110 294 41 105 74 199 72 210-4 27-30 31-50 9z"/>
  </g>
</svg>
