<?xml version="1.0"?>
<svg xmlns="http://www.w3.org/2000/svg" height="200pt" preserveAspectRatio="xMidYMid meet" viewBox="0 0 200 200" width="200pt">
  <g transform="matrix(.1 0 0 -.1 0 200)">
    <path d="m1345 1792c-6-4-40-47-75-97-36-49-129-156-207-236-141-144-164-179-127-193 25-10 94 36 187 124l84 79 6-97c8-119 9-302 1-302-14 0-326-52-371-62-63-13-90-37-74-66 14-27 33-32 73-22 75 20 370 62 378 54 4-5 10-50 14-100l6-91-78-12c-187-30-237-54-212-100 5-11 10-30 10-43 0-40 92-432 107-456 13-21 20-23 51-17 21 4 162 10 314 14 152 3 280 10 285 14 4 5 9 43 9 85 1 43 5 154 9 248 9 204 3 258-30 280-21 14-46 14-197 6-95-6-174-9-176-8-1 2-6 47-10 101-5 65-4 98 3 101 20 7 391 53 485 60 52 4 103 11 113 16 21 11 22 51 1 69-18 15-202 1-455-35l-156-22-7 166c-4 91-11 198-15 237l-7 73 59 86c34 49 60 97 60 111 0 34-32 54-58 35zm299-1113c13-68-6-396-25-413-2-2-112-6-245-8l-240-6-48 200c-26 110-46 201-44 203 6 7 189 35 285 44 48 4 138 9 199 10l112 1z"/>
    <path d="m266 1728c-23-13-20-54 6-91 40-58 186-242 206-261 31-27 66-18 70 19 2 26-14 52-102 163-58 73-110 141-116 151-12 23-42 32-64 19z"/>
    <path d="m237 1143c-27-26 17-105 151-267 47-57 68-76 87-76 18 0 26 7 31 24 7 31-5 55-75 141-31 39-76 96-99 128-30 41-49 57-66 57-12 0-26-3-29-7z"/>
    <path d="m648 743c-39-45-150-298-233-532-4-9-17-3-45 23-22 20-48 36-58 36-23 0-42-19-42-41s100-114 139-127c46-16 65 8 107 128 20 58 69 190 110 294 41 105 74 199 72 210-4 27-30 31-50 9z"/>
  </g>
</svg>
