<?xml version="1.0"?>
<svg xmlns="http://www.w3.org/2000/svg" height="200pt" preserveAspectRatio="xMidYMid meet" viewBox="0 0 200 200" width="200pt">
  <g transform="matrix(.1 0 0 -.1 0 200)">
    <path d="m1261 1777c-66-84-155-165-231-214-33-21-82-52-108-68l-47-30 2-70c7-329 6-382-11-460-38-177-119-374-216-524-42-65-51-87-43-100 6-9 17-17 25-19 68-13 231 283 300 548 28 104 31 130 32 280 1 91-2 194-6 230l-7 65 87 50c64 37 114 77 192 155 115 115 152 169 134 198-23 36-49 26-103-41z"/>
    <path d="m266 1728c-23-13-20-54 6-91 40-58 186-242 206-261 31-27 66-18 70 19 2 26-14 52-102 163-58 73-110 141-116 151-12 23-42 32-64 19z"/>
    <path d="m1494 1602c-6-4-50-61-99-126-49-66-131-163-183-218l-94-98 1-187c2-176 8-290 31-573 5-63 10-149 10-191 0-62 4-79 19-93s24-15 40-7c38 21 38 47 6 436-8 94-17 261-20 373l-7 203 84 87c120 125 268 323 268 359 0 33-31 53-56 35z"/>
    <path d="m1747 1358c-8-13-52-86-97-163-126-213-233-347-284-357-36-6-42-33-19-82 63-129 264-397 390-519 55-53 117-81 145-66 33 18 24 38-41 88-67 53-234 252-326 389l-82 123 65 62c36 34 91 101 123 149 84 128 199 332 199 355 0 44-50 58-73 21z"/>
    <path d="m237 1143c-27-26 17-105 151-267 47-57 68-76 87-76 18 0 26 7 31 24 7 31-5 55-75 141-31 39-76 96-99 128-30 41-49 57-66 57-12 0-26-3-29-7z"/>
    <path d="m648 743c-39-45-150-298-233-532-4-9-17-3-45 23-22 20-48 36-58 36-23 0-42-19-42-41s100-114 139-127c46-16 65 8 107 128 20 58 69 190 110 294 41 105 74 199 72 210-4 27-30 31-50 9z"/>
  </g>
</svg>
