<?xml version="1.0"?>
<svg xmlns="http://www.w3.org/2000/svg" height="200pt" preserveAspectRatio="xMidYMid meet" viewBox="0 0 200 200" width="200pt">
  <g transform="matrix(.1 0 0 -.1 0 200)">
    <path d="m1165 1887c-16-13-17-25-11-144l7-129-144-12c-208-18-244-32-216-84 12-22-6-23 269 1 52 5 96 8 96 7 1 0 4-31 6-67l5-66-115-19c-123-20-149-35-126-71 13-20 73-23 185-9l67 8 11-51c6-28 13-68 17-89l6-38-89-12c-377-54-440-72-414-121 7-12 21-21 35-21 13 0 126 16 251 35 126 20 231 32 235 28s15-42 25-83 35-131 58-200l40-125-93-88c-109-103-208-171-382-262-75-39-128-73-128-81 0-61 199 3 377 122 46 31 124 94 174 141 49 47 91 84 93 82s20-35 39-74c55-110 130-207 217-284 105-93 128-93 149-1 6 25 20 74 31 110 34 110 22 182-23 147-13-10-45-81-81-181-6-17-12-14-57 30-60 58-123 151-175 256l-37 76 40 49c56 66 118 165 139 219 19 50 9 74-32 74-18 0-30-14-59-67-42-81-117-185-126-175-10 10-35 92-68 220l-29 112h237c171 0 240 3 249 12 19 19 14 45-10 62-19 13-61 16-259 16h-236l-18 85c-10 47-16 87-14 90 3 2 58 7 123 11 111 7 118 8 129 31 8 19 7 27-5 40-13 12-37 15-120 14-56-1-112-3-123-4-18-2-21 5-25 61l-5 62 30 4c17 3 95 8 174 11 82 3 150 10 158 16 7 6 13 22 13 35 0 42-30 47-211 35-90-5-165-9-167-7-1 2-8 58-14 126-13 142-28 169-73 137z"/>
    <path d="m1507 1843c-22-21-1-53 83-131 94-85 132-102 145-62 9 29-8 52-95 130-74 65-113 84-133 63z"/>
    <path d="m266 1728c-23-13-20-54 6-91 40-58 186-242 206-261 31-27 66-18 70 19 2 26-14 52-102 163-58 73-110 141-116 151-12 23-42 32-64 19z"/>
    <path d="m237 1143c-27-26 17-105 151-267 47-57 68-76 87-76 18 0 26 7 31 24 7 31-5 55-75 141-31 39-76 96-99 128-30 41-49 57-66 57-12 0-26-3-29-7z"/>
    <path d="m648 743c-39-45-150-298-233-532-4-9-17-3-45 23-22 20-48 36-58 36-23 0-42-19-42-41s100-114 139-127c46-16 65 8 107 128 20 58 69 190 110 294 41 105 74 199 72 210-4 27-30 31-50 9z"/>
  </g>
</svg>
