<?xml version="1.0"?>
<svg xmlns="http://www.w3.org/2000/svg" height="200pt" preserveAspectRatio="xMidYMid meet" viewBox="0 0 200 200" width="200pt">
  <g transform="matrix(.1 0 0 -.1 0 200)">
    <path d="m266 1728c-23-13-20-54 6-91 40-58 186-242 206-261 31-27 66-18 70 19 2 26-14 52-102 163-58 73-110 141-116 151-12 23-42 32-64 19z"/>
    <path d="m1090 1675c-6-8-27-46-45-84-43-90-104-179-172-253-29-32-53-67-53-77 0-53 93-22 151 51 81 99 152 220 179 301 10 33 10 41-6 58-20 23-37 24-54 4z"/>
    <path d="m1355 1660c-3-11-4-29 0-40 18-55 319-285 366-278 27 3 38 40 19 63-7 8-58 47-114 87-55 40-127 98-159 130-63 62-100 75-112 38z"/>
    <path d="m1233 1312c-7-4-19-27-27-50-20-56-144-284-211-387-28-44-84-117-123-163-40-46-72-90-72-97 0-8 9-19 20-25 62-33 203 136 368 442l74 137 47-72c112-170 257-321 411-426 119-81 146-94 170-81 46 25 19 61-115 151-154 104-371 343-446 490-16 32-39 65-51 73-26 18-28 19-45 8z"/>
    <path d="m237 1143c-27-26 17-105 151-267 47-57 68-76 87-76 18 0 26 7 31 24 7 31-5 55-75 141-31 39-76 96-99 128-30 41-49 57-66 57-12 0-26-3-29-7z"/>
    <path d="m648 743c-39-45-150-298-233-532-4-9-17-3-45 23-22 20-48 36-58 36-23 0-42-19-42-41s100-114 139-127c46-16 65 8 107 128 20 58 69 190 110 294 41 105 74 199 72 210-4 27-30 31-50 9z"/>
    <path d="m1153 701c-94-6-105-8-129-33-27-26-27-28-16-95 6-37 16-131 22-208 12-147 23-200 43-207 29-10 549 11 563 23 16 13 19 55 5 64-6 3-7 90-4 220 5 166 3 218-7 230-10 13-41 15-194 13-99-1-227-4-283-7zm394-258c-5-126-10-179-19-185-7-4-81-8-164-8s-172-3-198-6l-46-7v65c0 35-7 117-15 183-11 94-12 121-2 127 6 4 111 8 231 8h219z"/>
  </g>
</svg>
