<?xml version="1.0"?>
<svg xmlns="http://www.w3.org/2000/svg" height="200pt" preserveAspectRatio="xMidYMid meet" viewBox="0 0 200 200" width="200pt">
  <g transform="matrix(.1 0 0 -.1 0 200)">
    <path d="m967 1736c-10-11-16-52-20-153-3-78-12-164-22-198-18-68-67-169-119-247-20-29-36-63-36-75 0-31 36-40 69-16 37 28 126 173 150 246l21 62 128 23c194 34 325 51 459 61 66 5 126 12 132 15 17 11 13 63-5 70-45 17-234 1-504-45-96-16-178-29-182-29s-4 60-1 133c5 117 4 135-11 150-21 21-40 22-59 3z"/>
    <path d="m266 1728c-23-13-20-54 6-91 40-58 186-242 206-261 31-27 66-18 70 19 2 26-14 52-102 163-58 73-110 141-116 151-12 23-42 32-64 19z"/>
    <path d="m1520 1223c-82-6-272-34-363-53-99-20-117-33-117-84 0-27-55-254-63-263-2-1-39-8-82-14-117-16-149-29-153-61-5-41 23-51 102-37 102 17 103 16 56-76-29-58-38-85-32-99s72-40 253-101c134-45 268-92 296-104l53-23-19-27c-37-51-102-111-120-111-10 0-24 7-31 16-41 48-86 30-69-29 17-63 85-100 140-76 37 15 119 94 155 149l26 39 104-52c113-56 136-57 142-4 3 22-4 31-41 54-24 16-71 41-104 57l-61 28 30 87c31 92 78 278 78 311 0 19 7 20 118 20 125 0 142 6 142 47 0 34-29 43-139 43h-100l6 168c7 203 7 203-95 200-37-1-87-3-112-5zm115-205c-3-68-9-130-11-140-4-14-23-17-117-20-62-2-114-2-116-1-2 2 5 54 17 116 12 61 22 120 22 129 0 18 26 25 115 31 28 2 61 4 74 5l23 2zm-290 75c-4-10-16-67-27-128-12-60-24-113-27-116-3-4-53-10-110-13l-104-7 7 23c3 13 16 69 28 125l23 101 85 15c121 21 134 21 125 0zm260-355c-14-72-47-197-71-269l-25-77-82 34c-45 18-88 34-96 34-9 0-11 8-8 23 3 12 16 79 28 149l23 127 45 4c25 2 79 4 119 5l74 2zm-328-5c-3-10-13-61-22-113-22-128-19-121-52-110-15 4-68 21-118 36-49 15-94 30-98 34-6 5 44 131 60 150 4 5 110 15 196 18 32 2 38-1 34-15z"/>
    <path d="m237 1143c-27-26 17-105 151-267 47-57 68-76 87-76 18 0 26 7 31 24 7 31-5 55-75 141-31 39-76 96-99 128-30 41-49 57-66 57-12 0-26-3-29-7z"/>
    <path d="m648 743c-39-45-150-298-233-532-4-9-17-3-45 23-22 20-48 36-58 36-23 0-42-19-42-41s100-114 139-127c46-16 65 8 107 128 20 58 69 190 110 294 41 105 74 199 72 210-4 27-30 31-50 9z"/>
  </g>
</svg>
