<?xml version="1.0"?>
<svg xmlns="http://www.w3.org/2000/svg" height="200pt" preserveAspectRatio="xMidYMid meet" viewBox="0 0 200 200" width="200pt">
  <g transform="matrix(.1 0 0 -.1 0 200)">
    <path d="m1287 1932c-15-17-17-55-17-339v-321l-60-7c-76-9-199-40-214-55-12-12-12-12-2-310 8-233 11-210-54-528-36-173-35-194 8-200 25-4 47 27 56 78 4 19 21 99 38 176l31 142 74 16c84 18 468 44 480 32 5-4 9-79 11-167l3-160-28 8c-15 4-44 8-63 8-29 0-36-4-38-22-2-13 5-29 17-39 30-26 132-65 161-62 55 7 57 36 30 593-5 105-9 261-10 347 0 204 9 195-192 179-77-6-145-14-149-17-5-3-9 137-9 310 0 303-1 317-20 336-25 25-32 25-53 2zm333-802v-90h-47c-57 0-307-33-411-53-54-11-74-12-77-3-2 6-6 45-10 87l-6 77 48 11c55 12 350 49 433 54 30 2 58 4 63 5 4 1 7-38 7-88zm0-239c0-32 3-85 6-118l6-59-199-13c-110-6-231-19-269-27-38-7-70-14-71-14-2 0-3 51-3 113v113l143 23c168 27 263 38 335 40l52 1z"/>
    <path d="m266 1728c-23-13-20-54 6-91 40-58 186-242 206-261 31-27 66-18 70 19 2 26-14 52-102 163-58 73-110 141-116 151-12 23-42 32-64 19z"/>
    <path d="m1593 1593c-108-166-129-209-113-228 31-38 66-9 153 125s108 179 96 201c-5 11-20 19-34 19-21 0-38-20-102-117z"/>
    <path d="m908 1635c-9-21-5-37 36-122 26-54 59-113 72-130 45-59 94-33 69 37-19 54-106 224-119 232-22 15-47 8-58-17z"/>
    <path d="m237 1143c-27-26 17-105 151-267 47-57 68-76 87-76 18 0 26 7 31 24 7 31-5 55-75 141-31 39-76 96-99 128-30 41-49 57-66 57-12 0-26-3-29-7z"/>
    <path d="m648 743c-39-45-150-298-233-532-4-9-17-3-45 23-22 20-48 36-58 36-23 0-42-19-42-41s100-114 139-127c46-16 65 8 107 128 20 58 69 190 110 294 41 105 74 199 72 210-4 27-30 31-50 9z"/>
  </g>
</svg>
