<?xml version="1.0"?>
<svg xmlns="http://www.w3.org/2000/svg" height="200pt" preserveAspectRatio="xMidYMid meet" viewBox="0 0 200 200" width="200pt">
  <g transform="matrix(.1 0 0 -.1 0 200)">
    <path d="m1128 1799c-16-9-18-26-14-188l5-178-97-12c-156-20-354-51-389-62-33-11-48-35-38-62 8-20 48-29 77-17 17 7 286 50 313 50 7 0-23-76-54-139-48-96-96-164-162-224-45-43-60-62-57-79 2-17 10-24 34-26 23-2 42 7 82 38 29 23 53 47 53 53 1 7 5-15 9-48s5-191 2-350c-4-215-2-296 7-313 15-28 56-29 71-3 12 24 13 632 0 741-8 73-8 75 30 150 20 41 47 105 59 142 21 62 25 68 54 73 57 9 212 23 216 20 12-12-29-119-86-221-74-135-129-211-185-256-30-24-38-36-36-57 4-36 49-41 91-10l30 22 36-44c19-24 71-81 114-125l78-81-63-53c-69-58-155-118-205-144-42-21-46-61-8-78 21-9 33-7 75 15 55 29 192 130 229 171 14 14 29 26 34 26s37-24 70-53c34-30 84-69 111-87 62-42 271-150 290-150 7 0 24 8 37 19 21 17 22 20 9 39-8 12-69 49-135 83-125 64-185 102-272 177l-52 44 50 74c75 112 116 202 146 319 34 139 29 159-43 163-28 2-107-4-175-12-67-9-124-14-126-12s11 34 29 71c18 39 34 91 36 120l4 52 132 11c72 7 154 12 181 12 57 0 98 17 103 43 7 34-17 47-82 47-59 0-449-34-512-45l-32-5-4 171c-3 154-5 172-23 185-22 16-25 17-47 3zm482-748c0-10-5-32-11-49-9-25-15-31-32-27-31 6-226 34-264 37-103 9 98 53 260 57 39 1 47-2 47-18zm-141-146c47-8 87-17 89-20 5-5-35-76-93-162l-41-62-65 67c-102 105-149 163-149 185 0 19 4 20 88 13 48-3 125-13 171-21z"/>
    <path d="m266 1728c-23-13-20-54 6-91 40-58 186-242 206-261 31-27 66-18 70 19 2 26-14 52-102 163-58 73-110 141-116 151-12 23-42 32-64 19z"/>
    <path d="m237 1143c-27-26 17-105 151-267 47-57 68-76 87-76 18 0 26 7 31 24 7 31-5 55-75 141-31 39-76 96-99 128-30 41-49 57-66 57-12 0-26-3-29-7z"/>
    <path d="m648 743c-39-45-150-298-233-532-4-9-17-3-45 23-22 20-48 36-58 36-23 0-42-19-42-41s100-114 139-127c46-16 65 8 107 128 20 58 69 190 110 294 41 105 74 199 72 210-4 27-30 31-50 9z"/>
  </g>
</svg>
