<?xml version="1.0"?>
<svg xmlns="http://www.w3.org/2000/svg" height="200pt" preserveAspectRatio="xMidYMid meet" viewBox="0 0 200 200" width="200pt">
  <g transform="matrix(.1 0 0 -.1 0 200)">
    <path d="m266 1728c-23-13-20-54 6-91 40-58 186-242 206-261 31-27 66-18 70 19 2 26-14 52-102 163-58 73-110 141-116 151-12 23-42 32-64 19z"/>
    <path d="m1340 1704c-113-7-268-18-344-23-120-9-142-9-156 4-37 33-70 3-70-63 0-56 25-214 41-260 23-67 98-46 84 23-19 91-34 189-30 193 16 17 865 63 865 48 0-2-19-41-42-86-34-64-40-84-32-98 29-46 72-13 141 109 88 154 77 170-115 168-75-1-229-8-342-15z"/>
    <path d="m1345 1490c-25-28-25-127-1-199 39-115 134-171 287-171 82 0 109 12 109 50 0 28-25 37-121 42-104 5-143 25-179 89-19 34-25 59-25 110 0 91-29 124-70 79z"/>
    <path d="m1123 1488c-5-7-15-42-21-76-15-84-51-144-118-195-44-34-54-47-52-67 3-21 9-26 38-28 68-6 173 102 205 212 15 51 20 122 9 150-7 19-48 21-61 4z"/>
    <path d="m237 1143c-27-26 17-105 151-267 47-57 68-76 87-76 18 0 26 7 31 24 7 31-5 55-75 141-31 39-76 96-99 128-30 41-49 57-66 57-12 0-26-3-29-7z"/>
    <path d="m1247 1083c-4-3-7-37-7-74v-67l-32-5c-18-3-73-9-123-13-104-8-125-16-125-49 0-47 34-51 222-29l47 6-10-39c-43-161-211-369-419-518-81-59-90-71-68-93 23-23 72-13 138 30 89 58 266 237 327 330 27 43 53 75 57 71 3-3 6-53 6-111 0-142 20-394 32-409 6-7 21-13 33-13 46 0 48 16 36 212-6 101-13 228-16 283l-5 100 42-50c117-139 386-394 464-441 23-13 59-25 80-27 33-2 39 1 42 19 2 14-9 30-35 50-85 64-314 273-397 363-76 81-196 231-196 244 0 2 57 9 128 16 70 7 137 14 150 17 30 6 50 48 32 69-15 18-58 19-203 3-59-6-110-8-113-5-4 4-9 30-12 59-2 29-9 59-14 66-11 13-50 17-61 5z"/>
    <path d="m648 743c-39-45-150-298-233-532-4-9-17-3-45 23-22 20-48 36-58 36-23 0-42-19-42-41s100-114 139-127c46-16 65 8 107 128 20 58 69 190 110 294 41 105 74 199 72 210-4 27-30 31-50 9z"/>
  </g>
</svg>
