<?xml version="1.0"?>
<svg xmlns="http://www.w3.org/2000/svg" height="200pt" preserveAspectRatio="xMidYMid meet" viewBox="0 0 200 200" width="200pt">
  <g transform="matrix(.1 0 0 -.1 0 200)">
    <path d="m1525 1789c-123-11-632-28-656-22-26 7-49-14-49-44 0-13 11-79 24-146 14-67 31-187 38-266 11-126 15-145 33-156 16-10 60-11 210-4 105 5 261 8 349 7 146-2 159-1 172 17 8 10 14 34 14 52s14 139 30 270c17 130 30 243 30 250s-9 22-20 33c-22 22-28 22-175 9zm90-151c-3-35-8-75-11-91l-6-27-326 2-326 3-17 78-17 77 202 1c110 1 235 5 276 9s110 7 153 8l79 2zm-31-209c2-2-1-43-6-90l-11-87-206-6c-113-3-245-9-292-12l-87-5-6 63c-4 35-9 80-12 100l-6 37 54 4c65 6 566 2 572-4z"/>
    <path d="m266 1728c-23-13-20-54 6-91 40-58 186-242 206-261 31-27 66-18 70 19 2 26-14 52-102 163-58 73-110 141-116 151-12 23-42 32-64 19z"/>
    <path d="m237 1143c-27-26 17-105 151-267 47-57 68-76 87-76 18 0 26 7 31 24 7 31-5 55-75 141-31 39-76 96-99 128-30 41-49 57-66 57-12 0-26-3-29-7z"/>
    <path d="m841 1006c-18-22-3-743 16-762 23-23 48-16 111 30 57 42 85 84 75 114-7 18-41 14-75-9-16-12-31-19-33-17s-7 89-11 194l-7 191 39 1c43 2 272 66 287 81 5 5 7 21 5 37-4 42-29 41-184-1-74-20-139-33-144-30-6 3-10 41-10 84 0 46-5 82-12 89-16 16-43 15-57-2z"/>
    <path d="m1369 998c-8-14-13-113-16-292-4-223-2-284 11-346 33-153 66-164 404-131 64 6 89 13 104 29 20 19 20 24 9 99-17 109-29 143-51 143-24 0-30-19-30-104v-73l-135-13c-88-9-146-10-167-4-30 9-34 14-45 68-6 32-14 126-18 207l-8 149h26c28 0 328 84 358 101 33 17 41 45 20 70l-18 23-154-47c-85-26-169-50-187-54l-34-6 3 89c2 49 0 95-4 102-13 20-55 14-68-10z"/>
    <path d="m648 743c-39-45-150-298-233-532-4-9-17-3-45 23-22 20-48 36-58 36-23 0-42-19-42-41s100-114 139-127c46-16 65 8 107 128 20 58 69 190 110 294 41 105 74 199 72 210-4 27-30 31-50 9z"/>
  </g>
</svg>
