<?xml version="1.0"?>
<svg xmlns="http://www.w3.org/2000/svg" height="200pt" preserveAspectRatio="xMidYMid meet" viewBox="0 0 200 200" width="200pt">
  <g transform="matrix(.1 0 0 -.1 0 200)">
    <path d="m1250 1891c-5-11-10-58-10-105v-85l-32-6c-18-3-78-12-133-20-135-21-179-53-122-89 19-12 33-12 97-1 41 8 103 17 136 20l61 7 8-47c4-31 3-50-4-54-6-4-53-13-103-20-119-17-154-44-109-86 19-16 25-16 114-1 52 9 97 16 101 16 3 0 6-15 6-32v-33l-138-27c-167-32-301-74-309-95-3-9-2-23 4-32 14-22 69-19 168 8 163 44 293 61 555 72 140 6 265 12 277 15 31 6 39 41 16 66-17 19-25 20-198 14-99-4-204-9-232-13l-53-5v35c0 41-1 40 135 52 73 6 95 17 95 45 0 36-25 43-129 37-109-6-111-5-111 65 0 34 1 34 183 49 148 12 177 21 177 54 0 19-28 45-48 45-9 0-80-7-157-15s-146-15-152-15c-9 0-13 22-13 78 0 54-5 84-16 100-19 27-50 29-64 3z"/>
    <path d="m266 1728c-23-13-20-54 6-91 40-58 186-242 206-261 31-27 66-18 70 19 2 26-14 52-102 163-58 73-110 141-116 151-12 23-42 32-64 19z"/>
    <path d="m1360 1169c-163-8-286-25-309-43-11-9-12-46-7-211 6-155 4-224-8-305-18-127-58-305-84-381-22-61-16-79 23-79 47 0 75 65 115 270 13 63 28 120 34 126 14 14 292 44 407 44h86l11-127c7-71 14-160 16-200 3-71 3-72-18-61-11 6-38 24-58 40-37 29-68 34-75 12-6-17 72-110 119-144 45-33 88-39 108-15 19 22 24 143 11 265-9 94-31 412-47 688-4 70-11 107-21 117-16 17-47 17-303 4zm234-116c3-21 6-54 6-74v-36l-82-7c-46-3-150-16-231-27-81-12-149-20-151-18s-6 41-10 85l-6 82 27 7c28 7 233 20 369 23l71 2zm10-219c3-9 6-46 6-83v-68l-122-6c-108-6-177-12-320-32l-38-5v80c0 44 3 80 8 81 4 0 79 11 167 24 199 29 290 31 299 9z"/>
    <path d="m237 1143c-27-26 17-105 151-267 47-57 68-76 87-76 18 0 26 7 31 24 7 31-5 55-75 141-31 39-76 96-99 128-30 41-49 57-66 57-12 0-26-3-29-7z"/>
    <path d="m648 743c-39-45-150-298-233-532-4-9-17-3-45 23-22 20-48 36-58 36-23 0-42-19-42-41s100-114 139-127c46-16 65 8 107 128 20 58 69 190 110 294 41 105 74 199 72 210-4 27-30 31-50 9z"/>
  </g>
</svg>
