<?xml version="1.0"?>
<svg xmlns="http://www.w3.org/2000/svg" height="200pt" preserveAspectRatio="xMidYMid meet" viewBox="0 0 200 200" width="200pt">
  <g transform="matrix(.1 0 0 -.1 0 200)">
    <path d="m1120 1885c-9-11-10-41-5-113l7-98-147-36c-154-38-195-57-195-87 0-38 25-45 95-26l65 18 52-50c29-27 75-62 102-78l49-29-29-24c-115-95-243-179-401-262-107-57-124-78-82-101 27-14 134 23 231 80l66 39 6-32c20-115 28-260 23-416-6-203-29-312-96-455-41-87-43-110-11-120 31-10 51 7 84 74 59 118 92 237 105 383 5 49 11 91 13 94 14 13 200 37 340 42l156 7 6-100c3-55 7-164 9-243l4-143-21 16c-66 47-106 53-106 14 0-25 147-179 170-179 44 0 44 9 31 418-7 213-16 455-21 537-4 83-7 151-7 152 1 1 40-10 87-23 47-14 115-30 153-36 58-11 69-10 83 4 19 19 11 53-14 63-9 4-67 20-128 35-126 32-256 81-397 152-110 55-107 43-34 128 22 25 51 65 65 90s30 48 35 51c5 4 63 9 130 13s127 12 134 18c20 16 15 46-9 61-27 16-171 9-377-17-68-9-125-15-127-13s-8 43-13 90c-5 48-14 94-21 102-16 19-44 19-60 0zm221-282c-5-10-37-48-71-86l-62-67-57 31c-63 35-116 77-108 86 6 5 256 51 290 52 14 1 16-3 8-16zm46-330 142-68 1-71v-71l-97-7c-54-4-165-15-248-26-82-10-151-17-153-15-4 4-31 149-28 151 13 8 139 106 172 135 25 21 51 39 57 39 7 0 76-30 154-67zm153-392v-98l-132-7c-73-4-178-14-232-22-55-8-105-14-111-14-8 0-15 31-20 91-3 50-5 92-3 94 5 5 344 44 413 48 33 2 66 4 73 5 9 2 12-23 12-97z"/>
    <path d="m266 1728c-23-13-20-54 6-91 40-58 186-242 206-261 31-27 66-18 70 19 2 26-14 52-102 163-58 73-110 141-116 151-12 23-42 32-64 19z"/>
    <path d="m237 1143c-27-26 17-105 151-267 47-57 68-76 87-76 18 0 26 7 31 24 7 31-5 55-75 141-31 39-76 96-99 128-30 41-49 57-66 57-12 0-26-3-29-7z"/>
    <path d="m648 743c-39-45-150-298-233-532-4-9-17-3-45 23-22 20-48 36-58 36-23 0-42-19-42-41s100-114 139-127c46-16 65 8 107 128 20 58 69 190 110 294 41 105 74 199 72 210-4 27-30 31-50 9z"/>
  </g>
</svg>
