<?xml version="1.0"?>
<svg xmlns="http://www.w3.org/2000/svg" height="200pt" preserveAspectRatio="xMidYMid meet" viewBox="0 0 200 200" width="200pt">
  <g transform="matrix(.1 0 0 -.1 0 200)">
    <path d="m1396 1844c-13-13-16-44-16-179v-164l-52-5c-121-12-427-27-450-21-41 11-52-13-39-92 25-169 20-409-15-688-26-207-52-281-140-398-53-70-58-91-24-102 65-21 177 133 220 301 36 141 54 342 54 625l1 266 224 12c122 7 224 11 226 9s10-127 19-278 21-316 27-366c9-81 46-250 64-296 4-11-13-36-59-86-67-71-81-104-48-120 25-14 55 1 102 48 23 23 43 40 44 38 1-1 11-23 21-48s32-65 48-88c108-162 148-153 250 55 50 104 56 144 22 157-21 8-50-27-103-126-26-48-50-88-53-88-12 0-69 96-94 159l-26 62 44 67c102 154 125 214 92 242-17 14-51 5-59-17-12-30-100-173-107-173-3 0-9 12-12 28-4 15-13 59-21 98-15 69-38 333-52 600l-6 131 23 6c13 4 94 7 179 7 165 0 180 4 180 47 0 41-30 46-216 40l-171-6-7 61c-3 34-6 107-6 164 0 80-3 106-16 118-8 9-19 16-24 16s-16-7-24-16z"/>
    <path d="m1640 1785c-21-25-3-59 65-124 52-50 70-62 92-59 22 2 29 9 31 31 3 24-8 39-69 98-73 70-97 81-119 54z"/>
    <path d="m266 1728c-23-13-20-54 6-91 40-58 186-242 206-261 31-27 66-18 70 19 2 26-14 52-102 163-58 73-110 141-116 151-12 23-42 32-64 19z"/>
    <path d="m237 1143c-27-26 17-105 151-267 47-57 68-76 87-76 18 0 26 7 31 24 7 31-5 55-75 141-31 39-76 96-99 128-30 41-49 57-66 57-12 0-26-3-29-7z"/>
    <path d="m1210 1145c-8-2-49-9-90-15-84-13-120-31-120-59 0-39 23-44 121-27 51 9 109 16 128 16 57 0 81 10 87 36 9 37-12 54-65 53-25-1-53-3-61-4z"/>
    <path d="m1095 848c-38-5-77-13-85-17-13-7-15-39-12-207 3-258-1-250 138-245 221 8 215 0 217 265 2 165 0 198-13 206-18 12-149 10-245-2zm170-284-7-91-81-6c-45-3-83-5-84-4 0 1-7 64-14 140-8 94-9 141-2 148 6 6 50 14 99 17l89 7 3-60c2-33 1-101-3-151z"/>
    <path d="m648 743c-39-45-150-298-233-532-4-9-17-3-45 23-22 20-48 36-58 36-23 0-42-19-42-41s100-114 139-127c46-16 65 8 107 128 20 58 69 190 110 294 41 105 74 199 72 210-4 27-30 31-50 9z"/>
  </g>
</svg>
