<?xml version="1.0"?>
<svg xmlns="http://www.w3.org/2000/svg" height="200pt" preserveAspectRatio="xMidYMid meet" viewBox="0 0 200 200" width="200pt">
  <g transform="matrix(.1 0 0 -.1 0 200)">
    <path d="m1157 1740c-183-8-284-25-297-51-10-18 5-401 20-514 6-47 15-74 27-83 15-12 76-13 358-7 447 10 436 9 451 29 7 10 15 59 18 109 3 51 11 171 17 268 12 185 9 208-29 228-18 10-294 32-360 29-20 0-112-4-205-8zm422-90c46-5 86-11 88-13 2-3 1-40-3-84l-7-80-231-6c-209-6-396-19-452-32-20-4-21 0-27 97-4 56-4 104-2 107 17 16 513 25 634 11zm70-327c0-32-3-76-7-98l-7-40-330-12c-181-7-331-10-334-7-3 2-7 45-9 93l-4 89 43 7c98 13 265 22 452 24l197 1z"/>
    <path d="m266 1728c-23-13-20-54 6-91 40-58 186-242 206-261 31-27 66-18 70 19 2 26-14 52-102 163-58 73-110 141-116 151-12 23-42 32-64 19z"/>
    <path d="m237 1143c-27-26 17-105 151-267 47-57 68-76 87-76 18 0 26 7 31 24 7 31-5 55-75 141-31 39-76 96-99 128-30 41-49 57-66 57-12 0-26-3-29-7z"/>
    <path d="m1325 949c-132-11-362-47-402-64-48-20-50-46-15-223 35-178 57-330 48-339-3-3-56-10-118-15-149-11-156-13-164-45-11-43 17-56 106-49 363 27 711 31 1057 10l101-6 17 26c17 25 17 28 1 45-14 15-38 20-125 26l-107 7 48 231c55 268 63 354 34 386-18 20-28 21-200 20-100-1-226-5-281-10zm405-106c0-29-45-264-81-420l-21-93h-59c-32 0-60 3-62 8-3 4-8 125-12 270l-7 262h121 121zm-327-125c4-79 7-195 7-260v-116l-61-7c-33-4-63-5-66-2s-11 69-19 147c-7 77-18 174-23 216-6 41-11 93-11 114 0 45 5 47 101 49l66 1zm-249-25c15-132 36-356 32-359 0-1-31-4-67-8l-66-6-13 97c-6 54-25 161-41 237-16 77-28 144-26 150 3 9 94 31 148 35 12 1 18-26 33-146z"/>
    <path d="m648 743c-39-45-150-298-233-532-4-9-17-3-45 23-22 20-48 36-58 36-23 0-42-19-42-41s100-114 139-127c46-16 65 8 107 128 20 58 69 190 110 294 41 105 74 199 72 210-4 27-30 31-50 9z"/>
  </g>
</svg>
