<?xml version="1.0"?>
<svg xmlns="http://www.w3.org/2000/svg" height="200pt" preserveAspectRatio="xMidYMid meet" viewBox="0 0 200 200" width="200pt">
  <g transform="matrix(.1 0 0 -.1 0 200)">
    <path d="m1755 1910c-4-6-8-320-10-698-3-378-8-749-12-825l-8-138-48 37c-43 34-49 36-63 22-25-24-9-56 63-125 67-65 99-77 124-47 19 23 29 311 35 977 5 571-1 762-27 793-13 16-45 19-54 4z"/>
    <path d="m1015 1755c-49-7-111-14-137-14-89-2-96-27-75-271 10-102 22-273 27-380 26-497 16-456 109-447 31 3 115 11 186 17 72 7 140 16 153 21 29 11 39 36 24 60-8 13-12 90-13 236-2 448-13 759-28 776-16 21-110 21-246 2zm169-121c3-26 6-72 6-104v-56l-117-14c-65-7-131-13-148-14l-30-1-12 99c-7 55-11 101-10 103 5 5 218 31 263 32l41 1zm9-371 5-113h-72c-39-1-101-7-138-14-48-9-68-10-69-2-1 6-4 57-8 113l-6 102 60 11c75 14 219 27 222 20 1-3 3-56 6-117zm7-348c0-179 19-156-148-175-57-6-106-9-109-7-2 3-6 47-9 98-2 52-6 120-8 151l-4 57 67 10c76 12 120 17 174 19l37 2z"/>
    <path d="m266 1728c-23-13-20-54 6-91 40-58 186-242 206-261 31-27 66-18 70 19 2 26-14 52-102 163-58 73-110 141-116 151-12 23-42 32-64 19z"/>
    <path d="m1420 1486c-5-15-5-92 0-198 5-95 10-225 10-289 0-99 3-118 18-132 26-23 39-21 58 9 16 23 16 48 5 312-7 158-17 295-22 304-15 27-58 23-69-6z"/>
    <path d="m237 1143c-27-26 17-105 151-267 47-57 68-76 87-76 18 0 26 7 31 24 7 31-5 55-75 141-31 39-76 96-99 128-30 41-49 57-66 57-12 0-26-3-29-7z"/>
    <path d="m648 743c-39-45-150-298-233-532-4-9-17-3-45 23-22 20-48 36-58 36-23 0-42-19-42-41s100-114 139-127c46-16 65 8 107 128 20 58 69 190 110 294 41 105 74 199 72 210-4 27-30 31-50 9z"/>
    <path d="m862 442c-20-18-112-226-112-254 0-27 27-42 55-30 37 17 132 225 120 263-10 31-40 41-63 21z"/>
    <path d="m1155 430c-9-28 0-39 88-120 63-57 84-71 105-68 21 2 28 9 30 29 4 37-144 179-187 179-21 0-32-6-36-20z"/>
  </g>
</svg>
