<?xml version="1.0"?>
<svg xmlns="http://www.w3.org/2000/svg" height="200pt" preserveAspectRatio="xMidYMid meet" viewBox="0 0 200 200" width="200pt">
  <g transform="matrix(.1 0 0 -.1 0 200)">
    <path d="m1462 1848c-7-7-12-39-12-72 0-34-4-66-8-73-5-9-227-43-277-43-1 0-5 34-7 76-6 90-22 114-63 96-24-11-25-15-25-100v-88l-110-18c-116-19-139-33-125-76 9-28 32-31 119-15 117 22 114 23 120-37 3-29 7-77 8-107l3-53-143-29c-78-16-158-36-177-44-38-15-46-43-19-66 13-11 42-8 177 19 88 17 162 30 164 28 9-8-56-156-92-212-21-32-73-92-114-132-68-66-73-74-59-89 12-12 26-14 55-9 30 6 53 23 108 79 78 81 131 172 174 300l28 82 89 12c49 6 108 12 130 12l42 1 36-76c48-102 146-200 278-278 99-59 122-64 142-33 17 27 0 45-123 127-117 79-189 151-222 225l-18 40 182 5c100 3 188 9 195 13 18 12 15 41-6 60-16 15-45 17-200 17h-182v104c0 122-7 116 136 116 56 0 94 4 102 12 19 19 14 46-13 64-21 14-43 16-125 11l-100-5v72c0 73-10 96-40 96-9 0-21-5-28-12zm-22-356v-109l-127-15c-71-9-130-14-132-12-6 5-24 205-19 210 5 4 210 31 256 33 22 1 22-1 22-107z"/>
    <path d="m266 1728c-23-13-20-54 6-91 40-58 186-242 206-261 31-27 66-18 70 19 2 26-14 52-102 163-58 73-110 141-116 151-12 23-42 32-64 19z"/>
    <path d="m237 1143c-27-26 17-105 151-267 47-57 68-76 87-76 18 0 26 7 31 24 7 31-5 55-75 141-31 39-76 96-99 128-30 41-49 57-66 57-12 0-26-3-29-7z"/>
    <path d="m1375 934c-159-19-280-47-307-71-10-9-18-27-18-39 0-32 36-40 92-20 64 21 242 46 332 46 42 0 76-1 76-2 0-2-6-35-14-75-7-40-12-74-9-77 6-6-49-13-222-31-214-21-368-46-385-62-12-11-16-48-18-186-3-198 4-226 72-264 84-46 228-53 640-28 203 12 241 17 258 32 19 17 20 27 16 138-6 131-37 247-69 253-25 5-29-18-17-129 11-119 5-186-20-193-9-2-131-10-270-17-292-14-425-9-480 18l-37 18-3 146-3 147 63 11c35 6 162 20 283 32s230 25 243 30c12 5 22 17 22 28s11 67 25 125c41 175 40 177-113 175-59-1-120-4-137-5z"/>
    <path d="m648 743c-39-45-150-298-233-532-4-9-17-3-45 23-22 20-48 36-58 36-23 0-42-19-42-41s100-114 139-127c46-16 65 8 107 128 20 58 69 190 110 294 41 105 74 199 72 210-4 27-30 31-50 9z"/>
  </g>
</svg>
