<?xml version="1.0"?>
<svg xmlns="http://www.w3.org/2000/svg" height="200pt" preserveAspectRatio="xMidYMid meet" viewBox="0 0 200 200" width="200pt">
  <g transform="matrix(.1 0 0 -.1 0 200)">
    <path d="m266 1728c-23-13-20-54 6-91 40-58 186-242 206-261 31-27 66-18 70 19 2 26-14 52-102 163-58 73-110 141-116 151-12 23-42 32-64 19z"/>
    <path d="m1496 1686c-111-17-120-30-113-156 4-52 11-140 18-195 17-152 4-702-21-873-32-213-27-262 27-262 26 0 43 27 43 69 0 17 9 93 20 168 10 76 22 190 26 254l7 117 36 6c20 3 83 6 140 6h104l-7-247c-4-137-9-260-12-275l-5-27-34 20c-29 18-34 18-48 5-9-10-13-25-9-38 6-26 122-148 140-148 7 0 20 8 31 19 17 17 19 44 25 312 4 162 11 402 17 534 5 132 9 339 9 460 0 184-3 224-16 243-14 21-21 22-157 21-78-1-177-6-221-13zm302-223-3-148-150-3-151-2-12 102c-7 57-12 122-12 145v42l43 4c23 2 97 4 165 5l123 2zm-8-393c0-112-3-152-12-155-7-2-73-5-145-8l-133-4v159 158h145 145z"/>
    <path d="m962 1608c-9-9-12-70-12-214v-203l-57-11c-102-20-202-52-219-71-21-23-10-57 21-65 13-3 46 1 72 10s78 22 116 30l67 14v-118c0-131 1-130-76-130-18 0-43-11-62-26-40-33-40-47-8-243 14-80 28-171 31-201 4-30 11-66 16-79l9-23 138 7c164 8 210 18 222 48 13 32 30 263 30 398 0 151-3 155-125 145l-85-6v119 120l43 6c23 3 93 12 156 19 89 10 117 17 128 31 11 16 11 22-1 39-17 27-85 31-222 13l-101-13-7 189c-3 104-11 197-16 208-12 21-40 25-58 7zm195-965c-4-82-10-173-13-204l-7-56-99-7c-55-3-103-4-107-1-5 2-11 33-15 67-4 35-17 119-30 188-17 90-20 127-12 132 6 4 34 8 61 9 28 0 75 4 105 9 30 4 70 8 89 9l34 1z"/>
    <path d="m237 1143c-27-26 17-105 151-267 47-57 68-76 87-76 18 0 26 7 31 24 7 31-5 55-75 141-31 39-76 96-99 128-30 41-49 57-66 57-12 0-26-3-29-7z"/>
    <path d="m648 743c-39-45-150-298-233-532-4-9-17-3-45 23-22 20-48 36-58 36-23 0-42-19-42-41s100-114 139-127c46-16 65 8 107 128 20 58 69 190 110 294 41 105 74 199 72 210-4 27-30 31-50 9z"/>
  </g>
</svg>
