<?xml version="1.0"?>
<svg xmlns="http://www.w3.org/2000/svg" height="200pt" preserveAspectRatio="xMidYMid meet" viewBox="0 0 200 200" width="200pt">
  <g transform="matrix(.1 0 0 -.1 0 200)">
    <path d="m1068 1766c-70-7-113-16-122-26-13-13-13-29-1-125 7-60 17-159 21-219 6-99 9-112 34-139l27-30 99 11c54 7 180 17 279 23s200 11 225 13c60 4 90 21 90 52 0 13-7 27-15 30-13 5-15 35-13 198 2 152 0 196-11 209-12 15-41 17-260 16-135-1-294-7-353-13zm532-130v-53l-152-7c-150-7-327-21-379-32-26-5-27-3-33 57-4 33-5 64-1 67 11 11 151 19 358 21l207 1zm-2-208-3-63-75-7c-41-4-142-12-225-18-82-6-168-13-191-16l-41-6-6 63c-4 42-2 66 5 71 20 12 286 34 451 36l88 2z"/>
    <path d="m266 1728c-23-13-20-54 6-91 40-58 186-242 206-261 31-27 66-18 70 19 2 26-14 52-102 163-58 73-110 141-116 151-12 23-42 32-64 19z"/>
    <path d="m1740 1153c-30-2-185-17-345-34-159-17-371-39-470-48s-186-20-193-25c-6-4-12-18-12-30 0-43 19-48 151-41l122 8-6-84c-7-98-28-164-92-289-26-49-45-97-41-105 18-48 106 32 162 148 19 39 34 77 34 84 0 9 20 13 70 13 39 0 70-1 70-2 0-2-11-45-25-96-33-122-79-221-156-331-60-88-70-121-34-121 95 0 227 214 287 463l22 95 44 6c61 8 102 8 102-2 0-4-12-73-26-152-30-172-49-229-121-379-52-106-55-115-38-127 39-28 86 15 141 131 59 124 79 194 111 380l28 160 40 7c22 4 72 7 111 7 85 1 84 4 84-135 0-172-74-494-114-494-6 0-26 9-44 20-39 24-70 26-79 4-16-43 64-113 141-121 44-5 45-5 66 38 73 142 120 362 120 557 0 102-4 135-19 168-10 23-25 45-32 50-18 11-168 7-359-11-85-8-202-17-260-21l-105-6 5 78c4 70 7 79 25 81 127 16 625 63 666 63 60 0 99 20 99 50 0 26-27 50-53 48-12-1-47-3-77-5z"/>
    <path d="m237 1143c-27-26 17-105 151-267 47-57 68-76 87-76 18 0 26 7 31 24 7 31-5 55-75 141-31 39-76 96-99 128-30 41-49 57-66 57-12 0-26-3-29-7z"/>
    <path d="m648 743c-39-45-150-298-233-532-4-9-17-3-45 23-22 20-48 36-58 36-23 0-42-19-42-41s100-114 139-127c46-16 65 8 107 128 20 58 69 190 110 294 41 105 74 199 72 210-4 27-30 31-50 9z"/>
  </g>
</svg>
