<?xml version="1.0"?>
<svg xmlns="http://www.w3.org/2000/svg" height="200pt" preserveAspectRatio="xMidYMid meet" viewBox="0 0 200 200" width="200pt">
  <g transform="matrix(.1 0 0 -.1 0 200)">
    <path d="m1507 1816c-9-10-16-50-20-126-3-62-7-113-9-115-2-1-78-5-169-8l-167-6-6 31c-3 17-6 64-6 105 0 86-11 113-45 113-40 0-48-31-41-145l7-102-38-6c-21-4-56-7-77-7-22 0-68-5-103-11-71-12-92-33-72-70 10-20 16-21 73-15 33 4 97 9 142 13l81 6 6-48c4-26 7-87 7-136v-88l-32-5c-114-18-132-22-142-38-8-13-8-23 0-35 13-21 49-22 244-9l125 8 3-115 3-114-133-7c-208-10-310-25-332-46-18-18-18-26-7-207 14-214 29-400 37-456 7-46 42-69 70-46 14 11 16 26 11 94-4 44-13 170-22 280-8 110-17 216-21 237-5 35-5 36 33 42 21 3 83 8 138 11s128 8 163 11l62 6v-165-165l-77-11c-42-6-77-10-78-9-2 2-12 39-23 83-11 45-26 84-36 90-23 15-50-6-54-41-3-45 41-216 60-227 11-8 36-6 85 6 38 9 158 22 266 28 177 11 197 10 212-5 20-19 26-20 49-3 16 12 18 29 17 152-2 140-8 165-40 165-33 0-41-22-41-116v-91l-67-6c-38-4-94-7-125-7h-58v78c0 42-3 114-7 160l-6 82 214-2 214-3 3-272c1-150-1-273-4-273-4 0-22 9-40 21-37 22-54 19-54-13 0-67 141-150 179-105 14 18 16 615 2 671-5 21-15 44-21 50-7 7-90 12-250 14l-239 3-3 110-3 110 182-2c193-3 217 2 211 44-4 27-22 35-100 42l-68 7v140 140l134-3c140-4 166 3 166 41 0 37-26 44-166 44l-134 1v116c0 114-7 139-36 139-7 0-19-6-27-14zm-27-443c0-65 3-128 6-140 6-21 5-22-158-25-89-2-164-3-164-3-1 0-3 61-5 135l-4 135 130 5c72 3 145 7 163 8l32 2z"/>
    <path d="m266 1728c-23-13-20-54 6-91 40-58 186-242 206-261 31-27 66-18 70 19 2 26-14 52-102 163-58 73-110 141-116 151-12 23-42 32-64 19z"/>
    <path d="m237 1143c-27-26 17-105 151-267 47-57 68-76 87-76 18 0 26 7 31 24 7 31-5 55-75 141-31 39-76 96-99 128-30 41-49 57-66 57-12 0-26-3-29-7z"/>
    <path d="m648 743c-39-45-150-298-233-532-4-9-17-3-45 23-22 20-48 36-58 36-23 0-42-19-42-41s100-114 139-127c46-16 65 8 107 128 20 58 69 190 110 294 41 105 74 199 72 210-4 27-30 31-50 9z"/>
  </g>
</svg>
