<?xml version="1.0"?>
<svg xmlns="http://www.w3.org/2000/svg" height="200pt" preserveAspectRatio="xMidYMid meet" viewBox="0 0 200 200" width="200pt">
  <g transform="matrix(.1 0 0 -.1 0 200)">
    <path d="m1605 1819c-66-4-204-15-307-24-104-9-241-18-305-20-140-4-146-8-132-95 5-30 12-161 15-290 7-253-12-593-42-752-31-169-109-411-161-499-29-48 7-85 52-55 72 47 185 400 214 666 32 301 37 701 11 880-4 30-7 56-6 56 0 1 65 5 143 8l141 7 7-93c4-51 5-115 3-143l-3-49-81-12c-160-22-158-19-139-164 8-58 17-136 20-173 6-63 9-70 38-88 28-16 44-18 129-12 80 5 98 3 98-8 0-8 5-45 10-84 5-38 16-182 25-320 9-137 20-276 24-308 8-56 7-58-13-52-45 14-74 16-80 6-14-22 6-50 59-86 30-19 57-40 60-45 10-16 51-12 66 6 11 13 10 44-4 177-10 89-24 259-32 377-9 118-20 244-25 280-5 35-7 66-5 68 2 3 55 6 117 9 137 5 148 7 177 32 20 17 25 40 42 168 32 257 31 263-72 263-39 0-125-5-191-11-65-6-121-9-123-7-3 2-7 65-11 140l-7 137 34 5c19 3 117 10 218 16 183 10 211 16 211 49-1 45-23 50-175 40zm41-496c-3-21-6-46-6-55 0-15-9-18-47-18-27 0-145-9-263-20-228-21-230-20-230 27 0 12-3 28-6 36-6 17 55 29 251 47 66 6 129 13 140 14 11 2 53 4 94 5l74 1zm-24-200-4-39-221-17c-299-23-277-25-277 22v39l53 6c98 11 435 33 447 29 3-1 4-19 2-40z"/>
    <path d="m266 1728c-23-13-20-54 6-91 40-58 186-242 206-261 31-27 66-18 70 19 2 26-14 52-102 163-58 73-110 141-116 151-12 23-42 32-64 19z"/>
    <path d="m237 1143c-27-26 17-105 151-267 47-57 68-76 87-76 18 0 26 7 31 24 7 31-5 55-75 141-31 39-76 96-99 128-30 41-49 57-66 57-12 0-26-3-29-7z"/>
    <path d="m648 743c-39-45-150-298-233-532-4-9-17-3-45 23-22 20-48 36-58 36-23 0-42-19-42-41s100-114 139-127c46-16 65 8 107 128 20 58 69 190 110 294 41 105 74 199 72 210-4 27-30 31-50 9z"/>
    <path d="m1092 609c-9-17-47-81-84-141-69-112-81-151-52-162 27-11 63 21 115 102 81 125 104 178 91 207-16 35-49 32-70-6z"/>
    <path d="m1642 628c-22-22-12-49 51-131 34-45 91-124 127-177 69-100 98-120 120-81 8 16 7 28-6 53-42 82-208 306-247 333-26 18-30 18-45 3z"/>
  </g>
</svg>
