<?xml version="1.0"?>
<svg xmlns="http://www.w3.org/2000/svg" height="200pt" preserveAspectRatio="xMidYMid meet" viewBox="0 0 200 200" width="200pt">
  <g transform="matrix(.1 0 0 -.1 0 200)">
    <path d="m917 1888c-42-66-127-145-240-223-89-62-108-85-87-110 20-24 42-18 128 34 78 47 82 48 87 28 21-97 37-215 47-342 8-114 15-154 28-168 15-17 27-16 271 8 139 14 324 29 409 32s163 10 173 15c20 10 23 48 5 66-16 16-135 15-340-4-94-8-173-13-175-10-3 3-6 22-7 43l-1 38 98 11c100 12 127 23 127 54 0 38-25 44-128 32-53-6-98-9-100-7-3 2-5 21-6 42l-1 38 125 8c168 10 194 16 198 45 7 48-12 55-133 48-60-4-131-9-157-13l-48-6v51c0 35 4 52 15 56 8 3 92 11 186 18 161 12 172 14 187 35 13 21 13 25-4 44-16 18-27 20-84 15-36-3-105-8-153-12l-89-6 31 59c36 67 39 98 12 113-30 16-50 2-78-54-14-28-38-69-54-92l-27-40-104-12c-151-18-146-19-98 36 69 78 95 143 68 170-24 24-47 12-81-40zm193-298c0-48-1-49-32-54-18-3-62-11-97-17-34-5-64-9-66-7s-7 26-13 55l-9 52 41 5c23 3 52 7 66 10 14 2 44 4 68 5l42 1zm10-180c0-25-5-40-12-41-7 0-48-6-90-13-85-14-88-12-88 44 0 27 3 29 63 38 34 5 77 10 95 11 31 1 32 0 32-39zm4-146c3-9 6-26 6-39 0-26-10-30-122-40l-68-7v41 40l48 6c26 4 52 8 57 10 29 10 73 4 79-11z"/>
    <path d="m266 1851c-29-32-5-56 124-121 127-64 154-70 168-42 20 36-4 59-128 121-67 34-127 61-134 61s-21-9-30-19z"/>
    <path d="m270 1541c-15-29 19-61 117-111 97-49 126-48 121 3-3 29-12 37-88 79-92 52-133 60-150 29z"/>
    <path d="m511 1260c-276-144-330-193-259-231 16-9 29-4 71 23 29 19 107 65 175 104 154 86 202 125 186 151-6 10-17 19-25 20-8 2-74-29-148-67z"/>
    <path d="m970 1025c-10-12-11-41-7-113l7-97-153-18c-261-31-552-94-582-127-17-18-12-45 10-54 8-3 83 10 167 29 145 32 352 66 499 80l66 7 6-62c4-35 7-111 7-169 0-160 19-423 31-438 6-7 19-13 29-13 42 0 43 13 31 345-7 174-14 322-17 329-8 21 99 28 471 32 187 2 344 3 348 4 5 0 7 14 5 32-3 27-8 33-38 41-37 10-711 2-766-9l-32-6-7 94c-4 51-11 101-16 111-12 21-42 22-59 2z"/>
  </g>
</svg>
