<?xml version="1.0"?>
<svg xmlns="http://www.w3.org/2000/svg" height="200pt" preserveAspectRatio="xMidYMid meet" viewBox="0 0 200 200" width="200pt">
  <g transform="matrix(.1 0 0 -.1 0 200)">
    <path d="m1385 1779c-133-13-317-49-337-67-10-8-18-21-18-29 0-35-57-128-126-208-83-94-93-127-41-133s190 148 231 259l18 47 91 16c77 14 277 36 284 31 1 0-8-23-21-50-39-84-171-267-235-326l-61-56-142-17c-79-10-149-23-157-29-17-14-14-33 42-306 34-165 48-217 63-228 25-19 337-10 584 18 142 15 178 22 194 38 16 17 20 42 28 175 13 226 8 376-14 389-16 11-334-5-413-20l-30-6 27 29c63 69 197 285 217 350 26 81 26 96 3 117-20 19-45 19-187 6zm315-629c0-81 14-73-155-90-176-16-162-21-170 56-4 36-4 69 1 74 8 7 172 23 292 29l32 1zm-411-57c1-51 1-52-31-57-50-8-241-31-257-31-9 0-20 25-31 72l-17 71 31 6c17 3 87 10 156 17 69 6 127 13 130 16 8 8 18-39 19-94zm394-284c-4-4-67-13-140-21l-132-14-5 36c-3 19-8 61-11 93l-6 57 33 1c18 1 85 6 148 13l115 11 3-84c2-46-1-88-5-92zm-379 109c3-18 7-58 10-89l6-56-83-6c-45-4-109-7-143-7h-61l-13 75c-7 42-11 78-8 80 5 5 211 32 260 34 23 1 28-4 32-31z"/>
    <path d="m266 1728c-23-13-20-54 6-91 40-58 186-242 206-261 31-27 66-18 70 19 2 26-14 52-102 163-58 73-110 141-116 151-12 23-42 32-64 19z"/>
    <path d="m237 1143c-27-26 17-105 151-267 47-57 68-76 87-76 18 0 26 7 31 24 7 31-5 55-75 141-31 39-76 96-99 128-30 41-49 57-66 57-12 0-26-3-29-7z"/>
    <path d="m648 743c-39-45-150-298-233-532-4-9-17-3-45 23-22 20-48 36-58 36-23 0-42-19-42-41s100-114 139-127c46-16 65 8 107 128 20 58 69 190 110 294 41 105 74 199 72 210-4 27-30 31-50 9z"/>
    <path d="m903 522c-7-4-24-48-38-96-14-49-41-127-60-173-38-90-42-112-23-131 34-34 63-7 106 98 53 129 86 259 73 286-11 24-35 31-58 16z"/>
    <path d="m1060 481c-5-11-7-28-3-38 10-25 66-114 132-206 50-71 58-78 86-75 50 5 46 45-13 126-27 37-68 96-91 132-23 35-47 68-54 72-21 14-46 9-57-11z"/>
    <path d="m1329 444c-19-24 12-74 103-166 101-101 149-133 177-118 12 6 21 20 21 31 0 25-245 269-270 269-10 0-23-7-31-16z"/>
    <path d="m1650 446c-23-28-4-56 104-156 95-88 114-101 140-98 25 2 32 8 34 30 2 20-5 34-29 55-18 15-70 63-116 106-84 77-110 90-133 63z"/>
  </g>
</svg>
