<?xml version="1.0"?>
<svg xmlns="http://www.w3.org/2000/svg" height="200pt" preserveAspectRatio="xMidYMid meet" viewBox="0 0 200 200" width="200pt">
  <g transform="matrix(.1 0 0 -.1 0 200)">
    <path d="m1431 1818c-5-13-18-50-28-83l-18-60-174-7c-96-4-177-6-179-3-2 2-7 30-11 62-8 71-15 83-46 83-36 0-48-32-41-101l7-57-88-7c-48-4-96-9-105-11-26-8-33-42-12-65 16-18 26-19 125-13l108 7 11-29c22-58 82-101 121-89 28 9 23 43-13 84l-32 36 50 7c55 7 244 10 244 4 0-2-9-26-20-51-21-48-15-75 15-75 23 0 63 39 83 83 24 52 41 57 185 57 100 0 127 10 127 45 0 37-28 45-148 45h-109l16 60c18 69 10 93-32 98-20 3-29-2-36-20z"/>
    <path d="m266 1728c-23-13-20-54 6-91 40-58 186-242 206-261 31-27 66-18 70 19 2 26-14 52-102 163-58 73-110 141-116 151-12 23-42 32-64 19z"/>
    <path d="m1077 1325c-139-10-183-16-195-29-15-14-15-26 2-143 23-164 28-183 59-217l26-28 111 7 110 7v-45-44l-62-7c-117-13-151-34-127-78 10-19 17-20 101-13l90 7-7-34c-21-104-22-105-68-111-23-4-82-9-132-13-95-6-135-22-135-53 0-38 22-43 150-34 84 6 120 5 120-2 0-20-70-129-108-169-20-21-64-59-97-83-33-25-63-51-68-58-13-24 4-45 37-45 85 0 235 141 301 283 43 91 51 97 129 97 24 0 36-8 54-34 36-53 131-145 215-207 86-65 227-139 262-139 23 0 55 23 55 39 0 14-34 38-105 74-93 47-198 122-276 197-63 61-63 63-39 70 14 5 55 8 91 9 115 2 164 36 118 82-17 17-29 19-72 15-29-3-92-7-141-8l-90-3-27 45c-15 25-30 55-34 68-6 22-5 22 74 22 83 0 111 12 111 49 0 34-21 41-127 41h-103v40c0 51 14 55 166 47 107-5 115-4 125 15 6 11 16 92 22 180 10 138 9 163-4 186l-15 27-159 1c-88 1-240-4-338-11zm426-172c-2-54-6-103-8-110-4-12-50-20-151-26l-61-3-7 109c-3 59-4 112-1 118 4 5 57 9 120 9h113zm-319 50c3-21 6-72 6-114v-75l-95-10-95-9-5 30c-3 17-11 69-18 117l-13 87 75 4c42 1 90 4 107 5 29 2 32-1 38-35zm96-584c0-5-4-9-10-9-5 0-10 7-10 16 0 8 5 12 10 9 6-3 10-10 10-16z"/>
    <path d="m237 1143c-27-26 17-105 151-267 47-57 68-76 87-76 18 0 26 7 31 24 7 31-5 55-75 141-31 39-76 96-99 128-30 41-49 57-66 57-12 0-26-3-29-7z"/>
    <path d="m648 743c-39-45-150-298-233-532-4-9-17-3-45 23-22 20-48 36-58 36-23 0-42-19-42-41s100-114 139-127c46-16 65 8 107 128 20 58 69 190 110 294 41 105 74 199 72 210-4 27-30 31-50 9z"/>
  </g>
</svg>
