<?xml version="1.0"?>
<svg xmlns="http://www.w3.org/2000/svg" height="200pt" preserveAspectRatio="xMidYMid meet" viewBox="0 0 200 200" width="200pt">
  <g transform="matrix(.1 0 0 -.1 0 200)">
    <path d="m962 1888c-8-8-12-49-12-128v-115l-82-19c-103-23-118-30-118-61 0-38 30-48 92-31 29 8 65 17 81 20l27 6v-59-60l-42-11c-92-23-113-34-116-62-5-41 26-52 90-33 28 8 55 15 59 15s9-45 11-100c3-97 3-99-21-105-40-10-205-90-223-109-24-23-23-53 2-66 16-8 38-2 114 35 52 25 170 70 262 100s178 62 191 70c27 18 32 69 8 79-9 3-68-12-131-34l-115-39 3 96 3 97 64 13c74 15 91 26 91 59 0 31-33 39-100 25-28-6-53-11-55-11-3 0-5 27-5 59v59l63 11c34 5 86 13 115 17 78 10 107 48 60 78-20 12-36 12-118 0-52-8-101-16-107-19-10-3-13 14-14 63 0 37-4 90-7 117-6 44-10 50-32 53-14 2-31-3-38-10z"/>
    <path d="m266 1728c-23-13-20-54 6-91 40-58 186-242 206-261 31-27 66-18 70 19 2 26-14 52-102 163-58 73-110 141-116 151-12 23-42 32-64 19z"/>
    <path d="m1526 1699c-81-11-119-27-124-53-7-32 25-47 85-40l53 7v-34c0-48-97-280-153-367-39-60-45-76-37-92 12-22 41-26 70-10 57 31 210 382 210 483 0 29 20 37 93 37h47v-92c0-102-27-251-58-320-15-36-24-45-43-44-32 1-36-32-9-67 16-20 30-27 56-27 34 0 37 3 64 64 54 118 72 207 77 379 4 117 2 161-7 172-10 12-37 15-134 14-66-1-152-6-190-10z"/>
    <path d="m237 1143c-27-26 17-105 151-267 47-57 68-76 87-76 18 0 26 7 31 24 7 31-5 55-75 141-31 39-76 96-99 128-30 41-49 57-66 57-12 0-26-3-29-7z"/>
    <path d="m1176 1037c-47-67-161-187-176-187-5 0-14-9-20-21-17-31 8-61 90-110l70-41-52-46c-77-70-119-102-160-123-31-16-38-25-38-49 0-39 35-55 88-41 32 9 269 51 284 51 3 0 9-73 13-162s11-172 15-184c11-28 46-40 67-22 14 11 15 32 9 154-3 77-9 161-12 186l-6 45 99 17c54 9 138 21 186 25 47 5 93 13 100 20 11 9 17 8 27-4 7-8 27-24 46-35 26-17 37-19 54-10 42 23 25 53-92 165-114 107-146 127-173 105-25-21-17-42 37-97l52-53h-54c-30-1-89-7-130-15-120-22-364-65-369-65-2 0 39 42 91 93 100 96 214 241 225 284 7 32-7 57-35 61-15 2-29-10-53-45-18-26-59-80-91-120l-58-72-53 32c-28 17-54 32-56 34-2 1 18 24 43 51 105 109 150 187 129 221-22 36-49 24-97-42z"/>
    <path d="m648 743c-39-45-150-298-233-532-4-9-17-3-45 23-22 20-48 36-58 36-23 0-42-19-42-41s100-114 139-127c46-16 65 8 107 128 20 58 69 190 110 294 41 105 74 199 72 210-4 27-30 31-50 9z"/>
    <path d="m963 314c-122-81-164-122-156-154 10-36 48-36 95 2 24 19 78 59 122 88 43 30 82 63 86 74 8 23-2 51-23 59-7 3-63-28-124-69z"/>
    <path d="m1602 358c-7-7-12-22-12-35 0-18 15-30 71-60 39-21 98-55 130-75 63-40 87-46 107-26 35 35-3 73-155 155-103 55-121 61-141 41z"/>
  </g>
</svg>
