<?xml version="1.0"?>
<svg xmlns="http://www.w3.org/2000/svg" height="200pt" preserveAspectRatio="xMidYMid meet" viewBox="0 0 200 200" width="200pt">
  <g transform="matrix(.1 0 0 -.1 0 200)">
    <path d="m266 1728c-23-13-20-54 6-91 40-58 186-242 206-261 31-27 66-18 70 19 2 26-14 52-102 163-58 73-110 141-116 151-12 23-42 32-64 19z"/>
    <path d="m915 1726c-16-12-18-23-12-109 5-84 3-97-11-101-9-2-62-12-117-22-123-21-137-27-133-62 4-36 26-38 161-17 59 10 109 16 111 14 3-2 6-35 8-73l3-70-73-11c-109-17-109-18-84-172 12-70 24-151 28-180 3-29 12-57 20-64 8-6 14-17 14-25 0-24 33-33 84-22 26 5 49 8 51 6 1-1 6-55 10-118l7-116-94-12c-51-6-108-16-125-23-38-13-52-44-30-67 14-13 28-13 134 2 65 9 121 16 124 16 7 0 19-141 25-293 4-114 14-147 42-147 43 1 47 13 44 142-2 68-7 163-13 212-5 49-8 91-5 93 2 2 48 9 102 14 177 19 189 21 192 47 7 46-14 55-113 48-49-3-113-9-141-12-61-8-59-10-70 132l-7 91 107 7c58 4 113 9 121 12 19 8 29 39 18 59-5 8-6 48-2 87 12 113 10 287-2 310-11 20-16 20-113 13-181-13-160-20-169 59-4 38-6 70-5 72 2 1 65 8 141 15 130 11 140 14 149 35 8 18 8 28-3 40-12 15-28 16-125 10-61-3-125-9-141-12l-30-6-8 89c-4 57-12 94-23 106-18 21-23 21-47 3zm295-545v-48l-72-7c-40-4-119-15-175-24l-102-18-11 50c-6 27-9 50-7 52 6 6 273 42 320 43l47 1zm-4-147c-3-9-6-37-6-64v-48l-87-6c-49-4-119-11-158-16-38-5-70-8-71-7s-4 27-5 57l-3 55 144 22c184 27 194 27 186 7z"/>
    <path d="m1685 1685c-55-7-128-14-162-14-49-1-68-6-83-21-16-16-18-25-11-39 26-47 57-541 48-757-3-82-17-219-31-304-26-163-72-372-88-403-13-25 8-49 41-45 15 2 31 14 42 33 24 42 65 229 95 440 14 99 27 180 28 181 0 1 69 4 152 7l150 7-3-258c-2-141-5-263-6-270-1-8-20 0-53 23-56 39-84 39-84-1 0-34 78-110 129-125 56-17 86-2 95 45 4 19 7 255 7 523-1 401-4 530-20 722-16 186-24 237-37 252-20 22-58 23-209 4zm153-213c7-76 12-146 12-155 0-14-11-17-67-18-38 0-105-6-150-13-46-6-83-11-83-10 0 23-22 267-26 285l-5 26 98 10c54 6 123 11 154 12l56 1zm22-431v-178l-29-6c-16-3-81-9-145-13l-116-7v85c0 47-3 126-6 176l-7 91 25 6c26 7 175 21 241 24l37 1z"/>
    <path d="m237 1143c-27-26 17-105 151-267 47-57 68-76 87-76 18 0 26 7 31 24 7 31-5 55-75 141-31 39-76 96-99 128-30 41-49 57-66 57-12 0-26-3-29-7z"/>
    <path d="m648 743c-39-45-150-298-233-532-4-9-17-3-45 23-22 20-48 36-58 36-23 0-42-19-42-41s100-114 139-127c46-16 65 8 107 128 20 58 69 190 110 294 41 105 74 199 72 210-4 27-30 31-50 9z"/>
  </g>
</svg>
