<?xml version="1.0"?>
<svg xmlns="http://www.w3.org/2000/svg" height="200pt" preserveAspectRatio="xMidYMid meet" viewBox="0 0 200 200" width="200pt">
  <g transform="matrix(.1 0 0 -.1 0 200)">
    <path d="m1499 1790c-12-7-18-32-24-92-9-104-41-233-94-372-45-120-49-144-25-153 26-10 61 14 80 56 11 22 21 41 24 41s27-88 54-195c27-108 56-221 66-252 15-50 16-62 4-107-28-107-111-284-183-391-56-83-51-117 14-101 42 11 143 171 211 336l22 55 12-30c48-126 80-198 141-315 39-74 80-145 92-158 24-26 49-28 67-6 11 13-2 46-83 212-53 108-116 254-141 323-45 126-45 127-31 180 15 56 31 172 61 446l18 162 56 6c77 9 88 13 95 36 18 56-47 62-263 24-78-14-144-25-146-25s3 26 10 58c8 31 17 98 20 147 6 78 4 93-10 108-20 19-25 20-47 7zm197-412c-3-18-15-107-26-198-32-265-25-262-86-30-29 113-53 212-54 221 0 12 16 19 63 26 110 18 110 18 103-19z"/>
    <path d="m957 1766c-7-6-21-38-31-71-19-65-44-112-113-218-44-66-45-68-30-100 16-35 32-122 42-232 9-94 23-115 79-115h43l7-52c3-29 6-78 6-108v-55l-105-17c-109-16-135-28-135-59 0-32 34-41 110-30 38 6 72 11 76 11 12 0-5-200-26-295-10-49-28-117-40-149-22-66-19-92 11-101 42-13 77 54 110 207l12 57 66 6c36 3 90 8 119 10l52 5v-37c0-21-3-55-7-76-6-38-6-38-47-35-36 3-41 0-44-19-3-18 7-29 44-53 58-37 101-39 114-7 11 29 30 165 30 223 0 87-1 88-166 80l-144-7v100 100l33 6c17 3 83 9 146 13 92 6 116 10 125 25 8 12 8 22 0 35-9 14-30 17-133 20l-121 3v99 100h103c131 0 139 5 144 91 2 35 8 102 13 149 16 133 13 194-8 213-23 21-139 22-280 3-51-6-91-9-90-6 2 3 20 37 40 76 62 120 73 205 29 217-11 3-26 0-34-7zm261-402-3-46-95-3c-52-1-125-6-161-10l-66-7-6 38c-4 21-5 39-3 41 9 9 190 31 259 32l78 1zm-16-183-4-58-96-6c-53-4-118-7-144-7h-48v50c0 48 1 49 33 55 17 3 79 10 137 14 58 5 110 9 115 10 6 0 9-22 7-58z"/>
    <path d="m266 1728c-23-13-20-54 6-91 40-58 186-242 206-261 31-27 66-18 70 19 2 26-14 52-102 163-58 73-110 141-116 151-12 23-42 32-64 19z"/>
    <path d="m237 1143c-27-26 17-105 151-267 47-57 68-76 87-76 18 0 26 7 31 24 7 31-5 55-75 141-31 39-76 96-99 128-30 41-49 57-66 57-12 0-26-3-29-7z"/>
    <path d="m648 743c-39-45-150-298-233-532-4-9-17-3-45 23-22 20-48 36-58 36-23 0-42-19-42-41s100-114 139-127c46-16 65 8 107 128 20 58 69 190 110 294 41 105 74 199 72 210-4 27-30 31-50 9z"/>
  </g>
</svg>
