<?xml version="1.0"?>
<svg xmlns="http://www.w3.org/2000/svg" height="200pt" preserveAspectRatio="xMidYMid meet" viewBox="0 0 200 200" width="200pt">
  <g transform="matrix(.1 0 0 -.1 0 200)">
    <path d="m920 1885c-9-11-11-35-7-83 9-96-13-229-84-491-70-263-90-322-135-411-81-161-303-485-426-625-49-55-87-106-86-115 2-9 16-16 36-18 29-3 42 5 113 75 112 108 414 554 468 691 8 17 17 32 21 32 5 0 19-17 32-37 149-243 637-685 880-798 62-29 126-33 135-9 8 21-6 33-130 108-288 175-585 442-783 706-31 41-65 93-76 115l-20 41 37 139c20 77 50 192 67 255 28 102 31 131 32 261 1 110-2 150-13 162-17 21-45 22-61 2z"/>
    <path d="m1513 1558c-4-7-27-50-50-95-22-45-76-134-120-198-125-185-136-203-130-220 13-32 54-16 106 40 96 106 261 382 261 438 0 40-47 65-67 35z"/>
    <path d="m288 1539c-30-17-21-48 40-143 32-50 80-130 107-178 51-92 78-114 102-82 7 10 13 24 13 31 0 33-167 318-214 366-20 20-24 20-48 6z"/>
  </g>
</svg>
