<?xml version="1.0"?>
<svg xmlns="http://www.w3.org/2000/svg" height="200pt" preserveAspectRatio="xMidYMid meet" viewBox="0 0 200 200" width="200pt">
  <g transform="matrix(.1 0 0 -.1 0 200)">
    <path d="m435 1893c-12-11-15-27-11-52 40-272 32-484-35-906-28-174-133-590-175-693-27-66-32-87-23-103 7-14 18-19 37-17 49 6 85 96 171 436 27 106 52 191 57 190 5-2 34-41 65-88 163-248 426-488 511-467 53 14 45 58-16 89-142 71-391 346-501 551l-39 74 22 168c33 242 43 420 32 571-17 234-42 300-95 247z"/>
    <path d="m792 1628c-5-7-21-58-35-114s-45-144-67-197c-43-101-46-123-18-141 26-16 55 17 99 109 40 86 89 251 89 301 0 47-42 73-68 42z"/>
    <path d="m1570 1544c-198-26-531-98-582-125-24-13-23-56 1-69 15-7 54-2 158 24 149 36 281 62 287 55 8-9 36-442 36-554 0-66 5-223 11-348s8-231 5-234c-3-4-16 3-29 14-51 47-278 192-291 187-50-19-6-73 171-206 55-42 121-94 146-116 52-45 83-46 94-4 3 14 3 98-1 186-3 89-11 298-16 466-6 168-17 376-25 464-9 87-14 160-13 162 8 8 181 24 255 24 99 0 133 11 133 43 0 13-5 28-12 35-16 16-192 14-328-4z"/>
    <path d="m142 1438c-23-23-11-54 71-182 89-139 106-158 134-140 36 22 26 52-58 182-100 154-117 170-147 140z"/>
  </g>
</svg>
