<?xml version="1.0"?>
<svg xmlns="http://www.w3.org/2000/svg" height="200pt" preserveAspectRatio="xMidYMid meet" viewBox="0 0 200 200" width="200pt">
  <g transform="matrix(.1 0 0 -.1 0 200)">
    <path d="m1150 1734c-708-70-769-78-793-102-17-18-18-24-7-54 24-64 24-316 0-503-50-389-118-631-219-779-34-50-38-68-16-86 56-47 174 139 235 371 30 117 69 330 91 499 14 108 18 369 6 445l-7 51 117 12c65 7 235 24 378 37 143 14 301 29 352 35 51 5 153 10 228 10s145 5 156 10c21 12 25 50 7 68-19 19-264 13-528-14z"/>
    <path d="m987 1383c-4-3-7-32-7-64 0-157-44-317-140-514-71-145-154-273-246-379-38-43-75-87-82-97-20-26-6-59 24-59 63 0 251 235 359 449l35 71 63-50c153-122 535-350 685-409 61-24 92-16 92 24 0 22-19 34-162 106-181 90-508 294-607 377l-34 29 33 94c59 171 80 378 42 412-19 18-44 22-55 10z"/>
    <path d="m1504 1248c-15-24-64-88-109-143-101-124-108-136-91-160 12-17 17-17 46-5 36 15 185 187 221 256 47 88-15 135-67 52z"/>
    <path d="m578 1169c-31-18-20-49 40-105 63-61 106-88 128-80 37 14-1 83-82 150-61 50-61 50-86 35z"/>
  </g>
</svg>
