<?xml version="1.0"?>
<svg xmlns="http://www.w3.org/2000/svg" height="200pt" preserveAspectRatio="xMidYMid meet" viewBox="0 0 200 200" width="200pt">
  <g transform="matrix(.1 0 0 -.1 0 200)">
    <path d="m902 1868c-7-7-12-27-12-45 0-62-56-185-119-263-30-37-27-74 8-99 27-20 153-181 196-253 22-36 48-46 70-28 36 30 15 79-94 219-36 47-72 93-79 103-12 16-9 25 19 70 47 78 79 170 79 231 0 54-12 77-40 77-9 0-21-5-28-12z"/>
    <path d="m562 1858c-7-7-12-21-12-31 0-41-98-209-170-292-22-25-40-55-40-65 0-11 27-42 62-72 121-104 170-153 195-196 14-23 33-47 43-52 24-13 60 14 60 45 0 36-85 141-173 214-74 62-76 66-62 85 138 187 198 338 146 366-25 13-34 13-49-2z"/>
    <path d="m1313 1848c-6-7-20-34-31-60-23-52-70-125-114-176-33-39-38-86-9-101 24-13 153-215 166-261 9-30 16-35 43-38 26-3 34 1 43 22 17 35 0 75-89 210-40 60-72 111-72 114 0 2 20 35 45 71 87 132 109 223 54 229-14 2-30-3-36-10z"/>
    <path d="m946 1047c-12-9-28-55-47-138-43-180-105-374-147-454-47-88-146-190-229-233-51-27-63-38-63-57 0-18 7-26 26-31 97-25 283 138 364 319l34 75 66-53c148-118 322-215 501-279 113-40 164-44 183-14 17 27-7 44-138 93-222 84-436 208-534 308l-44 45 41 163c50 200 54 236 25 255-17 11-23 12-38 1z"/>
    <path d="m1279 958c-23-40-69-115-102-166-49-76-57-95-47-107 39-46 92 3 194 177 76 131 81 161 29 166-30 3-34-1-74-70z"/>
    <path d="m472 968c-24-24-11-49 73-142 88-96 104-109 129-100 44 17 19 68-90 184-66 69-89 81-112 58z"/>
  </g>
</svg>
