<?xml version="1.0"?>
<svg xmlns="http://www.w3.org/2000/svg" height="200pt" preserveAspectRatio="xMidYMid meet" viewBox="0 0 200 200" width="200pt">
  <g transform="matrix(.1 0 0 -.1 0 200)">
    <path d="m971 1956c-9-11-11-77-5-265l7-250-24-5c-13-2-100-9-194-16-93-6-191-14-216-17l-45-5-27 100c-15 55-27 110-27 121 0 23-25 51-45 51-8 0-22-11-31-25-16-24-15-33 17-167 18-78 41-150 50-161 16-20 20-20 111-8 169 22 486 42 766 48 270 6 273 6 293-16 45-48 70-21 98 111 41 192 46 235 32 252-20 24-60 20-70-6-4-13-18-74-31-135l-23-113h-236c-130 0-252-3-272-6l-36-6-7 243c-6 187-11 249-22 267-16 25-46 29-63 8z"/>
    <path d="m1103 1189c-67-5-184-18-260-29-76-12-169-25-206-30-38-4-71-11-75-15s-8-73-8-153c-2-167-20-283-65-417-52-155-119-244-224-297-60-31-66-37-54-59 15-30 83-25 144 10 111 64 199 209 249 411 27 107 46 298 38 381l-4 46 109 17c185 29 370 46 583 52 162 5 209 10 223 22 20 18 22 43 5 60-14 14-256 14-455 1z"/>
    <path d="m1433 868c-11-13-35-45-52-71-18-26-59-77-92-111-63-67-71-89-40-106 37-19 105 27 176 122 77 103 98 144 85 167-14 28-51 27-77-1z"/>
    <path d="m1042 862c-7-5-17-36-22-70-23-143-86-287-180-414-56-76-111-121-182-146-38-13-48-21-48-39 0-47 59-55 136-19 75 35 127 87 204 203l68 103 38-32c186-150 503-300 569-270 32 15 42 39 24 57-8 7-53 27-100 43-143 50-304 138-423 231-33 25-63 48-67 51-5 3 3 41 17 84 34 109 42 187 20 209-19 19-34 21-54 9z"/>
    <path d="m699 804c-30-36 62-216 113-222 18-2 30 3 37 15 7 15-2 41-41 121-42 85-54 102-73 102-12 0-28-7-36-16z"/>
  </g>
</svg>
