<?xml version="1.0"?>
<svg xmlns="http://www.w3.org/2000/svg" height="200pt" preserveAspectRatio="xMidYMid meet" viewBox="0 0 200 200" width="200pt">
  <g transform="matrix(.1 0 0 -.1 0 200)">
    <path d="m844 1794c-16-23-16-44-5-247 6-122 11-252 11-288 0-77 11-70-144-90-111-14-136-29-136-79 0-49 40-372 50-412 12-43 20-46 120-36 270 24 323 30 388 39 70 10 75 10 98-12 20-19 28-20 47-12 32 15 36 41 43 318 9 297 27 275-203 247-92-12-168-21-169-19-1 1-4 59-6 129-6 150-21 137 167 144 72 3 140 7 152 10 31 6 47 38 33 64-10 18-21 20-133 19-67 0-144-4-172-9-27-4-52-6-55-3s-7 58-10 124c-4 92-9 122-20 129-24 16-39 12-56-16zm382-819c-3-90-9-171-12-178-3-10-51-19-167-31-89-9-202-22-250-27-49-6-90-9-92-7-9 8-45 332-38 338 4 4 94 17 198 30 105 12 215 26 245 30s70 8 89 9l34 1z"/>
    <path d="m463 493c-7-2-26-30-43-62-17-31-60-95-95-143-82-109-87-163-12-144 39 9 195 231 213 300 9 37-26 64-63 49z"/>
    <path d="m1356 478c-20-29-9-49 68-118 34-30 96-88 138-127 76-72 102-85 126-61 27 27 12 55-71 134-128 123-213 194-230 194-9 0-23-10-31-22z"/>
    <path d="m978 479c-10-5-18-20-18-33 0-31 182-268 215-280 34-13 60 12 51 47-8 31-202 277-218 277-7 0-21-5-30-11z"/>
    <path d="m672 468c-20-20-13-48 36-158 52-113 84-147 116-121 9 7 16 23 16 36 0 25-97 236-114 247s-41 9-54-4z"/>
  </g>
</svg>
