<?xml version="1.0"?>
<svg xmlns="http://www.w3.org/2000/svg" height="200pt" preserveAspectRatio="xMidYMid meet" viewBox="0 0 200 200" width="200pt">
  <g transform="matrix(.1 0 0 -.1 0 200)">
    <path d="m473 1908c-5-7-15-53-22-103-15-110-56-235-118-361-37-75-45-99-36-112 33-53 87-4 144 129l42 99h38c20 0 149 11 285 25 322 32 505 45 626 45 86 0 99 2 108 19 12 24 4 48-21 61-39 21-317 6-792-44-193-20-217-21-213-7 24 91 37 207 26 236-10 27-50 35-67 13z"/>
    <path d="m1102 1398c-8-8-12-49-12-119v-106l-121-8c-66-4-123-4-127 0-3 3-9 42-12 87-4 62-9 83-22 92-13 8-23 8-35 0-15-9-19-28-21-101l-3-90-46-7c-25-3-67-6-93-6h-47l-6 76c-8 88-10 94-41 94-39 0-49-22-44-105 2-48 0-76-8-79-6-2-61-7-123-11-125-8-159-23-147-63 10-31 39-35 167-22 82 8 114 8 119 0 6-9 16-144 23-300l2-35-75-11c-89-12-100-17-100-49 0-43 25-46 190-25 126 16 244 21 662 26 461 7 512 9 531 24s20 21 9 44c-11 26-13 26-121 26h-109l-7 158c-3 86-9 165-11 175-5 16 7 17 154 17 141 0 161 2 175 18 22 24 21 35-1 55-16 14-43 17-175 17h-157v83c0 105-6 126-38 134-41 10-52-17-52-124v-93h-105-105v108c0 110-7 132-40 132-9 0-21-5-28-12zm-8-349c3-17 6-79 6-138 0-58 4-122 9-142l8-36-81-7c-125-9-176-8-181 7-2 6-6 85-8 174l-5 162 51 4c29 2 84 4 123 5l72 2zm300-111c4-79 9-158 13-175l5-33h-105-105l-6 38c-3 20-8 99-12 175l-6 137h105 104zm-634 44c0-44 3-119 6-169l7-90-83-6c-46-4-85-6-86-4-4 4-23 167-29 254l-5 82 52 4c29 2 72 4 96 5l42 2z"/>
    <path d="m340 421c-5-11-10-30-10-44 0-13-13-72-30-130-16-59-30-115-30-125 0-35 37-53 68-33 15 9 57 154 72 246 8 48 7 64-5 82-19 28-51 30-65 4z"/>
    <path d="m1472 418c-21-21-13-43 36-90 65-63 221-178 242-178 23 0 40 20 40 47 0 17-23 40-97 94-54 40-115 87-136 106-39 35-65 41-85 21z"/>
    <path d="m1061 411c-38-24-6-90 99-204 55-60 67-68 94-65 25 2 32 8 34 28 2 19-16 45-73 109-41 46-75 87-75 90 0 13-40 51-53 51-7 0-18-4-26-9z"/>
    <path d="m640 395c-18-22-8-49 67-170 62-99 72-110 100-113 27-3 33 1 39 22 5 21-7 48-62 134-37 59-74 115-82 125-18 21-45 22-62 2z"/>
  </g>
</svg>
