<?xml version="1.0"?>
<svg xmlns="http://www.w3.org/2000/svg" height="200pt" preserveAspectRatio="xMidYMid meet" viewBox="0 0 200 200" width="200pt">
  <g transform="matrix(.1 0 0 -.1 0 200)">
    <path d="m1247 1862c-10-10-17-35-17-54 0-34-2-36-42-42-109-17-167-51-152-90 9-24 39-28 91-12 26 8 60 17 75 20l26 6 4-100c2-79 7-103 21-117 13-14 21-15 35-7 14 9 17 30 20 123 1 61 6 111 10 111 50 2 244 31 265 39 23 9 28 16 25 39-3 25-6 27-53 27-27 0-94-4-147-9l-98-8v34c0 55-32 75-63 40z"/>
    <path d="m387 1752c-15-16-15-25 5-117 32-148 32-478 0-653-51-278-105-449-209-664-74-154-81-182-48-194 30-12 62 26 122 142 66 129 120 267 149 382 10 39 21 72 24 72s25-35 49-78c80-141 220-357 249-386 20-18 38-27 53-24 39 5 34 39-14 109-78 114-223 352-267 438l-42 84 16 86c31 172 40 325 27 481-17 214-51 340-91 340-4 0-14-8-23-18z"/>
    <path d="m763 1578c-6-7-13-26-17-42s-32-84-62-152c-64-144-70-197-22-179 22 9 105 152 139 240 37 94 36 139-2 143-14 2-30-3-36-10z"/>
    <path d="m1506 1505c-8-8-18-40-21-70l-7-54-42-5c-22-3-108-14-191-26-82-11-159-21-170-23-16-2-24 10-41 61-25 74-35 86-63 77-30-9-36-47-16-106 9-29 13-55 8-59-4-3-27-12-49-18-49-14-68-34-59-61 9-28 32-33 81-16 65 22 77 19 102-25 27-48 78-107 103-120 25-14 49-2 49 24 0 11-20 50-45 85-25 36-45 68-45 72 0 8 170 35 284 45l79 7-7-29c-4-16-18-71-32-121-28-98-27-123 4-123 39 0 77 69 102 188 22 102 11 92 101 92 92 0 119 10 119 45 0 37-32 49-116 42l-73-7 6 55c8 75-22 109-61 70z"/>
    <path d="m177 1418c-35-19-14-84 63-198 54-79 87-107 108-93 25 16 17 50-32 124-24 36-56 89-70 116-27 55-43 66-69 51z"/>
    <path d="m1585 955c-157-16-295-37-474-71-160-30-201-45-201-73 0-35 31-43 110-26 39 8 74 15 77 15s3-45-1-101c-11-172-79-331-192-448-69-70-70-101-3-101 50 0 170 155 225 291 34 83 55 204 53 299l-2 75 29 6c16 4 42 7 58 8l29 1-6-52c-7-56 7-346 23-463 11-85 39-117 119-134 59-13 312-14 384-2 77 13 81 22 82 164 0 149-6 177-40 177-29 0-31-7-40-145-3-54-10-102-16-106-35-21-292-20-365 2-31 9-32 12-43 97-7 48-15 175-18 283l-6 196 94 11c52 7 128 14 169 17 104 8 118 12 131 37 10 18 8 24-11 40-12 10-25 17-29 17-3-1-64-7-136-14z"/>
  </g>
</svg>
