<?xml version="1.0"?>
<svg xmlns="http://www.w3.org/2000/svg" height="200pt" preserveAspectRatio="xMidYMid meet" viewBox="0 0 200 200" width="200pt">
  <g transform="matrix(.1 0 0 -.1 0 200)">
    <path d="m1136 1884c-71-8-135-19-143-25-19-17-16-57 6-69 14-7 42-7 88 0 37 5 83 10 101 10 31 0 32-1 32-41 0-90-51-230-113-312-39-50-46-77-23-96 34-28 109 40 157 144 36 76 69 204 69 267v48h155c93 0 155-4 155-10 0-18-31-235-41-290l-11-56-34 4c-25 3-35 0-40-13-9-23 5-45 46-72 62-43 100-20 119 68 19 86 51 320 51 372 0 90 9 87-233 86-117-1-270-8-341-15z"/>
    <path d="m560 1679c-41-4-137-10-213-15-120-6-139-10-148-26-7-13-4-73 10-196 11-97 25-253 32-347 6-93 14-177 18-185 7-13 41-14 237-11 126 2 232 5 235 7 16 9 20 257 9 493-15 320-1 298-180 280zm80-151c0-40 3-97 6-125l7-53h-59c-60 0-221-16-260-26-20-5-22 0-33 103-7 59-14 115-17 124-4 14 11 17 98 24s196 17 246 23c8 2 12-18 12-70zm13-444-6-92-151-4c-83-2-152-4-152-4-1 1-7 55-13 121-8 91-8 121 1 126 17 10 95 21 213 28l100 6 7-45c3-25 4-86 1-136z"/>
    <path d="m1200 1249c-201-10-215-13-224-36-4-10 12-123 36-252l43-234 30-13c22-9 63-10 158-5 71 5 170 6 221 3 88-4 94-3 109 18 11 16 13 28 7 41-7 12 4 73 40 211 52 200 58 246 38 266-14 14-180 14-458 1zm370-85c0-5-59-240-81-321l-11-43h-122c-66 0-143-3-171-6l-50-6-33 177c-19 97-31 180-27 183 12 12 495 28 495 16z"/>
    <path d="m1158 503c-26-6-32-40-12-71 10-15 67-78 127-139 78-79 117-113 133-113 26 0 49 33 38 53-13 20-248 267-259 270-5 2-18 2-27 0z"/>
    <path d="m1554 485c-13-32 8-65 69-112 34-26 103-87 154-135 89-86 116-101 141-76 27 27 12 55-70 134-181 173-277 234-294 189z"/>
    <path d="m258 473c-20-22-138-300-138-323 0-26 26-43 54-36 19 5 32 26 64 98 102 233 110 270 61 276-15 2-32-4-41-15z"/>
    <path d="m616 464c-22-22-21-26 28-85 24-30 79-96 120-146 75-91 99-106 124-81 24 24 11 55-64 148-139 174-172 200-208 164z"/>
  </g>
</svg>
