<?xml version="1.0"?>
<svg xmlns="http://www.w3.org/2000/svg" height="200pt" preserveAspectRatio="xMidYMid meet" viewBox="0 0 200 200" width="200pt">
  <g transform="matrix(.1 0 0 -.1 0 200)">
    <path d="m450 1885c-10-12-11-43-6-125 7-109 7-109-16-114-257-57-283-69-257-117 13-25 14-24 204 15 72 15 204 35 294 44 147 15 165 19 178 39 13 19 12 24-6 42-22 22-42 22-226 1-48-5-72-4-77 4-4 6-8 51-8 99 0 49-5 97-10 108-13 23-52 25-70 4z"/>
    <path d="m1200 1795c-6-8-16-49-21-92-17-150-13-140-72-148-90-11-125-24-132-46-5-13-1-27 9-37 13-13 27-14 91-6 41 5 75 9 75 9s-11-59-25-130c-14-72-25-132-25-135s-11 8-25 23c-28 29-54 34-73 15-21-21-13-47 29-92 40-44 40-45 29-88-13-49-71-155-106-198-36-43-27-90 17-90 27 0 90 79 135 168l41 81 26-30c35-40 80-38 85 3 3 21-7 39-43 77-36 39-45 55-40 71 4 12 19 91 35 176 15 85 29 157 32 159 4 5 197 35 222 35 9 0 2-23-25-72-73-140-138-407-123-506 8-55 41-103 84-124 36-17 224-38 343-38 91 0 102 14 94 123-7 102-35 191-61 195-30 6-34-14-28-124l5-104h-26c-14 0-84 5-154 11-168 14-167 13-160 139 8 154 79 366 160 479 45 63 49 76 28 102l-18 23-162-23c-89-13-164-21-167-19-2 3 0 45 5 94 8 72 7 93-5 112-17 25-36 28-54 7z"/>
    <path d="m620 1515c-125-18-242-49-254-68-6-10-4-48 9-113 23-128 28-137 68-131 18 3 91 15 162 27 172 29 175 30 174 77-1 21 4 66 9 101 12 68 4 105-23 116-20 7-25 7-145-9zm79-102c-3-73-6-75-118-95-57-10-106-16-109-14-2 3-7 25-9 49-5 41-3 46 18 52 20 7 165 30 207 34 7 1 12-10 11-26z"/>
    <path d="m532 1155c-86-13-112-26-112-55 0-31 26-43 75-36 51 8 63-8 19-25-25-9-26-13-20-52 3-23 7-50 9-61 2-16-20-24-172-61-196-48-221-63-187-110 15-21 13-21 309 49l57 14v-28c0-15-3-48-6-73-6-43-8-46-33-41-18 4-32 0-40-10-12-14-8-22 27-56 47-47 83-53 107-16 9 14 21 69 27 134l12 111 91 16c108 20 125 28 125 60 0 41-28 47-130 29-50-9-92-15-94-13s-7 18-10 34c-6 27-3 32 29 49 20 11 54 39 76 63 38 41 40 46 26 66-18 27-68 31-185 12z"/>
    <path d="m410 478c-6-7-28-62-50-123-21-60-46-131-56-158-20-49-14-79 17-85 28-5 49 24 89 121 57 141 77 221 61 241-16 19-46 21-61 4z"/>
    <path d="m1066 474c-25-24-20-38 33-101 75-90 147-153 174-153 30 0 52 23 40 44-16 28-208 226-220 226-6 0-19-7-27-16z"/>
    <path d="m736 464c-9-8-16-18-16-22 0-27 189-251 217-258 27-7 53 11 53 35 0 29-201 261-226 261-7 0-20-7-28-16z"/>
    <path d="m1455 421c-3-10-3-25 0-34 4-8 69-56 145-107 107-71 144-91 166-88 25 3 29 7 29 33 0 27-12 38-139 123-144 95-188 111-201 73z"/>
  </g>
</svg>
