<?xml version="1.0"?>
<svg xmlns="http://www.w3.org/2000/svg" height="200pt" preserveAspectRatio="xMidYMid meet" viewBox="0 0 200 200" width="200pt">
  <g transform="matrix(.1 0 0 -.1 0 200)">
    <path d="m496 1874c-11-10-16-34-16-69 0-60 6-55-105-81-55-13-85-33-85-58 0-42 24-51 83-34 29 9 64 19 80 22l27 6v-93-94l-102-27c-57-15-127-38-155-51-47-21-53-27-53-53 0-18 6-32 16-36 9-3 54 8 101 24 46 17 87 30 90 30s2-21-1-47c-11-74-63-170-133-245-55-59-62-71-53-88 7-14 21-20 42-20 46 0 133 92 183 193 31 62 39 91 43 152 3 57 8 76 21 79 47 13 132 27 139 22 5-3 12-31 15-62 13-125 80-194 190-194 44 0 62 5 77 20 41 41 12 70-69 70-44 0-62 5-75 19-20 22-46 102-46 142 0 26 4 28 48 34 47 6 137 22 178 30 41 9 40 59 0 75-13 5-87-3-191-20-94-15-172-25-175-23-3 3-7 44-8 92l-4 88 116 18c91 13 119 21 126 35 15 28 12 38-12 54-20 12-35 12-103 1-128-22-125-23-125 33 0 66-29 92-64 56z"/>
    <path d="m1275 1858c-2-7-9-60-15-118-6-57-16-107-22-111s-27-10-47-14c-58-11-139-45-145-61-8-20 11-54 29-54 9 0 47 9 85 19 59 17 70 17 70 5 0-28-62-329-69-337-4-4-18 4-31 18-28 30-65 33-80 6-14-27-15-25 35-81 25-28 45-55 45-60 0-28-67-188-101-241-49-76-50-112-3-117 29-3 35 2 76 67 25 39 55 97 68 130 22 59 22 60 46 45 27-18 63-10 65 14 2 30-2 44-26 81l-23 36 44 210c23 116 43 222 43 237 1 23 7 29 39 37 63 16 170 33 181 30 5-2-21-77-59-166-95-221-121-312-127-448-4-101-3-114 19-155 42-81 125-117 294-127 55-3 117-3 138 1 56 11 61 32 41 162-27 179-41 213-80 198-16-7-17-19-11-142l7-135-93 6c-58 3-114 13-149 26-74 28-84 50-76 174 6 106 38 224 96 354 21 48 56 126 76 173 48 107 55 154 26 169-19 11-153-4-262-28l-40-9 7 94c5 69 3 98-6 109-15 18-59 20-65 3z"/>
    <path d="m562 1158c-7-7-12-38-12-69v-56l-60-17c-61-17-85-40-74-70 9-23 38-28 85-16 22 6 42 10 44 8 1-2 5-42 8-90l5-88-37-10c-70-19-275-100-293-117-22-20-23-46-3-63 12-10 42-2 162 43 126 46 278 92 449 137 46 11 67 30 62 56-7 38-33 40-144 11-59-15-108-26-109-25-2 2-5 41-6 88l-4 85 85 21c89 23 116 44 100 75-15 28-40 30-117 10l-73-19v47c0 49-13 71-40 71-9 0-21-5-28-12z"/>
    <path d="m1552 458c-21-21-13-43 36-90 70-68 281-228 301-228 24 0 41 20 41 46 0 17-36 50-147 137-82 63-154 121-162 130-16 20-52 22-69 5z"/>
    <path d="m647 448c-41-22-10-83 115-227 91-105 122-129 146-115 37 24 26 56-45 135-37 41-92 104-121 141-57 72-70 81-95 66z"/>
    <path d="m1010 435c-22-27-2-60 76-120 42-33 107-84 143-113s77-55 90-59c32-8 56 8 56 37 0 19-34 50-160 147-88 67-167 123-176 123s-22-7-29-15z"/>
    <path d="m243 428c-6-7-13-26-17-42-4-15-29-76-55-135-65-144-66-146-42-170 35-35 56-18 105 93 77 173 91 227 64 254-16 16-43 15-55 0z"/>
  </g>
</svg>
