<?xml version="1.0"?>
<svg xmlns="http://www.w3.org/2000/svg" height="200pt" preserveAspectRatio="xMidYMid meet" viewBox="0 0 200 200" width="200pt">
  <g transform="matrix(.1 0 0 -.1 0 200)">
    <path d="m1502 1808c-5-7-13-35-16-63-4-27-12-77-17-110l-10-61-76-12c-84-13-123-33-123-61 0-36 26-46 89-33 82 17 84 17 76-15-28-114-138-318-226-418-27-31-49-60-49-65s11-17 24-25c22-15 28-15 53-2 15 8 38 26 49 39 41 44 138 203 174 285l37 82 40-62c80-125 365-427 403-427 19 0 40 33 34 54-3 11-45 62-94 111-154 159-258 285-300 365-22 43-40 85-40 94 0 14 18 16 134 16 114 0 137 3 156 18 28 23 20 59-15 68-13 3-76 4-140 2l-117-3 7 30c15 75 18 175 5 190-15 18-44 20-58 3z"/>
    <path d="m320 1795c-9-11-10-40-1-128 21-218 13-429-30-722-35-240-103-483-181-643-42-87-44-112-5-112 29 0 68 40 100 105 29 60 103 279 131 393l21 83 50-68c77-106 245-274 269-271 54 8 17 83-99 207-34 36-94 109-134 161-56 75-70 100-66 120 11 55 34 282 40 395 7 122-8 380-26 446-12 47-45 63-69 34z"/>
    <path d="m900 1758c-12-50-66-193-122-325-32-75-37-96-28-112 14-27 38-27 67 1l23 21 95-37 96-38-27-47c-34-58-110-167-175-249-41-53-47-66-39-83 30-55 104 2 217 168 118 174 164 277 212 469 44 174 47 214 23 244l-20 24-117-13c-104-11-119-11-134 3-10 9-27 16-39 16-17 0-23-9-32-42zm260-73c0-31-34-165-41-165-10 0-182 49-186 53-6 6 35 101 45 105 12 4 128 19 160 21 13 1 22-5 22-14zm-161-222c53-15 97-28 98-28 2-1-4-22-12-47l-16-45-97 39c-53 21-97 40-99 42-4 4 21 66 26 66 3 0 48-12 100-27z"/>
    <path d="m1668 1759c-28-16-22-54 13-83 87-73 159-93 159-43 0 32-9 42-80 92-72 50-68 48-92 34z"/>
    <path d="m618 1553c-14-16-87-234-118-351-14-55-6-82 26-82 20 0 29 9 44 46 16 37 89 261 115 350 6 23-16 54-39 54-7 0-20-8-28-17z"/>
    <path d="m87 1378c-35-19-21-63 45-134 62-66 92-86 116-77 19 8 14 46-11 79-43 58-109 133-121 137-7 3-20 1-29-5z"/>
    <path d="m866 654c-9-8-16-22-16-31 0-27-68-219-100-283-33-65-34-102-4-114 8-3 24-1 34 4 38 20 135 260 147 363 5 41 3 52-12 63-24 18-30 17-49-2z"/>
    <path d="m1139 614c-16-19 5-62 66-139 22-27 62-78 88-112 47-62 71-75 95-51 21 21 13 52-31 109-152 202-158 209-181 209-13 0-29-7-37-16z"/>
    <path d="m1390 590c-7-13-7-26-1-37 17-32 287-293 302-293 22 0 39 21 39 48 0 18-36 60-142 163-147 143-176 160-198 119z"/>
    <path d="m1702 568c-7-7-12-19-12-26 0-18 197-220 222-228 11-3 25 0 33 6 32 26 16 55-88 158-101 100-128 117-155 90z"/>
  </g>
</svg>
