<?xml version="1.0"?>
<svg xmlns="http://www.w3.org/2000/svg" height="200pt" preserveAspectRatio="xMidYMid meet" viewBox="0 0 200 200" width="200pt">
  <g transform="matrix(.1 0 0 -.1 0 200)">
    <path d="m697 1834c-3-3-17-29-31-57-36-74-162-237-253-329-43-44-122-109-175-146-98-66-116-91-82-110 56-31 226 78 370 239 82 92 174 219 211 291 35 69 39 88 21 106-13 13-50 16-61 6z"/>
    <path d="m1132 1808c-37-37 9-109 147-236 160-147 337-274 488-351 73-36 98-39 113-11 17 31-2 54-82 98-98 54-239 147-318 211-121 97-251 223-271 262-20 41-52 52-77 27z"/>
    <path d="m1263 1383c-11-10-48-65-82-123-60-101-273-380-291-380-4 0-38 60-74 133-63 126-96 230-96 306 0 33-16 51-47 51-89 0-38-238 103-483l46-80-69-69c-88-91-364-322-428-359-27-16-69-34-92-40-59-16-74-36-44-60 48-39 147-11 261 73 94 71 241 198 335 290l91 88 117-125c129-136 225-208 368-274 137-63 243-93 334-95 75-1 80 0 83 21 3 19-4 24-55 38-194 53-431 164-533 248-99 82-246 246-234 262 5 7 52 66 105 131 103 128 153 199 216 309 54 93 59 112 37 136-21 23-27 24-51 2z"/>
  </g>
</svg>
