<?xml version="1.0"?>
<svg xmlns="http://www.w3.org/2000/svg" height="200pt" preserveAspectRatio="xMidYMid meet" viewBox="0 0 200 200" width="200pt">
  <g transform="matrix(.1 0 0 -.1 0 200)">
    <path d="m991 1928c-5-13-3-83 5-163 7-77 14-200 16-272l5-133h-36c-42 0-304-27-342-35l-26-6-7 183c-9 235-17 297-41 314-12 9-23 10-35 4-17-9-18-31-13-332 6-347-3-515-38-697-34-175-147-428-231-517-55-59-60-87-15-92 70-8 140 80 239 303 32 72 66 164 75 207 17 73 19 77 53 87 40 12 163 27 296 37l91 6 8-87c4-48 5-217 4-375-4-302-2-320 41-320s44 12 45 435c0 332-2 405-14 419-12 15-27 16-110 11-125-8-343-33-364-41-13-5-15 0-11 28 3 18 11 103 17 188l12 155 44 7c84 14 370 37 612 49 134 7 254 16 267 20 26 10 30 50 7 69-15 13-109 11-357-6l-88-7v104c0 119-27 423-40 457-7 15-18 22-35 22s-28-7-34-22z"/>
  </g>
</svg>
