<?xml version="1.0"?>
<svg xmlns="http://www.w3.org/2000/svg" height="200pt" preserveAspectRatio="xMidYMid meet" viewBox="0 0 200 200" width="200pt">
  <g transform="matrix(.1 0 0 -.1 0 200)">
    <path d="m559 1883c-11-13-13-61-11-238l3-222-23-6c-52-13-189-29-195-23-3 3-17 83-29 177-13 94-26 180-29 190-9 26-44 35-63 15-15-15-15-29 2-179 50-436 48-688-10-1036-17-102-43-187-99-332-44-110-43-144 0-144 27 0 33 7 62 65 85 172 121 313 158 617 7 58 3 55 136 68l66 7 12-143c7-79 17-189 22-244s14-149 19-209c11-116 19-136 56-136 48 0 48-7 9 420-8 91-17 209-21 262-9 133-9 133-163 125l-119-5-4 191c-2 106-3 193-2 194 0 2 49 9 110 18 109 15 318 49 384 63 26 5 36 13 38 30 8 52-35 63-159 38l-66-12-7 89c-3 50-6 149-6 222 0 134-5 155-41 155-9 0-23-7-30-17z"/>
    <path d="m1575 1883c-16-2-131-17-255-33s-253-31-288-34c-35-2-69-9-75-15-8-8-7-34 2-98 19-128 26-586 11-746-29-319-111-655-197-804-55-95 27-125 85-31 79 128 174 500 198 777l7 83 37-71c42-79 57-100 188-259l93-114-32-56c-59-105-151-232-203-280-35-31-72-54-112-67-45-15-60-25-62-42-6-44 95-42 181 5 74 40 162 148 283 349 10 16 26 3 156-123 186-181 245-226 290-222 28 3 33 7 33 29 0 19-17 40-71 85-40 33-135 121-213 196l-141 135 39 84c56 119 145 378 169 486 28 129 22 139-78 135-72-3-455-63-519-82l-31-9v142c0 133-13 340-25 398l-6 25 178 23c98 12 241 29 318 37 194 20 209 24 213 52 6 40-14 52-82 51-33-1-74-4-91-6zm35-744c0-54-176-529-190-512-119 143-198 243-224 287-40 66-81 164-73 173 10 9 387 71 440 72 41 1 47-2 47-20z"/>
  </g>
</svg>
