<?xml version="1.0"?>
<svg xmlns="http://www.w3.org/2000/svg" height="200pt" preserveAspectRatio="xMidYMid meet" viewBox="0 0 200 200" width="200pt">
  <g transform="matrix(.1 0 0 -.1 0 200)">
    <path d="m646 1888c-9-12-16-39-16-59 0-61-38-189-84-284-53-111-114-193-211-283-41-39-75-77-75-86s11-21 24-27c18-9 31-7 63 10 49 24 157 140 218 231 26 39 54 70 67 74 45 11 298 39 304 33 4-3 1-91-5-194s-11-218-11-255v-67l-42-5c-415-56-725-114-745-141-15-21-3-50 24-57 10-3 83 8 163 23 125 24 371 62 548 84l54 7-7-376c-7-354-7-378 10-396 22-25 37-25 57-2 14 14 17 75 23 399 4 211 10 383 14 383 3 1 58 8 121 16 65 8 233 17 385 20 309 5 331 8 345 34 18 33-4 58-55 65-59 9-519-11-674-30-69-8-127-12-130-10-7 8 19 509 27 517 4 4 111 13 237 19 240 12 265 18 265 59 0 40-22 43-213 36-100-3-208-9-239-13l-58-6v127c0 138-8 166-45 166-38 0-45-28-45-169 0-72-1-131-2-132-17-4-274-35-276-33-2 1 6 30 17 64 12 35 26 100 33 145 10 74 10 86-5 109-21 32-41 33-61 4z"/>
  </g>
</svg>
