<?xml version="1.0"?>
<svg xmlns="http://www.w3.org/2000/svg" height="200pt" preserveAspectRatio="xMidYMid meet" viewBox="0 0 200 200" width="200pt">
  <g transform="matrix(.1 0 0 -.1 0 200)">
    <path d="m414 1867c-2-7-3-74-2-147l3-134-50-8c-27-4-60-9-72-12-21-6-21-5-16 107 5 98 3 115-11 130-44 44-76 8-76-86 0-80-21-225-44-302-9-28-33-80-56-117-22-37-40-73-40-81 0-38 64-26 106 20 36 39 60 90 80 166l16 66 72 11c39 6 78 12 86 13 17 2 27-110 29-344l1-135-157-28c-86-15-163-32-170-38-16-13-17-40-1-56 17-17 48-15 194 9 69 11 127 19 129 17 1-2 5-172 8-379 4-210 11-388 17-403 10-28 46-36 67-15 9 9 10 119 6 409-4 271-3 399 4 403 6 4 64 10 129 13 125 7 164 19 164 53 0 39-23 44-165 38l-135-7v93c0 50-5 157-11 236-5 79-8 146-5 149 3 2 48 7 100 10 104 5 134 20 121 61-9 28-40 34-141 29-74-4-84-2-84 13 0 50-22 225-31 241-11 21-57 24-65 5z"/>
    <path d="m1015 1870c-4-6-24-78-45-158-49-189-88-289-150-382-49-73-63-119-37-121 41-4 71 19 123 95 22 33 35 45 38 35 59-167 145-340 252-504 11-17 8-31-26-103-81-171-197-319-343-436-84-67-44-115 51-60 112 65 253 232 338 397l48 95 49-72c171-247 399-469 548-530 31-13 39-13 55-1 27 20 13 38-84 111-129 97-206 169-298 278-73 87-224 295-224 309 0 3 40 90 89 193 96 204 156 364 167 444 4 27 7 51 8 51 0 1 70 4 155 8 131 5 155 9 165 23 8 13 8 23 0 35-10 16-32 18-230 17-209-1-412-20-596-54-28-6-52-9-54-8-1 2 11 55 27 118 17 63 31 140 32 170 2 53 1 55-25 58-14 2-29-2-33-8zm475-373c0-23-40-159-66-221-38-92-167-356-173-356-10 0-85 128-142 240-55 110-112 270-101 282 7 6 242 41 387 57 44 4 83 9 88 10 4 0 7-5 7-12z"/>
  </g>
</svg>
