<?xml version="1.0"?>
<svg xmlns="http://www.w3.org/2000/svg" height="200pt" preserveAspectRatio="xMidYMid meet" viewBox="0 0 200 200" width="200pt">
  <g transform="matrix(.1 0 0 -.1 0 200)">
    <path d="m412 1863c-5-10-6-48-1-88 4-38 8-96 8-127 1-64 8-59-95-76l-51-9 5 107c5 119-3 150-43 150-34 0-42-21-48-140-6-97-18-174-46-276-6-22-29-69-51-103-45-69-50-97-20-106 55-17 135 81 166 205l18 68 79 12c45 7 82 9 87 4s12-112 16-239l7-230-158-28c-87-15-164-32-172-38-20-17-16-47 10-63 19-13 38-11 162 10 77 13 143 24 147 24 3 0 8-172 10-383 2-210 8-390 12-400 19-41 71-43 85-3 3 11 3 194-2 405-7 307-7 385 4 391 7 5 64 11 128 15 141 7 161 14 161 55 0 40-22 44-176 37l-124-6v107c-1 59-5 165-10 237-5 71-7 131-5 133s47 6 100 9c100 6 125 17 125 52 0 36-25 43-128 39l-99-3-11 124c-7 68-17 130-23 138-16 19-57 16-67-4z"/>
    <path d="m1062 1862c-12-12-22-42-27-78-12-102-52-206-121-320-37-60-73-121-82-135-14-23-14-30-3-43 21-25 57-19 85 14 13 17 44 61 68 99 42 68 43 69 85 69 24 0 61 3 82 7l39 6-19-79c-51-221-150-408-308-585-34-37-61-72-61-77 0-9 28-40 36-40 19 0 67 37 114 86 148 156 258 375 312 619 10 49 20 91 22 92 1 1 39 5 84 9l82 7v-64c0-368-172-758-465-1055-55-55-119-114-143-129-51-33-52-59-4-63 62-6 204 100 313 235 249 309 380 641 383 970l1 113 30 4c86 13 154 14 159 1 12-31 28-348 22-435-17-241-58-478-112-645-32-98-140-279-161-271-8 4-39 9-70 12-53 7-55 6-51-17 5-35 76-81 136-87l50-4 51 78c125 192 184 375 226 711 27 211 30 315 15 527-11 156-24 212-53 228-28 15-306-7-555-43-79-12-145-20-147-17-2 2 5 29 15 60 21 65 44 203 36 223-3 8-14 19-25 25-16 8-24 7-39-8z"/>
  </g>
</svg>
