<?xml version="1.0"?>
<svg xmlns="http://www.w3.org/2000/svg" height="200pt" preserveAspectRatio="xMidYMid meet" viewBox="0 0 200 200" width="200pt">
  <g transform="matrix(.1 0 0 -.1 0 200)">
    <path d="m1210 1910c-11-7-15-28-14-88l1-80-105-16c-109-17-132-26-132-56 0-38 23-43 131-29 81 10 102 10 108 0 8-12 24-175 25-256l1-40-75-7c-130-13-334-49-357-64-26-16-30-46-9-63 11-9 51-6 178 13 160 25 298 39 511 52l107 6v-119-119l-192-18c-214-20-360-41-390-57-13-7-18-19-16-37 3-25 6-27 53-27 28 0 113 8 191 18 78 9 188 20 245 23l104 7 1-361 1-360-38 13c-21 8-49 21-63 30-31 20-56 14-56-15 0-36 71-96 143-119 114-38 107-69 100 404l-6 405h49c57 0 97 18 102 45 6 28-26 45-85 45h-53v119 118l49 7c27 3 74 3 105 0 85-10 132 28 89 72-16 16-40 17-288 11-149-3-278-9-286-12-16-6-21 21-45 251l-6 61 148 12c154 13 194 25 194 60 0 40-22 44-158 32-70-7-142-15-159-18l-33-5v67c0 94-23 125-70 95z"/>
    <path d="m414 1867c-2-7-3-74-2-147l3-134-50-8c-27-4-60-9-72-12-21-6-21-5-16 107 5 98 3 115-11 130-44 44-76 8-76-86 0-80-21-225-44-302-9-28-33-80-56-117-22-37-40-73-40-81 0-38 64-26 106 20 36 39 60 90 80 166l16 66 72 11c39 6 78 12 86 13 17 2 27-110 29-344l1-135-157-28c-86-15-163-32-170-38-16-13-17-40-1-56 17-17 48-15 194 9 69 11 127 19 129 17 1-2 5-172 8-379 4-210 11-388 17-403 10-28 46-36 67-15 9 9 10 119 6 409-4 271-3 399 4 403 6 4 64 10 129 13 125 7 164 19 164 53 0 39-23 44-165 38l-135-7v93c0 50-5 157-11 236-5 79-8 146-5 149 3 2 48 7 100 10 104 5 134 20 121 61-9 28-40 34-141 29-74-4-84-2-84 13 0 50-22 225-31 241-11 21-57 24-65 5z"/>
    <path d="m1150 681c-16-31-3-47 61-75 33-14 80-40 104-56 47-33 65-36 83-18 35 35-5 83-113 134-79 39-119 43-135 15z"/>
  </g>
</svg>
