<?xml version="1.0"?>
<svg xmlns="http://www.w3.org/2000/svg" height="200pt" preserveAspectRatio="xMidYMid meet" viewBox="0 0 200 200" width="200pt">
  <g transform="matrix(.1 0 0 -.1 0 200)">
    <path d="m916 1874c-12-12-16-37-16-108 0-51-3-134-6-183l-7-90-86-7c-305-22-477-40-490-52-23-21-6-61 29-69 25-5 228 8 478 31l63 6-7-39c-27-150-122-375-252-598-127-217-412-513-573-596-40-20-50-44-27-67 31-31 107-4 213 76 120 91 348 343 438 484 51 81 185 340 222 428l32 79 16-53c17-52 142-270 226-394 71-106 189-239 264-301 131-107 336-233 432-267 75-26 126-6 108 42-3 9-48 35-99 59-148 69-346 204-444 304-110 111-177 199-292 391-101 166-158 312-161 408l-2 46 125 13c69 6 202 15 295 19 94 4 178 11 188 16 25 13 23 64-5 79-22 12-321-2-473-21-38-5-80-10-92-10h-23v178c0 161-2 181-18 195-23 21-36 21-56 1z"/>
    <path d="m1262 1818c-33-33-8-61 126-142 97-59 121-66 142-41 25 30 3 60-77 105-43 24-94 54-113 67-39 26-60 29-78 11z"/>
  </g>
</svg>
