<?xml version="1.0"?>
<svg xmlns="http://www.w3.org/2000/svg" height="200pt" preserveAspectRatio="xMidYMid meet" viewBox="0 0 200 200" width="200pt">
  <g transform="matrix(.1 0 0 -.1 0 200)">
    <path d="m652 1883c-5-10-25-70-45-133-20-64-47-139-60-169l-23-52-99 131c-54 73-105 134-112 137-19 8-43-16-43-43 0-13 32-66 74-123 41-55 87-118 101-141l26-42-28-41c-15-23-94-108-175-189-82-82-148-152-148-156 0-15 24-32 46-32 43 0 184 123 291 253 30 37 59 67 63 67 10 0 107-194 115-230 4-18-7-47-40-105-69-120-139-205-299-365-80-79-146-152-146-162 0-28 35-41 67-24 84 44 347 328 426 460l35 59 9-49c4-27 8-137 7-244-1-220-18-347-61-442-24-53-28-57-52-52-68 17-121 39-174 76-32 21-66 38-75 36-54-10 12-97 116-151 80-42 178-70 202-57s88 157 105 236c34 164 45 422 24 571-15 113-73 282-136 403-30 58-58 109-63 113-4 5 12 50 35 100 42 89 105 288 105 332 0 42-50 62-68 28z"/>
    <path d="m1410 1599c-96-4-222-12-280-19-252-26-237-15-216-166 28-193 36-359 36-730 0-233 4-382 11-416 15-66 54-107 129-135 136-50 732-30 803 27 20 16 20 20 7 76-7 33-16 114-19 181-6 129-16 157-49 137-24-15-34-98-29-226l5-106-87-13c-56-9-169-13-323-12-218 2-241 4-287 24-27 11-53 28-57 37-4 10-11 220-15 467-6 408-19 627-44 731-4 19 2 21 103 33 59 7 186 15 284 18l176 6-5-299c-2-164-6-303-7-308s-18 5-38 23c-59 52-106 35-74-27 19-37 123-130 154-138 50-14 51-8 56 412 5 412 5 417-39 426-11 3-99 1-195-3z"/>
  </g>
</svg>
