<?xml version="1.0"?>
<svg xmlns="http://www.w3.org/2000/svg" height="200pt" preserveAspectRatio="xMidYMid meet" viewBox="0 0 200 200" width="200pt">
  <g transform="matrix(.1 0 0 -.1 0 200)">
    <path d="m553 1873c-5-10-6-399-3-864 5-895 4-879 50-879s45-8 42 719c-3 711-13 1003-33 1027-16 19-47 18-56-3z"/>
    <path d="m1143 1745c-3-9 0-90 7-181s9-168 6-172c-4-3-88-17-188-29-99-13-187-28-194-34-18-15-18-44 1-59 13-11 48-9 188 9 95 11 178 21 186 21 11 0 12-14 7-67-23-237-88-478-177-655-21-42-70-118-108-168-58-76-68-96-60-111 11-21 40-25 69-9 35 19 132 154 182 255 55 109 116 285 142 410 9 44 19 91 22 105 5 22 8 19 29-30 118-285 265-554 359-657 63-70 191-173 215-173 21 0 41 19 41 39 0 9-53 67-119 131-99 96-129 133-184 225-63 106-216 422-250 515-24 65-58 193-52 198 6 6 340 42 392 42 61 0 95 18 91 48-6 50-18 50-440 5l-56-6-6 44c-2 24-9 97-15 161-6 65-15 127-21 138-13 24-58 27-67 5z"/>
    <path d="m1430 1711c-5-11-7-26-4-35 3-8 48-49 100-91 74-61 99-76 121-73 22 2 29 9 31 29 2 21-7 35-50 71-140 118-177 137-198 99z"/>
    <path d="m227 1483c-4-3-7-14-7-24 0-25 170-350 186-356 21-8 44 16 44 47 0 30-80 200-135 285-26 41-41 55-58 55-13 0-27-3-30-7z"/>
    <path d="m357 738c-25-35-86-108-136-163-94-104-108-135-71-155 26-14 36-7 106 70 93 103 130 151 158 207 57 114 16 142-57 41z"/>
  </g>
</svg>
