<?xml version="1.0"?>
<svg xmlns="http://www.w3.org/2000/svg" height="200pt" preserveAspectRatio="xMidYMid meet" viewBox="0 0 200 200" width="200pt">
  <g transform="matrix(.1 0 0 -.1 0 200)">
    <path d="m1317 1908c-13-11-17-47-24-228l-8-215-195-28c-107-16-201-31-208-35s-21-19-29-34c-15-24-15-38 11-205 37-242 42-260 78-279 26-13 47-14 148-5 65 6 136 11 158 11h39l6-262c4-144 5-264 2-266-2-2-91-21-199-41-107-21-202-43-210-50-22-18-20-58 2-65 10-3 170 21 356 54 345 62 538 88 544 73 1-4 19-39 40-78 33-62 40-70 66-70 51 0 55 25 18 102-68 140-224 412-239 417-9 4-24 4-34 1-38-13-32-43 35-163l65-117-37-3c-20-1-97-11-170-23-74-11-136-18-138-16-3 2-8 119-11 259l-6 255 64 7c35 3 140 9 232 13 92 3 170 10 172 14 3 4 7 126 9 272 5 252 4 266-15 282-17 16-35 17-181 11-90-3-189-9-220-12l-58-6v205c0 174-2 208-16 221-19 19-25 20-47 4zm450-580c-4-46-7-135-7-199v-116l-137-7c-76-4-162-9-190-13l-53-6v201 200l93 10c50 5 139 10 196 11l104 1zm-475-194-3-150-146-13c-80-7-149-9-154-4-10 11-61 333-55 349 3 8 20 14 38 15 18 0 96 10 173 23l140 22 5-45c3-26 4-114 2-197z"/>
    <path d="m652 1883c-5-10-25-70-45-133-20-64-47-139-60-169l-23-52-99 131c-54 73-105 134-112 137-19 8-43-16-43-43 0-13 32-66 74-123 41-55 87-118 101-141l26-42-28-41c-15-23-94-108-175-189-82-82-148-152-148-156 0-15 24-32 46-32 43 0 184 123 291 253 30 37 59 67 63 67 10 0 107-194 115-230 4-18-7-47-40-105-69-120-139-205-299-365-80-79-146-152-146-162 0-28 35-41 67-24 84 44 347 328 426 460l35 59 9-49c4-27 8-137 7-244-1-220-18-347-61-442-24-53-28-57-52-52-68 17-121 39-174 76-32 21-66 38-75 36-54-10 12-97 116-151 80-42 178-70 202-57s88 157 105 236c34 164 45 422 24 571-15 113-73 282-136 403-30 58-58 109-63 113-4 5 12 50 35 100 42 89 105 288 105 332 0 42-50 62-68 28z"/>
  </g>
</svg>
