<?xml version="1.0"?>
<svg xmlns="http://www.w3.org/2000/svg" height="200pt" preserveAspectRatio="xMidYMid meet" viewBox="0 0 200 200" width="200pt">
  <g transform="matrix(.1 0 0 -.1 0 200)">
    <path d="m860 1940c-7-12-10-70-8-147l3-126-215-33c-294-45-429-71-446-85-23-19-18-58 9-64 12-3 116 10 232 29 475 79 740 101 1085 91 211-7 215-7 234 14 16 17 17 26 8 45-10 23-12 23-213 29-112 3-291 1-398-4s-196-8-197-6c-2 2-7 57-10 123-4 65-11 127-16 137-12 23-55 22-68-3z"/>
    <path d="m863 1508c-53-61-123-170-123-194 0-21 8-29 39-41l39-15-84-115c-82-113-96-147-72-171 19-19 46-15 173 28 66 23 155 50 198 61l79 21 52-56c46-50 55-56 77-48 47 18 37 51-45 144-42 48-85 89-96 93-25 8-50-10-50-37 0-10-6-20-12-22-18-6-189-56-212-63-25-7 11 43 119 169 74 85 87 112 63 136-20 20-41 14-83-28-28-27-47-39-58-35-13 6-8 18 29 71 48 71 52 85 28 108-21 22-37 20-61-6z"/>
    <path d="m1277 1453c-34-31-71-70-81-86-17-25-17-30-4-43 14-14 19-14 53 0 48 20 141 99 148 125 6 23-18 61-39 61-8 0-42-26-77-57z"/>
    <path d="m291 1372c-6-11-6-24 0-34 11-20 128-104 165-118 40-16 66-4 62 28-2 21-21 40-87 85-88 59-124 69-140 39z"/>
    <path d="m1249 1209c-18-34 9-50 217-133 221-87 261-97 287-68 25 27 12 48-41 68-26 9-92 35-147 57-150 59-261 97-284 97-11 0-25-10-32-21z"/>
    <path d="m554 1148c-88-46-221-127-233-142-20-23-10-60 17-64 26-4 120 49 220 122 46 34 62 52 62 70 0 33-21 38-66 14z"/>
    <path d="m949 973c-10-11-15-54-17-140-2-67-7-123-10-123-14 0-260-41-362-60-229-44-472-103-497-123-18-13-16-42 3-58 13-10 37-7 142 19 207 52 634 132 703 132h26l7-242c4-134 10-267 14-297 8-60 29-84 60-65 20 13 22 81 8 410l-8 211 138 13c77 7 274 15 439 17 165 3 308 9 318 14 21 12 22 52 2 69-27 22-634 4-852-25l-43-6v113c0 87-4 119-16 136-18 26-36 28-55 5z"/>
  </g>
</svg>
