<?xml version="1.0"?>
<svg xmlns="http://www.w3.org/2000/svg" height="200pt" preserveAspectRatio="xMidYMid meet" viewBox="0 0 200 200" width="200pt">
  <g transform="matrix(.1 0 0 -.1 0 200)">
    <path d="m1415 1873c-378-31-859-108-1030-165-74-24-100-53-75-84 16-18 24-17 165 20 80 22 358 76 386 76 13 0 79-555 67-565-2-1-61-15-133-30-125-26-165-43-165-71 0-8 10-20 23-28 20-13 36-11 152 14 71 16 131 28 132 26 10-9 32-311 36-472l4-191-90-7c-204-14-539-75-654-118-47-17-53-23-53-48 0-19 6-31 18-35 11-3 84 10 163 30 267 64 550 95 896 98 180 1 249-3 328-17 55-10 152-24 215-31 109-14 116-13 134 4 23 23 14 59-18 71-12 4-53 11-91 15-39 3-126 16-195 28-103 18-162 21-341 20h-216l-7 90c-3 49-6 140-6 201s-7 169-15 241c-8 71-11 133-7 136 12 10 195 29 282 29 93 0 120 10 120 45 0 49-63 56-284 30-71-8-130-14-132-12-2 1-12 92-24 200-11 109-27 232-35 275-8 42-11 79-7 83 11 10 246 37 428 50 87 6 165 16 172 21 19 16 14 56-7 68-19 10-50 10-136 3z"/>
    <path d="m1337 863c-23-22 1-66 124-229 73-95 140-176 150-179 26-9 59 12 59 37 0 21-100 158-218 301-62 73-93 92-115 70z"/>
  </g>
</svg>
