<?xml version="1.0"?>
<svg xmlns="http://www.w3.org/2000/svg" height="200pt" preserveAspectRatio="xMidYMid meet" viewBox="0 0 200 200" width="200pt">
  <g transform="matrix(.1 0 0 -.1 0 200)">
    <path d="m1082 1763c-6-11-6-46 0-88 16-115 13-426-5-570-39-309-99-551-169-675-17-30-57-92-90-138-65-90-70-115-22-120 27-3 37 4 71 45 93 112 154 227 201 373 34 108 86 398 102 570 20 226 6 548-26 598-17 26-50 29-62 5z"/>
    <path d="m1775 1750c-22-5-139-23-260-41s-226-37-232-42c-7-5-13-20-13-33 0-33 37-40 134-26 44 7 82 9 85 6s7-135 9-292l3-287-105-32c-80-25-106-38-111-53-7-23 10-50 31-50 8 0 48 10 89 22s77 19 81 16c3-4 2-134-2-290l-9-283-75-6c-166-14-250-30-261-51-9-16-7-24 8-39 18-19 23-19 148-4 93 11 201 15 378 13 209-2 250 0 257 12 15 24 12 39-14 55-19 13-63 18-191 22l-167 6 6 41c3 23 8 156 12 297l7 256 76 18c84 19 101 29 101 55 0 36-26 45-91 31-33-6-66-14-73-17-10-4-12 30-9 173 3 98 0 228-5 288-5 61-7 112-6 114 2 2 72 14 156 27s160 26 169 29c23 8 31 32 19 56-12 21-67 24-145 9z"/>
    <path d="m529 1705c-3-2-72-16-155-30-222-37-283-54-300-80-30-47 8-74 72-51 22 7 63 17 92 21l52 7-1-209v-208l-92-45c-79-39-92-49-95-72-5-43 30-45 112-8 38 17 72 28 75 24 3-3 6-114 6-246v-240l-50-25c-67-34-171-108-179-128-11-28-7-53 10-59 25-10 30-8 75 30 55 46 185 112 364 184 144 59 168 77 149 107-18 29-46 26-155-18-57-22-110-43-117-46-10-4-12 46-10 243l3 248 87 31c100 35 111 43 106 76-4 34-49 36-131 6l-67-25v198 198l68 11c155 27 206 55 172 96-12 14-80 21-91 10z"/>
    <path d="m770 1501c-12-24-12-120 3-365 11-172 14-190 33-202 17-12 23-12 40 0 16 12 19 26 18 83-2 151-25 478-36 490-16 19-46 16-58-6z"/>
  </g>
</svg>
