<?xml version="1.0"?>
<svg xmlns="http://www.w3.org/2000/svg" height="200pt" preserveAspectRatio="xMidYMid meet" viewBox="0 0 200 200" width="200pt">
  <g transform="matrix(.1 0 0 -.1 0 200)">
    <path d="m1205 1834c-88-7-197-16-243-19-78-6-83-8-97-35-20-39-19-106 5-313 16-148 39-392 66-714 4-46 12-87 18-92 6-6 35-11 63-13l52-3-24-68c-13-38-42-96-64-130-67-104-112-139-273-218-82-39-148-77-148-83 0-22 24-36 63-36 49 0 265 101 320 150 83 73 176 233 199 342l12 58h37c21 0 44 2 52 6 12 4 15-23 20-168 6-213 20-266 84-314 67-51 156-68 357-67 184 2 222 10 232 50 19 72-27 262-68 284-32 17-41 1-34-60 3-31 9-83 12-117l7-61-114-7c-80-4-142-2-208 8-101 15-137 34-160 81-17 34-33 342-19 368 7 15 24 17 117 17 140 0 141 1 141 136 0 54 7 160 14 234 8 74 18 273 21 442 9 389 23 359-153 357-70-1-199-8-287-15zm355-191c0-65-4-124-9-132-7-10-44-17-128-23-65-4-194-17-287-28s-171-18-173-16c-4 4-33 231-33 262 0 20 7 22 198 36 108 8 250 16 315 17l117 1zm-10-332c0-54-3-113-6-130l-6-31h-82c-69 0-223-17-416-45l-46-7-11 123c-6 68-8 127-5 131 7 6 359 45 472 51 30 2 65 4 78 5 21 2 22 0 22-97zm-24-312c-3-34-6-99-6-144v-82l-107-7c-60-4-169-14-243-21-74-8-136-13-138-11s-9 64-16 137c-9 91-10 136-3 140 5 4 71 15 146 24s143 18 151 20c8 1 62 3 119 4l104 1z"/>
    <path d="m680 1683c-163-13-525-83-568-109-25-17-29-46-7-64 12-10 34-9 116 9 123 26 124 26 125-1 0-13 4-87 9-164l8-141-65-22c-70-23-104-51-94-76 10-27 37-29 104-7l64 21-5-221-6-221-118-62c-65-33-135-72-156-85-44-29-57-64-33-88 15-16 20-15 64 11 80 47 351 181 479 237 122 54 139 67 128 101-11 35-42 32-147-16-57-26-109-49-115-52-10-4-13 42-13 209v214l84 27c88 29 111 51 86 82-17 20-46 19-113-4l-55-19-8 76c-4 42-8 115-8 162l-1 84 45 8c25 4 102 14 173 22 70 8 134 20 143 27 8 7 14 24 12 38-3 23-8 26-43 27-22 1-60-1-85-3z"/>
  </g>
</svg>
