<?xml version="1.0"?>
<svg xmlns="http://www.w3.org/2000/svg" height="200pt" preserveAspectRatio="xMidYMid meet" viewBox="0 0 200 200" width="200pt">
  <g transform="matrix(.1 0 0 -.1 0 200)">
    <path d="m1482 1808c-21-21-13-46 21-72 61-47 183-132 199-139 26-9 50 15 46 48-2 25-20 41-112 102-109 74-132 83-154 61z"/>
    <path d="m1246 1797c-17-12-18-27-14-155l4-142h-26c-52 0-322-49-336-61-8-7-14-21-12-32 6-40 29-42 180-19 204 32 195 33 202-30 3-29 8-143 11-253s10-254 15-320 10-200 10-298v-178l-46 32c-36 26-49 31-62 23-28-18-25-39 13-84 77-92 150-126 175-81 13 26 13 450 0 646-11 152-28 567-24 573 1 2 71 8 155 13 85 6 165 13 178 17 33 10 49 37 35 60-10 14-27 17-115 17-57 0-139-4-181-8l-77-8-5 43c-3 24-9 85-13 137-7 78-11 96-29 107-17 12-23 12-38 1z"/>
    <path d="m265 1543c-93-8-176-19-182-25-7-6-13-21-13-33 0-42 18-46 146-35 65 5 122 10 127 10 4 0 6-69 5-152l-3-153-60-13c-69-15-85-26-85-58 0-17 7-25 25-30 25-6 88 0 118 12 12 4 15-20 21-148 4-84 9-165 12-179 4-24-3-30-113-89-195-105-214-121-193-161 20-37 22-37 325 137 66 37 158 88 205 112 99 52 120 68 120 93 0 51-66 41-188-27-35-20-65-34-67-32s-5 75-7 163l-3 159 82 16c90 19 116 33 111 63-5 35-31 42-106 29-38-6-76-14-85-18-15-6-17 8-17 140v146h140c128 0 142 2 161 21 18 18 19 23 6 42-14 21-22 22-163 23-82 1-225-5-319-13z"/>
    <path d="m1542 1093c-75-106-88-136-66-154 23-19 56 2 113 71 77 93 97 140 69 168-26 26-47 10-116-85z"/>
    <path d="m930 1110c-13-25-12-28 69-117 67-74 96-88 121-58 19 22 3 51-67 126-70 73-103 87-123 49z"/>
    <path d="m1408 785c-9-20-7-29 7-52 36-55 152-178 293-310 129-120 147-134 175-131 25 2 33 8 35 26 3 19-37 63-206 230-116 114-218 219-227 235-22 35-61 37-77 2z"/>
    <path d="m913 645c-125-128-142-157-108-185 8-6 22-9 33-6 19 6 190 192 223 243 27 40 25 73-3 73-16 0-60-37-145-125z"/>
  </g>
</svg>
