<?xml version="1.0"?>
<svg xmlns="http://www.w3.org/2000/svg" height="200pt" preserveAspectRatio="xMidYMid meet" viewBox="0 0 200 200" width="200pt">
  <g transform="matrix(.1 0 0 -.1 0 200)">
    <path d="m1360 1864c-283-38-420-68-420-93 0-6-10-11-23-11-52 0-56-31-33-265 8-77 20-198 27-270 17-179 6-172 197-144 83 13 154 20 157 18 3-4 24-328 21-336-1 0-53-11-116-22-121-22-146-35-135-70 9-30 39-34 130-16 138 26 125 43 125-159v-174l-67-7c-234-22-469-59-490-76-17-15-17-44 2-59 13-10 45-9 173 8 226 31 663 62 855 62 109 0 137 9 137 44 0 47-14 50-253 43-122-4-232-10-244-13l-23-6v186c0 102 3 186 8 186 77 1 289 23 299 31 16 14 17 55 1 65-14 9-116 7-230-4l-76-8-6 36c-3 19-6 95-6 168v132h179c160 0 181 2 202 19s22 21 11 46c-8 17-9 32-4 39 5 6 13 58 16 116 4 58 16 190 26 294 11 104 17 200 13 214-3 13-17 28-30 33-36 13-302 9-423-7zm366-91c-2-10-7-47-11-83-3-36-8-85-11-110l-5-45-168-3-168-3-7 117c-3 65-3 121 1 125 12 11 70 15 231 17 132 2 143 1 138-15zm-456-133c0-66-1-120-2-120-324-41-294-45-301 45-4 41-9 92-13 112-5 36-4 38 23 39 15 1 75 11 133 22s117 21 133 21l27 1zm416-315-1-125-160 2-160 3-3 117-3 117 68 4c37 2 111 4 164 5l96 2zm-416-14v-120l-47-6c-27-4-84-13-128-20s-81-12-82-12c-4 5-30 243-26 247 4 5 191 26 251 29l32 1z"/>
    <path d="m550 1770c-118-10-396-57-430-73-29-14-37-48-16-66 12-10 36-9 124 6l109 20 6-126c4-69 10-165 13-213 6-75 5-88-8-88-9 0-38-10-67-21-40-17-51-27-51-44 0-12 7-28 15-35 15-12 48-7 110 16 17 7 22-44 30-278l6-177-131-85c-71-47-130-90-130-96 0-23 21-50 38-50 10 0 40 14 68 31 27 18 130 82 229 142 256 157 285 181 252 214-13 14-27 9-123-41-59-31-110-54-112-51-3 3-9 98-13 212-7 152-6 209 3 214 6 4 38 12 72 19 79 15 96 25 96 55 0 40-29 48-110 29-39-9-74-13-77-10-7 6-32 282-33 352 0 50 1 50 182 60 88 5 128 11 141 22 21 19 22 36 1 56-17 17-39 18-194 6z"/>
  </g>
</svg>
