<?xml version="1.0"?>
<svg xmlns="http://www.w3.org/2000/svg" height="200pt" preserveAspectRatio="xMidYMid meet" viewBox="0 0 200 200" width="200pt">
  <g transform="matrix(.1 0 0 -.1 0 200)">
    <path d="m935 1843c-15-15-16-32-10-152 4-75 8-140 9-145 0-6-69-18-154-27-85-10-166-20-178-22-20-4-23-1-18 17 31 115 33 271 4 290-13 8-23 8-35 0-14-9-21-36-30-115-6-57-21-135-33-174-31-99-111-275-165-360-44-72-49-98-19-109 51-20 133 98 227 325 12 29 20 36 43 37 16 0 88 8 159 16 72 9 146 16 166 16h35l12-182c7-101 12-207 12-235 0-51-1-53-27-53-16 0-95-10-177-22-110-16-155-27-168-40-22-22-22-28-4-53 14-19 17-19 167 3 85 12 168 22 185 22h31l12-157c23-312 28-428 19-434-5-3-145-9-311-12-383-8-556-28-578-69-17-31 16-61 59-53 138 26 594 43 1367 51 220 2 405 6 412 8 7 3 13 16 13 29 0 52-2 52-446 52h-412l-6 70c-4 38-11 142-16 230s-13 190-16 226l-7 66 69 6c189 15 320 31 332 40 20 16 14 45-13 63-23 15-37 16-138 5-62-7-145-15-184-18l-73-6v87c0 48-5 153-11 233-6 79-8 147-5 151 3 3 113 8 243 12 131 4 246 11 256 15 36 15 44 66 13 78-8 3-125 2-262-3s-250-7-252-5-8 67-14 145c-11 141-20 170-53 170-7 0-21-8-30-17z"/>
  </g>
</svg>
