<?xml version="1.0"?>
<svg xmlns="http://www.w3.org/2000/svg" height="200pt" preserveAspectRatio="xMidYMid meet" viewBox="0 0 200 200" width="200pt">
  <g transform="matrix(.1 0 0 -.1 0 200)">
    <path d="m1185 1843c-365-37-734-90-754-109-12-11-10-25 12-96 56-178 62-236 62-583-1-365-9-441-78-718-43-177-43-199 0-205 11-2 25 4 32 12 20 24 91 308 110 440l17 121 75 7c270 24 680 47 847 48h142v-270-270l-52 21c-29 12-69 27-89 34s-54 22-77 34c-49 25-80 27-89 5-8-22 49-77 110-104 29-13 94-43 146-67 99-45 123-51 138-30 16 19-2 875-21 1029-9 69-21 211-26 315-12 220-31 348-54 371-14 15-45 17-214 18-108 1-215 0-237-3zm389-110c14-66 25-185 26-275v-98h-42c-24 0-137-7-251-16s-209-15-211-13c-8 9-38 400-32 407 12 12 121 19 318 20l186 2zm-595-140c6-76 14-168 18-205 5-62 4-68-13-68-11 0-68-7-129-15-60-8-144-15-186-15h-75l-12 98c-7 54-23 139-37 188-13 49-20 92-17 95 4 3 50 12 102 19s136 18 185 25c50 7 104 13 121 14l31 1zm635-355c16-104 26-212 26-295v-93h-133c-74 0-188-3-254-6l-120-7-12 139c-7 76-15 166-18 200l-5 61 193 15c107 8 222 16 256 17l62 1zm-601-90c4-46 11-134 17-197 6-62 9-115 7-117-2-3-65-9-138-14-74-5-171-14-217-21-46-6-85-9-87-7s-1 97 2 211l6 208 71-6c39-3 116 1 171 9 55 7 114 14 131 15l31 1z"/>
  </g>
</svg>
