<?xml version="1.0"?>
<svg xmlns="http://www.w3.org/2000/svg" height="200pt" preserveAspectRatio="xMidYMid meet" viewBox="0 0 200 200" width="200pt">
  <g transform="matrix(.1 0 0 -.1 0 200)">
    <path d="m1315 1674c-257-19-357-28-530-50-229-28-339-47-444-75-54-14-77-17-87-8-20 16-53 1-61-29-22-88 141-1121 185-1174 13-15 32-18 126-18 61 0 188 7 281 15 204 18 863 39 957 31 53-5 70-3 82 10 14 13 16 75 19 497 2 554-1 734-14 759-5 10-19 23-30 29-21 11-382 21-484 13zm435-326v-233l-188-1c-166-1-429-17-473-30-14-4-18 15-27 138-7 79-13 187-15 240l-4 97 51 5c100 11 134 13 394 14l262 2zm-787 25c4-98 10-205 13-239l7-61-134-17c-74-10-199-31-279-48-196-40-230-44-230-27 0 8-13 113-30 234-16 121-30 221-30 222-1 20 500 107 646 112l31 1zm785-619c-3-151-8-278-11-280-3-3-137-10-298-16-211-7-294-7-299 1-3 6-12 73-19 149-7 75-19 191-27 257-7 65-12 121-10 122 13 14 337 36 590 41l79 2zm-754 189c8-53 46-437 46-467s9-29-280-50c-277-21-307-21-314 2-20 70-86 404-86 437 0 14 260 68 460 95 178 25 167 26 174-17z"/>
  </g>
</svg>
