<?xml version="1.0"?>
<svg xmlns="http://www.w3.org/2000/svg" height="200pt" preserveAspectRatio="xMidYMid meet" viewBox="0 0 200 200" width="200pt">
  <g transform="matrix(.1 0 0 -.1 0 200)">
    <path d="m965 1796c-17-12-18-30-16-288l2-275-92-6c-51-4-131-7-178-7s-115-5-151-11-106-11-155-13c-50-1-96-6-103-10-26-16-10-200 58-678 22-154 45-289 51-299 13-26 48-33 127-25 97 9 766 36 911 36 72 0 139-5 158-12 28-10 36-10 49 3 20 20 39 104 58 259 9 69 21 159 26 200 13 97 37 331 46 438 10 131 38 122-373 122h-343l-1 188c-2 278-9 362-35 378-17 12-23 12-39 0zm695-698c0-24-7-111-17-194l-16-151-286-5c-157-3-287-5-288-4s-5 90-9 199l-7 197h311 312zm-707-155c3-102 4-190 1-195-3-4-69-8-147-8-78-1-176-5-217-10-178-23-200-24-200-9 0 8-9 84-20 169-30 231-42 205 103 219 67 7 124 15 126 17s82 4 176 4h172zm657-311c0-27-23-209-36-284l-6-37-252-3c-138-2-253-2-255-1s-6 79-9 172l-5 171 209 3c115 1 242 3 282 5l72 2zm-656-84c3-57 9-135 12-174l6-72-108-6c-60-3-174-10-253-16-80-6-148-7-151-3-4 5-15 69-25 143-9 74-19 149-22 166l-5 31 103 12c127 14 172 17 320 19l116 2z"/>
  </g>
</svg>
