<?xml version="1.0"?>
<svg xmlns="http://www.w3.org/2000/svg" height="200pt" preserveAspectRatio="xMidYMid meet" viewBox="0 0 200 200" width="200pt">
  <g transform="matrix(.1 0 0 -.1 0 200)">
    <path d="m950 1900c-8-14-9-67-4-165l7-145h-29c-84-1-377-21-429-31-33-6-71-17-84-26-26-17-26-11 4-233 8-58 21-192 30-298 8-106 20-202 26-214 10-19 16-20 83-14 134 13 301 26 347 26h46l7-188c12-315 30-512 46-522 22-14 36-12 54 6 19 19 21 99 6 272-5 64-11 188-12 275l-3 157h206c195 0 207-1 212-19 7-30 40-43 64-26 18 13 20 29 26 227 4 117 16 296 27 397 19 176 19 186 2 204-16 18-30 19-278 15l-260-3-12 148c-6 82-16 155-23 163-17 20-47 17-59-6zm550-402c-1-38-27-258-31-261-2-2-97-2-211 1-241 5-218-11-218 154v107l48 4c26 2 129 4 230 5 140 2 182-1 182-10zm-550-127v-129l-117-7c-65-3-161-10-213-14s-98-4-101 1-11 52-18 106c-7 53-15 107-18 119-4 17 1 22 28 28 32 7 243 20 377 23l62 2zm0-351c0-97-3-130-12-130-7 0-85-5-173-11s-173-11-190-12l-30-2-10 132-10 131 115 7c63 3 124 7 135 9s55 4 98 5l77 1zm443 123 67-6v-123-124h-210-210v130 130h143c78 0 172-3 210-7z"/>
  </g>
</svg>
