<?xml version="1.0"?>
<svg xmlns="http://www.w3.org/2000/svg" height="200pt" preserveAspectRatio="xMidYMid meet" viewBox="0 0 200 200" width="200pt">
  <g transform="matrix(.1 0 0 -.1 0 200)">
    <path d="m1215 1903c-22-2-130-10-240-18-226-18-444-42-493-55-27-7-34-5-42 11-6 11-21 19-35 19-43 0-46-26-21-171 20-114 55-360 72-516 3-24 12-49 19-57 23-23 107-29 295-21l177 7-4-59c-3-32-6-63-8-69s-49-13-117-17c-144-8-425-45-458-60-16-8-26-22-28-39-5-41 24-43 210-18 90 12 210 24 267 27l103 6-7-24c-10-33-79-170-128-254-50-87-147-188-283-296-112-90-126-115-62-113 86 3 312 184 397 318 59 94 147 265 165 322l17 51 315 7c174 4 319 5 322 2 22-23 9-185-24-291-28-90-132-288-176-338l-43-48-48 16c-53 19-77 15-77-13 0-24 35-57 82-77 64-26 81-21 143 48 69 76 184 302 215 422 41 160 35 341-12 366-14 8-116 9-348 4l-328-8-4 68c-1 37-1 69 1 71s115 4 251 4c182 0 251 3 263 13 15 10 20 46 32 229 8 119 17 227 20 240 3 12 10 75 15 138 12 141 7 152-76 168-52 11-221 14-319 5zm301-96c7-7-10-235-18-242-2-1-114-5-250-8l-248-5v123 123l118 7c64 3 124 8 132 10 28 7 258 0 266-8zm-606-141v-124l-47-6c-101-13-355-37-357-34-3 4-44 243-42 245 2 3 375 41 414 42l32 1zm576-227c-3-17-6-78-6-135v-104h-224-223l-7 58c-3 31-10 89-14 129l-8 72 86 4c47 1 156 4 244 5l159 2zm-572-11c10-52 29-228 25-233-3-2-93-7-200-11l-196-7-8 89c-4 49-8 102-9 119l-1 30 170 16c94 9 180 17 192 17 16 2 24-5 27-20z"/>
  </g>
</svg>
