<?xml version="1.0"?>
<svg xmlns="http://www.w3.org/2000/svg" height="200pt" preserveAspectRatio="xMidYMid meet" viewBox="0 0 200 200" width="200pt">
  <g transform="matrix(.1 0 0 -.1 0 200)">
    <path d="m725 1813c-163-6-466-34-542-49-126-26-125-23-118-162 3-64 12-184 20-267 8-82 19-221 25-307 16-225 42-364 73-396l25-24 63 16c110 27 196 36 437 46 150 6 239 13 248 21 17 14 19 272 3 419-6 52-13 227-17 388-8 334-5 324-91 320-25-1-82-3-126-5zm125-297v-214l-62-6c-35-3-105-7-155-9-89-4-93-4-93 17 0 11-7 106-15 210-8 105-12 192-9 195 5 5 113 12 287 19l47 2zm-426 162c8-48 27-400 21-406-12-12-249-42-255-32-8 12-29 248-32 360l-3 74 45 8c53 10 166 25 196 27 17 1 23-6 28-31zm440-505c4-21 9-119 13-219l6-181-54-6c-30-4-95-7-145-7-87 0-92 1-97 23-5 19-17 145-32 344-5 75-11 72 140 76 55 2 114 4 131 5 29 2 32-1 38-35zm-400-45c3-29 10-120 16-201 6-82 13-154 16-162 4-9-13-15-66-20-40-4-97-13-128-20-31-8-58-13-58-12-11 12-36 229-37 317l-2 115 105 16c159 25 148 28 154-33z"/>
    <path d="m1705 1693c-16-2-167-26-335-54-168-27-325-53-350-57-37-6-46-11-48-30-9-60 35-64 272-27 88 14 160 24 162 22 1-1 9-54 19-117 13-91 18-221 22-632 3-285 3-518 0-518s-33 16-67 36c-74 44-133 52-138 17-2-17 10-30 55-61 32-22 87-63 122-91 70-56 92-62 115-29 14 19 16 67 16 323 0 416-16 848-36 978-9 59-15 110-12 112 8 8 193 34 288 41 97 7 130 20 130 54 0 32-22 40-104 39-45-1-94-4-111-6z"/>
  </g>
</svg>
