<?xml version="1.0"?>
<svg xmlns="http://www.w3.org/2000/svg" height="200pt" preserveAspectRatio="xMidYMid meet" viewBox="0 0 200 200" width="200pt">
  <g transform="matrix(.1 0 0 -.1 0 200)">
    <path d="m1143 1760c-142-10-553-60-580-71-27-10-31-50-7-70 15-12 98-7 279 18l42 5 7-212c4-117 5-215 2-218-3-2-60-13-126-23-153-23-226-43-252-66-19-16-20-26-15-108 6-94 37-282 61-373 8-29 12-68 9-87-4-27-1-35 17-45 14-7 37-10 59-6 20 4 185 11 368 16 210 5 340 13 353 20 11 6 26 23 31 38 6 15 13 154 16 317 5 266 4 292-11 308-15 15-42 17-215 17h-198l-6 113c-4 61-7 158-7 214 0 88 2 102 18 107 9 3 93 10 185 15 176 10 197 16 197 57 0 45-24 48-227 34zm177-740v-110h-170-170v110 110h170 170zm-430-4v-103l-67-7c-38-3-104-6-148-7l-80-2-12 69c-19 109-25 100 80 118 98 18 194 33 215 35 9 1 12-26 12-103zm423-291c-3-55-7-101-8-103-1-1-75-5-164-9l-161-6v106c0 92 2 106 18 110 9 3 85 5 168 4l152-2zm-423-9v-104l-67-6c-38-4-89-8-115-11-47-4-48-4-57 33-14 52-41 166-41 174 0 7 68 12 208 16l72 2z"/>
    <path d="m1779 1373c-12-13-14-108-14-520v-503h-295c-162 0-376-4-475-10-99-5-292-11-430-12l-250-3-1 225c-2 231-27 516-60 663-13 57-19 68-41 73-15 4-30 1-39-8-13-12-13-26 0-109 33-207 46-394 46-660 0-245 1-269 18-277 19-10 539 1 832 17 102 6 314 11 471 11 251 0 288 2 300 16 18 22 17 1078-2 1100-15 19-43 18-60-3z"/>
  </g>
</svg>
