<?xml version="1.0"?>
<svg xmlns="http://www.w3.org/2000/svg" height="200pt" preserveAspectRatio="xMidYMid meet" viewBox="0 0 200 200" width="200pt">
  <g transform="matrix(.1 0 0 -.1 0 200)">
    <path d="m1080 1840c-249-7-472-28-504-48-6-3-22-5-37-4-50 4-54-15-31-151 11-67 31-200 44-296 20-150 26-176 44-187 16-11 49-12 170-5 82 5 150 7 152 6 7-7-189-202-263-262-44-36-174-127-290-203-247-163-251-166-234-186 17-21 74-17 127 10 49 25 284 179 361 237l43 32-5-204c-3-175-7-214-26-274-34-107-36-122-15-133 32-16 59 3 84 59 37 88 49 187 50 414v210l66 59c36 32 87 84 113 115l47 58 127-123 127-123 9-105c6-58 14-192 17-298l7-192-44 25c-24 14-54 31-66 39-18 11-24 12-37 1-22-19-20-35 10-70 25-30 134-111 166-123 8-4 26 1 38 9l23 16-6 246c-4 135-10 274-13 308l-7 63 84-56c87-58 266-149 357-180 57-21 84-14 90 23 4 28-22 47-119 87-117 48-224 107-321 177-83 59-388 335-388 350 0 5 92 9 204 9 200 0 205 0 220 22 9 12 16 40 16 62 0 21 9 91 20 155 27 162 49 353 43 384-3 15-11 31-18 37-19 16-135 18-435 10zm-138-194-3-104-57-6c-31-3-104-7-161-8l-105-3-16 92-16 92 29 7c45 9 236 32 287 33l45 1zm494 37c-4-38-9-83-12-100l-6-33h-194-194v78c0 42-3 87-6 100l-6 22h212 213zm-40-270c-4-27-10-72-13-100l-6-53h-168-169v54c0 29-3 74-6 100l-7 46h188 188zm-452 15c3-13 6-57 6-100v-76l-77-6c-43-4-108-9-145-12-64-5-68-4-72 18-6 29-26 163-26 177 0 6 44 12 113 14 61 1 131 4 153 5 36 2 43-1 48-20z"/>
  </g>
</svg>
