<?xml version="1.0"?>
<svg xmlns="http://www.w3.org/2000/svg" height="200pt" preserveAspectRatio="xMidYMid meet" viewBox="0 0 200 200" width="200pt">
  <g transform="matrix(.1 0 0 -.1 0 200)">
    <path d="m503 1824c-3-9 0-88 7-176 25-308-3-569-106-979-42-171-81-281-150-428-60-127-64-154-22-159 35-4 63 34 127 169 54 116 87 211 129 372l28 108 74-108c199-291 332-433 406-433 53 0 27 61-56 131-50 43-178 206-313 399-37 52-71 100-77 107-7 8-2 56 15 155 30 170 48 418 40 543-8 122-25 265-36 292-10 27-56 32-66 7z"/>
    <path d="m821 1606c-15-18-101-355-101-395 0-37 22-56 48-42 13 7 29 43 50 118 57 197 77 292 66 311-14 22-48 27-63 8z"/>
    <path d="m212 1458c-27-27-9-80 62-191 19-29 45-63 60-76 22-20 28-22 42-11 23 20 12 58-48 164-73 129-87 143-116 114z"/>
    <path d="m1435 1430c-66-4-186-8-267-9-197-1-193 2-185-161 4-64 16-177 26-251 23-154 40-322 42-424 1-38 6-78 11-88 11-22 60-22 221-1 153 20 409 15 476-9 50-18 69-14 82 20 14 38 11 850-4 893l-12 35-135 1c-74 0-189-2-255-6zm319-102c3-13 6-84 6-158v-135l-151 2c-83 1-152 3-154 5-1 2-5 69-9 150l-7 147 83 4c228 9 225 9 232-15zm-395-130c1-73 4-142 7-153 5-20-1-22-126-34-72-7-134-10-137-7-8 8-33 205-33 269v57h144 143zm364-254 37-7v-175-175l-46 7c-26 3-88 6-139 6h-93l-6 118c-4 64-9 140-12 169-6 48-5 52 17 56 38 7 200 7 242 1zm-349-71c3-32 8-106 12-164l6-106-93-12c-52-7-108-15-125-17l-31-6-7 121c-4 67-11 143-15 170l-8 50 76 6c42 4 81 8 86 10 6 2 29 4 52 4l41 1z"/>
  </g>
</svg>
