<?xml version="1.0"?>
<svg xmlns="http://www.w3.org/2000/svg" height="200pt" preserveAspectRatio="xMidYMid meet" viewBox="0 0 200 200" width="200pt">
  <g transform="matrix(.1 0 0 -.1 0 200)">
    <path d="m623 1903c-7-2-29-27-48-54-23-30-78-79-143-126-165-119-155-106-147-188 4-38 10-166 14-284 5-187 8-215 23-225 18-11 104 15 372 116 71 26 131 48 132 48s14-20 28-45c32-54 58-70 86-55 11 6 20 17 20 26 0 8-44 104-97 214-103 210-121 232-154 191-20-25-17-40 40-164 17-38 31-73 31-77 0-10-98-49-272-109l-118-40v124c0 108-12 250-25 295-3 10 21 33 75 68 101 67 196 154 221 203 23 46 23 53 3 73-16 17-21 18-41 9z"/>
    <path d="m1500 1813c-19-1-134-13-255-24-121-12-226-26-232-31-18-14-16-43 2-58 12-10 42-11 120-7l105 7v-29c0-90-71-384-106-438-18-29-18-57 1-73s58 8 86 53c40 66 95 302 101 439 3 56 3 56 38 62 19 3 101 9 183 13l147 6v-49c-1-97-20-295-35-361-19-82-82-213-102-213-8 0-28 7-44 16-33 17-59 6-59-24 0-26 101-112 132-112 25 0 33 10 84 111 30 62 64 145 74 185 39 153 52 480 21 518-11 13-33 16-120 14-58 0-122-3-141-5z"/>
    <path d="m1245 869c-49-4-209-15-355-23-146-9-307-21-358-27-125-15-121 2-58-268 19-85 41-200 47-255 14-128 20-143 61-153 45-12 984 9 997 22 5 6 17 141 25 300 9 160 19 309 23 331 4 34 1 46-16 63-19 19-31 21-148 20-71-1-168-5-218-10zm282-161c-4-46-7-100-7-120v-38h-225-225v28c0 15-3 63-6 108l-7 81 124 10c68 5 175 10 238 11l114 2zm-553 10c3-24 7-73 9-110l5-67-72-5c-39-3-132-7-207-10l-137-4-25 101c-14 56-23 105-19 109 8 7 239 24 364 27l77 1zm536-307c0-26-3-75-6-109l-7-61-201-3c-110-2-202-3-202-3-1 0-5 51-9 113l-7 112h216 216zm-516-22c3-34 6-83 6-109v-48l-187-4c-104-2-189-4-190-4-1 1-6 35-12 76s-13 89-17 107l-6 32 123 4c68 1 158 4 200 5l76 2z"/>
  </g>
</svg>
