<?xml version="1.0"?>
<svg xmlns="http://www.w3.org/2000/svg" height="200pt" preserveAspectRatio="xMidYMid meet" viewBox="0 0 200 200" width="200pt">
  <g transform="matrix(.1 0 0 -.1 0 200)">
    <path d="m1120 1630c-28-88-80-175-147-250-54-59-65-86-38-96 26-10 64 5 105 42l40 36 27-34c15-18 63-70 107-116l80-82-50-51c-54-55-166-133-286-198-89-49-106-65-91-89 16-26 46-26 113 1 91 37 222 124 308 203l77 71 69-60c89-77 159-122 288-185 132-66 142-68 168-42 31 31 12 55-75 95-137 62-246 131-347 221l-46 40 89 130c100 143 149 231 173 313 20 69 20 85-1 107-15 15-33 16-168 9-82-4-184-10-225-14-57-6-79-5-91 5-8 8-25 14-36 14-17 0-25-13-43-70zm475-42c-19-64-115-218-239-385-4-4-154 147-189 189l-37 45 36 76 35 75 107 7c59 3 112 8 117 10 6 2 47 4 93 4 82 1 83 1 77-21z"/>
    <path d="m515 1450c-233-12-404-35-427-58-18-18-19-34-8-418 10-371 18-485 33-500 3-4 82-1 175 5s233 11 311 11c136 0 141 1 156 23 22 34 35 892 13 920-18 24-58 27-253 17zm175-249v-168l-112-5c-62-3-114-4-115-3-2 1-6 76-10 168l-6 166 59 4c32 2 87 4 122 5l62 2zm-320-20v-168l-82-7c-46-4-93-10-105-13l-23-5v171c0 169 0 171 23 176 30 6 82 11 140 13l47 2zm317-308c-4-38-7-119-7-180v-113h-107-108l2 177c1 98 2 179 2 181 1 1 51 2 112 2h112zm-307-122v-178l-61-7c-34-3-79-6-99-6h-38l-6 118c-4 64-8 141-10 170-2 33 1 55 8 58 6 2 51 8 101 12 50 5 93 10 98 11 4 0 7-79 7-178z"/>
    <path d="m1240 719c-217-21-185-16-204-35-11-10-16-33-16-67 1-74 56-467 67-478s591-13 618-3c20 8 22 22 35 189 21 263 24 370 11 393-11 21-17 22-169 21-86-1-240-9-342-20zm430-106c0-33-4-89-26-329l-5-61-236-6c-130-4-238-5-241-3-6 7-52 326-52 368 0 34 3 37 33 42 80 13 244 23 380 25l147 1z"/>
  </g>
</svg>
