<?xml version="1.0"?>
<svg xmlns="http://www.w3.org/2000/svg" height="200pt" preserveAspectRatio="xMidYMid meet" viewBox="0 0 200 200" width="200pt">
  <g transform="matrix(.1 0 0 -.1 0 200)">
    <path d="m895 1840c-132-48-273-100-312-115-80-29-103-53-77-80 23-22 64-15 248 46 82 27 151 49 153 49s3-58 3-129v-130l-57-6c-90-10-382-55-399-62-7-3-14-18-14-34 0-50 21-53 213-24 95 14 188 25 206 25h33l-38-52c-65-92-155-187-277-294-156-138-199-170-342-252-99-58-120-74-120-94 0-19 6-23 38-26 69-6 232 85 391 217 99 82 294 272 345 336l31 40v-176-175l-172-22c-225-30-226-30-239-53-10-19 11-132 79-429 11-47 26-125 33-174 12-79 16-89 39-98 17-7 114-3 310 12 193 15 316 20 381 15 73-5 98-3 106 7 34 41 46 689 14 747-13 23-11 23 45-9 254-146 299-165 330-140 42 35-14 77-326 245-123 66-251 164-362 277-54 54-98 102-98 107 0 4 116 11 258 15 212 6 260 11 275 23 22 20 22 37 0 59-16 15-43 16-303 13l-285-4-3 141-3 142 88 32c100 36 113 44 113 74 0 28-18 46-44 45-12-1-129-41-261-89zm320-743c39-30 103-78 144-106l75-51h-65c-67-1-243-15-316-26l-43-6v193 194l68-71c37-39 99-96 137-127zm175-377v-120h-97c-54 0-134-3-179-6l-81-7-6 69c-4 38-10 90-13 115l-6 46 88 10c49 5 135 11 192 11l102 2zm-467 43c4-27 9-78 13-115l7-66-79-7c-44-4-108-11-144-15-35-5-65-8-67-7-4 4-43 186-43 201 0 13 29 19 215 45 98 14 92 16 98-36zm467-383v-130h-129c-71 0-142-3-158-6-23-5-32-2-37 12-11 27-28 225-21 232s148 17 278 20l67 2zm-432-12c6-68 8-126 4-130s-62-10-129-14l-123-7v39c0 21-9 76-19 122-10 45-15 82-12 83 3 0 60 6 126 13 66 8 125 14 131 15s15-47 22-121z"/>
    <path d="m1308 1753c-18-14-59-51-90-82-61-58-74-95-38-106 28-9 70 17 145 86 69 65 82 99 46 119-26 13-25 14-63-17z"/>
    <path d="m620 1610c-16-31 4-58 63-86 85-39 145-26 118 25-12 22-121 81-150 81-11 0-25-9-31-20z"/>
  </g>
</svg>
