<?xml version="1.0"?>
<svg xmlns="http://www.w3.org/2000/svg" height="200pt" preserveAspectRatio="xMidYMid meet" viewBox="0 0 200 200" width="200pt">
  <g transform="matrix(.1 0 0 -.1 0 200)">
    <path d="m1040 1838c-74-5-211-17-305-27-93-10-185-16-202-14-45 7-53-18-36-119 7-45 17-168 22-275 7-130 15-200 23-211 14-16 4-16 388 8 203 12 387 12 410 0 13-7 23-5 38 8 20 17 31 99 47 347 2 33 7 102 10 153 6 76 4 97-9 117-16 24-19 25-134 24-64-1-178-6-252-11zm304-170c-3-57-10-106-13-111-9-10-344-28-353-19-4 4-10 53-14 110l-7 102 59 1c32 1 104 5 159 9 55 3 117 7 138 8l38 2zm-460-30c3-55 5-103 2-105-2-2-66-7-143-10l-139-6-11 94c-7 51-11 95-8 97 4 4 214 29 261 31l31 1zm439-235c-8-125 10-113-173-113h-160v80 80l93 1c80 1 239 13 243 17 1 1 0-28-3-65zm-423 15c0-18 3-56 6-83l6-51-142-12c-79-6-147-9-151-6-5 3-9 43-9 89v84l138 4c75 1 140 4 145 5 4 1 7-13 7-30z"/>
    <path d="m1136 1134c-12-11-16-36-16-94v-78l-42-5c-24-4-91-9-150-13l-108-6v85c0 64-4 89-16 101-19 20-29 20-48 0-12-12-16-37-16-108v-92l-72-15c-77-15-102-35-82-66 12-19 50-22 120-10 51 8 54 2 54-129v-92l-47-7c-74-11-407-96-420-107-20-16-16-56 6-63 11-3 81 10 158 29 345 86 450 97 978 103 443 4 444 4 445 44 0 42-18 44-352 44h-318v111 111l103 9c96 8 102 10 105 32 6 44-12 52-119 52h-99v74c0 72-13 106-40 106-5 0-16-7-24-16zm-6-372v-109l-127-12c-71-6-136-11-145-11-16 0-18 12-18 109v110l53 5c76 9 125 12 185 14l52 2z"/>
    <path d="m684 442c-5-4-35-41-67-83-31-41-95-116-142-166s-85-97-85-105c0-21 21-38 46-38 46 0 304 301 304 355 0 35-30 55-56 37z"/>
    <path d="m1322 418c-29-29-14-57 59-104 39-25 101-59 137-76 37-17 104-52 149-80 87-53 116-56 129-15 10 32-49 77-196 149-69 34-152 79-186 100-67 42-74 44-92 26z"/>
  </g>
</svg>
