<?xml version="1.0"?>
<svg xmlns="http://www.w3.org/2000/svg" height="200pt" preserveAspectRatio="xMidYMid meet" viewBox="0 0 200 200" width="200pt">
  <g transform="matrix(.1 0 0 -.1 0 200)">
    <path d="m254 1736c-3-8-4-122-2-253 3-222 5-241 25-278 12-22 32-46 45-54 56-35 413-19 464 21 27 22 32 65 13 131-8 30-15 37-34 37-25 0-26-1-41-76-5-29-30-34-204-41-178-7-172-11-178 123-4 85-3 94 14 100 149 52 394 196 394 232 0 14-29 42-44 42-6 0-54-25-105-56-52-30-134-75-183-100l-88-44v103c0 67-4 107-12 115-17 17-57 15-64-2z"/>
    <path d="m1565 1743c-146-19-482-76-501-85-15-7-24-20-24-34 0-38 29-46 117-29 150 27 424 67 430 62 3-3-51-63-120-133l-124-128-54 37c-57 39-78 44-97 25-24-24-11-48 56-101 37-30 97-82 135-116 37-33 70-61 73-61s14 5 25 10c31 17 22 51-27 101l-46 47 87 83c98 94 225 251 225 279 0 44-47 57-155 43z"/>
    <path d="m1620 1159c-112-13-411-58-524-78-102-18-126-31-113-65 4-9 14-19 23-23 15-6 210 20 257 33 16 5 17-12 17-256v-261l-22 7c-13 4-47 17-76 30-42 18-52 27-48 41 38 125 45 202 20 227-28 29-64 12-64-29 0-36-41-184-71-257-16-38-53-111-84-162-30-51-55-100-55-109 0-24 35-40 61-27 24 13 72 86 122 187l36 71 103-43c57-23 177-79 268-124 207-102 436-181 474-163 17 8 26 20 26 35 0 26-35 43-200 97-52 17-169 67-259 111-138 67-162 82-155 97 4 9 9 51 12 93l4 77 117 7c125 8 151 15 151 45 0 45-53 53-232 36l-38-4v144c0 141 0 144 23 149s283 35 305 35c7 0-24-40-69-89-45-50-90-101-98-115-14-23-14-27 0-41 27-27 67-1 196 130 122 125 146 162 123 190-14 17-104 18-230 4z"/>
    <path d="m278 1029c-10-5-18-21-18-35 0-90-50-240-112-337-25-39-28-50-18-62 7-8 22-15 33-15 31 0 92 72 118 138 23 59 23 59 81 74l58 16v-62c0-33-3-84-6-112l-6-51-87-28c-47-15-110-38-139-51-48-21-53-26-50-51s7-28 38-27c19 0 73 15 120 32 46 17 86 29 88 27 11-11-92-197-137-248-28-32-51-62-51-67 0-14 30-40 46-40 22 0 94 70 133 130 20 31 49 89 65 130 17 41 31 77 33 79 1 2 45-37 98-87 109-105 145-128 175-112 11 6 20 19 20 28 0 10-50 64-110 121-61 57-108 106-105 109s62 15 132 27c134 22 160 36 137 73-16 25-71 26-193 3-59-12-111-21-114-21-4 0-6 49-4 110l2 109 48 11c26 5 80 15 120 21 109 17 141 45 97 84-19 17-24 17-142-5-68-12-159-33-203-46s-83-24-87-24-4 31-1 70c8 89-11 117-59 89z"/>
  </g>
</svg>
