<?xml version="1.0"?>
<svg xmlns="http://www.w3.org/2000/svg" height="200pt" preserveAspectRatio="xMidYMid meet" viewBox="0 0 200 200" width="200pt">
  <g transform="matrix(.1 0 0 -.1 0 200)">
    <path d="m960 1865c-8-10-14-68-18-170l-5-155h-81c-45 0-130-7-191-15-60-9-139-18-175-22-36-3-71-10-77-16-15-11-17-49-4-62 29-29 40-279 21-450-17-150-97-515-158-720-10-32-5-56 11-67 20-12 64 21 80 59 19 49 89 332 121 493 44 221 59 476 35 604-6 32-8 60-5 63 2 3 49 11 103 19 111 15 357 29 803 44 168 6 336 13 373 16 91 9 121 39 78 78-18 16-36 17-238 7-120-6-302-13-404-17l-186-6-6 153c-5 130-8 155-23 166-23 17-39 16-54-2z"/>
    <path d="m142 1278c-7-7-12-20-12-29 0-31 62-193 89-234 65-97 81-8 26 148-42 118-69 149-103 115z"/>
    <path d="m1320 1215c-80-12-252-35-383-50-208-25-239-31-248-47-8-15-6-24 7-39 21-24 71-24 248-4 71 9 131 13 134 11 6-6-14-88-32-131l-14-32-114-11c-64-7-136-18-161-26-25-7-56-11-69-9-15 3-30-2-38-12-12-14-10-40 10-178 15-99 25-216 26-300 1-78 6-143 12-149 17-17 56-5 70 22 23 43 3 345-33 507-5 20 1 23 67 37 78 16 188 28 188 20 0-18-42-77-94-133-35-37-71-80-81-95-19-28-19-29 4-47 13-11 28-19 33-19 18 0 159 143 185 188 15 25 29 39 36 35s36-22 65-40c85-55 213-113 248-113 36 0 58 21 50 47-3 11-50 40-113 70-60 29-132 67-162 86l-53 34 49 6c85 10 423 30 427 26 3-2 6-118 8-257 3-291 19-266-122-201-87 41-110 43-110 11 0-30 59-78 170-137 107-58 141-64 155-28 3 10 3 164-1 342-8 384 0 361-121 361-85 0-350-17-399-25l-30-5 20 82c11 46 21 84 22 86s80 15 176 28c222 31 217 30 224 59 15 61-25 66-256 30z"/>
    <path d="m269 793c-31-36-137-189-153-221-13-25-14-37-6-53 20-37 50-19 111 66 79 109 116 182 102 204-15 23-37 25-54 4z"/>
  </g>
</svg>
