<?xml version="1.0"?>
<svg xmlns="http://www.w3.org/2000/svg" height="200pt" preserveAspectRatio="xMidYMid meet" viewBox="0 0 200 200" width="200pt">
  <g transform="matrix(.1 0 0 -.1 0 200)">
    <path d="m1062 1938c-15-15-15-111-2-197 6-35 9-66 6-68-3-3-42-9-88-14s-148-21-227-34c-79-14-165-25-191-25-29 0-52-6-60-15-9-10-10-67-5-227 8-222 2-302-36-533-46-276-157-599-242-701-40-48-50-73-36-90 80-97 265 269 348 691 42 218 54 357 48 580l-6 210 117 17c64 10 164 24 222 32 58 9 247 25 420 36 534 35 540 36 540 79 0 46-22 48-280 26-313-27-425-33-431-23-3 5-12 62-19 126s-17 123-22 130c-13 15-40 16-56 0z"/>
    <path d="m97 1514c-25-26 6-106 95-246 52-81 68-94 99-78 29 16 23 39-26 117-25 39-62 102-83 140-35 64-64 87-85 67z"/>
    <path d="m1385 1510c-55-6-316-54-472-86-12-2-25-14-29-26-9-29 27-59 64-53 15 3 114 21 220 41 106 19 199 34 207 32 11-2-5-28-54-88-37-47-79-95-93-107l-24-23-39 40c-40 41-62 49-83 28-33-33-7-68 141-191 73-61 87-66 111-41 22 22 20 29-18 71l-34 37 63 76c209 249 211 252 179 284-16 17-30 18-139 6z"/>
    <path d="m1415 984c-93-7-231-20-305-28-74-9-181-19-238-22-56-4-109-12-118-18-19-14-19-15-9-221 5-102 3-192-4-250-17-138-40-307-47-336-7-31 15-52 48-47 29 4 54 79 63 188 4 42 10 81 14 88 5 8 64 14 183 18l176 7 7-109c3-60 8-115 10-121 7-20 62-16 69 4 4 10 6 65 5 122-1 58 2 106 7 107s93 5 196 7l187 5 3-118 3-118-57 29c-32 16-67 29-78 29-29 0-36-27-14-52 31-34 165-118 189-118 46 0 47 7 46 397-1 439-7 529-32 554-22 22-51 23-304 3zm239-96c3-13 6-55 6-94v-71l-112-6c-62-4-154-7-204-7h-91l-6 82c-3 46-3 85 0 88 6 6 251 27 339 29 56 1 62-1 68-21zm-490-99c4-44 6-82 4-84-5-5-327-29-331-24-2 2-7 41-10 87l-6 82 72 1c40 1 97 4 127 9 30 4 74 8 96 9l41 1zm496-239c0-56-4-82-12-85-7-2-97-6-200-8l-188-5v89 89h200 200zm-490-14v-84l-62-6c-35-3-111-7-170-10l-108-5v67c0 37 4 73 9 80 7 11 101 23 314 41 15 1 17-9 17-83z"/>
    <path d="m334 844c-38-43-113-127-166-186-54-60-98-114-98-121 0-18 21-37 41-37 9 0 61 46 116 103 155 161 236 298 187 314-7 2-43-31-80-73z"/>
  </g>
</svg>
