<?xml version="1.0"?>
<svg xmlns="http://www.w3.org/2000/svg" height="200pt" preserveAspectRatio="xMidYMid meet" viewBox="0 0 200 200" width="200pt">
  <g transform="matrix(.1 0 0 -.1 0 200)">
    <path d="m690 1830c-258-8-295-13-310-40-13-24-13-26 5-43 12-13 51-14 245-9 126 3 230 2 230-2 0-23-104-201-172-294l-43-59-30 19c-71 45-209 109-227 106-29-4-46-33-32-55 6-10 60-44 119-76 60-32 112-60 115-63 11-12-154-156-257-224-123-83-191-119-253-135-47-12-62-34-40-60 18-21 99-19 153 4 114 49 329 203 422 302 147 156 387 546 370 600-5 16-50 45-58 37-1-1-108-4-237-8z"/>
    <path d="m1120 1791c-13-25 6-77 71-200 171-319 474-637 665-698 63-19 89-11 89 28 0 20-16 32-93 74-97 52-235 165-316 260l-43 50 46 1c94 3 255 82 267 132 7 26-11 52-35 52-9 0-36-14-61-30s-88-44-140-61-99-35-104-40c-5-4-18 3-28 17l-20 25 35 38c63 70 107 230 72 264-34 35-69 8-78-61-3-23-20-75-39-114l-34-72-51 84c-28 47-72 127-97 178-39 78-50 92-71 92-14 0-29-8-35-19z"/>
    <path d="m1040 1134c-58-8-177-29-264-47-167-34-194-47-170-85 12-17 78-23 149-12 30 5 30 5 38-55 5-33 6-92 2-132l-7-71-66-12c-37-6-128-16-202-23s-141-16-148-21c-22-13-14-55 13-68 24-11 190-1 334 19l43 6-18-34c-58-112-269-267-441-323-71-23-98-46-89-74 11-34 44-35 131-8 204 65 426 241 490 389l29 65 80 11c45 7 93 14 108 17 26 5 27 4 32-53 22-216 89-364 187-413 106-55 234-62 454-25 171 28 180 33 172 106-7 57-47 159-68 172-46 29-61-22-35-120l14-51-62-11c-154-28-254-35-322-22-130 24-167 55-210 180-20 57-49 239-39 249 7 8 238 32 365 38 80 4 153 11 163 16 21 11 22 51 2 68-20 16-290 7-440-14-55-8-101-13-104-11-7 8-33 257-27 263 4 3 48 8 99 10 50 2 100 8 110 14 20 10 23 48 5 66-16 16-173 14-308-4zm4-126c7-48 24-233 22-235-1-1-43-8-94-16l-92-13v100c0 56-3 117-6 137l-6 36 68 10c107 16 103 17 108-19z"/>
  </g>
</svg>
