<?xml version="1.0"?>
<svg xmlns="http://www.w3.org/2000/svg" height="200pt" preserveAspectRatio="xMidYMid meet" viewBox="0 0 200 200" width="200pt">
  <g transform="matrix(.1 0 0 -.1 0 200)">
    <path d="m775 1820c-99-3-181-7-181-8-10-13-12-37-4-53 10-17 25-19 199-21l189-3-47-100c-39-82-190-305-207-305-2 0-25 15-51 34-27 18-74 48-105 65-47 27-61 30-77 21-13-6-21-21-21-35 0-21 17-36 95-86s93-64 84-75c-32-39-132-99-323-194s-211-108-214-132c-5-45 30-45 147 1 304 122 456 231 619 446 81 108 190 317 199 383 9 70-6 73-302 62z"/>
    <path d="m1117 1754c-19-19 0-70 76-202 90-158 164-252 278-353 198-177 440-304 494-259 36 30 18 48-108 109-111 53-215 123-314 209l-32 28 31 13c30 13 148 161 148 185 0 19-22 36-47 36-16 0-38-20-77-69-30-38-68-79-83-91l-28-22-33 37-34 37 20 21c30 33 94 166 90 189-2 12-11 26-20 32-28 17-49-3-92-88-21-42-43-75-47-74-5 2-44 62-87 133-63 104-84 131-103 133-14 2-28 0-32-4z"/>
    <path d="m1060 1159c-123-10-246-28-276-39-28-11-33-50-9-70 13-11 32-11 98-1 115 16 290 31 365 31 35 0 72 5 83 10 21 12 25 50 7 68-14 14-118 14-268 1z"/>
    <path d="m940 948c-88-6-140-14-149-23-18-18-17-70 4-190 24-134 40-150 133-141 37 3 121 9 187 12 151 7 161 9 181 38 14 22 34 165 35 254 1 57-10 62-140 61-64-1-177-6-251-11zm293-140c-8-114 5-104-140-113-71-4-144-8-162-9l-35-1-16 82-17 82 41 6c49 6 129 11 248 13l86 2z"/>
    <path d="m1318 539c-9-5-41-46-72-91-89-132-84-128-163-128-66 0-69 1-91 34-13 19-48 58-78 86-43 40-60 51-82 48-20-2-28-9-30-28s10-38 53-80c30-30 55-58 55-62s-35-8-77-8c-113 0-366-22-380-33-7-5-13-20-13-33 0-41 28-47 179-35 75 6 347 16 605 23 484 12 496 13 496 53 0 7-7 21-16 30-15 14-43 16-225 13-115-2-209 0-209 3 0 4 7 12 15 19 24 20 85 134 85 158 0 26-29 44-52 31z"/>
  </g>
</svg>
