<?xml version="1.0"?>
<svg xmlns="http://www.w3.org/2000/svg" height="200pt" preserveAspectRatio="xMidYMid meet" viewBox="0 0 200 200" width="200pt">
  <g transform="matrix(.1 0 0 -.1 0 200)">
    <path d="m640 1938c-24-172-71-278-198-447-52-68-96-129-98-136-3-7 2-19 10-28 10-9 16-33 16-60 0-75 29-328 71-622 58-407 77-517 92-533 11-11 40-11 163-2 181 14 606 17 764 6 168-11 159-23 171 229 9 196 30 435 68 765 31 266 35 338 21 355-10 12-39 15-139 15-286 0-839-43-1016-79-47-9-85-15-85-13s22 33 50 68c99 126 162 255 180 370 13 82 2 114-40 114-16 0-30-1-30-2zm994-580c-2-18-13-120-24-226-12-106-23-207-27-223l-5-29h-147c-81 0-198-7-261-15s-196-22-295-30c-99-9-220-22-270-30-49-8-91-13-92-11-7 6-43 301-49 396l-7 97 59 16c144 40 622 81 991 85l132 2zm-68-625c-13-121-26-312-26-408 0-55-4-105-8-110-5-7-62-8-177-2-159 8-607-4-711-19l-41-6-11 58c-6 33-23 140-37 239s-28 190-30 201c-4 20 1 23 71 33 42 6 178 20 302 31 125 11 254 24 287 29s134 9 224 10l164 1z"/>
  </g>
</svg>
