<?xml version="1.0"?>
<svg xmlns="http://www.w3.org/2000/svg" height="200pt" preserveAspectRatio="xMidYMid meet" viewBox="0 0 200 200" width="200pt">
  <g transform="matrix(.1 0 0 -.1 0 200)">
    <path d="m1135 1844c-821-79-807-78-819-96-8-13-8-23 0-35 16-25 91-27 288-9 238 23 220 26 212-35-8-60-65-221-103-291-15-27-64-90-110-140-84-90-95-110-69-125 10-6 17-47 26-138 21-240 49-462 75-591 14-71 25-142 25-159 1-16 9-46 18-65 21-42 22-42 216-11 157 25 372 40 556 41 85 0 130 4 138 12s12 46 12 102c0 50 7 149 14 221 8 72 16 263 18 428 3 286 2 299-16 313-25 18-83 18-271-1-82-8-256-24-385-35-129-12-240-23-247-25s8 24 34 58c25 34 56 85 68 112 40 89 83 230 91 294 3 33 9 61 13 61 3 0 148 14 321 30s343 30 378 30c74 0 108 23 93 62-8 22-14 23-117 24-60 1-266-14-459-32zm412-761c-4-58-7-156-7-218v-112l-277-7c-153-4-330-12-393-18-63-7-133-12-155-12l-40-1-17 155c-9 85-17 173-17 196l-1 41 88 11c48 7 173 19 277 27 105 9 253 22 330 29 77 8 158 14 179 15l39 1zm-12-450c-11-63-25-211-25-258 0-99 16-91-213-98-178-5-281-16-504-53-42-6-43-6-43 20 0 15-11 82-25 149-13 67-27 145-31 173l-6 51 93 13c93 12 378 25 626 28l133 2z"/>
  </g>
</svg>
