<?xml version="1.0"?>
<svg xmlns="http://www.w3.org/2000/svg" height="200pt" preserveAspectRatio="xMidYMid meet" viewBox="0 0 200 200" width="200pt">
  <g transform="matrix(.1 0 0 -.1 0 200)">
    <path d="m1000 1818c-5-13-16-68-26-123-28-168-83-301-155-380-43-47-46-57-24-75 36-30 129 50 184 158l30 59 158 16c98 11 243 17 382 17h224l-7-142c-14-291-55-572-107-733-50-157-131-296-217-369l-34-29-143 58c-79 32-150 55-159 52-27-11-18-36 26-68 55-41 256-139 285-139 28 0 122 81 174 150 47 62 95 154 138 263 69 174 131 593 131 893 0 105-2 123-18 137-16 15-49 17-248 17-139 0-291-6-387-16-87-9-160-14-163-12-2 3 5 57 16 121s17 124 13 134c-14 39-59 45-73 11z"/>
    <path d="m302 1717c-7-7-17-38-23-68-13-62-64-168-122-253l-40-59 12-116c6-64 16-174 21-246 30-432 32-446 57-462 15-10 34-13 55-9 18 3 122 6 231 7 192 2 199 3 207 23 4 12 9 198 12 414l4 394-23 15c-18 12-41 14-115 9-97-7-306-33-346-43-23-5-22-3 12 44 83 116 148 309 117 347-16 19-45 21-59 3zm320-564c-2-71-5-129-6-130-3-3-335-43-358-43-22 0-25 15-33 146l-7 111 83 13c130 19 209 27 270 29l56 1zm-7-383v-159l-25-5c-14-3-92-6-175-8l-150-3-7 114c-3 62-9 128-13 147-3 19-2 34 2 35 4 0 76 8 158 18 83 10 164 19 180 20l30 1z"/>
    <path d="m1100 1051c-5-11-10-24-10-29 0-15 187-239 205-246 9-3 25-1 36 4 37 20 22 55-67 162-48 57-94 109-102 116-23 18-50 15-62-7z"/>
  </g>
</svg>
