<?xml version="1.0"?>
<svg xmlns="http://www.w3.org/2000/svg" height="200pt" preserveAspectRatio="xMidYMid meet" viewBox="0 0 200 200" width="200pt">
  <g transform="matrix(.1 0 0 -.1 0 200)">
    <path d="m849 1893c-28-67-117-181-188-244-76-66-85-89-72-165 10-57 37-329 44-447 6-94-1-92 253-67 142 15 252 20 312 17 79-5 93-3 101 11 11 21 40 361 44 510 3 146 3 146-138 137-55-3-174-15-264-26s-169-19-176-17c-8 2 15 38 55 88 103 127 139 216 99 241-31 19-50 9-70-38zm408-400c-4-38-7-87-7-110v-43h-182c-101 0-223-5-273-10-49-5-93-6-96-2-4 4-10 46-14 95l-7 87 49 1c26 0 131 11 233 24 102 12 212 23 244 24l59 1zm-21-264c-3-17-6-58-6-90v-59h-47c-44 0-256-19-403-36l-58-6-7 96c-4 53-5 99-3 101 10 11 186 22 352 24l179 1z"/>
    <path d="m1072 835c-189-18-296-32-416-56-134-27-166-41-166-73 0-40 23-45 108-24 68 16 326 58 360 58 8 0 12-20 12-64v-65l-47-6c-154-21-183-31-183-65 0-37 22-42 128-27l100 14 6-45c3-25 6-64 6-87v-42l-92-7c-196-14-513-65-660-106-37-11-52-29-42-55 11-27 41-26 215 10 370 74 653 91 1142 69 340-15 359-15 378 2 24 21 24 36 2 56-15 12-74 18-308 27-159 6-350 11-422 11h-133v89 88l61 7c34 3 84 6 111 6 62 0 88 14 88 45 0 38-31 48-129 41-47-4-98-9-113-12l-28-6v65 64l98 8c53 4 168 9 255 10 156 3 187 9 187 40 0 6-8 19-18 28-16 15-43 17-188 16-93-1-234-7-312-14z"/>
  </g>
</svg>
