<?xml version="1.0"?>
<svg xmlns="http://www.w3.org/2000/svg" height="200pt" preserveAspectRatio="xMidYMid meet" viewBox="0 0 200 200" width="200pt">
  <g transform="matrix(.1 0 0 -.1 0 200)">
    <path d="m880 1900c-12-7-16-36-18-129l-4-119-71-7c-40-3-117-13-172-22-174-26-189-27-204-9-16 19-45 21-58 4-6-8-13-143-16-323-7-330-18-446-63-614-32-122-96-268-140-320-42-49-42-75 2-79 49-5 88 36 144 152 107 221 150 475 150 896v175l113 18c116 18 269 37 298 37 13 0 15-10 12-52-1-29-5-128-9-219l-6-166-101-11c-56-7-125-12-154-12-75 0-103-33-66-78 10-12 33-49 52-82 50-87 185-254 270-332l73-68-53-48c-101-92-291-232-368-271-62-32-84-57-71-81s56-26 107-5c52 22 283 190 382 277l85 75 82-53c151-97 288-157 478-209 110-30 192-31 210-3 17 28-11 47-100 69-216 54-376 119-526 213l-77 47 88 117c116 154 281 408 281 432 0 44-30 48-270 39-123-4-224-7-225-6 0 1 2 99 5 217l5 215 50 7c90 12 515 22 515 12 0-5-29-60-65-122-67-115-76-145-49-156 37-14 104 60 173 193 57 109 63 133 43 162l-15 22-271-7c-149-3-295-9-323-13l-53-6v111c0 87-3 114-16 126-18 18-32 20-54 6zm350-957c-84-130-230-325-247-331-20-6-221 204-291 303l-64 90 47 8c70 12 393 34 517 36l107 1z"/>
  </g>
</svg>
