<?xml version="1.0"?>
<svg xmlns="http://www.w3.org/2000/svg" height="200pt" preserveAspectRatio="xMidYMid meet" viewBox="0 0 200 200" width="200pt">
  <g transform="matrix(.1 0 0 -.1 0 200)">
    <path d="m1293 1928c-12-15-149-216-176-258-16-25-16-29-2-44 32-31 88 10 162 122 72 107 90 148 76 171-13 21-47 26-60 9z"/>
    <path d="m528 1879c-39-22-21-54 91-168 115-116 153-139 178-106 7 11 13 23 13 28 0 12-208 228-235 244-24 15-26 15-47 2z"/>
    <path d="m1270 1523c-19-2-172-17-340-34-398-39-430-45-430-90 0-31 34-41 97-29 31 5 72 10 90 10 31 0 33-2 27-27-25-107-86-238-161-351-73-110-245-288-335-348-55-36-69-50-66-67 5-34 57-34 120 0 67 35 236 202 315 309 103 140 213 380 213 463 0 17 3 31 8 31 4 0 70 7 147 15 77 7 140 13 141 12s20-48 42-104c51-128 96-198 197-309 123-135 252-237 374-296 57-27 118-52 136-55 36-6 58 14 53 48-2 18-26 33-116 73-69 31-141 73-184 106-102 80-277 266-321 340-40 70-93 197-85 205 3 3 68 9 146 13 91 5 146 13 156 21 21 17 21 57 0 65-16 6-162 6-224-1z"/>
    <path d="m985 715c-239-22-429-46-443-58-17-13-15-34 27-251 18-92 29-172 24-176-4-3-69-19-143-34-166-33-206-56-168-94 17-17 48-15 178 12 211 45 388 66 650 77 272 11 433 5 658-26 134-19 167-16 175 16 9 35-24 56-100 64-37 3-107 13-156 21-48 8-120 14-161 14s-77 4-80 8c-6 10 16 162 43 292 16 77 17 100 8 120l-12 25-175 1c-96 1-242-4-325-11zm421-90c-7-20-32-160-47-262l-11-83h-83-82l-6 143c-4 78-9 159-13 180l-7 37h128c109 0 126-2 121-15zm-322-72c3-42 6-120 6-173v-97l-71-7c-39-4-73-6-75-3-9 9-23 158-24 249v97l28 4c15 2 50 5 78 6l51 1zm-251-65c4-68 9-146 13-174l6-50-78-11c-84-10-93-7-94 32 0 11-13 83-29 160s-27 142-26 144c6 5 107 18 156 20l46 1z"/>
  </g>
</svg>
