<?xml version="1.0"?>
<svg xmlns="http://www.w3.org/2000/svg" height="200pt" preserveAspectRatio="xMidYMid meet" viewBox="0 0 200 200" width="200pt">
  <g transform="matrix(.1 0 0 -.1 0 200)">
    <path d="m1098 1899c-26-15-22-101 8-200 4-14-21-17-218-22-123-4-272-13-332-21-75-11-114-12-127-5-13 6-25 6-39-1-16-9-20-21-20-63 0-80-19-210-39-277-27-87-138-285-193-346-51-55-60-87-29-104 29-15 62 2 110 56 43 49 141 215 169 285l14 37 92 6c145 9 296 12 296 4 0-33-79-236-113-290l-42-66-60 28c-61 30-85 27-85-9 0-33 115-121 158-121 22 0 76 65 126 151 32 57 70 164 96 272 18 73 18 84 5 104-15 22-20 23-158 22-78 0-175-4-215-8l-73-7 6 26c4 14 10 63 15 109 4 49 13 86 20 91 28 17 312 39 506 40h162l55-112c34-69 82-146 122-196 37-46 65-85 63-87-8-8-212-102-260-120-39-14-48-22-48-42 0-36 37-46 100-27 64 19 181 72 236 107l42 26 53-40c77-57 182-113 272-143 84-29 109-27 131 7 21 33 39 163 26 187-24 44-60 12-81-72-6-27-12-48-13-48 0 0-25 9-55 20-73 28-126 56-194 102l-58 39 49 54c27 29 57 70 66 90 18 36 17 38-2 57-23 24-49 14-76-27-29-45-88-105-101-105-21 0-141 156-185 241-22 42-40 80-40 83s39 6 88 6c94 0 135 14 140 45 5 44-10 50-140 52l-123 2-12 28c-6 15-17 60-23 98-7 41-19 75-28 83-19 14-22 14-44 1z"/>
    <path d="m1462 1873c-15-29 2-56 91-147 82-85 109-100 135-74s11 54-81 146c-94 94-127 110-145 75z"/>
    <path d="m895 708c-66-4-194-12-285-16l-165-7v-75c1-41 8-147 17-235 10-87 16-160 15-162-2-1-50-9-107-18-141-23-170-35-170-74 0-37 22-46 82-32 193 46 747 80 973 61 71-6 226-15 345-20 200-7 216-7 234 10 27 26 13 57-32 70-20 5-99 10-176 10h-139l7 50c4 27 27 129 52 226 42 165 44 178 29 200l-15 24-273-1c-149-1-326-6-392-11zm165-267v-188l-46-7c-26-3-63-6-84-6h-37l-6 128c-4 70-7 155-7 189v62l73 4c39 1 80 4 90 5 16 2 17-13 17-187zm420 177c0-7-16-74-35-148-20-74-38-159-42-188l-6-54-86 7c-47 3-103 8-123 11l-38 6v189 189h165c125 0 165-3 165-12zm-680-192c0-102-3-187-8-190-4-2-57-6-117-7l-110-3-8 105c-4 57-14 141-21 186l-13 82 86 4c47 1 110 4 139 5l52 2z"/>
  </g>
</svg>
