<?xml version="1.0"?>
<svg xmlns="http://www.w3.org/2000/svg" height="200pt" preserveAspectRatio="xMidYMid meet" viewBox="0 0 200 200" width="200pt">
  <g transform="matrix(.1 0 0 -.1 0 200)">
    <path d="m670 1829c-47-4-139-8-205-8-100-1-124-4-144-20l-24-19 11-178c7-99 12-249 12-335 0-113 3-159 13-167 8-7 47-7 117-2 58 5 158 9 222 10 112 0 118 1 133 24 15 22 22 92 55 521 12 157 12 151-6 169-17 17-42 18-184 5zm104-166c-8-138-4-130-81-138-38-3-117-13-177-21-59-8-109-14-111-12-3 3-25 214-25 235 0 9 40 13 148 16 81 1 170 4 199 5l52 2zm-29-340c-4-65-9-121-12-125-2-5-55-8-116-9-62 0-136-4-164-8l-53-7v116 117l113 15c61 9 141 16 175 17l64 1z"/>
    <path d="m1228 1829c-97-10-152-25-174-46-14-14-16-30-10-98 28-346 14-570-44-708-34-80-37-109-15-127 53-44 132 127 151 326l6 72 102 6c55 3 161 9 234 12l134 7-8-119c-4-66-10-140-13-166l-6-46-103 69c-107 71-126 79-135 55-10-25 48-91 145-165 127-98 164-104 180-30 29 144 35 871 7 933-6 13-21 27-33 30-30 8-327 5-418-5zm372-136c0-32 3-68 6-79 6-22 4-22-218-30-122-5-230-9-238-9-11 0-17 18-22 74-4 41-6 76-4 78 10 11 150 21 304 22l172 1zm10-262v-70l-52-5c-72-8-400-27-403-24-1 2-5 40-8 84l-5 81 234 2 234 2z"/>
    <path d="m1310 763c-69-1-228-10-355-18-353-24-441-37-485-73l-23-18 17-85c9-46 21-129 26-184 6-55 12-114 15-130l5-31-107-12c-139-17-245-39-262-56-8-9-10-22-6-36 7-21 12-22 64-17 31 3 101 13 156 21 313 48 989 56 1454 16 82-7 118-6 128 1 19 17 16 57-6 69-19 10-134 22-353 36-111 8-108 4-89 101 6 26 22 124 37 217l28 169-23 18c-15 12-36 18-60 17-20-1-92-4-161-5zm110-298-35-216-90 3-90 3-3 213-2 212h127 128zm-302-5 1-210h-103-103l-7 98c-4 53-13 142-21 197-7 55-10 103-6 107 3 4 40 9 81 11 41 1 93 4 116 5l41 2zm-319 98c7-51 15-144 18-205l6-113h-64c-35 0-87-3-115-6l-51-6-12 118c-7 66-19 153-27 193-16 88-17 87 76 96 36 3 72 8 80 9 8 2 29 4 46 5l31 1z"/>
  </g>
</svg>
