<?xml version="1.0"?>
<svg xmlns="http://www.w3.org/2000/svg" height="200pt" preserveAspectRatio="xMidYMid meet" viewBox="0 0 200 200" width="200pt">
  <g transform="matrix(.1 0 0 -.1 0 200)">
    <path d="m1185 1809c-144-7-630-57-731-75-21-4-34-1-43 10-17 20-45 20-62 0-10-12-10-26-1-67 44-193 53-279 62-547 5-151 11-293 14-315s11-168 16-324c14-361 16-365 146-342 168 30 894 66 967 47 17-4 27-13 27-25 0-19 29-51 47-51 5 0 17 8 25 18 14 15 15 66 7 452-5 239-13 485-19 545-6 66-8 214-4 372 8 337 20 314-154 311-70 0-203-5-297-9zm362-221c-4-79-7-189-7-246 0-95-1-102-18-93-16 9-655-8-913-25l-106-6-7 108c-4 60-15 154-25 209-11 55-16 103-12 107 3 3 137 21 296 38 265 29 492 44 714 48l84 2zm12-623c14-209 15-198-9-190-39 12-560-15-739-39-97-13-201-27-232-31l-55-6-14 211c-7 116-10 213-7 216 7 7 316 20 712 29 160 4 297 11 305 16 21 11 26-16 39-206zm11-475v-200h-224c-124 0-293-5-378-10-160-11-386-36-411-45-11-5-15 16-20 116-4 67-7 153-7 190v68l42 6c24 3 81 10 128 15s141 16 210 25c69 10 240 20 380 24s261 8 268 9c9 2 12-44 12-198z"/>
  </g>
</svg>
