<?xml version="1.0"?>
<svg xmlns="http://www.w3.org/2000/svg" height="200pt" preserveAspectRatio="xMidYMid meet" viewBox="0 0 200 200" width="200pt">
  <g transform="matrix(.1 0 0 -.1 0 200)">
    <path d="m912 1868c-7-7-12-39-12-75 0-35-3-63-7-63-44-1-318-51-329-61-8-7-14-21-12-32 6-40 29-43 189-19 84 12 153 21 155 20 1-2 4-49 6-104l3-102-70-13c-38-8-77-13-85-12s-23-3-33-9c-18-9-19-19-14-137 3-69 11-252 17-406 12-278 21-335 54-357 6-4 142-8 302-8 269 0 292 1 307 18 20 22 21 30 5 51-10 13-12 97-7 381 3 201 10 395 14 431 7 65 7 67-19 84-24 16-38 16-208 2-101-8-183-14-183-13-1 0 1 47 3 103 3 84 7 103 20 107 10 3 91 10 182 16 134 8 167 14 178 27 18 25 15 41-11 58-21 13-44 14-168 5-79-5-156-13-171-16-28-5-28-5-28 43 0 74-42 117-78 81zm384-598-9-110-166-1c-91 0-201-4-243-7-91-9-88-12-88 93 0 83-6 77 100 95 59 10 313 36 385 39l30 1zm-53-200h47v-97-96l-137 6c-75 4-182 7-238 7h-102l-6 82c-3 46-4 84-3 85 6 6 296 21 341 17 28-2 71-4 98-4zm-65-277 112-6v-104-103h-235-235v110 110h123c67 0 173-3 235-7z"/>
    <path d="m250 1092c-21-17-21-21-11-117 12-117 28-361 37-597 6-148 9-169 26-185 18-16 49-18 286-21 147-3 359 1 472 7s324 14 470 17c146 4 273 11 283 16 21 11 22 51 2 68-17 14-418 9-780-10-207-11-551-13-618-4l-45 6-6 137c-14 289-40 619-52 664-9 30-39 39-64 19z"/>
  </g>
</svg>
