<?xml version="1.0"?>
<svg xmlns="http://www.w3.org/2000/svg" height="200pt" preserveAspectRatio="xMidYMid meet" viewBox="0 0 200 200" width="200pt">
  <g transform="matrix(.1 0 0 -.1 0 200)">
    <path d="m455 1890c-5-8-10-143-14-367l-1-71-42-7c-95-15-257-57-268-70-17-20-8-57 15-65 11-4 55 1 99 11 43 11 101 23 130 27l52 8-8-75c-15-136-68-423-104-561-34-130-72-233-148-405-40-89-43-107-21-125 12-10 21-10 41-1 55 25 187 355 241 606l28 129 5-415c5-439 6-449 51-449 10 0 26 11 35 25 15 23 16 61 10 378-3 193-9 437-12 541l-6 190 93-87c92-85 122-100 147-75 27 27 9 53-118 175-71 69-130 133-130 143 0 23 32 29 188 37 128 6 152 15 152 53 0 39-29 46-166 38-71-4-139-10-151-13l-23-5v208c0 148-3 211-12 220-14 14-54 16-63 2z"/>
    <path d="m1355 1679c-121-5-248-7-282-4-62 5-63 5-69-22-4-15-2-196 5-403 6-206 13-534 14-728 2-265 6-355 16-365 14-14 45-14 484-2 250 6 320 11 329 22 11 14 11 78-9 1116-4 262-10 362-19 375-15 21-142 24-469 11zm395-303v-213l-212-6c-188-6-298-14-404-32l-31-5-7 172c-3 95-9 201-13 236l-6 62h337 336zm8-488 2-178h-233c-128 0-270-5-316-10-46-6-86-8-90-5-3 4-7 82-9 174l-3 168 133 12c73 7 142 14 153 15 11 2 97 3 190 2l170-1zm5-405c4-75 7-157 7-183v-47l-272-7c-150-3-297-9-325-13l-53-6v189 189l57 3c32 2 60 5 62 8 2 2 120 4 261 4h257z"/>
  </g>
</svg>
