<?xml version="1.0"?>
<svg xmlns="http://www.w3.org/2000/svg" height="200pt" preserveAspectRatio="xMidYMid meet" viewBox="0 0 200 200" width="200pt">
  <g transform="matrix(.1 0 0 -.1 0 200)">
    <path d="m909 1898c-12-22-11-48 11-303 6-71 10-158 8-193l-3-62-40 20c-47 24-65 20-65-14 0-27 40-65 101-96 47-25 85-14 95 26 11 44-24 580-41 632-7 21-53 14-66-10z"/>
    <path d="m1190 1719c-20-36 11-62 152-132 174-86 380-154 415-138 18 8 24 17 21 38-3 25-13 30-153 78-82 28-204 79-271 113-66 34-128 62-137 62s-21-9-27-21z"/>
    <path d="m555 1660c-33-33-123-101-200-152s-141-100-142-108c-5-24 13-42 41-42 54 0 312 176 379 258 41 51 44 65 21 88-24 25-35 20-99-44z"/>
    <path d="m1211 1399c-64-67-163-160-221-206-144-115-431-318-635-447-93-60-187-119-208-133-21-13-42-34-46-46-11-27 4-57 28-57 15 0 191 106 404 244 40 25 59 33 61 24 5-14 28-215 46-383 21-212 32-276 50-288 13-9 100-10 360-5 189 4 353 9 365 12 13 3 25 11 27 18 3 7 2 195-1 416-6 387-7 404-26 419-16 12-41 13-130 8-133-7-379-32-448-46-28-5-51-8-53-7-1 2 61 50 139 108 77 58 192 155 255 215 114 108 212 218 212 235 0 14-30 40-47 40-9 0-68-55-132-121zm137-607-3-98h-140c-77 0-220-9-318-19-146-15-180-16-187-5-9 14-24 139-18 145 15 15 462 67 631 74l38 1zm-35-188 38-7-3-71-3-71-230-7c-126-4-265-11-308-15-43-5-80-7-81-4-9 15-17 141-9 142 4 0 87 9 183 19 184 18 349 24 413 14zm39-319c2-59 0-76-12-81-8-3-144-8-302-11l-286-6-6 44c-3 24-7 58-8 74l-3 30 95 11c52 6 190 12 307 13l211 1z"/>
  </g>
</svg>
