<?xml version="1.0"?>
<svg xmlns="http://www.w3.org/2000/svg" height="200pt" preserveAspectRatio="xMidYMid meet" viewBox="0 0 200 200" width="200pt">
  <g transform="matrix(.1 0 0 -.1 0 200)">
    <path d="m1095 1886c-137-92-341-183-470-208-63-13-70-17-73-40-3-22 2-28 32-38 43-14 112-2 229 40l77 29v-83c0-51-5-88-12-98-10-11-54-20-168-33-188-21-233-42-182-88 16-15 29-15 143-2 68 8 140 17 161 20l36 5-13-49c-23-87-61-160-87-165-13-3-85-12-160-21-271-32-383-76-322-126 13-10 35-9 127 10 62 12 161 28 220 35 126 15 122 21 45-91-103-149-307-358-418-428-48-31-59-51-37-72 39-39 156 37 331 216 59 62 110 110 112 108s9-156 15-343c12-399 4-374 120-363 41 4 158 8 260 8 137 1 189 4 196 13 5 7 11 58 12 113 1 85 22 367 47 655 6 64 4 79-10 93-24 23-115 22-302-3-82-11-170-23-197-27l-47-6 46 75 45 75 95 7c52 3 248 6 436 6 366-1 379 1 363 49-12 40-64 44-471 39l-382-5 16 36c8 20 23 65 32 101l17 65 54 7c30 3 90 6 135 7 192 2 242 19 213 73-11 21-14 21-199 15l-188-6v109l1 109 89 52c135 80 158 107 122 143-22 23-33 20-89-18zm131-1012c-3-26-6-61-6-78v-32l-215-12c-119-7-221-15-229-18-16-6-26 24-26 82v41l118 17c169 25 313 44 341 45 23 1 23-1 17-45zm-20-235c-3-17-6-51-6-74v-43l-132-6c-73-3-170-7-214-8l-82-3-6 69c-4 38-5 70-3 72 6 7 219 21 331 23l119 1zm-20-246c-3-21-6-75-6-120v-82l-197-3c-124-2-201 1-205 7s-8 58-8 117v107l58 4c31 2 126 4 211 5l154 2z"/>
  </g>
</svg>
