<?xml version="1.0"?>
<svg xmlns="http://www.w3.org/2000/svg" height="200pt" preserveAspectRatio="xMidYMid meet" viewBox="0 0 200 200" width="200pt">
  <g transform="matrix(.1 0 0 -.1 0 200)">
    <path d="m711 1848-34-22 7-175c3-97 9-245 13-328l6-153 32-24c30-23 39-24 272-31l242-8 20 34c19 30 21 50 21 189 0 85 5 231 10 324 9 146 8 173-5 193l-15 23h-268c-257 0-268-1-301-22zm499-132v-63l-217-5c-120-3-219-5-219-4-1 0-5 31-9 69l-7 67h226 226zm-10-226v-70h-157c-87 0-182-3-210-6l-53-7v77 76h210 210zm0-226v-65l-205 3-205 3v63 62h205 205z"/>
    <path d="m399 1639c-21-21-21-23-14-403 8-441 6-433 84-422 79 12 363 36 419 36h52l1-57c0-32 0-194-1-360-1-204 2-308 10-322 12-24 52-28 69-7 8 10 12 119 12 379v366l32 7c17 3 144 3 282-1 222-6 252-5 264 9 20 24 6 64-27 73-53 15-757 6-931-11-91-8-166-15-167-13-1 1-5 162-9 357-6 298-10 358-23 373-20 22-27 22-53-4z"/>
    <path d="m667 640c-114-105-291-343-285-384 2-10 13-25 25-33 21-14 24-13 50 15 16 16 55 69 88 118 33 48 102 132 153 186 90 95 104 122 80 146-22 22-45 12-111-48z"/>
    <path d="m1293 663c-38-15 1-76 97-151 127-99 308-222 326-222 26 0 48 32 39 58-3 9-52 50-110 90-57 40-150 108-207 152-96 76-116 85-145 73z"/>
  </g>
</svg>
