<?xml version="1.0"?>
<svg xmlns="http://www.w3.org/2000/svg" height="200pt" preserveAspectRatio="xMidYMid meet" viewBox="0 0 200 200" width="200pt">
  <g transform="matrix(.1 0 0 -.1 0 200)">
    <path d="m937 1933c-11-13-17-42-19-98l-3-79-155-23c-85-12-172-22-193-22-30-1-40-6-49-27-11-23-10-29 11-45 29-24 43-23 216 1 201 29 185 33 185-50 0-49-4-70-12-70-54-1-221-30-234-41s-15-28-11-94c3-44 10-177 16-296 18-346 24-400 52-422 16-13 31-17 49-12 14 3 140 8 280 11 140 2 257 7 262 12 4 4 9 197 12 429 5 366 3 423-10 434-11 9-49 10-147 6-73-3-139-8-149-12-14-6-17 3-20 62-2 37-3 69-3 70 2 4 321 33 366 33 64 0 101 44 67 78-18 18-156 14-400-12l-38-4v66c0 100-34 148-73 105zm323-552v-78l-137-7c-76-4-185-13-243-21-57-8-106-13-107-11-5 5-19 147-15 151 3 3 24 5 46 6 23 0 104 8 181 18 77 11 170 19 208 20l67 1zm-10-244v-73l-117-13c-65-7-167-21-228-32-60-10-113-19-117-19-5 0-8 40-8 88v89l128 12c70 6 141 13 157 15 17 2 65 4 108 5l77 1zm-4-272 1-105h-126c-69 0-169-5-221-10s-95-8-96-7-5 41-9 88l-6 85 178 26c98 14 201 27 228 27l51 1z"/>
    <path d="m1385 613c-336-14-784-51-945-78-242-40-290-58-275-104 9-30 26-31 127-11 155 32 363 58 548 70l320 20c80 5 268 12 419 15 150 3 277 8 282 11 17 10 9 53-13 68-19 13-54 16-208 14-102-1-216-3-255-5z"/>
    <path d="m1272 428c-19-19-14-53 11-75 12-11 78-61 147-111s136-102 149-116c29-31 66-34 81-6 14 27 6 50-28 82-41 39-322 238-336 238-7 0-17-5-24-12z"/>
    <path d="m742 394c-5-9-57-64-115-123-59-59-107-115-107-124 0-21 27-47 49-47 24 0 238 219 246 253 5 17 2 33-5 42-16 20-57 19-68-1z"/>
  </g>
</svg>
