<?xml version="1.0"?>
<svg xmlns="http://www.w3.org/2000/svg" height="200pt" preserveAspectRatio="xMidYMid meet" viewBox="0 0 200 200" width="200pt">
  <g transform="matrix(.1 0 0 -.1 0 200)">
    <path d="m1412 1803c-35-2-158-12-274-22-200-17-212-19-231-42-17-21-18-33-12-99 19-209 25-321 25-490 0-243-17-601-36-771-26-231-4-241 186-89 182 147 250 213 250 244 0 50-40 32-196-89-81-63-150-113-152-111-1 2 2 41 7 87 11 81 31 521 31 658v68l198 16c108 9 244 19 302 22 139 8 147 10 166 46 13 26 15 68 12 284-4 310 2 296-127 293-47-1-114-3-149-5zm188-173v-90h-72c-40 0-149-7-243-15-93-8-198-15-231-15h-61l-7 46c-3 26-6 66-6 89v42l133 8c72 4 175 11 227 15s132 7 178 8l82 2zm0-264v-84l-77-6c-43-3-157-13-253-21s-194-15-216-15c-40 0-42 1-48 38-3 20-6 63-6 95v57l113 1c61 1 146 5 187 9s126 7 188 8l112 2z"/>
    <path d="m390 1683c-214-20-256-26-268-36-16-12-13-93 7-282 6-49 15-225 21-390 12-315 21-450 32-460 6-6 391 12 435 21 13 2 31 16 40 31 16 24 17 70 18 547 0 483-1 524-18 549-17 27-18 27-125 25-59 0-123-3-142-5zm194-89c9-23 7-254-1-254-5 0-82-9-173-20s-170-20-176-20c-10 0-51 277-42 285 4 4 251 21 329 24 44 1 58-3 63-15zm4-469-3-125-30-4c-162-24-311-44-313-41-2 2-6 61-9 132l-6 130 134 15c74 8 156 16 182 17l48 1zm-5-357c-3-79-7-144-8-145-4-7-307-25-312-19-9 8-28 254-21 262 7 6 259 41 310 43l37 1z"/>
    <path d="m1663 1085c-75-126-114-177-194-257l-87-86-74 86c-40 48-103 124-138 169-36 46-75 86-88 89-24 7-52-10-52-31 0-17 116-171 238-315 54-63 127-151 162-195 36-44 106-123 155-175 50-52 116-126 146-165 70-88 81-97 116-93 20 2 29 9 31 25 4 30-82 141-235 304-127 135-220 249-205 249 16 0 145 125 190 182 61 79 123 198 120 228-2 19-10 26-30 28-24 3-32-4-55-43z"/>
  </g>
</svg>
