<?xml version="1.0"?>
<svg xmlns="http://www.w3.org/2000/svg" height="200pt" preserveAspectRatio="xMidYMid meet" viewBox="0 0 200 200" width="200pt">
  <g transform="matrix(.1 0 0 -.1 0 200)">
    <path d="m1202 1958c-5-7-21-35-35-63-14-27-53-83-86-124-71-89-86-114-78-135 13-34 51-17 118 53 108 112 169 230 139 266-15 18-44 20-58 3z"/>
    <path d="m607 1909c-24-34 8-112 83-208 45-57 84-79 106-60 23 19 16 42-37 114-29 39-62 94-75 123-26 57-52 68-77 31z"/>
    <path d="m1015 1579c-306-28-466-53-482-75s-16-26 1-49c13-18 17-18 143-2 71 9 143 17 161 17h32v-64-64l-32-6c-18-3-57-8-85-12-60-7-78-23-69-58 8-33 26-37 108-26 39 6 72 9 73 8 2-2 6-49 10-105l7-102-33-5c-521-81-595-102-563-153 17-27 47-26 223 7 90 16 170 30 178 30 38 0-27-149-116-267-76-100-181-199-284-266-60-40-77-56-75-71 3-18 10-21 49-20 68 0 144 50 272 177 60 59 111 107 112 105 9-10 35-293 35-380 0-156-28-144 321-140 228 2 300 6 327 18l35 14-6 128c-16 317-29 529-33 549-2 13-15 30-28 38-21 14-50 14-242 5-121-6-237-14-258-17-35-5-38-4-32 13 4 11 12 44 18 75l11 55 161 24c131 19 213 25 441 28 173 2 285 8 292 14 18 15 16 42-5 61-16 15-50 17-283 16-155 0-298-5-346-12l-81-13-7 99c-4 54-4 101-1 104 4 4 48 9 99 11 50 2 100 8 110 14 22 11 22 42 0 64-14 14-32 16-115 12l-98-5v63 62l38 6c20 3 102 10 182 16s155 13 167 16c31 6 47 38 33 64-9 18-20 20-88 19-42-1-167-10-277-20zm215-873c0-13 3-37 6-53l6-30-189-13c-103-7-218-15-254-17l-66-5-7 32c-12 65-11 67 59 80 77 15 225 27 353 29 91 1 92 1 92-23zm20-245v-68l-67-7c-38-3-122-11-188-16s-144-14-174-20c-30-5-55-9-56-8-2 2-6 37-9 79l-7 76 88 8c142 13 273 22 346 23l67 2zm12-233c2-40 3-74 3-74 0-1-111-5-247-9l-248-7v60 59l68 8c66 7 341 31 394 33 26 2 26 1 30-70z"/>
  </g>
</svg>
