<?xml version="1.0"?>
<svg xmlns="http://www.w3.org/2000/svg" height="200pt" preserveAspectRatio="xMidYMid meet" viewBox="0 0 200 200" width="200pt">
  <g transform="matrix(.1 0 0 -.1 0 200)">
    <path d="m296 1808c-10-14-16-44-16-81 0-64-36-233-51-243-5-3-9-12-9-21s-27-75-61-147c-57-122-60-131-43-143 10-7 21-13 25-13 23 0 65 55 114 153l58 114 94 18c52 9 97 14 101 11 7-8 20-208 21-338l1-87-37-9c-21-5-80-19-132-32-113-26-139-37-147-62-13-41 37-60 102-38 16 5 69 18 117 29l88 19-6-56c-33-285-88-476-183-624-32-52 20-88 70-49 59 47 149 291 183 496l21 130 36-55c42-65 167-273 223-373 45-79 66-98 93-81 36 23 26 64-41 174-35 58-94 153-130 213-76 124-153 227-170 227-7 0-7 3-1 9 7 7 134 31 301 57 60 9 81 52 40 79-21 13-38 13-175-10-84-14-155-25-157-25-3 0-5 60-6 133 0 72-4 168-8 212-6 50-5 82 1 86 5 3 55 12 111 18 56 7 108 17 115 23 21 18 14 57-12 69s-164-5-364-46c-64-13-118-22-120-21-1 2 4 35 13 75 20 97 20 195-1 215-21 22-40 20-58-6z"/>
    <path d="m1392 1420c-95-10-181-22-192-25-11-4-29-25-39-48-19-42-19-44 5-227 13-102 28-256 34-343 10-162 17-191 49-202 10-3 130-1 266 5s260 8 274 5c20-4 32 0 47 16 18 20 19 39 19 416 0 379-1 395-19 409-28 20-224 17-444-6zm370-402c-2-183-4-333-5-334-4-4-450-24-453-21-2 2-8 68-14 148-6 79-22 222-35 318-14 96-22 177-19 180 10 10 314 39 424 40l105 1z"/>
  </g>
</svg>
