<?xml version="1.0"?>
<svg xmlns="http://www.w3.org/2000/svg" height="200pt" preserveAspectRatio="xMidYMid meet" viewBox="0 0 200 200" width="200pt">
  <g transform="matrix(.1 0 0 -.1 0 200)">
    <path d="m267 1725c-10-9-18-45-22-92-12-142-34-247-85-403-28-85-49-164-48-175 2-15 11-20 33-20 38 0 63 42 112 193 36 111 36 112 67 112 17 0 51 5 75 11 32 7 46 7 51-1 12-19 32-270 28-350l-3-75-135-38c-74-21-141-43-148-49s-12-23-10-37c4-37 42-38 173-2 61 16 111 28 113 27 1-2-9-72-22-157-23-139-30-163-76-259-28-58-74-140-103-184l-51-78 22-19c32-25 59-13 103 46 45 58 120 200 153 286 13 35 31 113 40 173 9 61 18 111 19 112 1 2 40-61 86-138s95-153 108-169c48-57 115-20 76 41-10 16-40 66-68 112-70 117-157 252-168 259-16 11 7 18 149 46 77 14 145 31 152 36 17 13 15 43-5 62-20 20-68 16-215-19l-98-23v93c0 51-7 145-16 209s-14 118-13 120c2 2 51 9 109 15 143 16 154 19 158 54 2 16-2 32-10 37-30 19-217 0-405-41l-83-18 5 22c3 11 10 73 14 136 7 93 6 119-5 138-17 26-36 28-57 7z"/>
    <path d="m1425 1699c-114-12-284-46-376-75-79-25-97-42-83-77 10-27 40-29 115-7 119 36 256 59 419 71 85 6 165 15 178 20 24 9 30 47 10 67-14 14-137 14-263 1z"/>
    <path d="m1450 1335c-114-16-222-39-280-59-30-10-49-12-62-5-26 14-54-4-61-39-7-33 2-100 36-286 31-167 34-169 167-161 257 15 417 28 433 37 18 9 24 53 8 62-5 3-1 42 9 88 34 150 54 325 42 353-11 24-15 25-104 24-51-1-136-7-188-14zm200-92c-1-37-21-161-41-249l-20-92-42-6c-70-10-349-27-354-22-6 6-53 253-53 279 0 11 14 24 37 33 66 28 310 70 426 73 39 1 47-2 47-16z"/>
    <path d="m1602 657c-6-7-17-42-26-79-8-36-33-105-55-152l-40-86h-50c-28 0-51 4-51 9 0 4-28 44-61 87-34 44-79 105-101 137-34 49-44 58-66 55-21-2-28-9-30-31-4-34 27-90 108-191 33-42 60-77 60-80 0-2-30-7-67-11-162-17-358-55-370-72-19-25-16-41 10-57 19-12 40-11 167 9 224 35 416 54 635 60 110 4 208 9 218 11 26 8 40 40 27 65-11 19-18 20-169 17l-158-3 28 63c71 158 78 262 18 262-9 0-21-6-27-13z"/>
  </g>
</svg>
