<?xml version="1.0"?>
<svg xmlns="http://www.w3.org/2000/svg" height="200pt" preserveAspectRatio="xMidYMid meet" viewBox="0 0 200 200" width="200pt">
  <g transform="matrix(.1 0 0 -.1 0 200)">
    <path d="m1277 1903c-14-13-6-273 19-656l7-108-27 7c-28 7-56-9-56-32 0-7 21-29 46-49 53-40 97-46 114-16 12 24 13 133 0 261-5 52-14 201-21 330-6 129-16 243-21 253-9 17-48 24-61 10z"/>
    <path d="m1512 1588c-26-26-12-58 61-139 39-45 109-126 154-179 78-92 153-160 178-160 7 0 20 9 29 19 24 26 14 53-29 82-19 13-61 56-92 94-93 113-264 295-277 295-7 0-17-5-24-12z"/>
    <path d="m450 1531c-74-16-170-36-213-46-103-23-130-51-89-89 18-15 26-15 128 8 59 14 110 24 111 22 5-4-44-169-66-224-29-73-111-198-160-247-45-43-51-69-22-85 27-14 67 3 108 46l33 35 1-78c1-150 13-231 36-255 22-21 23-21 172-8 207 19 195 1 192 262-1 111-7 210-12 219-5 10-17 20-27 23-22 7-175-18-234-39-23-8-44-12-47-10-2 3 10 35 27 72 35 77 80 226 84 277l2 34 75 12c100 16 122 23 135 43 8 12 8 22 0 35-17 26-82 24-234-7zm140-656c0-85 0-158 0-162 0-5-32-11-71-15-39-3-86-9-104-12l-33-7-6 63c-3 35-7 100-9 145l-4 81 36 16c32 14 143 42 179 45 9 1 12-36 12-154z"/>
    <path d="m1036 1523c-4-5-23-42-42-83-46-100-109-199-184-290-49-60-60-81-58-105 4-37 39-46 70-18 82 74 278 397 278 458 0 35-42 60-64 38z"/>
    <path d="m1632 1148c-7-7-12-16-12-20 0-16-93-212-143-303-152-277-304-455-492-580-60-41-122-79-137-86-54-24-47-59 11-59 93 0 299 140 435 296 172 196 438 688 404 747-11 20-49 22-66 5z"/>
  </g>
</svg>
