<?xml version="1.0"?>
<svg xmlns="http://www.w3.org/2000/svg" height="200pt" preserveAspectRatio="xMidYMid meet" viewBox="0 0 200 200" width="200pt">
  <g transform="matrix(.1 0 0 -.1 0 200)">
    <path d="m1515 1649c-139-9-509-47-537-55-25-8-34-52-15-71 14-14 28-15 118-4 75 8 104 8 110 0 11-19 21-255 14-335-5-44-12-74-19-74-16 0-206-29-232-35-27-6-37-30-24-56 13-23 48-24 169-8 45 6 85 9 88 6 10-10-47-277-78-364-35-97-74-164-143-242-51-57-50-55-36-82 27-50 101-1 185 123 65 96 125 287 155 490 13 87 14 88 44 93 60 9 211 25 244 25h32v-236c0-331 16-573 40-598 21-22 56-14 65 15 4 11 1 122-5 247s-10 308-8 407l3 180 98 10c99 10 117 19 117 57 0 31-36 40-131 33-71-6-90-4-93 6-2 8-9 90-15 182-7 92-14 174-17 182-4 10 15 15 81 20 68 6 88 11 95 26 14 25 13 35-6 53-17 18-78 19-299 5zm45-111c0-13 4-72 9-133 6-60 11-141 13-180l3-70-110-12c-60-6-128-14-149-18l-39-6 6 73c3 40 2 134-3 208-4 74-7 136-5 138s50 7 106 11c175 14 169 14 169-11z"/>
    <path d="m550 1435c-91-11-299-45-367-60-35-8-46-39-24-66l18-22 109 17c60 10 119 20 132 23 32 8 29-19-14-101-51-100-128-208-216-303-83-90-98-117-76-140 23-22 65 0 140 74 37 37 69 65 71 62 2-2 18-74 36-159 32-157 47-188 81-174 8 4 31 6 50 5 61-2 271 26 283 38 14 14 25 142 26 311 1 167-4 175-103 166-71-6-234-37-270-51-15-7-12 2 14 46 45 77 81 159 88 199 3 19 10 38 15 42 6 3 62 9 126 13s124 9 134 11c26 8 40 40 27 64-9 18-20 20-93 19-45-1-129-7-187-14zm153-572c-3-87-6-159-7-160s-49-9-105-18c-57-8-107-18-112-21s-9-2-9 3c0 4-14 66-30 137-17 72-30 136-30 143 0 14 75 38 182 58 130 23 117 39 111-142z"/>
  </g>
</svg>
