<?xml version="1.0"?>
<svg xmlns="http://www.w3.org/2000/svg" height="200pt" preserveAspectRatio="xMidYMid meet" viewBox="0 0 200 200" width="200pt">
  <g transform="matrix(.1 0 0 -.1 0 200)">
    <path d="m1250 1866c-5-15-4-62 2-125 6-56 8-104 4-108s-70-15-148-24c-109-13-145-15-159-6-32 20-55-3-51-49 2-22 4-133 5-249 2-301-24-491-104-741-52-163-102-266-156-322-36-36-41-47-33-63 19-35 68-25 114 24 90 94 203 405 238 657 6 47 14 88 18 93 3 4 38-30 78-75 39-46 107-119 151-163 45-44 81-85 81-91 0-7-39-53-87-102-62-63-123-112-205-166-121-78-141-103-100-125 27-14 57-4 142 47 114 70 180 123 258 209l70 77 83-76c237-214 403-323 484-316 32 2 41 7 43 25 3 17-9 28-65 58-136 75-216 135-452 343l-45 39 102 156c135 205 215 360 216 417 2 66-7 68-194 44l-160-20v71c0 39-5 108-10 154-6 46-9 85-8 87 2 2 80 10 173 18 94 9 194 18 223 21 28 3 52 3 52 1 0-3-20-46-44-96-25-50-42-98-39-106 11-28 51-15 87 29 80 98 124 234 84 260-12 8-87 5-278-12-143-13-262-22-265-20-2 3-10 55-18 116s-18 116-22 122c-12 21-55 12-65-13zm26-352c4-14 7-86 8-160l1-136-130-33c-71-18-138-36-147-40-16-6-17 2-12 107 3 62 2 145-3 184l-9 72 120 15c171 21 165 21 172-9zm354-341c-1-30-263-463-280-463-27 0-339 336-324 349 17 16 270 73 424 96 185 27 180 27 180 18z"/>
    <path d="m490 1484c-358-53-400-64-400-104s23-43 151-20c66 12 123 20 125 18 11-12-69-217-138-351-41-79-67-116-134-183-85-85-94-100-72-122 27-27 60-12 132 58 40 39 75 70 78 70 2 0 10-53 18-117 13-123 30-179 59-188 9-3 50-1 91 5 41 5 112 10 158 10 77 0 85 2 107 26 25 27 25 28 25 239 0 197-1 213-19 229-22 20-39 19-223-10-54-9-102-14-108-12-5 1 4 32 21 68 39 83 89 230 89 264 0 30-5 28 165 51 66 9 126 22 133 28 19 15 11 59-13 67-11 4-121-8-245-26zm110-669c0-163 0-165-22-170-20-4-228-12-228-9 0 1-9 69-20 150-11 82-20 150-20 150 0 1 51 9 113 18 61 10 119 19 127 21 52 10 50 17 50-160z"/>
  </g>
</svg>
