<?xml version="1.0"?>
<svg xmlns="http://www.w3.org/2000/svg" height="200pt" preserveAspectRatio="xMidYMid meet" viewBox="0 0 200 200" width="200pt">
  <g transform="matrix(.1 0 0 -.1 0 200)">
    <path d="m1172 1938c-7-7-12-44-12-94 0-46-3-85-7-87-8-5-186-23-302-31-60-4-80-14-81-41 0-11 68-330 76-357s44-33 66-10c20 19 20 20-12 166-18 81-30 150-27 152 7 7 267 27 273 21 10-10-26-135-69-239-42-102-151-289-225-387-39-52-41-94-3-99 17-3 35 9 71 46l48 50 11-56c6-30 15-105 21-166 31-344 40-471 40-559 0-127-6-124 211-108 108 8 243 10 400 5l238-7 13 28c11 25 10 29-11 46-14 11-40 19-65 20-191 3-370 10-374 14-8 8-26 284-19 291 4 4 74 10 156 14 162 7 184 14 179 59l-3 26-166-1-166-2-7 91c-3 50-3 94 2 99 4 4 81 15 172 24s173 20 182 25c22 12 23 52 3 69-12 10-47 9-172-4-87-10-168-19-179-22-20-5-22 1-34 78-6 46-12 90-13 98-2 12 22 17 113 27 63 6 157 12 208 12 100 1 132 11 132 41 0 54-77 62-330 35-74-8-138-15-143-15-4 0-1 12 6 28 8 15 24 57 36 94 26 79 18 111-27 106-23-3-29-13-52-78-44-125-65-158-102-164-146-23-180-28-183-25-2 2 14 33 36 69 54 91 125 273 145 373l17 85 51 6c113 13 466 19 466 8 0-6-31-74-70-152-38-77-67-147-63-155 7-20 43-19 72 1 13 10 55 82 97 168 83 168 91 211 44 232-26 11-334 4-512-11l-88-8v80c0 80-9 103-40 103-9 0-21-5-28-12zm142-944c8-54 13-100 12-100-3-3-240-43-241-41-7 11-31 204-26 208 5 6 232 38 239 34 1-1 8-46 16-101zm26-288v-92l-111-18c-92-15-113-15-120-4-5 7-9 46-9 86 0 39-1 75-2 80-3 8 222 51 235 45 4-3 7-46 7-97zm7-323c6-82 10-149 9-149 0-1-52-5-113-9l-113-7-2 91c-1 50-2 112-3 139v47l100 16c55 9 103 17 106 18 3 0 11-65 16-146z"/>
    <path d="m615 1603c-242-30-534-81-552-95-7-6-13-21-13-34 0-39 33-45 151-24 57 10 106 16 108 14 8-8-40-156-74-230-52-113-145-274-181-314-41-45-44-77-9-86 30-7 80 23 112 68l21 30 6-73c3-41 8-130 11-199 8-155 17-176 79-165 22 4 122 10 222 13 194 7 222 15 208 56-3 12-12 140-19 285-12 257-13 265-35 283-26 21-50 20-253-8-60-9-111-14-113-11-2 2 11 37 30 78 34 74 69 182 80 251 5 28 13 39 29 43 57 12 171 25 219 25 59 0 98 20 98 50 0 10-10 26-22 34-22 16-40 17-103 9zm-20-780 7-223-99-1c-54 0-123-4-153-8-30-5-56-7-58-6-2 2-7 74-12 161-5 88-12 184-15 215l-6 56 118 16c135 19 195 24 204 17 4-3 10-105 14-227z"/>
  </g>
</svg>
