<?xml version="1.0"?>
<svg xmlns="http://www.w3.org/2000/svg" height="200pt" preserveAspectRatio="xMidYMid meet" viewBox="0 0 200 200" width="200pt">
  <g transform="matrix(.1 0 0 -.1 0 200)">
    <path d="m1497 1892c-22-24-136-264-139-292-2-12 5-27 14-33 34-22 69 21 136 166 53 114 62 139 52 156-13 26-42 27-63 3z"/>
    <path d="m850 1860c-14-27 2-56 100-179 82-104 111-121 139-87 16 19-1 52-77 148-32 40-68 88-81 106-26 37-64 43-81 12z"/>
    <path d="m395 1515c-263-47-315-64-315-99 0-7 8-20 19-30 17-16 24-15 105 3 47 10 86 15 86 11s-12-43-26-86c-40-120-106-264-173-380-62-106-73-140-46-150 34-13 64 7 102 68l38 62 7-70c4-38 12-138 17-223 6-109 13-157 23-167 12-13 33-12 154 2 76 9 163 14 192 11 81-8 86 1 78 143-21 397-30 484-48 502-21 21-56 20-235-8-51-8-95-14-98-14s1 12 9 28c27 53 78 208 85 257l6 50 108 16c110 18 137 29 137 58 0 47-37 50-225 16zm149-537c5-53 26-369 26-404 0-7-43-16-112-23-62-6-123-14-135-17-22-4-23-1-23 53 0 32-7 117-15 188-8 72-15 151-15 177 0 55-5 52 138 73 139 20 129 24 136-47z"/>
    <path d="m1445 1530c-193-8-299-19-520-51-169-25-205-38-205-74 0-35 20-40 109-26 226 36 401 52 681 62 168 6 315 12 327 15 27 5 41 47 23 69-14 17-94 18-415 5z"/>
    <path d="m976 1318c-9-12-16-26-16-31 0-21-96-249-126-298-54-90-50-100 76-164 41-21 76-39 78-40 10-8-95-211-159-307-82-122-95-159-59-178 15-8 39-5 102 14 85 26 222 53 293 58l39 3 46-84c51-95 77-119 109-101 12 6 21 20 21 31 0 22-101 212-155 290-19 28-35 55-35 60 0 16-43 27-62 17-24-12-23-56 2-93l19-29-117-22c-64-12-118-20-120-19-2 2 13 28 33 59 42 66 151 308 202 445 36 100 39 147 11 165-20 12-53-13-62-49-3-12-20-59-37-103l-30-81-52 31c-29 16-56 33-60 37s5 34 21 67c37 73 112 277 112 302 0 43-49 56-74 20z"/>
    <path d="m1540 1323c-8-2-34-43-57-91s-69-130-102-184c-66-104-74-139-38-161 12-8 47-28 77-46s65-41 77-51l23-18-50-122c-28-67-59-139-71-161-11-22-19-52-17-67 5-43 34-51 141-36 115 17 198 17 287 3l68-12 10-69c6-38 16-76 22-84 16-19 44-18 61 2 16 19 3 138-30 279-26 109-52 158-83 153-39-6-44-30-20-109 12-40 21-73 19-75-1-1-31 3-67 8-63 9-231 4-278-8l-23-7 17 39c9 22 43 104 74 184 32 80 69 174 84 209 31 76 33 107 8 120-30 16-55-10-87-86-16-37-30-70-31-72-2-2-16 7-32 20-15 13-44 32-63 43l-35 19 68 119c80 139 98 180 98 219 0 29-23 48-50 42z"/>
  </g>
</svg>
