<?xml version="1.0"?>
<svg xmlns="http://www.w3.org/2000/svg" height="200pt" preserveAspectRatio="xMidYMid meet" viewBox="0 0 200 200" width="200pt">
  <g transform="matrix(.1 0 0 -.1 0 200)">
    <path d="m1090 1799c-174-8-533-50-587-69-42-15-50-40-22-63 12-9 29-15 38-12 48 15 460 57 609 62 176 6 202 12 202 48 0 21-29 45-53 43-12 0-96-5-187-9z"/>
    <path d="m1430 1249c-590-31-1083-81-1262-130-43-11-59-42-35-67 14-13 32-12 179 11 140 23 242 35 514 62l51 5 6-43c3-23 15-182 27-352 11-171 27-353 34-405 8-52 12-97 11-98-2-2-25 6-51 17-35 16-50 18-60 10-19-16-18-23 10-56 30-36 127-86 158-81 39 5 44 43 25 186-17 126-56 622-60 757l-2 70 190 12c105 6 292 16 417 21 125 6 232 13 237 17 15 8 14 48-1 63-14 14-140 14-388 1z"/>
    <path d="m1356 747c-35-26-16-59 64-112 112-74 422-255 448-262 30-7 54 14 50 46-2 20-22 36-108 84-58 32-166 95-240 139s-149 89-166 99c-26 16-34 16-48 6z"/>
    <path d="m430 634c-36-36-134-117-218-181-155-117-174-141-132-163 31-16 87 13 220 116 126 96 237 206 246 242 7 26-11 52-35 52-9 0-46-30-81-66z"/>
  </g>
</svg>
