<?xml version="1.0"?>
<svg xmlns="http://www.w3.org/2000/svg" height="200pt" preserveAspectRatio="xMidYMid meet" viewBox="0 0 200 200" width="200pt">
  <g transform="matrix(.1 0 0 -.1 0 200)">
    <path d="m407 1793c-26-25 14-94 128-220 47-53 71-63 93-41 23 23 11 48-79 157-66 80-98 111-114 111-12 0-25-3-28-7z"/>
    <path d="m1062 1677c-6-7-16-64-23-126-15-149-6-1116 11-1178 23-80 135-155 257-173 37-5 161-10 274-10 181 0 208 2 220 17 11 12 13 49 11 154-2 142-11 189-36 189-32 0-41-32-45-153l-3-120-212 6c-228 6-256 12-329 64-40 28-45 36-51 80-11 89-18 1056-8 1138 11 94 3 125-32 125-13 0-28-6-34-13z"/>
    <path d="m540 1313c-89-10-215-35-227-45-18-14-16-43 2-58 13-11 40-10 148 4 73 10 142 17 155 15 22-4 21-7-30-92-86-141-187-275-280-373-49-50-88-96-88-102 0-24 38-33 75-18 42 18 131 100 171 158l29 41 7-39c4-21 7-154 7-295 1-240 2-257 20-273 26-23 59-13 68 22 3 14 3 158 0 320l-6 294 64-61c35-33 68-61 73-61 18 0 42 30 42 53 0 13-31 50-84 102l-84 81 57 91c67 107 101 195 85 221-9 14-27 17-90 18-43 1-95-1-114-3z"/>
  </g>
</svg>
