<?xml version="1.0"?>
<svg xmlns="http://www.w3.org/2000/svg" height="200pt" preserveAspectRatio="xMidYMid meet" viewBox="0 0 200 200" width="200pt">
  <g transform="matrix(.1 0 0 -.1 0 200)">
    <path d="m407 1793c-26-25 14-94 128-220 47-53 71-63 93-41 23 23 11 48-79 157-66 80-98 111-114 111-12 0-25-3-28-7z"/>
    <path d="m1210 1683-23-16 7-271 7-271-113-18c-62-11-119-24-125-29-20-16-15-46 10-62 19-12 35-12 125 3l102 18 4-21c11-53 26-336 26-468v-148h-47c-87-1-261-26-277-39-20-17-21-45-1-61 11-10 38-11 98-6 115 9 469 34 672 46 139 9 172 14 183 27 16 23 15 38-5 59-15 14-32 16-142 10-70-4-181-11-249-17s-127-8-130-4c-4 4-10 100-13 213-4 114-10 255-14 313l-8 106 34 6c19 4 76 9 127 13 93 7 122 19 122 49 0 7-8 21-17 31-15 14-30 16-107 10-50-4-107-9-127-12l-36-6-7 148c-17 381-18 394-36 404-12 6-24 4-40-7z"/>
    <path d="m540 1313c-89-10-215-35-227-45-18-14-16-43 2-58 13-11 40-10 148 4 73 10 142 17 155 15 22-4 21-7-30-92-86-141-187-275-280-373-49-50-88-96-88-102 0-24 38-33 75-18 42 18 131 100 171 158l29 41 7-39c4-21 7-154 7-295 1-240 2-257 20-273 26-23 59-13 68 22 3 14 3 158 0 320l-6 294 64-61c35-33 68-61 73-61 18 0 42 30 42 53 0 13-31 50-84 102l-84 81 57 91c67 107 101 195 85 221-9 14-27 17-90 18-43 1-95-1-114-3z"/>
  </g>
</svg>
