<?xml version="1.0"?>
<svg xmlns="http://www.w3.org/2000/svg" height="200pt" preserveAspectRatio="xMidYMid meet" viewBox="0 0 200 200" width="200pt">
  <g transform="matrix(.1 0 0 -.1 0 200)">
    <path d="m317 1793c-17-17-3-61 48-145 30-50 55-95 55-99 0-18 39-30 60-19 34 18 24 60-41 168-53 90-64 102-88 102-15 0-31-3-34-7z"/>
    <path d="m1135 1748c-241-13-263-16-275-39-8-13-8-61 0-157 6-75 13-382 17-682l6-545-117-22c-136-26-156-35-156-68 0-37 27-45 95-29 252 59 781 91 1060 64 115-11 133-8 141 27 11 44-10 52-166 64-80 6-147 13-150 16-6 6-2 878 5 1133 6 174 4 208-8 225-14 18-28 20-154 21-76 1-210-3-298-8zm371-109c-3-17-6-87-6-155v-124h-118c-103 0-338-20-398-35-24-5-23-7-40 233l-7 92 74 1c41 1 112 4 159 8 47 5 143 9 214 9l129 2zm-6-538v-178l-102-7c-57-4-175-15-263-25-88-11-161-18-161-17-1 0-5 82-9 182l-7 181 94 13c51 7 172 16 268 20 96 3 176 7 178 8 1 1 2-78 2-177zm-8-391c-1-69 2-173 6-232l7-108h-50c-64-1-331-17-418-26l-67-7v227 226l23 1c12 0 121 11 242 24s229 23 239 22c18-2 19-10 18-127z"/>
    <path d="m490 1395c-144-23-281-53-296-66-8-7-14-24-12-38 3-24 7-26 48-25 25 0 107 11 182 24 76 13 141 21 144 17 14-13-147-212-343-423-101-110-122-147-88-160 36-14 73 10 167 109 56 59 98 96 99 87 1-8 2-181 3-384 1-340 2-370 19-380 12-8 22-8 35 0 24 15 30 109 31 497 1 174 5 317 9 317 5 0 42-24 82-52 120-88 118-87 140-60 33 40 2 77-132 161l-77 48 60 79c33 43 76 106 95 140 68 122 40 141-166 109z"/>
  </g>
</svg>
