<?xml version="1.0"?>
<svg xmlns="http://www.w3.org/2000/svg" height="200pt" preserveAspectRatio="xMidYMid meet" viewBox="0 0 200 200" width="200pt">
  <g transform="matrix(.1 0 0 -.1 0 200)">
    <path d="m317 1793c-17-17-3-61 48-145 30-50 55-95 55-99 0-18 39-30 60-19 34 18 24 60-41 168-53 90-64 102-88 102-15 0-31-3-34-7z"/>
    <path d="m1105 1714c-99-7-194-10-211-8-54 9-59-10-36-128 38-187 55-329 48-400-8-87 6-100 100-91l62 6-4-104c-7-152-21-231-54-318-51-133-179-307-293-399-33-27-34-37-2-58 21-14 30-14 54-5 38 16 122 100 187 186 141 189 194 354 194 601v104h43 42l-3-139c-4-143 23-428 54-576 17-82 42-113 117-145 46-20 67-22 243-21 118 0 201 4 213 11 40 21 43 41 21 187-29 189-36 213-62 213-21 0-21-2-15-159l6-158-102-6c-184-10-306 10-322 52-34 88-71 459-67 674l2 77h75c43 0 84-5 95-12 37-23 54 0 63 83 4 41 21 170 38 288 39 281 51 261-154 260-83-1-233-8-332-15zm415-86c0-15-51-398-55-414-2-8-48-14-127-18-68-3-171-9-229-12l-106-6-7 78c-4 44-18 142-31 219s-23 141-21 142c6 6 282 20 419 22 120 1 157-2 157-11z"/>
    <path d="m490 1395c-144-23-281-53-296-66-8-7-14-24-12-38 3-24 7-26 48-25 25 0 107 11 182 24 76 13 141 21 144 17 14-13-147-212-343-423-101-110-122-147-88-160 36-14 73 10 167 109 56 59 98 96 99 87 1-8 2-181 3-384 1-340 2-370 19-380 12-8 22-8 35 0 24 15 30 109 31 497 1 174 5 317 9 317 5 0 42-24 82-52 120-88 118-87 140-60 33 40 2 77-132 161l-77 48 60 79c33 43 76 106 95 140 68 122 40 141-166 109z"/>
  </g>
</svg>
