<?xml version="1.0"?>
<svg xmlns="http://www.w3.org/2000/svg" height="200pt" preserveAspectRatio="xMidYMid meet" viewBox="0 0 200 200" width="200pt">
  <g transform="matrix(.1 0 0 -.1 0 200)">
    <path d="m1266 1814c-3-9-6-98-6-199v-184l-32-5c-18-3-85-13-148-22-120-17-140-23-177-57-29-26-29-44 1-242 13-88 29-205 35-260 7-57 17-106 25-113 12-12 32-11 132 7 66 12 136 21 157 21h37v-72c0-152 24-594 33-605 16-21 45-15 63 12 15 24 16 50 5 313-6 158-13 304-15 325-5 45-11 44 178 52 82 3 146 10 154 17s12 22 9 37c-3 14 7 113 23 221 15 107 31 232 34 277 7 76 6 83-15 104s-27 22-148 15c-69-3-156-9-192-13l-66-6-6 48c-4 26-7 106-7 177s-5 138-10 149c-13 23-55 25-64 3zm409-535c-4-51-9-97-11-104-6-14-58-22-205-31l-96-7-7 102c-4 57-6 104-4 107 5 4 201 21 277 23l54 1zm-411 45c3-9 6-56 6-105 0-84-1-89-22-93-94-18-240-38-244-33-10 10-41 198-34 202 5 3 98 20 220 38 52 8 68 7 74-9zm386-257c0-2-5-30-10-63-6-32-13-73-16-91-6-38-15-40-161-46l-93-3v91 92l118 10c160 13 162 13 162 10zm-370-121v-93l-62-7c-35-4-91-13-125-20l-62-13-6 66c-3 36-8 78-10 93-5 30-9 29 150 54 127 19 115 27 115-80z"/>
    <path d="m407 1793c-26-25 14-94 128-220 47-53 71-63 93-41 23 23 11 48-79 157-66 80-98 111-114 111-12 0-25-3-28-7z"/>
    <path d="m540 1313c-89-10-215-35-227-45-18-14-16-43 2-58 13-11 40-10 148 4 73 10 142 17 155 15 22-4 21-7-30-92-86-141-187-275-280-373-49-50-88-96-88-102 0-24 38-33 75-18 42 18 131 100 171 158l29 41 7-39c4-21 7-154 7-295 1-240 2-257 20-273 26-23 59-13 68 22 3 14 3 158 0 320l-6 294 64-61c35-33 68-61 73-61 18 0 42 30 42 53 0 13-31 50-84 102l-84 81 57 91c67 107 101 195 85 221-9 14-27 17-90 18-43 1-95-1-114-3z"/>
  </g>
</svg>
