<?xml version="1.0"?>
<svg xmlns="http://www.w3.org/2000/svg" height="200pt" preserveAspectRatio="xMidYMid meet" viewBox="0 0 200 200" width="200pt">
  <g transform="matrix(.1 0 0 -.1 0 200)">
    <path d="m925 1829c-164-8-394-27-438-35-50-10-59-68-11-80 13-3 80-1 149 6 70 7 128 10 131 8 2-3 7-38 10-80 7-73 6-75-17-81-13-4-37-7-53-7-71 0-209-24-227-39-20-16-20-18-4-156 9-77 16-152 15-166-1-51 17-54 163-34 92 13 219 19 420 23 275 4 289 5 320 26 29 19 33 28 39 85 4 34 16 99 27 144 29 112 22 122-91 130-46 4-116 7-155 7h-73v85 85h106c58 0 114 5 125 10 21 12 25 50 7 68-14 14-193 14-443 1zm115-168v-80l-87-3c-49-2-89-2-91-2-6 3-18 154-13 159 2 3 46 5 98 5h93zm0-276v-105h-69c-38 0-76-3-85-6-14-5-16 8-16 105v111h85 85zm314 95c2-3-3-49-12-103l-16-97h-97-96l-7 46c-3 26-6 74-6 106v60l114-3c63-2 117-6 120-9zm-572-105 3-105-45-5c-25-3-74-10-109-16-35-5-64-9-66-7-3 4-23 212-21 215 3 3 157 20 198 22l37 1z"/>
    <path d="m1055 1043c-133-5-420-36-432-45-19-16-15-56 6-67 13-7 62-6 157 3 77 8 218 17 314 21s181 11 188 17c19 16 14 56-7 68-19 9-59 10-226 3z"/>
    <path d="m1070 819c-346-22-563-50-746-94-120-29-154-46-154-75 0-36 33-42 117-21 135 34 282 59 456 77 92 9 169 15 171 13s7-122 11-267l7-263-50 26c-54 28-72 27-72-5 0-40 124-150 168-150 43 0 45 12 37 348l-7 319 129 7c71 4 241 6 378 5 229-1 249 0 262 17 18 24-4 57-43 65-41 9-515 8-664-2z"/>
    <path d="m461 400c-157-128-176-151-149-178 25-25 59-11 160 71 196 156 222 191 172 224-20 13-32 5-183-117z"/>
    <path d="m1272 518c-19-19-14-42 16-70 50-48 404-278 427-278 12 0 28 7 35 15 28 34 2 58-213 200-116 77-221 141-232 143s-26-3-33-10z"/>
  </g>
</svg>
