<?xml version="1.0"?>
<svg xmlns="http://www.w3.org/2000/svg" height="200pt" preserveAspectRatio="xMidYMid meet" viewBox="0 0 200 200" width="200pt">
  <g transform="matrix(.1 0 0 -.1 0 200)">
    <path d="m551 1771c-6-11-11-33-11-50 0-51-48-184-88-247-21-32-78-96-125-141-48-45-87-89-87-97s9-20 20-26c30-16 77 10 160 87 41 38 70 59 70 50 0-33 30-47 96-47 35 0 64-4 64-9s-35-45-77-89c-62-62-94-87-155-116-57-27-78-43-78-56 0-59 122-39 227 38 59 44 164 170 218 262 57 97 155 332 155 371 0 20-8 34-25 45-23 15-42 16-154 8-123-9-129-8-137 11-13 28-60 32-73 6zm268-153c-11-29-24-57-28-61-5-5-49-1-98 8l-90 17 9 38c11 43 11 43 170 48l58 2zm-139-139c36-6 66-13 68-14 2-2-7-23-19-47l-22-45-41 9c-22 5-68 8-101 6l-61-4 33 49c18 27 33 54 33 59 0 6 10 8 23 5 12-3 51-11 87-18z"/>
    <path d="m1210 1655c-8-2-41-7-73-10-55-6-60-9-73-40-7-19-18-36-24-40-23-14-7-52 51-117l60-68-78-50c-75-48-148-87-205-109-36-13-37-47-4-63 49-22 152 20 296 119 41 29 68 42 76 37 130-97 366-233 462-268 82-29 129-33 158-12 32 24 7 45-107 90-94 37-378 197-437 246l-23 19 64 93c75 108 82 127 63 154-12 16-28 19-103 21-48 1-95 0-103-2zm84-97c-4-7-23-35-42-61l-35-49-54 54-54 53 38 6c74 12 155 10 147-3z"/>
    <path d="m818 1025c-100-12-128-24-128-55 0-39 24-44 144-32 62 7 163 12 224 12s118 3 126 6c26 10 38 41 26 64-10 19-20 20-153 19-78-1-186-7-239-14z"/>
    <path d="m1155 835c-245-15-285-19-465-47-141-21-180-36-180-67 0-43 20-45 208-17 99 14 189 26 200 26 22 0 22-1 22-245v-245l-32 2c-25 2-33-1-36-16-5-25 84-116 114-116 45 0 47 11 42 329l-4 299 166 6c209 8 224 12 228 54 3 27-1 34-23 42-14 6-27 9-28 9-1-1-96-7-212-14z"/>
    <path d="m1237 493c-17-16-5-53 22-72 54-39 355-181 383-181 30 0 52 28 42 54-7 19-388 206-419 206-12 0-25-3-28-7z"/>
    <path d="m568 364c-62-63-117-124-122-134-12-25 9-50 41-50 45 0 243 208 243 255 0 21-24 45-44 45-3 0-56-52-118-116z"/>
  </g>
</svg>
