<?xml version="1.0"?>
<svg xmlns="http://www.w3.org/2000/svg" height="200pt" preserveAspectRatio="xMidYMid meet" viewBox="0 0 200 200" width="200pt">
  <g transform="matrix(.1 0 0 -.1 0 200)">
    <path d="m314 1785c-15-23-15-27 12-72 15-27 41-73 57-103 52-95 76-110 112-70 18 20 18 22-4 68-12 26-43 79-67 118-56 90-81 104-110 59z"/>
    <path d="m1401 1709c-164-16-493-68-508-81-8-6-13-23-11-37 3-22 9-26 41-29 21-2 116 8 210 22 95 14 228 30 297 36 108 9 127 13 143 31 15 19 16 25 4 43-17 25-45 27-176 15z"/>
    <path d="m1275 1424c-213-24-355-47-366-60-7-9-4-40 11-110 11-54 21-126 22-161 1-95 7-97 189-78 79 8 176 20 214 25 39 6 100 11 138 12 47 1 71 6 81 17 8 10 18 70 26 151 15 159 15 187-1 206-15 18-144 17-314-2zm230-136c-3-40-10-89-14-108l-7-35-69-7c-39-3-124-13-190-22-66-8-135-16-154-18l-34-3-17 100c-11 65-13 102-7 107 10 6 105 19 327 42 194 21 173 28 165-56z"/>
    <path d="m570 1408c-153-21-347-60-367-74-29-18-30-59-3-74 11-6 24-9 29-6 13 8 302 57 319 54 10-2-7-33-61-103-74-98-111-141-295-344-51-56-92-107-90-113 7-21 35-31 64-24 19 4 63 43 126 109l98 102v-387c0-372 1-388 19-398 26-13 50-3 62 27 5 13 9 197 9 409 0 211 3 384 8 384 10 0 81-49 134-92 25-21 55-38 66-38 25 0 46 33 37 59-6 21-98 95-167 135-27 15-48 31-48 35s24 39 54 77c63 82 126 192 126 222 0 18-35 54-50 51-3-1-34-6-70-11z"/>
    <path d="m1500 909c-63-4-187-13-275-19-170-12-335-28-373-37-40-9-44-35-23-120 32-124 59-279 71-398 16-168-18-155 419-155 414 0 380-9 404 110 24 112 57 371 64 488 9 155 14 152-287 131zm196-136c-3-27-8-76-12-110l-6-63h-158-157l-7 77c-12 143-18 132 72 136 42 1 121 4 175 5l99 2zm-431-74c4-55 6-102 4-104-7-6-300-37-306-32-2 3-13 43-23 89-10 45-21 91-25 100-9 23 10 27 170 37 72 4 140 9 151 10 21 1 22-5 29-100zm391-251c-4-35-12-89-18-120l-11-58h-127-127l-6 112c-5 84-4 114 6 120 6 4 74 8 151 8h139zm-382-9c3-34 6-86 6-115v-54h-139-139l-6 28c-3 15-8 59-11 98l-7 71 119 12c65 7 123 14 128 16 36 12 42 5 49-56z"/>
  </g>
</svg>
