<?xml version="1.0"?>
<svg xmlns="http://www.w3.org/2000/svg" height="200pt" preserveAspectRatio="xMidYMid meet" viewBox="0 0 200 200" width="200pt">
  <g transform="matrix(.1 0 0 -.1 0 200)">
    <path d="m1320 1836c-8-11-10-56-5-173 8-174-1-280-41-518-60-348-141-533-352-808-99-128-114-151-106-170 10-27 44-31 73-10 59 44 254 319 322 455 22 44 55 124 73 177l33 98 38-116c76-233 136-335 298-512 154-169 266-237 297-179 17 32 4 55-43 76s-220 190-293 287c-70 93-129 219-199 427l-63 188 18 108c35 201 44 357 31 515-6 78-17 149-23 156-14 17-43 17-58-1z"/>
    <path d="m576 1763c-48-63-156-169-279-277-65-57-78-73-75-95 7-56 67-34 176 64 29 26 54 46 56 44 6-7 18-389 12-389-19 0-276-41-289-46-23-8-23-62 0-71 9-4 76 1 147 10s131 15 133 13c7-6-37-205-63-289-15-45-71-183-125-306-77-173-97-227-88-237 18-22 35-17 68 22 50 57 166 299 221 461l27 82 6-87c4-48 12-195 19-327 10-205 15-242 30-257 18-18 46-15 60 6 13 18 9 155-13 499-11 181-19 333-17 339 2 5 47-36 101-91 94-98 120-114 145-89 26 26 10 54-98 164-60 62-110 117-110 123s8 11 18 11c74 0 288 23 299 31 19 17 16 57-6 69-14 7-72 6-193-4-95-8-175-13-177-11s-6 108-9 235l-5 231 30 32c57 60 103 128 103 152 0 23-25 45-49 45-5 0-30-26-55-57z"/>
    <path d="m975 1527c-8-32 29-188 77-322 49-138 61-157 96-153 41 5 40 46-3 158-20 52-50 144-65 203-16 60-34 115-41 123-19 23-58 18-64-9z"/>
    <path d="m1773 1518c-5-7-19-53-31-101-26-109-76-213-142-294-28-34-50-71-50-81 0-28 25-45 55-38 29 7 101 96 145 178 66 124 108 299 80 333-15 18-44 20-57 3z"/>
  </g>
</svg>
