<?xml version="1.0"?>
<svg xmlns="http://www.w3.org/2000/svg" height="200pt" preserveAspectRatio="xMidYMid meet" viewBox="0 0 200 200" width="200pt">
  <g transform="matrix(.1 0 0 -.1 0 200)">
    <path d="m1372 1828c-9-9-12-112-12-402v-391h-37c-31 0-39-4-41-22-3-22 66-98 100-109 33-10 56 13 64 64 12 80-3 841-16 858-15 17-42 18-58 2z"/>
    <path d="m576 1763c-48-63-156-169-279-277-65-57-78-73-75-95 7-56 67-34 176 64 29 26 54 46 56 44 6-7 18-389 12-389-19 0-276-41-289-46-23-8-23-62 0-71 9-4 76 1 147 10s131 15 133 13c7-6-37-205-63-289-15-45-71-183-125-306-77-173-97-227-88-237 18-22 35-17 68 22 50 57 166 299 221 461l27 82 6-87c4-48 12-195 19-327 10-205 15-242 30-257 18-18 46-15 60 6 13 18 9 155-13 499-11 181-19 333-17 339 2 5 47-36 101-91 94-98 120-114 145-89 26 26 10 54-98 164-60 62-110 117-110 123s8 11 18 11c74 0 288 23 299 31 19 17 16 57-6 69-14 7-72 6-193-4-95-8-175-13-177-11s-6 108-9 235l-5 231 30 32c57 60 103 128 103 152 0 23-25 45-49 45-5 0-30-26-55-57z"/>
    <path d="m1582 1518c-23-23-12-46 68-148 44-56 112-153 151-217 95-153 108-168 142-159 49 12 36 51-66 208-123 188-235 328-262 328-12 0-26-5-33-12z"/>
    <path d="m1107 1483c-8-10-25-54-36-98-30-120-98-304-131-358-35-57-38-92-10-107s52 0 88 57c54 84 174 468 159 507-8 21-50 20-70-1z"/>
    <path d="m1689 1120c-9-5-31-47-49-92-63-162-227-482-300-588-41-59-114-145-167-197-94-93-106-115-72-136 70-44 317 240 464 533 96 191 185 405 185 446 0 37-29 53-61 34z"/>
  </g>
</svg>
