<?xml version="1.0"?>
<svg xmlns="http://www.w3.org/2000/svg" height="200pt" preserveAspectRatio="xMidYMid meet" viewBox="0 0 200 200" width="200pt">
  <g transform="matrix(.1 0 0 -.1 0 200)">
    <path d="m576 1763c-48-63-156-169-279-277-65-57-78-73-75-95 7-56 67-34 176 64 29 26 54 46 56 44 6-7 18-389 12-389-19 0-276-41-289-46-23-8-23-62 0-71 9-4 76 1 147 10s131 15 133 13c7-6-37-205-63-289-15-45-71-183-125-306-77-173-97-227-88-237 18-22 35-17 68 22 50 57 166 299 221 461l27 82 6-87c4-48 12-195 19-327 10-205 15-242 30-257 18-18 46-15 60 6 13 18 9 155-13 499-11 181-19 333-17 339 2 5 47-36 101-91 94-98 120-114 145-89 26 26 10 54-98 164-60 62-110 117-110 123s8 11 18 11c74 0 288 23 299 31 19 17 16 57-6 69-14 7-72 6-193-4-95-8-175-13-177-11s-6 108-9 235l-5 231 30 32c57 60 103 128 103 152 0 23-25 45-49 45-5 0-30-26-55-57z"/>
    <path d="m1307 1813c-18-18-1-74 67-211 76-153 98-179 131-152 27 23 15 61-66 216-68 129-84 154-103 154-13 0-26-3-29-7z"/>
    <path d="m1716 1608c-8-14-16-67-20-135-14-234-100-479-259-735-23-37-46-67-50-68-21-1-124 265-166 426-11 43-29 58-56 48-24-10-27-43-11-119 20-95 57-197 122-334l54-114-39-51c-94-120-206-239-275-290-41-31-80-64-85-75-11-20-5-51 9-51 5 0 15-3 23-6s52 23 105 63c80 60 175 158 278 288l32 39 65-101c77-119 130-165 261-229 91-45 136-54 154-31 17 20 31 88 38 177 5 68 3 89-9 105-29 37-50 8-70-95-9-52-19-96-22-99-7-7-70 24-144 73-56 36-74 56-141 160l-78 118 60 92c120 184 224 429 262 618 23 112 33 313 16 333-18 21-37 19-54-7z"/>
    <path d="m1767 953c-16-16-3-56 61-182 71-141 90-164 120-145 28 18 25 45-19 134-68 141-107 200-133 200-12 0-26-3-29-7z"/>
    <path d="m995 748c-32-47-78-183-79-238-1-50 1-55 22-58 34-5 49 12 62 71 7 29 25 83 41 121 33 79 35 89 13 110-22 22-40 20-59-6z"/>
  </g>
</svg>
