<?xml version="1.0"?>
<svg xmlns="http://www.w3.org/2000/svg" height="200pt" preserveAspectRatio="xMidYMid meet" viewBox="0 0 200 200" width="200pt">
  <g transform="matrix(.1 0 0 -.1 0 200)">
    <path d="m576 1763c-48-63-156-169-279-277-65-57-78-73-75-95 7-56 67-34 176 64 29 26 54 46 56 44 6-7 18-389 12-389-19 0-276-41-289-46-23-8-23-62 0-71 9-4 76 1 147 10s131 15 133 13c7-6-37-205-63-289-15-45-71-183-125-306-77-173-97-227-88-237 18-22 35-17 68 22 50 57 166 299 221 461l27 82 6-87c4-48 12-195 19-327 10-205 15-242 30-257 18-18 46-15 60 6 13 18 9 155-13 499-11 181-19 333-17 339 2 5 47-36 101-91 94-98 120-114 145-89 26 26 10 54-98 164-60 62-110 117-110 123s8 11 18 11c74 0 288 23 299 31 19 17 16 57-6 69-14 7-72 6-193-4-95-8-175-13-177-11s-6 108-9 235l-5 231 30 32c57 60 103 128 103 152 0 23-25 45-49 45-5 0-30-26-55-57z"/>
    <path d="m1188 1688c-9-7-21-32-27-55-25-92-107-185-225-255-47-28-59-55-33-77 23-19 122 21 186 75l32 26 124-58c69-32 125-62 125-66 0-23-226-180-348-242-57-29-71-48-52-71 27-33 90-13 235 73 205 122 441 365 534 549 51 101 38 106-263 102-133-2-248 0-256 4-9 4-23 2-32-5zm452-94c0-14-93-145-139-196-42-46-55-56-69-48-9 5-70 34-135 65-66 30-117 58-115 62 2 5 16 34 32 66l27 57h200c109 0 199-3 199-6z"/>
    <path d="m1700 1050c-68-16-362-41-404-35-50 8-56 2-80-71-17-52-61-111-208-278-87-98-96-128-44-134 26-3 41 8 117 86l86 90 159-104c87-57 162-105 168-107 13-4-88-129-160-197-84-80-125-109-223-160-63-34-86-51-86-65 0-18 7-20 56-20 120 1 292 129 463 346 136 173 227 364 268 559 11 54 10 61-7 80-19 21-46 24-105 10zm20-96c0-30-53-171-101-272l-60-124-24 16c-13 9-64 40-113 70-48 29-114 70-145 91-55 37-57 39-42 59 9 12 28 47 43 78l27 57 70 2c39 0 120 7 180 13 137 16 165 18 165 10z"/>
  </g>
</svg>
