<?xml version="1.0"?>
<svg xmlns="http://www.w3.org/2000/svg" height="200pt" preserveAspectRatio="xMidYMid meet" viewBox="0 0 200 200" width="200pt">
  <g transform="matrix(.1 0 0 -.1 0 200)">
    <path d="m576 1763c-48-63-156-169-279-277-65-57-78-73-75-95 7-56 67-34 176 64 29 26 54 46 56 44 6-7 18-389 12-389-19 0-276-41-289-46-23-8-23-62 0-71 9-4 76 1 147 10s131 15 133 13c7-6-37-205-63-289-15-45-71-183-125-306-77-173-97-227-88-237 18-22 35-17 68 22 50 57 166 299 221 461l27 82 6-87c4-48 12-195 19-327 10-205 15-242 30-257 18-18 46-15 60 6 13 18 9 155-13 499-11 181-19 333-17 339 2 5 47-36 101-91 94-98 120-114 145-89 26 26 10 54-98 164-60 62-110 117-110 123s8 11 18 11c74 0 288 23 299 31 19 17 16 57-6 69-14 7-72 6-193-4-95-8-175-13-177-11s-6 108-9 235l-5 231 30 32c57 60 103 128 103 152 0 23-25 45-49 45-5 0-30-26-55-57z"/>
    <path d="m1335 1743c-247-24-289-35-317-86-14-26 21-557 38-576 11-12 56-12 316-1l303 12 28 26c25 24 27 32 27 101 0 42 7 144 15 226 18 184 19 277 3 293-11 11-307 15-413 5zm335-115c0-24-7-106-15-183s-15-170-15-206v-66l-232-7c-128-4-244-8-258-9-25-2-25-2-31 113-4 63-10 169-14 236l-8 121 39 6c21 3 89 11 149 17 61 5 126 12 145 13 19 2 81 5 138 5l102 2z"/>
    <path d="m1635 929c-303-22-628-63-662-85-26-16-30-46-8-64 11-9 47-7 167 9 84 12 165 23 179 24 26 3 27 1 33-62 3-36 6-87 6-112v-46l-87-17c-99-19-131-42-112-78 12-22 27-22 161 1l46 8 6-96c4-53 8-115 10-138 4-51 27-45-264-68-113-8-218-19-234-23-38-10-55-36-40-59 14-22 41-21 334 2 113 9 324 19 470 22 151 3 270 10 278 16 17 13 15 42-5 62-14 15-41 16-230 13l-213-3-5 30c-2 17-7 80-10 142l-6 111 28 6c15 3 71 11 123 17 99 11 120 20 120 49 0 43-44 48-226 24l-52-7-7 107c-4 59-6 108-4 110s87 9 189 16 193 16 203 21c20 11 23 49 5 67-13 13-17 13-193 1z"/>
  </g>
</svg>
