<?xml version="1.0"?>
<svg xmlns="http://www.w3.org/2000/svg" height="200pt" preserveAspectRatio="xMidYMid meet" viewBox="0 0 200 200" width="200pt">
  <g transform="matrix(.1 0 0 -.1 0 200)">
    <path d="m576 1763c-48-63-156-169-279-277-65-57-78-73-75-95 7-56 67-34 176 64 29 26 54 46 56 44 6-7 18-389 12-389-19 0-276-41-289-46-23-8-23-62 0-71 9-4 76 1 147 10s131 15 133 13c7-6-37-205-63-289-15-45-71-183-125-306-77-173-97-227-88-237 18-22 35-17 68 22 50 57 166 299 221 461l27 82 6-87c4-48 12-195 19-327 10-205 15-242 30-257 18-18 46-15 60 6 13 18 9 155-13 499-11 181-19 333-17 339 2 5 47-36 101-91 94-98 120-114 145-89 26 26 10 54-98 164-60 62-110 117-110 123s8 11 18 11c74 0 288 23 299 31 19 17 16 57-6 69-14 7-72 6-193-4-95-8-175-13-177-11s-6 108-9 235l-5 231 30 32c57 60 103 128 103 152 0 23-25 45-49 45-5 0-30-26-55-57z"/>
    <path d="m1601 1762c-16-32-59-102-96-156s-64-104-61-112c8-21 49-17 80 7 36 29 107 131 147 212 37 75 34 99-14 105-23 3-30-4-56-56z"/>
    <path d="m992 1708c-7-7-12-18-12-25 0-50 134-213 175-213 50 0 40 47-27 130-25 30-53 70-62 88-17 34-51 43-74 20z"/>
    <path d="m1435 1390c-363-31-400-40-424-104-4-11 5-91 21-180 15-89 28-175 28-191 0-41 16-55 62-55h38v-62c0-35-7-92-15-127-31-128-139-322-229-411-50-48-57-73-25-90 31-17 70 3 116 58 151 180 241 403 243 595 0 52 2 57 23 57 12 0 38 3 57 6l35 6-4-195c-4-256 13-348 86-445 38-50 77-66 163-65 105 1 332 33 350 49 11 11 12 23 3 61-6 27-18 84-27 128s-19 90-22 103c-3 17-10 22-27 20-21-3-22-7-21-96 1-52 4-106 7-121l6-28-107-14c-158-19-215-18-242 6-63 57-80 143-80 400v204l58 6c31 3 71 8 88 11 22 3 33 0 38-11 7-19 50-20 66-1 7 9 13 58 16 118 2 57 6 160 9 229 7 135 4 143-45 152-14 3-124-3-245-13zm202-107c-3-21-9-93-13-160l-7-123h-31c-17 0-121-11-231-25s-203-25-207-25c-5 0-8 11-8 24s-11 81-25 150-25 130-25 135c0 12 63 21 310 41 118 10 221 18 229 19 10 1 12-8 8-36z"/>
  </g>
</svg>
