<?xml version="1.0"?>
<svg xmlns="http://www.w3.org/2000/svg" height="200pt" preserveAspectRatio="xMidYMid meet" viewBox="0 0 200 200" width="200pt">
  <g transform="matrix(.1 0 0 -.1 0 200)">
    <path d="m1391 1862c-39-32-126-88-193-123-143-75-180-103-176-133 5-33 50-25 172 33 60 28 111 51 112 51 2 0 4-51 4-113v-114l-122-17c-197-27-348-57-363-73-18-18-19-24-1-48 13-18 17-18 152 3 77 13 183 28 236 36 107 14 108 14 108-45 0-21-5-29-17-29-10 0-67-12-126-27-72-17-111-32-117-43-6-12-2-48 14-111 13-52 30-139 36-194 18-142 15-139 116-132 98 7 92 14 96-120 3-95 22-81-147-109-122-20-163-49-119-85 15-12 96-7 235 17l36 6 6-48c4-27 9-79 13-116l7-68h-36c-39 0-280-34-364-51-44-9-54-15-59-36-4-16-1-30 8-40 14-13 30-13 144 6 233 36 315 42 587 40 282-1 286-1 287 42 0 39-25 44-255 47l-222 4-11 116c-6 64-9 118-8 120 6 5 154 21 202 22 55 0 74 12 74 47 0 38-38 46-164 33-88-9-111-8-117 2-5 7-9 52-9 99 0 70 3 88 16 93 9 3 67 6 129 6 165 0 158-10 167 227 4 103 5 205 2 226-9 56-26 61-180 54-143-7-144-7-144 47 0 21 6 24 77 30 42 3 138 6 213 6 120 0 139 2 153 18 22 24 21 35-3 57-18 17-36 18-213 12-107-3-201-9-210-13-15-6-17 7-17 136v141l55 51c55 50 68 81 43 106-20 20-32 15-107-46zm249-674c0-29-4-58-8-64-4-8-47-12-119-13l-112-1 6 53c3 28 8 54 10 57 4 4 75 11 196 18 26 2 27 1 27-50zm-321-5c-4-78-9-85-78-99-36-8-66-13-66-11-9 11-22 93-17 99 6 5 124 34 155 37 4 1 6-11 6-26zm280-159c30-6 31-7 31-65v-59h-69c-37 0-89-3-115-6l-46-7v66c0 54 3 66 18 70 27 7 146 8 181 1zm-289-78c0-71-5-76-69-76h-38l-7 56c-4 31-4 59-1 62 2 3 22 8 42 12 75 15 73 17 73-54z"/>
    <path d="m576 1763c-48-63-156-169-279-277-65-57-78-73-75-95 7-56 67-34 176 64 29 26 54 46 56 44 6-7 18-389 12-389-19 0-276-41-289-46-23-8-23-62 0-71 9-4 76 1 147 10s131 15 133 13c7-6-37-205-63-289-15-45-71-183-125-306-77-173-97-227-88-237 18-22 35-17 68 22 50 57 166 299 221 461l27 82 6-87c4-48 12-195 19-327 10-205 15-242 30-257 18-18 46-15 60 6 13 18 9 155-13 499-11 181-19 333-17 339 2 5 47-36 101-91 94-98 120-114 145-89 26 26 10 54-98 164-60 62-110 117-110 123s8 11 18 11c74 0 288 23 299 31 19 17 16 57-6 69-14 7-72 6-193-4-95-8-175-13-177-11s-6 108-9 235l-5 231 30 32c57 60 103 128 103 152 0 23-25 45-49 45-5 0-30-26-55-57z"/>
  </g>
</svg>
