<?xml version="1.0"?>
<svg xmlns="http://www.w3.org/2000/svg" height="200pt" preserveAspectRatio="xMidYMid meet" viewBox="0 0 200 200" width="200pt">
  <g transform="matrix(.1 0 0 -.1 0 200)">
    <path d="m465 1873c-14-13-16-31-13-92l3-76-138-25c-134-24-156-34-157-67 0-7 10-19 23-27 20-13 36-12 147 8 69 13 127 21 130 19 3-3 6-53 8-111l4-107-71-18c-84-22-116-44-107-74 4-12 13-24 21-27s63 7 123 23c59 16 148 34 197 41 103 15 135 30 135 65 0 33-30 40-119 26-38-6-76-11-83-11-11 0-14 23-13 108v107l105 15c120 18 130 22 130 54 0 44-22 51-118 37-48-6-97-15-109-18-22-5-23-3-23 62 0 36-5 75-10 86-13 23-43 25-65 2z"/>
    <path d="m1380 1815c-8-2-71-9-140-16-96-10-128-17-143-32-11-11-16-25-12-35 13-31 17-196 7-252-15-82-48-162-88-214-43-56-42-80 4-84 40-4 78 32 116 111 44 90 60 171 60 298v117l108 12c60 7 111 11 113 8 2-2-7-39-21-82-38-121-50-214-36-287 20-109 44-119 283-119 197 0 194-1 187 94-7 78-42 149-76 154-23 4-23 2-17-55 3-32 8-68 11-80 4-23 4-23-133-23-76 0-144 4-152 9-42 27-11 234 55 368 29 59 33 76 24 92-9 18-20 21-73 20-34-1-69-3-77-4z"/>
    <path d="m770 1268c-89-15-563-99-592-104-49-9-53-25-49-173 1-75 7-144 12-153 13-25 56-23 70 3 7 13 10 63 8 132l-4 111 155 27c280 51 402 71 407 66 2-3-5-37-17-76-23-74-21-91 10-91 35 0 94 102 115 198 5 25 3 38-11 53-19 21-22 21-104 7z"/>
    <path d="m1415 1045c-280-51-284-53-285-96 0-24 67-121 149-214l69-79-41-51c-23-27-78-87-123-132-78-80-105-98-237-151-34-14-44-37-26-58 20-24 96-13 171 24 47 23 89 57 163 134 56 57 113 118 129 137l27 34 52-49c29-28 113-108 187-179 151-145 212-185 257-169 45 15 39 38-19 80-29 20-98 81-153 134s-137 129-182 169c-46 41-83 78-83 82 0 5 22 42 48 82 56 86 130 232 138 275 6 32-15 63-44 61-9 0-98-16-197-34zm114-107c-28-56-122-208-129-207-12 1-171 194-162 197 19 6 268 50 290 51l22 1z"/>
    <path d="m467 969c-90-90-105-121-60-127 12-2 40 6 62 18l41 20v-53-54l-82-28c-136-46-153-56-153-90 0-25 4-30 28-33 15-2 52 6 82 17 31 12 60 21 66 21 27 0-131-200-263-333-86-86-105-121-73-133 35-14 74 12 170 109 56 56 130 142 165 191l65 90 5-195c3-107 9-200 13-206 5-7 19-13 33-13 40 0 45 32 38 246-5 133-4 194 3 194 6 0 45-16 86-36 42-19 86-34 98-32 26 4 45 29 36 51-6 15-155 92-207 107-22 6-17 9 30 19 30 7 88 15 129 18 53 4 79 11 93 25 22 22 23 32 2 52-19 20-73 20-179 1-44-8-86-15-92-15-20 0-17 153 2 191 12 22 13 34 5 49-20 37-52 21-143-71z"/>
  </g>
</svg>
