<?xml version="1.0"?>
<svg xmlns="http://www.w3.org/2000/svg" height="200pt" preserveAspectRatio="xMidYMid meet" viewBox="0 0 200 200" width="200pt">
  <g transform="matrix(.1 0 0 -.1 0 200)">
    <path d="m1250 1891c-5-11-10-58-10-105v-85l-32-6c-18-3-78-12-133-20-135-21-179-53-122-89 19-12 33-12 97-1 41 8 103 17 136 20l61 7 8-47c4-31 3-50-4-54-6-4-53-13-103-20-119-17-154-44-109-86 19-16 25-16 114-1 52 9 97 16 101 16 3 0 6-15 6-32v-33l-138-27c-167-32-301-74-309-95-3-9-2-23 4-32 14-22 69-19 168 8 163 44 293 61 555 72 140 6 265 12 277 15 31 6 39 41 16 66-17 19-25 20-198 14-99-4-204-9-232-13l-53-5v35c0 41-1 40 135 52 73 6 95 17 95 45 0 36-25 43-129 37-109-6-111-5-111 65 0 34 1 34 183 49 148 12 177 21 177 54 0 19-28 45-48 45-9 0-80-7-157-15s-146-15-152-15c-9 0-13 22-13 78 0 54-5 84-16 100-19 27-50 29-64 3z"/>
    <path d="m576 1763c-48-63-156-169-279-277-65-57-78-73-75-95 7-56 67-34 176 64 29 26 54 46 56 44 6-7 18-389 12-389-19 0-276-41-289-46-23-8-23-62 0-71 9-4 76 1 147 10s131 15 133 13c7-6-37-205-63-289-15-45-71-183-125-306-77-173-97-227-88-237 18-22 35-17 68 22 50 57 166 299 221 461l27 82 6-87c4-48 12-195 19-327 10-205 15-242 30-257 18-18 46-15 60 6 13 18 9 155-13 499-11 181-19 333-17 339 2 5 47-36 101-91 94-98 120-114 145-89 26 26 10 54-98 164-60 62-110 117-110 123s8 11 18 11c74 0 288 23 299 31 19 17 16 57-6 69-14 7-72 6-193-4-95-8-175-13-177-11s-6 108-9 235l-5 231 30 32c57 60 103 128 103 152 0 23-25 45-49 45-5 0-30-26-55-57z"/>
    <path d="m1415 1204c-174-27-360-65-382-80-24-15-29-43-14-72 6-9 14-111 20-227 10-193 26-388 37-442 7-39 32-43 150-27 60 9 171 17 246 19 118 2 143 6 173 24 40 23 46 52 14 75-21 15-21 15-14 363 8 405 13 384-83 382-31-1-97-7-147-15zm145-159v-85h-67c-64 0-202-12-319-26l-51-6-6 63c-3 35-4 65-3 67 9 9 360 69 414 71l32 1zm-8-257c-2-46-5-84-6-85s-81-9-177-18c-95-8-186-18-201-21-32-6-36 4-39 101-2 69-2 69 27 77 43 11 206 25 310 27l91 1zm-2-247v-69l-92-6c-51-4-137-12-191-18-54-5-101-8-104-5s-8 35-10 70l-6 64 149 12c82 7 156 14 164 15 8 2 32 4 53 5l37 1z"/>
    <path d="m1145 276c-15-19-57-60-95-90-38-31-72-65-75-76-8-25 10-50 35-50 42 0 205 142 217 188 15 61-42 81-82 28z"/>
    <path d="m1533 293c-7-2-13-18-13-34 0-24 7-32 43-50 23-12 72-41 109-65 142-91 200-106 206-53 4 31-7 40-128 111-162 95-185 104-217 91z"/>
  </g>
</svg>
