<?xml version="1.0"?>
<svg xmlns="http://www.w3.org/2000/svg" height="200pt" preserveAspectRatio="xMidYMid meet" viewBox="0 0 200 200" width="200pt">
  <g transform="matrix(.1 0 0 -.1 0 200)">
    <path d="m909 1839c-21-21-21-26-14-219l7-197-154-12c-84-7-236-19-338-27s-195-17-207-19c-29-7-37-35-23-82 6-21 26-110 45-197 18-87 39-163 47-167 22-14 37-10 53 15 15 22 14 34-9 147-14 68-30 140-36 159-5 19-10 38-10 41 0 8 69 14 350 34 118 9 253 20 300 25s164 14 260 20 243 15 325 20c165 11 285 13 285 5 0-12-85-174-123-233-31-50-38-68-30-81 35-55 101 10 192 190 100 198 96 219-42 219-92 0-377-15-627-34-91-7-166-12-168-11-1 1-5 87-8 191-8 228-21 267-75 213z"/>
    <path d="m676 918c-7-13-16-38-20-56-8-45-79-185-131-257-39-54-95-112-183-188-34-29-39-46-20-65 31-31 88-1 191 104 134 136 260 390 229 460-14 30-47 31-66 2z"/>
    <path d="m1220 915c-21-25-3-59 56-100 193-136 384-288 443-352 71-77 101-90 121-52 14 25-11 68-81 140-71 73-488 379-516 379-6 0-16-7-23-15z"/>
  </g>
</svg>
