<?xml version="1.0"?>
<svg xmlns="http://www.w3.org/2000/svg" height="200pt" preserveAspectRatio="xMidYMid meet" viewBox="0 0 200 200" width="200pt">
  <g transform="matrix(.1 0 0 -.1 0 200)">
    <path d="m900 1931c-5-11-10-80-10-154v-134l-132-12c-73-6-200-16-283-21-172-12-260-27-281-47-19-20-18-47 11-214 13-79 25-145 25-146s9-7 20-13c14-8 26-8 40 0 26 14 26 62 0 200-11 58-20 106-20 106 0 7 73 15 220 24 96 5 279 19 405 29 371 32 510 42 680 48l160 6-15-20c-8-12-37-48-63-82-50-63-57-94-21-99 30-4 81 35 156 122 80 92 91 121 58 148-19 16-42 18-183 18-89 0-247-6-352-14-104-8-223-17-262-19l-73-4v129c0 140-7 168-45 168-14 0-29-8-35-19z"/>
    <path d="m1166 1397c-28-20-19-194 12-254 35-67 89-97 182-101 61-3 80-1 93 13 42 42 7 75-79 75-96 0-130 44-139 176-7 99-25 123-69 91z"/>
    <path d="m742 1388c-7-7-12-35-12-64 0-84-27-150-89-216-30-33-67-66-83-74-55-29-20-83 45-68 50 11 145 108 179 183 34 74 49 192 29 229-13 24-50 29-69 10z"/>
    <path d="m920 991c-5-11-10-46-10-79 0-119 3-115-118-135-199-32-243-51-216-94 16-26 49-27 170-4 59 11 110 18 113 16 7-8-40-104-90-180-51-78-205-231-328-324-82-63-98-90-69-119 22-22 45-13 125 47 169 127 301 260 368 374 37 61 95 188 95 206 0 6 10 13 23 15 23 5 306 36 327 36 6 0-2-23-18-52-54-95-84-210-90-339-4-102-2-121 16-163 28-63 61-76 191-76 92 0 393 34 413 46 22 14 24 52 6 137-21 103-23 107-49 107-27 0-38-36-32-107l5-60-143-17c-159-18-276-21-299-6-23 14-26 144-5 237 25 112 48 168 105 253 52 79 60 109 34 131-15 13-33 11-404-28l-45-5v91c0 71-3 94-15 101-24 15-48 12-60-9z"/>
  </g>
</svg>
