<?xml version="1.0"?>
<svg xmlns="http://www.w3.org/2000/svg" height="200pt" preserveAspectRatio="xMidYMid meet" viewBox="0 0 200 200" width="200pt">
  <g transform="matrix(.1 0 0 -.1 0 200)">
    <path d="m787 1928c-3-7-3-84 1-170 3-92 1-158-4-158-29 0-279-45-388-71-99-22-132-27-143-18-23 20-63-5-63-39 0-37 85-349 101-368 14-17 41-18 57-2 19 19 14 68-17 169-15 52-31 106-34 120l-7 26 153 32c159 34 327 59 562 86 139 16 597 26 610 14 8-9-77-151-126-210-42-50-46-61-26-77 19-16 69 10 117 60 54 55 160 234 160 270 0 50-19 53-315 52-235-1-427-12-516-30l-26-5-6 133c-7 162-17 198-57 198-16 0-31-6-33-12z"/>
    <path d="m1020 1335c-21-25-5-106 45-224 54-129 93-178 150-191 89-21 375-3 404 25 20 20 6 63-23 71-13 3-64 1-113-5-96-12-204-13-243-2-32 8-88 111-126 231-15 47-32 91-37 98-13 17-42 15-57-3z"/>
    <path d="m684 1308c-5-7-9-58-9-113 0-94-2-104-33-161-39-71-77-111-146-151-59-34-75-56-60-80 26-42 106-15 194 64s140 196 139 312c0 91-17 135-51 139-14 2-30-3-34-10z"/>
    <path d="m962 740c-269-47-287-53-280-102 4-31 26-33 135-13 52 10 96 15 99 12 6-5 36-299 31-303-1-2-38-6-82-9-238-19-653-99-697-135-20-15-21-21-10-44 15-33 35-33 164-1 382 97 924 120 1413 59 109-14 137-15 150-4 20 17 19 57-2 68-51 27-305 52-594 59l-246 6-13 121c-7 67-15 140-20 163l-7 41 74 11c41 6 109 11 151 11 54 0 84 5 100 16 24 17 29 43 10 62-21 21-200 13-376-18z"/>
  </g>
</svg>
