<?xml version="1.0"?>
<svg xmlns="http://www.w3.org/2000/svg" height="200pt" preserveAspectRatio="xMidYMid meet" viewBox="0 0 200 200" width="200pt">
  <g transform="matrix(.1 0 0 -.1 0 200)">
    <path d="m892 1938c-8-8-12-50-12-125 0-102-2-113-18-113-29 0-400-39-487-51-44-6-98-12-119-13-60-2-64-17-37-138 34-149 40-166 62-173 48-16 60 34 34 140-8 33-14 67-15 76 0 21 27 24 1030 120 63 6 143 9 176 7l62-3-64-85c-70-94-81-130-38-130 31 0 122 89 182 177 50 75 54 86 35 113-16 23-18 23-172 16-140-5-405-27-503-41l-38-5v101c0 55-5 109-10 120-12 21-50 25-68 7z"/>
    <path d="m1023 1522c-38-24-44-145-10-212 44-87 100-103 282-76 87 13 114 21 128 37 22 28 22 36-5 53-20 12-35 12-113 0-120-18-180-18-199 1-26 26-37 84-24 132 8 33 7 47-2 58-13 16-38 19-57 7z"/>
    <path d="m682 1478c-5-7-13-27-16-45-16-73-89-149-193-202-49-24-55-47-17-61 93-36 265 106 290 238 12 60-32 108-64 70z"/>
    <path d="m822 1198c-5-7-39-76-75-152-87-185-80-201 71-165 48 11 159 36 247 54l160 34 76-75c43-42 85-74 97-74 24 0 45 23 40 44-5 25-258 286-277 286-40 0-54-49-24-82 9-10 14-20 12-22-7-5-333-76-336-72-2 1 15 41 37 88 44 95 47 110 24 132-19 19-38 20-52 4z"/>
    <path d="m556 807c-13-20-13-31-1-92 8-39 32-106 54-150 34-69 57-97 153-190 124-121 179-156 324-204 113-38 219-51 409-51 163 0 175 4 175 51 0 20-11 37-43 63-58 47-127 78-144 64-18-14-16-25 8-59l20-29h-63c-107 0-239 19-323 46-142 46-203 85-317 202-90 93-108 117-136 183-17 42-34 96-38 120s-11 50-17 57c-15 19-45 14-61-11z"/>
    <path d="m1614 785c-8-33 9-51 106-120 128-89 170-102 185-55 10 31-2 43-124 124-124 82-157 92-167 51z"/>
    <path d="m1086 771c-27-30-11-63 74-145 80-78 105-89 133-58 23 25 40 108 27 132-15 29-47 25-64-7l-14-28-61 63c-33 34-65 62-69 62-5 0-17-8-26-19z"/>
    <path d="m284 667c-58-45-188-158-196-171-12-17-9-33 8-50 26-27 48-18 129 52 43 37 100 84 126 105 49 38 60 62 37 85-21 21-62 13-104-21z"/>
  </g>
</svg>
