<?xml version="1.0"?>
<svg xmlns="http://www.w3.org/2000/svg" height="200pt" preserveAspectRatio="xMidYMid meet" viewBox="0 0 200 200" width="200pt">
  <g transform="matrix(.1 0 0 -.1 0 200)">
    <path d="m830 1870c-8-15-7-33 4-70 16-52 52-288 45-294-2-2-116-18-254-36-342-43-389-54-401-93-10-32 27-58 66-47 17 5 65 14 108 20 42 6 91 13 108 15l31 5 6-72c16-182 109-564 167-678 41-82 50-76-127-85-212-9-478-31-492-39-16-10-14-51 4-66 12-10 44-11 128-7 62 4 243 14 402 22 160 8 306 17 325 20s132 9 250 15c358 16 724 41 748 51 26 10 30 50 7 69-16 13-83 12-408-8-73-5-107-4-107 4 0 6 11 78 25 160 28 162 48 451 43 611l-3 101 120 7c126 7 165 20 165 54 0 43-14 44-318 32-259-11-440-24-483-37-13-4-19 16-33 113-18 120-36 195-56 232-14 27-56 28-70 1zm588-470c7-135-18-483-46-647-16-89-31-165-34-168s-88-10-189-15-214-12-251-16c-59-6-68-4-68 10 0 9-8 33-19 54-53 105-94 246-141 482-28 137-50 256-50 264 0 10 18 16 68 21 37 4 132 18 212 31 128 21 263 36 425 47 94 7 90 10 93-63z"/>
  </g>
</svg>
