<?xml version="1.0"?>
<svg xmlns="http://www.w3.org/2000/svg" height="200pt" preserveAspectRatio="xMidYMid meet" viewBox="0 0 200 200" width="200pt">
  <g transform="matrix(.1 0 0 -.1 0 200)">
    <path d="m918 1949c-16-9-18-26-18-129v-119l-42-5c-24-3-124-15-223-27-210-25-225-30-225-63 0-45 20-50 133-37 56 7 109 15 118 17 12 3 20-10 32-60 15-62 56-155 98-222l19-31-153-17c-272-31-400-48-424-57-15-6-23-17-23-33 0-45 17-49 157-32 220 27 580 65 768 81 99 9 241 22 315 30s189 18 255 21c66 4 128 11 138 16 24 13 22 55-5 69-26 14-205 7-412-15-209-23-276-28-276-19 0 4 9 35 19 68s26 104 36 158l17 97h122c136 0 169 10 174 52 5 44-22 51-172 43-72-3-178-10-235-16-81-7-107-6-113 4-4 6-8 54-8 105 0 79-3 95-20 112-23 23-28 24-52 9zm206-356c-14-83-36-171-57-230-24-69-20-66-129-76-32-3-48-1-48 7 0 6-25 61-55 121-31 61-59 126-62 146l-5 36 133 12c74 7 139 14 144 16 6 2 27 4 48 4l38 1z"/>
    <path d="m1240 1130c-170-10-409-38-500-57-41-9-89-17-106-17-44-1-64-22-64-66 0-41 23-173 46-260 8-30 14-68 14-86 0-55 17-60 138-41 59 9 131 19 160 23l52 7v-55-54l-147-18c-172-21-417-61-433-71-15-9-12-51 5-65 12-10 40-8 142 8 71 12 184 28 253 37 69 8 137 17 153 20l27 4v-157c0-162 9-204 42-210 8-2 23 4 32 13 13 14 16 43 16 190v173l58 6c31 3 167 11 302 16 294 13 334 23 314 75-7 18-41 38-52 31-4-2-101-9-217-15-115-6-256-13-312-17l-103-5v50 50l43 5c23 3 89 10 147 16 131 14 146 23 155 92 4 29 23 116 41 192 19 76 32 147 28 158-7 22-44 39-82 36-15 0-83-4-152-8zm130-97c0-10-5-35-11-55l-10-38h-59c-109 0-508-41-577-60-38-10-38-9-47 46l-7 41 78 16c100 22 311 46 483 56 74 4 138 9 143 10 4 0 7-7 7-16zm-47-215c-12-64-5-62-235-86-117-13-247-30-288-37-51-9-77-10-81-3-15 23-20 91-8 99 27 16 388 55 541 58l78 1z"/>
  </g>
</svg>
