<?xml version="1.0"?>
<svg xmlns="http://www.w3.org/2000/svg" height="200pt" preserveAspectRatio="xMidYMid meet" viewBox="0 0 200 200" width="200pt">
  <g transform="matrix(.1 0 0 -.1 0 200)">
    <path d="m843 1968c-4-7-7-79-5-160 1-82 0-148-2-148-14 0-423-61-433-65-7-2-13-18-13-34 0-25 5-32 26-37 25-6 98-2 182 12l38 6 13-69c6-37 22-98 35-135l24-67-27-5c-25-5-95-15-366-51-96-13-124-21-138-37-15-18-16-23-3-42 17-26 51-26 266 3 719 97 863 111 1182 111 220 0 259 2 272 16 19 18 21 45 4 62-14 14-543 16-661 3-58-6-66-5-62 8 15 51 35 169 35 212 0 27 1 49 3 49 1 1 64 5 140 9 145 9 167 17 167 57 0 46-29 49-278 30-125-10-246-20-268-23l-42-5-6 138c-4 77-10 146-15 154-10 19-57 25-68 8zm287-382c0-2-7-43-15-92-19-109-43-184-59-184-13 0-159-17-218-25l-36-5-26 73c-38 106-57 197-43 202 38 13 397 41 397 31z"/>
    <path d="m1170 1120c-269-27-519-63-564-79-14-6-28-21-31-34-3-12 6-92 20-177 15-85 27-174 27-197 0-65 22-79 106-65 37 6 95 14 130 18l62 6v-61c0-69 4-66-103-75-63-5-87-18-87-46 0-33 25-42 109-38l79 3 4-50c6-98 21-89-190-104-240-16-398-35-417-51s-19-44 0-60c13-10 51-10 198 4 308 28 537 37 933 35 210-1 386 1 393 5 6 4 11 21 11 37 0 23-6 32-27 41-19 7-157 11-415 11h-388v67 67l38 7c20 3 62 6 92 6 61 0 80 11 80 47 0 34-32 45-125 41l-83-3-6 53c-4 29-4 57-1 61 2 5 67 12 142 16 171 8 179 12 188 97 3 35 15 123 26 196 24 170 24 178-6 207-26 27-51 29-195 15zm115-167-6-33h-88c-49 0-109-3-135-6l-46-7v51 50l98 11c172 20 177 19 180-8 2-13 1-39-3-58zm-365-1v-47l-117-18c-125-20-133-18-133 30 0 12-2 28-5 36-5 11 17 17 107 29 62 9 121 16 131 17 14 1 17-7 17-47zm340-177c-3-30-10-59-16-64-5-5-60-12-121-16l-113-7v65 66l53 4c28 2 86 4 128 5l75 2zm-340-29v-63l-82-7c-46-4-93-9-105-12-19-5-22-1-28 51-4 31-5 58-2 62 6 5 155 30 195 32 21 1 22-3 22-63z"/>
  </g>
</svg>
