<?xml version="1.0"?>
<svg xmlns="http://www.w3.org/2000/svg" height="200pt" preserveAspectRatio="xMidYMid meet" viewBox="0 0 200 200" width="200pt">
  <g transform="matrix(.1 0 0 -.1 0 200)">
    <path d="m409 1898c-8-14-10-69-7-169l4-148-30-6c-218-42-251-58-225-106 9-19 17-21 55-15 24 3 54 8 67 11 22 6 23 2 34-72 7-43 20-103 31-134l18-56-115-22c-132-25-185-46-189-77-6-42 20-48 115-25 146 33 378 62 553 68 172 5 210 15 210 51s-20 42-147 42h-123v103c0 56 3 119 6 140l7 37h63c51 0 68 4 84 20 24 24 25 34 4 54-17 18-120 21-251 8l-71-8-6 29c-3 16-6 80-6 141 0 85-4 117-16 134-19 28-50 28-65 0zm167-520c-4-73-11-137-15-141-5-5-33-12-64-16l-55-7-25 95c-14 53-28 115-31 138l-6 42 47 6c27 4 53 8 58 10 6 2 30 4 54 4l44 1z"/>
    <path d="m1292 1908c-8-8-12-48-12-115 0-118 14-104-125-124-99-14-145-32-145-56 0-29 20-43 60-43h37l32-122c19-68 35-130 38-139 4-13-6-18-53-24-83-10-104-20-104-49 0-43 19-49 122-37 119 14 423 31 543 31 122 0 147 9 143 52l-3 33-181-1-180-1 33 146c18 79 33 149 33 153s29 8 65 8c54 0 66 3 75 20 8 14 8 26 0 40-10 19-21 20-155 20h-145v84c0 102-11 136-43 136-13 0-28-5-35-12zm148-302c0-18-62-271-70-286s-21-20-54-20h-44l-40 143c-22 78-37 143-33 145 32 12 241 28 241 18z"/>
    <path d="m1330 1099c-47-4-107-12-133-18-27-6-52-9-57-6s-18-3-30-15c-22-22-22-28 6-189 20-111 25-119 77-123l42-3 3-95c2-61-3-121-13-167-18-78-95-239-145-303-52-66-22-104 46-58 71 47 160 216 191 362 11 52 13 99 9 174-6 85-4 102 8 102 8 0 21 2 28 5 11 4 16-25 26-142 7-82 20-195 28-253 31-211 50-225 304-218 131 3 163 7 176 20 14 13 17 40 17 155 0 149-9 193-43 193-23 0-24-4-40-155-6-60-15-114-19-118-10-10-266-6-275 4-17 17-66 384-66 492v40l35-6c63-10 72 8 78 164 5 123 4 138-12 153-19 18-90 19-241 5zm168-149c-3-39-8-73-12-77-5-6-268-42-274-38-1 1-9 36-16 78-12 73-12 77 6 83 31 10 147 21 227 23l74 1z"/>
    <path d="m558 1039c-54-4-123-13-155-20-32-6-71-12-87-13-16 0-34-9-42-21-11-17-7-37 28-140 22-66 47-128 56-137 9-12 30-18 54-18h39l-6-57c-20-163-103-334-229-477-31-35-33-52-6-66 51-27 139 59 223 218 59 113 88 207 96 312 5 77 8 85 28 88 27 4 28-2 49-323 17-270 22-288 68-269 32 12 215 210 222 240 6 24-10 54-28 54-6 0-43-32-84-72-41-39-76-69-78-67-1 2-8 74-15 159-6 85-14 185-18 223l-6 67h32c23 0 42 9 62 29 29 29 29 31 29 145 0 167 4 165-232 145zm142-154c0-86 9-80-130-90-47-3-101-8-120-11l-35-6-17 59c-9 32-20 66-23 75-5 12 2 18 26 23 47 10 164 22 237 24l62 1z"/>
  </g>
</svg>
