<?xml version="1.0"?>
<svg xmlns="http://www.w3.org/2000/svg" height="200pt" preserveAspectRatio="xMidYMid meet" viewBox="0 0 200 200" width="200pt">
  <g transform="matrix(.1 0 0 -.1 0 200)">
    <path d="m1213 1908c-4-7-8-85-9-173 0-134-4-173-23-240-27-98-87-223-181-378-39-65-69-125-66-133s16-14 30-14c42 0 128 114 214 286l30 60 147 33c80 18 148 32 149 30 8-9 36-326 41-474 6-147-12-508-31-648-6-43-8-46-23-34-36 31-59 38-75 21-14-13-14-19-2-43 8-15 35-46 60-69 46-43 84-53 104-29 12 15 39 273 51 497 10 188 0 484-24 669-11 91-13 126-4 131 6 4 56 15 111 25 95 17 138 37 138 64 0 16-31 41-50 41-28 0-212-36-387-76-84-19-155-34-157-34s3 26 12 58c13 43 17 99 17 228 0 155-2 174-19 193-22 24-41 27-53 9z"/>
    <path d="m372 1893c-5-10-12-88-15-173-6-173-16-219-78-345-47-94-92-159-172-248-59-66-65-90-27-102 11-3 32 1 48 9 42 22 131 123 176 200 21 36 42 63 46 61 5-3 67 14 139 36 73 23 133 40 135 38 17-17 28-213 27-469-2-264 12-661 25-747 6-38 43-55 71-32 14 12 15 31 9 154-4 77-11 331-16 565-5 279-12 446-21 487-7 35-10 66-6 69 3 3 72 24 154 45 184 49 198 56 198 94 0 27-4 30-35 33-33 3-391-95-559-152-41-14-76-25-78-23-1 2 6 29 18 61 29 84 44 242 33 356-9 93-10 95-36 98-18 2-30-3-36-15z"/>
  </g>
</svg>
