<?xml version="1.0"?>
<svg xmlns="http://www.w3.org/2000/svg" height="200pt" preserveAspectRatio="xMidYMid meet" viewBox="0 0 200 200" width="200pt">
  <g transform="matrix(.1 0 0 -.1 0 200)">
    <path d="m402 1888c-7-7-12-21-12-32 0-38-57-140-134-241-83-108-92-138-43-143 22-3 37 6 71 40 23 24 51 54 61 68 17 22 33 28 111 38 136 18 124 25 124-77 0-107 10-141 43-141 41 0 47 17 47 131 0 124-4 119 104 119 59 0 76 4 90 19 22 24 14 57-15 66-24 8-159-1-309-20-57-8-106-12-108-10s3 17 12 33c24 46 36 111 25 138-9 26-46 33-67 12z"/>
    <path d="m1143 1878c-5-7-15-31-21-53-10-35-38-87-92-172-11-18-12-24-1-37 19-23 36-20 73 12 28 25 129 62 166 62 9 0 12-37 12-133 0-141 5-157 47-157 36 0 43 30 43 173v135l78 6c42 4 89 9 105 12 35 7 52 36 36 65-11 21-16 21-98 15-47-3-130-13-184-22s-100-14-103-12c-2 2 1 21 7 41 7 25 7 43-1 57-12 22-52 27-67 8z"/>
    <path d="m949 1404c-18-19-88-67-154-106-144-85-157-96-153-122 5-36 56-32 141 13 88 45 85 48 66-69-14-81 17-69-249-100-155-19-220-35-220-56 0-3 5-14 10-25 14-24 38-24 249 1 91 11 166 18 168 17 7-7-69-213-111-303-72-152-161-262-288-358-53-41-135-86-154-86-18 0-28-38-14-55 52-62 276 77 416 257 70 90 141 235 208 422 5 16 16 4 56-60 62-101 243-328 300-377 87-74 281-175 408-212 76-22 117-14 117 24 0 22-12 29-112 67-126 47-255 114-332 172-84 63-300 341-364 468l-26 51 42 7c23 3 175 9 337 12 162 4 303 11 313 16 25 13 22 55-5 69-22 12-345 8-580-8l-96-6 10 44c5 24 8 74 6 112-2 37-1 67 3 67 19 0 99 91 99 113 0 55-43 61-91 11z"/>
  </g>
</svg>
