<?xml version="1.0"?>
<svg xmlns="http://www.w3.org/2000/svg" height="200pt" preserveAspectRatio="xMidYMid meet" viewBox="0 0 200 200" width="200pt">
  <g transform="matrix(.1 0 0 -.1 0 200)">
    <path d="m402 1888c-7-7-12-21-12-32 0-38-57-140-134-241-83-108-92-138-43-143 22-3 37 6 71 40 23 24 51 54 61 68 17 22 33 28 111 38 136 18 124 25 124-77 0-107 10-141 43-141 41 0 47 17 47 131 0 124-4 119 104 119 59 0 76 4 90 19 22 24 14 57-15 66-24 8-159-1-309-20-57-8-106-12-108-10s3 17 12 33c24 46 36 111 25 138-9 26-46 33-67 12z"/>
    <path d="m1143 1878c-5-7-15-31-21-53-10-35-38-87-92-172-11-18-12-24-1-37 19-23 36-20 73 12 28 25 129 62 166 62 9 0 12-37 12-133 0-141 5-157 47-157 36 0 43 30 43 173v135l78 6c42 4 89 9 105 12 35 7 52 36 36 65-11 21-16 21-98 15-47-3-130-13-184-22s-100-14-103-12c-2 2 1 21 7 41 7 25 7 43-1 57-12 22-52 27-67 8z"/>
    <path d="m902 1358c-8-8-12-51-12-128v-117l-132-12c-348-31-374-37-398-82-7-11-7-27 0-43 5-14 25-123 45-243s45-252 55-293c11-41 22-96 25-122 9-71 25-82 109-74 230 20 414 28 591 23 270-6 249-20 298 205 21 95 49 220 63 278 32 139 52 306 38 328-17 27-54 31-336 38l-268 6v105c0 57-5 113-10 124-12 21-50 25-68 7zm596-343c4-4-15-126-35-217l-16-78h-233-234v156 157l258-8c141-4 258-8 260-10zm-608-144c0-83-3-152-7-154-5-3-92-8-194-12l-185-7-23 126c-13 69-25 134-28 144-4 17 11 20 174 34 98 8 197 16 221 16l42 2zm3-383 6-126-97-7c-53-3-124-10-157-14-33-5-63-7-67-4-5 2-8 17-8 33 0 15-9 56-19 91-11 35-23 85-26 111l-7 48 178 2c99 2 182 1 185-2 4-3 9-62 12-132zm524 123c-2-11-15-71-28-135l-24-116h-186-186l-6 83c-4 45-7 106-7 135v52h221c213 0 221-1 216-19z"/>
  </g>
</svg>
