<?xml version="1.0"?>
<svg xmlns="http://www.w3.org/2000/svg" height="200pt" preserveAspectRatio="xMidYMid meet" viewBox="0 0 200 200" width="200pt">
  <g transform="matrix(.1 0 0 -.1 0 200)">
    <path d="m402 1888c-7-7-12-21-12-32 0-38-57-140-134-241-83-108-92-138-43-143 22-3 37 6 71 40 23 24 51 54 61 68 17 22 33 28 111 38 136 18 124 25 124-77 0-107 10-141 43-141 41 0 47 17 47 131 0 124-4 119 104 119 59 0 76 4 90 19 22 24 14 57-15 66-24 8-159-1-309-20-57-8-106-12-108-10s3 17 12 33c24 46 36 111 25 138-9 26-46 33-67 12z"/>
    <path d="m1143 1878c-5-7-15-31-21-53-10-35-38-87-92-172-11-18-12-24-1-37 19-23 36-20 73 12 28 25 129 62 166 62 9 0 12-37 12-133 0-141 5-157 47-157 36 0 43 30 43 173v135l78 6c42 4 89 9 105 12 35 7 52 36 36 65-11 21-16 21-98 15-47-3-130-13-184-22s-100-14-103-12c-2 2 1 21 7 41 7 25 7 43-1 57-12 22-52 27-67 8z"/>
    <path d="m1190 1354c-14-2-150-11-304-19-353-19-384-23-397-46-7-13-6-26 2-40 11-21 15-21 173-15 88 4 178 9 199 12l37 6v-129-129l-172-18c-95-10-213-20-263-23-114-7-125-15-125-97 0-34-9-99-20-145-31-129-17-148 102-131 83 12 440 30 448 23 20-19-314-261-430-312-189-83-202-90-198-113 14-97 420 95 626 295l52 51v-94c0-130 17-315 30-340 14-27 56-26 71 1 8 16 8 55 0 151-6 72-11 184-11 249v119h314 313l-4-137c-5-192-10-225-31-219-9 3-37 10-62 16-25 7-57 19-71 27-56 33-80-13-31-59 34-32 72-51 144-72 122-35 127-27 139 221 5 103 12 208 15 233 5 38 3 48-16 65-21 19-36 20-365 19h-343l-6 35c-3 20-6 66-6 102v66l133 12c72 6 161 14 197 17 55 4 70 9 94 34l29 29 5 161c6 207 10 201-137 199-58-1-117-3-131-5zm178-199c-2-63-6-117-9-119-2-3-56-9-119-15s-145-13-181-17l-66-7-5 124c-3 68-4 125-3 126 3 5 228 20 309 22l79 1zm-458-353v-98l-227-12c-126-7-240-15-254-18l-26-6 13 64c8 34 14 80 14 101v37l73 1c39 0 124 6 187 13 63 8 139 14 168 15l52 1z"/>
  </g>
</svg>
