<?xml version="1.0"?>
<svg xmlns="http://www.w3.org/2000/svg" height="200pt" preserveAspectRatio="xMidYMid meet" viewBox="0 0 200 200" width="200pt">
  <g transform="matrix(.1 0 0 -.1 0 200)">
    <path d="m402 1888c-7-7-12-21-12-32 0-38-57-140-134-241-83-108-92-138-43-143 22-3 37 6 71 40 23 24 51 54 61 68 17 22 33 28 111 38 136 18 124 25 124-77 0-107 10-141 43-141 41 0 47 17 47 131 0 124-4 119 104 119 59 0 76 4 90 19 22 24 14 57-15 66-24 8-159-1-309-20-57-8-106-12-108-10s3 17 12 33c24 46 36 111 25 138-9 26-46 33-67 12z"/>
    <path d="m1143 1878c-5-7-15-31-21-53-10-35-38-87-92-172-11-18-12-24-1-37 19-23 36-20 73 12 28 25 129 62 166 62 9 0 12-37 12-133 0-141 5-157 47-157 36 0 43 30 43 173v135l78 6c42 4 89 9 105 12 35 7 52 36 36 65-11 21-16 21-98 15-47-3-130-13-184-22s-100-14-103-12c-2 2 1 21 7 41 7 25 7 43-1 57-12 22-52 27-67 8z"/>
    <path d="m975 1564c-13-14-16-35-13-120l3-104-25-4c-14-3-81-13-149-22-90-13-130-23-143-36-22-22-23-32-2-52 20-20 35-20 190 4 70 11 129 18 130 17s5-20 8-43l7-41-98-17c-184-31-538-87-591-93-60-7-81-28-62-63 8-16 21-20 58-20 50 0 382 47 566 80 60 11 113 20 118 20 4 0 8-24 8-54 0-62 10-57-160-76-159-17-174-21-178-48-6-38 15-52 77-52 31 0 83 4 116 9s80 12 103 15l44 7-7-53c-4-29-12-56-18-60-5-3-35-9-66-13-89-11-122-42-84-80 16-17 68-16 141 2 21 5 22 2 22-55 0-72 27-62-245-92-240-27-404-60-419-82-16-26 4-52 42-56 18-2 71 4 119 13 81 16 495 65 501 60 1-1 7-89 12-196 6-107 12-204 15-216 8-34 45-40 68-12 16 21 18 35 13 124-3 55-7 147-8 205l-3 105 80 7c229 21 339 29 530 39 116 5 215 15 222 21 20 16 15 56-8 68-28 15-422-5-756-38l-73-8v62 62l33 5c17 4 61 9 96 13 42 5 70 13 82 25 23 23 24 33 2 54-14 14-28 16-82 11-36-4-81-9-100-13l-34-6 7 54c4 29 8 55 10 56 1 1 47 5 101 8 146 9 165 13 175 38 5 15 3 29-6 44-9 14-10 24-4 28 6 3 10 32 10 64v59l108 6c238 15 378 28 390 38 19 17 14 46-12 63-21 14-41 15-147 6-68-5-175-13-236-17l-113-6v54c0 83-10 88-162 88h-126l-7 105c-6 87-11 107-26 115-23 13-25 13-44-6zm275-338v-33l-91-9c-49-5-92-8-95-5-2 2-4 22-4 43v38h95 95zm12-181c4-64 10-60-114-69l-78-6v55c0 48 3 55 23 60 27 6 79 11 129 13l36 2z"/>
  </g>
</svg>
