<?xml version="1.0"?>
<svg xmlns="http://www.w3.org/2000/svg" height="200pt" preserveAspectRatio="xMidYMid meet" viewBox="0 0 200 200" width="200pt">
  <g transform="matrix(.1 0 0 -.1 0 200)">
    <path d="m402 1888c-7-7-12-21-12-32 0-38-57-140-134-241-83-108-92-138-43-143 22-3 37 6 71 40 23 24 51 54 61 68 17 22 33 28 111 38 136 18 124 25 124-77 0-107 10-141 43-141 41 0 47 17 47 131 0 124-4 119 104 119 59 0 76 4 90 19 22 24 14 57-15 66-24 8-159-1-309-20-57-8-106-12-108-10s3 17 12 33c24 46 36 111 25 138-9 26-46 33-67 12z"/>
    <path d="m1143 1878c-5-7-15-31-21-53-10-35-38-87-92-172-11-18-12-24-1-37 19-23 36-20 73 12 28 25 129 62 166 62 9 0 12-37 12-133 0-141 5-157 47-157 36 0 43 30 43 173v135l78 6c42 4 89 9 105 12 35 7 52 36 36 65-11 21-16 21-98 15-47-3-130-13-184-22s-100-14-103-12c-2 2 1 21 7 41 7 25 7 43-1 57-12 22-52 27-67 8z"/>
    <path d="m905 1523c-15-14-16-30-10-114 8-113 25-98-134-124-113-19-131-28-131-61 0-39 31-44 160-23 63 10 116 16 119 13 3-2 7-72 9-153l4-149-68-7c-349-33-543-58-574-75-24-13-27-58-4-67 9-3 127 6 262 21 261 28 485 46 563 46h48l3-92c2-51 2-95 1-97-2-2-44-8-95-12-306-26-395-36-495-55-12-2-27-14-34-25-26-49 51-74 156-49 40 9 205 25 384 37l94 6-6-159c-3-87-9-171-13-186-6-27-8-28-68-25-56 2-61 0-64-20-4-29 22-51 89-74 68-23 82-23 101-1 24 28 48 196 48 339v130l38 7c20 3 81 6 134 6 87 0 98 2 108 20 14 26-2 58-34 66-12 3-73 4-135 2-129-3-118-13-123 110-2 44 0 72 7 73 5 1 132 4 281 7 289 7 304 10 304 58 0 36-29 45-132 39-51-2-228-7-393-10l-300-6v158c0 133 2 158 15 161 9 1 71 8 139 15 105 10 126 15 137 33 12 17 11 23-2 42-12 17-25 22-59 22-42 0-177-15-222-25-18-4-23-1-23 14 0 52-24 174-37 187-19 18-28 18-48-3z"/>
    <path d="m882 448c-23-23-11-54 49-120 66-74 102-88 118-45 11 29 1 48-68 119-58 59-77 68-99 46z"/>
  </g>
</svg>
