<?xml version="1.0"?>
<svg xmlns="http://www.w3.org/2000/svg" height="200pt" preserveAspectRatio="xMidYMid meet" viewBox="0 0 200 200" width="200pt">
  <g transform="matrix(.1 0 0 -.1 0 200)">
    <path d="m402 1888c-7-7-12-21-12-32 0-38-57-140-134-241-83-108-92-138-43-143 22-3 37 6 71 40 23 24 51 54 61 68 17 22 33 28 111 38 136 18 124 25 124-77 0-107 10-141 43-141 41 0 47 17 47 131 0 124-4 119 104 119 59 0 76 4 90 19 22 24 14 57-15 66-24 8-159-1-309-20-57-8-106-12-108-10s3 17 12 33c24 46 36 111 25 138-9 26-46 33-67 12z"/>
    <path d="m1143 1878c-5-7-15-31-21-53-10-35-38-87-92-172-11-18-12-24-1-37 19-23 36-20 73 12 28 25 129 62 166 62 9 0 12-37 12-133 0-141 5-157 47-157 36 0 43 30 43 173v135l78 6c42 4 89 9 105 12 35 7 52 36 36 65-11 21-16 21-98 15-47-3-130-13-184-22s-100-14-103-12c-2 2 1 21 7 41 7 25 7 43-1 57-12 22-52 27-67 8z"/>
    <path d="m1435 1358c-3-7-13-55-24-106-10-51-21-95-24-98s-54-10-114-15c-59-6-128-13-152-17-50-8-72-32-55-59 13-21 53-22 206-9l96 8-57-229c-56-222-139-466-187-549-38-66-25-120 26-107 49 13 169 323 249 646 32 131 61 240 63 242 3 3 73 8 156 12l152 6v-74c0-147-21-456-36-544-17-95-72-275-84-275-3 0-17 11-30 25-26 27-65 33-73 11-13-32 79-146 118-146 38 0 54 23 99 143 59 158 85 365 89 714 2 237 4 233-117 232-45 0-120-4-168-7-49-4-88-4-88-1 0 4 7 42 16 84 19 91 10 125-31 125-14 0-28-6-30-12z"/>
    <path d="m658 1279c-160-25-294-58-308-74-8-10-11-64-11-167 1-84-3-189-9-233-16-118-78-428-95-476-27-77-12-129 33-115 28 9 57 95 95 281l32 160 85 11c47 7 137 15 201 19l116 7 6-83c4-46 7-144 7-218 0-127-1-133-17-119-34 29-112 70-123 63-24-15-5-45 78-128 87-87 117-102 141-74 16 20 4 1149-12 1159-19 12-91 8-219-13zm142-159v-90h-52c-53 0-212-15-279-25l-36-6-6 72c-3 40-5 75-3 76 9 10 291 59 349 62l27 1zm0-259c0-92 2-90-120-92-41 0-118-6-170-13s-96-12-98-11c-1 1 1 37 5 81 8 77 8 78 40 86 51 13 170 25 261 27l82 1z"/>
  </g>
</svg>
