<?xml version="1.0"?>
<svg xmlns="http://www.w3.org/2000/svg" height="200pt" preserveAspectRatio="xMidYMid meet" viewBox="0 0 200 200" width="200pt">
  <g transform="matrix(.1 0 0 -.1 0 200)">
    <path d="m402 1888c-7-7-12-21-12-32 0-38-57-140-134-241-83-108-92-138-43-143 22-3 37 6 71 40 23 24 51 54 61 68 17 22 33 28 111 38 136 18 124 25 124-77 0-107 10-141 43-141 41 0 47 17 47 131 0 124-4 119 104 119 59 0 76 4 90 19 22 24 14 57-15 66-24 8-159-1-309-20-57-8-106-12-108-10s3 17 12 33c24 46 36 111 25 138-9 26-46 33-67 12z"/>
    <path d="m1143 1878c-5-7-15-31-21-53-10-35-38-87-92-172-11-18-12-24-1-37 19-23 36-20 73 12 28 25 129 62 166 62 9 0 12-37 12-133 0-141 5-157 47-157 36 0 43 30 43 173v135l78 6c42 4 89 9 105 12 35 7 52 36 36 65-11 21-16 21-98 15-47-3-130-13-184-22s-100-14-103-12c-2 2 1 21 7 41 7 25 7 43-1 57-12 22-52 27-67 8z"/>
    <path d="m934 1495c-12-7-33-48-48-89-32-87-136-250-224-353-79-91-231-218-358-298-80-50-99-67-99-86 0-59 107-23 264 89 95 67 268 239 335 331 48 67 133 206 150 245 3 6 15-2 28-19 54-72 150-164 247-235 119-90 412-260 488-284 62-20 93-10 93 30 0 22-10 30-74 59-200 91-492 283-597 392-66 68-129 151-129 168 0 14-38 65-49 65-3 0-16-7-27-15z"/>
    <path d="m904 906c-165-11-194-20-194-56 0-40 20-43 208-31 97 6 212 11 254 11 78 0 108 13 108 45 0 7-7 21-16 29-18 19-108 19-360 2z"/>
    <path d="m810 664c-80-8-155-11-168-9-31 7-62-11-62-37 0-23 52-245 73-313l12-40h373c241 0 376 3 381 10 7 8 31 284 31 348 0 9-9 26-20 37-19 19-32 20-247 19-126-1-293-8-373-15zm546-111c-3-21-8-72-11-114l-6-76-92-6c-51-4-187-10-303-13l-211-7-27 113c-15 61-26 113-24 115 10 10 252 22 451 24l229 1z"/>
  </g>
</svg>
