<?xml version="1.0"?>
<svg xmlns="http://www.w3.org/2000/svg" height="200pt" preserveAspectRatio="xMidYMid meet" viewBox="0 0 200 200" width="200pt">
  <g transform="matrix(.1 0 0 -.1 0 200)">
    <path d="m402 1888c-7-7-12-21-12-32 0-38-57-140-134-241-83-108-92-138-43-143 22-3 37 6 71 40 23 24 51 54 61 68 17 22 33 28 111 38 136 18 124 25 124-77 0-107 10-141 43-141 41 0 47 17 47 131 0 124-4 119 104 119 59 0 76 4 90 19 22 24 14 57-15 66-24 8-159-1-309-20-57-8-106-12-108-10s3 17 12 33c24 46 36 111 25 138-9 26-46 33-67 12z"/>
    <path d="m1143 1878c-5-7-15-31-21-53-10-35-38-87-92-172-11-18-12-24-1-37 19-23 36-20 73 12 28 25 129 62 166 62 9 0 12-37 12-133 0-141 5-157 47-157 36 0 43 30 43 173v135l78 6c42 4 89 9 105 12 35 7 52 36 36 65-11 21-16 21-98 15-47-3-130-13-184-22s-100-14-103-12c-2 2 1 21 7 41 7 25 7 43-1 57-12 22-52 27-67 8z"/>
    <path d="m927 1473c-4-3-7-48-7-98v-92l-60-6c-208-22-311-41-320-58-13-22-3-47 20-54 10-3 94 3 186 15 92 11 169 19 171 16 2-2 7-35 10-73l6-70-104-7c-192-12-341-27-364-36-36-14-38-40-10-152 44-171 67-208 114-179 17 11 12 49-23 165-14 49-25 91-23 92 2 2 71 8 153 14 82 5 173 12 202 14l52 5v-109-109l-72-73c-93-93-252-203-448-311-85-47-167-93-183-101-31-17-36-50-10-64 25-14 85 7 210 73 167 88 376 229 466 314l37 35 1-224c0-124 4-245 7-270 6-39 11-45 33-48 49-6 51 7 47 277-2 138-2 251-2 251 1 0 51-33 111-73 192-128 607-327 682-327 29 0 32 3 29 28-3 30-31 46-293 167-268 124-518 284-529 339-9 43-7 224 2 230 11 6 472 39 478 34 9-10-10-228-20-228-6 0-29 9-50 21-34 18-41 19-53 6-13-13-13-19-2-43 20-40 58-64 114-70 43-5 53-3 69 15 17 18 20 42 24 196l5 174-26 12c-20 9-78 8-259-5-128-10-245-20-260-23l-28-5v74 75l83 6c45 4 132 7 194 7 101 0 113 2 123 19 13 26 3 50-25 57-13 3-104 4-204 2l-181-3v73c0 40-5 82-10 93-10 18-50 26-63 12z"/>
  </g>
</svg>
