<?xml version="1.0"?>
<svg xmlns="http://www.w3.org/2000/svg" height="200pt" preserveAspectRatio="xMidYMid meet" viewBox="0 0 200 200" width="200pt">
  <g transform="matrix(.1 0 0 -.1 0 200)">
    <path d="m402 1888c-7-7-12-21-12-32 0-38-57-140-134-241-83-108-92-138-43-143 22-3 37 6 71 40 23 24 51 54 61 68 17 22 33 28 111 38 136 18 124 25 124-77 0-107 10-141 43-141 41 0 47 17 47 131 0 124-4 119 104 119 59 0 76 4 90 19 22 24 14 57-15 66-24 8-159-1-309-20-57-8-106-12-108-10s3 17 12 33c24 46 36 111 25 138-9 26-46 33-67 12z"/>
    <path d="m1143 1878c-5-7-15-31-21-53-10-35-38-87-92-172-11-18-12-24-1-37 19-23 36-20 73 12 28 25 129 62 166 62 9 0 12-37 12-133 0-141 5-157 47-157 36 0 43 30 43 173v135l78 6c42 4 89 9 105 12 35 7 52 36 36 65-11 21-16 21-98 15-47-3-130-13-184-22s-100-14-103-12c-2 2 1 21 7 41 7 25 7 43-1 57-12 22-52 27-67 8z"/>
    <path d="m960 1349c-238-11-344-24-384-47-29-17-31-22-30-73 0-30 6-112 12-183 7-71 12-178 12-238 0-146 16-178 91-178 28 0 29-1 29-50 0-27-5-72-11-99-12-59 4-53-229-76-261-26-339-37-351-51-16-19-1-53 27-60 14-4 129 3 256 15s233 20 234 18c7-7-72-116-123-168-61-62-63-89-9-89 63 0 126 60 208 200l45 75 104 11c57 6 138 14 180 17l77 7 7-38c4-20 10-90 14-155 6-100 10-121 28-138 16-17 25-19 41-10 11 6 22 16 24 23 6 17-8 254-17 290-6 24-4 27 27 32 98 15 384 36 502 36 109 0 138 3 150 16 19 18 20 28 6 55-10 18-23 19-173 19-89 0-225-7-302-15-180-19-221-19-228-1-3 8-9 41-13 74l-6 59 85 8c47 3 90 12 96 18 5 7 12 157 17 340 8 395 17 368-120 365-50 0-174-5-276-9zm310-146v-68l-111 3c-99 3-265-6-445-24-69-7-66-10-79 72-6 37-4 42 17 49 13 3 151 12 308 19s291 14 298 15c8 1 12-18 12-66zm-4-199-7-34h-67c-37 0-119-4-182-9s-168-12-232-16l-118-6v41c0 29 4 40 15 40 9 0 59 5 112 11 130 14 477 26 482 16 1-4 0-24-3-43zm-6-199v-75h-142c-79 0-214-3-300-7l-158-6v65c0 65 0 66 31 72 17 3 73 6 123 7s132 4 181 8c50 5 129 9 178 9l87 2zm-185-224c2-30 7-66 10-82l6-27-78-7c-43-3-114-11-157-16-44-5-80-8-82-6-1 1 0 43 3 94l6 92 66 4c36 2 101 3 144 3l79-1z"/>
  </g>
</svg>
