<?xml version="1.0"?>
<svg xmlns="http://www.w3.org/2000/svg" height="200pt" preserveAspectRatio="xMidYMid meet" viewBox="0 0 200 200" width="200pt">
  <g transform="matrix(.1 0 0 -.1 0 200)">
    <path d="m402 1888c-7-7-12-21-12-32 0-38-57-140-134-241-83-108-92-138-43-143 22-3 37 6 71 40 23 24 51 54 61 68 17 22 33 28 111 38 136 18 124 25 124-77 0-107 10-141 43-141 41 0 47 17 47 131 0 124-4 119 104 119 59 0 76 4 90 19 22 24 14 57-15 66-24 8-159-1-309-20-57-8-106-12-108-10s3 17 12 33c24 46 36 111 25 138-9 26-46 33-67 12z"/>
    <path d="m1143 1878c-5-7-15-31-21-53-10-35-38-87-92-172-11-18-12-24-1-37 19-23 36-20 73 12 28 25 129 62 166 62 9 0 12-37 12-133 0-141 5-157 47-157 36 0 43 30 43 173v135l78 6c42 4 89 9 105 12 35 7 52 36 36 65-11 21-16 21-98 15-47-3-130-13-184-22s-100-14-103-12c-2 2 1 21 7 41 7 25 7 43-1 57-12 22-52 27-67 8z"/>
    <path d="m897 1524c-4-4-7-69-7-145v-137l-82-6c-46-3-168-11-273-16-293-16-302-17-325-50-20-28-20-31-4-212 9-100 20-193 25-205 12-33 56-31 71 3 9 20 8 62-4 192-9 92-16 168-15 168 4 3 374 25 577 34 235 11 746 12 803 2l39-7-32-44c-62-85-120-189-120-215 0-21 5-26 24-26 18 0 39 20 87 83 35 45 84 109 110 142 25 33 50 69 56 80 15 29-1 63-34 71-15 4-205 8-420 8l-393 1-1 90c0 50-4 113-7 140-7 47-9 50-37 53-17 2-34 0-38-4z"/>
    <path d="m1050 1029c-328-22-409-31-439-50-33-20-35-27-21-104 5-27 14-221 20-430 9-296 14-383 25-394 17-18 55-18 345-3 266 14 485 11 503-7 6-6 21-11 33-11 44 0 47 18 41 217-4 167-7 187-25 205-19 19-27 19-288 9-148-6-331-13-406-16l-138-5v80 80h53c89 0 450 19 495 26 40 6 45 10 62 49 13 31 20 82 26 184 6 128 5 143-11 161-20 23-54 24-275 9zm194-181c-8-126-13-138-62-139-20 0-136-6-257-13s-223-11-227-9c-5 3-8 30-9 61 0 31-4 80-8 108l-7 52 40 6c23 3 127 10 231 16 105 6 201 12 215 14s40 4 58 5l33 1zm220-505c3-21 6-73 6-115 0-93 0-93-139-84-88 7-438-6-573-20l-57-6v115 116l52 5c29 3 178 9 332 14s301 9 326 10c46 2 46 2 53-35z"/>
  </g>
</svg>
