<?xml version="1.0"?>
<svg xmlns="http://www.w3.org/2000/svg" height="200pt" preserveAspectRatio="xMidYMid meet" viewBox="0 0 200 200" width="200pt">
  <g transform="matrix(.1 0 0 -.1 0 200)">
    <path d="m402 1888c-7-7-12-21-12-32 0-38-57-140-134-241-83-108-92-138-43-143 22-3 37 6 71 40 23 24 51 54 61 68 17 22 33 28 111 38 136 18 124 25 124-77 0-107 10-141 43-141 41 0 47 17 47 131 0 124-4 119 104 119 59 0 76 4 90 19 22 24 14 57-15 66-24 8-159-1-309-20-57-8-106-12-108-10s3 17 12 33c24 46 36 111 25 138-9 26-46 33-67 12z"/>
    <path d="m1143 1878c-5-7-15-31-21-53-10-35-38-87-92-172-11-18-12-24-1-37 19-23 36-20 73 12 28 25 129 62 166 62 9 0 12-37 12-133 0-141 5-157 47-157 36 0 43 30 43 173v135l78 6c42 4 89 9 105 12 35 7 52 36 36 65-11 21-16 21-98 15-47-3-130-13-184-22s-100-14-103-12c-2 2 1 21 7 41 7 25 7 43-1 57-12 22-52 27-67 8z"/>
    <path d="m609 1318c-8-14-9-47-5-98l6-76-108-17c-160-25-210-42-218-73-4-17-1-31 9-42 15-14 22-14 89 1 102 24 227 42 234 34 11-11-35-190-67-257-44-94-109-180-237-315-63-66-130-139-150-163-32-39-34-44-20-59 32-32 82 0 212 134 134 138 213 238 255 321l28 54 12-203c7-112 13-255 14-318 2-102 4-115 22-127s24-11 44 2l23 17-5 231c-3 127-10 319-16 425-6 107-9 196-7 198 1 2 31-33 67-77 65-82 97-102 124-80 28 23 15 49-70 150-47 55-80 100-73 101 114 6 191 18 205 32 21 20 10 63-18 70-21 6-153-5-221-18-35-7-35-6-41 32-4 21-7 53-7 71s-5 42-10 53c-15 26-56 25-71-3z"/>
    <path d="m1455 1293c-22-2-89-11-150-20-60-9-131-16-156-15-31 1-51-3-59-14-10-12-12-84-6-337 14-635 21-776 38-793 15-15 27-15 145 0 143 18 358 22 368 6s54-11 63 8c5 9 12 143 16 297 3 154 13 359 21 455s18 222 21 280c9 142 10 141-144 138-64-1-135-3-157-5zm212-135c-4-29-9-90-13-135l-7-83h-49c-26 0-132-12-234-26s-187-24-188-23c-2 2-6 63-10 136l-6 132 37 10c34 9 143 24 243 34 19 2 79 5 134 5l99 2zm-33-420c-3-62-7-127-10-144l-4-31-148-6c-81-4-178-11-215-18-38-6-70-9-71-7-2 1-6 64-10 139l-6 136 82 7c46 3 126 13 178 20 52 8 121 14 152 15l57 1zm-19-495c-5-22-10-23-108-23-97 0-262-14-299-26-17-5-18 5-18 120 0 110 2 125 18 129 41 12 126 20 262 26l145 6 3-105c2-58 0-115-3-127z"/>
  </g>
</svg>
