<?xml version="1.0"?>
<svg xmlns="http://www.w3.org/2000/svg" height="200pt" preserveAspectRatio="xMidYMid meet" viewBox="0 0 200 200" width="200pt">
  <g transform="matrix(.1 0 0 -.1 0 200)">
    <path d="m402 1888c-7-7-12-21-12-32 0-38-57-140-134-241-83-108-92-138-43-143 22-3 37 6 71 40 23 24 51 54 61 68 17 22 33 28 111 38 136 18 124 25 124-77 0-107 10-141 43-141 41 0 47 17 47 131 0 124-4 119 104 119 59 0 76 4 90 19 22 24 14 57-15 66-24 8-159-1-309-20-57-8-106-12-108-10s3 17 12 33c24 46 36 111 25 138-9 26-46 33-67 12z"/>
    <path d="m1143 1878c-5-7-15-31-21-53-10-35-38-87-92-172-11-18-12-24-1-37 19-23 36-20 73 12 28 25 129 62 166 62 9 0 12-37 12-133 0-141 5-157 47-157 36 0 43 30 43 173v135l78 6c42 4 89 9 105 12 35 7 52 36 36 65-11 21-16 21-98 15-47-3-130-13-184-22s-100-14-103-12c-2 2 1 21 7 41 7 25 7 43-1 57-12 22-52 27-67 8z"/>
    <path d="m1460 1289c-36-5-107-16-158-25s-104-14-118-11c-15 2-33-2-44-12-19-16-19-25-9-336 6-176 14-444 18-595 3-151 10-281 14-287 11-18 52-16 67 2 13 16 10 290-9 855-5 151-8 276-6 278 11 12 245 44 358 49l138 6-5-34c-3-19-13-101-22-184-15-151-35-280-58-389l-12-58-70 74c-38 41-82 99-98 129-35 64-46 73-65 54-35-35 43-186 158-307 65-69 89-88 111-88 39 0 48 16 56 95 3 39 12 95 19 125 23 96 75 519 75 611 0 52-19 59-153 58-67-1-151-5-187-10z"/>
    <path d="m670 1273c-252-22-310-34-332-64-18-24-19-32-8-105 15-110 23-832 10-907-6-32-13-64-16-72-6-14 29-55 46-55 5 0 36 25 67 56 32 31 112 92 177 134l119 79 79-100c80-100 114-123 143-99 8 7 15 20 15 29 0 15-95 141-275 363-56 69-85 84-113 56-20-20-14-34 39-103 28-36 49-70 47-75s-54-43-115-83l-113-74v111c0 61-3 154-6 207l-7 96 77 12c42 6 131 11 197 11 120 0 121 0 150 29l29 29v215c0 118 3 228 6 245 5 24 1 36-19 56-15 14-30 25-34 25-4-1-78-8-163-16zm120-157v-74l-62-6c-35-3-99-8-143-11s-97-10-117-14c-42-10-38-17-53 100l-6 47 63 7c93 11 216 22 271 24l47 1zm0-251v-85h-77c-43 0-120-5-172-10-52-6-95-9-96-8-2 2-6 37-10 79l-6 77 83 11c46 6 110 12 143 14s77 4 98 5l37 2z"/>
  </g>
</svg>
