<?xml version="1.0"?>
<svg xmlns="http://www.w3.org/2000/svg" height="200pt" preserveAspectRatio="xMidYMid meet" viewBox="0 0 200 200" width="200pt">
  <g transform="matrix(.1 0 0 -.1 0 200)">
    <path d="m402 1888c-7-7-12-21-12-32 0-38-57-140-134-241-83-108-92-138-43-143 22-3 37 6 71 40 23 24 51 54 61 68 17 22 33 28 111 38 136 18 124 25 124-77 0-107 10-141 43-141 41 0 47 17 47 131 0 124-4 119 104 119 59 0 76 4 90 19 22 24 14 57-15 66-24 8-159-1-309-20-57-8-106-12-108-10s3 17 12 33c24 46 36 111 25 138-9 26-46 33-67 12z"/>
    <path d="m1143 1878c-5-7-15-31-21-53-10-35-38-87-92-172-11-18-12-24-1-37 19-23 36-20 73 12 28 25 129 62 166 62 9 0 12-37 12-133 0-141 5-157 47-157 36 0 43 30 43 173v135l78 6c42 4 89 9 105 12 35 7 52 36 36 65-11 21-16 21-98 15-47-3-130-13-184-22s-100-14-103-12c-2 2 1 21 7 41 7 25 7 43-1 57-12 22-52 27-67 8z"/>
    <path d="m1175 1349c-44-5-95-6-113-3-56 9-61-3-55-130 5-99 3-120-17-180-20-61-21-70-7-83 10-11 24-13 42-9 44 11 68 80 73 207l4 106 97 7c53 3 128 6 166 6h70l1-88c0-100 11-128 76-190 44-43 82-54 106-30 7 7 12 39 12 74 0 50-3 63-17 69-12 4-24-1-35-15l-17-21-15 24c-23 34-30 105-16 170 19 94 15 97-143 96-73-1-168-6-212-10z"/>
    <path d="m607 1335c-160-22-208-35-220-62-21-48 26-64 122-42 24 5 47 6 51 2s11-47 14-94l7-86-78-23c-97-28-174-62-191-83-15-18-8-52 11-60 7-3 71 14 143 38 71 24 201 60 289 80s168 41 178 46c21 12 22 52 2 69-13 11-37 8-137-14-66-14-123-25-125-22-5 4-22 120-23 148 0 18 16 22 113 33 64 7 86 29 67 65-13 24-71 25-223 5z"/>
    <path d="m1180 1145c-20-24-7-47 45-87 53-40 85-47 105-23 21 25 3 58-50 93-54 35-81 40-100 17z"/>
    <path d="m906 944c-11-11-16-35-16-79v-64l-57-6c-119-13-396-55-433-65-62-17-87-53-56-79 11-10 42-8 138 8 161 27 351 51 357 46 10-10-118-162-196-233-110-100-177-146-355-244-81-44-149-87-153-96-9-25 25-54 57-48 36 7 251 124 348 189 89 60 256 219 315 300l43 58 6-98c4-54 11-156 16-227 6-71 10-159 10-195 0-71 10-91 45-91 52 0 54 33 29 368-9 118-14 216-11 218 2 3 40-20 83-49 123-85 453-287 510-312 92-42 225-85 259-85 36 0 60 26 49 53-3 8-67 36-142 63-149 53-325 152-612 343l-145 96 155 6c340 14 466 22 478 32 6 5 12 20 12 33 0 45-24 48-275 35-126-7-266-11-310-9l-80 3-5 63c-3 40-10 66-20 72-21 13-26 12-44-6z"/>
  </g>
</svg>
