<?xml version="1.0"?>
<svg xmlns="http://www.w3.org/2000/svg" height="200pt" preserveAspectRatio="xMidYMid meet" viewBox="0 0 200 200" width="200pt">
  <g transform="matrix(.1 0 0 -.1 0 200)">
    <path d="m402 1888c-7-7-12-21-12-32 0-38-57-140-134-241-83-108-92-138-43-143 22-3 37 6 71 40 23 24 51 54 61 68 17 22 33 28 111 38 136 18 124 25 124-77 0-107 10-141 43-141 41 0 47 17 47 131 0 124-4 119 104 119 59 0 76 4 90 19 22 24 14 57-15 66-24 8-159-1-309-20-57-8-106-12-108-10s3 17 12 33c24 46 36 111 25 138-9 26-46 33-67 12z"/>
    <path d="m1143 1878c-5-7-15-31-21-53-10-35-38-87-92-172-11-18-12-24-1-37 19-23 36-20 73 12 28 25 129 62 166 62 9 0 12-37 12-133 0-141 5-157 47-157 36 0 43 30 43 173v135l78 6c42 4 89 9 105 12 35 7 52 36 36 65-11 21-16 21-98 15-47-3-130-13-184-22s-100-14-103-12c-2 2 1 21 7 41 7 25 7 43-1 57-12 22-52 27-67 8z"/>
    <path d="m325 1354c-14-15-16-29-11-83 16-169 27-494 25-777-2-170 1-316 5-322 4-7 18-12 31-12 48 0 50 18 48 401l-2 357 31 6c17 3 97 11 177 17 158 12 181 21 179 68-1 14 1 96 6 182 7 136 6 157-8 169-13 10-52 11-194 6-97-5-190-8-207-9-16 0-37 3-46 7-10 4-23 1-34-10zm405-104c0-46 11-42-189-60-137-13-141-12-141 47v31l78 7c42 3 88 7 102 9s53 4 88 5l62 1zm-10-170c0-24-5-42-12-44s-74-9-147-15c-147-12-151-11-151 41 0 31 10 34 155 47 166 15 155 17 155-29z"/>
    <path d="m1405 1359c-55-4-144-11-198-15-125-8-131-15-117-125 5-41 10-108 10-150 0-81 19-146 47-156 13-5 141 5 414 31l36 4 6-226c4-124 7-284 7-355v-129l-27 18c-71 47-179 104-193 102-9-2-15-14-15-28 0-24 60-75 217-186 51-36 84-28 97 24 12 45 10 1171-2 1190-9 14-119 14-282 1zm205-122v-44l-210-13c-116-7-212-11-214-9s-6 23-10 47l-6 42 82 1c46 1 117 5 158 9s103 7 138 8l62 2zm0-167c0-17-6-32-12-34-7-2-74-9-148-15-74-7-163-14-197-18l-63-6v42c0 32 4 41 18 42 81 6 261 16 325 17l77 2z"/>
    <path d="m950 795c-58-8-126-14-152-14-35-1-54-7-70-23-21-21-21-25-15-238 7-229 15-271 50-287 30-13 427 5 446 20 11 10 13 53 7 257-5 153-12 254-19 270-11 23-18 25-77 27-36 0-112-5-170-12zm170-145c0-38-1-70-2-71-15-3-314-36-316-34-2 1-6 34-9 73l-6 69 104 12c57 7 113 13 124 15s39 4 63 5l42 1zm10-244v-84l-157-4c-87-2-159-4-159-4-1 1-4 32-6 69-4 62-2 68 17 73 26 6 231 31 273 33l32 1z"/>
  </g>
</svg>
