<?xml version="1.0"?>
<svg xmlns="http://www.w3.org/2000/svg" height="200pt" preserveAspectRatio="xMidYMid meet" viewBox="0 0 200 200" width="200pt">
  <g transform="matrix(.1 0 0 -.1 0 200)">
    <path d="m947 1842c-15-16-17-52-17-295v-276l-32-5c-18-3-116-7-218-10-172-5-364-25-389-40-16-10-13-52 4-66 11-10 47-9 172 4 196 20 460 22 446 4-6-7-16-30-22-50-31-94-216-364-368-535-82-91-329-309-405-356-57-35-60-60-9-65 138-14 556 389 775 747l51 84 5-442c5-424 6-443 24-457 24-17 28-17 52 0 18 14 19 28 16 423l-3 408 43-80c150-280 440-539 701-626 106-36 170-37 175-2 4 26-6 31-117 72-224 82-463 273-605 485-71 105-180 324-192 385l-6 28 121 6c67 4 232 10 368 13 137 4 254 11 261 17 18 14 15 41-8 62-19 17-38 18-288 12-147-4-311-10-364-13l-97-7-3 282c-3 266-4 283-22 297-25 18-30 18-49-4z"/>
    <path d="m1457 1674c-40-42-109-108-154-146-84-70-98-92-64-103 47-15 200 88 287 194 54 65 65 96 42 119-22 22-39 12-111-64z"/>
    <path d="m442 1618c-25-25-12-54 51-115 84-82 185-155 211-151 14 2 22 12 24 29 3 23-10 38-85 102-48 41-104 91-122 111-36 38-59 44-79 24z"/>
  </g>
</svg>
