<?xml version="1.0"?>
<svg xmlns="http://www.w3.org/2000/svg" height="200pt" preserveAspectRatio="xMidYMid meet" viewBox="0 0 200 200" width="200pt">
  <g transform="matrix(.1 0 0 -.1 0 200)">
    <path d="m469 1823c-11-13-14-68-14-257v-240l-169-28c-94-16-176-34-183-40-16-13-17-40-1-56 17-17 63-15 201 8 66 12 126 20 135 18 15-3-96-231-247-505-82-149-94-196-49-201 35-4 54 23 166 233 50 94 104 194 120 224l29 53 6-393c4-217 11-409 15-428 9-42 34-61 60-45 20 13 19-37 9 569l-7 450 99-103c86-90 103-103 128-100 22 2 29 9 31 31 3 24-11 43-97 131-56 56-101 105-101 108s51 9 113 13c61 3 120 9 130 11 27 8 40 40 26 65-11 21-15 22-133 16-66-4-138-10-158-13l-38-7-2 169c-2 93-3 201-3 239 0 39-4 76-8 83-11 17-42 15-58-5z"/>
    <path d="m709 1764c-15-18-99-213-99-230 0-20 28-36 50-29 20 6 101 159 115 216 11 45-38 77-66 43z"/>
    <path d="m1142 1768c-5-7-19-60-32-117-33-160-81-281-166-422-39-66-43-95-13-104 36-12 71 26 131 141 67 129 111 254 134 387 14 79 15 99 4 111-15 19-44 21-58 4z"/>
    <path d="m1355 1756c-39-28 2-149 112-326 113-182 270-350 327-350 25 0 46 17 46 38 0 8-45 58-100 112-129 127-261 325-311 465-21 60-46 81-74 61z"/>
    <path d="m192 1678c-7-7-12-21-12-31 0-28 53-117 94-156 30-29 38-32 50-21 22 17 12 50-37 135-52 88-68 100-95 73z"/>
    <path d="m1315 1115c-93-7-196-16-229-20-68-9-103-34-87-64 14-26 29-30 86-20 28 4 67 8 88 8l37 1v-72c0-145-79-415-165-571-58-103-62-116-43-135 21-21 56-14 76 15 112 160 222 508 222 702v68l83 6c45 4 101 7 124 7h41l8-67c8-77-8-241-37-388-22-110-72-272-93-301-14-18-16-18-70 5-61 25-86 23-86-9 0-28 29-54 100-90s86-32 125 34c62 106 123 342 144 560 13 129 3 291-18 316-23 27-103 31-306 15z"/>
  </g>
</svg>
