<?xml version="1.0"?>
<svg xmlns="http://www.w3.org/2000/svg" height="200pt" preserveAspectRatio="xMidYMid meet" viewBox="0 0 200 200" width="200pt">
  <g transform="matrix(.1 0 0 -.1 0 200)">
    <path d="m888 1859c-9-5-24-33-34-62-30-91-84-209-130-284-24-41-44-83-44-95 0-30 56-78 138-117l72-35-53-56c-80-85-189-210-223-255-44-57-56-83-49-106 10-30 43-38 100-23 77 21 287 65 291 61 9-8 26-263 33-482 5-132 12-248 16-257 11-27 45-33 66-12 17 18 17 33 8 274-5 140-15 308-22 374-9 82-10 119-3 121 26 8 254 45 276 45 14 0 37 6 51 14 25 13 27 11 79-51 30-35 62-69 72-74 27-15 58 6 58 39 0 22-30 59-136 172-75 80-142 149-150 153-21 12-54-10-54-36 0-12 21-46 46-75 45-52 45-52 19-52-27 0-450-72-527-90-24-5-49-10-56-10s36 54 95 121c183 205 213 240 252 298 70 103 141 262 141 316 0 29-24 48-49 40-13-4-30-32-51-87-31-81-100-207-145-262l-23-29-74 36c-108 53-104 44-60 120 51 86 125 272 126 316 1 39-28 66-56 50z"/>
    <path d="m1302 571c-8-5-12-21-10-37 3-28 9-31 178-92 96-34 195-67 219-74 41-10 46-10 63 12 34 43 11 57-213 132-216 72-217 72-237 59z"/>
    <path d="m601 388c-76-78-101-110-101-130 0-29 26-44 60-33 11 3 61 51 111 106 74 82 90 105 87 127-2 21-9 28-30 30-22 3-43-13-127-100z"/>
  </g>
</svg>
