<?xml version="1.0"?>
<svg xmlns="http://www.w3.org/2000/svg" height="200pt" preserveAspectRatio="xMidYMid meet" viewBox="0 0 200 200" width="200pt">
  <g transform="matrix(.1 0 0 -.1 0 200)">
    <path d="m1094 1909c-102-84-298-187-431-224-77-22-112-48-97-72 17-26 102-22 193 10 41 15 77 25 78 23 2-2-14-41-35-87-34-73-73-131-152-229-29-36-17-58 44-85 28-12 86-49 128-80l77-58-38-46c-101-119-284-283-395-353-49-30-61-51-46-79 15-27 74-25 297 8 101 15 184 25 187 22 6-6 26-401 26-506 0-91 10-123 39-123 24 0 37 17 44 58 7 34-8 419-19 524l-6 56 43 6c24 3 140 7 256 10l213 4 45-86c65-124 80-140 118-120 30 15 19 51-56 194-175 332-202 371-237 329-18-22-6-68 40-148 22-38 38-72 35-75-3-4-117-9-253-13-167-5-294-14-391-29-79-11-148-19-154-17-5 1 26 33 70 69 111 91 210 203 336 379 112 157 128 189 106 215-25 31-52 10-131-102l-79-111-37 34c-20 19-63 51-94 70-32 20-58 37-58 39s15 25 34 51c43 60 122 221 142 289 14 47 19 53 102 107 143 93 184 141 150 175-21 21-44 13-94-29z"/>
    <path d="m1371 426c-26-31-7-50 114-111 66-33 148-77 181-97 67-41 85-45 104-24 35 43-13 83-226 187-118 58-155 67-173 45z"/>
    <path d="m537 353c-40-38-112-101-160-141s-87-79-87-87c0-30 13-45 39-45 45 0 341 258 341 297 0 16-28 43-45 43-8 0-47-30-88-67z"/>
  </g>
</svg>
