<?xml version="1.0"?>
<svg xmlns="http://www.w3.org/2000/svg" height="200pt" preserveAspectRatio="xMidYMid meet" viewBox="0 0 200 200" width="200pt">
  <g transform="matrix(.1 0 0 -.1 0 200)">
    <path d="m382 1798c-21-26-192-380-192-398 0-23 39-54 96-76 24-9 44-20 44-25 0-4-38-85-84-178-86-174-109-248-86-276 18-22 45-19 145 15 49 16 89 29 90 27 1-1 7-163 13-360 9-316 13-361 28-378 22-24 36-24 59 1 18 20 18 32 5 323-8 166-15 333-15 372v70l78 16 78 17 24-48c29-58 60-73 86-41 16 20 16 25 3 64-8 23-43 89-77 147-56 94-66 105-91 105-16 0-34-8-40-17-10-16-6-29 41-119 2-3-32-13-74-23-43-10-113-29-156-43-44-13-81-22-84-20-2 3 61 138 142 302 149 302 157 327 114 340-31 10-62-25-110-121-22-46-43-84-45-84-11 0-74 29-74 34 0 3 36 81 80 173 68 141 79 172 71 190-12 25-52 31-69 11z"/>
    <path d="m1216 1741c-268-38-331-49-340-64-8-12-8-22 0-34 14-23 74-28 179-14 44 6 179 25 300 41 121 17 223 30 227 30s-2-19-12-43c-11-24-39-111-62-193l-43-149-35-3c-80-5-516-65-530-72-24-12-28-50-29-285-1-279 19-508 54-608 32-92 50-116 111-147 49-25 50-25 329-25 288 0 437 13 483 41 19 13 22 23 22 79 0 58-41 340-56 388-4 11-13 17-27 15-33-5-38-49-22-196 20-178 19-209-2-216-40-12-248-26-388-25-192 0-300 11-324 33-28 25-61 137-72 245-14 137-28 514-22 575l5 52 202 27c110 15 219 27 241 28 22 0 62 8 90 17l49 18 47 166c26 91 64 202 84 246 31 66 35 83 26 101-10 19-20 21-84 20-40-1-220-22-401-48z"/>
    <path d="m616 554c-9-8-16-22-16-29 0-21 140-224 162-236 25-13 55-3 63 22 5 15-11 47-61 120-100 146-114 158-148 123z"/>
    <path d="m253 508c-5-7-27-66-48-131-29-90-36-123-28-135 15-24 41-27 64-6 27 25 95 242 82 263-13 20-57 26-70 9z"/>
  </g>
</svg>
