<?xml version="1.0"?>
<svg xmlns="http://www.w3.org/2000/svg" height="200pt" preserveAspectRatio="xMidYMid meet" viewBox="0 0 200 200" width="200pt">
  <g transform="matrix(.1 0 0 -.1 0 200)">
    <path d="m382 1798c-21-26-192-380-192-398 0-23 39-54 96-76 24-9 44-20 44-25 0-4-38-85-84-178-86-174-109-248-86-276 18-22 45-19 145 15 49 16 89 29 90 27 1-1 7-163 13-360 9-316 13-361 28-378 22-24 36-24 59 1 18 20 18 32 5 323-8 166-15 333-15 372v70l78 16 78 17 24-48c29-58 60-73 86-41 16 20 16 25 3 64-8 23-43 89-77 147-56 94-66 105-91 105-16 0-34-8-40-17-10-16-6-29 41-119 2-3-32-13-74-23-43-10-113-29-156-43-44-13-81-22-84-20-2 3 61 138 142 302 149 302 157 327 114 340-31 10-62-25-110-121-22-46-43-84-45-84-11 0-74 29-74 34 0 3 36 81 80 173 68 141 79 172 71 190-12 25-52 31-69 11z"/>
    <path d="m953 1728c-6-7-13-63-17-125-12-210-46-350-111-462-42-71-43-105-4-109 20-2 34 5 54 30 34 40 91 159 100 210 7 35 11 39 59 53 28 9 116 27 196 41 119 21 181 26 345 27l200 2 3-70c4-87-14-361-33-509-17-132-72-337-114-431l-30-66-44 26c-39 22-46 23-57 10-10-12-8-21 9-49 23-36 85-96 101-96 39 0 76 62 133 227 70 199 98 371 118 702 12 214 6 285-28 319l-24 24-237-5c-236-4-363-19-517-61l-51-13 7 56c4 31 8 102 8 158 1 91-1 103-18 113-26 13-36 13-48-2z"/>
    <path d="m1186 944c-21-20-20-25 7-65 89-131 130-179 152-179 35 0 51 25 36 57-17 37-131 182-152 194-23 12-25 12-43-7z"/>
    <path d="m616 554c-9-8-16-22-16-29 0-21 140-224 162-236 25-13 55-3 63 22 5 15-11 47-61 120-100 146-114 158-148 123z"/>
    <path d="m253 508c-5-7-27-66-48-131-29-90-36-123-28-135 15-24 41-27 64-6 27 25 95 242 82 263-13 20-57 26-70 9z"/>
  </g>
</svg>
