<?xml version="1.0"?>
<svg xmlns="http://www.w3.org/2000/svg" height="200pt" preserveAspectRatio="xMidYMid meet" viewBox="0 0 200 200" width="200pt">
  <g transform="matrix(.1 0 0 -.1 0 200)">
    <path d="m1308 1823c-11-13-17-51-22-128-5-99-34-267-48-281-11-11-205-26-270-21-91 8-94 1-74-136 30-195 38-324 45-702l6-380 26-3c53-6 54 3 53 357-1 313-12 521-39 699l-12 82h42c23 0 77 3 120 7l77 6-7-24c-22-69-111-264-132-290-32-38-24-69 18-69 53 0 93 63 180 289 9 23 11 22 41-25 33-53 147-191 196-237 39-37 76-34 80 6 3 22-10 43-71 110-77 84-177 222-177 242 0 8 53 16 163 24 89 7 176 15 194 18 24 4 32 1 36-14 6-20 21-264 37-603 6-118 15-263 22-322 6-60 8-111 4-115-8-8-90 30-198 94-78 45-98 48-98 14 0-39 95-113 229-180 138-70 156-53 148 143-30 696-52 1020-73 1054-17 26-24 26-169 8-60-8-154-17-208-21-94-6-98-5-93 13 18 56 36 199 36 284 0 86-2 99-19 108-25 13-25 13-43-7z"/>
    <path d="m382 1798c-21-26-192-380-192-398 0-23 39-54 96-76 24-9 44-20 44-25 0-4-38-85-84-178-86-174-109-248-86-276 18-22 45-19 145 15 49 16 89 29 90 27 1-1 7-163 13-360 9-316 13-361 28-378 22-24 36-24 59 1 18 20 18 32 5 323-8 166-15 333-15 372v70l78 16 78 17 24-48c29-58 60-73 86-41 16 20 16 25 3 64-8 23-43 89-77 147-56 94-66 105-91 105-16 0-34-8-40-17-10-16-6-29 41-119 2-3-32-13-74-23-43-10-113-29-156-43-44-13-81-22-84-20-2 3 61 138 142 302 149 302 157 327 114 340-31 10-62-25-110-121-22-46-43-84-45-84-11 0-74 29-74 34 0 3 36 81 80 173 68 141 79 172 71 190-12 25-52 31-69 11z"/>
    <path d="m616 554c-9-8-16-22-16-29 0-21 140-224 162-236 25-13 55-3 63 22 5 15-11 47-61 120-100 146-114 158-148 123z"/>
    <path d="m253 508c-5-7-27-66-48-131-29-90-36-123-28-135 15-24 41-27 64-6 27 25 95 242 82 263-13 20-57 26-70 9z"/>
  </g>
</svg>
