<?xml version="1.0"?>
<svg xmlns="http://www.w3.org/2000/svg" height="200pt" preserveAspectRatio="xMidYMid meet" viewBox="0 0 200 200" width="200pt">
  <g transform="matrix(.1 0 0 -.1 0 200)">
    <path d="m1222 1878c-8-8-12-53-12-139v-126l-126-93c-99-74-124-97-122-114 2-14 11-22 30-24 31-4 71 15 148 70l55 39 3-277c1-152 1-279-2-281-2-2-41-13-87-24s-92-22-101-25c-17-5-18 6-18 133 0 143-5 163-42 163-31 0-38-35-38-204 0-140 2-167 17-181 18-18 15-19 158 19 55 14 103 26 108 26 4 0 7-37 7-82 0-87 30-311 54-412 15-62 37-98 77-128 34-24 161-38 361-38 208 0 198-8 198 165 0 145-12 198-43 193-29-4-35-32-36-162l-1-109-204 5c-249 5-247 4-270 110-28 129-46 275-46 376v98l128 22c70 12 152 25 182 28 56 7 120 36 121 57 4 87-5 385-12 399-12 22-55 24-63 2-3-9-6-96-6-195v-179h-42c-24 0-103-11-175-24l-133-23v312 312l66 53c76 62 172 176 176 209 2 14-5 28-19 38-21 14-26 11-122-89l-100-103-1 96c0 96-8 119-40 119-9 0-21-5-28-12z"/>
    <path d="m382 1798c-21-26-192-380-192-398 0-23 39-54 96-76 24-9 44-20 44-25 0-4-38-85-84-178-86-174-109-248-86-276 18-22 45-19 145 15 49 16 89 29 90 27 1-1 7-163 13-360 9-316 13-361 28-378 22-24 36-24 59 1 18 20 18 32 5 323-8 166-15 333-15 372v70l78 16 78 17 24-48c29-58 60-73 86-41 16 20 16 25 3 64-8 23-43 89-77 147-56 94-66 105-91 105-16 0-34-8-40-17-10-16-6-29 41-119 2-3-32-13-74-23-43-10-113-29-156-43-44-13-81-22-84-20-2 3 61 138 142 302 149 302 157 327 114 340-31 10-62-25-110-121-22-46-43-84-45-84-11 0-74 29-74 34 0 3 36 81 80 173 68 141 79 172 71 190-12 25-52 31-69 11z"/>
    <path d="m616 554c-9-8-16-22-16-29 0-21 140-224 162-236 25-13 55-3 63 22 5 15-11 47-61 120-100 146-114 158-148 123z"/>
    <path d="m253 508c-5-7-27-66-48-131-29-90-36-123-28-135 15-24 41-27 64-6 27 25 95 242 82 263-13 20-57 26-70 9z"/>
  </g>
</svg>
