<?xml version="1.0"?>
<svg xmlns="http://www.w3.org/2000/svg" height="200pt" preserveAspectRatio="xMidYMid meet" viewBox="0 0 200 200" width="200pt">
  <g transform="matrix(.1 0 0 -.1 0 200)">
    <path d="m1380 1794c-36-36-133-117-217-180-83-63-161-126-172-140-17-22-21-41-21-98 0-39-7-316-17-615-17-533-17-543 2-557 10-8 23-14 29-14 17 0 135 133 157 177 43 88 1 110-68 37l-46-48 6 75c4 41 9 177 13 302l7 229 26 10c14 5 63 18 108 28l82 18 6-57c16-160 38-301 61-379 45-158 170-381 218-390 22-5 186 105 266 176 69 62 113 123 104 145-9 25-28 21-76-17-24-19-95-71-158-116l-115-81-19 23c-32 39-114 219-135 298-21 77-44 221-56 346l-7 71 94 17c51 9 138 23 193 31 72 10 103 18 112 31 17 24 16 31-7 54s-11 23-245-15c-77-13-143-21-147-17s-10 101-14 216c-7 188-9 211-27 229-19 19-19 19 19 50 55 43 152 146 159 168 8 24-11 59-33 59-10 0-47-30-82-66zm-124-372c0-81 4-184 7-229l7-83-27-6c-16-3-63-14-107-25-43-11-79-18-81-17-1 2 1 87 4 190l6 188 95 64c52 36 95 65 95 65 0 1 0-65 1-147z"/>
    <path d="m382 1798c-21-26-192-380-192-398 0-23 39-54 96-76 24-9 44-20 44-25 0-4-38-85-84-178-86-174-109-248-86-276 18-22 45-19 145 15 49 16 89 29 90 27 1-1 7-163 13-360 9-316 13-361 28-378 22-24 36-24 59 1 18 20 18 32 5 323-8 166-15 333-15 372v70l78 16 78 17 24-48c29-58 60-73 86-41 16 20 16 25 3 64-8 23-43 89-77 147-56 94-66 105-91 105-16 0-34-8-40-17-10-16-6-29 41-119 2-3-32-13-74-23-43-10-113-29-156-43-44-13-81-22-84-20-2 3 61 138 142 302 149 302 157 327 114 340-31 10-62-25-110-121-22-46-43-84-45-84-11 0-74 29-74 34 0 3 36 81 80 173 68 141 79 172 71 190-12 25-52 31-69 11z"/>
    <path d="m616 554c-9-8-16-22-16-29 0-21 140-224 162-236 25-13 55-3 63 22 5 15-11 47-61 120-100 146-114 158-148 123z"/>
    <path d="m253 508c-5-7-27-66-48-131-29-90-36-123-28-135 15-24 41-27 64-6 27 25 95 242 82 263-13 20-57 26-70 9z"/>
  </g>
</svg>
