<?xml version="1.0"?>
<svg xmlns="http://www.w3.org/2000/svg" height="200pt" preserveAspectRatio="xMidYMid meet" viewBox="0 0 200 200" width="200pt">
  <g transform="matrix(.1 0 0 -.1 0 200)">
    <path d="m382 1798c-21-26-192-380-192-398 0-23 39-54 96-76 24-9 44-20 44-25 0-4-38-85-84-178-86-174-109-248-86-276 18-22 45-19 145 15 49 16 89 29 90 27 1-1 7-163 13-360 9-316 13-361 28-378 22-24 36-24 59 1 18 20 18 32 5 323-8 166-15 333-15 372v70l78 16 78 17 24-48c29-58 60-73 86-41 16 20 16 25 3 64-8 23-43 89-77 147-56 94-66 105-91 105-16 0-34-8-40-17-10-16-6-29 41-119 2-3-32-13-74-23-43-10-113-29-156-43-44-13-81-22-84-20-2 3 61 138 142 302 149 302 157 327 114 340-31 10-62-25-110-121-22-46-43-84-45-84-11 0-74 29-74 34 0 3 36 81 80 173 68 141 79 172 71 190-12 25-52 31-69 11z"/>
    <path d="m1330 1693c-259-26-497-63-511-79-16-19-1-53 27-60 14-4 59-1 101 5s78 9 81 7c24-25 65-409 57-530-21-302-71-534-146-683-27-54-49-103-49-110 0-20 39-26 65-9 76 50 153 247 187 481 6 47 15 85 20 85 4 0 15-14 23-31 9-17 63-89 121-160 57-71 104-133 104-137 0-18-120-189-159-227-44-42-53-80-22-90 48-15 115 40 194 160 32 49 60 92 62 94s44-31 92-74c165-145 333-239 367-205 17 17-3 39-95 107-97 73-228 178-281 228l-37 35 39 117c47 144 90 343 90 421-1 71-16 141-37 164-9 10-33 23-53 29l-37 11 20 62c20 63 35 262 23 310-3 13-18 38-32 55-25 30-28 31-102 29-43 0-93-3-112-5zm158-168c3-92-17-195-53-273-45-98-25-134 63-112 29 7 48 8 55 1 22-22 19-144-7-261-23-109-82-310-91-310-13 0-200 250-238 317l-45 82 5 79c6 83-18 336-43 456-8 38-13 71-11 73 4 3 123 18 212 26 22 2 65 4 95 3l55-1z"/>
    <path d="m616 554c-9-8-16-22-16-29 0-21 140-224 162-236 25-13 55-3 63 22 5 15-11 47-61 120-100 146-114 158-148 123z"/>
    <path d="m253 508c-5-7-27-66-48-131-29-90-36-123-28-135 15-24 41-27 64-6 27 25 95 242 82 263-13 20-57 26-70 9z"/>
  </g>
</svg>
