<?xml version="1.0"?>
<svg xmlns="http://www.w3.org/2000/svg" height="200pt" preserveAspectRatio="xMidYMid meet" viewBox="0 0 200 200" width="200pt">
  <g transform="matrix(.1 0 0 -.1 0 200)">
    <path d="m880 1911c-5-11-10-49-10-84 0-79 13-73-203-83-116-5-162-11-173-21-18-18-18-24 0-49 13-17 26-19 108-17 51 1 135 5 186 9l92 6v-59-60l-110-15c-61-9-117-22-125-28-22-19-19-57 6-65 18-6 150 7 217 21 21 4 22 1 22-54v-58l-162-17c-333-36-504-59-526-73-12-8-22-23-22-34 0-37 29-40 196-20 491 61 512 62 969 67 243 3 448 9 458 14 21 12 22 52 2 69-11 9-113 11-420 8l-405-3v56 56l53 7c28 3 79 6 112 6 91 0 138 35 105 75-14 17-99 19-212 6l-68-7v56 57l107 6c58 4 144 7 190 7 95 0 123 10 123 44 0 46-16 49-213 42-100-4-190-10-199-12-16-5-18 3-18 61 0 78-12 105-45 105-14 0-29-8-35-19z"/>
    <path d="m823 1121c-26-38-90-106-140-152-100-88-110-109-70-147 20-19 115-66 186-93 24-10 24-10-35-70-32-34-96-92-141-131-81-67-96-91-71-116 17-17 43-15 161 13 58 13 130 28 161 31 66 8 60 25 76-210 6-94 16-178 21-188 13-24 56-23 69 2 8 14 6 73-6 210-9 105-13 194-10 198 4 3 80 8 169 12l162 5 41-42c22-24 46-43 52-43 15 0 52 36 52 50 0 6-57 71-127 146-107 114-130 135-152 132-20-2-27-9-29-31-3-22 6-39 40-75l43-47-139-7c-136-7-297-23-346-35-20-5-11 8 45 68 162 172 265 306 265 347 0 26-25 45-48 38-11-4-35-30-54-59-20-29-55-74-78-100-38-43-44-46-59-33-9 8-45 26-81 41s-66 28-68 30c-1 1 30 33 69 71 78 75 149 174 149 209 0 25-18 45-41 45-10 0-38-29-66-69z"/>
    <path d="m1272 328c-20-20-14-54 11-65 13-6 100-34 193-61 302-90 326-94 340-50 10 32-23 55-111 76-44 11-152 40-239 66-176 51-177 51-194 34z"/>
    <path d="m542 234c-127-78-157-109-132-139 21-26 48-17 152 48 118 73 148 99 148 126 0 16-25 41-42 41-2 0-59-34-126-76z"/>
  </g>
</svg>
