<?xml version="1.0"?>
<svg xmlns="http://www.w3.org/2000/svg" height="200pt" preserveAspectRatio="xMidYMid meet" viewBox="0 0 200 200" width="200pt">
  <g transform="matrix(.1 0 0 -.1 0 200)">
    <path d="m382 1798c-21-26-192-380-192-398 0-23 39-54 96-76 24-9 44-20 44-25 0-4-38-85-84-178-86-174-109-248-86-276 18-22 45-19 145 15 49 16 89 29 90 27 1-1 7-163 13-360 9-316 13-361 28-378 22-24 36-24 59 1 18 20 18 32 5 323-8 166-15 333-15 372v70l78 16 78 17 24-48c29-58 60-73 86-41 16 20 16 25 3 64-8 23-43 89-77 147-56 94-66 105-91 105-16 0-34-8-40-17-10-16-6-29 41-119 2-3-32-13-74-23-43-10-113-29-156-43-44-13-81-22-84-20-2 3 61 138 142 302 149 302 157 327 114 340-31 10-62-25-110-121-22-46-43-84-45-84-11 0-74 29-74 34 0 3 36 81 80 173 68 141 79 172 71 190-12 25-52 31-69 11z"/>
    <path d="m1320 1550c-215-10-307-24-338-53l-24-22 6-519c4-398 8-522 18-534 11-13 38-14 193-8 99 3 267 9 373 13 186 6 194 7 208 28 21 32 17 1063-5 1088-15 19-112 20-431 7zm360-274v-195l-139-3-138-3-7 89c-3 49-6 135-6 192v103l43 4c23 2 88 4 145 5l102 2zm-380 96c0-49 3-136 6-194l7-104-129-11c-71-6-130-10-130-9-1 0-5 87-8 192l-7 192 73 10c40 5 99 10 131 11l57 1zm377-484c-4-62-7-170-7-240v-128h-142-141l6 98c4 53 7 159 7 234v137l128 4c70 1 133 4 141 5 12 2 13-17 8-110zm-372-140c-4-128-8-234-9-236-2-1-53-5-113-9l-111-6-6 94c-3 52-7 157-8 234l-3 140 55 6c30 3 88 6 129 7l74 2z"/>
    <path d="m616 554c-9-8-16-22-16-29 0-21 140-224 162-236 25-13 55-3 63 22 5 15-11 47-61 120-100 146-114 158-148 123z"/>
    <path d="m253 508c-5-7-27-66-48-131-29-90-36-123-28-135 15-24 41-27 64-6 27 25 95 242 82 263-13 20-57 26-70 9z"/>
  </g>
</svg>
