<?xml version="1.0"?>
<svg xmlns="http://www.w3.org/2000/svg" height="200pt" preserveAspectRatio="xMidYMid meet" viewBox="0 0 200 200" width="200pt">
  <g transform="matrix(.1 0 0 -.1 0 200)">
    <path d="m376 1788c-8-13-54-103-102-200-106-212-106-218-6-257 34-13 62-28 62-32s-36-79-79-166c-85-169-108-234-98-275 9-35 40-41 96-19 25 11 69 26 97 34l51 15-1-81c-1-106 13-549 20-604 8-65 44-91 78-57 19 18 21 118 6 379-5 94-10 219-12 280l-3 110 77 16 78 17 27-52c22-40 34-52 55-54 22-3 30 2 39 21 14 30-11 89-91 223-58 95-77 110-108 88-29-20-28-46 3-98l25-43-60-12c-33-7-104-25-157-41s-99-28-100-26c-2 2 62 136 143 300 80 163 144 303 142 312s-11 22-20 27c-32 21-61-6-112-104-27-52-50-95-51-97-3-4-75 28-75 33 0 2 36 77 80 166 44 88 80 168 80 178 0 43-60 56-84 19z"/>
    <path d="m1205 1770c-33-4-87-8-120-9-93-2-109-14-117-91-4-36-2-148 3-250 19-363 29-568 39-812 8-228 13-293 27-340 3-14-2-18-24-18-62-1-256-38-270-53-20-20-8-55 23-63 13-3 52-1 86 5 209 36 436 54 764 60 364 6 374 8 374 57 0 35-29 44-148 44h-110l-6 238c-3 130-9 455-12 722-5 421-8 487-21 503-14 15-37 17-222 16-113-1-233-5-266-9zm415-265v-185h-67c-36 0-158-7-270-16-113-8-208-13-211-9-7 7-20 195-21 301l-1 71 113 10c61 5 190 11 285 11l172 2zm0-475v-200h-82c-79 0-255-12-380-26-54-6-57-5-63 18-5 19-24 366-20 375 1 3 401 30 473 32l72 1zm14-327c3-21 6-120 6-220v-183h-57c-31 0-146-7-255-16-110-9-201-14-204-12-5 5-24 310-24 385v52l53 6c94 11 260 22 368 24l106 1z"/>
    <path d="m612 558c-21-21-13-47 40-126 81-122 107-152 132-152 26 0 46 17 46 40 0 17-142 229-163 242-18 11-41 10-55-4z"/>
    <path d="m257 513c-8-10-33-71-53-136-41-128-40-149 9-155 32-4 54 34 91 163 30 105 31 109 10 129-20 21-37 20-57-1z"/>
  </g>
</svg>
