<?xml version="1.0"?>
<svg xmlns="http://www.w3.org/2000/svg" height="200pt" preserveAspectRatio="xMidYMid meet" viewBox="0 0 200 200" width="200pt">
  <g transform="matrix(.1 0 0 -.1 0 200)">
    <path d="m382 1798c-21-26-192-380-192-398 0-23 39-54 96-76 24-9 44-20 44-25 0-4-38-85-84-178-86-174-109-248-86-276 18-22 45-19 145 15 49 16 89 29 90 27 1-1 7-163 13-360 9-316 13-361 28-378 22-24 36-24 59 1 18 20 18 32 5 323-8 166-15 333-15 372v70l78 16 78 17 24-48c29-58 60-73 86-41 16 20 16 25 3 64-8 23-43 89-77 147-56 94-66 105-91 105-16 0-34-8-40-17-10-16-6-29 41-119 2-3-32-13-74-23-43-10-113-29-156-43-44-13-81-22-84-20-2 3 61 138 142 302 149 302 157 327 114 340-31 10-62-25-110-121-22-46-43-84-45-84-11 0-74 29-74 34 0 3 36 81 80 173 68 141 79 172 71 190-12 25-52 31-69 11z"/>
    <path d="m1355 1783c-90-6-449-54-472-63-31-13-29-39 6-86 34-47 154-165 235-231l59-48-49-43c-27-24-101-75-164-115-63-39-118-76-122-81-14-20 12-46 46-46 56 0 207 89 313 184l53 48 84-52c129-77 269-139 391-171 132-35 151-36 166-8 18 35-16 57-142 94-131 39-280 105-380 170l-69 44 63 98c81 126 147 247 147 271 0 41-18 45-165 35zm26-120c-11-21-49-82-84-136l-64-99-64 53c-71 57-179 160-179 169 0 4 71 14 158 24 86 10 164 19 172 21 8 1 30 3 48 4l32 1z"/>
    <path d="m1239 1103c-6-18-8-67-3-134l6-106-58-7c-173-20-215-29-224-46-13-25-3-49 24-56 12-3 60 0 106 5 47 6 101 11 122 11h38v-240-240h-45c-82 0-359-40-382-55-26-17-30-47-9-64 10-8 39-7 112 4 194 29 364 38 619 31 138-3 261-8 275-11 37-9 65 15 56 48-9 39-53 47-308 54l-226 6-4 236c-2 130-2 237-2 239 1 2 75 10 165 18 189 16 196 18 205 46 10 33-29 61-75 54-75-12-293-28-298-22-4 3-9 57-12 118-4 62-10 119-14 126-5 6-19 12-33 12-18 0-27-8-35-27z"/>
    <path d="m616 554c-9-8-16-22-16-29 0-21 140-224 162-236 25-13 55-3 63 22 5 15-11 47-61 120-100 146-114 158-148 123z"/>
    <path d="m253 508c-5-7-27-66-48-131-29-90-36-123-28-135 15-24 41-27 64-6 27 25 95 242 82 263-13 20-57 26-70 9z"/>
  </g>
</svg>
