<?xml version="1.0"?>
<svg xmlns="http://www.w3.org/2000/svg" height="200pt" preserveAspectRatio="xMidYMid meet" viewBox="0 0 200 200" width="200pt">
  <g transform="matrix(.1 0 0 -.1 0 200)">
    <path d="m1240 1895c-10-12-11-42-5-128 5-61 9-132 9-156l1-45-180-22c-99-13-187-23-196-23-8-1-23-7-34-14-22-17-14-63 13-71 9-3 105 5 212 19 107 13 197 22 199 19 3-2 7-91 9-198l5-193-29-6c-16-3-74-11-129-18s-106-17-112-22c-20-15-15-45 10-62 22-14 38-13 178 5 85 12 219 28 299 36 79 8 152 17 162 20 37 11 33 70-6 79-11 3-80-1-152-8l-131-12-6 195c-3 107-4 196-2 198s96 7 210 12c226 9 244 14 231 63-3 14-12 27-20 30s-108 2-222-4c-114-5-209-7-211-5s-11 71-20 152c-8 82-20 155-25 162-14 17-43 15-58-3z"/>
    <path d="m382 1798c-21-26-192-380-192-398 0-23 39-54 96-76 24-9 44-20 44-25 0-4-38-85-84-178-86-174-109-248-86-276 18-22 45-19 145 15 49 16 89 29 90 27 1-1 7-163 13-360 9-316 13-361 28-378 22-24 36-24 59 1 18 20 18 32 5 323-8 166-15 333-15 372v70l78 16 78 17 24-48c29-58 60-73 86-41 16 20 16 25 3 64-8 23-43 89-77 147-56 94-66 105-91 105-16 0-34-8-40-17-10-16-6-29 41-119 2-3-32-13-74-23-43-10-113-29-156-43-44-13-81-22-84-20-2 3 61 138 142 302 149 302 157 327 114 340-31 10-62-25-110-121-22-46-43-84-45-84-11 0-74 29-74 34 0 3 36 81 80 173 68 141 79 172 71 190-12 25-52 31-69 11z"/>
    <path d="m1230 768c-141-6-219-13-227-21-9-9-6-66 17-257 16-135 29-246 30-247 0-1 14-10 32-19 29-15 56-16 258-8 124 5 254 9 290 9s70 3 76 7c7 5 14 71 18 180 4 95 12 208 17 252 15 115 13 116-160 114-75 0-233-5-351-10zm416-125c-3-27-8-109-12-184l-6-136-172-11c-246-17-326-16-326 4 0 9-9 90-21 181-12 90-18 167-15 170 6 6 262 18 454 21l104 2z"/>
    <path d="m616 554c-9-8-16-22-16-29 0-21 140-224 162-236 25-13 55-3 63 22 5 15-11 47-61 120-100 146-114 158-148 123z"/>
    <path d="m253 508c-5-7-27-66-48-131-29-90-36-123-28-135 15-24 41-27 64-6 27 25 95 242 82 263-13 20-57 26-70 9z"/>
  </g>
</svg>
