<?xml version="1.0"?>
<svg xmlns="http://www.w3.org/2000/svg" height="200pt" preserveAspectRatio="xMidYMid meet" viewBox="0 0 200 200" width="200pt">
  <g transform="matrix(.1 0 0 -.1 0 200)">
    <path d="m1250 1888c-11-12-20-28-20-35 0-19-76-168-113-223-72-106-214-240-367-347-94-65-110-96-53-101 68-7 235 108 379 260 83 88 118 137 168 236l37 74 51-69c80-107 171-213 234-274 197-186 419-279 402-168-2 17-19 29-68 48-99 41-184 103-305 225-123 124-275 318-275 353 0 12-9 27-19 33-26 13-27 13-51-12z"/>
    <path d="m382 1798c-21-26-192-380-192-398 0-23 39-54 96-76 24-9 44-20 44-25 0-4-38-85-84-178-86-174-109-248-86-276 18-22 45-19 145 15 49 16 89 29 90 27 1-1 7-163 13-360 9-316 13-361 28-378 22-24 36-24 59 1 18 20 18 32 5 323-8 166-15 333-15 372v70l78 16 78 17 24-48c29-58 60-73 86-41 16 20 16 25 3 64-8 23-43 89-77 147-56 94-66 105-91 105-16 0-34-8-40-17-10-16-6-29 41-119 2-3-32-13-74-23-43-10-113-29-156-43-44-13-81-22-84-20-2 3 61 138 142 302 149 302 157 327 114 340-31 10-62-25-110-121-22-46-43-84-45-84-11 0-74 29-74 34 0 3 36 81 80 173 68 141 79 172 71 190-12 25-52 31-69 11z"/>
    <path d="m1435 1233c-170-24-438-73-450-83-21-18-19-47 5-60 15-8 61-4 182 15 90 14 214 32 277 40 116 15 141 25 141 54 0 38-49 49-155 34z"/>
    <path d="m1550 853c-70-2-480-42-518-49-51-10-51-88 3-359 13-66 26-141 30-167 4-32 12-51 25-58 21-12 199-13 419-3 120 5 157 10 173 23 19 15 21 33 31 276 5 142 10 272 10 288 0 37-26 57-72 54-20-1-65-3-101-5zm74-270c-3-104-7-206-10-229l-5-41-97-6c-53-4-156-7-227-7h-131l-32 163c-18 89-35 183-38 209l-6 46 43 6c167 22 344 39 466 44l42 2z"/>
    <path d="m616 554c-9-8-16-22-16-29 0-21 140-224 162-236 25-13 55-3 63 22 5 15-11 47-61 120-100 146-114 158-148 123z"/>
    <path d="m253 508c-5-7-27-66-48-131-29-90-36-123-28-135 15-24 41-27 64-6 27 25 95 242 82 263-13 20-57 26-70 9z"/>
  </g>
</svg>
