<?xml version="1.0"?>
<svg xmlns="http://www.w3.org/2000/svg" height="200pt" preserveAspectRatio="xMidYMid meet" viewBox="0 0 200 200" width="200pt">
  <g transform="matrix(.1 0 0 -.1 0 200)">
    <path d="m1106 1864c-13-12-16-41-16-154v-138l-82-11c-238-34-297-57-264-105 17-25 24-25 189 3 71 12 133 21 137 19 5-2-29-81-76-177-46-96-84-184-84-197 0-35 29-46 91-34 28 6 53 10 55 10 8 0 3-390-6-460-12-92-83-307-115-352-14-18-32-43-41-56-16-21-16-25-1-39 12-13 23-14 49-7 54 16 92 78 142 233 55 168 72 311 63 548l-6 152 50 10c27 6 54 11 58 11s8-66 8-147c0-82 8-224 17-318 24-253 64-377 132-417 43-25 188-41 314-35 142 7 145 10 135 167-9 154-16 184-42 188-27 4-32-16-40-157l-6-114-136 6c-75 2-149 10-164 16-71 28-113 249-124 653l-5 177 28 7c16 3 44 10 63 14 32 9 36 6 83-45 50-55 81-68 106-43 7 7 12 18 12 26 0 22-209 266-237 277-20 8-28 6-39-10-20-28-18-40 17-80 18-20 30-37 28-39-4-4-344-76-359-76-5 0 20 60 55 133 35 74 67 145 70 160 8 32-13 28 358 62 89 9 121 40 81 80-13 13-30 15-88 10-104-9-255-25-298-31l-36-5-4 136c-3 122-5 138-22 151-25 18-31 18-50-2z"/>
    <path d="m382 1798c-21-26-192-380-192-398 0-23 39-54 96-76 24-9 44-20 44-25 0-4-38-85-84-178-86-174-109-248-86-276 18-22 45-19 145 15 49 16 89 29 90 27 1-1 7-163 13-360 9-316 13-361 28-378 22-24 36-24 59 1 18 20 18 32 5 323-8 166-15 333-15 372v70l78 16 78 17 24-48c29-58 60-73 86-41 16 20 16 25 3 64-8 23-43 89-77 147-56 94-66 105-91 105-16 0-34-8-40-17-10-16-6-29 41-119 2-3-32-13-74-23-43-10-113-29-156-43-44-13-81-22-84-20-2 3 61 138 142 302 149 302 157 327 114 340-31 10-62-25-110-121-22-46-43-84-45-84-11 0-74 29-74 34 0 3 36 81 80 173 68 141 79 172 71 190-12 25-52 31-69 11z"/>
    <path d="m616 554c-9-8-16-22-16-29 0-21 140-224 162-236 25-13 55-3 63 22 5 15-11 47-61 120-100 146-114 158-148 123z"/>
    <path d="m253 508c-5-7-27-66-48-131-29-90-36-123-28-135 15-24 41-27 64-6 27 25 95 242 82 263-13 20-57 26-70 9z"/>
  </g>
</svg>
