<?xml version="1.0"?>
<svg xmlns="http://www.w3.org/2000/svg" height="200pt" preserveAspectRatio="xMidYMid meet" viewBox="0 0 200 200" width="200pt">
  <g transform="matrix(.1 0 0 -.1 0 200)">
    <path d="m1211 1862c-12-17-21-39-21-51 0-53-54-184-121-291-83-135-113-173-205-260-37-36-81-77-96-92-24-23-27-31-18-48 24-45 94-13 202 94 102 100 242 308 285 424l20 54 44-69c108-167 333-348 522-418 58-22 100-10 95 28-2 17-30 36-123 85-152 81-235 143-331 245-60 65-86 104-126 187-28 58-54 112-58 120-13 27-46 23-69-8z"/>
    <path d="m382 1798c-21-26-192-380-192-398 0-23 39-54 96-76 24-9 44-20 44-25 0-4-38-85-84-178-86-174-109-248-86-276 18-22 45-19 145 15 49 16 89 29 90 27 1-1 7-163 13-360 9-316 13-361 28-378 22-24 36-24 59 1 18 20 18 32 5 323-8 166-15 333-15 372v70l78 16 78 17 24-48c29-58 60-73 86-41 16 20 16 25 3 64-8 23-43 89-77 147-56 94-66 105-91 105-16 0-34-8-40-17-10-16-6-29 41-119 2-3-32-13-74-23-43-10-113-29-156-43-44-13-81-22-84-20-2 3 61 138 142 302 149 302 157 327 114 340-31 10-62-25-110-121-22-46-43-84-45-84-11 0-74 29-74 34 0 3 36 81 80 173 68 141 79 172 71 190-12 25-52 31-69 11z"/>
    <path d="m1376 1188c-114-13-276-45-292-59-18-15-18-43 1-59 16-13 32-12 195 14 52 9 143 19 202 22 86 6 111 11 124 25 15 17 15 20 0 44-15 23-22 25-84 24-37-1-102-6-146-11z"/>
    <path d="m1550 904c-85-8-204-21-263-29-142-19-426-82-454-101-26-17-30-46-8-64 18-15 38-12 249 34 93 20 170 35 172 34 6-7-113-206-204-341-104-154-117-180-102-206 17-32 39-32 154-2 141 38 378 87 480 100 46 5 85 16 94 25 14 14 22 9 79-44 76-72 91-80 121-69 48 18 29 49-126 208-152 155-179 173-202 131-13-25-3-47 52-106l39-43-33-5c-134-20-253-42-376-70-78-18-141-30-140-27 2 4 37 58 80 121 42 63 102 162 133 220s62 110 68 116c7 7 101 19 227 29 118 9 218 19 222 22 5 2 13 13 18 23 8 15 6 24-10 40-24 24-45 24-270 4z"/>
    <path d="m616 554c-9-8-16-22-16-29 0-21 140-224 162-236 25-13 55-3 63 22 5 15-11 47-61 120-100 146-114 158-148 123z"/>
    <path d="m253 508c-5-7-27-66-48-131-29-90-36-123-28-135 15-24 41-27 64-6 27 25 95 242 82 263-13 20-57 26-70 9z"/>
  </g>
</svg>
