<?xml version="1.0"?>
<svg xmlns="http://www.w3.org/2000/svg" height="200pt" preserveAspectRatio="xMidYMid meet" viewBox="0 0 200 200" width="200pt">
  <g transform="matrix(.1 0 0 -.1 0 200)">
    <path d="m1465 1849c-16-5-108-20-203-34-128-19-178-22-193-14-32 17-56 1-76-49-32-85-107-184-178-237-50-36-65-53-63-69s11-22 36-24c70-7 178 88 245 215l36 69 123 13c68 7 153 18 191 25 43 8 67 9 67 3 0-22-156-258-227-343-15-17-48-27-173-49-85-15-170-33-188-41-32-13-32-14-27-66 21-228 25-292 30-432 4-139 18-258 55-480 5-32 17-67 26-78 78-85 283-114 646-92 267 16 278 20 278 97-1 82-25 256-37 268-7 7-18 9-26 6-18-7-32-128-25-213 6-65 20-60-182-71-275-15-454-3-547 37-47 20-45 16-63 155-6 50-18 135-26 190-7 55-14 134-14 177v76l48 6c167 21 384 38 559 44 163 6 206 10 218 23 12 12 16 47 19 165 2 82 7 177 11 210 7 55 5 64-14 83-18 18-32 21-113 21-51 0-142-7-203-15-60-8-115-15-122-15s17 41 52 91c36 51 78 115 94 143 54 96 69 178 36 202-21 16-28 16-70 3zm252-513c-3-8-9-80-13-160l-7-145-41-6c-23-3-105-6-184-7l-142-3-5 30c-14 89-26 258-18 265 13 13 218 37 322 39 76 1 92-2 88-13zm-493-143c4-58 9-125 12-148l6-41-145-14-146-15-5 30c-11 64-29 235-25 239s247 50 285 55c7 1 14-37 18-106z"/>
    <path d="m382 1798c-21-26-192-380-192-398 0-23 39-54 96-76 24-9 44-20 44-25 0-4-38-85-84-178-86-174-109-248-86-276 18-22 45-19 145 15 49 16 89 29 90 27 1-1 7-163 13-360 9-316 13-361 28-378 22-24 36-24 59 1 18 20 18 32 5 323-8 166-15 333-15 372v70l78 16 78 17 24-48c29-58 60-73 86-41 16 20 16 25 3 64-8 23-43 89-77 147-56 94-66 105-91 105-16 0-34-8-40-17-10-16-6-29 41-119 2-3-32-13-74-23-43-10-113-29-156-43-44-13-81-22-84-20-2 3 61 138 142 302 149 302 157 327 114 340-31 10-62-25-110-121-22-46-43-84-45-84-11 0-74 29-74 34 0 3 36 81 80 173 68 141 79 172 71 190-12 25-52 31-69 11z"/>
    <path d="m616 554c-9-8-16-22-16-29 0-21 140-224 162-236 25-13 55-3 63 22 5 15-11 47-61 120-100 146-114 158-148 123z"/>
    <path d="m253 508c-5-7-27-66-48-131-29-90-36-123-28-135 15-24 41-27 64-6 27 25 95 242 82 263-13 20-57 26-70 9z"/>
  </g>
</svg>
