<?xml version="1.0"?>
<svg xmlns="http://www.w3.org/2000/svg" height="200pt" preserveAspectRatio="xMidYMid meet" viewBox="0 0 200 200" width="200pt">
  <g transform="matrix(.1 0 0 -.1 0 200)">
    <path d="m382 1798c-21-26-192-380-192-398 0-23 39-54 96-76 24-9 44-20 44-25 0-4-38-85-84-178-86-174-109-248-86-276 18-22 45-19 145 15 49 16 89 29 90 27 1-1 7-163 13-360 9-316 13-361 28-378 22-24 36-24 59 1 18 20 18 32 5 323-8 166-15 333-15 372v70l78 16 78 17 24-48c29-58 60-73 86-41 16 20 16 25 3 64-8 23-43 89-77 147-56 94-66 105-91 105-16 0-34-8-40-17-10-16-6-29 41-119 2-3-32-13-74-23-43-10-113-29-156-43-44-13-81-22-84-20-2 3 61 138 142 302 149 302 157 327 114 340-31 10-62-25-110-121-22-46-43-84-45-84-11 0-74 29-74 34 0 3 36 81 80 173 68 141 79 172 71 190-12 25-52 31-69 11z"/>
    <path d="m1400 1799c-136-7-333-30-382-45-9-2-19 0-23 6-11 18-44 11-59-12-12-20-12-42 0-168 19-177 28-217 54-225 11-4 71-2 133 4 61 6 204 13 317 16 143 4 211 10 225 19 16 11 20 25 21 87 1 41 10 115 19 164 22 110 22 135-1 152-19 14-57 14-304 2zm226-96c-10-34-26-148-26-190v-42l-52-5c-29-3-133-8-230-11s-199-10-227-14c-35-6-51-5-51 3-1 6-7 59-14 118l-12 107 25 5c122 25 307 42 494 45 89 1 98-1 93-16z"/>
    <path d="m1525 1233c-33-1-130-8-215-15-85-6-172-11-192-10s-39-2-42-6c-5-8-20-876-17-996 1-27 6-55 12-62 14-17 43-18 57-1 5 6 13 89 16 182 4 94 9 200 12 238l6 67h218 218l5-52c4-29 9-115 13-192l7-138-47 27c-38 22-49 25-61 15-24-20-17-41 28-85 83-79 148-91 163-29 4 15 2 137-4 273-7 135-14 352-17 482-5 281-13 311-75 307-14-1-52-3-85-5zm69-135c3-29 6-67 6-84v-32l-177-7c-98-4-198-7-223-8l-45-2-3 82-3 81 108 7c59 3 115 8 123 9 8 2 58 4 111 5l96 1zm6-286v-89l-217-6c-120-3-218-5-219-4s-4 39-8 83l-6 81 177 10c98 5 199 10 226 11l47 2z"/>
    <path d="m616 554c-9-8-16-22-16-29 0-21 140-224 162-236 25-13 55-3 63 22 5 15-11 47-61 120-100 146-114 158-148 123z"/>
    <path d="m253 508c-5-7-27-66-48-131-29-90-36-123-28-135 15-24 41-27 64-6 27 25 95 242 82 263-13 20-57 26-70 9z"/>
  </g>
</svg>
