<?xml version="1.0"?>
<svg xmlns="http://www.w3.org/2000/svg" height="200pt" preserveAspectRatio="xMidYMid meet" viewBox="0 0 200 200" width="200pt">
  <g transform="matrix(.1 0 0 -.1 0 200)">
    <path d="m1239 1949c-6-13-9-50-7-90 2-38 3-69 2-69-3 0-251-50-271-55-44-10-53-67-12-80 10-3 79 6 154 21 74 15 137 25 139 23s6-75 8-162c2-133 1-158-12-161-8-3-42-10-75-16-70-14-105-33-105-59 0-41 23-45 138-23 131 26 258 42 332 42 61 0 80 11 80 47 0 35-40 46-140 38-47-3-93-8-102-11-20-6-26 38-30 213l-3 111 75 11c41 6 108 14 148 17 81 8 103 25 81 65-11 21-16 22-118 15-58-3-127-9-152-12l-46-6-8 68c-4 38-12 75-17 82-16 19-46 14-59-9z"/>
    <path d="m382 1798c-21-26-192-380-192-398 0-23 39-54 96-76 24-9 44-20 44-25 0-4-38-85-84-178-86-174-109-248-86-276 18-22 45-19 145 15 49 16 89 29 90 27 1-1 7-163 13-360 9-316 13-361 28-378 22-24 36-24 59 1 18 20 18 32 5 323-8 166-15 333-15 372v70l78 16 78 17 24-48c29-58 60-73 86-41 16 20 16 25 3 64-8 23-43 89-77 147-56 94-66 105-91 105-16 0-34-8-40-17-10-16-6-29 41-119 2-3-32-13-74-23-43-10-113-29-156-43-44-13-81-22-84-20-2 3 61 138 142 302 149 302 157 327 114 340-31 10-62-25-110-121-22-46-43-84-45-84-11 0-74 29-74 34 0 3 36 81 80 173 68 141 79 172 71 190-12 25-52 31-69 11z"/>
    <path d="m1575 1194c-210-23-504-63-591-82-59-13-87-15-104-8-19 8-26 6-41-13-11-13-19-29-19-35 0-18 88-247 101-262 6-8 24-14 40-14 45 0 45 29 3 131-22 53-33 93-28 99 20 19 557 93 783 107 88 5 103 4 98-8-77-182-82-199-64-224 29-38 55-11 123 132 66 141 72 161 52 181-16 16-184 14-353-4z"/>
    <path d="m1156 934c-3-9-6-95-6-192 0-116-5-201-15-247-19-89-76-204-127-253-44-43-48-75-8-80 38-4 90 36 136 105 80 119 110 266 101 499-2 78-10 151-16 163-14 25-56 28-65 5z"/>
    <path d="m1369 933c-18-21-18-258 0-363 16-88 51-200 87-276 20-42 36-60 72-82 46-27 49-27 214-26 214 2 224 6 213 98-4 33-10 99-14 146-5 76-8 85-26 85-26 0-43-63-44-161l-1-71-37-7c-21-3-78-6-128-6-128 0-151 13-188 110-54 142-68 214-74 385-3 88-10 166-15 173-14 17-43 15-59-5z"/>
    <path d="m616 554c-9-8-16-22-16-29 0-21 140-224 162-236 25-13 55-3 63 22 5 15-11 47-61 120-100 146-114 158-148 123z"/>
    <path d="m253 508c-5-7-27-66-48-131-29-90-36-123-28-135 15-24 41-27 64-6 27 25 95 242 82 263-13 20-57 26-70 9z"/>
  </g>
</svg>
