<?xml version="1.0"?>
<svg xmlns="http://www.w3.org/2000/svg" height="200pt" preserveAspectRatio="xMidYMid meet" viewBox="0 0 200 200" width="200pt">
  <g transform="matrix(.1 0 0 -.1 0 200)">
    <path d="m1102 1818c-22-30-72-83-112-118l-73-64 6-81c4-44 11-114 16-155 6-41 15-131 21-199 14-170 9-165 174-158l129 5-7-76c-3-41-6-85-6-97 0-20-7-23-113-34-62-7-139-18-172-25l-60-12 1-95c1-106 40-370 59-395 15-21 60-12 69 12 4 9-5 85-18 168-30 188-36 235-28 240 4 2 52 9 107 15s114 14 131 16l31 5 7-328c4-181 11-345 17-365 8-29 15-37 33-37 47 0 48 8 41 347-3 175-8 334-10 355l-5 36 48 7c54 7 296 23 300 20 2-1 0-97-4-213l-7-210-67 24c-82 29-100 30-100 5 0-23 40-55 131-105 125-68 125-69 133 266 7 283 5 302-37 317-20 8-171 1-329-14l-68-7v91 91h119c100 0 122 3 141 18 27 21 25 2 22 338-3 300 3 288-128 285-88-2-261-15-358-27l-50-6 43 48c54 61 73 98 69 132-2 21-9 28-30 30-22 3-33-6-66-50zm428-302c0-99 5-96-135-96-91 0-302-16-341-25-20-5-23 1-35 80-7 47-10 87-8 89 8 7 326 34 422 35l97 1zm2-276 3-100h-110c-60 0-166-5-235-10-68-5-127-6-131-2-3 4-9 46-13 94l-6 87 54 6c68 9 267 22 363 24l72 1z"/>
    <path d="m382 1798c-21-26-192-380-192-398 0-23 39-54 96-76 24-9 44-20 44-25 0-4-38-85-84-178-86-174-109-248-86-276 18-22 45-19 145 15 49 16 89 29 90 27 1-1 7-163 13-360 9-316 13-361 28-378 22-24 36-24 59 1 18 20 18 32 5 323-8 166-15 333-15 372v70l78 16 78 17 24-48c29-58 60-73 86-41 16 20 16 25 3 64-8 23-43 89-77 147-56 94-66 105-91 105-16 0-34-8-40-17-10-16-6-29 41-119 2-3-32-13-74-23-43-10-113-29-156-43-44-13-81-22-84-20-2 3 61 138 142 302 149 302 157 327 114 340-31 10-62-25-110-121-22-46-43-84-45-84-11 0-74 29-74 34 0 3 36 81 80 173 68 141 79 172 71 190-12 25-52 31-69 11z"/>
    <path d="m616 554c-9-8-16-22-16-29 0-21 140-224 162-236 25-13 55-3 63 22 5 15-11 47-61 120-100 146-114 158-148 123z"/>
    <path d="m253 508c-5-7-27-66-48-131-29-90-36-123-28-135 15-24 41-27 64-6 27 25 95 242 82 263-13 20-57 26-70 9z"/>
  </g>
</svg>
