<?xml version="1.0"?>
<svg xmlns="http://www.w3.org/2000/svg" height="200pt" preserveAspectRatio="xMidYMid meet" viewBox="0 0 200 200" width="200pt">
  <g transform="matrix(.1 0 0 -.1 0 200)">
    <path d="m382 1798c-21-26-192-380-192-398 0-23 39-54 96-76 24-9 44-20 44-25 0-4-38-85-84-178-86-174-109-248-86-276 18-22 45-19 145 15 49 16 89 29 90 27 1-1 7-163 13-360 9-316 13-361 28-378 22-24 36-24 59 1 18 20 18 32 5 323-8 166-15 333-15 372v70l78 16 78 17 24-48c29-58 60-73 86-41 16 20 16 25 3 64-8 23-43 89-77 147-56 94-66 105-91 105-16 0-34-8-40-17-10-16-6-29 41-119 2-3-32-13-74-23-43-10-113-29-156-43-44-13-81-22-84-20-2 3 61 138 142 302 149 302 157 327 114 340-31 10-62-25-110-121-22-46-43-84-45-84-11 0-74 29-74 34 0 3 36 81 80 173 68 141 79 172 71 190-12 25-52 31-69 11z"/>
    <path d="m1067 1787c-10-6-27-46-38-87-32-113-88-225-162-322-70-92-77-108-52-128 38-31 107 30 195 173 51 83 110 245 113 310 2 47-27 76-56 54z"/>
    <path d="m1331 1786c-18-21-9-48 43-137 58-99 182-229 292-307 98-70 128-82 151-59 29 28 8 59-81 121-138 95-260 231-331 371-13 25-57 31-74 11z"/>
    <path d="m1160 1303c-27-54-83-158-125-231-115-204-108-219 88-179 73 14 195 33 272 42 77 8 154 17 171 19 29 4 36-2 85-64 64-83 88-97 121-71 19 16 21 22 11 43-14 31-110 146-209 252-71 75-75 78-97 64-33-23-32-40 7-91l35-46-57-6c-95-11-325-45-351-52-23-6-21 0 28 88 65 117 141 274 141 292 0 20-21 37-47 37-19 0-32-17-73-97z"/>
    <path d="m1020 720c-23-43 21-155 122-312 94-147 219-234 400-279 108-27 120-23 183 62 73 100 47 129-51 56l-58-45-71 20c-38 10-94 30-122 44-124 60-254 227-318 409-18 51-25 60-47 63-19 2-30-3-38-18z"/>
    <path d="m1281 722c-15-28 17-85 93-167 60-66 65-69 92-60 21 7 38 27 62 73 49 92 27 122-42 61l-35-30-33 37c-18 20-43 52-56 71-26 37-65 45-81 15z"/>
    <path d="m1695 677c-29-22-12-61 43-99 26-18 67-51 92-73 57-52 74-58 101-36 38 31 9 68-145 184-54 41-64 43-91 24z"/>
    <path d="m896 638c-109-142-120-164-91-188s63-2 115 72c57 80 68 111 50 133-20 24-47 17-74-17z"/>
    <path d="m616 554c-9-8-16-22-16-29 0-21 140-224 162-236 25-13 55-3 63 22 5 15-11 47-61 120-100 146-114 158-148 123z"/>
    <path d="m253 508c-5-7-27-66-48-131-29-90-36-123-28-135 15-24 41-27 64-6 27 25 95 242 82 263-13 20-57 26-70 9z"/>
  </g>
</svg>
