<?xml version="1.0"?>
<svg xmlns="http://www.w3.org/2000/svg" height="200pt" preserveAspectRatio="xMidYMid meet" viewBox="0 0 200 200" width="200pt">
  <g transform="matrix(.1 0 0 -.1 0 200)">
    <path d="m382 1798c-21-26-192-380-192-398 0-23 39-54 96-76 24-9 44-20 44-25 0-4-38-85-84-178-86-174-109-248-86-276 18-22 45-19 145 15 49 16 89 29 90 27 1-1 7-163 13-360 9-316 13-361 28-378 22-24 36-24 59 1 18 20 18 32 5 323-8 166-15 333-15 372v70l78 16 78 17 24-48c29-58 60-73 86-41 16 20 16 25 3 64-8 23-43 89-77 147-56 94-66 105-91 105-16 0-34-8-40-17-10-16-6-29 41-119 2-3-32-13-74-23-43-10-113-29-156-43-44-13-81-22-84-20-2 3 61 138 142 302 149 302 157 327 114 340-31 10-62-25-110-121-22-46-43-84-45-84-11 0-74 29-74 34 0 3 36 81 80 173 68 141 79 172 71 190-12 25-52 31-69 11z"/>
    <path d="m1350 1774c-142-21-311-66-324-86-15-24 3-52 36-56 14-2 61 6 104 17 44 10 113 24 154 30 41 7 90 14 108 17l32 5v-91-90h-92c-108 0-272-23-293-40s-19-57 4-69c12-7 30-7 52 0 19 6 101 13 182 16l148 6-2-82c-2-62-6-81-17-81-19 0-436-48-479-56-46-7-62-39-34-67 20-20 21-20 183-3 90 9 177 19 194 22l32 6 6-189c10-278 25-607 32-696l7-79-32 16c-69 36-69-18 0-96 51-59 82-71 107-46 15 15 16 159 2 348-5 74-14 259-20 410s-13 289-16 306l-6 31 66 7c36 4 147 13 246 20 187 12 199 16 200 57 0 37-25 42-174 36-79-4-157-10-175-13l-31-6v236c0 305 11 291-200 260z"/>
    <path d="m1675 1062c-15-10-90-129-116-183-23-48-21-79 5-79 20 0 117 110 150 171 24 42 26 55 17 75-10 24-36 31-56 16z"/>
    <path d="m1040 961c-12-24-5-44 34-98 17-22 39-55 48-72 20-36 43-40 58-10 16 29 5 68-41 138-43 66-78 81-99 42z"/>
    <path d="m1481 748c-13-33 3-65 127-250 195-291 272-371 312-323 18 22 5 48-69 138-69 85-266 367-295 425-20 39-62 45-75 10z"/>
    <path d="m1146 518c-173-184-199-225-166-258 23-23 51-15 71 21 6 11 42 56 79 99 98 111 170 208 170 229 0 15-18 31-35 31-2 0-55-55-119-122z"/>
    <path d="m616 554c-9-8-16-22-16-29 0-21 140-224 162-236 25-13 55-3 63 22 5 15-11 47-61 120-100 146-114 158-148 123z"/>
    <path d="m253 508c-5-7-27-66-48-131-29-90-36-123-28-135 15-24 41-27 64-6 27 25 95 242 82 263-13 20-57 26-70 9z"/>
  </g>
</svg>
