<?xml version="1.0"?>
<svg xmlns="http://www.w3.org/2000/svg" height="200pt" preserveAspectRatio="xMidYMid meet" viewBox="0 0 200 200" width="200pt">
  <g transform="matrix(.1 0 0 -.1 0 200)">
    <path d="m1069 1838c-52-104-111-202-137-227-28-27-28-40 4-281 9-69 17-161 18-204 2-102 9-107 126-96 47 5 109 9 138 9l52 1v-85-85h-48c-48 0-285-25-335-36-30-6-50-34-41-58 10-25 49-30 138-18 44 6 116 14 159 18l78 7-45-127c-24-70-60-151-79-179-49-73-142-166-209-211-37-24-58-45-58-57 0-34 44-28 132 18 128 67 243 215 294 376 25 80 31 58 39-159l7-179-26 24c-23 22-28 23-41 10-14-14-14-20 0-59 18-50 38-76 77-96 38-20 55-17 73 10 13 20 14 47 5 217-6 107-12 209-15 228-4 29 4 22 61-62 35-52 97-126 137-163 181-172 429-286 415-191-2 16-30 37-98 75-118 67-208 134-282 209-58 59-158 198-158 217 1 6 20 25 44 43 56 41 166 178 166 207 0 26-17 46-41 46-9 0-37-27-63-59-49-63-175-191-187-191-8 0-24 308-16 316 3 3 74 8 159 11 84 3 160 9 169 14 23 12 39 164 39 373 0 233 12 220-193 211-166-7-367-22-436-32l-44-6 27 44c36 57 96 184 96 201 0 21-21 38-47 38-18 0-29-13-54-62zm551-342v-74l-32-6c-32-5-224-19-454-33l-112-6-6 44c-4 24-9 56-12 70l-5 26 133 17c73 9 207 20 298 25 91 4 171 9 178 10 9 1 12-20 12-73zm0-256v-90h-77c-82 0-338-15-434-26l-56-6-7 59c-4 32-9 70-12 84l-5 26 228 12c192 11 350 24 361 30 1 0 2-39 2-89z"/>
    <path d="m382 1798c-21-26-192-380-192-398 0-23 39-54 96-76 24-9 44-20 44-25 0-4-38-85-84-178-86-174-109-248-86-276 18-22 45-19 145 15 49 16 89 29 90 27 1-1 7-163 13-360 9-316 13-361 28-378 22-24 36-24 59 1 18 20 18 32 5 323-8 166-15 333-15 372v70l78 16 78 17 24-48c29-58 60-73 86-41 16 20 16 25 3 64-8 23-43 89-77 147-56 94-66 105-91 105-16 0-34-8-40-17-10-16-6-29 41-119 2-3-32-13-74-23-43-10-113-29-156-43-44-13-81-22-84-20-2 3 61 138 142 302 149 302 157 327 114 340-31 10-62-25-110-121-22-46-43-84-45-84-11 0-74 29-74 34 0 3 36 81 80 173 68 141 79 172 71 190-12 25-52 31-69 11z"/>
    <path d="m616 554c-9-8-16-22-16-29 0-21 140-224 162-236 25-13 55-3 63 22 5 15-11 47-61 120-100 146-114 158-148 123z"/>
    <path d="m253 508c-5-7-27-66-48-131-29-90-36-123-28-135 15-24 41-27 64-6 27 25 95 242 82 263-13 20-57 26-70 9z"/>
  </g>
</svg>
