<?xml version="1.0"?>
<svg xmlns="http://www.w3.org/2000/svg" height="200pt" preserveAspectRatio="xMidYMid meet" viewBox="0 0 200 200" width="200pt">
  <g transform="matrix(.1 0 0 -.1 0 200)">
    <path d="m382 1798c-21-26-192-380-192-398 0-23 39-54 96-76 24-9 44-20 44-25 0-4-38-85-84-178-86-174-109-248-86-276 18-22 45-19 145 15 49 16 89 29 90 27 1-1 7-163 13-360 9-316 13-361 28-378 22-24 36-24 59 1 18 20 18 32 5 323-8 166-15 333-15 372v70l78 16 78 17 24-48c29-58 60-73 86-41 16 20 16 25 3 64-8 23-43 89-77 147-56 94-66 105-91 105-16 0-34-8-40-17-10-16-6-29 41-119 2-3-32-13-74-23-43-10-113-29-156-43-44-13-81-22-84-20-2 3 61 138 142 302 149 302 157 327 114 340-31 10-62-25-110-121-22-46-43-84-45-84-11 0-74 29-74 34 0 3 36 81 80 173 68 141 79 172 71 190-12 25-52 31-69 11z"/>
    <path d="m1465 1769c-296-28-547-60-582-75-36-14-44-43-19-64 12-9 43-8 143 4 70 9 148 19 173 22s169 15 321 28 281 26 287 30c16 9 15 49 0 64-16 16-87 14-323-9z"/>
    <path d="m1390 1513c-19-1-93-8-165-13-189-16-283-30-296-46-9-11-9-24-1-52 26-90 36-208 36-427-1-246 4-211-80-664-13-74-13-86 0-99 9-9 23-12 40-8 30 7 35 23 74 231l28 150 22-175c12-96 22-184 22-195 0-29 28-65 51-65 41 0 44 38 21 218-12 92-22 170-22 175 0 4 29 7 65 7 77 0 70 14 84-185 6-78 13-148 16-158 13-33 69-32 80 2 3 9-2 88-10 176-8 87-13 160-11 163 3 2 34 7 70 9l65 6 5-34c2-19 12-98 21-176 8-78 20-155 26-172 13-38 53-52 77-28 13 14 14 25 3 84-13 74-42 315-38 319 1 1 41 6 90 11l87 9v-72c0-39 3-100 7-135l6-63-26 17c-57 37-96 10-57-40 78-100 119-123 155-87 14 14 15 48 10 298-7 355-12 420-33 446-17 20-22 20-202 10-102-6-266-17-365-24-99-8-182-12-184-11-2 2-6 54-9 115l-5 110h29c87 0 644 31 658 36 9 3 16 9 17 13 0 3 1 72 2 152 1 111-2 150-12 163-11 14-36 16-165 14-83 0-167-3-186-5zm274-100c0-13-1-54-2-91l-2-68-252-12c-139-7-278-12-309-12h-56l-12 81c-7 45-11 82-9 84 8 8 513 42 603 41 35-1 40-4 39-23zm80-559c3-9 6-57 6-107v-92l-95-3c-52-2-95 0-95 5 0 4-7 49-15 98-8 50-15 93-15 97s42 9 93 11c50 1 97 4 103 5 7 1 15-5 18-14zm-286-93c18-131 22-121-57-121-80 0-75-8-86 133l-7 77h69 69zm-224-17c4-53 6-97 4-99-2-1-33-5-69-8l-67-6-12 82c-6 45-12 89-13 97-2 15 39 25 119 28l31 2z"/>
    <path d="m616 554c-9-8-16-22-16-29 0-21 140-224 162-236 25-13 55-3 63 22 5 15-11 47-61 120-100 146-114 158-148 123z"/>
    <path d="m253 508c-5-7-27-66-48-131-29-90-36-123-28-135 15-24 41-27 64-6 27 25 95 242 82 263-13 20-57 26-70 9z"/>
  </g>
</svg>
