<?xml version="1.0"?>
<svg xmlns="http://www.w3.org/2000/svg" height="200pt" preserveAspectRatio="xMidYMid meet" viewBox="0 0 200 200" width="200pt">
  <g transform="matrix(.1 0 0 -.1 0 200)">
    <path d="m1240 1955c-9-10-11-46-9-121l4-106-135-28c-191-39-208-47-195-97 7-30 11-30 209 11 71 15 130 25 131 24 1-2 5-41 9-88l7-86-104-11c-56-7-115-17-130-22-49-19-51-46-23-268 26-207 43-262 84-278 9-3 61-3 116 1l98 7-7-24c-27-90-201-419-292-552-29-43-53-85-53-92 0-8 9-19 21-25 52-28 126 68 282 368l74 144 7-129c4-70 11-177 17-238 5-60 9-141 9-178 0-79 11-107 44-107 46 0 50 17 42 198-4 92-11 217-15 277-4 61-6 111-5 113 0 1 18-25 38-58 123-199 304-387 421-436 38-16 75-6 75 20 0 15-51 64-153 145-144 116-348 410-373 539l-6 32h90 91l28 37 28 36 3 243 3 243-25 16c-22 14-44 16-159 10l-134-8-6 54c-4 30-7 72-7 95v41l61 7c34 3 89 6 123 6s72 6 86 13c30 15 37 48 15 67-17 14-132 15-230 1-33-5-62-7-64-5s-6 45-9 96c-2 51-9 101-14 111-11 21-51 22-68 2zm340-640v-65h-105-105v28c0 15-3 44-6 65l-7 37h112 111zm-306 9c11-86 13-84-51-84-32 0-75-4-95-9-42-10-42-10-53 71l-6 47 33 5c39 7 90 12 134 14 30 2 32 0 38-44zm21-221c3-32 8-72 11-89l4-31-91-8c-50-3-93-4-96-2-7 8-26 157-20 163 3 3 42 9 88 13 46 5 87 9 91 10 4 0 9-25 13-56zm285 5c0-29-3-70-6-90l-7-38h-83-83l-6 58c-3 31-8 69-10 83-2 15-1 29 2 33 4 3 48 6 100 6h93z"/>
    <path d="m382 1798c-21-26-192-380-192-398 0-23 39-54 96-76 24-9 44-20 44-25 0-4-38-85-84-178-86-174-109-248-86-276 18-22 45-19 145 15 49 16 89 29 90 27 1-1 7-163 13-360 9-316 13-361 28-378 22-24 36-24 59 1 18 20 18 32 5 323-8 166-15 333-15 372v70l78 16 78 17 24-48c29-58 60-73 86-41 16 20 16 25 3 64-8 23-43 89-77 147-56 94-66 105-91 105-16 0-34-8-40-17-10-16-6-29 41-119 2-3-32-13-74-23-43-10-113-29-156-43-44-13-81-22-84-20-2 3 61 138 142 302 149 302 157 327 114 340-31 10-62-25-110-121-22-46-43-84-45-84-11 0-74 29-74 34 0 3 36 81 80 173 68 141 79 172 71 190-12 25-52 31-69 11z"/>
    <path d="m616 554c-9-8-16-22-16-29 0-21 140-224 162-236 25-13 55-3 63 22 5 15-11 47-61 120-100 146-114 158-148 123z"/>
    <path d="m253 508c-5-7-27-66-48-131-29-90-36-123-28-135 15-24 41-27 64-6 27 25 95 242 82 263-13 20-57 26-70 9z"/>
  </g>
</svg>
