<?xml version="1.0"?>
<svg xmlns="http://www.w3.org/2000/svg" height="200pt" preserveAspectRatio="xMidYMid meet" viewBox="0 0 200 200" width="200pt">
  <g transform="matrix(.1 0 0 -.1 0 200)">
    <path d="m382 1798c-21-26-192-380-192-398 0-23 39-54 96-76 24-9 44-20 44-25 0-4-38-85-84-178-86-174-109-248-86-276 18-22 45-19 145 15 49 16 89 29 90 27 1-1 7-163 13-360 9-316 13-361 28-378 22-24 36-24 59 1 18 20 18 32 5 323-8 166-15 333-15 372v70l78 16 78 17 24-48c29-58 60-73 86-41 16 20 16 25 3 64-8 23-43 89-77 147-56 94-66 105-91 105-16 0-34-8-40-17-10-16-6-29 41-119 2-3-32-13-74-23-43-10-113-29-156-43-44-13-81-22-84-20-2 3 61 138 142 302 149 302 157 327 114 340-31 10-62-25-110-121-22-46-43-84-45-84-11 0-74 29-74 34 0 3 36 81 80 173 68 141 79 172 71 190-12 25-52 31-69 11z"/>
    <path d="m1004 1699c-30-57-60-92-156-182-128-120-144-149-82-155 26-3 44 7 95 50 131 108 210 204 240 290 15 43 2 68-37 68-18 0-30-14-60-71z"/>
    <path d="m1292 1698c-30-30-7-87 71-181 51-59 92-84 113-66 23 19 17 34-38 106-28 37-61 86-73 108-22 41-51 55-73 33z"/>
    <path d="m1741 1676c-12-18-48-68-81-111-69-89-78-125-31-125 23 0 42 14 89 65 33 36 72 90 88 119 24 46 26 56 15 70-23 27-57 20-80-18z"/>
    <path d="m1010 1341c-70-71-154-146-190-169-94-61-94-60-77-85 24-37 57-32 139 22l77 50 5-27c3-15 8-218 11-452 4-234 10-443 14-464 7-46 32-67 59-50 15 10 17 33 15 255-1 134-6 372-10 529l-9 285 46 50c96 106 116 145 88 173-7 7-19 12-27 11-9-1-72-58-141-128z"/>
    <path d="m1690 1344c-148-16-347-49-441-74-41-11-54-32-39-61 13-24 39-24 153 0l87 18v-26c0-14 4-109 9-211 6-102 7-258 3-348l-7-163-61 44-60 45 7 58c11 89 10 253-1 275-12 21-40 25-58 7-7-7-12-39-12-74 0-188-42-398-109-537-45-95-48-109-26-127 13-11 21-10 43 6 33 24 107 169 123 242 7 28 14 52 16 52 1 0 45-29 96-64 139-96 334-204 409-227s116-22 132 4c18 28-5 49-81 72-67 21-192 82-280 138l-43 27v194 194l103 11c56 7 124 15 151 19 55 8 78 31 60 59-15 24-82 27-210 11l-101-14-13 169c-7 92-10 170-7 173s52 10 108 15c146 14 180 21 193 42 27 43-29 63-144 51z"/>
    <path d="m616 554c-9-8-16-22-16-29 0-21 140-224 162-236 25-13 55-3 63 22 5 15-11 47-61 120-100 146-114 158-148 123z"/>
    <path d="m253 508c-5-7-27-66-48-131-29-90-36-123-28-135 15-24 41-27 64-6 27 25 95 242 82 263-13 20-57 26-70 9z"/>
  </g>
</svg>
