<?xml version="1.0"?>
<svg xmlns="http://www.w3.org/2000/svg" height="200pt" preserveAspectRatio="xMidYMid meet" viewBox="0 0 200 200" width="200pt">
  <g transform="matrix(.1 0 0 -.1 0 200)">
    <path d="m1180 1885c-7-9-14-67-17-154-5-128-8-140-25-145-11-2-102-13-202-22-99-10-187-22-193-27-19-14-16-48 13-177 27-121 36-140 63-140 26 0 41 21 41 54 0 27-21 129-36 179-4 14 1 17 33 17 21 0 160 14 308 30 263 30 605 50 605 36 0-4-11-24-25-44s-25-49-25-64c0-63 76-19 141 81 32 50 37 92 13 112-25 21-358 11-576-17l-48-6v139c0 142-5 163-41 163-9 0-22-7-29-15z"/>
    <path d="m382 1798c-21-26-192-380-192-398 0-23 39-54 96-76 24-9 44-20 44-25 0-4-38-85-84-178-86-174-109-248-86-276 18-22 45-19 145 15 49 16 89 29 90 27 1-1 7-163 13-360 9-316 13-361 28-378 22-24 36-24 59 1 18 20 18 32 5 323-8 166-15 333-15 372v70l78 16 78 17 24-48c29-58 60-73 86-41 16 20 16 25 3 64-8 23-43 89-77 147-56 94-66 105-91 105-16 0-34-8-40-17-10-16-6-29 41-119 2-3-32-13-74-23-43-10-113-29-156-43-44-13-81-22-84-20-2 3 61 138 142 302 149 302 157 327 114 340-31 10-62-25-110-121-22-46-43-84-45-84-11 0-74 29-74 34 0 3 36 81 80 173 68 141 79 172 71 190-12 25-52 31-69 11z"/>
    <path d="m1133 1358c-6-7-16-30-23-52-17-54-135-227-210-308-71-78-78-111-24-116 27-3 40 5 81 46l50 50 6-166c4-91 7-254 7-363 0-169 2-200 16-214 22-21 45-16 62 15 11 20 12 92 7 375-4 193-10 375-14 405-6 50-4 59 21 97 42 62 88 164 88 194 0 42-44 66-67 37z"/>
    <path d="m1570 1273c-208-14-280-33-280-72 0-37 22-43 110-31 45 6 84 9 87 7 9-10-39-89-93-152l-55-65 7-363c5-285 9-367 20-384 14-23 18-23 214-23 142 0 201 3 206 12 4 6 8 182 9 390 1 308-1 380-12 390-15 12-263 6-296-7-13-6-7 11 23 56 22 35 48 85 58 111l17 48h102c79 0 105 3 117 16 19 18 21 45 4 62-11 11-119 14-238 5zm140-411c0-27-3-83-6-125l-7-77-66-1c-36 0-96-3-133-8l-68-7v117 117l42 7c46 8 167 21 211 24 26 1 27-1 27-47zm-7-434c3-79 5-144 4-144-1-1-62-4-134-7l-133-5v144 143l48 4c26 2 83 4 128 5l81 2z"/>
    <path d="m616 554c-9-8-16-22-16-29 0-21 140-224 162-236 25-13 55-3 63 22 5 15-11 47-61 120-100 146-114 158-148 123z"/>
    <path d="m253 508c-5-7-27-66-48-131-29-90-36-123-28-135 15-24 41-27 64-6 27 25 95 242 82 263-13 20-57 26-70 9z"/>
  </g>
</svg>
