<?xml version="1.0"?>
<svg xmlns="http://www.w3.org/2000/svg" height="200pt" preserveAspectRatio="xMidYMid meet" viewBox="0 0 200 200" width="200pt">
  <g transform="matrix(.1 0 0 -.1 0 200)">
    <path d="m1195 1964c-14-14-15-31-9-115 8-115 32-99-191-124-82-10-158-21-167-26-10-6-18-21-18-34 0-41 26-46 152-30 62 7 141 17 176 20l62 7v-56c0-31-4-56-10-56-32 0-239-32-257-40-30-13-31-58-2-68 12-5 67-3 123 4 167 21 156 25 156-49v-62l-199-28c-252-35-285-44-289-79-5-43 23-51 124-33 302 52 380 59 693 60 297 0 304 0 318 21 12 19 11 24-5 44-18 22-21 22-285 24l-267 1v61c0 46 4 63 15 68 8 3 70 8 138 12 151 8 167 14 167 54 0 22-6 33-20 38-20 7-180-1-267-13l-43-6v55 56l128 2c125 2 210 5 244 7 26 2 41 36 28 62-11 20-18 20-210 17l-199-3-7 98c-7 98-18 127-49 127-7 0-21-7-30-16z"/>
    <path d="m382 1798c-21-26-192-380-192-398 0-23 39-54 96-76 24-9 44-20 44-25 0-4-38-85-84-178-86-174-109-248-86-276 18-22 45-19 145 15 49 16 89 29 90 27 1-1 7-163 13-360 9-316 13-361 28-378 22-24 36-24 59 1 18 20 18 32 5 323-8 166-15 333-15 372v70l78 16 78 17 24-48c29-58 60-73 86-41 16 20 16 25 3 64-8 23-43 89-77 147-56 94-66 105-91 105-16 0-34-8-40-17-10-16-6-29 41-119 2-3-32-13-74-23-43-10-113-29-156-43-44-13-81-22-84-20-2 3 61 138 142 302 149 302 157 327 114 340-31 10-62-25-110-121-22-46-43-84-45-84-11 0-74 29-74 34 0 3 36 81 80 173 68 141 79 172 71 190-12 25-52 31-69 11z"/>
    <path d="m1320 1155c-203-21-301-37-316-52-18-18-18-52 1-188 8-61 21-188 29-283 10-128 18-179 31-199 17-25 19-26 99-19 44 3 158 6 252 6 125 0 175 3 188 13 17 12 19 40 27 283 4 148 13 300 19 338 9 58 8 72-5 92-15 23-21 24-108 23-50-1-148-7-217-14zm236-106c-3-17-6-44-6-59v-27l-117-7c-65-4-167-14-227-22-59-8-110-13-112-12-2 2-6 29-10 60l-7 56 54 7c111 14 316 32 373 34l59 1zm-16-233v-55l-42-5c-24-3-81-8-127-11-47-4-121-13-165-20-45-7-83-11-86-9-11 11-15 114-5 118 11 4 148 21 235 29 19 2 70 5 113 5l77 2zm-4-223c-3-42-7-77-9-78-1-1-91-5-199-8l-198-5-1 49c-1 27-2 55-3 62-1 17 223 52 368 56l49 1z"/>
    <path d="m616 554c-9-8-16-22-16-29 0-21 140-224 162-236 25-13 55-3 63 22 5 15-11 47-61 120-100 146-114 158-148 123z"/>
    <path d="m253 508c-5-7-27-66-48-131-29-90-36-123-28-135 15-24 41-27 64-6 27 25 95 242 82 263-13 20-57 26-70 9z"/>
    <path d="m935 303c-67-70-85-105-68-132 22-35 49-24 117 51 71 78 84 117 47 138-11 5-22 10-25 10s-35-30-71-67z"/>
    <path d="m1593 363c-7-2-13-18-13-33 0-24 11-37 68-76 37-26 96-73 132-104s71-60 77-64c20-11 53 12 53 38 0 30-99 125-203 194-75 51-89 56-114 45z"/>
  </g>
</svg>
