<?xml version="1.0"?>
<svg xmlns="http://www.w3.org/2000/svg" height="200pt" preserveAspectRatio="xMidYMid meet" viewBox="0 0 200 200" width="200pt">
  <g transform="matrix(.1 0 0 -.1 0 200)">
    <path d="m1481 1866c-7-8-15-91-21-207-6-107-13-248-16-315l-7-121-121-11c-67-5-122-9-123-8-2 1 4 74 12 162 8 87 15 166 15 175 0 13 15 18 68 24 37 4 75 11 85 16 23 13 22 56-2 68-21 12-127 1-278-28l-92-18-6 56c-17 156-20 174-37 185-13 8-23 8-35 0-16-10-18-27-15-137l2-126-42-11c-93-24-139-42-148-60-20-38 9-62 70-57 24 2 25-1 47-138 13-77 22-149 21-159-2-13-17-22-50-31-76-19-99-49-58-78 18-12 40-10 188 20 189 38 367 63 447 63 63 0 53 28 85-225 11-88 32-203 46-255l26-95-107-101c-76-72-106-107-103-120 9-48 87-17 191 76 32 29 59 51 61 49 1-2 20-38 41-79 74-145 142-230 185-230 15 0 33 6 39 14 16 19 73 284 69 321-2 22-9 31-26 33-27 4-38-19-72-151-22-85-24-87-41-70-19 19-97 158-118 210-13 32-12 32 81 145 52 62 101 124 110 138 21 34 8 70-26 70-18 0-45-26-117-110-69-83-95-107-101-97-25 45-88 472-72 486 5 5 78 18 162 29 84 12 161 26 172 32 12 6 20 21 20 36 0 42-31 45-201 19-85-12-156-21-158-19-3 2 1 142 8 309 11 243 11 308 1 320-16 19-44 19-59 1zm-351-363c-1-45-28-314-32-317-7-6-141-27-144-23-3 2-17 76-32 165l-29 161 96 21c53 12 101 23 106 25 28 10 35 3 35-32z"/>
    <path d="m382 1798c-21-26-192-380-192-398 0-23 39-54 96-76 24-9 44-20 44-25 0-4-38-85-84-178-86-174-109-248-86-276 18-22 45-19 145 15 49 16 89 29 90 27 1-1 7-163 13-360 9-316 13-361 28-378 22-24 36-24 59 1 18 20 18 32 5 323-8 166-15 333-15 372v70l78 16 78 17 24-48c29-58 60-73 86-41 16 20 16 25 3 64-8 23-43 89-77 147-56 94-66 105-91 105-16 0-34-8-40-17-10-16-6-29 41-119 2-3-32-13-74-23-43-10-113-29-156-43-44-13-81-22-84-20-2 3 61 138 142 302 149 302 157 327 114 340-31 10-62-25-110-121-22-46-43-84-45-84-11 0-74 29-74 34 0 3 36 81 80 173 68 141 79 172 71 190-12 25-52 31-69 11z"/>
    <path d="m1669 1544c-11-13-9-23 10-59 37-70 90-127 115-123 34 5 25 55-24 131-44 71-73 85-101 51z"/>
    <path d="m1095 934c-192-26-217-31-227-45-5-8-7-70-3-154 3-77 8-224 12-327 4-118 10-191 17-197 6-5 80-5 176 1 91 5 177 9 192 9 14 0 31 5 36 12 6 7 11 144 13 349 3 268 0 339-10 352-16 19-65 19-206 0zm128-191c-3-65-6-119-7-120 0 0-61-4-134-8l-133-8 3 109 3 108 37 8c36 7 169 24 215 27 21 1 21-1 16-116zm-3-318c0-63-3-115-7-116-5 0-60-4-124-7l-117-7-6 59c-3 32-6 83-6 112v53l53 5c28 4 79 8 112 9 33 2 68 4 78 5 15 2 17-9 17-113z"/>
    <path d="m616 554c-9-8-16-22-16-29 0-21 140-224 162-236 25-13 55-3 63 22 5 15-11 47-61 120-100 146-114 158-148 123z"/>
    <path d="m253 508c-5-7-27-66-48-131-29-90-36-123-28-135 15-24 41-27 64-6 27 25 95 242 82 263-13 20-57 26-70 9z"/>
  </g>
</svg>
