<?xml version="1.0"?>
<svg xmlns="http://www.w3.org/2000/svg" height="200pt" preserveAspectRatio="xMidYMid meet" viewBox="0 0 200 200" width="200pt">
  <g transform="matrix(.1 0 0 -.1 0 200)">
    <path d="m700 1845c-96-7-219-19-273-25-138-17-137-17-88-190 21-75 42-154 46-177 11-66 18-68 161-53 68 7 127 11 130 8 4-5 24-98 38-179l6-36-127-7c-296-15-379-42-315-100 16-14 28-15 88-6 38 5 135 13 217 16l147 7v-86c0-117 0-117-74-117-96 0-320-22-334-33-7-6-12-22-10-36 3-25 6-26 68-29 36-1 122 1 193 5 94 6 127 5 127-3 0-16-36-133-56-179-12-30-17-35-30-24-15 12-175 2-334-22-108-16-130-26-130-59 0-38 23-45 108-31 71 12 268 31 315 31 25 0 27-3 22-22-19-63-97-180-175-261-69-73-82-91-74-105 6-9 25-18 41-20 61-6 194 144 273 309 54 112 127 334 145 438 25 138 14 333-29 512l-13 56 90 7c50 3 148 6 218 6h129l-3-676c-2-635-1-677 15-688 27-16 52 4 61 50 4 21 10 114 13 205l7 167 46 6c25 3 159 9 296 12 140 4 255 11 263 17 20 16 14 45-14 63-22 15-48 16-232 11-114-4-242-10-284-13l-78-7v126 126l33 5c17 2 96 9 174 14 145 9 173 18 173 52 0 41-21 44-201 31-94-7-174-10-177-6-4 4-9 46-10 94l-4 88 108 6c59 4 149 7 200 7 117 0 144 9 144 50 0 42-18 44-244 34-105-6-192-10-192-9-1 0-5 53-9 119l-7 118 69-5c37-3 113-10 167-17 72-8 102-8 110 0 16 16 75 371 65 396-4 12-16 25-26 29-33 15-775 15-963 0zm470-82c0-5-10-58-22-119l-22-112-116-4c-63-2-116-4-117-4-2 1-63 233-63 240 0 9 340 7 340-1zm424-3c2-3-5-61-17-129l-21-123-55 6c-31 3-107 8-170 12l-113 7 6 41c4 22 14 76 23 119l17 79 162-4c89-1 165-5 168-8zm-821-117c15-64 24-120 20-123-10-8-313-44-319-38-2 3-17 52-33 109s-33 112-36 121c-5 13 1 18 27 23 33 6 214 21 278 24l35 1z"/>
  </g>
</svg>
