<?xml version="1.0"?>
<svg xmlns="http://www.w3.org/2000/svg" height="200pt" preserveAspectRatio="xMidYMid meet" viewBox="0 0 200 200" width="200pt">
  <g transform="matrix(.1 0 0 -.1 0 200)">
    <path d="m745 1878c-198-4-375-11-392-14-40-6-52-39-34-98 6-23 25-93 41-156 17-63 35-126 40-139l11-24 247 5 247 5 1-73c0-47-3-74-10-74-6 0-69-9-141-20-96-14-133-24-142-36-17-23-16-29 3-48 19-20 43-20 164-1 142 22 130 29 130-73v-89l-110-10c-150-13-147-9-130-165 15-133 16-169 11-326-3-83 0-107 14-128 17-26 19-26 89-20 159 14 492 19 514 7 24-13 56-2 65 23 3 8-1 148-9 313-17 363-2 334-172 327-64-3-132-7-149-9l-33-4v89 88l28 6c15 3 90 8 167 12 77 3 146 11 153 16 6 6 12 21 12 34 0 42-31 47-206 36-87-6-159-10-160-9s-4 34-5 72l-3 70 55 7c30 3 136 6 237 7 105 1 192 5 203 11 12 7 19 21 19 39 0 16 11 78 25 139 32 141 32 186 3 206-26 18-161 19-783 4zm715-85c0-4-12-55-26-115l-26-108h-130c-120 0-130 1-123 18 3 9 14 61 22 115l16 97h134c73 0 133-3 133-7zm-360-30c0-39-36-183-48-195-6-6-54-11-108-12l-97-1-44 105c-23 58-43 111-43 118 0 9 41 12 170 12h170zm-420-5c0-13 18-66 39-119l38-96-60-7c-33-3-97-6-142-6h-82l-28 103c-15 56-29 112-32 125-5 22-5 22 131 22 134 0 136 0 136-22zm572-833 3-55h-111c-118 0-297-15-351-29l-31-9-7 50c-4 27-5 52-2 55 8 7 147 22 303 32 217 14 192 20 196-44zm10-187c3-24 4-44 4-45-2-2-424-33-461-33-35 0-35 0-35 44 0 36 4 46 21 51 42 14 158 22 310 24l157 1zm8-186v-49l-197-7c-109-4-223-11-253-15-30-5-57-7-59-5-1 1 0 26 4 53l7 51 86 1c48 1 130 5 182 9 52 3 125 7 163 8l67 2z"/>
    <path d="m211 1081c-8-14-5-37 13-87 24-73 41-159 51-259 5-56-18-443-31-512-9-46 25-78 75-69 81 14 449 27 811 28 305 1 420-3 553-17 177-18 197-16 197 26 0 46-85 62-415 79-187 9-940-2-1069-16l-59-7 7 54c14 112 19 463 7 536-14 90-57 227-77 248-21 21-51 19-63-4z"/>
  </g>
</svg>
