<?xml version="1.0"?>
<svg xmlns="http://www.w3.org/2000/svg" height="200pt" preserveAspectRatio="xMidYMid meet" viewBox="0 0 200 200" width="200pt">
  <g transform="matrix(.1 0 0 -.1 0 200)">
    <path d="m1235 1903c-391-3-844-24-860-39-11-11-10-28 6-96 10-46 26-130 35-187 19-113 37-145 77-137 12 3 108 8 213 11l191 6-1-77-1-78-90-18c-121-25-153-36-166-60-8-16-8-24 4-35 13-14 27-13 121 6 58 11 112 21 120 21 14 0 16-21 16-148v-148l-107-13c-128-14-379-63-455-88-42-15-54-23-56-42-6-43 20-52 91-32 132 38 492 98 482 80-8-11-221-170-330-244-161-111-403-285-416-301-17-21-3-44 26-44 37 0 93 31 235 130 69 48 159 111 200 139l75 52 7-228c6-188 11-234 25-262l18-34 125 8c69 4 228 9 354 11s232 7 236 11 5 140 1 301l-6 294-24 19c-13 11-31 17-40 14-8-3-99-10-201-16-102-5-228-16-280-24s-95-13-96-12 55 47 124 101c118 93 131 100 187 108 98 15 448 14 617-1 127-11 161-11 173-1 19 16 19 44 1 59-25 21-197 34-459 35l-259 1 32 25c18 14 107 79 198 145 176 128 208 159 197 194-9 30-48 27-87-8-18-15-89-68-158-116-69-49-170-123-225-165s-105-79-111-83c-8-5-11 35-10 144 1 141 2 150 21 155 11 2 85 8 164 12 121 6 146 10 155 25 8 12 8 22 0 35-10 15-29 17-178 15l-166-2v71 70l260-3c157-2 263 1 269 6 8 10 55 264 65 358 7 57-16 88-61 85-16-2-140-4-278-5zm-156-130c0-27-6-88-12-138l-12-90-137-3c-136-3-138-2-142 20-9 44-36 216-36 231 0 18 36 22 233 25l107 2zm398-19c-3-33-13-93-22-132l-17-72h-149c-139 0-150 1-145 18 3 9 8 55 11 102s8 99 10 115l5 30h156 156zm-805-74c9-63 17-120 18-126 0-11-166-32-175-22-2 1-13 55-24 119s-24 124-27 133c-6 15 4 16 92 14l98-3zm648-1155v-85h-49c-65 0-389-28-466-40-33-6-63-10-67-10-5 0-8 38-8 85s4 85 8 85c5 0 58 7 118 16s188 19 284 23 176 9 178 9c1 1 2-36 2-83zm3-272c2-54 4-99 3-99 0-1-107-7-236-13s-261-14-292-18l-58-6v96 95l53 8c98 13 332 31 428 33l96 1z"/>
  </g>
</svg>
