<?xml version="1.0"?>
<svg xmlns="http://www.w3.org/2000/svg" height="200pt" preserveAspectRatio="xMidYMid meet" viewBox="0 0 200 200" width="200pt">
  <g transform="matrix(.1 0 0 -.1 0 200)">
    <path d="m1300 1888c-11-12-20-25-20-30 0-4-33-47-73-95-90-108-103-129-86-149 22-27 47-13 132 75 100 103 134 162 118 197-13 30-44 31-71 2z"/>
    <path d="m490 1875c-22-26-1-63 89-158 123-128 191-161 191-91 0 20-27 53-120 145-65 66-126 119-133 119-8 0-20-7-27-15z"/>
    <path d="m1175 1529c-268-24-531-61-636-89-37-10-40-13-37-43 5-49-1-49 411 18l27 5v-148-148l-135-18c-142-20-162-29-151-70 8-34 30-36 166-18 66 8 121 14 124 11 2-2 6-65 9-140l7-136-68-7c-105-10-514-95-540-112-15-10-22-23-20-36 6-44 25-44 274 5 132 26 265 49 297 53l57 6v-88c0-154 20-475 31-495 13-26 55-24 69 2 9 15 9 94 0 300-7 154-11 282-9 283 8 7 394 26 525 26 95 0 144 4 152 12 15 15 15 51 0 66-16 16-283 16-506 1-90-6-165-10-167-8s-7 67-11 145l-7 141 24 6c13 3 60 9 104 12 118 10 145 20 145 55 0 45-25 52-127 40-49-5-102-12-119-15l-31-5-6 108c-4 60-4 124-1 144l6 35 152 12c83 6 177 11 208 11 60 0 88 16 88 49 0 34-21 41-120 40-52-1-135-5-185-10z"/>
  </g>
</svg>
