<?xml version="1.0"?>
<svg xmlns="http://www.w3.org/2000/svg" height="200pt" preserveAspectRatio="xMidYMid meet" viewBox="0 0 200 200" width="200pt">
  <g transform="matrix(.1 0 0 -.1 0 200)">
    <path d="m1196 1873c-8-10-46-56-85-103-78-93-86-123-37-128 25-3 40 7 101 70 77 81 105 130 88 157-14 23-50 25-67 4z"/>
    <path d="m572 1868c-22-22-12-56 32-108 82-96 148-126 153-70 2 18-15 46-65 105-68 80-96 97-120 73z"/>
    <path d="m1145 1593c-22-2-112-12-200-23-289-36-314-44-301-94 8-34 24-37 113-21 140 25 137 27 148-72l7-59-92-11c-99-13-120-23-120-59 0-33 26-44 85-34 28 5 71 11 98 14l47 6v-89-88l-132-12c-73-7-143-14-155-17-27-5-39-40-21-61 11-14 31-15 144-10 73 4 139 9 147 13 19 7 17-5-25-133l-29-92-42-6c-23-3-91-10-152-16-163-15-374-48-404-62s-39-48-16-67c13-10 42-9 168 8 185 26 386 46 393 39 10-10-55-125-116-205-84-111-127-146-260-209-148-70-142-67-154-85-14-23 9-48 45-48 35 0 140 39 222 82 110 58 236 200 322 360l42 79 49-57c27-31 96-97 154-145 172-145 396-247 630-286 98-17 102-17 115 1 29 39-11 67-127 91-270 56-501 183-686 374-51 54-59 67-45 72 10 3 79 12 153 18s151 14 172 16c20 3 112 9 204 15 93 6 173 15 181 21 18 16 16 44-4 65-15 14-31 16-128 10-160-10-459-36-539-47-38-5-71-8-73-6-1 2 6 29 16 59 10 31 24 80 31 111l11 55 131 8c118 8 132 11 145 31 13 19 12 24-7 43-21 21-28 21-128 15-59-4-115-9-124-11-15-5-18 5-20 83l-3 88 74 10c58 8 77 15 88 32 13 19 12 24-6 42-17 17-28 19-94 14l-75-6-12 72c-7 40-10 74-9 76 2 1 60 8 127 15 68 6 130 14 138 17s14 18 14 34c0 22-6 32-26 39-14 6-31 9-37 8-7-1-30-3-52-5z"/>
  </g>
</svg>
