<?xml version="1.0"?>
<svg xmlns="http://www.w3.org/2000/svg" height="200pt" preserveAspectRatio="xMidYMid meet" viewBox="0 0 200 200" width="200pt">
  <g transform="matrix(.1 0 0 -.1 0 200)">
    <path d="m1594 1892c-18-12-112-140-119-162-7-23 9-50 30-50 17 0 91 74 129 128 34 49 31 92-7 92-12 0-27-4-33-8z"/>
    <path d="m1002 1863c-15-28-2-46 81-117 79-66 119-82 131-50 10 26-22 72-91 129s-105 68-121 38z"/>
    <path d="m595 1673c-171-21-382-56-392-65-18-14-16-43 3-58 12-11 32-11 110 0 52 7 97 10 100 7 8-8 27-147 21-153-2-3-49-12-103-20-143-21-257-45-271-56-18-14-16-43 3-58 12-11 40-9 152 8 75 12 156 25 179 28l43 7-6-64c-4-35-10-68-14-72-4-5-45-13-91-19-102-12-130-35-92-73 14-15 29-16 95-10l77 6-15-53c-55-183-131-341-234-483-75-103-81-126-32-133 34-5 58 14 110 88l50 71 17-78c51-233 49-227 78-241 22-11 56-10 207 8 134 15 186 18 201 10 11-6 28-8 38-5 24 7 46 59 36 82-4 10-10 114-14 231-5 196-8 215-25 228-27 19-72 17-263-9-90-13-163-22-163-21s9 24 21 51c11 26 34 95 50 152s31 106 34 109 73 11 157 18c187 17 195 19 204 46 5 17 0 27-20 43-23 19-26 27-26 88v67h128c135 0 152 5 152 47 0 35-29 43-159 43h-121l7 105c8 136 8 135-111 134-50-1-104-4-121-6zm141-84c3-6 3-44-1-84l-7-73-56-6c-31-4-78-9-104-12l-48-6v39c-1 21-5 58-10 83-4 25-7 46-6 48 3 2 152 18 203 21 12 0 25-4 29-10zm-6-318v-69l-42-5c-24-4-72-9-108-13l-65-6 3 71 4 70 31 6c53 8 90 12 135 14l42 1zm30-721c0-178 0-180-22-184-45-8-300-37-302-34-7 8-84 343-81 346 6 6 321 49 368 51l37 1z"/>
    <path d="m1350 1625c-85-7-189-14-231-14-85-1-113-14-107-51 4-33 32-38 166-32l112 5v-65c0-36 3-105 6-154l7-90-107-13c-104-13-136-26-136-55 0-37 75-44 216-20l32 6 4-134c3-73 4-134 4-135-1-1-77-9-170-17-93-9-176-22-183-28-8-6-13-23-11-37 3-25 5-26 78-26 41 0 122 4 180 8l106 9 1-214c2-194 14-373 29-411 9-24 35-29 61-11 24 15 25 19 18 82-11 110-20 371-17 469l3 92 62 5c34 3 134 9 221 13 135 7 161 11 170 26 8 12 8 22 0 35-10 15-32 17-232 16l-220-1-6 30c-3 16-6 76-6 133v104h69c74 0 101 14 101 50 0 32-36 43-110 36l-67-7-6 53c-4 29-7 98-7 154v101l61 7c34 3 84 6 110 6 36 0 54 5 70 21 18 18 19 23 6 42-18 28-62 29-277 12z"/>
  </g>
</svg>
