<?xml version="1.0"?>
<svg xmlns="http://www.w3.org/2000/svg" height="200pt" preserveAspectRatio="xMidYMid meet" viewBox="0 0 200 200" width="200pt">
  <g transform="matrix(.1 0 0 -.1 0 200)">
    <path d="m1070 1858c-51-73-62-114-34-125 26-10 62 17 109 81 47 62 53 84 33 104-29 29-57 13-108-60z"/>
    <path d="m618 1913c-21-5-32-36-23-63 7-24 114-115 145-125 23-7 50 10 50 32 0 16-114 140-140 152-8 4-23 6-32 4z"/>
    <path d="m1145 1693c-199-16-491-70-555-101-38-19-50-51-26-71 13-11 35-8 123 12 59 14 123 28 141 32l32 7v-54-54l-75-13c-77-13-105-29-105-61 0-33 31-41 108-26 82 16 82 16 82-91v-62l-32-5c-18-2-103-14-188-25-230-30-340-63-340-101 0-3 6-15 14-25 14-19 16-19 107 2 142 34 191 41 484 69 171 17 331 27 435 26 96 0 170 5 178 10 20 17 14 56-10 69-22 12-350 7-494-7l-61-6-6 83c-3 46-4 85-2 87 1 2 45 6 96 9 104 6 129 15 129 43 0 39-37 51-136 44l-91-7-7 48c-5 33-4 50 4 55 7 4 78 13 159 20 80 6 153 15 161 19 22 12 25 53 4 68-17 12-41 14-129 6z"/>
    <path d="m1200 1095c-24-28-1-244 35-337 5-13 0-18-27-22-59-10-483-64-485-63-1 1-3 50-4 108-3 105-2 107 30 157 27 42 30 54 21 71-20 39-53 26-108-43-28-35-79-88-113-117-137-119-126-106-107-125 23-23 77-12 130 29 71 54 68 56 68-22v-70l-32-6c-18-3-108-16-200-30s-181-30-197-36c-62-22-46-86 19-75 83 15 373 56 391 56 17 0 19-8 19-94 0-94 0-94-27-104-110-38-285-117-293-132-12-22-4-46 16-54 7-3 75 19 150 49 74 30 140 55 145 55s9-23 9-51c0-45-2-50-18-44-41 18-72 17-79-1-5-13 9-32 58-76 35-32 72-58 81-58 36 0 48 38 48 157v113l115 57c63 32 117 64 120 71 16 43-44 42-152-1l-81-34-7 79c-4 44-6 81-4 82 2 2 119 18 259 35 140 18 265 34 276 36 19 4 32-13 93-121 39-69 71-127 71-130s-51-29-112-59c-112-54-207-85-259-85-15 0-32-7-39-16-34-40 68-66 173-44 31 6 113 39 181 73l124 62 52-48c111-101 198-141 228-104 5 6 21 55 35 107 19 68 23 98 15 107-21 26-38 12-73-57-41-81-40-81-126-2l-52 48 52 49c61 57 74 78 66 105-13 41-43 34-106-24-33-31-64-56-69-56-18 0-139 194-128 205 2 3 101 9 219 15 117 7 224 16 237 21 29 11 30 54 2 69-15 8-77 8-223-1-111-6-222-12-246-13l-45-1-23 75c-13 41-26 111-29 155-8 115-10 125-38 125-13 0-29-7-36-15z"/>
    <path d="m1447 1033c-21-21-3-55 61-113 98-89 140-106 156-64 9 24-9 48-89 118-70 61-109 79-128 59z"/>
  </g>
</svg>
