<?xml version="1.0"?>
<svg xmlns="http://www.w3.org/2000/svg" height="200pt" preserveAspectRatio="xMidYMid meet" viewBox="0 0 200 200" width="200pt">
  <g transform="matrix(.1 0 0 -.1 0 200)">
    <path d="m1653 1659c-126-12-575-96-600-112-19-12-16-42 7-62 20-18 25-18 168 9 237 45 433 76 479 76h43v-640-640l-55 45c-58 47-82 55-91 30-8-19 136-197 171-213 67-31 86 1 75 118-5 47-9 372-9 723-1 623-1 637-21 657-22 22-33 22-167 9z"/>
    <path d="m800 1643c-19-2-138-18-265-34-126-17-256-33-287-36-65-6-94-28-83-62 3-12 16-23 29-27 12-3 149 11 304 30 328 42 342 43 342 19 0-10 7-99 15-198 24-286 30-618 15-854l-13-208-41 23c-44 26-90 31-102 12-11-18 159-178 190-178 51 0 52 8 59 301 10 406 9 572-8 799-8 113-17 245-21 294-9 123-19 132-134 119z"/>
    <path d="m1250 1305c-21-25-6-49 58-92 35-22 86-60 113-83 39-33 55-41 74-36 20 5 25 13 25 38 0 39-54 92-152 149-71 42-99 47-118 24z"/>
    <path d="m355 1290c-25-28-15-43 83-131 118-104 150-125 170-112 37 23 27 53-41 118-140 134-182 159-212 125z"/>
    <path d="m625 839c-33-34-130-127-215-207s-158-153-161-161c-10-24 9-51 35-51 28 0 149 104 288 248 116 120 162 186 147 213-16 30-31 23-94-42z"/>
    <path d="m1503 851c-54-44-260-252-316-320-42-51-49-94-17-111 22-12 60 2 60 21 0 6 55 67 123 137 161 166 237 258 237 286 0 3-9 10-19 16-16 8-28 3-68-29z"/>
  </g>
</svg>
