<?xml version="1.0"?>
<svg xmlns="http://www.w3.org/2000/svg" height="200pt" preserveAspectRatio="xMidYMid meet" viewBox="0 0 200 200" width="200pt">
  <g transform="matrix(.1 0 0 -.1 0 200)">
    <path d="m1379 1824c-211-17-253-27-257-67-4-35 24-47 87-36 56 10 330 29 412 29h59v-77c-1-163-25-315-72-446-15-42-25-56-35-52-8 3-32 8-52 11-80 13-53-58 37-98 56-25 77-17 106 40 64 128 94 273 102 492 7 219 10 215-116 216-52 1-174-4-271-12z"/>
    <path d="m699 1813c-19-2-123-19-229-37-203-35-228-45-204-83 17-27 67-27 241 3 87 14 209 29 272 32l114 5-7-79c-3-43-13-164-21-269-9-104-18-205-21-222l-6-33-62 3c-59 2-61 1-61-23 0-20 10-30 47-48 26-13 65-26 87-29 70-10 82 27 107 337 8 107 18 245 21 306 6 108 5 111-18 128-18 12-45 16-124 14-55-1-116-3-136-5z"/>
    <path d="m1222 1578c-31-31-9-68 74-122 48-31 74-26 74 15 0 22-12 38-56 73-59 48-73 53-92 34z"/>
    <path d="m464 1565c-12-29 7-65 45-91 84-55 124-2 50 67-44 40-85 51-95 24z"/>
    <path d="m559 1311c-145-104-182-140-177-171 5-37 33-48 62-25 276 222 294 239 282 271-11 28-45 13-167-75z"/>
    <path d="m1314 1346c-69-25-144-67-163-90s-6-66 20-66c11 0 57 21 102 46 119 67 162 112 121 128-9 3-16 6-17 5-1 0-30-10-63-23z"/>
    <path d="m993 1068c-47-62-199-200-285-261-100-70-114-87-99-115 4-9 11-55 15-102 11-147 47-434 56-457 12-28 37-29 195-9 61 8 189 18 286 22 157 6 177 5 182-10 8-19 50-21 65-3 12 14 29 119 67 407 29 218 31 273 10 290-20 17-324 7-495-15-63-8-121-15-129-15-7 0 11 21 40 47 114 101 180 191 166 226-9 25-54 21-74-5zm413-355c-3-21-9-68-12-104l-7-67-51-6c-28-3-107-6-176-6-125 0-345-14-406-26-36-7-34-9-50 127l-6 56 154 22c201 29 298 38 442 40l119 1zm-40-310c-4-27-12-73-18-104l-10-57-162-6c-88-4-217-14-285-22s-126-13-129-10c-5 6-31 166-32 197 0 21 83 30 385 39 127 3 236 7 244 8 10 2 12-8 7-45z"/>
  </g>
</svg>
