<?xml version="1.0"?>
<svg xmlns="http://www.w3.org/2000/svg" height="200pt" preserveAspectRatio="xMidYMid meet" viewBox="0 0 200 200" width="200pt">
  <g transform="matrix(.1 0 0 -.1 0 200)">
    <path d="m852 1888c-8-8-12-57-12-155 0-140 0-143-22-147-13-3-77-12-143-21-150-20-165-26-165-65 0-23 5-31 25-36 22-5 199 14 288 32l27 6v-199-200l-147-17c-282-33-368-46-442-65-73-20-93-33-88-60 5-29 34-36 94-23 53 12 625 82 630 77 2-1-61-64-140-141-151-149-358-330-495-433-95-72-104-97-34-95 55 1 139 57 323 216 77 68 158 138 178 156l38 32-13-67c-16-84-18-323-3-395 23-107 61-139 176-146 139-9 573 31 621 57 11 6 22 21 26 34 9 38-12 189-29 206-27 27-48-8-54-91l-6-73-40-7c-63-11-392-38-472-38-103 0-117 8-131 70-7 28-12 104-11 168l1 117 190 95c207 103 238 123 238 149 0 22-19 41-41 41-10 0-97-40-193-90-97-49-178-90-180-90s0 21 5 46c6 30 5 53-2 66-9 18 1 32 83 116 51 54 102 100 113 103 28 9 422 29 580 30 72 0 148 3 170 7 36 6 40 11 43 39 2 23-2 34-15 41-19 10-465 0-622-14l-83-7 78 94c96 115 167 209 266 354 101 147 113 172 99 201-17 39-52 31-80-19-37-64-203-296-291-405-129-160-199-232-226-232h-24v199 200l53 5c28 3 95 7 148 10 118 6 129 10 129 47 0 47-22 51-187 40-81-6-148-9-149-8-2 2-6 63-10 137s-11 141-17 148c-12 15-39 16-55 0z"/>
  </g>
</svg>
