<?xml version="1.0"?>
<svg xmlns="http://www.w3.org/2000/svg" height="200pt" preserveAspectRatio="xMidYMid meet" viewBox="0 0 200 200" width="200pt">
  <g transform="matrix(.1 0 0 -.1 0 200)">
    <path d="m950 1901c-5-11-10-65-10-120 0-98-1-101-22-101-63-1-331-39-340-48-14-14-6-53 14-65 15-10 216 3 316 20l32 5v-150-150l-37-6c-365-56-637-108-660-127-20-17-16-47 10-63 20-13 41-10 194 20 147 28 428 73 568 89l40 5-25-18c-13-9-76-55-140-101-211-155-324-232-470-321-165-101-190-121-190-154 0-32 23-39 66-21 100 41 416 248 684 445 74 55 162 118 194 140l59 40h292c213 0 294 3 303 12 18 18 14 56-7 68-12 6-109 10-243 10-201 1-221 2-203 16 210 158 274 225 246 258-21 25-54 19-87-15-16-17-96-80-178-142-156-116-173-124-286-126l-36-1 2 147c1 81 6 148 10 150 5 1 101 9 214 17 189 14 206 17 222 37 22 26 22 33 2 53-19 19-23 19-249 1-99-8-186-15-192-15-10 0-13 26-13 96 0 107-9 134-45 134-14 0-29-8-35-19z"/>
    <path d="m1280 943c-64-24-303-93-325-93-7 0-9 13-7 33 4 39-17 62-48 52-22-7-65-85-124-229-39-94-41-130-7-141 10-3 102 1 205 10 103 8 224 15 268 15h81l-7-32c-3-18-25-97-48-176-38-131-43-143-62-138-12 3-81 14-155 26-100 15-137 17-147 9-18-15-18-33 0-48 12-10 234-68 323-85 57-10 75 18 126 199 77 271 79 303 21 325-33 13-181 13-361-1-79-6-147-9-149-6-3 2 3 23 12 46 13 32 21 41 41 41 54 0 337 82 446 129 53 23 64 39 47 70-14 28-48 26-130-6z"/>
  </g>
</svg>
