<?xml version="1.0"?>
<svg xmlns="http://www.w3.org/2000/svg" height="200pt" preserveAspectRatio="xMidYMid meet" viewBox="0 0 200 200" width="200pt">
  <g transform="matrix(.1 0 0 -.1 0 200)">
    <path d="m874 1898c-4-7-8-49-8-93l-1-80-159-20c-139-18-160-23-173-42s-12-24 6-42c25-25 20-25 196-2 77 10 141 18 141 17 1 0 5-108 8-238l7-237-33-5c-43-6-556-75-587-78-32-4-50-32-35-55 16-26 91-27 257-4 201 29 470 62 474 57 2-2-65-65-149-141-105-94-201-169-308-240-174-115-189-128-170-150 30-36 104-7 270 105 50 33 92 60 94 60 3 0 5-73 5-163 0-178 16-386 31-401 6-6 10-18 10-28 0-36 34-41 199-29 324 22 382 23 402 5s64-13 70 8c2 7 2 185-1 396-4 326-7 384-20 392-18 12-139 5-359-21-90-11-165-18-167-16s54 57 124 123c97 93 135 122 162 127 37 7 292 33 447 46 94 8 123 20 123 51 0 36-25 43-133 37-56-3-145-10-197-16s-114-13-137-15l-42-3 86 96c122 137 185 228 181 265-2 16-11 34-21 40-21 12-28 5-109-105-25-35-98-121-162-190-112-123-116-126-163-132-26-3-49-4-50-3s-5 108-9 239c-7 229-6 237 12 238 10 0 104 4 207 7 171 6 190 9 203 26 19 26 18 32-7 57-21 21-28 22-148 16-69-4-160-9-203-13l-76-7-7 69c-3 38-10 76-14 84-10 19-57 25-67 8zm451-1212v-115l-65-6c-36-4-150-15-254-26-103-11-194-18-202-15-11 4-14 30-14 116 0 60 1 110 3 111 29 8 403 47 457 48l75 1zm3-349 3-137h-48c-60 0-330-18-404-26l-56-6-6 43c-4 24-9 86-13 137l-7 92h62c33 0 125 7 203 15 160 17 226 22 248 21 12-1 15-25 18-139z"/>
  </g>
</svg>
