<?xml version="1.0"?>
<svg xmlns="http://www.w3.org/2000/svg" height="200pt" preserveAspectRatio="xMidYMid meet" viewBox="0 0 200 200" width="200pt">
  <g transform="matrix(.1 0 0 -.1 0 200)">
    <path d="m509 1909c-8-15-8-42 0-102 18-130 20-124-46-132-80-9-253-43-281-55-14-6-22-18-22-34 0-44 26-48 161-22 198 38 207 39 213 19 2-10 8-56 11-103l7-85-102-22c-141-30-182-62-127-97 19-13 34-12 127 10 57 13 105 22 106 21s4-88 6-193l5-191-88-17c-112-21-257-63-286-82-27-17-30-46-8-64 13-11 31-8 103 13 105 32 223 60 229 54 14-15-151-343-243-482-36-55-72-112-80-127-30-58-7-94 43-67 38 21 175 234 259 404l74 150v-303c0-190 4-311 10-323 13-23 52-25 70-4 9 11 12 95 13 329v314l70-49c91-64 137-65 137-4 0 8-47 47-105 86-61 43-105 80-105 89 0 17 65 31 218 47 54 5 66 10 74 29 25 55-31 66-197 39-49-8-91-12-94-10-2 3-6 89-9 193l-5 189 61 7c46 5 65 12 76 28 31 44-7 71-85 59-30-5-55-8-57-6-5 5-24 186-20 190 2 3 36 9 75 15 38 5 77 12 86 16 22 8 29 32 16 56-10 18-19 20-102 16l-92-3-13 100c-7 55-18 105-24 112-16 20-46 16-59-8z"/>
    <path d="m1540 1845c-10-12-10-47-3-157 6-79 9-145 7-147-3-3-200-40-216-41-5 0-8 26-8 58 0 79-18 230-31 253-12 22-42 25-58 5-9-11-10-52-1-172 6-86 9-158 7-160s-39-11-83-20c-90-18-104-27-104-60 0-31 33-39 100-25 83 18 80 20 80-61 0-84-15-272-31-405l-11-91-87-12c-122-17-163-27-172-42-12-19-11-24 8-44 17-17 26-17 182 2l54 7-7-39c-23-122-112-310-232-490-57-84-63-104-40-123 36-30 87 22 185 187 107 180 146 271 174 412l13 65 44 6c25 4 86 10 136 14l91 7 6-153c4-83 7-235 7-336 0-170 1-184 20-203 24-24 30-24 55-6 17 12 18 30 12 359l-6 346 111 3c93 3 113 6 122 20 8 13 8 23 0 35-9 15-29 18-126 21l-115 3 5 297c3 203 8 299 16 304 6 4 23 8 37 8 32 0 52 21 47 52-3 20-10 23-49 26l-46 3-12 142c-7 78-17 148-23 154-14 17-43 16-58-2zm4-487c-2-51-5-182-8-291-2-109-6-200-9-203-3-4-247-32-247-29 0 0 7 63 15 140s17 206 21 288c8 168-7 148 124 171 118 22 108 29 104-76z"/>
  </g>
</svg>
