<?xml version="1.0"?>
<svg xmlns="http://www.w3.org/2000/svg" height="200pt" preserveAspectRatio="xMidYMid meet" viewBox="0 0 200 200" width="200pt">
  <g transform="matrix(.1 0 0 -.1 0 200)">
    <path d="m1290 1789c-571-27-1112-83-1157-120-18-15-17-44 3-60 13-10 49-8 210 15 108 15 197 26 200 24 5-5 28-224 54-503 11-121 27-272 35-335 21-176 28-290 16-290-51 0-594-85-612-95-5-4-9-17-9-30 0-45 25-47 210-20 336 50 894 115 993 115h37v-216c0-129 4-223 10-235 12-21 50-25 68-7 9 9 12 76 12 239v227l78 7c42 3 160 10 262 14 113 4 194 12 208 19 31 18 29 50-5 59-37 10-358 10-457 0l-78-8 7 183c4 101 7 350 8 555 1 366 1 372 21 377 12 3 86 6 166 6 100 0 150 4 158 12 18 18 14 56-7 68-22 11-171 11-431-1zm5-181c4-51 5-111 3-133l-3-40-75-7c-119-12-461-58-505-68-22-5-41-8-42-6-5 5-33 229-33 267v37l53 6c28 3 133 10 232 16s200 12 225 13c25 2 66 4 92 5l46 2zm-5-433v-165h-37c-53 0-339-38-450-59l-91-17-6 40c-11 84-28 287-24 292 12 11 465 71 556 73l52 1zm-11-417c-4-90-7-166-8-170-1-5-22-8-48-8-27 0-129-9-228-20-260-28-243-31-249 33-10 106-23 252-21 254 7 12 422 70 505 72l55 1z"/>
  </g>
</svg>
