<?xml version="1.0"?>
<svg xmlns="http://www.w3.org/2000/svg" height="200pt" preserveAspectRatio="xMidYMid meet" viewBox="0 0 200 200" width="200pt">
  <g transform="matrix(.1 0 0 -.1 0 200)">
    <path d="m623 1785c-157-16-419-54-450-66-15-6-23-17-23-33 0-41 21-49 97-37 37 6 68 9 70 7 2-1 8-88 14-192s14-224 18-267l7-77-40-11c-79-21-165-61-171-79-16-50 24-68 87-40 70 31 276 87 362 99 120 17 113 20 121-49 9-80 43-114 75-75 10 12 10 70 1 288-6 149-11 314-11 365v92h38c61 0 97 56 53 80-24 12-79 11-248-5zm77-150v-64l-32-5c-156-24-227-36-241-42-15-5-17 2-17 70 0 42 1 76 3 77 12 5 203 27 240 28l47 1zm0-204v-50l-57-6c-32-3-95-12-140-19l-83-13v48 47l48 11c66 16 150 28 195 30l37 1zm2-196 3-55h-55c-30 0-86-7-125-15-38-8-73-15-76-15-8 0-22 100-15 107 8 8 159 31 213 32l51 1z"/>
    <path d="m1385 1623c-214-13-308-25-345-44-47-25-46-18-25-204 8-71 15-158 15-192 0-51 4-67 21-84 19-19 28-21 83-14 33 4 156 8 271 10 189 4 211 6 221 22 15 23 54 335 54 425 0 56-3 69-19 78-18 9-153 11-276 3zm205-125c-1-48-34-306-41-312-2-2-99-6-216-8l-211-4-7 81c-3 44-11 118-17 164-8 66-8 85 3 91 7 5 60 11 118 15 58 3 117 7 131 9s73 4 133 5l107 1z"/>
    <path d="m990 869c-244-32-454-70-477-85-27-17-29-36-8-54 18-15 49-12 283 24l152 23v-96-97l-97-12c-105-13-123-22-123-59 0-34 20-38 129-25 52 6 96 10 97 9s5-41 9-88l7-87-74-6c-120-11-631-86-655-96-15-6-23-18-23-34 0-50 10-50 309-7 348 51 485 61 821 61 243 0 402-12 487-36 32-9 67 29 53 57-27 50-196 70-560 68-262-1-275-1-277 17-1 11-4 51-5 91l-4 71 116 7c81 5 120 12 133 23 22 19 22 27-3 52-18 18-29 20-108 15-48-3-99-8-114-10l-28-4v98 98l53 8c28 4 121 9 204 10 153 2 183 9 183 41 0 7-7 20-16 28-22 23-275 20-464-5z"/>
  </g>
</svg>
