<?xml version="1.0"?>
<svg xmlns="http://www.w3.org/2000/svg" height="200pt" preserveAspectRatio="xMidYMid meet" viewBox="0 0 200 200" width="200pt">
  <g transform="matrix(.1 0 0 -.1 0 200)">
    <path d="m1510 1850c-141-9-377-36-404-46-24-9-27-34-16-155 5-63 13-199 17-302 6-185 7-189 30-200 18-8 27-7 41 6s42 16 157 15c77 0 205 3 284 7l144 8-7-139c-3-77-10-227-16-334-5-107-9-263-10-345v-151l-35 4c-32 4-35 2-35-22 0-34 40-72 92-88 69-20 67-26 73 352 3 184 10 382 15 440 6 58 10 286 10 506 0 481 9 448-122 450-45 1-144-2-218-6zm250-179v-98l-192-7c-106-3-233-9-281-12-49-4-92-3-97 2-4 5-10 47-12 94l-3 85 75 8c121 12 318 24 418 26l92 1zm0-294v-104l-116-7c-64-3-190-9-280-13l-164-6v60c0 33-3 81-6 107l-7 46 69 1c38 1 101 5 139 9 39 4 136 8 218 8l147 2z"/>
    <path d="m462 1815c-67-7-138-16-158-20-22-4-41-2-49 5-21 17-54 2-61-27-4-14-1-80 6-147 9-80 14-344 17-784 5-646 5-664 25-684 17-17 22-18 41-5l22 14 3 476 2 475 28 6c15 3 128 9 252 12 124 4 233 11 243 16 15 8 17 25 17 136 0 203-20 494-36 520-14 21-21 22-122 21-59-1-162-7-230-14zm278-113c0-22 3-73 6-114l7-75-229-6c-125-4-229-6-230-4-1 1-5 48-9 103l-7 102 63 7c135 16 217 22 307 24l92 1zm-2-278c21-6 22-11 22-99v-93l-147-6c-82-3-182-10-224-14l-77-8-7 99c-4 54-4 102 0 105 6 6 130 13 355 20 30 1 65-1 78-4z"/>
    <path d="m1035 989c-257-7-432-26-462-51-8-6-13-23-11-37 3-26 4-26 80-24l76 3 6-68c3-37 8-125 12-197 3-71 8-138 10-147 5-16-3-18-66-18-83 0-110-11-110-45 0-42 29-49 182-41 76 3 201 9 278 13l140 6v-105c0-81 3-108 15-118 21-17 61-4 69 22 3 13 9 182 12 376l7 352h93c71 0 96 4 108 16 21 20 20 30-4 54-22 22 15 22-435 9zm73-89h82v-50-50l-97-1c-54 0-140-4-191-7l-92-7-2 43c0 23-1 48-2 55-1 13 121 27 184 21 19-2 72-4 118-4zm72-224v-34l-112-1c-62-1-143-4-180-7l-68-7v36c0 43-1 43 213 45l147 2zm0-162v-44h-62c-35 0-114-3-175-7l-113-6v46 46l108 3c59 2 137 4 175 4l67 1z"/>
  </g>
</svg>
