<?xml version="1.0"?>
<svg xmlns="http://www.w3.org/2000/svg" height="200pt" preserveAspectRatio="xMidYMid meet" viewBox="0 0 200 200" width="200pt">
  <g transform="matrix(.1 0 0 -.1 0 200)">
    <path d="m974 1823c-15-15-16-35-12-174l5-158-75-16c-120-27-144-44-121-87 9-17 18-19 50-15 37 5 38 4 53-37 9-22 24-65 35-93l19-53-41-11c-108-29-137-51-117-90 13-23 38-24 104-4 101 31 536 104 619 105h37v-55c0-75 46-484 64-570l15-70-56-68c-31-37-76-85-100-106-47-42-54-65-23-81s80 12 149 86l59 63 17-42c24-60 145-236 167-243 30-9 58 23 58 65 0 20 4 62 10 94 11 68 5 89-23 85-14-2-25-16-35-46-18-54-28-47-77 50-55 111-55 123 3 220 104 173 122 227 82 248-27 14-52-13-109-118-41-77-61-99-61-69 0 6-11 106-25 222s-25 240-25 276c0 76 3 79 81 79 77 0 111 28 89 71-9 16-22 19-95 19h-85v235c0 221-1 235-19 245-25 13-27 13-45-6-14-13-16-50-16-250v-234l-22-4c-13-2-77-11-143-20s-136-19-156-22l-36-6 25 98c14 55 30 102 35 106 6 3 35 9 66 13 64 8 81 18 81 50 0 47-19 49-171 25-106-17-143-19-149-10-4 6-10 75-14 152-3 78-11 147-17 155-15 18-34 16-55-4zm156-400c0-25-54-199-64-205-6-4-23-8-37-8-23 0-28 5-34 38-3 20-17 61-31 91-13 30-23 55-22 56 2 2 138 27 181 34 4 0 7-2 7-6z"/>
    <path d="m785 1693c-72-9-265-48-450-90-214-49-246-64-226-102 13-23 41-26 104-12 27 7 39 6 42-2 23-68 66-694 65-952l-1-80-88-42c-108-52-187-118-177-150 13-40 41-37 109 11 65 46 355 179 427 195l40 9v-137c0-145 13-266 31-288 31-36 89 4 74 51-4 11-11 230-15 486-5 256-16 548-24 650-9 102-16 222-16 266 0 93-7 86 105 99 69 8 85 18 85 51 0 21-27 46-47 43-4-1-21-4-38-6zm-185-276v-154l-106-11c-58-7-110-9-115-6s-9 20-9 37c-1 18-9 78-18 133l-18 102 111 25c172 39 155 53 155-126zm13-314c4-38 7-98 7-135 0-67 0-68-27-68-16 0-65-9-110-19l-83-18-4 31c-3 17-7 81-10 143l-5 112 57 6c31 4 62 8 67 10 6 2 31 4 56 4l46 1zm17-413v-119l-42-11c-24-6-72-22-107-36s-65-24-66-22-6 65-10 141c-5 111-4 137 7 138 7 0 40 6 73 14 33 7 79 14 103 14l42 1z"/>
    <path d="m1760 1645c-18-22-6-78 32-155 30-58 36-65 63-65 25 0 31 4 33 27 2 14-8 48-21 75-13 26-28 59-32 73-9 31-34 60-50 60-7 0-18-7-25-15z"/>
    <path d="m1040 951c-172-26-175-26-184-53-7-19-3-103 12-270 12-134 25-299 28-368 4-69 11-130 16-137 6-8 63-10 206-7 108 3 207 7 219 10 29 6 49 40 33 59-15 18-40 249-40 381 0 210-12 385-27 400-19 19-56 17-263-15zm200-196v-135h-47c-27 0-88-5-137-10-49-6-91-8-94-5-3 2-10 59-17 125-11 118-11 121 9 125 40 8 221 32 254 34l32 1zm1-272c0-27 6-97 13-158 8-60 12-111 11-113s-65-6-142-9l-140-6-6 99c-4 54-7 127-7 161v62l48 4c26 2 86 4 135 5l87 2z"/>
  </g>
</svg>
