<?xml version="1.0"?>
<svg xmlns="http://www.w3.org/2000/svg" height="200pt" preserveAspectRatio="xMidYMid meet" viewBox="0 0 200 200" width="200pt">
  <g transform="matrix(.1 0 0 -.1 0 200)">
    <path d="m902 1813c-5-10-12-65-15-123-4-58-14-134-24-170l-18-64-155-18c-85-10-207-27-270-37-63-11-138-22-167-26s-57-13-64-21c-13-15-10-139 10-529 17-318 31-478 43-492 6-7 21-13 34-13 41 0 47 28 35 168-5 70-13 190-16 267s-12 227-21 334c-8 106-14 194-12 195 5 4 395 60 491 71 41 5 57 3 57-5 0-7-35-75-77-152-60-107-96-160-156-224-58-62-78-89-75-106 5-35 46-35 95 1 67 49 145 152 218 289 38 70 70 129 71 131 2 1 40-26 86-62 123-95 319-222 372-240 55-19 76-14 76 19 0 19-32 45-177 143-98 66-205 141-238 168l-60 48 30 6c17 4 191 7 388 8 337 1 358 0 353-16-15-53-38-387-44-655l-7-306-67 40c-157 93-117-24 45-135 61-42 88-43 109-4 7 14 14 153 19 422 5 258 13 443 23 520 21 159 20 188-3 209-17 16-54 17-433 14l-414-3 13 55c20 82 28 261 14 288s-56 29-69 5z"/>
    <path d="m912 927c-6-7-18-35-27-62-34-105-124-271-195-358-78-96-87-129-38-135 20-2 39 7 74 40 41 37 135 166 146 200 3 7 41-13 97-49 133-88 286-163 347-170 58-6 94 8 94 38 0 21-12 28-100 54-66 20-345 178-388 219-1 2 9 29 23 61 32 71 42 139 25 160-15 18-44 20-58 2z"/>
  </g>
</svg>
