<?xml version="1.0"?>
<svg xmlns="http://www.w3.org/2000/svg" height="200pt" preserveAspectRatio="xMidYMid meet" viewBox="0 0 200 200" width="200pt">
  <g transform="matrix(.1 0 0 -.1 0 200)">
    <path d="m380 1738c-96-5-179-13-184-18-6-6-5-50 2-117 18-166 25-626 13-823-6-96-22-256-36-354-31-224-32-271-5-286 14-8 26-8 40 0 21 11 25 24 35 105 3 28 16 131 30 230 13 99 27 258 31 353l7 172h178 179v-361-361l-30 26c-37 31-60 25-60-16 0-42 63-104 114-113 69-13 69-14 67 302-1 153 3 494 8 758 9 432 8 482-6 498-18 20-81 20-383 5zm306-100c-3-13-6-60-6-105v-83h-58c-32 0-112-7-177-15-66-8-125-15-131-15-7 0-13 36-17 93-4 50-10 102-13 114-6 22-5 22 117 26 68 1 162 4 208 5 82 2 83 2 77-20zm-8-410-3-133-181-3-181-2-5 117c-3 65-5 119-4 120 4 5 250 31 309 32l68 1z"/>
    <path d="m1490 1683c-237-11-507-36-532-49-35-18-42-46-34-132 3-37 10-294 15-572 10-489 11-508 34-598 48-178 45-177 402-177 214 0 298 4 404 20 111 16 135 22 146 40 7 11 20 90 30 175 19 169 14 225-20 225-22 0-26-13-55-175-12-69-23-134-26-146-6-34-156-49-476-49-224 0-270 2-282 15-8 8-25 53-37 100-19 76-22 117-27 406l-5 322 129 8c71 5 237 8 369 6 132-1 249 0 260 2 43 11 53 57 68 306 12 201 12 238 0 258-13 21-18 22-156 20-78-1-171-3-207-5zm277-175c-4-51-10-144-13-205l-7-113h-137c-76 0-151 3-167 6l-29 6-12 151c-7 84-12 171-12 194v42l73 4c39 1 125 4 191 5l119 2zm-457-1c0-41 3-128 6-194l7-120-94-7c-52-4-117-9-145-12l-50-6-16 194c-8 106-14 195-12 197 5 5 152 18 232 20l72 1z"/>
  </g>
</svg>
