<?xml version="1.0"?>
<svg xmlns="http://www.w3.org/2000/svg" height="200pt" preserveAspectRatio="xMidYMid meet" viewBox="0 0 200 200" width="200pt">
  <g transform="matrix(.1 0 0 -.1 0 200)">
    <path d="m883 1888c-4-7-10-67-13-133l-5-119-100-14c-55-7-169-21-254-31-122-13-157-20-165-34-8-12-8-22 0-34 16-26 92-27 289-4 93 11 171 18 173 16s-41-78-97-168c-101-164-116-202-85-227 17-15 27-13 244 34 63 14 175 36 247 49l133 24 32-51c37-58 78-73 97-37 14 26 8 41-86 191-71 113-81 125-107 125-56 0-58-34-6-112l21-32-23-5c-13-2-115-22-228-44s-206-39-207-38c-2 2 164 278 179 298 18 24 165 37 483 45 212 5 263 8 278 21 20 18 22 43 5 60-21 21-519 11-685-14l-43-6v114c0 75-4 118-12 126-16 16-55 15-65 0z"/>
    <path d="m1085 1078c-55-6-167-17-250-26-141-16-150-18-163-42-10-20-12-71-8-240 3-118 0-293-6-389-10-169-10-174 10-194 18-18 25-19 47-9 18 8 25 19 25 39 1 53 19 315 23 319 11 12 226 36 365 41l162 6v-151-151l-71 40c-76 43-99 44-99 5 0-29 68-93 155-145 52-31 56-32 79-18l23 16 7 408c4 225 5 425 1 446s-16 42-26 47c-21 12-135 11-274-2zm215-135v-58l-108-3c-59-1-181-9-271-18-90-8-166-13-169-10s-7 27-10 54l-4 48 148 13c82 6 187 16 234 20 47 5 106 9 133 10l47 1zm0-162c0-10-3-38-6-63l-6-45-147-6c-80-3-197-13-258-23-62-9-116-14-120-11-4 4-9 34-11 66l-4 58 33 6c19 4 99 11 179 17 342 25 340 25 340 1z"/>
  </g>
</svg>
