<?xml version="1.0"?>
<svg xmlns="http://www.w3.org/2000/svg" height="200pt" preserveAspectRatio="xMidYMid meet" viewBox="0 0 200 200" width="200pt">
  <g transform="matrix(.1 0 0 -.1 0 200)">
    <path d="m1312 1958c-21-27-22-62-7-210 8-84 15-170 15-190 0-35-2-38-29-38-47 0-275-41-288-52-18-15-16-58 3-65 9-3 82 4 161 16 80 13 148 20 151 16 4-4 7-64 7-133v-127l-130-17c-71-9-151-17-176-17-28-1-51-7-59-16-17-20-8-112 30-320 16-88 32-182 37-209 9-55 32-78 60-60 24 16 22 98-7 240-22 107-50 277-46 281 3 3 248 33 272 33 21 0 21-1 33-497 12-477 14-499 33-515 15-13 25-15 38-8 24 13 28 111 17 465-4 143-6 330-5 415l3 155 173 3 172 2v-100c0-89-27-389-35-399-2-2-34 13-70 34-104 58-128 30-47-53 77-79 180-105 198-50 9 31 21 158 35 395 11 184 11 203-4 227l-17 26-208 2-207 3-3 126-3 126 113 6c62 4 140 7 173 7 90 0 130 35 86 74-16 15-35 16-152 11-74-3-154-8-179-10l-46-5-18 197c-9 109-19 208-22 221-5 24-35 30-52 10z"/>
    <path d="m380 1738c-96-5-179-13-184-18-6-6-5-50 2-117 18-166 25-626 13-823-6-96-22-256-36-354-31-224-32-271-5-286 14-8 26-8 40 0 21 11 25 24 35 105 3 28 16 131 30 230 13 99 27 258 31 353l7 172h178 179v-361-361l-30 26c-37 31-60 25-60-16 0-42 63-104 114-113 69-13 69-14 67 302-1 153 3 494 8 758 9 432 8 482-6 498-18 20-81 20-383 5zm306-100c-3-13-6-60-6-105v-83h-58c-32 0-112-7-177-15-66-8-125-15-131-15-7 0-13 36-17 93-4 50-10 102-13 114-6 22-5 22 117 26 68 1 162 4 208 5 82 2 83 2 77-20zm-8-410-3-133-181-3-181-2-5 117c-3 65-5 119-4 120 4 5 250 31 309 32l68 1z"/>
  </g>
</svg>
