<?xml version="1.0"?>
<svg xmlns="http://www.w3.org/2000/svg" height="200pt" preserveAspectRatio="xMidYMid meet" viewBox="0 0 200 200" width="200pt">
  <g transform="matrix(.1 0 0 -.1 0 200)">
    <path d="m548 1860c-54-4-109-10-122-14-31-8-41-36-27-79 5-17 22-135 36-262 15-126 31-238 37-249 10-18 18-19 222-12 116 5 350 10 520 12 247 3 311 6 318 17 6 12 13 105 34 452 6 97 5 113-10 128-16 16-55 17-464 16-246-1-491-5-544-9zm380-162-3-83-85-6c-47-4-140-10-206-14l-121-7-7 59c-4 32-10 72-13 90l-5 32 68 4c38 1 138 4 222 5l153 2zm546-5c-4-49-7-89-8-89 0-1-103 1-228 4l-228 5v83 84h236 235zm-546-264 3-87-128-7c-70-4-157-8-193-8l-65-2-6 55c-3 30-9 72-13 92l-7 37 98 4c54 2 145 3 203 3l105-1zm532 37c0-29-3-67-6-84l-6-30-212-4c-116-2-212-4-212-3-1 0-4 39-8 88l-6 87h225 225z"/>
    <path d="m990 1164c-80-7-188-13-241-13-65-1-101-5-115-15-18-14-19-30-19-448 0-238-4-449-8-470-8-30-6-39 13-58s24-20 43-7c28 18 34 53 43 248l7 156 66 7c87 8 401 8 480 0l61-7v-138c0-77-2-139-4-139-3 0-25 14-51 31-51 34-78 35-83 1-3-17 13-39 63-87 72-70 94-82 124-66 33 18 42 113 48 553 6 379 5 419-11 442-16 26-18 26-144 25-70-1-192-7-272-15zm340-174v-100h-247c-137 0-278-3-315-7l-68-6v92 91l63 1c34 0 125 6 202 13s191 14 253 15l112 1zm0-257v-78h-287c-159-1-300-4-315-8l-28-7v80 80l313 3c171 1 313 3 315 5 1 1 2-33 2-75z"/>
  </g>
</svg>
