<?xml version="1.0"?>
<svg xmlns="http://www.w3.org/2000/svg" height="200pt" preserveAspectRatio="xMidYMid meet" viewBox="0 0 200 200" width="200pt">
  <g transform="matrix(.1 0 0 -.1 0 200)">
    <path d="m632 1908c-7-7-12-42-12-85 0-67-2-73-22-77-160-33-263-58-274-67-18-15-18-43 0-58 11-10 42-7 139 13 68 14 133 26 144 26 19 0 21-9 27-156 4-86 4-160-1-164-4-4-53-26-108-49-125-53-221-106-229-127-8-20 10-54 29-54 9 0 66 25 128 54 61 30 171 77 243 104 149 57 189 76 285 138 121 77 74 101-73 38-45-20-104-44-130-54l-46-17-6 81c-3 44-11 162-17 261s-16 186-21 193c-13 15-40 16-56 0z"/>
    <path d="m1106 1888c-33-47-9-537 29-595 27-40 80-46 340-38 153 4 245 11 254 18 11 9 12 38 6 147-8 143-16 180-39 180-25 0-31-22-36-140l-5-115h-225-225l-13 100c-11 83-11 101 0 108 293 169 433 259 442 282 8 22-29 56-51 48-10-4-105-60-212-125-106-65-195-118-198-118-2 0-3 56-2 123 1 68-1 129-5 135-12 19-44 14-60-10z"/>
    <path d="m1235 1203c-90-4-459-51-505-63-64-18-67-29-73-290-6-270-39-521-82-635-29-78-31-107-10-125 48-40 104 79 136 290 11 74 21 140 23 146 3 6 52 14 123 19 131 8 466 21 471 18 4-2 21-357 17-361-1-1-35 20-75 48-124 85-168 54-62-44 147-138 187-159 217-112 14 20 14 49 5 232-5 115-14 306-20 424-15 337-21 418-33 434-15 19-44 23-132 19zm65-172v-89l-117-7c-101-6-273-28-405-51l-38-7v92c0 86 1 91 23 96 53 13 389 52 460 54l77 1zm10-260c0-49 3-96 6-104 4-12-18-15-138-20-79-2-209-11-290-18s-149-11-151-8c-2 2-1 42 2 89l6 85 130 22c108 19 257 34 408 42l27 1z"/>
  </g>
</svg>
