<?xml version="1.0"?>
<svg xmlns="http://www.w3.org/2000/svg" height="200pt" preserveAspectRatio="xMidYMid meet" viewBox="0 0 200 200" width="200pt">
  <g transform="matrix(.1 0 0 -.1 0 200)">
    <path d="m1032 1878c-5-7-13-40-17-73-15-130-39-217-112-398-41-103-72-194-69-202 9-25 52-17 78 13 13 16 41 74 63 130s45 104 52 107c55 20 704 88 717 74 14-14 26-191 26-372 0-284-46-673-102-859-11-37-13-38-42-32-17 4-45 13-63 22-34 16-63 11-63-12 0-24 76-81 134-101 52-18 56-18 74-2 65 59 152 621 152 980 0 271-22 437-61 457-33 18-585-32-728-65-20-5-22-3-16 12 14 36 45 215 45 261 0 27-5 53-12 60-16 16-43 15-56 0z"/>
    <path d="m380 1738c-96-5-179-13-184-18-6-6-5-50 2-117 18-166 25-626 13-823-6-96-22-256-36-354-31-224-32-271-5-286 14-8 26-8 40 0 21 11 25 24 35 105 3 28 16 131 30 230 13 99 27 258 31 353l7 172h178 179v-361-361l-30 26c-37 31-60 25-60-16 0-42 63-104 114-113 69-13 69-14 67 302-1 153 3 494 8 758 9 432 8 482-6 498-18 20-81 20-383 5zm306-100c-3-13-6-60-6-105v-83h-58c-32 0-112-7-177-15-66-8-125-15-131-15-7 0-13 36-17 93-4 50-10 102-13 114-6 22-5 22 117 26 68 1 162 4 208 5 82 2 83 2 77-20zm-8-410-3-133-181-3-181-2-5 117c-3 65-5 119-4 120 4 5 250 31 309 32l68 1z"/>
    <path d="m1394 1402c-6-4-39-46-73-94s-66-90-72-93c-5-4-31 9-56 29-59 46-80 46-97 2-5-15 5-30 45-67l52-48-41-63c-72-114-132-244-119-257 28-28 70-1 114 74 86 146 116 195 118 195s41-31 86-70c83-70 116-83 139-55 20 24 2 51-86 125-54 46-82 75-77 83 5 7 36 54 70 105 41 61 60 99 56 110-7 19-23 32-38 32-5 0-15-4-21-8z"/>
    <path d="m1600 1080c-18-18-20-33-20-148 0-71-3-170-6-219l-7-91-81 5c-114 7-375-23-447-52-14-5-18 4-23 62-16 156-48 350-62 371-8 12-23 22-34 22-36 0-39-28-19-160 10-69 21-172 24-230 11-197 18-208 110-164 76 35 182 53 358 61 141 6 150 5 177-16 35-25 53-27 71-5 15 18 37 490 25 537-10 40-41 52-66 27z"/>
  </g>
</svg>
