<?xml version="1.0"?>
<svg xmlns="http://www.w3.org/2000/svg" height="200pt" preserveAspectRatio="xMidYMid meet" viewBox="0 0 200 200" width="200pt">
  <g transform="matrix(.1 0 0 -.1 0 200)">
    <path d="m423 1878c-4-7-24-62-44-123-44-137-89-224-173-340-69-95-79-125-46-148 18-13 37-8 177 39 136 46 285 87 347 96 13 2 28-14 55-62 32-57 41-65 66-65 71 0 29 110-105 279-66 84-87 99-113 85-27-16-20-57 19-105 26-31 32-45 23-48-8-3-57-16-109-30s-122-34-154-46c-33-11-61-20-63-20s10 21 28 46c64 93 159 337 159 409 0 39-48 62-67 33z"/>
    <path d="m1119 1813c-19-22-27-622-9-700 22-101 58-109 300-69 80 13 181 29 225 36 100 14 134 27 141 54 5 22-20 208-31 226s-35 10-45-16c-6-14-10-57-10-95s-3-69-7-69c-5 0-105-16-223-35s-225-35-236-35c-29 0-34 30-34 211 0 103 3 149 11 149 21 0 369 153 415 182 48 30 56 60 22 82-20 12-4 18-258-93-101-45-186-81-187-81-2 0-3 54-3 119 0 66-3 126-6 135-8 21-48 20-65-1z"/>
    <path d="m477 1181c-126-18-193-33-203-43-14-14-14-29 0-150 9-74 18-247 21-384 7-325 14-446 27-461 18-22 58-16 67 10 4 12 5 118 2 236l-6 213 25 10c40 15 181 55 222 62 46 8 45 13 54-189l6-160-24 23c-13 12-34 22-46 22-37 0-27-41 27-112 52-68 80-84 114-66 20 10 20 16 11 262-5 138-9 350-10 471 0 257 0 249-20 269-20 21-42 19-267-13zm193-130v-69l-67-7c-75-6-189-23-215-31-19-5-23 6-33 82l-6 51 63 7c60 7 250 33 256 35 1 1 2-30 2-68zm0-220v-59l-92-22c-51-13-117-31-146-41l-53-18 3 81 3 82 31 8c40 10 158 25 212 27l42 1z"/>
    <path d="m1117 896c-21-21-30-470-11-570 23-120 66-141 284-139 116 1 428 32 452 44 28 15 31 51 9 110-11 29-25 75-32 101-12 52-36 69-57 41-13-17-11-63 5-143 6-33 5-34-172-51-147-14-331-14-366-1-37 15-53 101-44 239 7 103 7 103 34 103 14 1 127 27 250 58 233 59 259 72 235 109-18 28-98 20-299-31-99-26-188-49-197-52-16-5-18 3-18 80 0 64-4 88-16 100-19 20-38 20-57 2z"/>
  </g>
</svg>
