<?xml version="1.0"?>
<svg xmlns="http://www.w3.org/2000/svg" height="200pt" preserveAspectRatio="xMidYMid meet" viewBox="0 0 200 200" width="200pt">
  <g transform="matrix(.1 0 0 -.1 0 200)">
    <path d="m1257 1838c-13-18-59-84-102-146-57-83-96-126-140-160-33-25-66-52-72-60-9-11-13-52-13-121 0-245-51-627-105-797-47-147-46-185 5-169 30 10 83 128 114 255 27 109 58 398 63 582 6 205 6 206 30 217 62 28 154 136 260 306 48 77 50 86 27 109-23 24-40 20-67-16z"/>
    <path d="m380 1738c-96-5-179-13-184-18-6-6-5-50 2-117 18-166 25-626 13-823-6-96-22-256-36-354-31-224-32-271-5-286 14-8 26-8 40 0 21 11 25 24 35 105 3 28 16 131 30 230 13 99 27 258 31 353l7 172h178 179v-361-361l-30 26c-37 31-60 25-60-16 0-42 63-104 114-113 69-13 69-14 67 302-1 153 3 494 8 758 9 432 8 482-6 498-18 20-81 20-383 5zm306-100c-3-13-6-60-6-105v-83h-58c-32 0-112-7-177-15-66-8-125-15-131-15-7 0-13 36-17 93-4 50-10 102-13 114-6 22-5 22 117 26 68 1 162 4 208 5 82 2 83 2 77-20zm-8-410-3-133-181-3-181-2-5 117c-3 65-5 119-4 120 4 5 250 31 309 32l68 1z"/>
    <path d="m1507 1628c-45-71-162-187-239-239-35-23-68-48-74-55-13-16-12-649 1-1003 7-188 10-216 27-233 22-22 32-23 54-1 15 16 16 35 10 203-4 102-11 286-15 410-5 124-6 305-3 402l5 178 44 26c59 34 200 175 247 246 46 68 47 111 4 116-23 3-32-5-61-50z"/>
    <path d="m1644 1332c-6-4-26-29-44-57-38-56-128-155-141-155-5 0-9 8-9 18 0 25-19 42-47 42-27 0-38-33-29-90 12-74 136-402 201-529 70-137 219-358 261-386 30-20 68-16 72 7 2 9-40 81-93 160-117 172-210 348-259 483-20 55-44 122-54 148l-19 49 86 86c95 96 147 182 130 213-10 19-36 25-55 11z"/>
  </g>
</svg>
