<?xml version="1.0"?>
<svg xmlns="http://www.w3.org/2000/svg" height="200pt" preserveAspectRatio="xMidYMid meet" viewBox="0 0 200 200" width="200pt">
  <g transform="matrix(.1 0 0 -.1 0 200)">
    <path d="m1743 1778c-5-7-18-35-27-63-23-64-68-145-118-213-44-60-48-95-9-100 37-6 114 84 167 194 50 102 63 156 44 179-15 18-44 20-57 3z"/>
    <path d="m380 1738c-96-5-179-13-184-18-6-6-5-50 2-117 18-166 25-626 13-823-6-96-22-256-36-354-31-224-32-271-5-286 14-8 26-8 40 0 21 11 25 24 35 105 3 28 16 131 30 230 13 99 27 258 31 353l7 172h178 179v-361-361l-30 26c-37 31-60 25-60-16 0-42 63-104 114-113 69-13 69-14 67 302-1 153 3 494 8 758 9 432 8 482-6 498-18 20-81 20-383 5zm306-100c-3-13-6-60-6-105v-83h-58c-32 0-112-7-177-15-66-8-125-15-131-15-7 0-13 36-17 93-4 50-10 102-13 114-6 22-5 22 117 26 68 1 162 4 208 5 82 2 83 2 77-20zm-8-410-3-133-181-3-181-2-5 117c-3 65-5 119-4 120 4 5 250 31 309 32l68 1z"/>
    <path d="m1228 1729c-29-16-22-68 16-124 69-102 151-190 179-193 31-4 43 15 33 51-3 12-35 58-72 102-36 44-75 99-85 121-10 23-26 45-35 48-19 7-15 8-36-5z"/>
    <path d="m942 1718c-30-30-5-96 97-256 55-85 71-98 102-82 30 17 23 50-32 135-28 44-64 107-80 139-35 74-59 92-87 64z"/>
    <path d="m1618 1233c-9-10-28-43-43-73-33-66-204-330-214-330-4 0-18 12-32 26-13 15-46 44-72 65-40 32-52 37-68 29-35-19-22-52 52-126l70-71-68-84c-37-46-98-116-135-155-81-85-88-124-21-124 21 0 123 101 210 208 42 50 78 92 80 92 3 0 39-32 80-70 41-39 86-73 99-76 26-7 54 10 54 33 0 7-41 53-91 101l-91 88 92 140c159 240 200 344 136 344-12 0-30-8-38-17z"/>
    <path d="m1782 1138c-13-17-24-568-14-728 5-69 8-126 8-126-1-1-184-4-408-8l-408-6v132c0 243-21 441-61 591-9 33-14 38-36 35-38-4-42-32-21-133 13-64 21-175 29-385 7-162 16-301 22-308 14-18 931-12 949 6 10 10 12 109 9 460-2 246-7 455-12 465-11 20-42 23-57 5z"/>
  </g>
</svg>
