<?xml version="1.0"?>
<svg xmlns="http://www.w3.org/2000/svg" height="200pt" preserveAspectRatio="xMidYMid meet" viewBox="0 0 200 200" width="200pt">
  <g transform="matrix(.1 0 0 -.1 0 200)">
    <path d="m1460 1800c-69-4-212-13-318-20-248-18-240-11-218-169 9-61 16-148 16-192 0-72 3-82 25-104 28-29 36-30 220-10 77 8 234 18 350 22 262 8 250 0 260 167 10 150 4 279-14 299-15 19-73 20-321 7zm248-132-3-53-145-7c-132-6-336-20-481-33l-56-6-7 32c-3 17-6 44-6 59v27l163 8c89 4 218 11 287 14 69 4 153 8 188 9l63 2zm-8-196v-49l-197-6c-109-4-256-13-328-22-71-8-133-15-137-15-5 0-8 22-8 49v50l43 5c23 3 92 8 152 12 61 3 155 10 210 14s137 8 183 8l82 2z"/>
    <path d="m380 1738c-96-5-179-13-184-18-6-6-5-50 2-117 18-166 25-626 13-823-6-96-22-256-36-354-31-224-32-271-5-286 14-8 26-8 40 0 21 11 25 24 35 105 3 28 16 131 30 230 13 99 27 258 31 353l7 172h178 179v-361-361l-30 26c-37 31-60 25-60-16 0-42 63-104 114-113 69-13 69-14 67 302-1 153 3 494 8 758 9 432 8 482-6 498-18 20-81 20-383 5zm306-100c-3-13-6-60-6-105v-83h-58c-32 0-112-7-177-15-66-8-125-15-131-15-7 0-13 36-17 93-4 50-10 102-13 114-6 22-5 22 117 26 68 1 162 4 208 5 82 2 83 2 77-20zm-8-410-3-133-181-3-181-2-5 117c-3 65-5 119-4 120 4 5 250 31 309 32l68 1z"/>
    <path d="m1695 1203c-368-9-829-57-852-89-17-23-16-29 3-48 18-19 40-20 156-5 49 7 91 9 94 6 19-19-164-312-246-392-54-53-62-78-29-95 47-25 119 37 219 190 43 65 58 80 79 81 42 1 116-2 120-6 4-5-74-149-110-200-15-22-46-60-69-84-51-54-51-84-1-89 29-3 40 3 86 50 46 48 132 186 182 291l17 39 96-7c52-4 96-9 98-10 7-6-129-259-171-318-25-35-80-96-122-135-85-79-93-105-36-110 90-9 260 197 378 458l43 95 43-1c60-1 94-11 102-31 14-37 17-165 6-259-12-99-57-303-70-316-3-4-48 6-99 22-50 17-98 30-106 30-20 0-29-16-21-40s226-133 258-128c62 9 144 367 135 588-5 111-27 179-66 198-48 25-345 51-575 52-101 0-97-7-52 95l23 52 114 8c62 4 215 10 339 14 241 7 259 11 259 57 0 30-28 45-82 42-24-1-88-3-143-5z"/>
  </g>
</svg>
