<?xml version="1.0"?>
<svg xmlns="http://www.w3.org/2000/svg" height="200pt" preserveAspectRatio="xMidYMid meet" viewBox="0 0 200 200" width="200pt">
  <g transform="matrix(.1 0 0 -.1 0 200)">
    <path d="m1046 1914c-9-8-16-31-16-51 0-63-40-196-107-352-62-146-65-155-47-168 24-18 28-17 61 11 17 15 43 60 67 119l39 95 161 26c89 14 247 37 351 51 228 30 231 31 239 51 12 32-12 54-59 54-39 0-536-69-622-86-38-7-38-8-18 66 18 67 20 171 3 188-16 16-33 15-52-4z"/>
    <path d="m380 1738c-96-5-179-13-184-18-6-6-5-50 2-117 18-166 25-626 13-823-6-96-22-256-36-354-31-224-32-271-5-286 14-8 26-8 40 0 21 11 25 24 35 105 3 28 16 131 30 230 13 99 27 258 31 353l7 172h178 179v-361-361l-30 26c-37 31-60 25-60-16 0-42 63-104 114-113 69-13 69-14 67 302-1 153 3 494 8 758 9 432 8 482-6 498-18 20-81 20-383 5zm306-100c-3-13-6-60-6-105v-83h-58c-32 0-112-7-177-15-66-8-125-15-131-15-7 0-13 36-17 93-4 50-10 102-13 114-6 22-5 22 117 26 68 1 162 4 208 5 82 2 83 2 77-20zm-8-410-3-133-181-3-181-2-5 117c-3 65-5 119-4 120 4 5 250 31 309 32l68 1z"/>
    <path d="m1330 1444c-80-13-169-26-197-30-77-10-79-15-64-152 8-65 16-159 18-210 4-78 8-94 24-103 13-7 70-5 188 6 93 8 210 15 260 15 97 0 163 18 177 48 4 9 9 106 12 215 5 252 15 237-152 236-76 0-175-10-266-25zm330-99c0-51 17-45-190-70-68-9-165-25-214-35-49-11-92-18-95-15-2 3-7 28-11 55-7 57-28 48 180 79 178 27 184 28 263 30l67 1zm0-209v-74l-82-6c-46-3-152-11-236-17s-154-10-156-8-6 27-10 55c-5 40-3 53 8 57 36 14 365 63 439 66l37 1z"/>
    <path d="m1400 874c-207-38-202-35-232-97-15-30-72-104-132-169-58-64-106-122-106-130s5-19 12-26c27-27 54-11 138 78l85 90 76-69c42-37 87-75 100-84l23-17-29-31c-51-54-226-197-261-214-25-12-34-22-34-40 0-31 35-42 83-26 40 14 237 169 278 221l31 38 96-61c191-120 359-196 403-182 10 4 24 16 30 27 15 29 0 41-99 77-83 30-187 85-314 167l-66 42 45 87c51 99 103 244 103 290 0 63-23 66-230 29zm130-79c0-22-56-158-91-220l-31-55-72 60c-39 32-82 70-95 84l-23 24 20 38 20 39 118 21c147 27 154 27 154 9z"/>
  </g>
</svg>
