<?xml version="1.0"?>
<svg xmlns="http://www.w3.org/2000/svg" height="200pt" preserveAspectRatio="xMidYMid meet" viewBox="0 0 200 200" width="200pt">
  <g transform="matrix(.1 0 0 -.1 0 200)">
    <path d="m1512 1863c-5-10-13-44-17-76-3-32-12-60-18-62-7-2-88-12-181-22l-168-19-9 24c-5 13-9 43-9 67 0 70-44 99-76 50-13-19-15-37-10-75 4-28 9-57 12-64 4-11-10-16-63-21-77-8-93-17-93-51 0-36 35-45 122-34 69 9 74 8 88-13 28-41 72-77 96-77 34 0 36 36 3 82l-19 27 42 6c56 7 220 25 235 25 9 0 9-10-2-39-11-33-11-42 0-57 21-30 62-4 88 56l22 50h88c98 0 127 10 127 43 0 39-18 47-110 47h-86l6 53c9 67-2 97-34 97-14 0-29-8-34-17z"/>
    <path d="m380 1738c-96-5-179-13-184-18-6-6-5-50 2-117 18-166 25-626 13-823-6-96-22-256-36-354-31-224-32-271-5-286 14-8 26-8 40 0 21 11 25 24 35 105 3 28 16 131 30 230 13 99 27 258 31 353l7 172h178 179v-361-361l-30 26c-37 31-60 25-60-16 0-42 63-104 114-113 69-13 69-14 67 302-1 153 3 494 8 758 9 432 8 482-6 498-18 20-81 20-383 5zm306-100c-3-13-6-60-6-105v-83h-58c-32 0-112-7-177-15-66-8-125-15-131-15-7 0-13 36-17 93-4 50-10 102-13 114-6 22-5 22 117 26 68 1 162 4 208 5 82 2 83 2 77-20zm-8-410-3-133-181-3-181-2-5 117c-3 65-5 119-4 120 4 5 250 31 309 32l68 1z"/>
    <path d="m1592 1503c-5-10-7-26-3-36 7-20 189-134 230-144 47-12 78 32 44 62-35 32-218 135-240 135-12 0-26-8-31-17z"/>
    <path d="m1501 1446c-7-8-15-46-18-85-5-62-9-72-27-76-79-17-448-55-482-50-61 9-69-6-55-100 6-42 11-141 11-222 0-124-5-168-31-297-17-83-40-172-50-199-33-82-19-133 32-120 23 6 64 110 86 221 17 79 32 106 34 60 0-13 4-112 7-221 6-182 9-200 27-213 16-12 66-14 278-12 254 3 260 3 274 25 13 19 12 24-6 42-19 19-33 21-156 21h-135v78c0 42-3 93-6 113l-6 37 73 7c41 4 80 12 87 17 16 14 17 209 0 226-7 7-42 12-89 12-90 0-86-5-95 116l-7 84h75c44 0 79 5 86 12 16 16 15 55 0 64-17 11-237 5-317-7-35-5-65-8-67-7-1 2-6 43-10 91l-7 87h29c16 0 121 11 233 25s205 24 206 23c1-2 7-70 14-153 15-184 42-346 74-448l25-77-49-70c-27-38-63-80-79-92-36-26-39-55-6-69 33-15 74 8 127 72l43 50 36-78c29-63 50-90 105-141 38-34 80-65 93-69 34-8 62 27 62 76 0 21 5 63 11 95 14 79 16 183 3 196-26 26-42-3-70-121-16-70-32-118-38-116-23 8-74 88-106 167l-34 83 38 66c99 175 133 274 103 300-30 24-51 3-100-101-51-109-73-145-83-136-21 21-96 559-80 575 2 2 48 9 102 14 106 11 124 19 124 55 0 35-26 43-110 34-130-15-123-19-115 45 6 43 4 61-9 80-18 28-38 32-55 11zm-337-583c3-21 8-65 11-99l7-61-54-11c-29-5-54-9-56-8-9 9-41 191-35 197 4 4 24 9 43 12 80 9 78 10 84-30zm174-239c18-5 22-13 22-44v-37l-87-7c-48-4-108-11-133-16s-45-8-46-7-4 21-8 44l-6 41 68 11c37 6 83 13 102 15 19 1 42 3 50 4s25-1 38-4zm-138-293v-109l-50-4-50-3v76c0 42-3 90-6 107-7 33 2 38 74 41l32 1z"/>
  </g>
</svg>
