<?xml version="1.0"?>
<svg xmlns="http://www.w3.org/2000/svg" height="200pt" preserveAspectRatio="xMidYMid meet" viewBox="0 0 200 200" width="200pt">
  <g transform="matrix(.1 0 0 -.1 0 200)">
    <path d="m875 1790c-192-8-498-39-631-66-33-6-35-27-14-147 11-62 24-158 30-214 15-152 33-879 26-1034-6-121-5-138 10-150 14-11 51-13 188-9 325 10 1067 4 1165-9 84-11 95-10 112 5 43 39 8 71-92 84-41 6-217 13-391 17l-318 6v102c0 57-7 167-15 246-8 78-12 146-8 150 5 5 112 11 240 15 175 5 239 4 262-5 32-14 66-8 74 12 10 28-6 477-18 493-19 27-197 42-405 36l-177-5-7 84c-4 46-14 131-22 188s-12 106-9 109 160 8 348 10c209 3 347 8 355 14 19 16 14 45-10 62-19 14-60 16-263 14-132-1-325-5-430-8zm-73-230c9-74 17-158 18-187v-51l-67-7c-83-8-303-33-359-40l-41-6-6 88c-4 48-14 130-23 182-9 51-12 97-7 102 9 9 401 58 443 56 23-2 25-6 42-137zm593-334c19-7 20-17 23-177l3-169h-108c-165 0-625-35-803-60-36-5-81-10-101-10h-36l-7 187c-3 102-5 187-4 189 4 3 363 42 438 47 88 7 573 0 595-7zm-535-623c14-190 15-208 12-278l-2-51-207-12c-115-7-226-12-248-12h-40v235c0 129 1 235 3 235 1 0 84 9 185 20 100 11 200 21 222 23s45 4 51 5c7 1 15-56 24-165z"/>
  </g>
</svg>
