<?xml version="1.0"?>
<svg xmlns="http://www.w3.org/2000/svg" height="200pt" preserveAspectRatio="xMidYMid meet" viewBox="0 0 200 200" width="200pt">
  <g transform="matrix(.1 0 0 -.1 0 200)">
    <path d="m1077 1927c-11-8-20-38-27-84-18-134-97-302-186-398-50-53-53-78-11-83 43-5 98 37 146 110 22 34 42 67 44 71 4 13 377 65 557 78 85 6 160 15 167 21 19 15 16 56-5 67-25 13-265-4-478-34-207-30-197-30-186-7 19 35 43 160 40 202-4 51-33 79-61 57z"/>
    <path d="m430 1774c-85-8-192-15-238-17-58-3-88-9-99-19-13-14-14-49-4-314 7-165 15-489 18-722l6-423 30-16c25-13 39-13 86-4 143 30 284 43 496 48 137 3 235 10 243 16 20 16 10 50-18 65-20 10-70 12-232 8l-208-5-1 87c-1 48-4 151-8 228l-6 142 50 6c28 3 87 6 131 6 53 0 85 4 91 13 6 6 11 64 12 128s6 142 11 173c10 62 6 82-19 95-15 8-135 1-223-14l-38-7v220 220l31 6c17 3 66 6 109 6 62 0 80 4 93 18 22 24 21 35-1 55-23 21-88 21-312 1zm-4-309c-2-124-5-227-7-229-9-9-223-26-230-19-3 5-9 106-13 225l-6 218 22 5c13 3 68 9 123 14 55 4 103 9 107 10 4 0 5-100 4-224zm270-316c-3-17-6-64-6-103s-4-77-9-85c-7-11-51-16-193-22-101-5-208-9-238-11l-55-3-3 103-3 102h63c35 1 131 11 213 24 83 13 170 24 194 25l44 1zm-274-537-3-238-93-12c-51-6-101-14-110-18-15-6-16 15-14 242l3 249 65 6c36 3 85 6 110 7l45 2z"/>
    <path d="m1400 1425c-52-7-114-17-137-24-23-6-54-9-68-5-36 9-55-11-55-60 0-72 29-277 41-292 16-19 154-18 347 5 151 17 171 24 172 58 0 6-7 19-16 28-15 15-15 28-4 139 17 166 17 166-98 165-48-1-130-7-182-14zm196-97c-3-18-8-67-12-109l-7-76-96-11c-53-7-126-15-162-18-77-8-73-13-85 117l-7 76 54 13c50 12 228 36 293 39 27 1 28-1 22-31z"/>
    <path d="m1541 805c-18-23-18-48-5-196 7-85 14-191 14-235 0-117-10-113 234-96 123 8 142 12 157 30 14 18 17 54 21 239 3 120 3 225 1 234-9 34-51 40-235 38-109-2-182-7-187-14zm335-79c1 0 0-80-3-177l-6-176-91-7c-50-3-103-9-117-12l-26-6-6 149c-4 81-10 167-13 190-6 38-4 42 17 46 19 4 240-2 245-7z"/>
    <path d="m1245 790c-72-4-147-12-168-19-20-7-41-10-46-7-17 11-41-24-41-59 0-18 6-68 14-111 8-44 20-135 26-204 6-68 15-129 20-134 12-12 162-10 239 4 45 8 67 8 74 1 15-15 50-14 65 1 9 9 12 80 12 258 0 227-2 248-18 263-10 10-25 16-33 15-8 0-73-4-144-8zm107-252c-3-96-9-176-14-179-9-6-54-14-189-34l-27-4-12 112c-6 62-18 143-26 181s-12 71-9 74c7 7 129 19 216 21l66 1z"/>
  </g>
</svg>
