<?xml version="1.0"?>
<svg xmlns="http://www.w3.org/2000/svg" height="200pt" preserveAspectRatio="xMidYMid meet" viewBox="0 0 200 200" width="200pt">
  <g transform="matrix(.1 0 0 -.1 0 200)">
    <path d="m705 1826c-27-55-68-109-156-205-65-72-119-134-119-137s5-35 10-72c11-74 46-548 60-826 5-98 14-214 21-258 6-43 9-94 6-113-9-57 8-69 89-61 286 27 777 34 807 12 22-17 54-10 61 13 8 25 28 1310 21 1332-4 10-18 22-33 26-49 12-501-15-695-42-104-14-199-25-213-23-22 3-16 11 67 102 166 183 225 326 134 326-19 0-30-14-60-74zm715-468c0-51-3-123-7-160l-6-68h-193c-208 0-451-15-577-34-57-9-80-10-82-2-2 6-6 58-10 116-3 58-8 119-11 135l-5 30 238 29c227 28 389 41 571 44l82 2zm-10-472v-153l-97-7c-54-4-201-11-328-16-126-5-266-14-309-20-60-9-81-9-86 0-4 7-10 60-14 118-4 59-9 125-12 148l-6 41 99 12c151 19 308 28 541 30l212 1zm-10-425v-179l-207-7c-262-8-537-23-555-30-14-6-31 89-44 262l-7 82 34 5c76 13 272 26 399 27 111 1 276 9 363 17 16 2 17-13 17-177z"/>
  </g>
</svg>
