<?xml version="1.0"?>
<svg xmlns="http://www.w3.org/2000/svg" height="200pt" preserveAspectRatio="xMidYMid meet" viewBox="0 0 200 200" width="200pt">
  <g transform="matrix(.1 0 0 -.1 0 200)">
    <path d="m1210 1839c-122-4-304-19-450-37-135-17-276-34-313-37-75-8-97-27-77-65 14-26 43-26 272 1 98 12 182 19 184 16 11-10-162-336-222-421-35-49-64-97-64-106s9-25 19-34c18-17 26-16 148 8 128 25 301 50 443 62l75 6 68-81c81-97 107-117 135-102 26 14 33 34 19 58-7 12-61 78-122 148-60 71-130 154-153 186-43 58-67 70-90 47-21-21-13-53 28-111 48-67 63-58-145-82-77-9-170-22-207-29-38-7-68-11-68-9 0 3 14 24 30 48 33 48 183 356 193 397 4 14 14 29 23 32s132 11 273 18c141 6 266 15 279 19 14 6 22 17 22 32 0 33-19 47-59 45-20-1-128-5-241-9z"/>
    <path d="m902 1148c-8-8-12-57-12-153v-142l-137-12c-137-12-183-26-183-55 0-35 26-40 173-29 78 6 144 9 146 7 6-5 21-477 16-483-3-2-54-8-113-12-264-19-527-50-549-65-45-29-14-82 39-69 13 3 120 14 238 25 289 28 749 42 1058 34 234-6 254-5 272 11 25 23 25 30 0 55-23 23-113 26-572 21l-276-2-6 93c-3 51-7 161-10 244l-4 151 75 7c42 3 104 6 138 6 68 0 89 13 83 52-3 23-5 23-149 26l-146 3-6 135c-4 80-11 142-18 150-14 17-41 18-57 2z"/>
  </g>
</svg>
