<?xml version="1.0"?>
<svg xmlns="http://www.w3.org/2000/svg" height="200pt" preserveAspectRatio="xMidYMid meet" viewBox="0 0 200 200" width="200pt">
  <g transform="matrix(.1 0 0 -.1 0 200)">
    <path d="m582 1858c-6-6-12-18-12-24 0-23-119-171-182-227l-61-54 12-74c18-112 40-436 42-609l1-153-149-33c-81-19-160-39-175-45-34-14-46-46-25-67 14-13 33-11 184 22 198 43 298 61 408 75 209 27 856 61 1153 61 139 0 172 8 172 40 0 43-23 50-167 50h-135l7 233c8 249 11 283 46 510 17 109 20 152 13 165-10 15-34 17-178 20-179 3-206-3-206-43 0-37 28-45 164-45 113 0 126-2 126-17 0-10-10-75-22-145l-22-128h-103c-115 0-143-9-143-45s28-45 139-45h101v-64-64l-67-7c-74-7-113-26-113-53 0-35 20-42 97-35l73 6v-127-126h-89c-48 0-108-3-133-6l-45-6-11 113c-21 212-32 394-33 534 0 77-3 158-7 180-12 65-26 68-268 53-180-10-210-14-226-30-13-13-18-28-14-46 10-54 35-441 40-633l6-197-78-7c-42-4-112-13-154-19l-78-13v146 146l81 17c86 18 109 30 109 58 0 35-26 44-93 32-34-7-72-15-83-18-20-5-22-1-29 71-4 42-5 78-3 81 3 2 50 8 106 12 103 9 132 20 132 52 0 35-26 43-118 36-48-3-96-9-108-12-19-5-22 0-27 53-4 32-9 72-12 88-6 26-1 34 35 62 93 71 207 242 191 287-9 24-50 33-69 14zm581-480c6-211 19-411 33-524l6-51-162-12c-89-7-164-10-167-7s-9 116-14 252c-7 224-22 439-35 521l-5 32 108 4c59 1 135 4 169 5l61 2z"/>
    <path d="m971 1445c-63-14-101-37-101-61 0-23 31-45 53-38 11 4 52 12 91 18 82 14 106 37 80 74-17 25-34 26-123 7z"/>
    <path d="m972 1253c-98-5-105-16-96-147 4-53 13-104 20-114 11-14 27-17 105-14 51 1 99 8 106 14 9 7 13 43 13 129 0 107-2 119-19 129-11 5-28 9-38 8s-51-4-91-5zm66-135c-3-51-4-53-34-56-34-3-44 12-44 70 0 23 5 27 33 31 17 2 36 5 40 5 4 1 7-22 5-50z"/>
    <path d="m582 570c-31-58-199-274-251-325-53-51-63-82-36-105 8-7 25-10 39-6 33 8 135 122 236 263 71 98 84 121 84 157 1 38-1 41-27 44-22 3-31-3-45-28z"/>
    <path d="m1286 538c-23-33-5-52 81-88 129-54 213-99 321-174 136-94 142-97 164-85 26 14 22 54-9 84-38 35-178 128-266 175-66 36-247 110-267 110-5 0-16-10-24-22z"/>
  </g>
</svg>
