<?xml version="1.0"?>
<svg xmlns="http://www.w3.org/2000/svg" height="200pt" preserveAspectRatio="xMidYMid meet" viewBox="0 0 200 200" width="200pt">
  <g transform="matrix(.1 0 0 -.1 0 200)">
    <path d="m1058 1903c-9-3-27-19-38-38-30-49-215-222-299-280-108-74-156-119-148-138 19-50 170 27 320 162l37 33v-29c0-28 15-286 24-395 3-47 2-48-28-52-17-3-78-13-136-22-107-17-486-106-528-124-18-8-23-17-20-38 4-40 40-39 204 2 161 41 362 81 452 91l62 7v-69c0-37 3-104 6-149l7-80-166-23c-209-28-221-31-225-60-2-13 12-82 32-155 19-72 43-174 51-226 9-52 22-101 29-108 10-10 55-10 246 3 279 18 440 19 474 3 39-17 66 12 66 71 1 89 29 257 59 352 17 53 31 107 31 121 0 49-11 51-275 46l-245-5v143 143l53 5c125 14 372 26 531 26 177 0 196 4 196 41 0 39-24 44-234 43-111 0-279-6-374-13s-175-12-176-10c-2 2-9 81-15 174-7 94-16 212-21 263-10 92-10 93 16 120 43 45 84 109 84 131 0 23-26 40-52 34zm412-1178c0-2-11-39-25-81s-32-132-42-200l-16-124h-86c-47 0-187-7-310-15-124-8-226-13-228-11s-13 46-23 97c-11 52-31 132-44 179-14 46-24 85-23 86s92 14 202 30c118 16 276 30 385 34 102 3 191 7 198 8 6 1 12 0 12-3z"/>
  </g>
</svg>
