<?xml version="1.0"?>
<svg xmlns="http://www.w3.org/2000/svg" height="200pt" preserveAspectRatio="xMidYMid meet" viewBox="0 0 200 200" width="200pt">
  <g transform="matrix(.1 0 0 -.1 0 200)">
    <path d="m913 1908c-5-7-18-35-28-63-41-112-123-234-255-378-74-82-232-193-395-279-122-64-140-77-140-99 0-36 36-35 133 1 94 36 214 107 338 198 118 88 284 285 351 417 14 28 27 52 29 54s45-36 97-85c167-160 566-451 714-521 59-28 75-33 92-23 13 6 21 21 21 35 0 20-11 31-51 53-286 154-784 546-836 657-19 42-51 57-70 33z"/>
    <path d="m940 1525c-12-15-9-147 6-231l6-31-76-7c-117-11-239-34-254-50-17-16-8-51 15-60 9-4 61 0 117 8 55 8 124 17 152 21l51 6 6-122c4-67 7-143 7-169v-48l-77-11c-143-21-548-103-560-113-18-14-16-43 2-58 13-11 55-6 238 28 378 71 576 93 981 112 135 6 224 14 232 21 18 15 18 43-1 59-19 15-312 8-565-15-85-7-156-12-157-11-3 3-24 329-20 332 1 2 61 11 132 20 135 17 175 32 175 63 0 41-21 45-170 26-77-10-142-16-145-13-3 2-11 56-18 119s-17 120-21 127c-10 17-41 15-56-3z"/>
    <path d="m1195 603c-16-2-95-10-175-19-263-28-379-59-395-106-4-10 12-73 34-140 21-68 47-148 56-180 9-31 22-59 30-62s39-1 67 4c60 10 349 36 508 46 58 3 111 11 118 16 6 6 12 22 12 37s16 102 35 195c47 225 53 217-128 215-72-1-145-4-162-6zm225-88c0-2-9-42-19-87-11-46-24-109-31-140l-11-58h-67c-36 0-156-9-265-21-109-11-206-19-214-17-21 4-106 250-90 260 35 21 413 65 575 67 67 0 122-1 122-4z"/>
  </g>
</svg>
