<?xml version="1.0"?>
<svg xmlns="http://www.w3.org/2000/svg" height="200pt" preserveAspectRatio="xMidYMid meet" viewBox="0 0 200 200" width="200pt">
  <g transform="matrix(.1 0 0 -.1 0 200)">
    <path d="m1192 1888c-8-8-12-64-12-185 0-130-3-174-12-177-7-2-71-11-143-20-142-19-179-31-183-61-5-45 9-50 110-37 155 21 453 50 643 63 99 6 188 16 198 21 20 10 23 48 5 66-16 16-74 15-293-3-99-8-192-15-207-15h-28v161c0 91-4 169-10 180-12 21-50 25-68 7z"/>
    <path d="m346 1851c-3-4-18-41-34-82s-59-123-95-182l-66-109 20-37c33-63 53-189 75-458 7-94 15-86-95-103-80-13-113-35-104-69 8-30 44-36 125-21 38 6 71 10 73 9 8-10-18-327-35-430-25-144-25-156 0-169 30-16 58 4 69 48 20 79 41 254 50 405 5 87 12 161 15 164 3 4 66 19 139 34l132 27 3-311c1-170 0-312-2-314-2-3-18 5-34 17-35 26-66 23-70-7-4-28 58-97 111-124 36-19 40-19 63-4l24 15v284c0 155 3 324 6 373l7 91 55 11c30 6 76 11 101 11 85 0 131 50 79 84-20 13-38 14-122 5-55-6-103-12-106-14-4-2-4 117-2 266 6 338 18 314-153 306-66-4-149-13-185-22-36-8-76-17-89-21l-24-5 22 33c63 96 124 245 113 278-9 27-54 42-66 21zm294-489c0-66-3-180-6-254l-7-134-116-23c-64-12-128-25-143-28-30-6-28-14-48 207-10 109-29 229-46 282-4 13 6 19 53 29 128 26 201 37 256 38l57 1z"/>
    <path d="m399 1264c-15-18-7-34 65-138 41-59 75-78 101-56 24 20 17 54-22 106-77 104-112 126-144 88z"/>
    <path d="m1250 1328c-155-11-161-16-148-110 14-92 2-308-21-403-26-105-91-292-134-386-19-41-62-114-96-163-64-94-72-119-43-134 22-12 51-1 78 29 91 104 172 267 240 481 57 180 67 245 68 428l1 165 65 6c36 4 89 7 119 8l54 1-7-37c-23-140-39-334-40-488s2-196 23-290c27-130 43-170 79-208 41-43 86-50 231-37 86 8 132 17 144 28 14 12 17 32 17 108 0 185-33 309-74 275-13-11-16-37-16-161v-147l-31-7c-17-3-68-6-114-6-68 0-85 3-99 19-10 11-29 71-43 138-21 100-25 144-25 288 0 164 28 452 52 536 7 25 6 38-5 56-18 26-47 27-275 11z"/>
    <path d="m416 705c-25-25-20-48 27-117 43-65 73-82 103-58 23 20 17 42-34 115-51 74-70 86-96 60z"/>
  </g>
</svg>
