<?xml version="1.0"?>
<svg xmlns="http://www.w3.org/2000/svg" height="200pt" preserveAspectRatio="xMidYMid meet" viewBox="0 0 200 200" width="200pt">
  <g transform="matrix(.1 0 0 -.1 0 200)">
    <path d="m346 1851c-3-4-18-41-34-82s-59-123-95-182l-66-109 20-37c33-63 53-189 75-458 7-94 15-86-95-103-80-13-113-35-104-69 8-30 44-36 125-21 38 6 71 10 73 9 8-10-18-327-35-430-25-144-25-156 0-169 30-16 58 4 69 48 20 79 41 254 50 405 5 87 12 161 15 164 3 4 66 19 139 34l132 27 3-311c1-170 0-312-2-314-2-3-18 5-34 17-35 26-66 23-70-7-4-28 58-97 111-124 36-19 40-19 63-4l24 15v284c0 155 3 324 6 373l7 91 55 11c30 6 76 11 101 11 85 0 131 50 79 84-20 13-38 14-122 5-55-6-103-12-106-14-4-2-4 117-2 266 6 338 18 314-153 306-66-4-149-13-185-22-36-8-76-17-89-21l-24-5 22 33c63 96 124 245 113 278-9 27-54 42-66 21zm294-489c0-66-3-180-6-254l-7-134-116-23c-64-12-128-25-143-28-30-6-28-14-48 207-10 109-29 229-46 282-4 13 6 19 53 29 128 26 201 37 256 38l57 1z"/>
    <path d="m399 1264c-15-18-7-34 65-138 41-59 75-78 101-56 24 20 17 54-22 106-77 104-112 126-144 88z"/>
    <path d="m1355 1777c-65-48 98-341 346-623 112-127 181-184 224-184 25 0 35 5 40 21 6 17-17 45-122 152-197 201-355 422-404 564-18 51-40 83-59 83-3 0-14-6-25-13z"/>
    <path d="m1082 1608c-5-7-20-47-33-88-33-110-95-265-136-342-31-56-34-69-24-82 35-42 86-2 138 111 41 90 123 333 123 366 0 41-44 63-68 35z"/>
    <path d="m1560 923c-180-11-452-60-497-89-23-15-31-52-14-69 10-12 57-292 71-425 11-109 29-136 85-126 16 3 118 10 225 17 239 14 263 22 268 89 8 95-10 569-22 584-14 19-45 24-116 19zm49-479 1-111-183-11c-101-6-191-14-199-17-12-5-16 7-22 64-6 68-52 349-62 383-4 13 11 20 83 36 77 18 223 37 333 45l35 2 6-140c4-77 7-190 8-251z"/>
    <path d="m416 705c-25-25-20-48 27-117 43-65 73-82 103-58 23 20 17 42-34 115-51 74-70 86-96 60z"/>
  </g>
</svg>
