<?xml version="1.0"?>
<svg xmlns="http://www.w3.org/2000/svg" height="200pt" preserveAspectRatio="xMidYMid meet" viewBox="0 0 200 200" width="200pt">
  <g transform="matrix(.1 0 0 -.1 0 200)">
    <path d="m776 1904c-13-12-16-41-16-154v-139l-32-5c-177-29-262-47-274-57-19-16-18-49 3-65 17-11 18-59 23-672 4-538 8-662 19-675 28-35 56-20 150 79 89 95 114 135 93 156-14 14-44-3-115-64l-57-50 2 318 3 318 35 8c39 8 417 45 553 54 126 8 122 2 141 219 9 99 16 242 16 317 0 159-4 168-78 168-46 0-279-24-354-36l-38-6v129c0 100-3 133-16 151-18 26-37 28-58 6zm454-443v-109l-87-6c-181-12-355-28-459-41-59-8-109-13-110-12-9 9-21 193-13 198 17 10 540 76 622 78l47 1zm-14-238c-3-21-8-68-11-105-7-76-10-78-110-78-82 0-452-41-507-57-16-4-18 6-18 105 0 108 0 110 24 116 65 16 321 40 599 54 28 2 29 1 23-35z"/>
    <path d="m1306 888c-29-40-102-120-160-178-58-57-106-112-106-121 0-32 25-41 66-24 71 29 314 302 314 352 0 16-28 43-45 43-8 0-39-33-69-72z"/>
    <path d="m662 828c-54-54 105-239 338-393 109-72 400-226 481-254 30-10 84-32 121-50 74-34 109-39 128-16 30 36-28 78-194 142-111 42-372 176-481 247-122 80-248 189-296 259-56 81-71 91-97 65z"/>
  </g>
</svg>
