<?xml version="1.0"?>
<svg xmlns="http://www.w3.org/2000/svg" height="200pt" preserveAspectRatio="xMidYMid meet" viewBox="0 0 200 200" width="200pt">
  <g transform="matrix(.1 0 0 -.1 0 200)">
    <path d="m1070 1879c-99-7-376-50-413-65-9-3-17-1-17 5 0 5-10 15-21 22-28 15-46-3-70-72-22-63-135-246-219-354-33-43-59-86-58-94 2-9 15-17 30-19 54-6 174 140 287 349l40 74 118 22c153 28 400 59 409 51 9-10-42-156-75-213-42-72-102-137-198-212-82-64-86-66-196-89-138-29-314-80-344-100-24-15-30-43-14-60 5-5 11-159 13-349 4-388 6-398 94-528 59-85 101-120 172-142 74-22 299-31 415-16 161 20 251 30 402 41 164 11 256 25 295 43 23 11 25 18 28 89 3 88-8 121-41 116-22-3-26-14-43-105-5-26-54-43-128-43-63 0-236-16-456-42-197-23-359-21-448 7-42 13-60 26-94 68-53 68-84 136-97 217-13 76-14 177-3 184 14 9 499 49 802 66 236 14 339 25 353 39 6 6 12 34 13 63 2 29 8 109 15 178 6 69 10 172 8 228-4 96-6 105-29 124-24 20-34 20-180 14-145-6-256-15-376-31l-51-7 67 71c38 39 84 102 105 141 42 81 95 237 95 280 0 32-32 61-65 59-11-1-67-5-125-10zm462-681c5-87-13-342-25-354-3-4-77-10-164-15s-207-13-268-18c-60-5-111-8-112-7s-5 98-9 217c-7 207-6 217 12 222 56 17 321 42 475 45l86 2zm-664-162c1-106 4-204 7-217l6-25-209-16c-114-10-216-20-225-24-16-6-17 10-17 185v190l72 22c65 19 326 77 354 78 8 1 12-55 12-193z"/>
  </g>
</svg>
