<?xml version="1.0"?>
<svg xmlns="http://www.w3.org/2000/svg" height="200pt" preserveAspectRatio="xMidYMid meet" viewBox="0 0 200 200" width="200pt">
  <g transform="matrix(.1 0 0 -.1 0 200)">
    <path d="m1223 1928c-4-7-12-44-18-83l-10-70-147-21c-81-12-176-24-212-28l-65-6-5 32c-3 18-8 57-13 87-9 60-31 84-61 65-14-10-17-27-17-103v-91l-30-5c-16-2-79-11-139-20-114-15-156-33-156-64 0-40 20-42 184-21 86 11 160 20 165 20s19-28 31-62c28-78 88-141 129-136 38 4 39 40 2 87-17 22-38 57-46 80l-14 40 32 5c18 3 91 13 162 21 72 9 140 19 152 22 22 5 22 2-19-116-43-127-43-150 2-136 34 11 74 76 105 173l29 90 80 7c151 13 287 33 301 45 22 18 18 47-7 64-19 12-37 13-103 5-44-6-117-14-163-18l-83-7 6 61c6 50 4 65-10 78-19 20-51 22-62 5z"/>
    <path d="m1122 1287c-17-20-35-404-27-577 7-157 26-325 45-391 15-54 51-102 90-121 89-44 336-47 535-8 138 27 141 34 94 185-34 112-73 112-70 0 1-37 4-71 6-75 13-20-117-35-305-35-233 0-238 2-263 92-18 66-33 196-42 363l-6 115h43c54 0 191 67 332 163 112 76 147 113 130 140-21 33-49 24-162-52-100-66-304-176-328-176-5 0-8 75-6 180 4 188 0 210-38 210-10 0-22-6-28-13z"/>
    <path d="m679 1258c-14-18-47-66-73-106-91-137-255-293-383-363-55-30-67-61-32-79 47-26 164 38 292 159l74 71 7-67c19-202 26-325 26-478 0-138 3-175 16-193 18-25 46-29 64-7 17 21 8 439-15 665l-18 175 62 97c70 109 78 150 30 156-20 2-32-5-50-30z"/>
  </g>
</svg>
