<?xml version="1.0"?>
<svg xmlns="http://www.w3.org/2000/svg" height="200pt" preserveAspectRatio="xMidYMid meet" viewBox="0 0 200 200" width="200pt">
  <g transform="matrix(.1 0 0 -.1 0 200)">
    <path d="m1222 1888c-7-7-12-31-12-54s-3-55-6-71l-6-29-161-12c-89-7-206-15-259-19l-98-6v85c0 86-8 108-41 108-30 0-40-27-42-115-2-100 14-89-157-106-63-6-121-16-128-22-19-15-14-55 8-67 15-8 50-8 123 0 181 19 167 20 186-25 25-64 70-134 92-145 24-13 55-5 63 16 3 8-12 48-34 88s-40 77-40 83 47 13 118 17c64 4 168 12 231 17s116 7 119 5c6-6-38-136-55-163-17-26-3-63 24-63 31 0 82 68 103 139 11 37 20 73 20 80 0 8 50 11 175 11 196 0 225 7 225 52 0 42-28 48-216 48h-164v68c0 69-10 92-40 92-9 0-21-5-28-12z"/>
    <path d="m882 1192c-198-23-236-30-248-46-15-21-5-50 20-59 7-3 125 5 262 19 137 13 289 27 338 31 68 6 92 12 100 26 8 12 8 22 0 35-18 28-196 25-472-6z"/>
    <path d="m1215 824c-336-29-888-84-934-93-42-8-61-33-45-58 15-23 87-21 423 12 139 14 255 24 257 22 3-2-28-48-67-102s-92-130-117-169-70-104-99-144c-70-94-78-114-64-141 16-29 51-28 271 13 207 38 384 62 540 72 58 3 111 10 119 14 9 5 24-5 44-29 75-88 173-181 192-181 26 0 45 18 45 43 0 11-37 58-82 106-67 70-149 173-267 332-8 11-26 19-42 19-39 0-50-40-22-78 90-123 95-132 75-132-115 0-422-39-635-80-56-11-103-20-104-20 0 0 56 83 125 185 100 146 187 286 187 302 0 7 541 43 647 43 111 0 140 3 152 16 22 21 20 51-3 64-32 16-304 9-596-16z"/>
  </g>
</svg>
