<?xml version="1.0"?>
<svg xmlns="http://www.w3.org/2000/svg" height="200pt" preserveAspectRatio="xMidYMid meet" viewBox="0 0 200 200" width="200pt">
  <g transform="matrix(.1 0 0 -.1 0 200)">
    <path d="m1222 1888c-7-7-12-31-12-54s-3-55-6-71l-6-29-161-12c-89-7-206-15-259-19l-98-6v85c0 86-8 108-41 108-30 0-40-27-42-115-2-100 14-89-157-106-63-6-121-16-128-22-19-15-14-55 8-67 15-8 50-8 123 0 181 19 167 20 186-25 25-64 70-134 92-145 24-13 55-5 63 16 3 8-12 48-34 88s-40 77-40 83 47 13 118 17c64 4 168 12 231 17s116 7 119 5c6-6-38-136-55-163-17-26-3-63 24-63 31 0 82 68 103 139 11 37 20 73 20 80 0 8 50 11 175 11 196 0 225 7 225 52 0 42-28 48-216 48h-164v68c0 69-10 92-40 92-9 0-21-5-28-12z"/>
    <path d="m1190 1333c-476-35-709-55-727-63-32-13-31-57 1-70 13-5 32-7 42-5 11 2 52 6 92 9 66 4 72 3 72-14 0-26 47-153 82-224 16-32 28-59 26-60-2-2-46-8-98-15-156-19-403-61-428-71-18-8-23-17-20-38 3-26 5-27 58-27 30 0 152 15 270 33 239 35 454 55 545 50l60-3-75-73c-143-141-364-294-573-398-143-72-207-113-207-134 0-23 29-33 67-24 81 20 368 173 498 267 97 70 203 157 274 225l59 57 7-261c4-144 6-267 4-273-4-12-89 41-147 91-36 31-75 34-80 7-5-26 65-106 131-151 34-23 75-52 90-65 35-28 51-29 77-3 21 21 21 27 14 379l-7 358 168 6c93 4 211 7 264 7 126 0 172 28 124 75-15 16-41 17-283 10l-267-7-6 23c-4 13-7 86-7 162v137h108c71 0 112 4 120 12 18 18 14 56-7 68-18 9-211 11-321 3zm14-115c3-13 6-82 6-154v-131l-157-8c-86-4-161-9-167-11-13-5-63 92-111 214-18 45-32 83-32 83 5 4 314 26 378 28 72 1 77 0 83-21z"/>
  </g>
</svg>
