<?xml version="1.0"?>
<svg xmlns="http://www.w3.org/2000/svg" height="200pt" preserveAspectRatio="xMidYMid meet" viewBox="0 0 200 200" width="200pt">
  <g transform="matrix(.1 0 0 -.1 0 200)">
    <path d="m1222 1888c-7-7-12-31-12-54s-3-55-6-71l-6-29-161-12c-89-7-206-15-259-19l-98-6v85c0 86-8 108-41 108-30 0-40-27-42-115-2-100 14-89-157-106-63-6-121-16-128-22-19-15-14-55 8-67 15-8 50-8 123 0 181 19 167 20 186-25 25-64 70-134 92-145 24-13 55-5 63 16 3 8-12 48-34 88s-40 77-40 83 47 13 118 17c64 4 168 12 231 17s116 7 119 5c6-6-38-136-55-163-17-26-3-63 24-63 31 0 82 68 103 139 11 37 20 73 20 80 0 8 50 11 175 11 196 0 225 7 225 52 0 42-28 48-216 48h-164v68c0 69-10 92-40 92-9 0-21-5-28-12z"/>
    <path d="m930 1381c-5-11-10-34-10-51s-5-51-11-75c-10-40-14-44-48-49-20-3-106-15-191-27s-170-27-189-33c-44-14-60-38-41-61 16-20 31-19 270 14 79 11 146 19 147 17 1-1-21-38-50-82-90-137-361-392-550-517-42-29-80-60-83-70-7-23 13-47 40-47 34 0 134 65 251 163 64 53 107 82 110 75 17-49 72-324 79-393 3-31 12-54 22-62 21-15 41-17 48-4 16 25 326 43 541 32 185-9 205-5 205 44 0 12 13 89 29 171 40 204 49 315 26 337-25 25-233 22-555-8-146-14-276-25-289-25-21 0-14 11 55 83 91 93 136 153 188 248l36 66 58 7c31 3 162 9 290 13 181 5 237 9 248 20 19 19 18 38-3 59-16 15-36 16-218 11-110-4-232-10-271-13l-71-7 5 77c5 81-4 106-39 106-10 0-23-9-29-19zm513-747c-3-30-18-117-33-192l-26-137-250-6c-137-3-281-10-321-14l-71-8-12 59c-6 33-24 114-41 182-16 68-29 125-29 128 0 2 30 4 68 5 37 0 148 9 247 18 99 10 246 19 327 20l147 1z"/>
  </g>
</svg>
