<?xml version="1.0"?>
<svg xmlns="http://www.w3.org/2000/svg" height="200pt" preserveAspectRatio="xMidYMid meet" viewBox="0 0 200 200" width="200pt">
  <g transform="matrix(.1 0 0 -.1 0 200)">
    <path d="m1222 1888c-7-7-12-31-12-54s-3-55-6-71l-6-29-161-12c-89-7-206-15-259-19l-98-6v85c0 86-8 108-41 108-30 0-40-27-42-115-2-100 14-89-157-106-63-6-121-16-128-22-19-15-14-55 8-67 15-8 50-8 123 0 181 19 167 20 186-25 25-64 70-134 92-145 24-13 55-5 63 16 3 8-12 48-34 88s-40 77-40 83 47 13 118 17c64 4 168 12 231 17s116 7 119 5c6-6-38-136-55-163-17-26-3-63 24-63 31 0 82 68 103 139 11 37 20 73 20 80 0 8 50 11 175 11 196 0 225 7 225 52 0 42-28 48-216 48h-164v68c0 69-10 92-40 92-9 0-21-5-28-12z"/>
    <path d="m947 1322c-14-15-17-40-17-131 0-81-3-113-12-115-7-2-103-12-213-21-273-23-296-27-309-47-19-31 4-53 60-56 41-3 343 19 452 33l32 4v-145c0-130-2-144-17-144-10 0-81-7-158-15s-153-13-168-9c-34 7-57-10-57-44 0-14 18-93 39-176 22-83 42-168 46-189 11-65 22-67 426-67h352l30 34c29 32 33 46 54 188 12 84 22 181 23 215 0 94-8 98-213 90-89-4-183-10-208-13l-46-6-6 47c-4 26-7 90-7 141v92l63 6c227 21 442 36 518 36 86 0 90 1 101 25 9 21 8 28-7 45-16 18-31 20-124 20-58 0-169-6-246-14s-178-16-225-18l-85-3-5 115c-3 63-9 121-13 128-12 18-41 15-60-6zm468-744c-3-29-13-91-21-138s-14-97-14-112v-28h-117c-65 0-216-3-335-7-213-6-218-6-218 14 0 15-37 160-66 255-4 13 3 18 28 23 82 14 477 43 606 44l144 1z"/>
  </g>
</svg>
