<?xml version="1.0"?>
<svg xmlns="http://www.w3.org/2000/svg" height="200pt" preserveAspectRatio="xMidYMid meet" viewBox="0 0 200 200" width="200pt">
  <g transform="matrix(.1 0 0 -.1 0 200)">
    <path d="m1222 1888c-7-7-12-31-12-54s-3-55-6-71l-6-29-161-12c-89-7-206-15-259-19l-98-6v85c0 86-8 108-41 108-30 0-40-27-42-115-2-100 14-89-157-106-63-6-121-16-128-22-19-15-14-55 8-67 15-8 50-8 123 0 181 19 167 20 186-25 25-64 70-134 92-145 24-13 55-5 63 16 3 8-12 48-34 88s-40 77-40 83 47 13 118 17c64 4 168 12 231 17s116 7 119 5c6-6-38-136-55-163-17-26-3-63 24-63 31 0 82 68 103 139 11 37 20 73 20 80 0 8 50 11 175 11 196 0 225 7 225 52 0 42-28 48-216 48h-164v68c0 69-10 92-40 92-9 0-21-5-28-12z"/>
    <path d="m936 1444c-13-12-14-30-9-90s3-74-8-74c-35 0-412-50-420-56-21-13-28-54-18-106 13-66 47-322 44-326-2-2-47-10-101-18-113-17-216-39-256-55-34-14-46-46-25-66 13-13 25-13 103 5 138 32 541 80 587 71 35-8-93-253-184-353-62-68-199-161-326-222-52-25-97-52-100-61-10-26 26-45 72-38 78 12 281 128 383 220 78 70 169 211 227 352l21 52 39-50c109-140 472-411 649-486 125-53 216-55 216-4 0 20-21 32-100 57-30 9-77 27-105 39-65 29-267 160-370 240-96 75-275 256-258 262 6 2 217 7 469 11 420 6 458 8 468 25 8 12 8 22 0 35-10 15-35 17-249 20l-238 2 7 68c3 37 20 134 36 216 31 159 30 181-13 191-13 4-119 1-237-4-154-8-216-8-221 0-3 6-9 38-13 71-8 84-33 109-70 72zm480-241c-13-43-56-298-56-332v-38l-192-6c-106-3-194-5-194-4-1 1 9 54 22 117s24 148 24 188c0 50 4 72 13 73 30 4 258 16 320 17 61 2 68 0 63-15zm-476-51c0-44-13-121-41-244l-20-86-57-6c-31-3-91-8-134-12l-76-6-7 68c-4 38-15 116-25 174-9 58-16 106-15 108 4 5 287 40 333 41l42 1z"/>
  </g>
</svg>
