<?xml version="1.0"?>
<svg xmlns="http://www.w3.org/2000/svg" height="200pt" preserveAspectRatio="xMidYMid meet" viewBox="0 0 200 200" width="200pt">
  <g transform="matrix(.1 0 0 -.1 0 200)">
    <path d="m1222 1888c-6-6-12-24-12-39 0-14-3-47-6-73l-7-46h-56c-31 0-94-4-141-9s-138-12-202-16l-117-6-3 93-3 93-31 3c-28 3-33-1-43-29-6-18-11-63-11-100 0-80 13-72-153-89-59-6-114-13-122-16-25-10-29-45-7-66 19-20 24-20 161-7l141 14 21-53c43-106 106-164 144-132 22 18 19 31-25 106-22 38-40 74-40 81 0 9 18 13 58 13 31 1 136 7 232 14 96 8 176 13 177 12 5-5-21-85-44-139-25-54-25-59-9-75 15-15 19-15 44-2 39 23 68 72 89 150l17 70h183c170 0 184 1 203 20 11 11 20 25 20 30 0 6-9 19-20 30-18 18-33 20-196 20h-176l6 48c9 66-4 106-35 110-13 2-30-3-37-10z"/>
    <path d="m917 1359c-9-5-26-27-36-47-31-61-172-231-262-318-153-145-303-257-437-324-43-21-84-45-90-53-20-24-4-47 34-47 153 0 546 302 749 575l78 104 138-131c197-187 506-417 657-489 76-37 145-38 150-3 3 18-12 30-85 70-245 132-577 388-779 600-71 75-85 82-117 63z"/>
    <path d="m925 1003c-15-15-17-35-13-159l4-142-143-12c-122-11-145-15-154-31-7-13-6-26 2-40 11-21 15-22 154-15l143 7 6-43c5-39 26-402 26-470 0-30 29-52 55-42 32 13 35 50 23 267-7 116-12 232-12 257l-1 45 110 12c61 6 144 12 185 12 80 1 120 17 120 50 0 32-22 41-97 41-68 0-226-13-299-25l-31-5-6 141c-6 138-14 169-43 169-7 0-20-8-29-17z"/>
    <path d="m1284 403c-9-36 17-56 189-144 148-75 189-84 195-41 5 34-13 49-115 97-52 24-120 60-152 79-72 44-108 47-117 9z"/>
    <path d="m600 278c-103-95-120-126-82-147 28-15 78 15 165 100 76 75 90 102 65 127-24 24-49 10-148-80z"/>
  </g>
</svg>
