<?xml version="1.0"?>
<svg xmlns="http://www.w3.org/2000/svg" height="200pt" preserveAspectRatio="xMidYMid meet" viewBox="0 0 200 200" width="200pt">
  <g transform="matrix(.1 0 0 -.1 0 200)">
    <path d="m1222 1928c-5-7-13-40-17-74-3-33-10-65-13-70-4-6-83-20-177-33-93-12-186-24-206-27-34-5-37-3-43 27-3 17-6 49-6 70 0 62-15 89-49 89-26 0-31-5-40-37-6-23-7-61-2-98 5-33 8-61 7-62s-67-11-146-23c-146-20-180-34-180-70 0-40 21-42 191-21 89 12 163 20 164 19 1-2 11-28 21-58 35-101 127-170 164-125 11 13 7 24-23 68-20 29-43 69-51 89l-16 37 43 5c23 3 104 14 180 24 105 14 137 15 137 6 0-7-16-58-36-113-37-104-39-131-5-131 42 0 99 96 133 226l12 42 85 6c167 14 281 32 298 48 20 21 10 64-16 73-11 3-73-1-137-10-65-8-137-15-161-15h-43l7 60c4 41 2 64-7 75-15 18-54 20-68 3z"/>
    <path d="m1180 1399c-201-8-529-57-559-83-9-7-26-17-38-20-12-4-25-15-28-25-6-20 108-412 131-448 8-12 14-31 14-42 0-27 30-34 93-22 28 5 84 12 122 16 39 3 88 8 110 11l40 6-3-104c-2-57-5-104-5-105-1-1-110-13-241-28-235-26-425-54-497-75-45-13-63-32-54-59 9-29 36-34 102-17 106 26 678 95 690 82 4-3 10-85 15-182s13-185 19-196c17-31 52-19 66 22 12 34 12 73-3 284l-6 83 79 6c389 31 583 50 610 58 36 11 47 32 33 60-14 24-11 24-374-6-165-14-309-25-322-25-21 0-22 6-29 93-4 50-11 97-16 102-5 7 46 18 151 33 184 27 220 36 251 61 20 16 21 21 10 35-18 22-82 21-233-4-68-11-202-29-298-40s-192-23-212-26c-32-5-38-3-38 13 0 10-12 53-26 96s-24 80-23 82c6 5 311 24 512 31l187 7v-55c0-56 12-78 42-78 41 0 49 39 55 243l6 194-24 16c-25 18-16 18-309 6zm240-159v-80h-42c-79 0-580-30-617-36-20-4-44-13-53-21-15-13-19-8-41 64-13 43-23 79-23 80 1 1 78 14 171 29 108 17 234 29 345 34 96 3 194 7 218 8l42 2z"/>
  </g>
</svg>
