<?xml version="1.0"?>
<svg xmlns="http://www.w3.org/2000/svg" height="200pt" preserveAspectRatio="xMidYMid meet" viewBox="0 0 200 200" width="200pt">
  <g transform="matrix(.1 0 0 -.1 0 200)">
    <path d="m1222 1888c-7-7-12-31-12-54s-3-55-6-71l-6-29-161-12c-89-7-206-15-259-19l-98-6v85c0 86-8 108-41 108-30 0-40-27-42-115-2-100 14-89-157-106-63-6-121-16-128-22-19-15-14-55 8-67 15-8 50-8 123 0 181 19 167 20 186-25 25-64 70-134 92-145 24-13 55-5 63 16 3 8-12 48-34 88s-40 77-40 83 47 13 118 17c64 4 168 12 231 17s116 7 119 5c6-6-38-136-55-163-17-26-3-63 24-63 31 0 82 68 103 139 11 37 20 73 20 80 0 8 50 11 175 11 196 0 225 7 225 52 0 42-28 48-216 48h-164v68c0 69-10 92-40 92-9 0-21-5-28-12z"/>
    <path d="m592 1279c-79-147-281-380-427-495-63-49-85-72-85-89 0-23 17-35 49-35 28 0 129 75 214 158 42 42 77 71 77 64 0-6 6-85 14-174 8-90 17-233 21-318 7-162 17-200 54-200 40 0 44 21 37 203-7 151-20 320-42 523l-7 61 56 74c64 86 117 181 117 213 0 52-52 62-78 15z"/>
    <path d="m1500 1153c-241-20-646-65-656-74-19-15-18-44 2-60 16-13 13-13 556 35l137 12-4-126c-3-69-8-249-11-401l-6-276-72 28c-39 15-89 37-110 48-30 15-43 18-53 10-39-33 8-79 150-149 67-33 126-60 133-60 6 0 18 8 27 18 13 15 16 73 21 412 4 217 9 419 12 448l5 52h70c81 0 109 11 109 43 0 42-16 47-145 45-66-1-140-3-165-5z"/>
    <path d="m787 833c-15-2-34-15-43-28-14-21-13-36 15-176 31-160 45-188 92-192 13-1 85 2 160 7 88 5 143 5 155-2 26-14 62 2 68 30 2 13 9 86 14 162 10 139 6 181-21 198-12 8-389 8-440 1zm373-111c0-16-3-63-6-104l-7-76-106-6c-58-4-120-10-137-12-29-5-32-3-38 28-4 18-15 70-25 116l-19 82h169 169z"/>
  </g>
</svg>
