<?xml version="1.0"?>
<svg xmlns="http://www.w3.org/2000/svg" height="200pt" preserveAspectRatio="xMidYMid meet" viewBox="0 0 200 200" width="200pt">
  <g transform="matrix(.1 0 0 -.1 0 200)">
    <path d="m1222 1888c-7-7-12-31-12-54s-3-55-6-71l-6-29-161-12c-89-7-206-15-259-19l-98-6v85c0 86-8 108-41 108-30 0-40-27-42-115-2-100 14-89-157-106-63-6-121-16-128-22-19-15-14-55 8-67 15-8 50-8 123 0 181 19 167 20 186-25 25-64 70-134 92-145 24-13 55-5 63 16 3 8-12 48-34 88s-40 77-40 83 47 13 118 17c64 4 168 12 231 17s116 7 119 5c6-6-38-136-55-163-17-26-3-63 24-63 31 0 82 68 103 139 11 37 20 73 20 80 0 8 50 11 175 11 196 0 225 7 225 52 0 42-28 48-216 48h-164v68c0 69-10 92-40 92-9 0-21-5-28-12z"/>
    <path d="m939 1469c-65-83-228-188-370-240-95-35-109-44-109-71 0-44 79-40 203 12 160 67 367 234 367 298 0 29-14 42-45 42-7 0-28-19-46-41z"/>
    <path d="m1389 1185c-24-26-45-51-47-56-2-4-55-48-118-96-74-55-114-92-112-102 12-62 210 45 319 171 46 54 59 76 57 96-2 21-9 28-29 30-21 2-37-7-70-43z"/>
    <path d="m872 1158c-28-28-13-56 66-123 81-68 114-85 141-68 39 24 24 48-75 127-54 42-103 76-109 76s-16-5-23-12z"/>
    <path d="m608 1109c-32-18-21-53 31-102 59-55 138-107 163-107 20 0 42 35 34 55-2 7-31 33-63 56s-75 57-96 76c-41 36-44 37-69 22z"/>
    <path d="m960 924c-6-14-10-54-10-89v-64l-52-5c-29-3-114-11-188-16-125-10-234-23-287-35-36-8-42-66-7-79 8-3 58 1 112 9 53 7 142 16 197 20 55 3 118 8 140 11l40 5-55-51c-77-71-286-228-341-256-60-30-263-84-348-92-52-6-66-11-69-25-5-25 54-47 125-47 82 0 254 44 332 85 82 43 254 171 342 253 37 34 69 62 71 62 3 0 8-120 12-266s10-272 13-280c8-22 43-28 62-10 14 15 16 46 13 259-2 133-5 255-9 272-5 28-2 27 61-32 86-81 150-123 329-217 235-123 438-179 484-133 24 23 8 49-38 61-166 43-249 76-424 167-157 81-206 113-279 176l-88 78 98 7c55 4 173 12 264 18 91 7 182 16 203 21 32 9 37 14 37 39 0 42-26 46-205 32-82-7-206-15-275-18s-137-7-152-9l-28-4v64c0 84-12 115-45 115-18 0-28-7-35-26z"/>
  </g>
</svg>
