<?xml version="1.0"?>
<svg xmlns="http://www.w3.org/2000/svg" height="200pt" preserveAspectRatio="xMidYMid meet" viewBox="0 0 200 200" width="200pt">
  <g transform="matrix(.1 0 0 -.1 0 200)">
    <path d="m1222 1888c-7-7-12-31-12-54s-3-55-6-71l-6-29-161-12c-89-7-206-15-259-19l-98-6v85c0 86-8 108-41 108-30 0-40-27-42-115-2-100 14-89-157-106-63-6-121-16-128-22-19-15-14-55 8-67 15-8 50-8 123 0 181 19 167 20 186-25 25-64 70-134 92-145 24-13 55-5 63 16 3 8-12 48-34 88s-40 77-40 83 47 13 118 17c64 4 168 12 231 17s116 7 119 5c6-6-38-136-55-163-17-26-3-63 24-63 31 0 82 68 103 139 11 37 20 73 20 80 0 8 50 11 175 11 196 0 225 7 225 52 0 42-28 48-216 48h-164v68c0 69-10 92-40 92-9 0-21-5-28-12z"/>
    <path d="m1400 1275c-8-2-76-9-150-15-166-14-200-27-228-84-11-24-44-70-74-102-98-107-128-147-128-170 0-12 7-24 15-28 27-10 64 12 122 73l56 60 36-32c20-18 57-48 84-66 26-19 47-38 47-42 0-11-154-137-303-248-97-72-137-107-135-119 5-24 43-27 94-7 54 20 252 163 356 256l76 69 119-72c136-83 328-177 426-209 79-26 117-18 117 25 0 31-11 39-95 66-127 42-501 241-496 265 1 6 39 64 85 130s91 134 100 152c22 43 20 80-3 93-18 9-85 12-121 5zm-27-162c-106-152-124-173-136-166-7 3-47 33-89 65l-77 59 21 43 21 44 91 9c50 6 119 11 154 11l63 2z"/>
    <path d="m226 1214c-13-34-3-54 82-160 76-95 91-109 117-109s30 4 33 30c2 24-10 45-63 110-36 44-75 95-86 113-16 24-28 32-49 32-16 0-30-7-34-16z"/>
    <path d="m242 788c-7-7-12-20-12-29 0-20 146-216 171-229 48-26 65 29 28 90-25 40-119 161-134 172s-40 9-53-4z"/>
    <path d="m1166 559c-108-6-174-13-184-21-11-10-13-27-8-83 4-38 11-127 16-197s13-136 19-146c9-17 30-19 261-26 211-6 255-5 274 7 20 13 24 33 45 226 30 268 39 252-133 250-67-1-197-6-290-10zm344-101c0-13-7-79-15-148s-15-126-15-127c0-2-87-3-193-3h-193l-14 140c-10 91-11 140-5 141 18 2 298 15 368 17 63 2 67 1 67-20z"/>
    <path d="m549 364c-13-15-81-78-151-141-94-84-128-120-128-137 0-31 23-49 51-41 32 10 263 245 278 282 25 61-7 84-50 37z"/>
  </g>
</svg>
