<?xml version="1.0"?>
<svg xmlns="http://www.w3.org/2000/svg" height="200pt" preserveAspectRatio="xMidYMid meet" viewBox="0 0 200 200" width="200pt">
  <g transform="matrix(.1 0 0 -.1 0 200)">
    <path d="m1222 1888c-7-7-12-31-12-54s-3-55-6-71l-6-29-161-12c-89-7-206-15-259-19l-98-6v85c0 86-8 108-41 108-30 0-40-27-42-115-2-100 14-89-157-106-63-6-121-16-128-22-19-15-14-55 8-67 15-8 50-8 123 0 181 19 167 20 186-25 25-64 70-134 92-145 24-13 55-5 63 16 3 8-12 48-34 88s-40 77-40 83 47 13 118 17c64 4 168 12 231 17s116 7 119 5c6-6-38-136-55-163-17-26-3-63 24-63 31 0 82 68 103 139 11 37 20 73 20 80 0 8 50 11 175 11 196 0 225 7 225 52 0 42-28 48-216 48h-164v68c0 69-10 92-40 92-9 0-21-5-28-12z"/>
    <path d="m790 1350c-10-6-14-26-12-74 3-72 10-66-93-82-22-3-47-8-56-10-13-4-18 9-27 62-12 71-25 94-52 94-34 0-43-25-35-103l6-74-88-17c-157-30-163-33-163-66 0-48 23-53 150-29 61 12 113 19 116 16 8-7 34-176 34-218 0-23 7-42 20-54 18-17 24-16 127 6 100 22 133 24 432 25 271 2 326 4 338 17 24 23 7 55-35 67-102 29-540 21-719-14-40-7-73-11-73-7 0 3-7 48-15 100-9 52-14 96-12 98 6 5 151 32 155 29 1-2 5-34 9-71 7-82 29-110 75-101 16 3 86 8 156 11 175 8 191 11 204 40 9 20 8 28-5 43-11 12-17 36-17 70v52h193c179 0 195 2 211 19 23 26 13 59-22 68-15 5-105 8-199 8l-173-1v41c0 46-14 65-47 65-26 0-43-32-43-81 0-21-5-29-17-29-10-1-68-7-129-13l-112-13-5 54c-8 74-34 99-77 72zm328-295c-2-1-53-5-115-8l-111-6-7 40c-4 22-4 43-1 46 3 4 57 11 119 17l112 11 3-48c2-27 2-50 0-52z"/>
    <path d="m990 800c-18-18-20-29-14-80l6-58-48-7c-144-18-271-39-371-61-62-13-115-24-117-24-15 0-26-42-16-60 14-27 34-26 225 9 88 16 189 32 225 36l65 6-35-31c-139-125-358-266-505-325-119-48-152-80-107-104 72-38 389 122 615 311l72 60 5-174c6-193 16-228 65-228 37 0 48 30 35 97-5 31-10 112-10 180v124l43-29c177-121 474-246 670-282 59-11 71-11 84 3 20 20 9 54-25 71-15 8-54 19-87 26-92 19-248 76-380 140-130 63-290 162-279 173 4 4 143 7 309 7 325 0 340 2 333 50-6 49-27 51-365 44l-312-6-7 61c-9 86-35 110-74 71z"/>
  </g>
</svg>
