<?xml version="1.0"?>
<svg xmlns="http://www.w3.org/2000/svg" height="200pt" preserveAspectRatio="xMidYMid meet" viewBox="0 0 200 200" width="200pt">
  <g transform="matrix(.1 0 0 -.1 0 200)">
    <path d="m1222 1888c-7-7-12-31-12-54s-3-55-6-71l-6-29-161-12c-89-7-206-15-259-19l-98-6v85c0 86-8 108-41 108-30 0-40-27-42-115-2-100 14-89-157-106-63-6-121-16-128-22-19-15-14-55 8-67 15-8 50-8 123 0 181 19 167 20 186-25 25-64 70-134 92-145 24-13 55-5 63 16 3 8-12 48-34 88s-40 77-40 83 47 13 118 17c64 4 168 12 231 17s116 7 119 5c6-6-38-136-55-163-17-26-3-63 24-63 31 0 82 68 103 139 11 37 20 73 20 80 0 8 50 11 175 11 196 0 225 7 225 52 0 42-28 48-216 48h-164v68c0 69-10 92-40 92-9 0-21-5-28-12z"/>
    <path d="m902 1453c-4-10-7-60-6-110 1-51 1-93 0-93s-54-7-119-15c-122-14-147-24-147-56s31-39 121-29c46 6 99 10 117 10h34l-7-102c-4-57-9-104-10-106-2-2-49-10-106-18-173-24-470-86-485-102-8-8-14-21-12-30 7-37 32-37 235 1 161 30 400 67 430 67 3 0-65-49-153-108-87-60-220-153-294-208s-169-123-210-151c-90-60-104-75-95-103 10-32 57-25 123 16 31 20 123 85 204 145l148 108 1-67c1-146 24-362 41-378 15-15 33-15 224-1 115 9 261 19 324 23 63 3 122 10 131 15 13 7 17 43 23 236 9 278 10 262-5 279-18 21-251 18-439-6-85-11-161-20-169-20-14 0 265 196 320 225 19 10 102 18 280 26 140 6 262 15 272 20 9 6 17 21 17 34s-8 28-17 34c-11 5-94 6-203 2-102-4-186-6-188-5-1 1 23 21 55 45 79 59 197 177 217 217 18 35 14 67-9 76-24 9-43-3-79-54-40-55-134-138-260-229-85-62-129-79-198-81h-28v104c0 123-22 109 204 127 149 12 159 14 168 35 8 18 7 28-3 40-12 15-29 16-129 11-63-4-143-10-177-13l-63-7v81c0 101-11 132-45 132-15 0-29-7-33-17zm428-913v-70h-57c-32 0-158-7-281-15-123-9-227-13-233-10-5 4-9 30-9 60v53l48 7c178 24 370 43 445 44l87 1zm-10-230v-69l-32-5c-18-3-112-10-208-16s-203-13-236-16l-62-7-6 42c-3 22-9 59-12 81l-6 40 54 1c29 1 100 5 158 9 58 3 160 7 228 8l122 2z"/>
  </g>
</svg>
