<?xml version="1.0"?>
<svg xmlns="http://www.w3.org/2000/svg" height="200pt" preserveAspectRatio="xMidYMid meet" viewBox="0 0 200 200" width="200pt">
  <g transform="matrix(.1 0 0 -.1 0 200)">
    <path d="m1222 1888c-7-7-12-31-12-54s-3-55-6-71l-6-29-161-12c-89-7-206-15-259-19l-98-6v85c0 86-8 108-41 108-30 0-40-27-42-115-2-100 14-89-157-106-63-6-121-16-128-22-19-15-14-55 8-67 15-8 50-8 123 0 181 19 167 20 186-25 25-64 70-134 92-145 24-13 55-5 63 16 3 8-12 48-34 88s-40 77-40 83 47 13 118 17c64 4 168 12 231 17s116 7 119 5c6-6-38-136-55-163-17-26-3-63 24-63 31 0 82 68 103 139 11 37 20 73 20 80 0 8 50 11 175 11 196 0 225 7 225 52 0 42-28 48-216 48h-164v68c0 69-10 92-40 92-9 0-21-5-28-12z"/>
    <path d="m1010 1343c-177-19-336-45-356-58-27-18-31-47-9-65 13-10 30-11 83-1 101 17 331 43 344 39 6-2-27-20-73-40s-90-45-97-56c-11-17-8-25 24-63l36-43-3-157c-2-87-7-160-10-164-4-3-18 0-33 6-22 10-29 10-42-3-23-22-10-53 34-83 47-32 87-32 107-2 33 51 48 362 21 439l-13 37 91 45c154 77 191 101 194 125 7 45-11 51-142 49-66 0-137-3-156-5z"/>
    <path d="m1403 1213c-48-37-112-84-141-104-52-37-54-37-82-21-23 14-31 14-44 3-49-41 4-88 182-164 146-63 421-157 457-157 50 0 57 57 9 79-14 6-82 30-152 52-113 37-319 115-332 126-3 3 3 9 13 14 26 15 168 123 200 152 15 15 27 33 27 41 0 16-26 46-40 46-5 0-49-30-97-67z"/>
    <path d="m558 1045c-137-17-148-21-148-49 0-42 19-47 126-36 55 6 111 12 126 14 26 2 27 1 12-15-26-28-153-113-224-150-36-18-108-49-160-69-76-29-96-41-98-58-9-58 100-46 258 29 113 54 230 133 313 211 55 52 67 69 67 95 0 19-6 33-16 37-24 9-137 5-256-9z"/>
    <path d="m815 565c-251-18-364-32-381-46-36-30-3-79 44-65 54 17 529 37 825 35 348-2 346-2 347 43 0 38-34 42-345 44-177 2-378-3-490-11z"/>
    <path d="m1046 345c-33-34-20-49 139-161 102-73 117-79 144-65 27 15 27 42-1 68-35 31-231 166-249 170-9 3-23-3-33-12z"/>
    <path d="m282 319c-9-17-45-79-80-138-68-114-76-153-34-159 13-2 32 4 43 14 21 18 132 205 149 249 24 62-46 93-78 34z"/>
    <path d="m656 334c-9-8-16-21-16-29 0-16 113-190 148-228 14-15 33-27 42-27 20 0 40 19 40 38 0 18-134 220-162 245-25 21-32 21-52 1z"/>
    <path d="m1530 295c-24-29-5-50 90-101 52-27 126-69 164-92 39-23 80-42 92-42 27 0 47 24 40 47-10 32-312 203-357 203-9 0-22-7-29-15z"/>
  </g>
</svg>
