<?xml version="1.0"?>
<svg xmlns="http://www.w3.org/2000/svg" height="200pt" preserveAspectRatio="xMidYMid meet" viewBox="0 0 200 200" width="200pt">
  <g transform="matrix(.1 0 0 -.1 0 200)">
    <path d="m1222 1888c-7-7-12-31-12-54s-3-55-6-71l-6-29-161-12c-89-7-206-15-259-19l-98-6v85c0 86-8 108-41 108-30 0-40-27-42-115-2-100 14-89-157-106-63-6-121-16-128-22-19-15-14-55 8-67 15-8 50-8 123 0 181 19 167 20 186-25 25-64 70-134 92-145 24-13 55-5 63 16 3 8-12 48-34 88s-40 77-40 83 47 13 118 17c64 4 168 12 231 17s116 7 119 5c6-6-38-136-55-163-17-26-3-63 24-63 31 0 82 68 103 139 11 37 20 73 20 80 0 8 50 11 175 11 196 0 225 7 225 52 0 42-28 48-216 48h-164v68c0 69-10 92-40 92-9 0-21-5-28-12z"/>
    <path d="m1457 1403c-19-19-2-58 51-120 72-83 132-127 161-118 44 14 23 52-92 174-63 67-99 86-120 64z"/>
    <path d="m1239 1378c-8-14-13-68-13-134l-1-112-55-5c-30-3-134-11-230-17-317-21-569-47-585-60-11-9-15-35-15-104 0-92-31-395-51-496-19-101-49-174-103-260-42-66-52-88-45-102 11-20 40-23 68-8 21 11 101 135 125 194 39 94 86 433 86 621v91l148 13c133 11 206 16 554 37l106 7 7-49c28-216 72-373 136-492l39-73-47-55c-46-53-128-124-144-124-13 0-19-33-8-46 31-37 118 4 203 95l48 52 16-23c54-77 211-208 250-208 30 0 49 32 78 130 13 47 36 123 51 168 21 67 23 86 13 92-7 5-19 6-26 3-23-9-72-99-105-193l-31-90-37 29c-43 34-111 106-136 144-16 25-16 27 15 72 41 59 115 216 131 277 14 51 3 78-31 78-24 0-33-13-69-105-38-96-98-205-112-205-16 0-78 143-99 228-23 89-50 243-50 279v25l159-4c165-3 191 3 191 41 0 37-19 41-192 41h-168v119c0 66-3 126-6 135-9 24-51 20-65-6z"/>
    <path d="m855 864c-11-1-94-11-184-20-146-16-164-20-171-39-4-11-1-112 7-225s12-266 10-341c-4-92-1-141 6-148 6-6 47-11 97-11 139 1 450 26 461 37 6 6 9 23 7 39l-3 29-132-3-133-3v84 84l80 5c66 4 84 9 105 28 23 22 25 30 25 121 0 123-2 124-135 114l-92-7-7 48c-6 47-8 113-3 115 1 0 49 4 106 8 84 6 106 11 117 26 18 24 17 30-2 49-14 15-94 20-159 10zm-151-126c3-13 6-51 6-85v-62l-55-6c-31-4-57-6-59-4s-6 41-9 86l-5 82 41 4c23 2 49 4 58 5 10 1 19-8 23-20zm236-222c0-7 3-27 6-43l6-30-104-7c-56-3-136-9-175-13l-73-6v42 41l43 1c23 0 83 7 132 14 126 18 165 18 165 1zm-207-258c-3-46-6-83-7-84s-27-4-58-8l-58-6v90 90h65 64z"/>
  </g>
</svg>
