<?xml version="1.0"?>
<svg xmlns="http://www.w3.org/2000/svg" height="200pt" preserveAspectRatio="xMidYMid meet" viewBox="0 0 200 200" width="200pt">
  <g transform="matrix(.1 0 0 -.1 0 200)">
    <path d="m1222 1888c-7-7-12-31-12-54s-3-55-6-71l-6-29-161-12c-89-7-206-15-259-19l-98-6v85c0 86-8 108-41 108-30 0-40-27-42-115-2-100 14-89-157-106-63-6-121-16-128-22-19-15-14-55 8-67 15-8 50-8 123 0 181 19 167 20 186-25 25-64 70-134 92-145 24-13 55-5 63 16 3 8-12 48-34 88s-40 77-40 83 47 13 118 17c64 4 168 12 231 17s116 7 119 5c6-6-38-136-55-163-17-26-3-63 24-63 31 0 82 68 103 139 11 37 20 73 20 80 0 8 50 11 175 11 196 0 225 7 225 52 0 42-28 48-216 48h-164v68c0 69-10 92-40 92-9 0-21-5-28-12z"/>
    <path d="m1520 1448c-150-174-180-215-178-233 8-57 92-7 195 115 67 80 80 120 44 140-28 14-30 14-61-22z"/>
    <path d="m874 1442c-5-4-23-25-39-47s-60-73-99-114l-69-74 7-61c21-198 33-255 60-291l27-36 90 7 89 7v-49-50l-161-13c-265-20-516-62-552-91-19-16-20-21-9-45 11-25 17-27 50-22 20 3 95 15 167 26s182 25 245 31c63 5 140 13 170 16l55 6-40-42c-104-109-323-266-490-351-102-51-110-57-110-85 0-26 3-29 38-32 86-7 412 198 598 375l46 44 6-68c4-37 7-139 7-225 0-165 6-188 49-188 41 0 44 20 39 253l-4 224 61-47c174-137 387-260 510-295 69-21 226-26 232-8 9 25-36 51-125 72-50 11-133 40-184 64-130 61-464 289-452 308 3 5 168 9 368 9 339 0 364 1 379 18 21 23 21 36 1 56-13 14-64 16-408 16h-393l-7 31c-14 70-17 68 107 71l112 3 17 35c12 26 18 79 23 206 9 216 13 210-125 200-86-5-247-28-310-43l-25-6 21 24c32 36 94 132 94 146 0 15-28 43-43 43-7 0-17-4-23-8zm326-251c0-5-3-21-6-37l-6-29-91-2c-84-2-234-17-298-29-21-4-28 0-32 15-6 24 12 30 158 56 183 31 275 40 275 26zm-10-204v-54l-168-6c-92-4-182-9-200-13l-33-7 3 49 3 49 55 8c30 4 118 12 195 16s141 9 143 10c1 0 2-23 2-52z"/>
    <path d="m308 1299c-25-14-23-56 5-73 46-30 212-87 235-81 31 8 27 51-8 77-18 13-205 90-214 88 0 0-9-5-18-11z"/>
    <path d="m1356 1027c-14-10-17-21-12-41 5-22 21-34 79-61 84-39 230-83 304-92 57-6 83 5 83 38 0 24-37 41-155 69-72 17-193 60-270 96-6 2-19-2-29-9z"/>
    <path d="m550 996c-221-95-295-133-298-155-4-28 14-51 42-51 30 0 292 131 335 168 24 19 32 34 28 45-9 23-41 21-107-7z"/>
  </g>
</svg>
