<?xml version="1.0"?>
<svg xmlns="http://www.w3.org/2000/svg" height="200pt" preserveAspectRatio="xMidYMid meet" viewBox="0 0 200 200" width="200pt">
  <g transform="matrix(.1 0 0 -.1 0 200)">
    <path d="m900 1951c-14-26-12-69 5-175 8-49 14-91 12-92-1-1-92-9-202-18-264-22-434-44-467-61-16-7-28-9-28-5 0 14-37 31-54 24-8-3-18-15-22-26-6-19 109-576 126-608 9-18 43-18 235-1 72 6 204 14 296 18l165 6 12-169c7-93 20-238 29-321 9-84 14-155 11-158s-126-21-274-40c-288-37-469-69-491-86-7-6-13-19-13-28 0-44 48-51 171-26 84 17 467 66 699 90 85 9 223 27 305 40 83 13 181 25 218 27l68 3 38-98c48-121 65-147 94-147 49 0 59 37 27 99-11 22-42 103-70 181s-69 183-91 233c-55 128-82 152-114 104-14-23-12-31 35-148l50-124-63-8c-34-5-132-19-217-32s-182-27-215-31l-61-6-12 123c-20 202-45 520-41 523 2 2 165 6 362 9 294 4 361 7 373 19 9 9 18 54 24 129 6 63 19 168 31 234 47 271 47 274 6 297-29 17-428 17-666 1-96-7-176-11-178-10-1 2-11 60-21 129-11 69-22 130-26 136-11 19-54 14-66-7zm879-330c13-8 12-23-3-108-28-152-46-283-46-335 0-26-3-49-7-51-5-3-158-8-340-12l-333-8v79c0 44-7 153-14 244-8 91-13 166-11 169 2 2 80 7 172 12s175 11 183 13c33 8 386 5 399-3zm-846-83c13-119 30-406 25-420-5-12-37-16-165-21-153-7-341-21-413-32l-35-6-49 213c-27 117-51 223-53 234-5 20 2 22 129 38 139 18 416 42 504 45l51 1z"/>
  </g>
</svg>
