<?xml version="1.0"?>
<svg xmlns="http://www.w3.org/2000/svg" height="200pt" preserveAspectRatio="xMidYMid meet" viewBox="0 0 200 200" width="200pt">
  <g transform="matrix(.1 0 0 -.1 0 200)">
    <path d="m1265 1830c-93-5-249-17-345-29-96-11-254-25-350-31-197-13-220-19-220-54 0-46 15-49 197-36 92 6 206 15 253 20 47 6 98 10 113 10 29 0 29 0 22-50-7-49-30-149-37-155-2-2-57-11-123-20-146-20-165-27-165-59 0-41 26-47 136-31 54 8 105 15 112 15 19 0-39-104-98-176-50-61-215-212-345-316-95-76-201-143-290-184-76-34-91-54-63-82 64-64 386 144 678 437 108 109 172 192 204 265 3 7 9 5 15-5 40-62 120-142 223-221 214-166 298-214 515-288 130-45 166-47 178-9 11 32-9 44-140 89-185 63-290 119-443 234-135 102-203 165-256 237l-26 36 47 6c27 3 105 9 175 13 135 7 152 14 146 56-3 22-7 23-104 26-55 1-140-1-188-6l-88-8 8 45c3 25 10 73 13 106l6 60 70 6c39 4 144 10 235 14s171 12 178 18c16 13 15 42-1 56-22 17-60 19-242 11z"/>
    <path d="m941 1076c-6-7-14-50-18-94l-6-81-41-6c-23-4-92-7-153-9-69-1-117-6-125-14-19-19 19-306 45-339l21-26 131 7 132 7 8-122c4-66 3-125-2-129-4-4-105-25-223-45-118-21-221-44-229-51-12-11-12-18-3-39 16-34 23-33 335 19 144 25 352 54 462 65 220 22 264 29 282 43 8 6 26-11 57-55 57-80 80-92 111-61 21 22 13 44-49 129-28 39-68 96-90 128-40 60-75 79-101 57-22-18-18-44 10-78 14-17 25-32 25-35 0-11-40-18-223-37-106-11-211-23-234-26l-43-6v121 121h139c77 0 147 3 156 6 35 14 45 58 45 207 0 108-3 148-14 163-14 18-26 19-175 16l-161-2v71c0 39-5 79-10 90-12 22-43 25-59 5zm329-356v-110h-124-123l-7 46c-3 26-6 73-6 105v58l53 4c28 2 87 4 130 5l77 2zm-345-6c4-52 4-98 0-102s-53-9-110-12c-98-5-104-4-109 15-5 22-19 160-17 172 1 7 78 15 192 21l37 2z"/>
  </g>
</svg>
