<?xml version="1.0"?>
<svg xmlns="http://www.w3.org/2000/svg" height="200pt" preserveAspectRatio="xMidYMid meet" viewBox="0 0 200 200" width="200pt">
  <g transform="matrix(.1 0 0 -.1 0 200)">
    <path d="m787 1808c-8-13-36-60-62-105-47-80-150-208-262-326-49-52-61-59-104-64-69-8-75-18-61-111 11-72 52-511 52-557 0-19-10-23-96-38-117-21-154-38-154-72 0-42 26-46 151-21 375 76 1407 133 1569 86 47-13 72 3 68 43-3 27-9 34-43 45-21 7-81 16-132 19l-94 6 6 41c7 54 23 271 31 423 6 105 4 126-10 148l-16 25h-303c-166 0-407-5-536-11-128-5-235-9-237-7s36 49 85 105c104 119 134 161 191 269 36 69 40 84 31 103-16 28-56 28-74-1zm357-560c3-7 7-133 10-280l6-266-88-6c-48-4-112-9-142-12l-55-5-3 96c-2 54-14 167-28 253-13 86-24 170-24 188v33l73 4c183 8 248 7 251-5zm418-65c-3-85-32-466-35-469-1-1-63-4-138-7l-136-6-7 182c-3 100-9 226-12 280l-7 97h169 169zm-832 38c0-16 11-105 24-198 13-92 27-210 29-260 5-83 4-93-11-93-33 0-245-19-286-25l-42-7-18 214c-11 117-24 250-31 296l-12 82 26 1c87 4 298 16 309 17 7 1 12-10 12-27z"/>
  </g>
</svg>
