<?xml version="1.0"?>
<svg xmlns="http://www.w3.org/2000/svg" height="200pt" preserveAspectRatio="xMidYMid meet" viewBox="0 0 200 200" width="200pt">
  <g transform="matrix(.1 0 0 -.1 0 200)">
    <path d="m732 1887c-6-6-14-26-18-42-5-19-51-74-126-152l-120-121 12-79c7-43 15-122 19-176 6-93 5-98-14-102-11-2-89-15-173-29-155-24-182-34-182-67 0-38 29-39 220-8 402 64 765 97 925 84 162-13 498-15 512-3 18 15 16 42-5 61-16 15-45 17-196 17-105 0-175 4-172 9 4 5 11 72 16 148s12 154 16 174c5 30 2 41-16 59-23 23-25 23-219 17-170-5-434-26-525-42-28-5-27-3 23 50 76 80 111 171 79 203-16 16-43 15-56-1zm613-379c-3-46-8-116-11-155l-6-73h-107-108l-6 123c-4 67-9 137-13 155l-6 32h131 132zm-331-35c4-60 8-127 11-149 5-48-4-54-86-54-56 0-55-2-65 179l-7 119 24 5c13 2 45 5 71 6l46 1zm-230 56c3-17 6-66 6-108 1-42 5-95 9-118 9-48 12-46-99-58-30-3-67-8-82-11-27-5-28-5-28 43 0 51-17 206-26 235-5 16 35 29 131 41 77 10 82 9 89-24z"/>
    <path d="m1072 1153c-7-3-22-24-34-46-21-44-112-160-147-189-25-21-25-16-5-198 10-95 14-214 12-346-2-157 1-205 11-218 18-22 34-20 57 5 17 19 19 39 19 238 0 119-6 270-14 337l-14 121 63 74c61 73 110 154 110 183 0 15-26 47-38 45-4 0-13-3-20-6z"/>
    <path d="m1492 1038c-81-101-149-172-213-220-40-31-79-57-85-58-6 0-21 11-34 25-34 36-90 29-90-12 0-16 188-226 248-277 59-49 250-174 320-210 75-38 202-86 228-86 33 0 49 25 36 54-8 17-34 33-94 56-114 44-165 71-298 158-100 65-260 202-260 223 0 3 28 25 63 47 99 65 247 230 247 276s-39 60-68 24z"/>
    <path d="m536 948c-29-29-94-78-144-108-147-88-157-95-157-114 0-10 8-24 17-30 53-33 359 162 380 242 6 22-16 62-33 62-5 0-34-24-63-52z"/>
    <path d="m577 653c-63-82-192-202-264-247-66-41-80-60-61-83s79-10 135 28c92 63 277 256 295 309 8 24-11 50-37 50-17 0-36-16-68-57z"/>
  </g>
</svg>
