<?xml version="1.0"?>
<svg xmlns="http://www.w3.org/2000/svg" height="200pt" preserveAspectRatio="xMidYMid meet" viewBox="0 0 200 200" width="200pt">
  <g transform="matrix(.1 0 0 -.1 0 200)">
    <path d="m515 1778c-61-177-141-293-333-489-121-125-134-151-76-157 64-6 229 152 363 348 69 100 93 147 114 215 19 66 9 95-33 95-17 0-33-6-35-12z"/>
    <path d="m1470 1674c-63-7-160-18-215-24-133-15-294-48-323-66-15-10-22-23-20-36 6-38 30-43 110-25 101 24 238 42 472 63 204 18 226 24 226 64 0 42-49 47-250 24z"/>
    <path d="m632 1411c-7-4-37-57-66-117-89-182-193-306-372-439-62-47-114-90-117-97-8-24 13-48 43-48 32 0 149 74 229 146l51 46v-361c0-348 1-362 20-381 25-25 35-25 62 2l21 21-7 406-6 406 45 60c61 80 155 268 155 309 0 47-26 68-58 47z"/>
    <path d="m1715 1203c-358-17-962-103-1011-144-21-17-17-57 5-64 11-3 68 3 126 15 109 21 517 82 521 77 1-1 4-183 8-405l7-403-23 12c-13 6-44 27-71 46-52 39-77 38-77-3 0-30 52-85 140-148 56-40 95-49 112-25 5 9 6 194 2 477-6 389-4 462 7 462 8 0 99 5 203 10 198 11 236 20 236 58 0 41-12 44-185 35z"/>
  </g>
</svg>
