<?xml version="1.0"?>
<svg xmlns="http://www.w3.org/2000/svg" height="200pt" preserveAspectRatio="xMidYMid meet" viewBox="0 0 200 200" width="200pt">
  <g transform="matrix(.1 0 0 -.1 0 200)">
    <path d="m523 1778c-5-7-18-35-28-63-39-108-148-258-304-418-105-107-124-131-115-145 30-47 82-21 207 105 198 200 346 459 297 518-15 18-44 20-57 3z"/>
    <path d="m915 1666c-16-12-17-24-5-197 6-101 10-204 8-229l-3-45-115-16c-64-8-121-18-128-23-19-12-14-44 11-60 19-12 36-12 126 0 58 7 107 12 109 9 4-4 5-11 32-406 11-158 20-331 21-385 1-55 4-110 8-124 8-28 43-39 67-20 21 19 18 170-12 577-15 194-24 359-21 366 3 9 38 19 97 27 78 11 94 17 107 37 15 23 15 26-4 44-19 19-23 19-109 6-49-8-91-13-93-11s-8 73-12 156c-8 151-16 236-25 271-8 26-38 39-59 23z"/>
    <path d="m1520 1543c-80-7-161-18-181-23-41-11-55-38-34-66 11-16 22-16 136-5 68 7 183 16 256 20 82 5 138 13 148 21 18 15 20 41 3 58-16 16-140 14-328-5z"/>
    <path d="m1071 1512c-8-15-3-33 20-83 49-104 101-141 115-83 5 19-3 46-32 103-32 63-44 77-66 79-18 2-30-3-37-16z"/>
    <path d="m608 1378c-20-57-98-201-141-258-68-92-164-185-278-271-60-46-109-90-109-99 0-23 20-40 46-40s133 70 217 142l57 49 2-148c1-81 2-243 2-360 1-184 3-215 18-229 28-28 66-11 74 33 4 20 4 209 0 419l-7 381 51 67c70 93 152 264 148 308-3 29-7 33-36 36s-34 0-44-30z"/>
    <path d="m1690 1159c-74-10-211-30-304-45-181-30-221-46-200-81 6-10 23-19 38-21 23-3 154 15 257 34l27 5 5-123c3-68 11-243 18-390s11-270 8-272c-3-3-36 1-74 9-39 9-76 13-82 10-19-7-16-29 6-49 19-18 177-86 198-86 7 0 20 12 29 26 16 23 16 48 6 297-7 150-17 341-23 425s-9 156-5 159c3 3 65 12 138 20s144 20 158 27c52 25 28 77-34 75-17-1-92-9-166-20z"/>
    <path d="m1092 888c-7-7-12-19-12-29 0-27 181-390 197-396 23-9 48 10 51 38 2 15-27 85-73 179-102 207-130 241-163 208z"/>
    <path d="m778 853c-8-10-21-52-28-93s-25-115-41-165c-46-146-79-272-79-299 0-26 25-41 52-31 18 7 42 59 61 135 8 30 31 111 51 178 20 68 39 156 43 194 5 62 4 73-12 84-24 18-29 18-47-3z"/>
  </g>
</svg>
