<?xml version="1.0"?>
<svg xmlns="http://www.w3.org/2000/svg" height="200pt" preserveAspectRatio="xMidYMid meet" viewBox="0 0 200 200" width="200pt">
  <g transform="matrix(.1 0 0 -.1 0 200)">
    <path d="m523 1778c-5-7-18-35-28-63-39-108-148-258-304-418-105-107-124-131-115-145 30-47 82-21 207 105 198 200 346 459 297 518-15 18-44 20-57 3z"/>
    <path d="m968 1713c-22-5-27-27-30-133l-3-84-82-17c-96-20-103-23-103-53 0-42 23-51 94-38 35 7 68 12 75 12 8 0 11-51 11-174v-174l-70-16c-107-25-226-65-240-81-15-18-10-45 11-58 12-7 48-1 130 21 130 36 369 78 501 88 92 7 118 19 118 53 0 29-22 41-75 41-46-1-83-5-232-25l-53-8v177c0 203-17 180 137 195 95 9 123 20 123 51 0 36-25 43-123 37-51-4-102-10-114-13-23-6-23-5-23 89 0 82-3 98-17 105-10 5-26 7-35 5z"/>
    <path d="m1468 1673c-94-4-115-15-104-57 3-13 16-26 28-29 13-3 104-2 203 3s192 10 207 10c34 0 54 31 38 60-10 19-20 20-148 18-75-1-176-4-224-5z"/>
    <path d="m608 1378c-20-57-98-201-141-258-68-92-164-185-278-271-60-46-109-90-109-99 0-23 20-40 46-40s133 70 217 142l57 49 2-148c1-81 2-243 2-360 1-184 3-215 18-229 28-28 66-11 74 33 4 20 4 209 0 419l-7 381 51 67c70 93 152 264 148 308-3 29-7 33-36 36s-34 0-44-30z"/>
    <path d="m1655 1299c-152-11-357-39-372-51-19-16-15-56 6-68 14-7 50-5 123 5 56 8 117 15 133 15h31l13-137c7-76 15-284 18-463 4-316 4-324-14-299-53 75-139 169-153 167-28-6-21-43 26-123 26-44 67-117 90-161 24-45 50-87 59-94 23-19 63-4 72 28 5 15 8 203 8 417-1 296-5 424-17 530-9 77-15 141-14 142 1 2 63 6 137 9 74 4 140 11 147 17 15 12 16 49 0 65-13 13-116 14-293 1z"/>
    <path d="m950 895c-7-8-15-46-18-83l-4-68-88-23c-98-25-130-43-130-70 0-42 25-46 125-20 52 13 96 21 98 19 3-3 8-77 12-166l7-160-157-26c-173-28-197-39-177-83 8-17 19-25 37-25 37 0 257 36 425 69 80 16 177 32 215 36 39 4 76 12 83 17 20 17 14 46-12 64-27 17-70 15-229-13-48-8-90-14-92-12s-6 76-10 165l-8 160 93 17c51 9 99 22 106 28 18 15 18 43-1 59-15 12-33 12-157-6l-48-7v60c0 32-5 64-12 71-16 16-43 15-58-3z"/>
  </g>
</svg>
