<?xml version="1.0"?>
<svg xmlns="http://www.w3.org/2000/svg" height="200pt" preserveAspectRatio="xMidYMid meet" viewBox="0 0 200 200" width="200pt">
  <g transform="matrix(.1 0 0 -.1 0 200)">
    <path d="m952 1788c-7-7-12-44-12-94v-82l-64-7c-76-8-105-30-86-65 11-21 18-22 80-18l67 5 7-66c3-36 6-94 6-128 0-59-2-63-22-63-41 0-207-39-238-55-25-13-31-22-28-43 3-25 7-27 43-26 22 1 90 11 150 23 71 13 191 24 335 31 124 6 235 13 246 15 31 7 37 42 12 67-19 19-29 20-109 15l-89-7v164c0 134-3 166-15 176-11 9-38 11-102 6-48-4-92-8-98-9s-12 30-15 76c-3 54-10 81-20 87-20 13-34 12-48-2zm208-367v-128l-57-6c-32-3-58-5-60-3-1 1-6 59-9 128l-7 127 34 4c19 2 49 5 67 5l32 2z"/>
    <path d="m523 1778c-5-7-18-35-28-63-39-108-148-258-304-418-105-107-124-131-115-145 30-47 82-21 207 105 198 200 346 459 297 518-15 18-44 20-57 3z"/>
    <path d="m1560 1548c-104-10-138-27-126-66 10-29 27-33 109-22 39 5 125 10 190 10 103 0 119 2 137 20 24 24 25 34 4 54-18 18-148 20-314 4z"/>
    <path d="m608 1378c-20-57-98-201-141-258-68-92-164-185-278-271-60-46-109-90-109-99 0-23 20-40 46-40s133 70 217 142l57 49 2-148c1-81 2-243 2-360 1-184 3-215 18-229 28-28 66-11 74 33 4 20 4 209 0 419l-7 381 51 67c70 93 152 264 148 308-3 29-7 33-36 36s-34 0-44-30z"/>
    <path d="m1105 1133c-105-10-238-34-265-48l-30-16 1-92c0-117 8-159 36-191 21-23 26-25 92-19l71 6v-35-36l-72-10c-50-8-74-8-79-1-9 15-50 7-62-13-8-12-5-43 8-112 12-60 15-99 9-105-5-4-47-15-93-24-95-19-113-30-109-66 3-24 7-26 48-26 25 1 114 14 198 29 130 25 155 27 163 15 5-8 9-84 9-170 0-141 2-158 19-173 15-14 24-15 40-7 30 17 35 48 28 217-4 121-3 154 8 158 7 2 96 10 197 17 195 12 232 22 226 61-6 40-26 43-213 30-97-7-189-15-205-19l-30-5v61c0 41 4 63 13 66 6 2 52 9 100 15 90 12 117 26 117 60 0 42-46 45-211 14-24-5-27-2-31 30l-4 36 46 1c25 1 59 0 77-1 47-2 53 19 53 184 0 187 3 184-155 169zm65-172v-88l-102-7c-57-4-117-9-134-12l-32-6-7 82c-4 44-5 83-3 85 3 4 215 31 261 34 15 1 17-9 17-88zm-156-373c3-13 6-40 6-60 0-35-2-37-37-43-21-3-46-8-55-9-17-4-19 1-34 86-6 34-4 37 23 41 72 11 90 8 97-15z"/>
    <path d="m1760 1079c-190-23-368-53-387-66-28-17-29-34-4-57 19-17 26-17 128-2 59 9 119 19 133 22l25 5-8-393c-5-216-10-394-12-396s-34 10-71 26c-66 29-94 32-94 8 0-17 64-75 138-126 55-38 67-42 90-34l27 9 6 275c4 151 7 357 8 456l1 182 73 7c78 7 117 25 117 53 0 42-33 48-170 31z"/>
  </g>
</svg>
