<?xml version="1.0"?>
<svg xmlns="http://www.w3.org/2000/svg" height="200pt" preserveAspectRatio="xMidYMid meet" viewBox="0 0 200 200" width="200pt">
  <g transform="matrix(.1 0 0 -.1 0 200)">
    <path d="m870 1800c-20-20-21-28-15-74 8-53 23-269 19-274-1-2-49-8-106-13-177-16-609-84-640-100-26-14-23-57 5-64 12-3 126 10 252 29 288 43 345 50 345 39-2-53-175-271-315-395-102-91-147-120-260-165-89-36-107-52-85-78 33-40 193 8 311 94l67 49 6-91c3-51 8-209 11-352 7-290 9-311 35-325 28-15 43-5 115 78 89 102 121 157 105 177-7 8-17 15-22 15s-39-28-74-62c-35-33-64-57-64-52-2 123-22 621-26 651-6 41-5 43 63 115 38 40 90 101 116 136 48 61 107 177 107 207 0 8 8 15 18 15 9 0 123 7 252 15s327 19 440 25c381 18 400 21 400 70 0 37-32 42-188 31-81-6-273-18-427-26-154-9-297-17-317-19l-38-4-1 81c0 45-6 122-12 171-10 72-16 91-34 103-19 13-24 12-43-7z"/>
    <path d="m1512 1258c-6-8-24-40-41-71-39-74-136-208-193-267-59-62-166-150-182-150-13 0-139 126-267 269-62 68-80 82-96 77-29-9-36-32-19-64 45-86 514-561 686-695 156-121 288-191 363-192 42 0 52 3 55 18 5 24-14 38-135 98-116 58-345 232-458 349l-70 72 25 16c109 73 231 207 323 354 58 94 77 149 60 177-13 21-37 25-51 9z"/>
  </g>
</svg>
