<?xml version="1.0"?>
<svg xmlns="http://www.w3.org/2000/svg" height="200pt" preserveAspectRatio="xMidYMid meet" viewBox="0 0 200 200" width="200pt">
  <g transform="matrix(.1 0 0 -.1 0 200)">
    <path d="m921 1952c-18-15-21-30-23-127l-3-110-195-17c-107-10-201-20-208-23-8-3-12-17-10-37l3-33h95c52 0 146 4 208 8l112 9v-76-76h-45c-65 0-246-29-262-42-20-16-16-46 10-62 19-13 34-13 122-1 55 8 117 15 138 15h37v-114-113l-92-7c-51-4-129-11-173-16s-127-14-185-20c-149-16-180-25-180-54 0-51 24-54 263-30l67 7-15-44c-24-67-80-162-122-205-46-47-200-171-291-234-73-50-88-69-78-95 5-14 14-16 49-11 48 8 99 39 218 132l84 65 8-248c7-232 9-249 28-265 29-25 48-13 134 82 82 90 110 133 101 156-11 30-52 14-106-41l-55-56-7 43c-3 24-7 126-7 227l-1 183 46 69c25 38 59 106 75 151 17 46 36 88 42 95 17 17 371 33 728 33 296 0 298 0 313 22 13 19 14 25 2 43-13 20-22 20-385 20h-371v113 112h148c157 0 195 9 200 47 7 46-17 53-189 53h-159v73 74l122 6c66 4 170 7 230 7 95 0 110 2 128 20 24 24 24 30 7 54-13 17-31 18-250 14l-237-3v98c0 54-4 106-10 116-14 27-36 32-59 13z"/>
    <path d="m1534 1032c-7-4-32-34-56-67-25-33-96-107-158-165-167-154-170-157-170-174 0-23 34-38 63-27 28 11 122 87 220 180 82 78 157 179 157 213 0 38-28 58-56 40z"/>
    <path d="m706 938c-59-33 29-143 285-358 250-210 395-306 559-369 138-53 270-61 270-16 0 22-37 40-130 65-97 25-244 96-364 173-166 109-496 396-550 478-19 31-46 41-70 27z"/>
  </g>
</svg>
