<?xml version="1.0"?>
<svg xmlns="http://www.w3.org/2000/svg" height="200pt" preserveAspectRatio="xMidYMid meet" viewBox="0 0 200 200" width="200pt">
  <g transform="matrix(.1 0 0 -.1 0 200)">
    <path d="m549 1864c-8-10-15-48-17-89l-4-72-87-16c-126-25-160-36-171-57s-5-46 15-54c8-3 66 6 129 20 64 13 118 24 121 24s5-26 6-57c0-32 6-110 13-173s13-116 12-116c0-1-100-20-221-44-121-23-226-46-232-52-18-15-16-58 3-65 9-3 96 9 193 26 381 71 510 91 675 106 94 8 192 17 219 19l47 5v-67c0-183 43-445 96-593 13-36 24-72 24-79 0-21-77-105-114-125-21-11-36-27-36-38 0-45 80-32 144 24 26 23 48 40 50 38s18-33 36-69c62-125 179-234 243-228 29 3 36 10 75 88 23 47 48 111 54 143 11 50 10 59-4 74-24 23-42 5-68-64-23-61-68-143-79-143-22 0-114 115-150 187-23 46-41 86-41 91 0 4 37 64 83 133 103 156 145 243 131 267-6 9-20 18-31 20-23 3-40-17-93-113-43-78-121-195-130-195-10 0-47 130-71 244-20 98-42 396-31 408 4 4 99 11 211 16 181 7 205 10 217 27 18 24 18 30-3 51-16 15-35 16-192 10-96-4-187-10-204-13l-29-6 3 234c2 129 0 240-4 247-12 18-31 15-52-8-16-17-19-51-28-248l-11-229-156-12c-147-11-326-32-403-46l-34-7-11 109c-6 59-14 138-18 174l-6 66 105 17c58 9 120 16 136 16 59 0 86 56 40 81-18 9-124 1-234-20l-45-8v59c0 33-5 68-10 79-13 23-43 25-61 3z"/>
    <path d="m1525 1699c-8-24 59-130 118-187 39-38 80-41 85-7 3 20-67 124-126 188-31 33-68 36-77 6z"/>
    <path d="m610 1085c-10-11-11-39-6-102 3-47 9-96 12-108 5-21 0-23-83-39-119-23-248-63-262-80-18-21-10-60 13-64 10-2 49 6 87 18 38 13 72 20 76 16 12-12-114-152-197-219-60-48-85-74-85-90 0-37 50-34 115 7 65 42 62 46 85-99 18-109 34-145 67-145 49 0 168 102 168 144 0 24-37 20-88-10-30-18-47-23-51-15-4 6-15 62-25 125l-18 114 48 58c26 33 58 82 71 110l23 51 100 17c55 9 158 21 228 27s142 13 159 15c39 6 59 35 43 64-13 25-49 26-242 4-77-8-142-13-144-11s-6 43-10 93c-3 49-13 99-20 112-17 25-46 29-64 7z"/>
    <path d="m922 709c-53-66-111-130-143-157l-36-32-62 60c-34 33-65 60-67 60-20 0-44-25-44-45 0-60 304-306 507-409 59-30 81-37 120-34 39 2 48 6 48 22 0 10-7 23-15 27-8 5-58 32-110 60-111 61-196 117-262 171l-48 40 48 37c63 50 132 141 132 174 0 16-8 30-19 37-26 14-29 13-49-11z"/>
  </g>
</svg>
