<?xml version="1.0"?>
<svg xmlns="http://www.w3.org/2000/svg" height="200pt" preserveAspectRatio="xMidYMid meet" viewBox="0 0 200 200" width="200pt">
  <g transform="matrix(.1 0 0 -.1 0 200)">
    <path d="m1119 1904c-7-9-15-47-17-84l-4-68-77-11c-42-6-116-16-164-22-89-12-121-28-115-57 8-38 59-39 305-5l43 6-2-169-3-169-94-8c-118-11-141-19-141-51 0-42 23-46 185-30 83 8 230 18 329 22 168 7 179 8 193 29 13 19 12 24-6 42s-33 21-103 20c-46 0-125-4-176-7l-92-7v167c0 151 2 167 18 172 10 3 114 10 232 15 203 8 215 10 232 31s13 50-10 64c-8 5-355-10-422-19l-45-6 3 66c4 69-6 95-38 95-10 0-24-7-31-16z"/>
    <path d="m582 1893c-6-10-14-168-18-350-7-356-7-363 41-363 12 0 27 6 33 13 11 14 23 647 12 687-8 32-54 40-68 13z"/>
    <path d="m299 1801-24-20 20-34c11-19 49-69 84-111 47-56 70-76 88-76 56 0 32 73-62 180-70 81-77 85-106 61z"/>
    <path d="m318 1355c-135-101-160-134-123-162 11-7 22-13 26-13 10 0 185 137 231 181 28 27 39 44 36 61-6 45-39 32-170-67z"/>
    <path d="m878 1149c-15-9-18-26-18-117v-108l-87-12c-133-19-436-83-451-95-17-14-11-47 10-61 13-8 52-4 155 17 75 14 138 25 140 24 1-2-14-28-34-58-57-86-189-208-292-269-130-78-138-85-125-107 27-45 98-23 237 73l77 54v-175c0-103 4-184 10-196 17-31 57-23 129 27 93 66 151 124 151 151 0 37-39 29-123-26l-76-50-3 177-3 177 29 35c42 49 126 180 126 195s16 18 220 44c192 25 348 38 555 47 166 7 195 15 195 54s-23 43-183 36c-152-7-432-30-518-42l-46-6-6 38c-4 22-7 67-7 101 0 51-3 64-19 73-23 12-22 12-43-1z"/>
    <path d="m1352 719c-75-80-213-192-251-204-21-6-160 72-260 147-59 45-83 43-89-4-4-37 49-80 239-194 320-190 576-298 740-311 63-5 83-3 104 11 14 9 25 23 25 31 0 21-30 31-129 45-135 19-344 98-508 191l-53 31 62 40c101 65 248 216 248 254 0 15-27 44-42 44-6 0-44-36-86-81z"/>
  </g>
</svg>
