<?xml version="1.0"?>
<svg xmlns="http://www.w3.org/2000/svg" height="200pt" preserveAspectRatio="xMidYMid meet" viewBox="0 0 200 200" width="200pt">
  <g transform="matrix(.1 0 0 -.1 0 200)">
    <path d="m820 1911c-5-11-10-59-10-108 0-48-4-94-8-101-5-7-46-17-98-22-128-15-310-48-350-65-25-10-34-20-34-38 0-38 24-52 68-39 140 41 445 73 762 79 161 3 280 9 288 15 20 17 14 46-13 64-23 15-55 16-278 12l-252-5 3 93c3 56-1 100-7 113-15 27-57 28-71 2z"/>
    <path d="m1065 1519c-33-4-134-15-225-24-200-20-232-28-266-63-21-23-24-33-19-67 4-22 15-100 25-173 12-86 24-140 34-151 9-10 16-22 16-28s7-16 15-23c15-13 61-9 223 16l32 5v-54-54l-107-17c-110-17-133-26-133-56 0-38 25-44 119-32 140 19 131 22 131-53 0-39-4-65-11-65-62 0-747-111-769-125-17-11-11-54 9-65 14-7 35-7 70 1 28 6 101 19 163 28l113 18-37-32c-21-17-81-55-135-85-155-84-175-98-171-123 6-42 59-34 171 23 55 28 116 62 136 76l36 24 13-167c11-146 15-170 33-185 22-19 39-15 84 17 17 12 91 54 166 94 146 76 170 94 151 113-14 14-96-10-249-72l-91-37-7 56c-19 169-21 256-6 284 9 15 23 29 31 32 30 9 428 55 560 65 74 5 248 10 386 10 230 0 252 1 267 18 22 24 21 35-2 56-17 16-46 17-327 12-170-3-349-10-399-15-49-6-90-9-91-8s-5 32-8 68l-7 66 72 7c96 9 124 23 124 61v30l-70-2c-38-1-81-4-96-7-25-5-27-3-32 42-3 26-3 50 0 54 2 5 54 8 114 8 61 0 118 4 128 10 15 8 20 27 25 107 3 54 11 157 18 230 14 162 14 164-81 162-36-1-93-5-126-10zm125-88c0-10-3-32-6-49l-6-30-87-6c-47-4-103-9-123-11l-38-5v45c0 40 3 45 23 46 18 1 203 23 230 28 4 0 7-7 7-18zm-340-65v-44l-90-17c-49-10-93-18-97-19-11-2-24 87-15 96 5 5 42 12 83 17 128 15 119 17 119-33zm320-158c0-96 2-95-112-103-55-4-101-5-102-3-2 1-6 35-10 75l-6 72 42 4c24 2 76 4 116 5l72 2zm-310-17c0-21 3-52 6-68l6-30-76-12c-119-17-112-20-120 51-3 34-4 64-1 66 8 9 116 30 153 31 31 1 32-1 32-38z"/>
    <path d="m1434 539c-57-46-253-142-278-136-12 2-111 28-221 56-110 29-209 50-222 46-27-6-40-43-22-59 8-7 97-34 199-61s226-61 275-77c213-68 258-81 405-112 85-19 184-46 219-60 75-30 84-31 101-11 24 29 4 61-57 88-68 30-95 37-263 72-140 30-270 65-270 74 0 3 28 19 61 35 120 58 180 116 159 155-15 29-41 26-86-10z"/>
  </g>
</svg>
