<?xml version="1.0"?>
<svg xmlns="http://www.w3.org/2000/svg" height="200pt" preserveAspectRatio="xMidYMid meet" viewBox="0 0 200 200" width="200pt">
  <g transform="matrix(.1 0 0 -.1 0 200)">
    <path d="m1285 1899c-4-12-4-70 0-130l7-109h-34c-58 0-352-21-370-26-31-9-34-66-4-77 11-4 186 4 349 18l67 5v-114-114l-37-6c-63-9-256-21-295-18-49 3-74-30-64-86 4-20 11-270 15-554 8-538 9-548 50-548 39 0 41 16 41 276v252l33 6c17 4 86 9 153 13l121 6 6-249c3-137 9-257 12-267 9-21 52-34 67-19 9 9 11 213 4 497l-1 40 146 3 146 3 7-47c3-26 6-118 6-206v-159l-45 32c-24 17-70 54-102 80-31 27-65 49-74 49-52 0-5-87 87-164 32-28 85-74 116-103 56-53 87-64 105-40 6 7 6 115 0 297-5 157-10 423-11 592-2 235-5 310-15 322-15 18-112 20-289 8l-92-7v41c0 23-3 75-6 116l-7 75 89 6c49 4 140 10 202 13 105 6 115 9 129 31 15 23 15 26-3 44-20 20-31 20-384-4l-35-2-10 110c-5 61-14 116-18 123-14 20-55 15-62-9zm415-727v-109l-147-7c-80-3-148-5-150-3-1 2-6 51-9 110l-7 106 54 4c30 2 100 4 157 5l102 2zm-396 57c3-17 6-66 6-109v-77l-59-6c-32-4-101-9-153-13l-95-7-8 107c-4 59-5 109-3 111 4 5 188 22 254 24 50 1 52 0 58-30zm386-343v-93l-61-7c-34-3-97-6-139-6h-77l-7 53c-3 28-6 69-6 89 0 34 3 38 33 43 17 3 64 6 102 8 39 2 89 4 113 5l42 2zm-370-16c0-79-2-90-17-90-36 0-249-20-275-26l-28-6v91c0 66 3 91 13 92 12 1 269 25 295 28 9 1 12-23 12-89z"/>
    <path d="m1484 1876c-13-33 5-52 99-108 102-61 130-67 142-27 10 29-20 57-114 107-82 44-118 52-127 28z"/>
    <path d="m317 1793c-17-17-3-61 48-145 30-50 55-95 55-99 0-18 39-30 60-19 34 18 24 60-41 168-53 90-64 102-88 102-15 0-31-3-34-7z"/>
    <path d="m490 1395c-144-23-281-53-296-66-8-7-14-24-12-38 3-24 7-26 48-25 25 0 107 11 182 24 76 13 141 21 144 17 14-13-147-212-343-423-101-110-122-147-88-160 36-14 73 10 167 109 56 59 98 96 99 87 1-8 2-181 3-384 1-340 2-370 19-380 12-8 22-8 35 0 24 15 30 109 31 497 1 174 5 317 9 317 5 0 42-24 82-52 120-88 118-87 140-60 16 20 18 28 8 45-6 12-15 25-21 29s1 38 18 93c26 78 27 87 12 102-10 10-24 13-40 9-21-5-30-19-47-71-12-36-23-65-25-65s-29 15-59 33l-56 34 61 78c33 44 76 107 95 141 68 122 40 141-166 109z"/>
  </g>
</svg>
