<?xml version="1.0"?>
<svg xmlns="http://www.w3.org/2000/svg" height="200pt" preserveAspectRatio="xMidYMid meet" viewBox="0 0 200 200" width="200pt">
  <g transform="matrix(.1 0 0 -.1 0 200)">
    <path d="m517 1853c-4-3-7-41-7-83v-77l-46-10c-44-10-45-10-40 11 22 80 19 139-10 150s-51-11-58-58c-9-58-71-185-130-264-25-34-46-69-46-77 0-24 36-38 64-23 26 14 79 76 101 119 11 20 29 30 73 43 97 27 95 28 90-64-3-44-7-83-11-86-3-3-55-18-115-33-128-33-132-35-132-65 0-47 22-52 128-26 53 12 103 25 110 28 10 3 13-5 10-34l-3-38-79-16c-44-10-88-15-98-12-25 6-48-15-48-45 0-34 39-185 52-201 15-17 48-12 62 10 7 12 6 35-6 83-15 65-15 65 6 70 78 18 106 22 111 17 3-3 5-73 5-157 0-160 4-175 47-175 39 0 46 31 42 199l-4 155 105 18c57 9 105 16 106 15s4-35 8-74l6-73-27 11c-20 7-30 6-41-5-13-13-13-18 2-41 22-34 74-65 108-65 44 0 50 24 42 176-7 143-15 164-57 164-28 0-216-28-241-36-17-6-18-2-13 31 3 21 8 40 11 42 4 4 225 40 258 43 17 1 29 40 18 60-13 25-50 26-175 5-49-8-93-15-97-15-14 0-9 167 5 173 6 2 45 10 84 17 79 14 109 35 98 69-9 30-34 33-114 16-40-8-74-15-77-15-2 0-4 28-4 63 0 36-5 68-12 75-13 13-50 16-61 5z"/>
    <path d="m1539 1844c-16-19-15-259 2-597 6-120 9-220 7-223-3-2-26 5-53 17-42 19-49 19-62 6-14-13-12-19 13-52 30-37 108-95 130-95 6 0 22 8 34 18 20 17 22 27 24 137 2 222-22 775-35 791-15 19-43 18-60-2z"/>
    <path d="m1132 1630c-4-11-4-57 0-102 3-46 7-138 7-206 1-134 9-162 46-162 14 0 29 8 35 19 22 42 3 427-22 459-16 19-58 15-66-8z"/>
    <path d="m962 1008c-8-8-12-50-12-125v-112l-32-5c-551-92-638-109-654-130-16-23-6-55 20-61 11-3 103 10 204 28 101 19 182 29 182 24s-33-42-73-81c-83-82-233-187-310-218-65-27-77-36-77-59 0-50 85-46 179 8l44 26-6-106c-11-168 0-170 294-57 101 39 201 82 222 95 38 26 49 58 22 69-18 7-128-27-306-95-72-27-135-49-140-49s-9 44-9 98v97l73 57c98 77 123 105 161 179l33 64 114 16c204 30 353 39 621 39 278 0 288 2 288 46 0 46-9 47-363 40-182-3-349-8-369-12l-38-6v109c0 111-7 133-40 133-9 0-21-5-28-12z"/>
    <path d="m1363 601c-68-63-182-137-252-164-27-10-48-7-144 17-61 16-136 38-166 49l-55 20-18-23c-13-16-15-26-8-41 15-27 51-43 180-78 63-18 177-52 253-77 165-54 389-117 512-145 106-24 138-17 133 29-3 31-2 31-238 93-85 22-201 54-258 71l-102 31 71 40c77 42 229 179 229 206 0 23-20 41-44 41-12-1-53-31-93-69z"/>
  </g>
</svg>
