<?xml version="1.0"?>
<svg xmlns="http://www.w3.org/2000/svg" height="200pt" preserveAspectRatio="xMidYMid meet" viewBox="0 0 200 200" width="200pt">
  <g transform="matrix(.1 0 0 -.1 0 200)">
    <path d="m972 1793c-5-10-12-57-16-105-13-180-69-359-148-470-39-56 9-92 64-49 32 26 83 123 117 224 27 79 29 82 65 89 107 22 398 58 524 64 125 6 144 9 153 25 15 29-5 56-46 61-67 8-316-11-478-37-88-14-164-25-167-25s-4 47-2 105c4 111-3 135-39 135-10 0-22-8-27-17z"/>
    <path d="m317 1793c-17-17-3-61 48-145 30-50 55-95 55-99 0-18 39-30 60-19 34 18 24 60-41 168-53 90-64 102-88 102-15 0-31-3-34-7z"/>
    <path d="m490 1395c-144-23-281-53-296-66-8-7-14-24-12-38 3-24 7-26 48-25 25 0 107 11 182 24 76 13 141 21 144 17 14-13-147-212-343-423-101-110-122-147-88-160 36-14 73 10 167 109 56 59 98 96 99 87 1-8 2-181 3-384 1-340 2-370 19-380 12-8 22-8 35 0 24 15 30 109 31 497 1 174 5 317 9 317 5 0 42-24 82-52 120-88 118-87 140-60 16 20 18 28 8 45-6 12-19 28-29 35-18 12-18 15 6 62 28 56 32 92 10 110-30 25-65-8-98-94-2-6-27 4-55 20l-52 30 61 79c33 44 76 107 95 141 68 122 40 141-166 109z"/>
    <path d="m1347 1375c-77-13-173-31-215-41-43-10-81-17-85-16s-17-2-27-8c-25-14-25-45-1-143 11-42 25-113 31-159s17-89 24-96c10-10 29-10 102 3 49 9 162 24 252 35 90 10 169 24 177 30 8 7 15 28 15 47s10 99 21 179c20 134 20 146 5 169s-22 25-89 24c-39 0-134-11-210-24zm218-92c-4-21-8-39-9-41-2-1-57-7-122-13s-166-19-222-28l-104-17-9 24c-12 32-14 30 29 41 37 10 316 57 382 64 19 2 41 5 49 5 10 2 12-7 6-35zm-25-170c0-21-4-44-9-51-5-8-55-19-127-28-65-9-151-21-191-28l-72-12-6 49c-4 27-3 52 1 57 5 4 70 15 144 24 282 34 260 35 260-11z"/>
    <path d="m1093 798c-5-7-21-33-35-58-37-64-108-134-172-170s-73-53-45-81c15-15 28-19 47-14 33 8 85 40 129 78l33 29 34-30c18-16 59-45 90-63 30-19 56-37 56-41 0-9-105-84-205-145-97-59-164-88-258-113-59-14-73-22-75-39-4-25 30-41 88-41 93 0 335 125 497 256l42 34 103-46c169-76 372-153 424-159 59-8 104 7 104 34s-20 40-80 51c-29 5-84 21-124 36-86 31-356 144-356 150 0 2 17 30 37 61 44 70 103 199 103 230 0 56-56 65-254 38-97-13-112-13-126 0-20 18-44 19-57 3zm298-155c-23-43-51-91-64-106l-23-29-61 37c-33 20-78 51-99 69-37 32-38 34-22 57 13 21 28 26 104 35 49 6 115 12 147 13l58 1z"/>
  </g>
</svg>
