<?xml version="1.0"?>
<svg xmlns="http://www.w3.org/2000/svg" height="200pt" preserveAspectRatio="xMidYMid meet" viewBox="0 0 200 200" width="200pt">
  <g transform="matrix(.1 0 0 -.1 0 200)">
    <path d="m1315 1709c-213-19-641-39-815-39-69 0-110-4-118-12-20-20-13-55 16-78 26-21 32-22 142-15 63 5 138 9 165 9l50 1 8-98c5-54 5-130 0-170l-8-72-125-8c-217-13-399-34-415-47-22-18-19-54 20-295 43-266 55-366 56-490 2-94 2-97 28-107 18-7 65-6 146 1 173 15 1139 25 1250 12 120-13 125-8 125 128 0 53 7 220 16 371 21 374 10 481-52 496-33 8-517-4-591-15-49-7-53-6-54 13 0 12-4 68-8 126s-6 121-4 140l5 36 116 13c65 7 176 19 247 25 72 6 136 15 143 19 19 13 14 44-10 61-28 20-71 19-333-5zm-255-231c0-62 3-136 6-164l6-51-78-7c-44-4-93-9-110-12l-31-6 1 114c1 62-3 141-7 176l-8 62h111 110zm708-460-3-193-230 1c-275 2-321 10-347 64-11 23-18 77-23 162l-7 127 35 6c58 11 253 22 420 24l157 1zm-695 25c8-147 18-190 54-233 50-60 134-76 441-87l194-6-6-51c-3-28-6-100-6-161v-110l-603-2c-331-1-639-6-684-10l-82-9-3 98-3 98h25c37 0 131 72 223 170 84 89 144 196 188 337l22 71 91 10c50 5 103 10 117 11l26 1zm-348 70c-12-51-63-171-91-215-36-56-134-159-207-215-32-25-59-44-61-42-1 2-17 96-35 209s-35 217-38 232c-5 26-4 26 58 33 92 9 265 22 328 24l53 1z"/>
  </g>
</svg>
