<?xml version="1.0"?>
<svg xmlns="http://www.w3.org/2000/svg" height="200pt" preserveAspectRatio="xMidYMid meet" viewBox="0 0 200 200" width="200pt">
  <g transform="matrix(.1 0 0 -.1 0 200)">
    <path d="m925 1829c-164-8-394-27-438-35-50-10-59-68-11-80 13-3 80-1 149 6 70 7 128 10 131 8 2-3 7-38 10-80 7-73 6-75-17-81-13-4-37-7-53-7-71 0-209-24-227-39-20-16-20-18-4-156 9-77 16-152 15-166-1-51 17-54 163-34 92 13 219 19 420 23 275 4 289 5 320 26 29 19 33 28 39 85 4 34 16 99 27 144 29 112 22 122-91 130-46 4-116 7-155 7h-73v85 85h106c58 0 114 5 125 10 21 12 25 50 7 68-14 14-193 14-443 1zm115-168v-80l-87-3c-49-2-89-2-91-2-6 3-18 154-13 159 2 3 46 5 98 5h93zm0-276v-105h-69c-38 0-76-3-85-6-14-5-16 8-16 105v111h85 85zm314 95c2-3-3-49-12-103l-16-97h-97-96l-7 46c-3 26-6 74-6 106v60l114-3c63-2 117-6 120-9zm-572-105 3-105-45-5c-25-3-74-10-109-16-35-5-64-9-66-7-3 4-23 212-21 215 3 3 157 20 198 22l37 1z"/>
    <path d="m1192 1118c-7-7-12-32-12-57 0-26-4-52-9-59-6-10-51-16-157-23-81-5-174-11-206-15l-57-7-7 42c-8 48-33 68-64 51-15-8-20-21-20-55 0-51 6-47-125-65-177-24-402-76-431-101-20-17-17-47 6-59 15-8 44-5 122 15 89 21 254 51 381 69 45 6 45 4 17-112-11-46-20-94-20-106 0-32 26-51 90-66 30-7 75-20 100-30 25-9 53-20 64-24 25-9 14-21-107-118-110-88-184-129-301-167-93-31-111-50-78-83 20-21 25-21 77-11 76 16 226 90 305 149 36 27 97 79 136 116l70 67 90-51c98-56 146-91 309-227 60-50 117-91 127-91 26 0 49 39 37 62-20 37-286 248-391 310-59 35-107 66-107 69-1 3 17 30 40 60 22 30 68 109 101 175l59 122 199 7c110 4 256 4 325 0 94-6 129-4 140 5 23 19 18 48-12 67-25 16-56 18-325 17l-298-1v49c0 27-5 58-10 69-12 21-40 25-58 7zm-62-228c0-30-104-209-167-287l-18-22-90 34c-49 19-99 35-110 35-41 1-45 12-31 70 8 30 17 76 21 102l6 46 72 8c40 4 124 10 187 14s118 8 123 8c4 1 7-3 7-8z"/>
  </g>
</svg>
