<?xml version="1.0"?>
<svg xmlns="http://www.w3.org/2000/svg" height="200pt" preserveAspectRatio="xMidYMid meet" viewBox="0 0 200 200" width="200pt">
  <g transform="matrix(.1 0 0 -.1 0 200)">
    <path d="m935 1949c-286-41-384-67-400-107-3-9-4-87 0-172 27-699 36-816 67-856 19-24 21-24 134-17 81 4 114 3 114-5 0-34-58-210-95-287-74-155-183-261-359-352-60-30-121-67-134-80-23-23-23-26-9-41 15-14 21-14 74 2 91 28 219 92 276 136 87 69 183 186 232 285 43 89 105 282 105 330 0 24 3 25 63 25h64l12-127c33-340 79-450 222-527 89-49 134-56 380-56 290 0 275-11 239 180-11 58-23 112-26 122-7 22-33 31-52 16-12-11-14-31-8-121l6-109-207 4-208 3-61 32c-74 39-115 84-143 156-21 57-61 313-61 392v45h144c86 0 147-4 151-10 9-14 48-13 63 2 25 25 12 1091-14 1126-11 15-38 17-261 19-136 0-275-3-308-8zm495-244v-165h-109c-136 0-592-28-646-40-22-5-40-8-41-7s-5 72-9 159l-7 156 30 6c16 4 100 18 188 31 127 19 202 23 377 24l217 1zm3-312c4-38 7-87 7-110v-43h-82c-46 0-222-11-392-25-171-13-312-22-315-19-5 4-20 213-17 221 2 2 411 25 601 32 99 4 183 8 186 9s9-28 12-65zm7-357v-124l-37 5c-41 5-653-23-700-33l-29-6-12 79c-7 43-12 95-12 116 0 35 2 37 31 37 18 0 158 9 313 20 154 11 315 21 356 23s78 4 83 5c4 1 7-54 7-122z"/>
  </g>
</svg>
