<?xml version="1.0"?>
<svg xmlns="http://www.w3.org/2000/svg" height="200pt" preserveAspectRatio="xMidYMid meet" viewBox="0 0 200 200" width="200pt">
  <g transform="matrix(.1 0 0 -.1 0 200)">
    <path d="m1243 1844c-254-20-251-16-223-229 12-83 25-247 30-365 6-118 15-283 20-366 6-82 8-164 4-180-8-42 13-57 76-52 45 3 50 1 50-18 0-38-68-157-132-233-81-96-143-140-243-172-57-18-81-31-84-44-8-44 66-57 154-27 82 29 161 88 235 179 90 108 119 159 146 252l22 76 41 3 41 3v-73c1-151 49-333 102-387 65-66 97-76 253-76 163 1 222 13 231 50 3 13-1 52-10 87s-20 99-26 143-13 88-16 98c-8 25-41 21-48-5-9-34-7-197 3-239 8-37 8-37-28-43-20-3-75-6-122-6-70 0-94 4-129 23-72 38-109 139-117 325l-6 112h59c31 0 73-6 92-12 56-21 59-9 66 260 4 130 11 296 16 367 5 72 11 221 12 333 3 192 2 204-16 218-25 18-209 17-453-2zm387-111c0-21-3-81-6-133l-7-96-226-18c-124-9-235-18-246-19-17-2-21 8-31 88-7 50-15 113-19 141l-7 52 108 7c60 3 114 8 119 10 6 2 79 4 163 4l152 1zm-14-365c-3-29-8-85-12-124l-6-72-162-6c-88-4-191-9-227-12l-66-6-5 114c-3 62-4 114-3 116 2 2 401 38 464 41 22 1 23-1 17-51zm-19-400c-4-62-7-131-7-153v-41l-207-17c-113-9-208-15-211-12-8 8-25 306-17 313 11 11 118 19 289 20l159 2z"/>
    <path d="m470 1745c-10-11-11-37-5-103 14-151 25-133-95-155-129-23-154-34-158-69-5-39 19-42 149-18 62 11 114 20 115 20 2 0 6-15 9-32 6-31-11-387-18-395-2-2-73-15-158-28-194-32-226-41-239-65-8-15-6-24 10-40 12-12 28-19 38-16 32 10 325 56 330 52 7-7-18-115-54-234-37-121-95-246-175-375-53-85-57-98-34-117 22-19 68 4 98 48 97 147 165 298 211 465l33 119 65-99c97-144 193-253 224-253 28 0 39 19 30 53-3 12-35 58-72 102-36 44-94 123-129 176s-68 100-74 103c-36 22-2 33 190 59 110 16 207 31 214 33 25 10 29 45 8 66-19 18-22 18-219-11-109-16-200-28-200-27-1 0 1 98 5 216l6 215 144 18c80 10 151 23 158 29 8 6 13 23 11 37-3 23-8 26-46 29-23 2-93-4-154-12-62-9-115-16-119-16-3 0-12 48-19 106-13 103-26 134-54 134-8 0-19-7-26-15z"/>
  </g>
</svg>
