<?xml version="1.0"?>
<svg xmlns="http://www.w3.org/2000/svg" height="200pt" preserveAspectRatio="xMidYMid meet" viewBox="0 0 200 200" width="200pt">
  <g transform="matrix(.1 0 0 -.1 0 200)">
    <path d="m1165 1824c-194-19-266-31-282-47-12-11-12-26-4-73 14-84 19-172 36-579 9-198 18-369 22-380 8-29 22-35 81-35 61 0 59 7 37-125-16-101-57-234-85-280-22-36-144-155-158-155-16 0-23-31-11-46 15-18 63-18 98 0 43 23 136 130 165 189 37 79 76 239 83 340 6 87 6 87 33 87 15 0 42 3 59 6l31 7v-189c0-214 11-307 37-336 40-45 144-72 320-84 119-8 244 2 270 21 46 34-2 306-55 313l-24 4 8-117c5-95 4-119-7-126-33-21-312-3-399 26-43 14-48 19-54 53-3 20-6 125-6 233v197l31 6c17 3 49 6 70 6 46 0 74 24 64 54-18 53-24 201-24 592-1 395-2 422-19 437-23 21-113 21-317 1zm245-189v-115h-78c-42 0-135-7-205-15-71-8-133-13-138-9-5 3-9 31-10 62 0 31-4 80-8 108l-7 52 130 12c72 6 140 13 151 14 11 2 53 4 93 5l72 1zm0-324v-128l-202-5c-112-3-204-5-204-4-1 1-4 53-7 117l-5 116 146 12c81 7 152 14 157 16 6 2 34 4 63 4l52 1zm0-268c0-32 3-95 6-139l7-82-124-7c-68-4-158-10-200-14l-76-7-7 75c-3 41-6 105-6 142v68l33 6c50 8 111 11 245 13l122 2z"/>
    <path d="m317 1793c-17-17-3-61 48-145 30-50 55-95 55-99 0-18 39-30 60-19 34 18 24 60-41 168-53 90-64 102-88 102-15 0-31-3-34-7z"/>
    <path d="m490 1395c-144-23-281-53-296-66-8-7-14-24-12-38 3-24 7-26 48-25 25 0 107 11 182 24 76 13 141 21 144 17 14-13-147-212-343-423-101-110-122-147-88-160 36-14 73 10 167 109 56 59 98 96 99 87 1-8 2-181 3-384 1-340 2-370 19-380 12-8 22-8 35 0 24 15 30 109 31 497 1 174 5 317 9 317 5 0 42-24 82-52 120-88 118-87 140-60 33 40 2 77-132 161l-77 48 60 79c33 43 76 106 95 140 68 122 40 141-166 109z"/>
  </g>
</svg>
