<?xml version="1.0"?>
<svg xmlns="http://www.w3.org/2000/svg" height="200pt" preserveAspectRatio="xMidYMid meet" viewBox="0 0 200 200" width="200pt">
  <g transform="matrix(.1 0 0 -.1 0 200)">
    <path d="m1412 1953c-7-3-33-35-58-73-24-37-83-104-130-148-77-74-84-83-74-103 16-29 57-20 121 26 91 67 199 210 199 263 0 17-28 45-42 41-2 0-9-3-16-6z"/>
    <path d="m752 1928c-29-29-12-57 108-177 65-66 131-123 145-127 30-7 55 10 55 38 0 23-257 277-280 278-9 0-21-5-28-12z"/>
    <path d="m398 1909c-43-25-3-108 124-258 75-88 91-100 116-85 36 23 25 55-44 139-36 44-84 107-105 140-51 76-60 83-91 64z"/>
    <path d="m1220 1574c-113-7-286-20-385-29-339-30-530-45-585-45-77 0-99-8-116-41-11-23-12-42-5-91 5-35 15-112 21-173 12-114 28-155 58-155 27 0 42 20 42 56 0 35-27 255-36 289-5 20 3 21 223 38 125 9 334 26 463 36 423 35 920 54 920 36 0-3-32-64-71-135-75-138-85-182-42-188 16-2 31 10 61 50 48 66 182 301 182 321 0 7-8 21-18 30-16 15-48 17-263 16-134-1-336-8-449-15z"/>
    <path d="m1155 1285c-5-2-127-13-270-25-186-16-267-26-284-37-27-17-27 15 3-318 8-88 18-218 22-289 9-160 12-166 114-166 39 0 70-3 70-7 0-23-64-114-102-145-105-86-209-132-373-163-43-9-82-21-86-27-18-29 27-58 90-58 58 0 199 39 272 75 132 67 230 164 274 271 27 65 36 74 88 74 33 0 37-3 37-24 0-14 17-71 37-128 59-167 122-212 308-224 107-7 539 29 559 46 21 16 21 79 0 178-19 94-38 140-59 148-32 13-36-10-23-129 6-64 10-119 7-121-2-2-107-11-234-19-333-22-404-8-448 87-38 81-69 178-59 188 4 4 59 11 120 15 85 5 115 10 127 23 12 14 15 72 15 384 1 267-2 372-11 382-8 10-35 14-98 13-47 0-90-2-96-4zm115-168v-84l-137-7c-76-3-207-14-291-23-84-8-154-14-156-12s-7 38-11 80c-6 70-5 77 11 83 11 3 87 10 169 16 83 6 182 15 220 19 39 5 98 9 133 10l62 1zm-10-237v-60h-48c-70 0-355-29-437-45-38-7-71-12-71-12-1 1-4 32-6 69l-6 66 42 6c112 16 320 32 439 34l87 2zm0-174c0-18 3-53 6-78l6-45-78-7c-145-13-429-36-450-36-19 0-22 8-28 66-4 37-5 68-4 70 10 9 388 54 531 63 13 1 17-7 17-33z"/>
  </g>
</svg>
