<?xml version="1.0"?>
<svg xmlns="http://www.w3.org/2000/svg" height="200pt" preserveAspectRatio="xMidYMid meet" viewBox="0 0 200 200" width="200pt">
  <g transform="matrix(.1 0 0 -.1 0 200)">
    <path d="m570 1849c-74-4-178-10-230-11-113-4-124-9-115-52 3-17 9-152 13-299l7-269 34-30c27-25 39-29 65-24 90 19 304 37 400 34 102-3 109-2 123 19 13 19 12 24-6 42-19 19-33 21-151 21h-130v45 45h73c69 0 75 2 110 34l37 34v89c0 66-4 95-16 112-16 23-21 23-115 19l-97-5-6 30c-14 68-10 74 47 81 28 3 87 6 129 6 76 0 108 13 108 43-1 45-49 51-280 36zm-90-148v-58l-71-7c-40-3-74-4-77-1s-7 30-10 59l-4 55 58 4c33 2 69 4 82 5 20 2 22-2 22-57zm230-190v-58l-157-7c-87-3-173-9-190-12l-33-6v56c0 31 1 57 3 57 9 5 255 27 310 28l67 1zm-220-195v-44l-47-6c-27-4-63-10-80-13l-33-5v50 51l38 4c20 2 56 4 80 5l42 2z"/>
    <path d="m1137 1828c-11-9-20-39-27-93-17-124-37-192-87-293-37-75-43-95-33-107 33-40 95 11 132 106 14 37 31 65 43 70 25 11 236 36 375 45 118 7 140 15 140 48 0 45-16 49-179 36-82-6-188-17-235-24-61-9-86-10-86-2 0 6 5 48 11 93 11 72 10 85-5 108-19 28-25 30-49 13z"/>
    <path d="m1356 1434c-143-24-166-33-166-65 0-38 31-41 202-19 90 12 178 24 197 28 41 8 61 34 45 60-17 26-114 25-278-4z"/>
    <path d="m1100 1129c-354-24-506-44-550-71l-33-20 7-146c13-294 28-463 44-479 13-12 32-14 109-8 108 8 110 6 64-67-35-55-129-132-186-152-22-8-93-27-158-41-123-28-149-44-112-71 26-19 72-17 200 6 126 23 172 46 263 133 57 56 112 143 112 180 0 10 20 16 77 21 143 12 133 16 133-61 1-154 23-187 144-225 64-19 83-20 305-15 232 6 307 14 321 37 4 7 10 69 13 138 4 100 2 130-9 142-12 12-16 12-29-1-14-13-37-98-50-180-5-36-5-36-67-43-33-3-143-6-243-6-182 0-258 11-283 43-6 7-13 49-17 94l-7 83h110c102 0 112 2 126 22 9 12 12 27 7 37-6 14 1 184 23 523 10 149 9 149-314 127zm226-101c-3-13-6-43-6-68v-45l-163-1c-141-1-388-25-516-50l-28-6-6 68c-4 37-6 69-4 70 10 10 505 51 646 53 82 1 83 1 77-21zm-18-263 3-60-175 3c-160 3-483-19-508-34-5-3-8 18-6 47l3 54 50 8c159 27 354 45 485 44l145-2zm-8-198v-53l-327-12c-261-10-328-10-335 0-4 7-8 30-8 50 0 31 4 39 23 43 55 13 229 22 430 24l217 1z"/>
  </g>
</svg>
