<?xml version="1.0"?>
<svg xmlns="http://www.w3.org/2000/svg" height="200pt" preserveAspectRatio="xMidYMid meet" viewBox="0 0 200 200" width="200pt">
  <g transform="matrix(.1 0 0 -.1 0 200)">
    <path d="m386 1854c-13-12-16-40-16-134v-119l-57-16c-132-36-158-49-161-76-5-40 19-54 70-41 23 6 43 10 43 9 1-1 20-35 44-76 23-41 40-76 37-78-2-2-39-13-83-24-141-35-153-39-163-59-16-29 4-60 38-60 15 0 87 16 160 34l132 34v-127-127l-118-23c-147-28-162-34-162-64 0-52 35-58 170-28 47 11 86 18 87 17s-25-73-58-161c-67-180-158-373-213-454-54-79-46-120 17-84 63 37 153 184 234 383l42 105 1-291c0-212 3-293 12-302 18-18 56-14 68 7 6 13 10 146 11 363 0 326 1 342 17 318 47-69 139-185 154-194 14-8 23-6 40 11 27 28 22 40-62 155-100 137-110 148-130 148-11 0-20 4-20 9 0 11 24 16 138 31 99 13 110 17 123 41 16 30-6 59-44 59-28 0-108-11-189-25l-27-4-3 124c-2 89 0 126 9 129 6 3 40 8 75 11 123 11 148 16 163 31 19 19 20 60 1 67-14 5-131 0-180-8-28-5-28-5-12 18 25 34 76 140 76 158 0 19 28 29 86 29 61 0 92 40 58 74-21 21-74 20-214-4-63-11-116-20-117-20-2 0-3 46-3 103 0 77-4 108-16 125-18 26-37 28-58 6zm139-389c-19-43-35-86-35-96 0-11-4-19-9-19s-16-3-25-6c-10-4-18 1-23 12-4 11-22 45-40 76s-33 61-33 66c0 8 189 52 198 47 1-1-13-37-33-80z"/>
    <path d="m1225 1765c-38-7-92-14-118-14-61-1-87-15-87-46 0-13-4-27-10-30-13-8-13-258 0-464 5-85 10-228 11-317 1-156 2-165 22-179 12-8 32-15 44-15 21 0 23-5 23-50 0-120-53-252-164-407-36-50-66-98-66-107 0-54 93-6 159 82 103 137 161 292 161 430v72h34 34l5-227c3-136 10-244 17-268 18-57 74-110 140-129 102-30 409-11 448 28 32 32 10 312-28 359-32 38-40 11-43-140-1-78-5-144-8-147-3-4-54-12-112-18-123-14-245-2-277 27-36 33-43 81-44 305l-1 215 87 5c48 3 93 11 99 17 8 8 15 98 20 285 4 150 11 370 15 489 9 275 19 259-163 258-71 0-159-7-198-14zm271-167c-3-50-6-103-6-118v-27l-172-7c-95-3-185-9-200-12l-28-6v114 114l103 16c56 8 149 16 206 17l104 1zm-10-284c-3-26-6-78-6-115v-69h-87c-49 0-131-5-183-10s-96-7-98-5c-6 5-19 219-15 225 8 9 112 17 252 19l144 1zm-16-382v-109l-132-6c-73-4-154-10-180-13l-48-7v111 111l33 5c52 9 105 13 220 14l107 2z"/>
  </g>
</svg>
