<?xml version="1.0"?>
<svg xmlns="http://www.w3.org/2000/svg" height="200pt" preserveAspectRatio="xMidYMid meet" viewBox="0 0 200 200" width="200pt">
  <g transform="matrix(.1 0 0 -.1 0 200)">
    <path d="m306 1868c-9-12-16-41-16-63 0-65-37-189-84-283-39-77-80-138-157-234-19-23-20-30-9-43 22-26 69-19 103 18 37 39 118 162 136 205 9 22 20 32 35 32 11 0 31 3 44 6 29 8 29-2-4-137l-26-108-46-7c-90-12-115-20-126-37-8-12-8-22 0-34 9-15 25-18 77-17l65 2-21-59c-33-91-141-245-210-297-42-32-57-50-55-65 8-50 60-47 129 8 24 19 48 35 53 35s7-138 4-330c-4-238-2-332 6-339 7-5 141-5 346 1 317 9 336 11 353 30 21 25 21 32 0 54-16 15-35 16-195 10l-178-7v79c0 44 3 94 7 112l6 33 58-6c83-7 124 26 83 67-11 11-35 16-80 16h-65l3 82c2 65 6 83 18 85 8 1 54 5 103 8 109 8 144 36 100 80-16 17-32 17-185-1l-48-6v55 55l143 7c78 4 148 12 155 17 19 16 14 56-9 68-14 8-58 9-135 4l-116-7 32 46c44 62 41 116-6 117-7 0-42-38-79-84l-67-85-56-6c-32-3-67-8-78-10-20-4-19 1 16 71 21 41 43 97 50 123l11 48 52 7c29 3 131 11 227 17s182 14 190 18c26 14 18 54-14 70-24 11-54 12-180 2-83-6-171-14-197-17l-45-6 24 123c14 68 25 125 26 126s65 7 141 14c99 8 145 16 158 27 22 20 22 35-2 56-17 16-30 16-197 1-99-8-191-18-206-21-16-3-28-3-28 0 0 2 9 42 20 88 25 106 26 169 2 191-25 23-38 21-56-5zm144-1058c0-58 3-56-97-65l-73-6v50c0 44 3 51 23 56 30 6 75 12 115 14l32 1zm0-220c0-44-1-80-2-81-2 0-38-4-80-7l-78-8v78 77l33 5c139 23 127 29 127-64zm0-270c0-72-4-102-12-105-7-2-46-6-85-10l-73-6v38c0 21 3 68 6 105l7 67 41 4c23 2 58 4 79 5l37 2z"/>
    <path d="m1277 1799c-158-8-204-13-224-26l-26-17 7-341c4-187 11-434 15-549 8-246 6-241 109-232l62 5v-33c0-115-56-252-150-370-61-76-67-99-29-111 33-11 56 4 108 66 93 111 151 257 151 382v67h59 59l4-163c4-131 9-175 27-229 43-132 84-154 276-145 129 6 180 19 195 47 21 38 1 323-23 348-39 38-57-22-57-195 0-51-4-95-10-98-6-4-59-9-118-11-141-7-150-2-179 96-18 61-22 102-22 219l-1 144 99-7c84-6 101-5 115 9 23 24 24 33 30 340 3 154 10 355 17 446 13 192 6 308-21 341-17 22-26 23-147 24-70 1-217-2-326-7zm403-209v-130h-117c-122 0-395-17-425-26-15-4-17 9-20 131-3 114-1 135 12 136 35 4 353 16 448 17l102 2zm-10-297c0-43-3-101-6-129l-6-51-242-6c-132-3-251-9-263-12l-23-7v130 130l63 6c95 9 159 12 325 14l152 2zm-10-417v-145l-52 6c-29 3-145 0-257-6s-206-10-207-8c-2 1-4 66-5 142l-1 140 38 6c22 3 139 7 262 8l222 1z"/>
  </g>
</svg>
