<?xml version="1.0"?>
<svg xmlns="http://www.w3.org/2000/svg" height="200pt" preserveAspectRatio="xMidYMid meet" viewBox="0 0 200 200" width="200pt">
  <g transform="matrix(.1 0 0 -.1 0 200)">
    <path d="m678 1890c-9-6-19-29-23-52-4-24-14-60-21-82-17-48-101-188-167-278-26-38-47-76-45-85 6-31 52-28 91 7 58 51 188 264 220 361 4 12 40 19 178 32 96 10 198 17 226 17h53l-16-42c-19-50-115-197-183-280-40-49-51-57-81-57-39-1-294-29-326-36-34-7-42-41-32-125 28-218-44-684-132-860-36-73-107-176-139-202-25-21-26-31-5-52 19-20 53-20 80-2 30 21 120 154 154 229 17 35 42 111 57 169l27 106 82 11c107 15 437 31 652 31h174l-6-27c-3-16-8-117-12-225-3-109-9-211-13-228l-6-32-79 52c-43 28-85 49-92 46-42-16 13-92 119-167 112-79 142-66 151 63 15 196 26 578 26 899 0 333-1 347-20 364-18 17-35 18-211 12-106-4-217-10-248-14l-56-6 35 39c48 53 123 159 149 212 12 23 28 69 37 103 14 55 14 62 0 85-16 23-22 24-109 23-50 0-166-8-257-17-157-16-166-16-182 0-20 20-26 21-50 8zm822-657v-138l-210-4-209-3-5 23c-3 13-7 72-11 132l-6 107 43 1c24 1 90 5 148 9 58 3 138 7 178 8l72 2zm-527 40c4-38 7-95 7-129v-61l-121-7c-67-4-141-9-165-13l-44-6v95c0 53-3 109-6 126-6 29-4 31 27 37 50 9 187 22 245 24l51 1zm527-373v-110h-204-203l-7 61c-3 34-6 81-6 105v44l203 3c111 1 205 3 210 5 4 1 7-47 7-108zm-510-15v-105h-67c-65 0-181-11-268-25l-40-7 15 110 15 111 85 6c47 3 94 7 105 9s50 4 88 5l67 1z"/>
  </g>
</svg>
