<?xml version="1.0"?>
<svg xmlns="http://www.w3.org/2000/svg" height="200pt" preserveAspectRatio="xMidYMid meet" viewBox="0 0 200 200" width="200pt">
  <g transform="matrix(.1 0 0 -.1 0 200)">
    <path d="m423 1855c-135-13-163-26-163-76 0-66-60-181-137-262-52-56-56-63-43-87s47-26 77-5c61 43 165 219 179 303l6 39 150 9c82 5 152 6 155 1 15-25-83-299-131-361-23-31-29-33-145-50-72-11-125-24-132-32-9-11-8-26 5-65 19-61 22-285 5-437-15-142-64-367-115-530-24-78-44-150-44-160 0-24 19-42 46-42 28 0 39 15 54 70 6 25 25 88 42 140s45 164 62 250c18 85 35 160 39 166 11 19 356 63 498 64h36l7-132c4-73 11-205 15-293 5-88 8-161 7-162 0 0-50 29-111 66-60 37-118 70-127 74-20 7-41-15-33-36 13-32 291-237 323-237 44 0 46 15 33 268-7 130-17 368-21 527-11 380-20 537-33 553-12 16-106 15-217-2-47-7-86-12-88-11-1 1 11 32 28 69 71 159 105 339 71 380-16 19-112 20-298 1zm432-601c4-47 5-87 3-88-1-2-62-6-134-9l-131-6-7 76c-4 41-5 78-2 80 7 7 172 31 222 32l42 1zm-353-14c1-33 2-70 2-82 1-19-7-23-69-34-38-7-73-13-77-13-5-1-8 18-9 42 0 23-3 60-7 82l-8 40 71 11c38 6 76 12 83 13 8 1 13-18 14-59zm366-267 3-103h-93c-51 0-109-3-129-6l-37-6-7 96c-4 53-5 99-3 102 8 7 157 22 213 20l50-1zm-354 31c3-26 6-70 6-99v-52l-87-16c-48-9-89-15-91-12-2 2 0 48 5 102l8 98 65 11c36 6 70 12 76 13 6 0 14-20 18-45z"/>
    <path d="m1565 1774c-162-12-463-46-483-54-18-8-23-17-20-38l3-27 118 3 117 3v-43c0-50-32-189-60-266-31-83-58-131-101-177-42-45-48-65-25-84 39-32 128 46 177 155 41 89 77 222 92 334l13 95 69 6c39 4 112 7 163 8 90 1 92 0 92-22 0-29-59-389-65-395-2-2-26 8-54 23-91 50-109 11-30-65 94-90 149-98 167-22 17 71 63 377 69 452 7 101 1 107-107 113-47 2-107 3-135 1z"/>
    <path d="m1394 1133c-14-15-16-31-11-114l6-97-57-11c-31-6-67-14-79-17-21-6-22-4-13 27 17 58 13 117-9 129-27 14-50 3-57-29-25-124-38-153-111-263-47-70-52-101-16-106 35-5 58 13 103 80 22 34 49 63 58 64s53 11 96 23c44 12 82 18 85 15s8-61 10-129c3-139 10-128-84-140-114-14-281-48-294-60-17-16-6-52 18-60 10-3 87 6 172 20 84 14 161 25 170 25 14 0 17-24 22-196 4-124 11-201 18-210 14-17 55-18 65-2 4 6 6 103 5 214l-2 202 28 6c15 3 105 10 198 16 94 6 180 15 193 20 25 11 30 51 8 69-14 11-154 5-362-15-58-6-61-5-67 17-4 13-7 74-7 135v111l121 17c128 17 152 26 147 59-6 37-30 42-135 29-54-7-108-15-119-18-20-5-22-1-28 85-9 112-31 144-72 104z"/>
  </g>
</svg>
