<?xml version="1.0"?>
<svg xmlns="http://www.w3.org/2000/svg" height="200pt" preserveAspectRatio="xMidYMid meet" viewBox="0 0 200 200" width="200pt">
  <g transform="matrix(.1 0 0 -.1 0 200)">
    <path d="m798 1929c-40-23-22-57 99-187 65-70 126-130 135-134 12-5 25-1 38 12 24 24 25 28 1 63-20 31-241 257-250 257-3 0-14-5-23-11z"/>
    <path d="m1370 1483c-316-27-1103-148-1138-176-7-6-12-22-10-36 4-37 43-38 233-1 155 30 672 98 905 119 63 6 195 11 293 11 164 0 179 2 197 20 24 24 25 34 4 54-13 14-46 16-227 14-117-1-232-3-257-5z"/>
    <path d="m960 1125c-96-13-187-28-202-34-66-25-52-87 18-79 170 22 391 48 447 53 75 7 98 27 77 65-9 17-20 20-88 19-42 0-156-11-252-24z"/>
    <path d="m1029 804c-96-13-193-29-215-36-34-11-39-17-39-43 0-29 1-30 50-29 93 1 430 46 453 60 24 16 29 43 10 62-16 16-51 14-259-14z"/>
    <path d="m1260 549c-562-70-621-81-634-116-4-8 13-70 38-137 24-67 47-137 50-156 13-63 17-70 48-86 25-13 41-14 96-5 37 6 103 13 147 16 44 4 144 13 223 21 127 13 145 12 158-1 21-20 24-20 73 17 40 29 43 34 37 67-3 20 1 85 10 145 20 134 15 223-11 242-23 17-52 16-235-7zm160-146c-1-61-21-198-31-207-5-4-149-21-364-41-82-8-164-17-182-21-30-6-32-4-42 34-6 22-26 80-45 130l-33 90 26 5c14 3 103 15 196 26 94 12 220 28 280 35 61 8 129 14 153 15l42 1z"/>
  </g>
</svg>
