<?xml version="1.0"?>
<svg xmlns="http://www.w3.org/2000/svg" height="200pt" preserveAspectRatio="xMidYMid meet" viewBox="0 0 200 200" width="200pt">
  <g transform="matrix(.1 0 0 -.1 0 200)">
    <path d="m1482 1848c-15-15-16-115-2-297 6-74 9-136 7-138-8-8-239-32-413-44-98-7-185-16-191-22-18-13-16-32 4-53 15-15 33-16 162-10 80 4 201 14 270 22 70 7 135 14 147 14 20 0 21-6 28-172 4-95 9-319 12-498 5-313 5-324-13-308-27 24-99 58-123 58s-35-22-23-45c11-19 182-155 195-155 28 0 47 23 53 64 7 45-12 923-22 1012l-5 51 116 8c117 7 146 17 146 50 0 8-10 21-22 29-17 12-42 14-128 9l-107-6-12 184c-14 225-19 253-46 257-11 1-26-3-33-10z"/>
    <path d="m288 1819c-10-5-18-20-18-33 0-25 95-232 111-242 6-3 21-3 35 0 20 5 24 13 24 41 0 42-91 229-115 239-20 7-16 8-37-5z"/>
    <path d="m505 1444c-11-1-99-10-195-20-202-20-220-24-220-57 0-52 28-56 230-32 68 8 187 18 263 22 120 5 139 9 148 25 11 21-2 52-27 62-15 6-159 6-199 0z"/>
    <path d="m348 1143c-55-3-70-8-78-23-14-27 4-60 33-61 94-4 304 5 315 13 15 13 16 50 0 66-12 12-103 13-270 5z"/>
    <path d="m1025 940c-3-11-2-27 3-36 14-25 204-164 224-164 10 0 22 9 28 21 17 30-7 59-100 125-44 30-82 60-85 65-12 18-63 10-70-11z"/>
    <path d="m438 886c-59-7-113-17-119-23-15-15-8-54 13-66 19-12 270 8 301 24 23 13 22 56-2 69-23 12-47 11-193-4z"/>
    <path d="m550 663c-257-14-340-35-340-87 0-22 45-253 56-288 7-22 50-34 68-19 7 6 15 9 18 6s80 0 172 6c152 11 169 14 181 33 12 20 32 232 28 301-1 16-9 35-19 42-17 12-38 13-164 6zm86-180c-4-54-9-99-10-101-2-1-54-7-117-12-63-6-126-12-140-15-26-6-26-5-46 95-14 72-17 103-9 106 17 6 193 21 265 23l64 1z"/>
  </g>
</svg>
