<?xml version="1.0"?>
<svg xmlns="http://www.w3.org/2000/svg" height="200pt" preserveAspectRatio="xMidYMid meet" viewBox="0 0 200 200" width="200pt">
  <g transform="matrix(.1 0 0 -.1 0 200)">
    <path d="m288 1819c-10-5-18-20-18-33 0-25 95-232 111-242 6-3 21-3 35 0 20 5 24 13 24 41 0 42-91 229-115 239-20 7-16 8-37-5z"/>
    <path d="m1315 1625c-95-14-195-36-282-60-54-16-78-41-67-69 10-27 40-27 144-1 119 30 281 55 364 55h59l-7-202c-4-112-8-204-10-205-2-2-61-10-132-18-189-22-406-55-425-66-11-5-21-30-27-61-15-79-37-368-37-488 0-93 3-110 25-150 31-55 119-105 205-115 145-19 623 41 652 82 9 12 13 65 13 185 0 147-2 169-16 175-10 4-22-1-30-11-14-20-33-119-41-218l-6-67-71-16c-93-21-242-34-399-35-117 0-132 2-177 25-35 18-52 33-56 52-7 26 2 298 15 478l6 89 35 7c46 10 343 46 442 55 43 3 85 12 95 19 22 16 30 121 32 377 1 139-2 169-15 182-19 20-156 20-289 1z"/>
    <path d="m505 1444c-11-1-99-10-195-20-202-20-220-24-220-57 0-52 28-56 230-32 68 8 187 18 263 22 120 5 139 9 148 25 11 21-2 52-27 62-15 6-159 6-199 0z"/>
    <path d="m348 1143c-55-3-70-8-78-23-14-27 4-60 33-61 94-4 304 5 315 13 15 13 16 50 0 66-12 12-103 13-270 5z"/>
    <path d="m438 886c-59-7-113-17-119-23-15-15-8-54 13-66 19-12 270 8 301 24 23 13 22 56-2 69-23 12-47 11-193-4z"/>
    <path d="m550 663c-257-14-340-35-340-87 0-22 45-253 56-288 7-22 50-34 68-19 7 6 15 9 18 6s80 0 172 6c152 11 169 14 181 33 12 20 32 232 28 301-1 16-9 35-19 42-17 12-38 13-164 6zm86-180c-4-54-9-99-10-101-2-1-54-7-117-12-63-6-126-12-140-15-26-6-26-5-46 95-14 72-17 103-9 106 17 6 193 21 265 23l64 1z"/>
  </g>
</svg>
