<?xml version="1.0"?>
<svg xmlns="http://www.w3.org/2000/svg" height="200pt" preserveAspectRatio="xMidYMid meet" viewBox="0 0 200 200" width="200pt">
  <g transform="matrix(.1 0 0 -.1 0 200)">
    <path d="m1171 1886c-8-9-9-56-5-160 4-80 5-146 3-146-46-1-324-42-339-50-26-14-26-56-1-69 12-7 38-7 73-1 96 16 269 32 276 25 4-4 7-145 6-313-1-383-14-464-123-742-44-113-47-130-29-148 26-26 57-14 78 31 99 216 160 459 160 643 0 75 4 106 13 108 6 3 97 7 201 10l189 6-8-282c-4-156-10-329-14-386l-6-103-74 46c-72 44-110 53-118 28-11-33 186-193 238-193 16 0 30 7 34 18 9 23 34 522 35 682 0 181-9 259-31 271-12 6-92 6-230-2-116-5-213-9-214-7-2 2-7 83-11 179l-7 176 159 12c87 7 199 13 248 14 77 2 90 5 102 22 12 18 11 24-3 44l-16 24-171-7c-94-3-204-11-245-16s-77-8-79-5c-3 3-7 62-10 132-4 135-16 173-51 173-10 0-24-6-30-14z"/>
    <path d="m288 1819c-10-5-18-20-18-33 0-25 95-232 111-242 6-3 21-3 35 0 20 5 24 13 24 41 0 42-91 229-115 239-20 7-16 8-37-5z"/>
    <path d="m505 1444c-11-1-99-10-195-20-202-20-220-24-220-57 0-52 28-56 230-32 68 8 187 18 263 22 120 5 139 9 148 25 11 21-2 52-27 62-15 6-159 6-199 0z"/>
    <path d="m348 1143c-55-3-70-8-78-23-14-27 4-60 33-61 94-4 304 5 315 13 15 13 16 50 0 66-12 12-103 13-270 5z"/>
    <path d="m438 886c-59-7-113-17-119-23-15-15-8-54 13-66 19-12 270 8 301 24 23 13 22 56-2 69-23 12-47 11-193-4z"/>
    <path d="m550 663c-257-14-340-35-340-87 0-22 45-253 56-288 7-22 50-34 68-19 7 6 15 9 18 6s80 0 172 6c152 11 169 14 181 33 12 20 32 232 28 301-1 16-9 35-19 42-17 12-38 13-164 6zm86-180c-4-54-9-99-10-101-2-1-54-7-117-12-63-6-126-12-140-15-26-6-26-5-46 95-14 72-17 103-9 106 17 6 193 21 265 23l64 1z"/>
  </g>
</svg>
