<?xml version="1.0"?>
<svg xmlns="http://www.w3.org/2000/svg" height="200pt" preserveAspectRatio="xMidYMid meet" viewBox="0 0 200 200" width="200pt">
  <g transform="matrix(.1 0 0 -.1 0 200)">
    <path d="m288 1819c-10-5-18-20-18-33 0-25 95-232 111-242 6-3 21-3 35 0 20 5 24 13 24 41 0 42-91 229-115 239-20 7-16 8-37-5z"/>
    <path d="m1305 1709c-110-9-230-18-266-18-94-1-97-7-73-129 26-130 26-463 0-632-42-281-95-489-153-604-27-53-25-70 6-79 71-18 146 166 206 508 14 77 25 142 25 145 1 3 23-39 51-94 135-266 237-367 536-531 100-55 128-66 160-63 33 3 38 6 38 27s-19 35-125 94c-267 149-345 211-438 348-90 135-218 416-198 437 4 4 115 7 247 7h239l25 30c13 17 24 42 25 56 0 31 46 354 61 427 9 46 8 56-7 73-21 24-77 24-359-2zm275-71c0-7-11-87-25-178s-25-184-25-207v-43l-210-2c-115-1-218-2-227-2-16-1-18 12-20 124-1 69-9 159-17 200s-13 76-13 77c2 2 459 40 505 42 20 0 32-4 32-11z"/>
    <path d="m505 1444c-11-1-99-10-195-20-202-20-220-24-220-57 0-52 28-56 230-32 68 8 187 18 263 22 120 5 139 9 148 25 11 21-2 52-27 62-15 6-159 6-199 0z"/>
    <path d="m348 1143c-55-3-70-8-78-23-14-27 4-60 33-61 94-4 304 5 315 13 15 13 16 50 0 66-12 12-103 13-270 5z"/>
    <path d="m438 886c-59-7-113-17-119-23-15-15-8-54 13-66 19-12 270 8 301 24 23 13 22 56-2 69-23 12-47 11-193-4z"/>
    <path d="m550 663c-257-14-340-35-340-87 0-22 45-253 56-288 7-22 50-34 68-19 7 6 15 9 18 6s80 0 172 6c152 11 169 14 181 33 12 20 32 232 28 301-1 16-9 35-19 42-17 12-38 13-164 6zm86-180c-4-54-9-99-10-101-2-1-54-7-117-12-63-6-126-12-140-15-26-6-26-5-46 95-14 72-17 103-9 106 17 6 193 21 265 23l64 1z"/>
  </g>
</svg>
