<?xml version="1.0"?>
<svg xmlns="http://www.w3.org/2000/svg" height="200pt" preserveAspectRatio="xMidYMid meet" viewBox="0 0 200 200" width="200pt">
  <g transform="matrix(.1 0 0 -.1 0 200)">
    <path d="m288 1819c-10-5-18-20-18-33 0-25 95-232 111-242 6-3 21-3 35 0 20 5 24 13 24 41 0 42-91 229-115 239-20 7-16 8-37-5z"/>
    <path d="m1525 1699c-138-7-525-59-597-79-45-13-64-41-48-70 12-22 26-24 88-10 75 18 315 51 321 44 3-3 8-115 10-248l3-243-143-12c-196-17-349-39-365-52-18-15-18-43 0-58 12-10 43-9 143 3 70 8 164 18 208 21s95 8 114 11l34 6-7-409c-7-431-3-476 35-488 48-16 49-9 55 456 3 239 9 438 13 442 5 4 122 11 262 14 193 4 259 9 277 19 26 17 28 36 5 60-16 16-37 16-243 10-124-3-244-9-266-12l-42-6 1 218c0 121-3 233-7 250-7 31-7 31 40 38 26 3 119 9 206 13 138 5 160 9 168 24 22 40-19 70-88 68-20-1-100-5-177-10z"/>
    <path d="m1709 1468c-71-84-149-190-149-204 0-50 43-59 82-16 62 65 168 209 168 228 0 24-18 44-40 44-9 0-37-23-61-52z"/>
    <path d="m505 1444c-11-1-99-10-195-20-202-20-220-24-220-57 0-52 28-56 230-32 68 8 187 18 263 22 120 5 139 9 148 25 11 21-2 52-27 62-15 6-159 6-199 0z"/>
    <path d="m892 1388c-26-26-13-56 47-103 32-25 73-64 90-85 33-41 58-49 79-28 33 33-8 97-116 179-69 52-81 56-100 37z"/>
    <path d="m348 1143c-55-3-70-8-78-23-14-27 4-60 33-61 94-4 304 5 315 13 15 13 16 50 0 66-12 12-103 13-270 5z"/>
    <path d="m438 886c-59-7-113-17-119-23-15-15-8-54 13-66 19-12 270 8 301 24 23 13 22 56-2 69-23 12-47 11-193-4z"/>
    <path d="m550 663c-257-14-340-35-340-87 0-22 45-253 56-288 7-22 50-34 68-19 7 6 15 9 18 6s80 0 172 6c152 11 169 14 181 33 12 20 32 232 28 301-1 16-9 35-19 42-17 12-38 13-164 6zm86-180c-4-54-9-99-10-101-2-1-54-7-117-12-63-6-126-12-140-15-26-6-26-5-46 95-14 72-17 103-9 106 17 6 193 21 265 23l64 1z"/>
  </g>
</svg>
