<?xml version="1.0"?>
<svg xmlns="http://www.w3.org/2000/svg" height="200pt" preserveAspectRatio="xMidYMid meet" viewBox="0 0 200 200" width="200pt">
  <g transform="matrix(.1 0 0 -.1 0 200)">
    <path d="m288 1819c-10-5-18-20-18-33 0-25 95-232 111-242 6-3 21-3 35 0 20 5 24 13 24 41 0 42-91 229-115 239-20 7-16 8-37-5z"/>
    <path d="m1645 1733c-342-26-802-86-822-106-17-16-10-52 10-60 7-3 100 6 207 19 305 37 620 68 626 61 9-8 18-1307 9-1307-15 0-111 76-178 139-61 58-69 63-83 49-23-22-9-60 42-118 45-49 214-182 246-193 9-3 27 2 40 13l23 18 2 434c1 238-1 565-4 727-6 267-8 296-25 313-10 10-26 17-35 16-10-1-36-3-58-5z"/>
    <path d="m505 1444c-11-1-99-10-195-20-202-20-220-24-220-57 0-52 28-56 230-32 68 8 187 18 263 22 120 5 139 9 148 25 11 21-2 52-27 62-15 6-159 6-199 0z"/>
    <path d="m1275 1338c-125-14-257-46-278-67s-16-55 8-65c8-3 49 3 90 14s123 25 183 31c59 7 113 17 120 22 22 17 14 57-14 67-14 6-26 9-27 9-1-1-38-6-82-11z"/>
    <path d="m348 1143c-55-3-70-8-78-23-14-27 4-60 33-61 94-4 304 5 315 13 15 13 16 50 0 66-12 12-103 13-270 5z"/>
    <path d="m1185 1088c-44-5-94-9-111-9-55 1-59-14-41-152 9-67 18-141 21-164 4-44 31-89 56-96 8-2 82-2 163-1 103 2 153 7 164 16 13 11 15 36 10 173-5 160-15 221-39 237-16 10-119 8-223-4zm174-224 1-101-67-6c-38-4-86-7-109-7h-41l-14 121c-10 81-11 123-4 127 5 3 57 9 115 12l105 5 6-25c4-14 7-70 8-126z"/>
    <path d="m438 886c-59-7-113-17-119-23-15-15-8-54 13-66 19-12 270 8 301 24 23 13 22 56-2 69-23 12-47 11-193-4z"/>
    <path d="m550 663c-257-14-340-35-340-87 0-22 45-253 56-288 7-22 50-34 68-19 7 6 15 9 18 6s80 0 172 6c152 11 169 14 181 33 12 20 32 232 28 301-1 16-9 35-19 42-17 12-38 13-164 6zm86-180c-4-54-9-99-10-101-2-1-54-7-117-12-63-6-126-12-140-15-26-6-26-5-46 95-14 72-17 103-9 106 17 6 193 21 265 23l64 1z"/>
  </g>
</svg>
