<?xml version="1.0"?>
<svg xmlns="http://www.w3.org/2000/svg" height="200pt" preserveAspectRatio="xMidYMid meet" viewBox="0 0 200 200" width="200pt">
  <g transform="matrix(.1 0 0 -.1 0 200)">
    <path d="m1286 1854c-14-13-16-52-16-275v-259l-22-4c-45-10-344-46-379-46-73 0-107-70-42-86 21-6 305 24 409 42l31 6 7-128c3-70 13-159 21-198 22-104 98-319 137-384 38-66 260-290 296-299 45-11 60 19 73 151 10 105 9 120-5 134-23 23-34 7-56-78-10-39-20-74-23-76-2-2-36 25-75 61-107 99-153 177-212 352-51 153-70 260-70 399v71l163 7c89 3 181 9 205 12 50 8 69 32 51 65-11 21-15 21-158 15-80-4-172-9-203-13l-58-6v119c0 221-12 405-27 420-18 18-28 18-47-2z"/>
    <path d="m288 1819c-10-5-18-20-18-33 0-25 95-232 111-242 6-3 21-3 35 0 20 5 24 13 24 41 0 42-91 229-115 239-20 7-16 8-37-5z"/>
    <path d="m1564 1652c-27-18-22-43 15-86 22-25 60-72 86-106 39-51 51-61 74-58 60 7 26 88-83 202-53 55-70 63-92 48z"/>
    <path d="m505 1444c-11-1-99-10-195-20-202-20-220-24-220-57 0-52 28-56 230-32 68 8 187 18 263 22 120 5 139 9 148 25 11 21-2 52-27 62-15 6-159 6-199 0z"/>
    <path d="m348 1143c-55-3-70-8-78-23-14-27 4-60 33-61 94-4 304 5 315 13 15 13 16 50 0 66-12 12-103 13-270 5z"/>
    <path d="m1042 950c-199-31-232-44-232-86 0-36 27-44 89-28 30 7 55 13 56 11 1-1 5-90 9-198l6-196-40-13c-49-16-73-41-68-72 4-32 34-34 115-5 85 31 196 55 292 65 60 6 76 11 88 29 13 19 12 24-7 43-20 20-28 22-96 15-40-4-99-13-131-20s-60-11-62-9c-3 3-5 89-5 192l-1 187 78 11c75 10 96 21 97 51 0 15-40 43-60 42-8-1-66-9-128-19z"/>
    <path d="m438 886c-59-7-113-17-119-23-15-15-8-54 13-66 19-12 270 8 301 24 23 13 22 56-2 69-23 12-47 11-193-4z"/>
    <path d="m550 663c-257-14-340-35-340-87 0-22 45-253 56-288 7-22 50-34 68-19 7 6 15 9 18 6s80 0 172 6c152 11 169 14 181 33 12 20 32 232 28 301-1 16-9 35-19 42-17 12-38 13-164 6zm86-180c-4-54-9-99-10-101-2-1-54-7-117-12-63-6-126-12-140-15-26-6-26-5-46 95-14 72-17 103-9 106 17 6 193 21 265 23l64 1z"/>
  </g>
</svg>
