<?xml version="1.0"?>
<svg xmlns="http://www.w3.org/2000/svg" height="200pt" preserveAspectRatio="xMidYMid meet" viewBox="0 0 200 200" width="200pt">
  <g transform="matrix(.1 0 0 -.1 0 200)">
    <path d="m1232 1838c-7-7-12-43-12-90v-78h-34c-47 0-226-38-243-51-19-17-16-57 6-69 14-7 35-6 74 4 30 8 81 17 113 21 33 4 67 9 77 11 16 5 17-7 17-149v-155l-82-11c-170-24-353-63-370-78-22-20-23-46-3-63 11-9 50-6 187 19 169 29 279 44 446 57l82 6v-96-96h-34c-117 0-456-64-503-96-13-8-23-23-23-34 0-37 38-40 146-14 89 22 259 47 372 56l42 4v-284-284l-27 8c-16 4-44 8-63 8-41 1-52-24-23-56 24-27 126-78 156-78 51 0 52 8 49 362l-2 328h101c110 0 139 9 139 43 0 41-17 47-132 47h-108v53c0 28-3 69-6 89l-7 37 148 3c136 3 149 5 161 23s11 24-2 44l-17 23-267-3-268-4-4 145c-2 80-4 146-3 147 0 1 57 5 125 9 69 4 133 11 143 16 9 5 17 19 17 32 0 44-20 50-159 43l-129-7-7 68c-4 37-11 75-16 85-11 20-40 22-57 5z"/>
    <path d="m288 1819c-10-5-18-20-18-33 0-25 95-232 111-242 6-3 21-3 35 0 20 5 24 13 24 41 0 42-91 229-115 239-20 7-16 8-37-5z"/>
    <path d="m505 1444c-11-1-99-10-195-20-202-20-220-24-220-57 0-52 28-56 230-32 68 8 187 18 263 22 120 5 139 9 148 25 11 21-2 52-27 62-15 6-159 6-199 0z"/>
    <path d="m348 1143c-55-3-70-8-78-23-14-27 4-60 33-61 94-4 304 5 315 13 15 13 16 50 0 66-12 12-103 13-270 5z"/>
    <path d="m438 886c-59-7-113-17-119-23-15-15-8-54 13-66 19-12 270 8 301 24 23 13 22 56-2 69-23 12-47 11-193-4z"/>
    <path d="m1098 739c-10-5-18-21-18-34 0-19 18-36 92-85 50-33 97-60 103-60 18 0 35 22 35 45 0 27-28 52-116 104-78 46-73 44-96 30z"/>
    <path d="m550 663c-257-14-340-35-340-87 0-22 45-253 56-288 7-22 50-34 68-19 7 6 15 9 18 6s80 0 172 6c152 11 169 14 181 33 12 20 32 232 28 301-1 16-9 35-19 42-17 12-38 13-164 6zm86-180c-4-54-9-99-10-101-2-1-54-7-117-12-63-6-126-12-140-15-26-6-26-5-46 95-14 72-17 103-9 106 17 6 193 21 265 23l64 1z"/>
  </g>
</svg>
