<?xml version="1.0"?>
<svg xmlns="http://www.w3.org/2000/svg" height="200pt" preserveAspectRatio="xMidYMid meet" viewBox="0 0 200 200" width="200pt">
  <g transform="matrix(.1 0 0 -.1 0 200)">
    <path d="m1474 1823c-27-21-141-100-254-176-200-134-227-157-215-177 16-26 119 12 239 87l39 25-6-128c-4-71-7-179-7-240v-112l-67-6c-249-23-278-28-295-48-20-22-11-51 17-62 9-3 89 1 177 9 88 9 162 14 164 13 1-2 6-56 10-121 6-97 5-117-7-117-48-1-262-39-271-48-21-21-19-109 6-262 14-85 26-169 26-187 0-20 8-41 20-53 18-18 29-20 78-15 31 4 164 10 294 13 199 6 240 10 253 23 17 17 85 396 85 476 0 70-17 76-219 72l-169-4-4 110c-3 61-3 113-1 118 2 4 106 7 231 7 190 0 231 3 250 16 26 18 28 37 6 58-13 14-51 16-256 16h-241l6 182c4 99 7 218 7 263v82l100 74c101 75 124 105 100 134-20 24-43 18-96-22zm191-1155c-13-76-55-343-55-349 0-4-84-10-187-13-104-3-214-8-245-11l-57-5-6 48c-4 26-15 93-26 150-10 57-19 118-19 136v33l143 17c78 9 151 19 162 20 11 2 82 4 158 5l138 1z"/>
    <path d="m288 1819c-10-5-18-20-18-33 0-25 95-232 111-242 6-3 21-3 35 0 20 5 24 13 24 41 0 42-91 229-115 239-20 7-16 8-37-5z"/>
    <path d="m505 1444c-11-1-99-10-195-20-202-20-220-24-220-57 0-52 28-56 230-32 68 8 187 18 263 22 120 5 139 9 148 25 11 21-2 52-27 62-15 6-159 6-199 0z"/>
    <path d="m348 1143c-55-3-70-8-78-23-14-27 4-60 33-61 94-4 304 5 315 13 15 13 16 50 0 66-12 12-103 13-270 5z"/>
    <path d="m438 886c-59-7-113-17-119-23-15-15-8-54 13-66 19-12 270 8 301 24 23 13 22 56-2 69-23 12-47 11-193-4z"/>
    <path d="m550 663c-257-14-340-35-340-87 0-22 45-253 56-288 7-22 50-34 68-19 7 6 15 9 18 6s80 0 172 6c152 11 169 14 181 33 12 20 32 232 28 301-1 16-9 35-19 42-17 12-38 13-164 6zm86-180c-4-54-9-99-10-101-2-1-54-7-117-12-63-6-126-12-140-15-26-6-26-5-46 95-14 72-17 103-9 106 17 6 193 21 265 23l64 1z"/>
  </g>
</svg>
