<?xml version="1.0"?>
<svg xmlns="http://www.w3.org/2000/svg" height="200pt" preserveAspectRatio="xMidYMid meet" viewBox="0 0 200 200" width="200pt">
  <g transform="matrix(.1 0 0 -.1 0 200)">
    <path d="m1232 1878c-8-8-12-48-12-113v-101l-112-17c-183-28-208-39-192-90 7-22 20-22 208 8 54 8 100 14 101 13 1-2 5-69 9-149l6-146-66-7c-82-8-104-19-104-51 0-40 25-45 145-29 61 7 165 13 232 14 112 0 123 2 133 20 7 13 7 26 1 39-9 15-27 19-113 25-57 4-111 4-120 1-17-7-17-3-34 211l-6 81 64 6c34 4 103 9 152 13 67 5 93 11 107 25 24 24 24 32 1 52-18 16-86 15-283-7l-36-4-6 95c-4 53-12 102-18 109-14 17-41 18-57 2z"/>
    <path d="m288 1819c-10-5-18-20-18-33 0-25 95-232 111-242 6-3 21-3 35 0 20 5 24 13 24 41 0 42-91 229-115 239-20 7-16 8-37-5z"/>
    <path d="m505 1444c-11-1-99-10-195-20-202-20-220-24-220-57 0-52 28-56 230-32 68 8 187 18 263 22 120 5 139 9 148 25 11 21-2 52-27 62-15 6-159 6-199 0z"/>
    <path d="m348 1143c-55-3-70-8-78-23-14-27 4-60 33-61 94-4 304 5 315 13 15 13 16 50 0 66-12 12-103 13-270 5z"/>
    <path d="m1356 948c-18-25-19-24 77-158 92-128 128-128 167-2 24 78 25 108 4 116-22 9-31 1-57-50l-23-45-38 56c-38 54-89 105-106 105-5 0-16-10-24-22z"/>
    <path d="m1722 948c-24-24-11-52 64-134 76-84 100-97 124-69 19 23-4 65-80 148-61 66-85 78-108 55z"/>
    <path d="m438 886c-59-7-113-17-119-23-15-15-8-54 13-66 19-12 270 8 301 24 23 13 22 56-2 69-23 12-47 11-193-4z"/>
    <path d="m953 888c-4-7-21-47-38-88-26-63-54-111-120-206-13-19 6-48 34-52 33-5 83 54 136 161 51 102 65 158 45 182-15 18-46 20-57 3z"/>
    <path d="m1080 874c-8-19-6-43 5-87 42-165 165-338 327-457 64-48 97-64 203-99 133-43 185-50 208-27 15 15 37 138 37 205 0 27-5 41-17 45-25 10-40-12-62-93-11-41-22-75-24-77s-52 12-111 31c-154 50-248 118-348 250-66 87-125 198-134 255-9 61-21 80-49 80-18 0-28-7-35-26z"/>
    <path d="m550 663c-257-14-340-35-340-87 0-22 45-253 56-288 7-22 50-34 68-19 7 6 15 9 18 6s80 0 172 6c152 11 169 14 181 33 12 20 32 232 28 301-1 16-9 35-19 42-17 12-38 13-164 6zm86-180c-4-54-9-99-10-101-2-1-54-7-117-12-63-6-126-12-140-15-26-6-26-5-46 95-14 72-17 103-9 106 17 6 193 21 265 23l64 1z"/>
  </g>
</svg>
