<?xml version="1.0"?>
<svg xmlns="http://www.w3.org/2000/svg" height="200pt" preserveAspectRatio="xMidYMid meet" viewBox="0 0 200 200" width="200pt">
  <g transform="matrix(.1 0 0 -.1 0 200)">
    <path d="m288 1819c-10-5-18-20-18-33 0-25 95-232 111-242 6-3 21-3 35 0 20 5 24 13 24 41 0 42-91 229-115 239-20 7-16 8-37-5z"/>
    <path d="m1200 1819c-202-15-229-19-240-39-13-25-3-49 24-56 12-3 71-1 131 4 61 6 112 8 114 6s-11-46-30-98c-31-90-34-94-57-85-39 15-70 11-82-11-9-16-6-24 13-43 13-12 32-27 42-33 18-10 18-13-10-60-15-27-52-72-82-101-29-28-53-58-53-66 0-24 27-40 56-33 39 10 128 99 160 160l27 53 43-24c45-25 78-24 88 2 9 25-4 43-54 75l-48 31 29 75c16 42 34 95 40 119 11 44 11 44 66 51 44 5 303-2 310-9 1-1-7-77-17-168-16-142-45-309-54-309-2 0-29 9-62 20-67 23-84 21-84-14 0-28 30-52 107-84 63-27 85-27 105-4 16 19 52 182 67 307 30 250 34 314 21 330-11 13-46 15-239 14-124-1-273-5-331-10z"/>
    <path d="m505 1444c-11-1-99-10-195-20-202-20-220-24-220-57 0-52 28-56 230-32 68 8 187 18 263 22 120 5 139 9 148 25 11 21-2 52-27 62-15 6-159 6-199 0z"/>
    <path d="m348 1143c-55-3-70-8-78-23-14-27 4-60 33-61 94-4 304 5 315 13 15 13 16 50 0 66-12 12-103 13-270 5z"/>
    <path d="m1070 940c-7-13-9-37-5-59 15-85 79-288 110-350 69-135 217-287 340-349 52-26 212-82 234-82 36 0 52 26 77 124 26 101 26 126 0 126-22 0-53-44-72-103-9-29-17-53-18-54-4-5-148 52-201 80-109 59-237 196-294 316-15 33-45 122-66 198-20 76-40 145-45 153-12 24-47 24-60 0z"/>
    <path d="m1362 948c-22-22-13-52 44-148 81-136 110-170 144-170 35 0 45 13 61 73 10 42 10 51-4 65-15 15-18 14-40-7l-24-22-50 78c-28 43-56 89-63 103-21 40-46 50-68 28z"/>
    <path d="m1743 913c-32-13-12-61 73-171 82-107 116-134 143-117 29 17 9 63-76 170-103 131-105 133-140 118z"/>
    <path d="m438 886c-59-7-113-17-119-23-15-15-8-54 13-66 19-12 270 8 301 24 23 13 22 56-2 69-23 12-47 11-193-4z"/>
    <path d="m936 702c-3-5-15-53-27-108-12-54-28-115-36-136-22-54-14-92 19-96 23-3 30 3 48 39 19 35 70 231 70 266 0 29-60 58-74 35z"/>
    <path d="m550 663c-257-14-340-35-340-87 0-22 45-253 56-288 7-22 50-34 68-19 7 6 15 9 18 6s80 0 172 6c152 11 169 14 181 33 12 20 32 232 28 301-1 16-9 35-19 42-17 12-38 13-164 6zm86-180c-4-54-9-99-10-101-2-1-54-7-117-12-63-6-126-12-140-15-26-6-26-5-46 95-14 72-17 103-9 106 17 6 193 21 265 23l64 1z"/>
  </g>
</svg>
