<?xml version="1.0"?>
<svg xmlns="http://www.w3.org/2000/svg" height="200pt" preserveAspectRatio="xMidYMid meet" viewBox="0 0 200 200" width="200pt">
  <g transform="matrix(.1 0 0 -.1 0 200)">
    <path d="m1635 1804c-94-81-223-160-335-205-103-41-115-48-118-72-3-21 2-28 23-33 31-8 102 9 178 43 31 14 59 24 61 22s7-199 11-436l7-433h-56-56v148c0 157-8 188-45 180-38-7-46-44-43-193l3-140-45-3c-61-4-86-35-54-66 13-14 61-16 368-16 375 0 383 1 374 47-6 34-47 43-205 43h-153v83c0 46-3 145-6 219l-7 135 84 6c110 7 121 12 117 51l-3 31-102 3-103 3v199 199l48 33c67 46 152 128 152 147 0 21-19 41-39 41-9-1-34-16-56-36z"/>
    <path d="m288 1819c-10-5-18-20-18-33 0-25 95-232 111-242 6-3 21-3 35 0 20 5 24 13 24 41 0 42-91 229-115 239-20 7-16 8-37-5z"/>
    <path d="m505 1444c-11-1-99-10-195-20-202-20-220-24-220-57 0-52 28-56 230-32 68 8 187 18 263 22 120 5 139 9 148 25 11 21-2 52-27 62-15 6-159 6-199 0z"/>
    <path d="m882 1220c-76-12-101-39-68-73 11-11 36-13 115-9 56 2 101 2 101-2 0-14-24-51-72-115-72-96-62-128 36-116l56 7v-38c0-48-19-202-29-241-7-28-7-28-55 37-50 67-79 81-99 49-15-24 8-71 71-146l54-64-17-47c-10-26-38-89-62-140-24-52-43-101-41-110 2-10 15-18 29-20 37-4 75 45 123 160 22 51 40 94 41 96 2 2 37-22 79-52 162-116 275-166 500-222 190-46 246-44 246 11 0 19-7 26-37 34-21 6-46 11-56 11-23 0-202 45-287 72-114 36-298 140-392 220l-27 23 19 95c12 57 20 138 20 203 0 94-2 109-20 127-11 11-29 20-39 20-17 0-16 7 16 69 40 77 38 109-8 143-29 21-121 30-197 18z"/>
    <path d="m348 1143c-55-3-70-8-78-23-14-27 4-60 33-61 94-4 304 5 315 13 15 13 16 50 0 66-12 12-103 13-270 5z"/>
    <path d="m438 886c-59-7-113-17-119-23-15-15-8-54 13-66 19-12 270 8 301 24 23 13 22 56-2 69-23 12-47 11-193-4z"/>
    <path d="m550 663c-257-14-340-35-340-87 0-22 45-253 56-288 7-22 50-34 68-19 7 6 15 9 18 6s80 0 172 6c152 11 169 14 181 33 12 20 32 232 28 301-1 16-9 35-19 42-17 12-38 13-164 6zm86-180c-4-54-9-99-10-101-2-1-54-7-117-12-63-6-126-12-140-15-26-6-26-5-46 95-14 72-17 103-9 106 17 6 193 21 265 23l64 1z"/>
  </g>
</svg>
