<?xml version="1.0"?>
<svg xmlns="http://www.w3.org/2000/svg" height="200pt" preserveAspectRatio="xMidYMid meet" viewBox="0 0 200 200" width="200pt">
  <g transform="matrix(.1 0 0 -.1 0 200)">
    <path d="m288 1819c-10-5-18-20-18-33 0-25 95-232 111-242 6-3 21-3 35 0 20 5 24 13 24 41 0 42-91 229-115 239-20 7-16 8-37-5z"/>
    <path d="m1350 1594c-315-34-380-50-380-94 0-39 24-43 134-26 58 9 116 16 129 16h24l-20-72c-10-40-21-74-22-76-2-2-34-10-72-19-98-22-129-56-80-87 18-12 31-13 69-4 27 6 51 9 54 6 6-7-15-125-27-149-5-10-40-21-107-33-104-18-142-35-142-65 0-43 20-44 202-12 234 41 338 51 535 51 136 0 173 3 191 16 26 18 28 37 6 58-12 13-39 16-125 16h-109v115c0 143 2 141-149 131-58-3-116-9-128-12-20-6-21-4-12 38 6 23 14 59 19 79l10 36 92 7c50 3 117 6 150 6 44 0 63 5 78 20 20 20 18 47-4 62-17 12-176 7-316-8zm170-394v-80l-27-1c-16 0-74-6-130-12-69-9-103-9-103-2 0 5 7 42 17 82l16 72 41 6c23 2 52 6 66 9 14 2 46 4 73 5l47 1z"/>
    <path d="m505 1444c-11-1-99-10-195-20-202-20-220-24-220-57 0-52 28-56 230-32 68 8 187 18 263 22 120 5 139 9 148 25 11 21-2 52-27 62-15 6-159 6-199 0z"/>
    <path d="m348 1143c-55-3-70-8-78-23-14-27 4-60 33-61 94-4 304 5 315 13 15 13 16 50 0 66-12 12-103 13-270 5z"/>
    <path d="m438 886c-59-7-113-17-119-23-15-15-8-54 13-66 19-12 270 8 301 24 23 13 22 56-2 69-23 12-47 11-193-4z"/>
    <path d="m1120 806c-52-6-101-15-109-20-11-7-13-31-7-120 11-182 31-353 44-368 10-12 56-14 283-10 201 3 280 1 309-8 33-11 41-10 64 6 30 22 41 48 28 69-5 10-1 62 9 133 10 64 21 159 25 211 6 85 5 95-11 107-24 17-489 17-635 0zm555-78c7-7-35-322-44-337-3-5-119-10-258-13l-252-4-6 56c-4 30-13 106-21 169-7 63-13 116-11 117 16 16 577 28 592 12z"/>
    <path d="m550 663c-257-14-340-35-340-87 0-22 45-253 56-288 7-22 50-34 68-19 7 6 15 9 18 6s80 0 172 6c152 11 169 14 181 33 12 20 32 232 28 301-1 16-9 35-19 42-17 12-38 13-164 6zm86-180c-4-54-9-99-10-101-2-1-54-7-117-12-63-6-126-12-140-15-26-6-26-5-46 95-14 72-17 103-9 106 17 6 193 21 265 23l64 1z"/>
  </g>
</svg>
