<?xml version="1.0"?>
<svg xmlns="http://www.w3.org/2000/svg" height="200pt" preserveAspectRatio="xMidYMid meet" viewBox="0 0 200 200" width="200pt">
  <g transform="matrix(.1 0 0 -.1 0 200)">
    <path d="m288 1819c-10-5-18-20-18-33 0-25 95-232 111-242 6-3 21-3 35 0 20 5 24 13 24 41 0 42-91 229-115 239-20 7-16 8-37-5z"/>
    <path d="m1675 1810c-8-25 8-55 58-107 42-44 64-52 85-31s13 42-39 101c-54 61-92 75-104 37z"/>
    <path d="m1492 1802c-19-12-30-62-38-168-6-89-9-96-31-105-13-5-127-12-254-16-151-4-235-10-246-18-14-11-15-28-3-190 23-322-21-700-106-897-15-35-27-81-28-103-1-36 2-40 26-43 22-3 31 4 52 41 56 94 97 252 126 477 11 85 20 187 20 227v72l55 5c30 3 79 8 108 12l54 5 7-198c7-206-2-365-29-496-25-117-21-112-65-77-42 33-75 39-84 14-7-19-5-23 54-98 46-58 81-77 109-59 25 16 60 125 81 257 17 100 20 169 20 401 0 206-4 287-13 305-12 23-18 25-82 25-39 0-103-3-142-8l-73-7-1 72c0 40-4 98-8 129l-7 57 101 6c55 3 155 9 223 12l122 7v-119c0-137 40-497 69-634l21-93-48-61c-64-82-64-82-46-100 21-22 26-21 79 20 26 19 48 34 49 32s20-46 41-98c22-52 61-127 87-167 38-58 53-73 73-73 34 0 51 31 65 116 6 39 22 113 35 165 24 94 22 118-10 106-20-8-71-116-86-184-7-30-17-52-23-50-12 4-115 243-116 267 0 8 45 75 100 148s100 139 100 147c0 14-26 45-39 45-16 0-43-29-115-124-46-59-78-93-80-85-19 55-65 444-73 615l-6 131 169 12c93 7 175 18 182 23 17 14 15 43-3 58-12 10-48 11-153 6-75-4-147-9-161-13l-24-6 7 84c4 46 9 102 12 125 4 30 1 45-11 57-18 19-24 20-43 9z"/>
    <path d="m505 1444c-11-1-99-10-195-20-202-20-220-24-220-57 0-52 28-56 230-32 68 8 187 18 263 22 120 5 139 9 148 25 11 21-2 52-27 62-15 6-159 6-199 0z"/>
    <path d="m348 1143c-55-3-70-8-78-23-14-27 4-60 33-61 94-4 304 5 315 13 15 13 16 50 0 66-12 12-103 13-270 5z"/>
    <path d="m438 886c-59-7-113-17-119-23-15-15-8-54 13-66 19-12 270 8 301 24 23 13 22 56-2 69-23 12-47 11-193-4z"/>
    <path d="m550 663c-257-14-340-35-340-87 0-22 45-253 56-288 7-22 50-34 68-19 7 6 15 9 18 6s80 0 172 6c152 11 169 14 181 33 12 20 32 232 28 301-1 16-9 35-19 42-17 12-38 13-164 6zm86-180c-4-54-9-99-10-101-2-1-54-7-117-12-63-6-126-12-140-15-26-6-26-5-46 95-14 72-17 103-9 106 17 6 193 21 265 23l64 1z"/>
  </g>
</svg>
