<?xml version="1.0"?>
<svg xmlns="http://www.w3.org/2000/svg" height="200pt" preserveAspectRatio="xMidYMid meet" viewBox="0 0 200 200" width="200pt">
  <g transform="matrix(.1 0 0 -.1 0 200)">
    <path d="m288 1819c-10-5-18-20-18-33 0-25 95-232 111-242 6-3 21-3 35 0 20 5 24 13 24 41 0 42-91 229-115 239-20 7-16 8-37-5z"/>
    <path d="m1257 1796c-54-6-101-8-103-4-8 12-49 9-62-4-16-16-15-91 7-307 13-127 23-186 32-193 8-5 30-6 49-2 19 3 124 9 233 13 236 7 227 2 227 125 0 44 5 142 12 218 9 110 9 140-2 153-10 12-38 15-154 14-77-1-185-7-239-13zm309-108c-3-24-8-100-12-170l-7-128h-96c-53-1-130-5-171-10-41-4-77-7-78-5-5 4-21 137-30 242l-8 82 49 6c70 10 222 22 296 24l63 1z"/>
    <path d="m860 1545c-10-13-10-42 3-153 9-75 21-189 27-252 21-216 19-213 138-181 67 18 314 71 331 71 3 0 6-63 6-140s-2-140-5-140c-22 0-252-32-328-45-124-21-142-29-142-59 0-41 25-45 140-25 259 44 629 67 751 46 49-8 79 6 79 38 0 45-72 60-275 57l-140-2 6 152c6 159 1 194-28 205-27 10-308-39-413-72-15-5-19 6-28 72-6 43-14 110-17 148-11 114-36 269-47 283-14 17-43 15-58-3z"/>
    <path d="m505 1444c-11-1-99-10-195-20-202-20-220-24-220-57 0-52 28-56 230-32 68 8 187 18 263 22 120 5 139 9 148 25 11 21-2 52-27 62-15 6-159 6-199 0z"/>
    <path d="m348 1143c-55-3-70-8-78-23-14-27 4-60 33-61 94-4 304 5 315 13 15 13 16 50 0 66-12 12-103 13-270 5z"/>
    <path d="m438 886c-59-7-113-17-119-23-15-15-8-54 13-66 19-12 270 8 301 24 23 13 22 56-2 69-23 12-47 11-193-4z"/>
    <path d="m550 663c-257-14-340-35-340-87 0-22 45-253 56-288 7-22 50-34 68-19 7 6 15 9 18 6s80 0 172 6c152 11 169 14 181 33 12 20 32 232 28 301-1 16-9 35-19 42-17 12-38 13-164 6zm86-180c-4-54-9-99-10-101-2-1-54-7-117-12-63-6-126-12-140-15-26-6-26-5-46 95-14 72-17 103-9 106 17 6 193 21 265 23l64 1z"/>
    <path d="m1127 518c-17-13-147-225-147-241 0-20 22-47 39-47 24 0 49 30 115 139 60 100 68 134 37 151-24 13-24 13-44-2z"/>
    <path d="m1590 470c-6-11-7-26-3-34 15-26 232-226 246-226 7 0 18 5 25 12 27 27 11 54-80 144-131 129-165 147-188 104z"/>
  </g>
</svg>
