<?xml version="1.0"?>
<svg xmlns="http://www.w3.org/2000/svg" height="200pt" preserveAspectRatio="xMidYMid meet" viewBox="0 0 200 200" width="200pt">
  <g transform="matrix(.1 0 0 -.1 0 200)">
    <path d="m1489 1816c-44-47-92-100-105-118-29-39-28-72 3-76 16-2 49 23 126 98 58 55 107 109 110 120 6 22-18 60-38 60-8 0-51-38-96-84z"/>
    <path d="m927 1863c-4-3-7-18-7-33 0-40 170-225 208-225 20 0 28 5 30 22 5 34-21 74-104 162-72 76-106 96-127 74z"/>
    <path d="m288 1819c-10-5-18-20-18-33 0-25 95-232 111-242 6-3 21-3 35 0 20 5 24 13 24 41 0 42-91 229-115 239-20 7-16 8-37-5z"/>
    <path d="m1230 1489c-217-20-271-27-285-39-20-17-19-67 4-220 11-69 22-154 26-190s12-71 17-77c6-8 33-13 64-13h54v-69c0-84-39-244-80-327-32-67-128-165-200-206-45-26-54-41-40-69 38-69 244 79 320 231 43 86 80 235 87 353l6 97h47 47l6-167c7-185 38-366 76-440 36-71 49-76 229-74 301 2 315 10 283 165-19 95-39 128-65 106-12-9-16-32-16-90 0-62-3-79-16-84-9-3-85-6-169-6-138 0-155 2-164 18-33 62-81 358-81 500 0 76 4 79 108 64 83-12 97-7 113 36 8 21 39 374 39 449 0 58-15 63-173 62-78-1-185-6-237-10zm316-126c-3-27-8-93-11-148s-8-116-11-136l-5-35h-157c-86 1-188-1-227-3l-69-4-23 144c-12 79-22 158-23 175v31l138 10c75 5 195 10 265 11l129 2z"/>
    <path d="m505 1444c-11-1-99-10-195-20-202-20-220-24-220-57 0-52 28-56 230-32 68 8 187 18 263 22 120 5 139 9 148 25 11 21-2 52-27 62-15 6-159 6-199 0z"/>
    <path d="m348 1143c-55-3-70-8-78-23-14-27 4-60 33-61 94-4 304 5 315 13 15 13 16 50 0 66-12 12-103 13-270 5z"/>
    <path d="m438 886c-59-7-113-17-119-23-15-15-8-54 13-66 19-12 270 8 301 24 23 13 22 56-2 69-23 12-47 11-193-4z"/>
    <path d="m550 663c-257-14-340-35-340-87 0-22 45-253 56-288 7-22 50-34 68-19 7 6 15 9 18 6s80 0 172 6c152 11 169 14 181 33 12 20 32 232 28 301-1 16-9 35-19 42-17 12-38 13-164 6zm86-180c-4-54-9-99-10-101-2-1-54-7-117-12-63-6-126-12-140-15-26-6-26-5-46 95-14 72-17 103-9 106 17 6 193 21 265 23l64 1z"/>
  </g>
</svg>
