<?xml version="1.0"?>
<svg xmlns="http://www.w3.org/2000/svg" height="200pt" preserveAspectRatio="xMidYMid meet" viewBox="0 0 200 200" width="200pt">
  <g transform="matrix(.1 0 0 -.1 0 200)">
    <path d="m282 1818c-21-21-14-50 40-165 48-104 55-113 80-113 61 0 57 50-15 195-45 92-74 114-105 83z"/>
    <path d="m1190 1791c-5-11-10-49-10-85 0-75 13-67-140-87-115-14-136-21-145-50-9-27 24-60 52-53 10 3 67 11 126 18l108 13-7-111c-3-61-11-114-17-118-5-3-34-9-64-13-56-7-79-28-67-60 13-32 38-33 199-9 88 13 187 24 220 24 88 0 129 35 89 74-18 19-115 21-208 6-33-5-62-8-64-6-2 3-1 54 3 114l7 109 156 7c88 4 161 11 169 17 7 6 13 22 13 35 0 41-29 47-191 39l-149-7v62c0 73-12 100-45 100-14 0-29-8-35-19z"/>
    <path d="m490 1445c-8-2-96-12-195-21-142-14-183-22-197-36-18-18-15-46 6-60 17-12 82-9 223 7 70 8 185 16 254 18 131 2 159 11 159 48 0 40-26 49-133 48-56-1-109-3-117-4z"/>
    <path d="m330 1143c-24-3-50-9-57-15-20-17-15-46 11-63 21-14 46-15 176-9 110 5 156 11 166 21 18 19 18 38-2 57-12 13-38 16-132 14-64-1-137-3-162-5z"/>
    <path d="m1530 1133c-177-8-399-25-500-38s-115-13-130 0c-26 24-59 19-72-11-10-21-8-52 11-163 13-75 27-143 32-152 19-37 65-32 75 7 3 13-1 63-10 111-9 49-16 93-16 98 0 17 494 60 742 65 4 0-2-19-12-42-34-74-22-115 24-85 40 27 116 136 116 168 0 49-24 53-260 42z"/>
    <path d="m1116 934c-13-12-16-38-16-118 0-108-16-189-51-258-25-49-104-135-159-173-44-30-51-58-20-75 32-17 79 4 148 65 74 67 114 127 144 213 19 57 23 87 23 200 0 121-2 135-19 148-25 18-31 18-50-2z"/>
    <path d="m1309 923c-7-18-9-92-6-203 5-197 22-276 77-342 52-63 98-78 236-78 157 0 243 14 268 43 16 19 18 34 13 122-6 115-12 135-37 135-27 0-30-10-40-106-5-48-11-89-14-92s-70-7-148-9c-131-4-146-3-175 16-69 43-96 150-95 371 0 87-4 150-10 157-19 24-58 15-69-14z"/>
    <path d="m426 886c-85-9-101-14-114-34s-13-24 3-42c21-24 57-25 207-9 112 12 128 19 128 55 0 46-38 51-224 30z"/>
    <path d="m505 663c-218-18-290-35-297-72-4-19 48-276 62-308 9-22 48-32 62-17 4 3 71 8 150 10 239 8 232 4 242 149 4 55 9 123 13 151 5 44 2 55-16 73s-32 21-98 19c-43-1-96-3-118-5zm130-180c-4-54-8-99-9-100 0 0-59-6-129-13-70-6-133-13-140-16-9-3-19 27-33 96l-20 101 20 4c33 8 195 22 260 24l58 1z"/>
  </g>
</svg>
