<?xml version="1.0"?>
<svg xmlns="http://www.w3.org/2000/svg" height="200pt" preserveAspectRatio="xMidYMid meet" viewBox="0 0 200 200" width="200pt">
  <g transform="matrix(.1 0 0 -.1 0 200)">
    <path d="m288 1819c-10-5-18-20-18-33 0-25 95-232 111-242 6-3 21-3 35 0 20 5 24 13 24 41 0 42-91 229-115 239-20 7-16 8-37-5z"/>
    <path d="m1334 1789c-55-4-153-15-218-24s-131-13-146-10c-39 9-64-18-55-59 23-115 45-269 51-359 8-119 27-167 66-167 13 0 68 7 123 15s106 15 113 15c9 0 12-28 12-105v-105h-27c-61 0-380-31-414-40-38-11-53-29-43-55 9-23 43-27 145-16 52 5 141 13 197 17l104 7-27-44c-89-142-299-404-381-476-50-45-57-55-48-70 30-49 105-15 191 85 63 74 209 261 261 335l41 59 3-320c3-335 6-352 48-352 39 0 41 17 41 367 0 322 1 337 17 313 62-89 175-233 266-340 174-204 180-210 221-210 21 0 38 6 41 14 6 15-64 105-234 302-106 123-268 341-260 349 3 3 103 8 224 11 120 4 225 11 232 17 23 18 14 57-15 68-28 11-290 6-430-8l-63-6v107 106h108c102 0 108-1 117-22 14-32 56-31 72 2 7 14 13 50 13 80s10 145 22 255 18 213 14 228c-4 17-17 32-32 37-29 11-201 11-350-1zm290-151c-4-40-7-74-8-75 0-1-58-3-128-5-145-3-138-8-138 89 0 32 5 53 13 56 6 3 69 6 140 6l127 1zm-355-35c1-60 14-53-137-75-91-14-93-13-97 7-17 85-25 128-23 130 2 1 57 9 123 16 138 17 132 20 134-78zm327-194c-3-34-6-72-6-84 0-22-5-23-106-30-85-6-108-4-115 6-5 8-9 49-9 92v77h121 122zm-322 5c3-26 6-64 6-85 0-43 0-43-100-54-30-3-69-8-86-11l-31-6-7 82c-4 45-5 85-1 88 7 7 141 29 186 31 24 1 27-3 33-45z"/>
    <path d="m505 1444c-11-1-99-10-195-20-202-20-220-24-220-57 0-52 28-56 230-32 68 8 187 18 263 22 120 5 139 9 148 25 11 21-2 52-27 62-15 6-159 6-199 0z"/>
    <path d="m348 1143c-55-3-70-8-78-23-14-27 4-60 33-61 94-4 304 5 315 13 15 13 16 50 0 66-12 12-103 13-270 5z"/>
    <path d="m438 886c-59-7-113-17-119-23-15-15-8-54 13-66 19-12 270 8 301 24 23 13 22 56-2 69-23 12-47 11-193-4z"/>
    <path d="m550 663c-257-14-340-35-340-87 0-22 45-253 56-288 7-22 50-34 68-19 7 6 15 9 18 6s80 0 172 6c152 11 169 14 181 33 12 20 32 232 28 301-1 16-9 35-19 42-17 12-38 13-164 6zm86-180c-4-54-9-99-10-101-2-1-54-7-117-12-63-6-126-12-140-15-26-6-26-5-46 95-14 72-17 103-9 106 17 6 193 21 265 23l64 1z"/>
  </g>
</svg>
