<?xml version="1.0"?>
<svg xmlns="http://www.w3.org/2000/svg" height="200pt" preserveAspectRatio="xMidYMid meet" viewBox="0 0 200 200" width="200pt">
  <g transform="matrix(.1 0 0 -.1 0 200)">
    <path d="m288 1819c-10-5-18-20-18-33 0-25 95-232 111-242 6-3 21-3 35 0 20 5 24 13 24 41 0 42-91 229-115 239-20 7-16 8-37-5z"/>
    <path d="m1180 1799c-133-14-194-28-208-47-10-12-12-36-8-82 24-289 29-467 18-676-15-280-39-427-93-551-49-117-56-145-35-162 26-21 59-9 78 29 91 188 122 337 140 669 11 204 6 372-19 652l-6 66 129 12c73 7 234 11 369 9l240-3 7-45c4-25 12-175 19-334 9-217 9-330 0-450-6-89-11-241-11-339 0-108-4-177-10-177-5 0-45 29-89 65-77 62-103 75-115 56-15-24 106-164 188-219 57-37 69-39 94-14 17 17 20 48 28 328 19 645 2 1134-41 1200l-15 24-288-1c-158-1-325-6-372-10z"/>
    <path d="m1375 1613c-14-14-16-28-11-83l7-66-68-13c-77-14-93-24-93-57 0-35 26-43 98-31 34 5 64 8 66 6s6-40 9-84l6-80-110-27c-120-29-139-39-139-73 0-45 21-49 132-20 69 17 156 29 263 37 88 6 166 16 173 21 6 5 12 20 12 33 0 38-32 47-141 41-114-6-109-10-109 99v74h68c73 0 92 10 92 47 0 31-28 43-103 43-73 0-77 4-77 75 0 65-38 95-75 58z"/>
    <path d="m505 1444c-11-1-99-10-195-20-202-20-220-24-220-57 0-52 28-56 230-32 68 8 187 18 263 22 120 5 139 9 148 25 11 21-2 52-27 62-15 6-159 6-199 0z"/>
    <path d="m348 1143c-55-3-70-8-78-23-14-27 4-60 33-61 94-4 304 5 315 13 15 13 16 50 0 66-12 12-103 13-270 5z"/>
    <path d="m1495 929c-38-5-98-14-131-20-46-8-67-8-83 0-17 9-24 8-42-10-14-14-19-28-15-42 5-19 17-84 41-234 4-23 16-37 42-53 34-20 43-21 113-11 41 6 114 13 162 17 52 4 92 12 99 20 6 7 12 30 15 51s9 67 14 103c28 191 9 206-215 179zm131-124c-3-25-9-65-12-90-4-25-9-45-13-45s-61-7-126-15c-66-8-120-15-121-15-4 0-26 171-22 176 8 7 192 32 252 33l48 1z"/>
    <path d="m438 886c-59-7-113-17-119-23-15-15-8-54 13-66 19-12 270 8 301 24 23 13 22 56-2 69-23 12-47 11-193-4z"/>
    <path d="m550 663c-257-14-340-35-340-87 0-22 45-253 56-288 7-22 50-34 68-19 7 6 15 9 18 6s80 0 172 6c152 11 169 14 181 33 12 20 32 232 28 301-1 16-9 35-19 42-17 12-38 13-164 6zm86-180c-4-54-9-99-10-101-2-1-54-7-117-12-63-6-126-12-140-15-26-6-26-5-46 95-14 72-17 103-9 106 17 6 193 21 265 23l64 1z"/>
  </g>
</svg>
