<?xml version="1.0"?>
<svg xmlns="http://www.w3.org/2000/svg" height="200pt" preserveAspectRatio="xMidYMid meet" viewBox="0 0 200 200" width="200pt">
  <g transform="matrix(.1 0 0 -.1 0 200)">
    <path d="m288 1819c-10-5-18-20-18-33 0-25 95-232 111-242 6-3 21-3 35 0 20 5 24 13 24 41 0 42-91 229-115 239-20 7-16 8-37-5z"/>
    <path d="m1273 1788c-6-7-13-60-17-118-11-181-59-354-130-464-30-48-66-81-158-148-31-22-14-52 33-56 69-6 176 92 235 215 15 32 29 60 30 62 2 2 15-12 30-30 78-96 223-217 280-233 29-9 70 25 58 46-5 9-45 43-89 75-81 60-192 172-225 225-16 27-16 33 1 116 22 102 26 291 7 310-16 16-43 15-55 0z"/>
    <path d="m1594 1642c-6-4-18-21-27-39-9-17-44-68-78-112-62-83-70-114-31-119 34-5 135 97 173 174 25 51 29 66 20 83-12 21-37 27-57 13z"/>
    <path d="m985 1580c-22-24-13-49 42-122 61-79 145-106 128-40-8 31-110 168-132 176-20 8-17 9-38-14z"/>
    <path d="m505 1444c-11-1-99-10-195-20-202-20-220-24-220-57 0-52 28-56 230-32 68 8 187 18 263 22 120 5 139 9 148 25 11 21-2 52-27 62-15 6-159 6-199 0z"/>
    <path d="m348 1143c-55-3-70-8-78-23-14-27 4-60 33-61 94-4 304 5 315 13 15 13 16 50 0 66-12 12-103 13-270 5z"/>
    <path d="m1282 942c-7-5-24-58-37-118-55-242-101-349-185-427-33-31-60-61-60-65 0-5 9-17 20-27 17-15 23-16 51-5 84 35 144 120 203 285 6 18 9 17 32-13 36-46 127-108 299-203 124-68 158-83 195-83 41-1 45 1 48 25s-7 32-130 99c-274 151-340 197-387 273-18 30-19 36-6 97 20 90 19 156-1 164s-26 7-42-2z"/>
    <path d="m1582 858c-31-29-85-71-119-93-69-44-86-71-57-92 21-15 38-11 113 24 61 29 171 133 171 162 0 20-25 51-41 51-5 0-35-24-67-52z"/>
    <path d="m438 886c-59-7-113-17-119-23-15-15-8-54 13-66 19-12 270 8 301 24 23 13 22 56-2 69-23 12-47 11-193-4z"/>
    <path d="m990 870c-12-23-4-44 43-103 50-65 117-84 117-33 0 23-16 49-69 114-38 47-73 55-91 22z"/>
    <path d="m550 663c-257-14-340-35-340-87 0-22 45-253 56-288 7-22 50-34 68-19 7 6 15 9 18 6s80 0 172 6c152 11 169 14 181 33 12 20 32 232 28 301-1 16-9 35-19 42-17 12-38 13-164 6zm86-180c-4-54-9-99-10-101-2-1-54-7-117-12-63-6-126-12-140-15-26-6-26-5-46 95-14 72-17 103-9 106 17 6 193 21 265 23l64 1z"/>
  </g>
</svg>
