<?xml version="1.0"?>
<svg xmlns="http://www.w3.org/2000/svg" height="200pt" preserveAspectRatio="xMidYMid meet" viewBox="0 0 200 200" width="200pt">
  <g transform="matrix(.1 0 0 -.1 0 200)">
    <path d="m1196 1868c-9-12-16-32-16-43 0-29-73-159-136-242-65-84-170-186-237-228-51-32-66-58-47-80 57-69 304 141 440 376l41 70 52-44c29-24 80-63 115-86 92-62 387-211 417-211 33 0 55 41 35 65-7 9-88 54-179 100s-195 103-231 127c-83 54-172 142-164 162 19 48-60 78-90 34z"/>
    <path d="m288 1819c-10-5-18-20-18-33 0-25 95-232 111-242 6-3 21-3 35 0 20 5 24 13 24 41 0 42-91 229-115 239-20 7-16 8-37-5z"/>
    <path d="m505 1444c-11-1-99-10-195-20-202-20-220-24-220-57 0-52 28-56 230-32 68 8 187 18 263 22 120 5 139 9 148 25 11 21-2 52-27 62-15 6-159 6-199 0z"/>
    <path d="m1435 1360c-198-26-332-49-392-66-49-13-53-17-53-45 0-18 6-32 16-36 8-3 86 6 172 20 86 15 222 34 302 42 122 14 148 19 163 37 21 25 21 32 1 52-19 19-31 19-209-4z"/>
    <path d="m348 1143c-55-3-70-8-78-23-14-27 4-60 33-61 94-4 304 5 315 13 15 13 16 50 0 66-12 12-103 13-270 5z"/>
    <path d="m1511 1049c-96-10-253-30-350-45s-190-27-208-26c-23 1-35-4-43-18-6-12-11-147-13-363-2-361 0-377 42-377 37 0 41 19 41 216v191l61 7c34 3 77 6 95 6h34v-183c0-189 4-207 41-207 10 0 25 7 33 16 13 13 16 46 16 200v184h70 70v-195c0-184 1-195 20-205 30-16 56 3 64 47 3 21 6 111 6 201v162h48c27 0 83 3 124 6 68 6 75 5 80-12 6-23-9-354-16-361-3-3-19 7-37 21-63 53-105 9-52-54 38-45 101-90 128-90 48 0 53 20 64 262 6 124 8 239 5 255s-1 98 6 182c14 196 11 201-88 200-37-1-145-9-241-20zm243-126c-3-32-7-81-10-109l-5-51-61-7c-34-3-88-6-121-6h-60l5 100c3 55 8 103 12 107 7 7 117 19 198 22l47 1zm-337-40c-4-38-7-85-7-105v-38h-70-70v95c0 90 1 95 23 100 36 7 70 12 101 14l29 1zm-231-15c-3-29-6-72-6-94v-42l-67-6c-38-4-83-10-100-13l-33-5v90 91l33 6c70 13 133 23 156 24s24-1 17-51z"/>
    <path d="m438 886c-59-7-113-17-119-23-15-15-8-54 13-66 19-12 270 8 301 24 23 13 22 56-2 69-23 12-47 11-193-4z"/>
    <path d="m550 663c-257-14-340-35-340-87 0-22 45-253 56-288 7-22 50-34 68-19 7 6 15 9 18 6s80 0 172 6c152 11 169 14 181 33 12 20 32 232 28 301-1 16-9 35-19 42-17 12-38 13-164 6zm86-180c-4-54-9-99-10-101-2-1-54-7-117-12-63-6-126-12-140-15-26-6-26-5-46 95-14 72-17 103-9 106 17 6 193 21 265 23l64 1z"/>
  </g>
</svg>
