<?xml version="1.0"?>
<svg xmlns="http://www.w3.org/2000/svg" height="200pt" preserveAspectRatio="xMidYMid meet" viewBox="0 0 200 200" width="200pt">
  <g transform="matrix(.1 0 0 -.1 0 200)">
    <path d="m1239 1919c-7-14-10-55-7-109l4-88-59-6c-33-3-88-6-123-6-63 0-94-15-94-44 0-32 30-39 155-37l125 2v-154-155l-37-6c-21-3-79-10-129-16s-113-17-140-24c-44-11-49-15-52-43-4-43 16-47 125-29 101 17 327 40 343 34 20-6-267-252-462-396-103-76-125-101-106-120 32-32 105 3 258 124l55 44 6-58c4-31 12-181 18-332s13-290 16-307c7-40 39-61 62-41 12 10 64 12 220 10 128-1 211 2 223 8 19 10 20 22 20 213 0 183-7 312-26 525-9 101-15 104-164 92-63-5-148-11-189-13l-74-5 59 52c32 28 98 87 145 132l86 81 78 6c43 4 111 7 150 7 84 0 106 14 87 55-11 24-15 25-116 25h-105l80 103c43 56 94 130 111 163 27 53 30 64 19 78-19 23-47 20-66-6-8-13-44-63-78-112s-92-121-128-160l-65-70-67-4-67-4v154 155l128 7c70 3 140 10 156 14 38 10 55 36 40 60-13 19-62 22-230 10l-101-7-7 97c-4 53-12 102-18 109-16 20-46 15-59-8zm316-1120c5-89 4-124-5-129-6-4-64-10-128-13-64-4-140-10-168-13l-51-6-7 103c-4 57-9 116-12 130l-5 26 153 10c84 5 167 10 184 11l31 2zm15-384v-165l-177 2-178 3-3 152-3 151 108 7c60 3 113 8 118 10 6 2 38 4 73 4l62 1z"/>
    <path d="m288 1819c-10-5-18-20-18-33 0-25 95-232 111-242 6-3 21-3 35 0 20 5 24 13 24 41 0 42-91 229-115 239-20 7-16 8-37-5z"/>
    <path d="m505 1444c-11-1-99-10-195-20-202-20-220-24-220-57 0-52 28-56 230-32 68 8 187 18 263 22 120 5 139 9 148 25 11 21-2 52-27 62-15 6-159 6-199 0z"/>
    <path d="m348 1143c-55-3-70-8-78-23-14-27 4-60 33-61 94-4 304 5 315 13 15 13 16 50 0 66-12 12-103 13-270 5z"/>
    <path d="m438 886c-59-7-113-17-119-23-15-15-8-54 13-66 19-12 270 8 301 24 23 13 22 56-2 69-23 12-47 11-193-4z"/>
    <path d="m550 663c-257-14-340-35-340-87 0-22 45-253 56-288 7-22 50-34 68-19 7 6 15 9 18 6s80 0 172 6c152 11 169 14 181 33 12 20 32 232 28 301-1 16-9 35-19 42-17 12-38 13-164 6zm86-180c-4-54-9-99-10-101-2-1-54-7-117-12-63-6-126-12-140-15-26-6-26-5-46 95-14 72-17 103-9 106 17 6 193 21 265 23l64 1z"/>
  </g>
</svg>
