<?xml version="1.0"?>
<svg xmlns="http://www.w3.org/2000/svg" height="200pt" preserveAspectRatio="xMidYMid meet" viewBox="0 0 200 200" width="200pt">
  <g transform="matrix(.1 0 0 -.1 0 200)">
    <path d="m1406 1828c-10-14-16-44-16-75 0-36-4-53-12-53-7-1-64-7-125-13l-113-13v52c0 52-17 84-44 84-25 0-36-26-36-85v-61l-89-13c-93-13-131-30-131-60 0-43 47-47 198-15 21 4 22 2 22-60v-65l-61-7c-83-9-115-45-68-77 15-11 37-13 80-10l59 6v-77c0-75 0-76-26-76-51 0-219-32-241-46-26-16-31-61-9-70 8-3 57 1 108 10 51 8 134 20 183 26 50 6 105 13 123 16 32 6 32 6 32-33v-40l-117-13c-65-7-123-17-129-22-27-20-26-104 2-364l5-52-46-6c-25-4-68-14-96-22-41-12-49-19-49-38 0-43 21-50 110-33 43 8 82 12 85 9s5-33 6-66c0-34 3-92 8-129 7-68 20-90 51-84 30 5 38 48 31 174l-6 122 35 6c35 5 458 55 473 55 4 0 7-54 7-120s-3-120-6-120-25 11-48 25c-38 22-45 23-55 11-25-30 24-98 100-136 46-24 50-24 75-6 17 13 19 31 24 183l5 168 70-3c39-1 85 0 102 3 39 7 59 36 43 65-10 18-21 20-110 20h-100v181c0 188-5 214-43 228-22 9-203-3-289-18-37-6-48-5-52 6-10 26-6 63 7 63 6 0 93 9 192 20s212 20 252 20c62 0 74 3 83 20 8 14 8 26-1 41-11 21-15 22-178 16-91-3-176-9-188-13-23-6-23-5-23 75v81h80c67 0 83 3 100 20 24 24 25 34 4 54-12 12-37 16-101 16h-86l6 51c4 29 8 54 10 56 3 2 51 6 107 10 81 5 107 10 122 25 22 22 23 32 2 53-14 14-32 15-125 9l-109-7v56c0 80-40 114-74 65zm-16-240c0-13-3-39-6-59l-6-36-110-12c-60-7-111-11-113-9-1 1-5 29-7 60l-5 57 76 6c42 4 81 8 86 10 6 2 27 4 48 4 32 1 37-2 37-21zm-10-257v-78l-106-12c-58-7-107-11-109-9-1 2-5 36-9 76-5 64-4 72 11 73 14 1 168 21 206 28 4 0 7-34 7-78zm240-360v-58l-82-6c-46-4-109-7-140-7-50 0-58 3-58 19 0 10-3 32-6 49l-6 30 98 11c55 6 115 13 134 14 19 2 41 5 48 5 8 2 12-16 12-57zm-370-36c0-49 0-49-117-61l-73-7v50 51l88 9c48 5 90 7 95 5 4-2 7-23 7-47zm360-175c0-33-3-60-7-60-5-1-60-7-123-15-63-7-116-13-117-12 0 1-4 32-8 69l-7 67 68 4c38 1 97 4 132 5l62 2zm-346 8c10-61 12-108 6-108-4 0-44-5-90-11-97-13-100-12-100 73 0 63-5 59 95 71 80 10 84 9 89-25z"/>
    <path d="m288 1819c-10-5-18-20-18-33 0-25 95-232 111-242 6-3 21-3 35 0 20 5 24 13 24 41 0 42-91 229-115 239-20 7-16 8-37-5z"/>
    <path d="m505 1444c-11-1-99-10-195-20-202-20-220-24-220-57 0-52 28-56 230-32 68 8 187 18 263 22 120 5 139 9 148 25 11 21-2 52-27 62-15 6-159 6-199 0z"/>
    <path d="m348 1143c-55-3-70-8-78-23-14-27 4-60 33-61 94-4 304 5 315 13 15 13 16 50 0 66-12 12-103 13-270 5z"/>
    <path d="m438 886c-59-7-113-17-119-23-15-15-8-54 13-66 19-12 270 8 301 24 23 13 22 56-2 69-23 12-47 11-193-4z"/>
    <path d="m550 663c-257-14-340-35-340-87 0-22 45-253 56-288 7-22 50-34 68-19 7 6 15 9 18 6s80 0 172 6c152 11 169 14 181 33 12 20 32 232 28 301-1 16-9 35-19 42-17 12-38 13-164 6zm86-180c-4-54-9-99-10-101-2-1-54-7-117-12-63-6-126-12-140-15-26-6-26-5-46 95-14 72-17 103-9 106 17 6 193 21 265 23l64 1z"/>
  </g>
</svg>
