<?xml version="1.0"?>
<svg xmlns="http://www.w3.org/2000/svg" height="200pt" preserveAspectRatio="xMidYMid meet" viewBox="0 0 200 200" width="200pt">
  <g transform="matrix(.1 0 0 -.1 0 200)">
    <path d="m1002 1858c-5-7-13-24-17-38-13-44-52-114-110-201l-57-84 16-110c14-99 42-584 34-589-2-1-39-11-83-21-73-18-80-22-83-46-6-49 13-52 159-25 109 20 343 56 365 56 3 0 1-7-4-16-19-35-155-142-303-240-168-111-182-124-177-151 6-35 60-28 134 18 129 78 219 142 304 214l85 71-3-160c-2-89-5-162-7-165-2-2-19 6-38 18-67 41-93-10-34-65 76-72 136-94 155-56 5 9 12 135 16 279l7 263 54 81c104 151 130 230 78 237-23 3-30-4-96-108l-42-65-6 230c-4 127-7 260-8 296-2 93-12 105-98 101-37-2-127-13-199-25l-131-22 38 45c52 62 119 193 119 234 0 49-42 76-68 44zm248-405c0-27 3-64 6-83l6-36-162-12c-89-8-163-12-165-10-1 2-5 34-8 71-5 49-3 69 6 72 19 8 249 43 285 44 32 1 32 1 32-46zm10-262v-58l-107-12c-60-6-132-14-161-17l-53-6 3 63 3 64 120 11c66 6 137 12 158 13l37 1zm0-220v-80l-47-6c-27-3-92-13-146-21-54-7-102-14-107-14-6 0-10 37-10 84v84l87 7c48 4 110 11 138 15 92 14 85 19 85-69z"/>
    <path d="m288 1819c-10-5-18-20-18-33 0-25 95-232 111-242 6-3 21-3 35 0 20 5 24 13 24 41 0 42-91 229-115 239-20 7-16 8-37-5z"/>
    <path d="m1720 1759c-11-19-10-79 6-271l5-67-33-5c-18-3-84-12-147-21-118-16-141-25-141-55 0-40 23-44 163-26 73 9 138 16 144 16 8 0 12-134 12-505l1-505-30 15c-53 27-88 16-75-25 8-26 122-120 145-120 10 0 26 8 36 17 16 16 17 46 11 403-4 212-4 462 0 557l6 171 59 6c49 6 61 11 70 31 18 40-4 55-77 55h-62l-10 159c-6 103-14 165-22 175-19 22-48 20-61-5z"/>
    <path d="m505 1444c-11-1-99-10-195-20-202-20-220-24-220-57 0-52 28-56 230-32 68 8 187 18 263 22 120 5 139 9 148 25 11 21-2 52-27 62-15 6-159 6-199 0z"/>
    <path d="m348 1143c-55-3-70-8-78-23-14-27 4-60 33-61 94-4 304 5 315 13 15 13 16 50 0 66-12 12-103 13-270 5z"/>
    <path d="m438 886c-59-7-113-17-119-23-15-15-8-54 13-66 19-12 270 8 301 24 23 13 22 56-2 69-23 12-47 11-193-4z"/>
    <path d="m1482 808c-23-23-12-43 49-96 46-40 68-52 88-50 55 6 35 69-40 124-49 36-77 42-97 22z"/>
    <path d="m550 663c-257-14-340-35-340-87 0-22 45-253 56-288 7-22 50-34 68-19 7 6 15 9 18 6s80 0 172 6c152 11 169 14 181 33 12 20 32 232 28 301-1 16-9 35-19 42-17 12-38 13-164 6zm86-180c-4-54-9-99-10-101-2-1-54-7-117-12-63-6-126-12-140-15-26-6-26-5-46 95-14 72-17 103-9 106 17 6 193 21 265 23l64 1z"/>
  </g>
</svg>
