<?xml version="1.0"?>
<svg xmlns="http://www.w3.org/2000/svg" height="200pt" preserveAspectRatio="xMidYMid meet" viewBox="0 0 200 200" width="200pt">
  <g transform="matrix(.1 0 0 -.1 0 200)">
    <path d="m990 1873c-21-15-22-20-19-152l4-136-110-10c-60-6-116-14-122-18-20-13-15-55 8-67 11-6 37-10 57-8l36 3 38-140c20-77 37-145 38-150 0-6-43-16-97-23-53-7-102-17-110-23-20-17-16-37 11-54 21-14 48-12 317 20 162 19 319 38 349 41s67 7 81 10l26 5 7-98c3-54 15-156 27-228 11-71 22-146 25-165 4-32-4-46-91-155-100-127-112-157-63-163 33-4 81 37 145 124l47 64 39-74c21-41 64-102 95-135 58-62 88-75 111-47 28 34 95 343 84 387-4 14-12 19-27 17-22-3-20 1-81-203l-27-90-25 30c-31 37-81 140-89 181-5 26 5 48 58 135 36 57 67 112 71 122 11 30-10 59-41 55-21-2-36-19-73-81-25-42-48-80-51-82-7-8-48 301-48 362v51l141 7c101 6 144 12 155 22 19 19 18 29-6 53-19 19-29 20-138 15-64-4-123-8-129-10-7-3-13 3-13 13 0 42 31 363 41 421 13 82 6 111-25 111-13 0-28-6-34-13-15-18-38-157-52-314-6-72-15-153-18-180l-7-48-110-12c-61-6-127-14-147-16-46-6-46-9-16 155 25 136 27 138 119 138 62 0 89 13 89 44 0 45-15 48-197 38-92-5-169-9-170-8-2 1-5 49-8 107-3 57-8 119-11 136-6 42-33 58-64 36zm176-381c-11-35-46-227-46-253 0-22-6-28-31-33-76-15-72-19-114 134-21 76-38 143-39 147-1 7 85 17 192 21 38 2 43 0 38-16z"/>
    <path d="m288 1819c-10-5-18-20-18-33 0-25 95-232 111-242 6-3 21-3 35 0 20 5 24 13 24 41 0 42-91 229-115 239-20 7-16 8-37-5z"/>
    <path d="m1757 1553c-14-13-6-52 19-97 40-72 84-92 99-45 7 20-26 102-52 131-16 18-53 24-66 11z"/>
    <path d="m505 1444c-11-1-99-10-195-20-202-20-220-24-220-57 0-52 28-56 230-32 68 8 187 18 263 22 120 5 139 9 148 25 11 21-2 52-27 62-15 6-159 6-199 0z"/>
    <path d="m348 1143c-55-3-70-8-78-23-14-27 4-60 33-61 94-4 304 5 315 13 15 13 16 50 0 66-12 12-103 13-270 5z"/>
    <path d="m1185 1013c-245-16-300-24-319-46-18-21-18-38-13-317 4-162 9-307 13-322 3-15 15-30 25-33 11-4 78-1 151 5 91 8 134 8 142 0 14-14 63-13 72 2 4 6 8 72 9 147s5 226 10 336c7 167 6 202-6 211-20 16-39 20-84 17zm3-180-3-98-65-7c-36-4-91-9-122-13l-58-6v100 99l88 7c48 3 98 7 112 9s31 4 38 5c10 1 12-22 10-96zm-12-239c-3-26-6-82-6-124v-77l-107-6c-76-3-110-2-116 6-4 7-6 62-5 122l3 110 55 6c30 3 84 6 119 7l64 2z"/>
    <path d="m438 886c-59-7-113-17-119-23-15-15-8-54 13-66 19-12 270 8 301 24 23 13 22 56-2 69-23 12-47 11-193-4z"/>
    <path d="m550 663c-257-14-340-35-340-87 0-22 45-253 56-288 7-22 50-34 68-19 7 6 15 9 18 6s80 0 172 6c152 11 169 14 181 33 12 20 32 232 28 301-1 16-9 35-19 42-17 12-38 13-164 6zm86-180c-4-54-9-99-10-101-2-1-54-7-117-12-63-6-126-12-140-15-26-6-26-5-46 95-14 72-17 103-9 106 17 6 193 21 265 23l64 1z"/>
  </g>
</svg>
