<?xml version="1.0"?>
<svg xmlns="http://www.w3.org/2000/svg" height="200pt" preserveAspectRatio="xMidYMid meet" viewBox="0 0 200 200" width="200pt">
  <g transform="matrix(.1 0 0 -.1 0 200)">
    <path d="m680 1966c-6-8-15-36-18-63l-7-48-95-7c-105-7-110-5-110 50 0 46-16 72-45 72-34 0-48-31-40-90l7-47-49-7c-109-16-147-47-106-87 17-17 25-18 69-10 117 23 112 23 119-9 14-64 66-99 95-65 10 13 11 24 1 56-7 23-11 42-9 44 2 1 37 5 78 7l75 5v-46c0-42 2-46 25-46 20 0 30 10 48 46l23 46 82 8c86 7 107 16 107 45 0 34-29 45-106 42l-74-3v41c0 23-5 50-10 61-13 22-43 25-60 5z"/>
    <path d="m1082 1858c-6-18-16-58-23-88-21-97-47-154-89-195-43-42-52-80-21-90 36-11 86 22 135 90 14 19 16 18 68-30 29-28 68-62 85-75l33-25-30-37c-40-49-149-128-237-172-78-39-93-65-52-86 55-30 226 65 343 190l47 50 32-24c18-13 56-38 85-55 59-35 304-141 324-141 19 0 38 20 38 40 0 28-30 47-154 99-119 51-242 118-264 144-10 11-3 34 35 109l48 94 79 8c44 4 86 12 93 18 16 13 17 40 1 56-24 24-312 10-490-23l-34-7 15 75c17 84 9 107-34 107-18 0-26-8-33-32zm308-205c0-8-70-133-75-133-11 0-126 103-120 108 3 4 43 12 88 18 106 15 107 15 107 7z"/>
    <path d="m353 1658c-5-7-17-39-26-70-11-36-39-85-72-129-30-40-55-76-55-80 0-3 7-12 15-19 30-25 89 9 137 78 19 28 100 46 273 61 66 6 135 14 153 17l32 5-5-113c-3-62-8-137-11-165-5-53-6-53-40-53-62 0-51-50 18-86 91-47 109 3 123 332 5 129 4 153-10 164-12 10-52 9-215-9-110-12-213-24-229-27-29-6-29-6-24 35 6 45-8 71-37 71-10 0-22-6-27-12z"/>
    <path d="m557 1425c-81-17-137-35-156-51-11-10-11-23 0-81 14-72 47-120 75-109 8 3 59 13 112 22s103 21 110 26c8 7 12 39 12 93 0 119-13 127-153 100zm73-100c0-26-5-29-92-40-40-5-48-3-48 9 0 9 0 19-1 24 0 4 24 12 53 19 81 17 88 16 88-12z"/>
    <path d="m876 1064c-23-23-20-35 25-103 29-44 47-61 63-61 26 0 46 17 46 40 0 17-62 109-87 128-22 16-28 15-47-4z"/>
    <path d="m875 839c-71-5-249-20-394-33-205-19-267-28-280-40-20-20-6-47 30-56 13-4 146 5 294 18 244 23 319 25 779 26l509 1 11 24c8 19 7 26-11 41-18 14-56 18-255 23-283 8-510 7-683-4z"/>
    <path d="m1055 653c-16-2-93-10-170-19-173-19-223-31-236-56-9-16-7-24 8-40 17-16 25-17 69-8 77 16 334 40 436 41 116 1 142 8 146 37 7 44-12 52-122 51-55-1-114-4-131-6z"/>
    <path d="m1076 499c-177-10-376-38-403-55s-30-52-6-61c9-4 87 1 172 10 86 10 217 20 291 24 74 3 141 10 148 16 6 5 12 20 12 33 0 25-33 46-68 43-9-1-75-5-146-10z"/>
    <path d="m1300 354c-19-2-132-11-250-19-503-36-496-35-504-63-6-19 49-211 64-226 6-6 94-5 247 2 131 7 309 12 396 12 187 0 176-11 167 153-5 99-7 111-29 128-13 10-31 18-40 17-9 0-32-3-51-4zm30-144v-60h-119c-66 0-175-4-243-9-68-6-162-12-210-15l-86-5-16 46c-9 26-14 48-12 50s104 11 227 19 262 19 309 23c47 5 100 9 118 10l32 1z"/>
  </g>
</svg>
