<?xml version="1.0"?>
<svg xmlns="http://www.w3.org/2000/svg" height="200pt" preserveAspectRatio="xMidYMid meet" viewBox="0 0 200 200" width="200pt">
  <g transform="matrix(.1 0 0 -.1 0 200)">
    <path d="m1460 1843c-64-70-78-97-60-118 23-27 50-16 116 49 55 53 65 68 62 92-2 24-8 30-34 32-27 3-38-5-84-55z"/>
    <path d="m940 1866c-23-28-6-60 63-117 75-63 112-78 135-56 21 22 7 50-46 94-26 21-60 50-76 66-32 30-57 34-76 13z"/>
    <path d="m288 1819c-10-5-18-20-18-33 0-25 95-232 111-242 6-3 21-3 35 0 20 5 24 13 24 41 0 42-91 229-115 239-20 7-16 8-37-5z"/>
    <path d="m1500 1689c-36-4-137-15-225-24-161-16-342-48-377-66-23-12-24-55 0-67 11-6 60-2 142 14 69 13 140 23 158 24 32 0 33-1 30-37l-3-38-80-13c-91-15-107-25-103-61l3-26 88 3c85 3 87 2 87-20s-9-25-163-55c-89-17-187-40-217-50-47-15-55-22-58-45-5-46 21-50 139-22 243 58 534 93 772 94 85 0 88 1 99 26 11 23 10 29-12 46-24 19-34 20-185 14-88-3-188-9-222-13-60-5-63-5-63 16 0 19 5 21 63 21 68 0 87 10 87 47 0 29-33 43-101 43h-49v40c0 45-11 42 185 61 66 6 128 16 138 21 24 12 21 44-5 62-24 17-31 18-128 5z"/>
    <path d="m505 1444c-11-1-99-10-195-20-202-20-220-24-220-57 0-52 28-56 230-32 68 8 187 18 263 22 120 5 139 9 148 25 11 21-2 52-27 62-15 6-159 6-199 0z"/>
    <path d="m1562 1188c-22-22-13-48 33-97 54-58 97-80 120-61 29 24 16 53-47 112-62 58-84 68-106 46z"/>
    <path d="m986 1138c-9-12-16-30-16-39 0-32-31-89-76-140-27-31-43-57-40-66 3-8 6-17 6-19 0-14 59 0 87 22l33 25v-25c0-13 2-31 5-39 5-11-13-18-76-30-94-19-111-30-107-66 3-23 7-26 43-26 22 1 63 4 92 9l52 8 5-34c3-18 7-65 8-104l4-72-56-33c-115-69-151-100-148-127 6-50 30-49 114 5 44 27 85 53 92 57 9 5 12-13 12-79 0-84 0-86-21-74-17 9-25 8-37-5-15-15-15-19 3-52 25-46 72-86 99-82 40 6 47 42 43 201l-4 147 49 49c74 74 55 123-28 72l-32-19-7 80c-3 44-4 82-2 84 7 7 257 38 262 32 3-2 12-42 21-89 8-46 33-125 56-176 22-51 37-97 33-102-12-21-99-65-148-76-94-21-84-75 14-75 36 0 67 10 124 39 72 38 76 39 86 20 34-65 262-174 314-151 26 12 47 69 67 183 13 73 8 99-20 99-20 0-44-46-72-135-7-22-14-43-17-47-12-22-171 65-200 109-14 21-12 26 37 80 107 120 157 238 112 262-32 17-47 5-81-64-29-59-113-165-130-165-26 0-116 278-97 297 3 4 54 10 113 15 60 5 136 11 171 14 65 6 92 22 92 54 0 34-29 40-161 30-68-5-147-12-175-16l-51-6-9 117c-7 95-12 120-27 129-12 8-22 8-35 0-14-9-17-30-20-133-1-66-6-121-10-121s-56-7-117-15c-60-8-117-15-126-15-12 0-18 20-27 89-7 48-9 108-6 133 5 34 2 48-11 61-22 23-41 21-59-5z"/>
    <path d="m348 1143c-55-3-70-8-78-23-14-27 4-60 33-61 94-4 304 5 315 13 15 13 16 50 0 66-12 12-103 13-270 5z"/>
    <path d="m438 886c-59-7-113-17-119-23-15-15-8-54 13-66 19-12 270 8 301 24 23 13 22 56-2 69-23 12-47 11-193-4z"/>
    <path d="m550 663c-257-14-340-35-340-87 0-22 45-253 56-288 7-22 50-34 68-19 7 6 15 9 18 6s80 0 172 6c152 11 169 14 181 33 12 20 32 232 28 301-1 16-9 35-19 42-17 12-38 13-164 6zm86-180c-4-54-9-99-10-101-2-1-54-7-117-12-63-6-126-12-140-15-26-6-26-5-46 95-14 72-17 103-9 106 17 6 193 21 265 23l64 1z"/>
  </g>
</svg>
