<?xml version="1.0"?>
<svg xmlns="http://www.w3.org/2000/svg" height="200pt" preserveAspectRatio="xMidYMid meet" viewBox="0 0 200 200" width="200pt">
  <g transform="matrix(.1 0 0 -.1 0 200)">
    <path d="m1461 1926c-6-7-16-40-22-72-6-33-14-63-19-67-7-8-257-36-321-37-21 0-29 8-44 43-35 79-62 96-90 54-13-21-14-29-1-65l15-41-27-5c-15-3-57-8-94-12-78-7-107-28-88-63 12-24 56-27 179-11l75 10 28-34c29-35 65-49 92-34 20 11 21 32 1 48-8 7-15 16-15 20s44 11 98 14c53 4 111 10 129 13l32 5-19-51c-21-54-18-81 9-81 30 0 58 28 85 85l26 55 52 1c92 1 139 12 155 36 13 19 12 24-5 41-18 18-29 20-101 15l-80-6 9 34c14 49 12 85-6 103-19 20-38 20-53 2z"/>
    <path d="m288 1819c-10-5-18-20-18-33 0-25 95-232 111-242 6-3 21-3 35 0 20 5 24 13 24 41 0 42-91 229-115 239-20 7-16 8-37-5z"/>
    <path d="m1039 1560c-9-5-20-22-24-37-9-39-48-89-122-157-46-42-63-64-61-80 4-27 37-32 77-11l31 16v-73c0-40 5-127 10-193 10-117 11-121 42-148 26-23 38-27 65-22 71 13 198 24 413 36 124 6 231 16 238 22 19 15 14 55-9 68-20 10-55 10-296-7l-83-6v45 44l158 18c160 18 202 31 202 64 0 42-22 46-173 28-184-22-197-22-197 2 0 11 3 22 8 24 4 3 70 11 147 17 77 7 146 17 153 23 19 15 14 45-10 61-19 11-42 12-122 5-55-4-119-11-143-15l-44-6 3 33c4 39-2 37 223 63 75 9 146 21 156 27 26 13 25 55-2 69-11 6-32 9-47 6s-72-11-127-16c-55-6-115-13-134-16-33-7-33-6-26 24 8 38 0 68-21 76-28 11-52-13-69-68-19-60-10-55-134-76-34-6-65-9-67-7-3 2 7 24 21 48 30 54 33 104 6 119-23 12-22 12-42 0zm181-276c0-17-10-22-65-32-36-7-78-15-94-18-27-6-29-4-33 29l-4 35 91 14c95 14 105 11 105-28zm10-127c0-22-6-24-100-38-95-14-100-14-100 3 0 10 10 20 23 23 49 12 153 33 165 34 6 1 12-9 12-22zm0-150v-44l-87-10c-49-6-91-9-95-6-5 2-8 19-8 38 0 39-17 33 183 64 4 0 7-19 7-42z"/>
    <path d="m505 1444c-11-1-99-10-195-20-202-20-220-24-220-57 0-52 28-56 230-32 68 8 187 18 263 22 120 5 139 9 148 25 11 21-2 52-27 62-15 6-159 6-199 0z"/>
    <path d="m348 1143c-55-3-70-8-78-23-14-27 4-60 33-61 94-4 304 5 315 13 15 13 16 50 0 66-12 12-103 13-270 5z"/>
    <path d="m438 886c-59-7-113-17-119-23-15-15-8-54 13-66 19-12 270 8 301 24 23 13 22 56-2 69-23 12-47 11-193-4z"/>
    <path d="m1365 809c-44-4-122-15-173-24s-97-13-103-9c-16 9-39-16-39-43 0-33 28-71 124-171l81-84-35-30c-83-71-176-128-275-168-90-37-105-47-103-64 7-48 158-24 273 43 28 16 86 58 130 94l80 65 38-32c131-109 227-174 344-233 120-61 134-66 158-55 20 9 26 18 23 39-3 23-19 35-125 89-128 65-220 125-315 206l-57 49 59 75c61 76 120 186 120 223 0 41-41 47-205 30zm89-91c-20-36-95-136-116-155l-24-23-74 75c-41 41-72 77-69 80 7 6 201 33 252 34 28 1 36-2 31-11z"/>
    <path d="m550 663c-257-14-340-35-340-87 0-22 45-253 56-288 7-22 50-34 68-19 7 6 15 9 18 6s80 0 172 6c152 11 169 14 181 33 12 20 32 232 28 301-1 16-9 35-19 42-17 12-38 13-164 6zm86-180c-4-54-9-99-10-101-2-1-54-7-117-12-63-6-126-12-140-15-26-6-26-5-46 95-14 72-17 103-9 106 17 6 193 21 265 23l64 1z"/>
  </g>
</svg>
