<?xml version="1.0"?>
<svg xmlns="http://www.w3.org/2000/svg" height="200pt" preserveAspectRatio="xMidYMid meet" viewBox="0 0 200 200" width="200pt">
  <g transform="matrix(.1 0 0 -.1 0 200)">
    <path d="m663 1811c-10-10-38-55-62-100-49-90-128-188-264-326-96-98-108-127-52-133 44-4 84 27 204 158 110 122 177 216 217 306 29 66 30 90 5 104-26 13-28 13-48-9z"/>
    <path d="m1148 1775c-9-21-7-31 17-67 37-55 192-210 273-272 34-26 104-72 154-102 100-59 149-69 168-35 14 28-9 51-115 111-49 28-121 75-160 105-63 48-205 188-262 258-29 34-60 35-75 2z"/>
    <path d="m896 1423c-4-4-35-66-70-138-131-272-271-431-542-610-104-69-115-79-112-103 3-23 8-27 38-30 28-2 52 8 125 56 255 166 426 350 546 587l45 91 34-48c48-71 234-245 326-306 121-81 451-244 495-246 38-1 69 17 69 40 0 8-91 59-212 120-117 58-251 131-297 162-150 99-361 322-361 382 0 36-60 67-84 43z"/>
    <path d="m935 743c-92-8-322-34-348-39-42-9-48-38-32-146 8-51 19-151 25-223 19-209 19-210 150-195 41 5 202 9 356 10 236 0 284 2 294 15 7 9 18 84 26 182 7 93 18 206 24 253 13 111 13 116-6 134-13 14-47 16-232 14-119-1-235-3-257-5zm401-135c-3-29-11-124-18-210l-12-158h-236c-130 0-271-3-312-6l-74-7-18 159c-10 88-20 176-23 196-4 33-2 38 18 43 57 13 349 33 508 34l174 1z"/>
  </g>
</svg>
