<?xml version="1.0"?>
<svg xmlns="http://www.w3.org/2000/svg" height="200pt" preserveAspectRatio="xMidYMid meet" viewBox="0 0 200 200" width="200pt">
  <g transform="matrix(.1 0 0 -.1 0 200)">
    <path d="m1280 1790c-269-10-704-42-718-53-21-17-14-56 13-69 24-11 88-8 555 22 80 5 200 10 268 10 109 0 124 2 142 20 11 11 20 25 20 30 0 23-41 50-72 48-18-1-112-5-208-8z"/>
    <path d="m985 1469c-49-4-142-7-206-8-167-1-162 9-124-231 8-52 15-132 15-177 0-81 0-83 27-89 42-11 669 3 692 15 22 12 28 38 60 266 24 172 26 206 9 223-13 13-315 14-473 1zm374-196c-10-65-21-139-24-164l-6-46-142-6c-78-4-205-7-283-7h-141l-6 90c-6 78-12 120-32 208-5 22-3 22 87 23 51 1 136 5 188 9 52 3 158 7 236 8l140 2z"/>
    <path d="m1323 708c-4-7-35-75-70-151-34-76-77-159-95-185l-34-47-82-5c-77-5-82-4-82 15 0 11-25 56-55 100s-68 111-83 149c-31 77-52 97-79 80-46-30 18-209 110-307 37-40 40-47 23-47-96-1-435-22-488-31-72-12-91-25-86-61 4-28 7-28 348-9 124 7 435 15 692 18 442 5 468 6 484 24 14 16 15 24 6 44l-12 25h-192c-106 0-236 3-288 6l-96 7 48 95c75 149 111 249 98 272-12 22-54 27-67 8z"/>
  </g>
</svg>
