<?xml version="1.0"?>
<svg xmlns="http://www.w3.org/2000/svg" height="200pt" preserveAspectRatio="xMidYMid meet" viewBox="0 0 200 200" width="200pt">
  <g transform="matrix(.1 0 0 -.1 0 200)">
    <path d="m1090 1951c-5-11-10-51-10-89v-69l-120-7c-66-4-124-5-129-2-4 3-12 34-15 68-11 96-42 131-81 91-14-13-16-27-10-72 3-31 8-64 11-73 5-17-6-18-128-18-159 0-206-7-218-30-7-13 3-65 34-183 24-91 47-190 51-221 10-79 23-89 104-83 36 3 236 10 445 17 274 9 381 9 389 1 16-16 52-14 67 4 6 8 15 43 20 77 4 35 25 124 45 198 51 179 53 205 24 220-13 8-93 14-210 18l-189 5v64c0 76-12 103-45 103-14 0-29-8-35-19zm367-247 30-6-15-59-16-59h-138-138v65 65h124c68 0 137-3 153-6zm-367-64v-60h-33c-19 0-75-3-125-6l-92-7v67 66h125 125zm-340-10v-60h-118-118l-16 60-16 60h134 134zm340-200v-60h-120-120v54 55l38 4c20 2 74 4 120 5l82 2zm336 44c-3-9-9-33-12-55l-7-39h-113-114v55 55h126c111 0 125-2 120-16zm-666-53v-58l-90-7c-50-4-94-4-99-2-5 3-12 27-16 52-3 26-9 53-12 60-4 11 16 14 106 14h111z"/>
    <path d="m1155 1120c-93-5-244-16-335-25s-212-20-269-26c-111-10-134-20-129-52 6-41 25-43 285-19 303 28 652 46 755 39 57-4 82-1 97 10 24 16 27 45 8 61s-218 22-412 12z"/>
    <path d="m1055 934c-252-20-332-32-380-53-55-24-56-37-20-161 14-48 23-96 20-111-11-48 9-53 169-40 79 6 223 11 321 11 102 0 184 4 196 10 23 13 25 47 3 71-15 17-15 25 5 103 27 109 28 162 2 176-25 13-111 11-316-6zm240-104c-4-17-14-58-23-93l-17-62-150-6c-83-3-193-9-245-13l-95-8-19 69c-10 37-21 75-23 84-4 14 6 18 48 24 86 12 358 32 447 34l84 1z"/>
    <path d="m1313 512c-9-5-144-226-155-252-2-4-53-10-115-13-102-5-113-4-118 12-7 24-193 201-210 201-14 0-45-26-45-38 0-18 46-72 106-127l67-61-299-33c-164-18-307-38-316-43-23-11-23-55 0-67 11-6 124 3 327 25 380 41 539 52 883 60 194 5 287 3 340-6 84-14 117-9 125 21 17 63-105 85-431 75l-223-6 24 33c39 51 97 162 97 183 0 34-30 53-57 36z"/>
  </g>
</svg>
