<?xml version="1.0"?>
<svg xmlns="http://www.w3.org/2000/svg" height="200pt" preserveAspectRatio="xMidYMid meet" viewBox="0 0 200 200" width="200pt">
  <g transform="matrix(.1 0 0 -.1 0 200)">
    <path d="m630 1858c-5-13-11-35-14-49-7-31-94-166-125-194-34-30-51-67-40-88 14-25 53-21 89 9 35 30 108 130 138 190l21 41 161 12c89 7 164 11 166 8 8-8-113-170-197-264-13-14-36-23-72-27-253-30-257-32-257-79 0-49 41-311 50-320 4-5 70-8 146-8 78 1 134-2 129-7-40-34-202-157-254-192-53-36-301-160-363-183-27-10-22-46 7-59 19-8 35-8 67 1 79 24 267 119 357 181l90 62 36-29 36-28-68-65c-73-69-137-110-328-210-137-71-138-71-130-93 10-25 35-29 93-11 130 37 345 164 435 256 54 56 60 59 76 44 32-29 63-103 52-124-17-31-133-135-221-197-86-61-240-145-265-145-7 0-17-10-21-22-9-31 21-51 66-43 91 15 326 161 437 272l42 41 8-46c9-57 9-269 0-279-4-3-38 15-76 41-69 48-103 55-109 24-8-42 152-168 213-168 48 0 60 22 66 127 6 94-4 294-17 327-3 8 56-23 133-70 204-126 301-171 413-193 156-31 205-35 224-16 12 12 13 21 6 35-12 23-46 34-180 60-64 12-132 33-178 55-74 35-242 131-295 167l-28 20 58 27c103 49 311 219 367 299 23 33 26 44 16 61-18 34-54 26-92-19-73-90-344-291-411-306-34-7-72 24-112 92-25 43-107 122-155 151l-27 16 68 59c38 32 73 67 79 78 10 19 22 20 203 20 245 0 240-2 249 107 4 46 16 116 27 158 28 99 27 121-4 141-23 15-50 16-252 9-254-8-238-13-172 60 44 48 169 237 169 255 0 9-9 25-20 35-17 16-32 17-147 10-70-4-162-11-203-15-61-7-77-6-86 6-18 23-63 18-74-8zm706-443c-6-17-34-157-38-195l-3-25-151-3c-177-3-164-14-164 135v92l98 4c256 8 264 8 258-8zm-436-114c0-128 15-116-161-127l-115-7-18 108c-9 59-16 108-14 110 6 6 172 22 241 24l67 1z"/>
  </g>
</svg>
