<?xml version="1.0"?>
<svg xmlns="http://www.w3.org/2000/svg" height="200pt" preserveAspectRatio="xMidYMid meet" viewBox="0 0 200 200" width="200pt">
  <g transform="matrix(.1 0 0 -.1 0 200)">
    <path d="m1105 1954c-175-11-336-27-440-44-66-11-133-21-149-22-46-5-56-31-40-113 23-124 43-325 54-540 10-214 30-439 52-598 9-69 16-91 31-99 13-7 112-5 321 6 165 9 349 17 408 18 143 4 153 12 162 141 4 51 16 151 27 222 10 72 24 213 29 315 6 102 20 272 31 377 23 230 24 293 5 319-13 18-29 19-228 20-117 0-235-1-263-2zm412-156c-4-40-12-120-18-177l-12-104-136 7c-124 5-392-3-646-20l-100-7-19 129c-28 194-33 176 49 190 175 31 426 49 714 52l174 2zm-113-365 77-6-6-96c-3-53-8-133-11-178l-6-83h-100c-54 0-208-7-341-15s-274-16-313-17l-72-3-6 65c-3 36-8 120-12 187l-7 121 64 7c201 20 592 30 733 18zm31-533c-7-47-16-121-20-166l-7-81-159-6c-88-4-249-12-359-19-126-7-203-8-209-2-9 8-46 313-39 319 6 6 690 40 804 40 1 0-4-38-11-85z"/>
    <path d="m565 305c-143-179-168-227-129-242 36-13 68 17 200 187 104 135 134 180 132 200s-9 26-33 28c-28 3-40-9-170-173z"/>
    <path d="m1282 458c-31-31 10-80 125-147 138-81 271-166 313-201 68-56 83-62 108-44 32 22 27 47-19 89-48 43-240 170-314 208-27 14-77 44-110 66-63 43-83 49-103 29z"/>
  </g>
</svg>
