<?xml version="1.0"?>
<svg xmlns="http://www.w3.org/2000/svg" height="200pt" preserveAspectRatio="xMidYMid meet" viewBox="0 0 200 200" width="200pt">
  <g transform="matrix(.1 0 0 -.1 0 200)">
    <path d="m1080 1819c-74-5-184-10-245-11l-110-3-47-95c-26-52-70-123-97-158-55-66-63-97-31-107 48-15 141 80 200 206l30 66 197 7c108 3 198 4 201 2 9-9-85-109-182-193l-98-85-112-10c-64-6-117-16-125-24-21-20-18-814 4-830 10-7 125-10 372-7 339 3 359 5 374 23 14 16 17 68 23 387 3 202 9 387 12 410 5 34 2 45-17 64-22 22-25 22-185 15-90-3-171-9-181-13-10-3 2 10 27 29 55 43 146 146 189 212 50 80 37 128-36 125-15-1-89-6-163-10zm270-481c0-102 15-94-203-101-106-3-239-13-296-22s-105-14-108-11-8 34-10 69l-6 65 29 6c16 3 90 10 164 17 74 6 173 15 220 19s113 8 148 9l62 1zm-10-283v-105h-142c-79 0-183-5-233-10-49-5-120-13-157-16l-68-7v95 96l33 5c101 18 222 30 377 36 96 5 178 9 183 9 4 1 7-45 7-103zm0-287v-103h-300-300v86 86l118 8c64 4 198 11 297 14 99 4 181 8 183 9 1 1 2-44 2-100z"/>
    <path d="m725 391c-20-38-68-108-105-155-87-108-94-120-80-146 15-28 54-25 85 7 88 93 205 276 205 321 0 24-19 42-46 42-18 0-31-15-59-69z"/>
    <path d="m1246 414c-9-8-16-23-16-32 0-28 101-115 223-191 106-65 121-72 143-62 16 7 24 19 24 35 0 28-19 44-153 127-48 30-110 73-137 97-53 47-61 49-84 26z"/>
  </g>
</svg>
