<?xml version="1.0"?>
<svg xmlns="http://www.w3.org/2000/svg" height="200pt" preserveAspectRatio="xMidYMid meet" viewBox="0 0 200 200" width="200pt">
  <g transform="matrix(.1 0 0 -.1 0 200)">
    <path d="m694 1862c-6-4-22-27-34-52-38-74-201-227-303-284-79-44-88-51-85-75 4-37 44-39 114-7 198 91 424 358 349 412-21 16-26 17-41 6z"/>
    <path d="m1002 1848c-50-50 39-116 254-191 130-45 397-125 455-135 58-11 89 0 89 31s-13 41-75 56c-95 23-420 123-495 152-42 16-102 45-134 64-64 38-76 41-94 23z"/>
    <path d="m874 1580c-104-9-196-20-202-24-17-10-15-51 3-66 10-8 37-11 80-8 36 2 65 2 65 0 0-9-44-77-73-115-17-21-66-68-111-104-89-72-99-84-90-107 11-30 39-36 72-18 103 56 223 187 291 318l21 41 92 7c50 3 106 6 125 6h33v-52c0-51-22-163-33-175-4-3-25 4-48 16-46 24-69 22-69-7 0-31 40-73 94-98 66-31 83-20 115 72 32 93 42 271 17 309-16 24-21 25-104 24-48-1-173-9-278-19z"/>
    <path d="m1015 1130c-49-5-152-13-229-19-76-7-148-16-159-22-18-10-19-18-14-88 4-42 13-119 22-171 8-52 15-154 15-225 0-147 8-170 63-180 18-3 148-2 289 2 239 7 259 9 276 28 16 17 21 48 31 185 6 91 18 208 26 260 21 139 20 217-4 230-22 11-179 11-316 0zm245-94c0-7-3-33-6-58l-6-45-97-6c-53-4-170-14-261-22-90-8-167-11-171-7s-10 32-14 63l-7 55 184 16c249 21 378 22 378 4zm-30-218c0-13-3-39-6-59l-6-36-147-7c-80-3-186-11-235-16-49-6-90-9-91-8-1 2-6 29-9 61l-7 57 68 1c37 1 120 7 183 14 63 6 145 13 183 14 63 1 67 0 67-21zm-20-243v-55h-98c-55 0-160-3-235-7l-137-6v46c0 40 3 47 23 52 36 8 235 22 345 24l102 1z"/>
    <path d="m611 316c-27-24-71-58-98-76-71-49-93-71-93-96 0-13 9-28 21-34 17-10 31-5 87 28 90 54 192 147 192 176 0 27-18 46-42 46-9 0-40-20-67-44z"/>
    <path d="m1296 324c-20-19-20-24-1-51 13-19 201-130 248-146 46-17 77 43 40 75-19 16-252 138-264 138-4 0-15-7-23-16z"/>
  </g>
</svg>
