<?xml version="1.0"?>
<svg xmlns="http://www.w3.org/2000/svg" height="200pt" preserveAspectRatio="xMidYMid meet" viewBox="0 0 200 200" width="200pt">
  <g transform="matrix(.1 0 0 -.1 0 200)">
    <path d="m622 1864c-77-130-152-198-322-289-61-33-118-68-127-77-17-19-11-45 12-55 36-13 278 108 348 174l27 27v-196c0-179 2-196 19-212 15-14 24-15 40-6 19 10 21 20 22 133 3 336 6 367 41 433 28 54 31 65 20 88-18 41-48 33-80-20z"/>
    <path d="m946 1867c-17-13-18-26-13-143 2-71 13-178 23-239 26-166 54-185 269-185 66 0 192 9 280 20s160 20 162 20c1 0 9 7 17 16 41 40-6 166-51 138-10-6-19-24-21-41l-3-30-117-14c-139-17-406-19-422-3-7 7-40 153-40 180 0 1 12 5 28 9 54 13 329 126 397 163 61 34 70 42 70 67 0 51-26 54-112 11s-385-167-391-162c-1 2-6 43-9 91-7 106-25 132-67 102z"/>
    <path d="m1140 1213c-112-8-420-44-468-55-29-6-57-17-63-24-14-17-14-129 1-298 29-356 33-386 46-397 10-8 49-10 132-5 64 3 210 9 325 13 127 3 213 10 222 17 14 10 16 60 16 369 1 270-2 361-11 372-12 15-77 17-200 8zm122-155c-2-40-5-74-6-74-1-2-474-26-536-28l-35-1-3 61-3 61 153 17c238 27 308 33 374 35l61 1zm-2-231v-64l-187-7c-104-4-226-13-273-20s-87-11-90-9c-2 2-6 35-8 74l-4 69 33 1c19 1 99 5 179 9 80 3 191 7 248 8l102 2zm0-220v-64l-172-7c-95-3-216-11-268-16s-95-8-96-7-5 30-9 63l-7 62 104 12c56 6 110 13 118 15 8 1 86 3 173 4l157 1z"/>
    <path d="m1220 366c-23-29-7-59 55-99 189-124 311-197 330-197 27 0 48 23 43 47-4 19-76 70-228 161-52 31-110 66-129 79-39 27-54 29-71 9z"/>
    <path d="m569 262c-59-37-127-79-153-94-51-30-65-52-49-77 25-40 72-22 246 92 110 73 133 101 107 132-20 24-40 18-151-53z"/>
  </g>
</svg>
