<?xml version="1.0"?>
<svg xmlns="http://www.w3.org/2000/svg" height="200pt" preserveAspectRatio="xMidYMid meet" viewBox="0 0 200 200" width="200pt">
  <g transform="matrix(.1 0 0 -.1 0 200)">
    <path d="m877 1922c-12-13-17-37-17-83v-65l-157-19c-169-19-193-26-193-53 0-46 42-51 235-27 65 8 120 14 121 12 0-1 4-34 8-73l6-72-88-12c-95-13-132-30-132-60 0-33 33-43 110-31 123 19 120 21 120-53v-64l-37-6c-21-3-67-8-103-11-84-8-490-64-512-71s-33-41-18-59c17-20 56-19 265 10 310 43 523 58 810 59 190 1 293-3 347-13 88-16 111-7 106 38-2 20-12 29-43 39-73 24-262 34-497 27l-228-6v70 71h33c17 0 99 5 182 11 167 11 187 19 167 64-11 24-15 25-99 25-49-1-133-5-188-9-55-5-102-7-104-5s-6 34-9 73l-5 69 53 7c28 4 135 12 237 19 158 9 187 14 197 29 8 12 8 22 0 35-10 15-29 17-160 17-82 0-190-4-240-8l-91-9-6 61c-7 86-34 113-70 73z"/>
    <path d="m1155 1143c-81-7-313-34-433-50-170-22-164-4-118-311 19-130 38-265 42-299 3-34 15-76 26-94l19-32 117 7c64 3 187 6 272 7 235 2 299 8 311 30 6 13 6 26-1 39-8 15-8 102 0 313 6 161 13 306 16 324 5 23 1 36-15 52-18 18-32 21-108 19-49-1-106-3-128-5zm151-155c-4-40-10-76-14-80-4-3-68-11-142-18-74-6-208-20-298-32-89-11-164-19-167-17-7 7-27 150-22 155 12 12 461 61 571 63l79 1zm-16-226v-59l-147-6c-125-5-356-35-415-53-13-4-17 5-23 47-5 34-3 54 4 58 11 7 300 42 486 60 50 4 91 9 93 10 1 0 2-25 2-57zm0-227v-75l-192-1c-106 0-229-4-273-8s-81-7-83-5c-2 1-6 27-9 57l-6 56 38 7c151 28 279 42 393 43l132 1z"/>
    <path d="m1398 289c-10-5-18-20-18-33 0-20 23-35 161-105 172-87 211-97 217-53 5 36-16 53-165 124-158 76-171 81-195 67z"/>
    <path d="m583 237c-39-23-85-50-102-59-22-12-31-24-31-42 0-54 50-50 161 13 77 43 101 67 97 99-5 42-42 38-125-11z"/>
  </g>
</svg>
