<?xml version="1.0"?>
<svg xmlns="http://www.w3.org/2000/svg" height="200pt" preserveAspectRatio="xMidYMid meet" viewBox="0 0 200 200" width="200pt">
  <g transform="matrix(.1 0 0 -.1 0 200)">
    <path d="m1292 1908c-7-7-12-37-12-69 0-31-3-83-6-116l-7-60-106-22c-58-12-139-33-179-47-40-13-81-24-91-24-38 0-45-25-33-108 7-42 15-114 19-159 7-98 25-124 70-104l26 12-8 102c-15 191-18 177 45 199 141 48 508 98 727 98h82l-35-73c-35-74-37-107-6-107 24 0 89 75 122 140 56 112 40 130-118 130-104 0-333-14-394-25l-28-4v112c0 115-6 137-40 137-9 0-21-5-28-12z"/>
    <path d="m451 1834c-150-20-243-42-260-59-13-13-17-67-23-318-12-475-8-935 8-948 10-8 58-8 177 0 89 6 201 11 247 11 59 1 96 6 120 18l35 17v450c0 303 5 509 14 629l15 179-23 18c-19 16-39 19-115 18-50-1-138-7-195-15zm235-116c-3-24-8-88-11-143s-8-119-11-142l-5-43h-57c-31 0-115-7-187-15s-136-15-143-15c-10 0-12 39-10 177l3 177 30 7c57 15 240 37 319 38l78 1zm-26-596v-179l-158-6c-87-4-180-10-205-13l-47-7v172c0 128 3 173 13 176 24 9 254 33 325 34l72 1zm4-318c3-26 6-79 6-119v-72l-165-7c-91-3-185-9-209-12l-44-6-1 120v121l52 5c75 9 138 12 253 14l101 2z"/>
    <path d="m1610 1403c-233-25-497-66-512-80-23-21-23-36 1-57 18-16 27-16 142-1 68 9 134 18 147 21 21 4 22 2 22-63 0-38 5-129 11-203 10-124 28-720 21-720-1 0-43 20-92 45-93 47-114 52-125 34-15-24 7-58 62-95 32-21 84-55 116-77 63-42 103-50 123-23 15 22 9 427-12 757-8 125-14 256-14 292v65l38 6c20 3 73 8 117 12 85 7 105 15 105 45 0 44-37 54-150 42z"/>
    <path d="m211 289c-39-78-71-152-71-165 0-31 42-53 64-35 18 15 146 273 146 294s-27 47-50 47c-14 0-36-35-89-141z"/>
    <path d="m646 414c-9-8-16-21-16-28 0-20 237-215 323-266 43-26 77-14 77 25 0 19-25 43-122 117-67 51-144 110-171 131-54 41-68 44-91 21z"/>
  </g>
</svg>
