<?xml version="1.0"?>
<svg xmlns="http://www.w3.org/2000/svg" height="200pt" preserveAspectRatio="xMidYMid meet" viewBox="0 0 200 200" width="200pt">
  <g transform="matrix(.1 0 0 -.1 0 200)">
    <path d="m920 1945c-8-9-13-43-12-85 0-59-3-70-16-70-10 0-77-7-151-15-91-10-138-12-145-5-18 18-64 12-71-9-3-11 6-81 20-157 14-75 25-147 25-159 0-23 28-55 48-55 6 0 19 8 29 19 15 15 40 20 145 25l127 7 6-33c3-18 5-50 3-70-4-45 24-39-308-68-414-37-461-43-474-62-8-13-8-23 0-35 16-25 106-22 467 11 260 23 330 26 735 26 335 0 451 3 460 12 17 17 15 42-6 61-17 15-59 17-405 17h-387v70 70h174c127 0 176 3 183 13 6 6 13 42 16 78 3 37 15 104 27 149 11 45 18 90 15 100-13 42-93 47-367 24l-68-6v62c0 34-5 70-10 81-13 23-43 25-60 4zm410-219c0-2-6-31-14-63s-17-75-21-95l-6-38h-138-138l-7 86c-3 48-4 90 0 93 11 12 324 28 324 17zm-410-111c0-60-4-87-12-90-7-2-68-5-135-8l-122-4-11 56c-6 31-13 68-16 82l-5 27 93 9c51 6 119 11 151 12l57 1z"/>
    <path d="m985 1154c-11-1-87-8-168-15-177-14-182-17-173-98 21-190 36-393 36-503 0-119 1-128 21-138 15-9 72-8 222 4 111 8 250 14 308 13 155-3 144-22 152 281 4 136 10 289 13 338 9 129 17 124-209 123-100-1-191-3-202-5zm321-130c-3-26-6-52-6-59 0-8-48-14-172-18-95-4-221-10-279-13l-106-7-7 57c-4 32-6 59-4 61 9 10 223 22 392 24l189 1zm-6-186c0-18-3-50-6-70l-7-38h-111c-61 0-178-5-260-10-82-6-150-9-151-8-2 2-6 31-10 65l-7 62 34 5c28 5 300 19 471 24 47 2 47 2 47-30zm-10-262v-73l-202-7c-112-3-229-9-260-12l-58-6v76 76l63 1c34 1 116 5 182 9 66 3 155 7 198 8l77 2z"/>
    <path d="m1294 286c-3-8-4-22-2-32 5-28 323-214 366-214 46 0 56 53 15 76-16 8-68 38-118 66-216 124-248 137-261 104z"/>
    <path d="m575 200c-105-95-118-114-103-143 17-32 55-20 121 40 150 136 148 134 145 162-2 21-9 27-33 29-25 2-45-12-130-88z"/>
  </g>
</svg>
