<?xml version="1.0"?>
<svg xmlns="http://www.w3.org/2000/svg" height="200pt" preserveAspectRatio="xMidYMid meet" viewBox="0 0 200 200" width="200pt">
  <g transform="matrix(.1 0 0 -.1 0 200)">
    <path d="m815 1870c-93-4-250-11-348-15-134-6-182-11-193-22-19-19-18-66 6-203 11-63 20-127 20-142 0-18 8-31 21-39 25-13 951-4 1139 12 136 11 153 23 165 111 4 29 18 94 31 143 30 111 30 130 2 149-19 14-68 16-348 14-179 0-401-4-495-8zm281-172c-3-50-6-106-6-125v-33h-149-149l-5 33c-6 36-21 189-18 197 0 3 56 7 123 10 68 3 143 7 167 8l44 2zm480 75c-10-36-34-139-40-175-8-45-8-45-213-52l-143-6v34c0 18 3 74 6 124l7 92h194c180 0 194-1 189-17zm-888-115c7-61 11-112 9-114-1-1-71-4-155-6-148-5-153-4-157 16-8 37-35 188-35 197s66 14 221 17l106 2z"/>
    <path d="m1030 1349c-41-4-156-15-255-24s-190-21-202-26c-21-8-23-15-23-81 0-111 65-675 80-693 11-13 60-15 334-15 286 0 325 2 356 18 42 20 41 18 64 332 9 118 21 258 26 310 13 133 13 138-15 165-23 24-28 25-157 24-73-1-167-5-208-10zm288-159c-3-44-8-83-12-87-3-4-129-11-279-15-149-4-294-12-322-17-27-5-52-7-54-5s-6 37-9 79c-3 55-1 75 8 75 6 0 103 9 213 20 258 25 275 26 376 28l84 2zm-18-212c0-13-3-52-6-88l-6-65-112 3c-61 1-197-1-303-5l-192-8-6 55c-3 30-8 65-11 77-3 16 2 24 18 29 31 10 237 20 446 22l172 2zm-22-297c-2-33-7-63-10-66s-132-9-287-12c-277-6-281-6-281 14 0 11-3 41-6 66l-7 46 129 3c71 2 205 4 298 6l169 4z"/>
    <path d="m750 382c-19-6-236-129-272-154-45-31-29-98 21-85 38 10 291 159 301 178 18 33-14 73-50 61z"/>
    <path d="m1210 345c-22-26-1-51 69-84 109-50 313-131 331-131 35 0 55 56 28 77-23 17-373 153-394 153-12 0-27-7-34-15z"/>
  </g>
</svg>
