<?xml version="1.0"?>
<svg xmlns="http://www.w3.org/2000/svg" height="200pt" preserveAspectRatio="xMidYMid meet" viewBox="0 0 200 200" width="200pt">
  <g transform="matrix(.1 0 0 -.1 0 200)">
    <path d="m1000 1895c-18-22-6-79 30-149 17-33 29-60 28-61-2-1-56-10-121-19-65-10-125-20-132-22-23-9-27-37-7-56 18-19 23-19 165-2l146 18 81-87c96-102 213-184 384-268 115-57 148-67 172-51 14 9 64 107 64 125 0 8-6 20-14 26-12 10-23 5-56-25l-41-37-107 54c-139 70-231 132-312 210l-65 63 50 7c28 4 138 12 245 20 107 7 201 17 208 22 17 13 15 42-5 58-11 10-39 13-98 11l-83-3 5 25c7 36-6 48-102 101-87 47-124 55-144 31-21-25 4-52 95-101 47-26 83-50 79-53-6-7-216-30-275-31-31-1-38 4-63 46-16 26-38 69-49 97-26 67-51 83-78 51z"/>
    <path d="m722 1868c-117-140-227-234-401-340-116-71-132-87-111-113 10-12 24-16 50-12 42 5 206 101 291 170 33 26 61 47 63 47s1-83-2-185c-4-161-3-187 12-210 18-27 45-32 64-13 9 9 12 78 12 249v238l50 66c50 66 61 100 38 123-20 20-38 14-66-20z"/>
    <path d="m1010 1149c-52-4-151-12-220-17-159-13-165-18-156-137 3-44 11-163 17-265s15-189 20-195c5-5 9-17 9-27s9-22 19-26c29-11 637 5 659 17 25 13 31 47 42 251 5 91 14 198 20 238 24 173 24 172-168 171-81-1-190-5-242-10zm326-101c-3-13-6-33-6-46 0-20-3-22-38-16-40 6-224-7-435-32-71-9-130-14-132-12-1 2-5 24-7 49l-5 46 161 12c89 7 166 14 171 16 6 2 75 4 154 4l143 1zm-21-214-6-34h-141c-78 0-205-5-281-11-153-12-157-11-157 44 0 20 5 27 19 27 10 0 85 7 167 16 82 8 205 19 274 22 140 8 139 8 125-64zm-5-183v-68l-97-8c-54-4-180-9-280-9l-181-1-6 35c-13 81-10 88 39 96 45 6 303 20 448 22l77 2z"/>
    <path d="m621 311c-40-45-102-104-136-131-35-28-67-60-70-71-7-22 19-59 41-59s147 108 222 193c60 68 72 87 70 112-2 24-8 31-29 33-21 3-39-11-98-77z"/>
    <path d="m1324 366c-12-31 3-52 63-91 248-161 294-187 317-181 28 7 40 31 27 54-12 22-82 70-235 161-118 70-161 84-172 57z"/>
  </g>
</svg>
