<?xml version="1.0"?>
<svg xmlns="http://www.w3.org/2000/svg" height="200pt" preserveAspectRatio="xMidYMid meet" viewBox="0 0 200 200" width="200pt">
  <g transform="matrix(.1 0 0 -.1 0 200)">
    <path d="m736 1954c-18-17-19-33-7-85l8-35-119-16c-122-17-148-27-148-58 0-38 25-45 128-32 153 19 142 24 142-57v-70l-52-5c-227-22-331-36-343-46-8-7-14-26-13-43 0-18-9-69-21-114-38-145-29-163 77-144 53 9 285 41 299 41 11 0-3-40-37-106-25-46-38-83-35-95 7-21 35-32 58-23 26 10 75 92 99 164l21 67 60 7c33 3 80 6 103 6h44v-105c0-94 2-105 20-115 23-12 54 0 64 26 3 8 6 58 6 110v94h223c122 0 228-4 235-9 11-6 12-26 7-85-4-42-8-76-9-76 0 0-24 9-52 19-77 30-149 37-157 17-8-21 39-56 145-106 135-63 146-57 161 88 14 140 14 199 0 213-20 20-106 27-335 28l-218 1v56 55l134-7c129-7 134-6 145 14 6 11 11 35 11 52s11 65 25 106c49 146 40 154-172 154h-153v34c0 55-16 86-44 86-31 0-46-26-46-80v-41l-82 3-82 3-12 48c-19 74-45 95-78 61zm581-202c9-5 7-21-7-62-11-30-19-63-20-73 0-16-8-17-97-11-54 4-99 7-99 8-1 0-4 34-6 74l-5 72h111c61 0 116-4 123-8zm-317-72v-70h-82-83l3 70 4 70h79 79zm10-215c0-63 5-60-124-69l-78-6 7 58c4 31 9 60 12 65 2 4 44 7 94 7h89zm-285-2c-11-82-10-81-78-88-34-4-105-13-157-20-52-8-96-13-98-11s1 21 6 42c6 22 13 51 16 66 5 21 14 28 39 33 28 5 187 20 255 24 22 1 23-1 17-46z"/>
    <path d="m1040 1040c-58-4-205-15-328-26-259-22-243-12-219-141 31-160 70-494 61-528-4-17 0-27 18-38 20-12 42-12 163-1 77 7 253 18 390 24 169 8 254 16 263 24 9 9 14 93 18 333 6 394 19 364-148 361-62-1-160-4-218-8zm280-144v-64l-217-6c-120-4-282-11-361-17s-145-9-147-7c-2 1-6 28-10 58l-7 56 229 17c299 23 302 23 416 25l97 2zm-6-213c-4-32-7-59-8-59-1-1-91-7-201-13s-263-18-340-25c-77-8-141-13-141-12-1 0-5 34-8 74l-7 72 73 1c40 1 141 5 223 9 83 3 210 7 283 8l132 2zm-4-203c0-45-2-50-22-50-45 0-356-20-492-31-155-13-156-13-156 54 0 32 3 37 23 38 12 0 119 9 237 19s259 18 313 19l97 1z"/>
    <path d="m1197 253c-15-14-6-53 16-67 12-8 99-52 194-96 176-84 205-90 218-50 3 11 2 27-3 36-11 20-359 183-393 184-14 0-29-3-32-7z"/>
    <path d="m635 203c-39-26-99-63-135-83-57-31-65-39-65-64 0-47 25-54 86-26 66 31 165 94 202 128 32 30 35 67 8 82-25 13-16 17-96-37z"/>
  </g>
</svg>
