<?xml version="1.0"?>
<svg xmlns="http://www.w3.org/2000/svg" height="200pt" preserveAspectRatio="xMidYMid meet" viewBox="0 0 200 200" width="200pt">
  <g transform="matrix(.1 0 0 -.1 0 200)">
    <path d="m561 1926c-6-7-25-41-42-75-35-70-90-122-175-166-54-28-59-33-60-65-1-19-3-129-4-244-3-195-2-210 15-222 24-18 35-14 137 45 191 109 229 127 239 111 5-8 24-39 42-69 38-64 59-81 85-65 9 6 18 19 20 28 5 23-70 165-135 259-55 78-82 94-111 65-18-18-15-36 18-83l30-43-118-64c-64-35-120-64-124-66-5-2-8 71-8 161v165l42 22c91 47 173 141 203 230 16 48 16 52-1 71-20 22-37 24-53 5z"/>
    <path d="m1365 1784c-155-11-382-37-397-45-10-5-18-21-18-35 0-34 30-43 120-33 41 5 76 6 78 4 9-9-21-100-55-169-19-39-58-104-86-144-41-59-49-76-41-90 6-9 21-18 33-20 62-9 209 240 235 399l6 36 83 6c45 4 99 7 120 7h38l-7-52c-10-88-42-214-75-298-28-69-34-78-50-70-46 25-66-26-28-74 49-62 84-55 125 27 63 123 106 279 120 427 5 66 4 78-13 99-17 20-30 25-79 26-32 2-81 1-109-1z"/>
    <path d="m990 1124c-358-35-463-56-475-95-4-10 1-56 9-101 31-164 76-514 71-539-6-27 15-59 38-59 7 0 84 9 171 20 96 12 220 20 312 20 129 0 154 2 165 17 22 25 14 711-9 736-18 21-82 21-282 1zm210-162v-89l-127-6c-71-4-197-16-282-27s-156-18-158-16-10 38-18 81c-10 53-12 81-5 85 18 11 430 56 538 59l52 1zm0-252v-69l-172-1c-95 0-216-6-268-14-52-7-96-13-97-12-3 3-21 121-19 123 8 9 343 40 439 42l117 1zm-46-156 46-7v-43-44h-102c-57 0-170-9-253-19-82-11-151-18-153-16-1 1-6 25-11 53l-8 51 40 7c125 21 351 30 441 18z"/>
    <path d="m1304 286c-13-34 3-52 73-86 40-19 94-56 120-81 66-63 116-99 139-99 24 0 44 18 44 41 0 27-203 193-266 218-65 25-102 27-110 7z"/>
    <path d="m461 188c-37-35-83-74-101-88-26-20-31-30-26-48 18-57 106-23 200 78 46 50 57 85 34 108-21 21-37 13-107-50z"/>
  </g>
</svg>
