<?xml version="1.0"?>
<svg xmlns="http://www.w3.org/2000/svg" height="200pt" preserveAspectRatio="xMidYMid meet" viewBox="0 0 200 200" width="200pt">
  <g transform="matrix(.1 0 0 -.1 0 200)">
    <path d="m517 1962c-12-13-17-42-19-107l-3-89-115-14c-129-16-164-28-168-58-6-42 18-48 140-30 62 9 118 16 124 16 14 0 1-80-28-165-23-72-142-290-176-324-46-46 6-105 61-68 28 18 169 272 196 352 10 33 25 89 31 125 7 36 14 71 16 78 2 9 40 12 144 12 78 0 139-4 136-8-3-5-12-78-21-163-8-85-18-173-21-196l-5-42-34 15c-50 20-65 18-65-10 0-16 15-38 47-66 39-34 53-40 82-38 31 3 38 8 48 39 6 19 19 112 27 205 9 93 21 198 26 234 7 47 6 71-3 90l-12 25h-173-172v91c0 88-8 114-35 114-7 0-19-8-28-18z"/>
    <path d="m1240 1785c-74-7-136-13-137-14-1 0-9-14-18-31-12-23-15-70-15-238 0-183 2-211 17-223 23-20 603-31 619-13 13 16 37 256 38 393 1 78-3 112-13 124-12 15-36 17-185 16-94-1-232-8-306-14zm412-170c-1-55-8-138-13-185l-11-85h-234-234v172 172l43 6c63 9 313 23 387 21l65-1z"/>
    <path d="m1160 1129c-58-4-157-12-220-18s-159-11-212-11c-104 0-145-10-155-37-4-9-1-87 6-172 7-86 17-241 21-345 9-205 13-219 67-218 15 0 116 5 223 11 107 5 239 10 293 11 92 0 99-2 121-25 25-27 55-32 74-13 8 8 12 46 12 105 0 51 5 136 10 190 6 54 17 186 25 293 18 243 19 241-88 238-39 0-119-4-177-9zm180-103c0-12-3-50-6-82l-6-60-157-2c-86-2-232-9-326-17-93-8-171-13-173-11s-6 38-9 80l-6 76h64c35 0 125 5 199 11 173 14 335 26 383 27 33 2 37-1 37-22zm-20-288c0-35-4-68-8-74-4-7-86-14-232-18-124-4-258-12-299-17-40-6-79-8-87-5-10 4-14 25-14 74v69l93 8c77 7 245 14 500 23l47 2zm-20-238v-60h-112c-102 0-451-17-481-23-8-1-13 17-15 59l-3 61 108 10c59 5 197 10 306 11l197 2z"/>
    <path d="m1426 274c-19-18-19-20-5-45 24-46 329-223 371-217 29 4 46 33 32 56-6 9-51 39-100 65-49 27-127 73-173 103-91 59-102 62-125 38z"/>
    <path d="m465 209c-72-39-138-78-147-86-32-29-16-73 26-73 20 0 247 120 279 148 28 25 17 82-18 82-5 0-69-32-140-71z"/>
  </g>
</svg>
