<?xml version="1.0"?>
<svg xmlns="http://www.w3.org/2000/svg" height="200pt" preserveAspectRatio="xMidYMid meet" viewBox="0 0 200 200" width="200pt">
  <g transform="matrix(.1 0 0 -.1 0 200)">
    <path d="m1235 1904c-27-25-70-57-95-71-161-92-172-101-148-130 14-17 62-11 126 17l42 19v-69c0-38-4-71-8-74-4-2-84-14-177-26-94-12-176-27-183-33-7-5-12-22-10-36 3-22 9-26 42-29 21-2 93 4 160 12 179 23 166 27 166-44 0-33-3-60-7-60-49-2-159-22-169-31-22-18-16-48 10-60 18-8 51-8 125 0 55 7 162 14 238 17 154 5 176 13 155 59-11 25-12 25-137 25h-125v60c0 73-15 68 222 73 183 4 208 10 208 47 0 39-21 43-230 38l-200-4v94 94l45 40c57 50 69 72 55 98-17 31-51 23-105-26z"/>
    <path d="m752 1923c-7-3-26-30-42-61-64-126-173-240-351-365-37-26-70-55-73-63-9-24 12-44 44-44s151 76 229 146l51 46v-177c0-182 6-215 40-215 47 0 50 16 50 261v230l39 57c71 105 86 153 59 180-13 13-24 14-46 5z"/>
    <path d="m1180 1160c-58-4-152-15-210-23-58-9-133-19-168-23-90-10-93-17-76-174 8-69 18-222 24-340 5-118 13-228 16-243 12-51 34-56 164-41 63 8 197 18 298 23 155 7 185 11 202 26 20 18 21 28 18 396-2 289-6 381-16 391-15 15-112 19-252 8zm180-155v-74l-32-5c-18-3-87-8-153-11s-171-12-234-20c-127-16-131-15-131 41 0 17-3 45-6 61l-6 30 169 21c92 12 179 24 193 26s64 4 113 5l87 1zm0-254v-88l-137-7c-154-8-349-24-375-32-16-5-18 4-18 84v89l114 12c129 15 286 27 364 30l52 1zm0-250v-69l-127-7c-71-3-184-13-253-20-137-15-140-15-140 41 0 17-3 45-6 62-6 30-5 31 37 37 97 14 221 22 352 24l137 1z"/>
    <path d="m1480 250c-6-11-7-26-3-34 14-25 267-187 287-184 28 4 44 34 30 56-24 39-246 182-282 182-12 0-26-9-32-20z"/>
    <path d="m578 186c-147-97-162-110-148-136 23-43 76-25 211 70 79 56 99 76 99 95 0 20-24 45-44 45-2 0-56-33-118-74z"/>
  </g>
</svg>
