<?xml version="1.0"?>
<svg xmlns="http://www.w3.org/2000/svg" height="200pt" preserveAspectRatio="xMidYMid meet" viewBox="0 0 200 200" width="200pt">
  <g transform="matrix(.1 0 0 -.1 0 200)">
    <path d="m1006 1944c-9-8-16-24-16-34 0-28-75-171-130-246-53-73-60-98-32-112 28-15 58 3 107 65l45 59 162 27c90 15 190 30 222 33l60 7-24-39c-75-125-84-154-45-154 26 0 101 77 133 137 43 82 46 128 10 142-22 8-256-21-397-48-29-6-57-11-61-11s3 26 16 58c13 31 24 67 24 79 0 24-24 53-45 53-7 0-21-7-29-16z"/>
    <path d="m354 1855c-14-35 8-65 93-129 49-36 108-81 132-101 24-19 52-35 61-35 25 0 43 25 35 49-7 22-104 110-175 158-25 17-54 40-64 52-22 25-74 28-82 6z"/>
    <path d="m1077 1642c-3-4-15-36-27-72-42-127-137-259-241-336-57-42-65-77-17-82 55-6 135 51 214 153l56 74 52-29c146-81 459-190 546-190 81 0 79 61-3 84-195 54-246 70-310 95-81 33-247 109-247 113 0 2 9 27 20 56 23 59 26 112 8 130-13 13-44 16-51 4z"/>
    <path d="m640 1483c-14-9-61-47-105-83-44-37-108-88-142-114-37-27-63-55-63-65 0-27 26-44 54-37 60 15 321 258 314 292-4 25-28 28-58 7z"/>
    <path d="m1230 1163c-25-2-142-14-260-28s-250-29-294-34c-43-5-83-14-89-20-7-7-7-37 1-103 19-145 32-331 32-469 0-176-2-174 150-154 63 9 214 19 335 22s228 10 239 15c15 8 16 16 10 41-5 18-9 184-9 370 0 323-1 339-19 353-11 8-27 13-35 12-9-1-36-3-61-5zm26-160c-3-42-6-86-6-98 0-17-6-22-27-22-16-1-141-4-279-8l-252-8-7 44c-3 24-9 58-11 74l-5 30 178 19c98 11 225 25 283 31 58 7 111 13 119 14 11 1 13-13 7-76zm-6-268v-65h-42c-24 0-144-7-268-14-124-8-228-12-232-9-5 2-8 34-8 71v67l87-3c49-1 151 1 228 6s161 10 188 11l47 1zm0-210v-55h-107c-60 0-171-7-248-15-202-22-185-26-185 45v60l53 1c28 1 106 5 172 9 66 3 164 7 218 8l97 2z"/>
    <path d="m1268 299c-37-21-21-54 44-88 18-10 93-50 166-90 136-74 172-83 186-45 12 30-15 53-142 120-226 119-227 119-254 103z"/>
    <path d="m586 245c-32-24-83-59-114-76-87-48-102-76-58-104 23-15 27-15 68 6 24 12 68 39 98 60 108 75 128 102 104 137-21 31-33 28-98-23z"/>
  </g>
</svg>
