<?xml version="1.0"?>
<svg xmlns="http://www.w3.org/2000/svg" height="200pt" preserveAspectRatio="xMidYMid meet" viewBox="0 0 200 200" width="200pt">
  <g transform="matrix(.1 0 0 -.1 0 200)">
    <path d="m1205 1916c-17-12-18-18-8-50 9-28 9-38 0-40-7-2-52-13-100-24-102-24-119-35-115-71 4-34 29-37 116-16 37 8 78 18 91 21l24 5-7-82c-4-45-9-86-12-90-3-5-24-13-47-19-180-46-216-65-201-104 10-26 39-27 115-6 41 11 79 20 87 20 24 0-18-63-86-127-57-53-64-63-53-77 19-22 44-20 100 9 50 25 94 73 127 137l19 38 110-67c219-132 342-177 375-138 24 28 6 47-84 86-48 20-142 68-207 106-94 54-115 69-99 75 11 4 78 12 150 17 132 10 160 19 160 51 0 37-24 43-148 36-64-4-139-11-167-16-27-4-51-7-53-5-1 1 0 38 4 83l7 80 36 6c20 3 64 6 97 6 81 0 115 23 96 65l-13 28-113-7-114-7-7 30c-4 17-16 38-28 46-26 18-28 18-52 1z"/>
    <path d="m491 1881c-7-11-7-38-2-72 5-30 8-55 7-56s-36-6-77-9c-98-9-119-18-119-48 0-41 20-48 114-40l86 7v-64-64l-110-23c-134-27-160-38-160-67 0-51 25-52 218-8 33 8 28-16-18-85-62-93-128-161-182-188-39-20-49-29-46-47 5-35 76-36 134-2 52 31 161 163 201 243l26 53 81-80c80-80 109-94 134-69 22 22 12 40-69 123-52 54-75 84-67 88 8 2 56 10 108 16 152 19 165 23 168 49 5 35-15 52-62 52-40 0-213-25-248-36-16-5-18 2-18 59v64l107 16c112 17 136 29 126 68-8 29-43 33-147 17l-94-15-5 42c-10 70-24 95-51 95-14 0-30-8-35-19z"/>
    <path d="m1235 1223c-33-2-116-10-185-18s-179-19-245-25c-176-15-213-21-225-35-8-10-7-43 4-117 17-114 31-252 46-460 10-148 22-183 67-194 13-4 79-1 146 5 67 7 198 16 291 21 143 7 173 11 195 28l26 19 6 274c3 151 12 318 19 373l14 98-23 19c-13 11-35 18-50 17-14-1-53-3-86-5zm61-100c-2-10-7-43-11-73-11-97-1-90-136-90-66 0-186-7-267-15s-158-16-172-18c-24-2-25 1-35 75l-11 77 35 5c20 3 72 8 116 11s141 12 215 20 155 16 180 18 55 4 68 5c18 2 22-2 18-15zm-36-306v-54l-152-7c-155-7-295-19-360-31l-35-7-8 57c-3 31-5 59-2 61 11 11 266 32 405 33l152 1zm10-237v-90h-87c-49 0-168-7-266-16-107-11-181-14-186-8-5 5-11 45-13 89l-3 79 47 8c67 12 265 25 396 27l112 1z"/>
    <path d="m1330 325c-21-25-3-58 52-100 29-22 90-73 136-113 85-74 99-81 120-60 35 35-17 100-183 227-82 63-104 71-125 46z"/>
    <path d="m579 276c-24-18-79-59-121-90-62-44-78-61-78-81 0-17 8-29 25-37 22-10 32-7 82 28 131 90 191 145 193 176 0 11-31 38-44 38-7 0-33-15-57-34z"/>
  </g>
</svg>
