<?xml version="1.0"?>
<svg xmlns="http://www.w3.org/2000/svg" height="200pt" preserveAspectRatio="xMidYMid meet" viewBox="0 0 200 200" width="200pt">
  <g transform="matrix(.1 0 0 -.1 0 200)">
    <path d="m912 1958c-8-8-12-61-12-173v-161l-102-11c-218-24-494-65-507-76-21-18-8-105 34-237 42-130 52-145 89-136 36 9 34 47-9 177-20 57-34 110-33 118 2 11 66 23 263 49 258 34 263 34 672 36 226 0 414-2 418-6 7-7-104-189-137-225-28-30-20-57 19-61 42-4 80 36 161 170 47 78 62 112 62 141 0 68-14 70-462 71l-388 1v156c0 158-5 179-40 179-9 0-21-5-28-12z"/>
    <path d="m1425 1932c-5-4-26-27-46-52s-73-74-118-110c-67-54-81-69-79-90 5-41 38-36 121 20 82 55 173 148 183 186 10 39-30 69-61 46z"/>
    <path d="m370 1839c-9-16-8-25 3-42 16-24 165-121 214-139 62-23 85 18 36 64-43 40-201 138-223 138-10 0-24-9-30-21z"/>
    <path d="m1070 1443c-30-2-134-9-230-17s-186-14-199-13c-44 3-47-23-17-122 16-50 29-109 30-132 1-22 9-45 17-50 8-6 52-8 104-5 50 3 179 9 287 12 108 4 202 10 208 14 13 8 44 141 55 231 10 92-5 97-255 82zm160-100c0-9-5-42-12-74l-12-57-155-6c-86-4-190-9-231-12l-75-6-18 65c-9 36-17 67-17 70 0 2 71 10 158 16 349 25 362 26 362 4z"/>
    <path d="m1035 1054c-11-1-108-10-215-20-128-11-200-21-209-30-13-11-10-39 22-201 20-103 41-248 48-320 8-96 16-136 27-145 32-27 483-17 595 13 41 11 50 24 50 73 0 60 17 462 22 528 4 59 2 71-15 88-18 18-32 20-162 19-79-1-152-3-163-5zm245-144v-60h-127c-120-1-265-10-380-26-56-7-57-6-68 68l-7 45 154 12c84 7 160 14 168 16 8 1 70 3 138 4l122 1zm-10-198v-59l-152-6c-201-9-356-9-361 1-3 4-8 26-11 48l-7 41 158 12c87 7 201 13 253 14 52 2 101 4 108 5 8 1 12-15 12-56zm-8-209c2-32 2-61-1-65-9-11-233-28-368-28h-123v39c0 21-3 52-6 69l-6 31 133 4c74 1 186 4 251 5l116 2z"/>
    <path d="m684 249c-78-62-174-160-174-177 0-24 19-42 46-42 24 0 194 150 213 188 9 18 7 26-9 42-26 26-30 26-76-11z"/>
    <path d="m1222 258c-23-23-14-57 21-79 74-46 298-150 318-147 30 4 47 33 33 55-10 17-327 182-349 183-6 0-16-5-23-12z"/>
  </g>
</svg>
