<?xml version="1.0"?>
<svg xmlns="http://www.w3.org/2000/svg" height="200pt" preserveAspectRatio="xMidYMid meet" viewBox="0 0 200 200" width="200pt">
  <g transform="matrix(.1 0 0 -.1 0 200)">
    <path d="m627 1906c-8-8-20-36-27-61-15-53-90-141-170-200-65-48-91-115-44-115 12 0 14-9 9-47-21-158-66-253-150-321-14-12-14-16-2-35 58-88 185 66 224 271 18 97 17 95 86 108l37 6v-149c0-118 3-153 16-171 17-24 48-29 61-9 4 6 8 86 8 177v165l60 7c95 11 162 28 175 43 7 9 9 26 6 41-7 25-9 26-54 21-81-11-316-46-347-53-27-6-25-3 23 35 66 53 118 122 137 185s19 81-1 100c-19 20-29 20-47 2z"/>
    <path d="m1282 1823c-37-55-91-110-172-177-34-28-35-31-41-117-5-76-12-101-49-178-23-49-40-97-37-105 9-23 53-19 78 7 34 36 76 128 88 192 6 32 13 61 16 63 3 3 31 11 63 17l57 12 3-168c3-181 8-197 56-185 35 9 40 49 32 222l-6 142 68 6c84 8 112 16 126 38 17 27-4 52-47 56-34 3-246-22-292-34-12-3-4 9 23 32 49 42 142 169 142 194 0 23-20 40-47 40-16 0-33-16-61-57z"/>
    <path d="m1055 1144c-66-7-178-21-250-30-71-9-144-16-162-15-17 1-35-4-40-11-12-20-3-680 10-697 9-11 63-12 302-6 375 8 415 11 433 29 13 13 13 27 2 105-13 89-9 434 6 557 9 73-6 84-104 83-42-1-131-8-197-15zm204-141c-5-38-8-74-8-81-1-7-5-11-9-8-8 5-213-11-441-34-57-6-105-9-107-7-3 2-7 33-11 69l-6 65 34 6c101 18 423 54 500 56l55 1zm-9-228c0-50-2-55-22-55-30 0-434-39-462-44-11-3-33-7-48-11l-28-5v59c0 52 2 59 23 65 12 3 116 13 232 21 116 9 217 17 225 19s30 4 48 5l32 1zm3-212c3-38 3-71 1-74s-101-9-221-12c-120-4-246-10-280-13l-63-7v60 61l133 16c150 19 298 33 373 35l51 1z"/>
    <path d="m1356 314c-41-41-28-51 268-208 94-51 111-57 132-47 26 12 33 51 12 69-21 16-375 202-386 202-6 0-18-7-26-16z"/>
    <path d="m460 225c-63-46-127-94-142-106-40-30-32-79 12-79 38 0 220 127 274 191 24 28 25 34 13 53-8 11-21 22-28 24-8 1-66-36-129-83z"/>
  </g>
</svg>
