<?xml version="1.0"?>
<svg xmlns="http://www.w3.org/2000/svg" height="200pt" preserveAspectRatio="xMidYMid meet" viewBox="0 0 200 200" width="200pt">
  <g transform="matrix(.1 0 0 -.1 0 200)">
    <path d="m935 1944c-13-14-15-31-9-113l7-98-159-22c-205-28-209-29-209-65 0-50 18-53 200-27 92 13 168 21 170 19 1-1 7-82 11-180l9-176-85-7c-282-21-639-73-667-97-18-14-16-43 3-58 12-11 40-10 157 8 188 29 355 47 364 39 11-12 52-281 63-415 12-152 2-254-41-418-18-66-32-135-33-154-1-32 1-35 29-35 26 0 33 7 53 45 30 62 70 224 83 338 12 113 0 287-37 501-13 79-22 146-20 149 6 5 195 19 326 24l95 3 7-45c3-25 9-189 13-365 3-176 10-369 16-429 5-60 7-111 6-113-2-2-30 17-63 42-63 47-104 58-104 27 0-10 42-60 94-110 101-99 132-113 159-69 12 19 12 47 1 187-8 91-18 314-24 495-6 182-12 344-13 360l-2 30 120 6c66 4 184 7 263 8 79 0 152 6 163 11 23 13 25 53 4 70-18 15-361 9-653-11-95-7-175-10-178-6-7 6-28 356-22 362 5 6 122 22 246 34 52 6 100 15 108 22 22 18 17 58-8 68-21 8-205-7-306-24-45-7-44-10-57 110-9 84-42 116-80 79z"/>
    <path d="m1492 908c-24-24-11-48 79-145 86-92 219-276 219-301 0-17 37-52 55-52 8 0 22 11 31 25 15 23 14 27-9 77-36 79-136 212-235 316-87 91-114 106-140 80z"/>
    <path d="m501 826c-6-7-20-38-30-69-32-93-107-227-171-307-35-44-59-83-58-94 4-26 30-40 59-32 51 14 187 221 238 362 35 97 37 116 15 138-19 20-38 20-53 2z"/>
  </g>
</svg>
