<?xml version="1.0"?>
<svg xmlns="http://www.w3.org/2000/svg" height="200pt" preserveAspectRatio="xMidYMid meet" viewBox="0 0 200 200" width="200pt">
  <g transform="matrix(.1 0 0 -.1 0 200)">
    <path d="m892 1898c-8-8-12-49-12-120 0-124 15-109-130-128-126-16-187-36-196-62-8-25 30-63 54-53 8 3 58 12 111 20s110 17 127 20l32 5 7-216c6-177 5-218-6-228-8-8-131-26-304-45-159-17-312-35-338-38-54-6-75-29-57-63 9-16 21-20 66-20 46 0 500 47 627 65l37 5 1-92c0-51 8-202 17-336l17-243-40 7c-52 8-332 79-367 93l-27 10 18 64c33 115 46 204 31 222-16 19-44 19-59 1-7-8-25-65-40-128-50-202-119-346-226-472-62-73-72-111-31-122 16-4 34 0 48 10 44 31 139 161 185 252l45 91 62-19c307-95 856-188 1109-188 156 0 175 4 183 37 12 48-6 53-207 58-183 5-217 8-464 46-160 25-161 25-145 44 9 11 10 49 5 147-3 73-8 140-11 149-6 21 85 36 292 49 78 5 161 14 185 19 61 14 87 53 53 82-12 10-35 10-117 1-56-7-121-12-145-12s-93-7-154-16-113-12-118-8c-4 5-11 66-15 135l-7 126 103 12c108 12 252 24 495 40 77 6 148 13 157 16 34 14 32 69-4 80-26 8-327-11-562-36-104-12-190-19-192-17-1 2-6 103-10 226-7 213-7 222 11 222 59 2 328 40 336 48 5 5 8 22 6 38-3 26-8 29-41 32-20 2-95-4-165-12-70-9-136-16-145-16-15 0-17 12-17 103 0 105-7 127-40 127-9 0-21-5-28-12z"/>
  </g>
</svg>
