<?xml version="1.0"?>
<svg xmlns="http://www.w3.org/2000/svg" height="200pt" preserveAspectRatio="xMidYMid meet" viewBox="0 0 200 200" width="200pt">
  <g transform="matrix(.1 0 0 -.1 0 200)">
    <path d="m380 1760c-7-13-7-40 1-90 6-39 8-77 6-84-3-7-37-18-77-25-103-17-140-34-140-65 0-29 31-50 59-41 10 3 53 12 94 19 68 12 77 11 82-3 4-9 9-89 12-178 5-134 3-163-8-167-8-2-68-16-133-32-175-41-232-76-195-120 15-18 21-17 183 25 65 17 126 31 135 31 15 0 19-20 29-153 25-322 26-361 11-355-8 3-39 11-70 18l-55 12 4 119c4 104 2 122-13 139-45 50-75 6-75-110 0-176-36-328-117-490-47-95-59-128-52-142 15-28 54-22 83 13 43 50 114 207 135 298 11 46 21 85 23 86s39-8 83-21c77-23 349-84 560-124 251-49 688-100 850-100 67 0 85 3 98 18 22 24 22 49 0 60-10 5-76 13-148 16-288 16-555 52-941 127l-261 52-7 120c-4 66-4 123 1 127 4 5 60 13 123 20 96 9 118 15 133 32 15 18 16 24 4 42-19 28-41 29-167 13-58-8-107-13-109-11-1 1-6 50-10 108l-6 104 100 16c55 8 137 18 183 22 102 9 133 27 114 68-11 24-16 26-73 26-53 0-233-21-295-35-21-5-21-1-27 153-3 86-8 167-12 178-9 28 9 34 120 41 51 3 100 11 113 19 29 19 28 49-2 69-20 14-37 14-117 5-52-6-101-13-111-16-13-4-18 8-28 68-7 40-18 83-26 96-18 27-50 29-64 2z"/>
    <path d="m1435 1663c-158-13-335-52-367-81-22-19-23-45-3-62 13-11 35-8 123 14 100 24 366 56 377 44 3-2 8-79 12-170l6-166-69-6c-145-13-390-38-418-43-21-4-32-16-43-42-13-30-13-61-3-221 6-102 13-204 16-227 7-54 43-92 127-132 118-56 163-63 409-68 282-6 268-13 268 142 0 57-5 126-11 154-22 103-69 87-69-24 0-34-3-90-7-125l-6-62-191 5c-209 5-270 17-368 69-63 33-67 43-68 138-1 36-7 119-14 185-8 66-13 121-12 122 3 4 309 33 408 39 62 3 114 11 124 19 16 11 17 29 15 157-4 218-15 319-37 335-17 12-95 15-199 6z"/>
  </g>
</svg>
