<?xml version="1.0"?>
<svg xmlns="http://www.w3.org/2000/svg" height="200pt" preserveAspectRatio="xMidYMid meet" viewBox="0 0 200 200" width="200pt">
  <g transform="matrix(.1 0 0 -.1 0 200)">
    <path d="m836 1880c-134-12-236-25-261-35-23-8-49-13-59-9-9 3-23 0-32-7-27-22-18-84 75-527 9-45 22-87 28-93 8-8 69-10 192-8l181 4v-79c0-107-21-670-25-675-11-11-345 115-358 135-3 5 11 77 29 159 20 86 34 169 32 195-3 42-5 45-32 45-16 0-32-7-36-15-5-8-27-96-50-194-74-311-137-480-220-585-48-61-49-85-3-89 27-3 40 4 77 41 50 50 113 172 146 284l22 72 49-24c72-37 354-131 509-170 183-46 602-134 672-142 62-6 88 5 88 38 0 25-35 45-90 54-61 9-578 121-665 143l-70 18v42c1 23 2 113 3 200l2 159 83 11c45 6 134 17 197 23s121 16 128 21c21 18 14 57-12 69-23 11-130 2-343-28l-43-6v155 155l207 11c158 9 210 15 221 26 18 18 82 563 70 595-15 41-43 46-273 47-142 1-298-4-439-16zm618-77c4-3 6-29 3-57-35-312-47-410-51-414-6-5-4-5-326-27-124-9-270-16-325-18l-99-2-7 35c-3 19-22 107-42 195s-39 181-42 206l-7 46 49 7c59 8 289 25 483 36 142 8 346 4 364-7z"/>
  </g>
</svg>
