<?xml version="1.0"?>
<svg xmlns="http://www.w3.org/2000/svg" height="200pt" preserveAspectRatio="xMidYMid meet" viewBox="0 0 200 200" width="200pt">
  <g transform="matrix(.1 0 0 -.1 0 200)">
    <path d="m435 1803c-104-13-167-27-187-42-13-10-31-20-40-24-27-10-31-48-19-182 6-69 11-162 11-206 0-92 17-135 56-145 14-4 56-3 95 0l69 7v-148c0-81 3-245 7-364l6-216-54-35c-30-19-59-37-64-40-7-4-8 21-3 75 3 45 7 152 7 237 1 166-3 180-46 180-34 0-43-34-43-162 0-60-5-176-11-257l-12-146-49-53c-38-41-49-58-46-80 2-21 9-28 30-30 22-3 38 8 81 50 60 61 167 131 395 263 137 79 157 94 160 118 3 21-2 29-22 38-23 11-36 6-127-45-56-31-103-56-104-54-2 2-5 67-7 144l-3 141 84 7c88 7 121 22 121 56 0 35-25 43-120 35l-90-7v146 146h99c106 0 165 16 175 47 3 10 15 130 26 266 14 175 17 254 10 268-10 18-23 19-183 18-95-1-185-4-202-6zm295-106c0-29-30-391-33-393-1-1-92-4-203-6l-201-5-6 121c-4 66-10 155-13 197l-7 77 69 11c38 6 80 13 94 15s87 4 163 5c136 1 137 1 137-22z"/>
    <path d="m1245 1753c-31-5-65-29-65-45 0-17-67-111-145-203-74-87-94-123-80-144 13-21 46-10 90 30l44 41 58-47c94-77 153-132 153-144 0-6-48-60-106-121-103-106-204-190-271-224-39-20-44-53-11-65 57-21 158 39 300 178 64 62 127 129 140 147 13 19 26 34 30 34s41-22 82-49c145-94 374-201 431-201 17 0 29 8 37 25 15 33-5 55-74 79-93 33-379 185-417 222-3 2 5 14 16 27 28 30 84 116 183 280 75 124 82 140 72 162l-12 25-212-1c-117-1-226-4-243-6zm308-96 28-2-67-110c-36-60-85-136-108-167l-43-58-69 61c-38 34-86 73-106 86-40 27-40 28 2 83 15 19 37 53 50 75l23 40 131-3c72-1 144-4 159-5z"/>
    <path d="m1198 856c-127-19-122-5-114-299 3-137 10-256 16-266 8-16 30-19 165-25 85-4 214-4 286 0 192 10 178-12 195 309 13 238 13 260-3 277-15 16-35 18-242 17-124-1-261-6-303-13zm458-233c-4-87-9-182-12-210l-6-53h-228-227l-6 113c-4 61-7 151-7 199v87l33 5c68 12 97 13 276 15l184 1z"/>
  </g>
</svg>
