<?xml version="1.0"?>
<svg xmlns="http://www.w3.org/2000/svg" height="200pt" preserveAspectRatio="xMidYMid meet" viewBox="0 0 200 200" width="200pt">
  <g transform="matrix(.1 0 0 -.1 0 200)">
    <path d="m884 1883c-48-64-126-143-201-205-54-43-73-66-73-83 0-13 4-26 9-30 10-6 12-19 36-280 9-93 20-214 25-268 6-54 10-136 10-182v-84l-52-10c-29-5-73-13-98-16-92-14-306-56-327-65-30-13-31-58-2-68 12-5 113 7 252 30 324 53 716 110 729 106 16-6-146-163-282-274-178-145-282-217-403-280-60-30-111-62-114-70-3-9 2-23 11-32 15-15 22-14 100 11 49 16 121 51 175 85 181 114 476 365 593 505l48 58v-209c0-115-3-236-6-270l-7-61-51 20c-28 12-64 29-81 39-36 21-55 16-55-15 0-30 47-70 143-123 87-48 113-52 127-20 13 33 29 391 23 536l-5 122h245c266 0 276 2 263 55-10 41-62 48-298 40-147-5-208-4-208 4 0 6 15 34 33 63 61 96 196 352 222 421 36 96 58 230 43 262-23 52-78 22-78-42 0-37-35-171-57-220-28-61-167-313-174-313s-19 288-19 471c0 172 3 168-138 162-81-4-304-27-467-48l-40-6 62 56c74 67 183 199 183 224 0 9-5 22-12 29-23 23-55 13-84-25zm406-428v-105h-30c-17 0-117-13-223-29-105-16-215-32-243-36l-52-7-6 79c-4 43-9 97-13 121l-5 42 58 1c33 0 120 9 194 18 74 10 177 19 228 20l92 1zm4-232c3-21 6-59 6-85v-47l-57-6c-117-12-458-57-465-61-9-6-21 92-16 136l3 35 165 22c91 12 190 26 220 31s74 10 96 11c40 1 42 0 48-36zm14-292c4-81-9-98-87-106-31-3-134-17-230-31-95-13-182-24-192-24-17 0-19 8-19 84v83l73 11c63 10 255 34 357 45 19 3 49 4 65 3 30-1 30-2 33-65z"/>
  </g>
</svg>
