<?xml version="1.0"?>
<svg xmlns="http://www.w3.org/2000/svg" height="200pt" preserveAspectRatio="xMidYMid meet" viewBox="0 0 200 200" width="200pt">
  <g transform="matrix(.1 0 0 -.1 0 200)">
    <path d="m870 1935c-8-10-10-41-5-112l7-99-180-22c-99-12-194-27-210-33-37-13-51-45-29-67 14-14 34-13 199 6 257 31 228 43 228-91v-114l-97-12c-53-6-131-19-172-28-42-9-90-15-107-14-58 3-61-13-26-177 17-81 42-205 56-276 22-116 28-133 55-158 17-16 31-33 31-38 0-19 47-21 165-6 66 8 121 14 122 13 1-2 5-48 9-105l7-102h-30c-127 0-498-46-618-76-91-24-117-40-113-72 4-34 31-39 107-18 132 36 639 91 659 72 4-4 9-75 12-158 4-133 7-151 24-164 25-18 31-18 50 2 13 13 16 43 16 173v157l228 12c125 7 315 15 422 18 107 4 201 11 208 17 17 14 15 43-5 63-16 15-37 16-228 11-115-4-303-12-417-19-115-6-211-8-214-5-13 13-24 191-12 198 6 4 86 10 177 14s182 11 202 16c33 8 37 13 43 52 9 58 25 381 26 498 0 137 14 130-261 128l-224-1-3 110-3 109 58 6c32 4 116 9 186 13 110 6 129 9 138 25 13 26-4 57-37 65-24 6-155 1-290-12l-61-6-7 93c-4 50-11 100-17 111-12 22-52 24-69 3zm478-601c21-6 22-12 22-88 0-131 14-121-168-124-86-1-169-5-184-8l-28-6v65c0 35-3 85-6 110l-7 46 99 4c206 6 250 7 272 1zm-449-180 1-51-127-12c-70-7-139-15-153-18-26-5-27-3-47 89-12 51-19 96-17 100 5 7 110 26 239 42l90 11 6-55c4-30 7-78 8-106zm456-216c-4-57-9-106-11-109s-63-9-136-13-149-10-169-13l-36-5-7 107c-4 59-4 110-1 114 4 3 84 9 178 12 95 3 176 6 181 7 4 1 5-44 1-100zm-455-36v-108l-122-15c-68-9-124-15-124-15-6 3-44 210-39 214 6 6 191 29 248 31l37 1z"/>
  </g>
</svg>
