<?xml version="1.0"?>
<svg xmlns="http://www.w3.org/2000/svg" height="200pt" preserveAspectRatio="xMidYMid meet" viewBox="0 0 200 200" width="200pt">
  <g transform="matrix(.1 0 0 -.1 0 200)">
    <path d="m1240 1843c-616-12-916-24-929-38-13-12-12-30 3-137 9-68 20-141 24-162 13-75 74-75 80 0 3 35-12 163-24 206-4 14 7 17 68 22 74 6 981 25 986 21 2-2-15-24-37-49-84-97-113-176-67-184 21-4 93 67 188 186 93 117 79 143-74 140-51-1-149-3-218-5z"/>
    <path d="m885 1697c-13-20-13-40-4-136 6-62 8-115 6-117-3-3-71-16-153-30-82-13-164-29-182-35-44-14-57-41-34-69l17-21 137 25c75 14 156 27 180 28l43 3 3-56 3-57-58-6c-294-29-286-28-310-54-36-38-37-62-15-205 12-73 24-164 28-204 8-89 25-110 76-95 37 12 194 32 251 32h37v-94-95l-42-5c-24-3-135-16-248-30-113-15-248-31-300-37-66-7-99-15-107-27-17-21-16-27 4-47 20-21 63-18 412 26 263 33 291 34 291 17 0-53 24-328 31-345 6-15 17-23 33-23 47 0 50 15 37 206-7 97-11 178-9 180s128 8 279 13c210 7 306 6 409-4 77-7 142-9 151-4 26 13 30 36 11 59-27 33-168 43-524 36-169-3-313-7-320-8-10-2-14 21-16 93l-3 96 77 7c42 3 114 6 159 6 65 0 88 4 105 18 22 18 22 22 12 65-15 59-15 262 0 343 10 58 10 66-8 85-18 21-26 21-189 18l-170-4-3 54c-2 37 1 57 10 62 7 5 69 9 138 9 97 0 131 4 148 16 26 18 28 37 5 59-14 15-36 17-162 14l-146-4-11 123c-10 122-17 141-51 142-7 0-19-10-28-23zm371-568c-3-17-6-44-6-59 0-28 0-28-87-34-49-4-107-9-130-13l-43-5v65 66l48 4c26 2 87 4 136 5l89 2zm-356-52v-62l-127-18c-71-10-137-18-148-20-16-2-21 8-30 65l-12 67 42 7c63 9 185 21 233 23l42 1zm350-197v-70h-48c-27 0-83-3-124-6l-75-7-6 64c-3 35-3 66-1 69 5 4 130 15 212 18l42 2zm-340-23v-63l-118-13c-64-6-127-14-138-17-20-5-22-1-27 53-2 32-2 61 2 66 9 9 171 35 234 36l47 1z"/>
  </g>
</svg>
