<?xml version="1.0"?>
<svg xmlns="http://www.w3.org/2000/svg" height="200pt" preserveAspectRatio="xMidYMid meet" viewBox="0 0 200 200" width="200pt">
  <g transform="matrix(.1 0 0 -.1 0 200)">
    <path d="m520 1925c-10-12-11-41-4-124l9-109-35-6c-19-3-96-11-170-18-106-10-138-16-153-31-16-16-17-21-4-40 19-29 58-31 227-13 74 7 137 12 140 9s7-42 8-87l4-83-110-17c-61-9-122-14-135-11-20 5-29 1-41-17-14-21-12-42 19-248 19-124 37-235 40-247 8-33 68-46 147-33 106 17 98 25 98-100 0-106-1-110-22-114-13-3-86-17-163-31-230-43-274-55-285-76-8-13-7-25 0-39 13-24 46-26 138-5 37 9 126 26 198 39l131 23 7-221c7-247 10-272 37-287 21-11 53 1 61 23 3 7 1 120-4 252-5 131-8 240-6 241 6 6 170 25 277 33 89 6 106 10 117 27 12 18 11 24-2 43s-24 22-82 22c-64 0-210-13-279-25l-33-6v114 114l91 5c110 7 130 19 111 71-9 25-10 80-3 218 10 202 8 230-20 255-16 14-33 16-108 11l-88-6-7 67c-11 121-23 109 115 113 105 4 122 6 135 23 19 26 18 32-7 57-19 19-27 20-140 13-99-6-119-4-119 7 0 22-20 181-25 207-6 26-45 31-65 7zm246-606c-3-17-6-49-6-69v-38l-60-4c-69-3-70-2-70 77 0 61 2 62 89 64l54 1zm-222-49c8-70 4-80-32-80-15-1-55-7-89-14l-61-13-12 65c-6 35-8 67-5 71 7 7 124 28 166 30 25 1 27-2 33-59zm206-225v-75h-55-55v68c0 38 3 72 7 75 3 4 28 7 55 7h48zm-200-14v-78l-72-12c-39-6-75-8-79-4s-10 38-14 74l-7 67 73 12c41 7 79 14 84 15 6 2 11 4 13 4 1 1 2-34 2-78z"/>
    <path d="m1475 1453c-99-9-270-35-287-44-22-12-24-52-3-69 12-10 39-10 138 3 67 9 174 19 237 23 81 5 120 11 133 22 21 19 22 36 1 56-15 16-105 19-219 9z"/>
    <path d="m1520 1039c-216-27-470-79-492-101s-23-32-2-52c20-21 25-21 199 14 82 16 151 28 153 26 1-2-45-125-104-272-154-392-148-372-135-400 8-19 18-24 48-24 56 1 504 120 530 141 16 14 9 22 73-81 29-47 59-93 68-102 30-36 91-12 79 31-6 22-201 328-238 373-21 26-30 30-52 24-38-9-35-49 8-113l35-52-42-11c-24-6-106-29-183-50-195-54-215-59-215-54 0 3 20 55 44 117 120 304 167 430 172 456 7 36 10 36 184 51 74 7 145 14 157 16 30 6 47 38 33 64-9 18-20 20-93 19-45-1-147-10-227-20z"/>
  </g>
</svg>
