<?xml version="1.0"?>
<svg xmlns="http://www.w3.org/2000/svg" height="200pt" preserveAspectRatio="xMidYMid meet" viewBox="0 0 200 200" width="200pt">
  <g transform="matrix(.1 0 0 -.1 0 200)">
    <path d="m435 1870c-16-18-17-34-12-154l6-134-97-7c-125-9-142-16-142-55 0-19 6-33 16-37 8-3 64-2 124 3l109 9 3-72c3-81 2-83-64-83-57 0-117-20-129-42-6-11-8-31-5-46 4-15 15-95 26-179 11-88 27-167 37-190l19-38 75 2 76 3 6-98c4-53 7-123 7-154v-56l-153-51c-169-57-200-73-195-103 7-46 30-45 185 6 82 27 153 51 159 53 7 3 13-41 17-136 3-77 11-149 17-161 12-22 54-27 67-7 4 6 8 86 8 176v165l82 25c96 30 120 49 104 79-17 32-42 34-116 11-37-11-71-17-75-12-4 4-10 68-14 141l-7 132h66c53 0 69 4 87 22 20 20 21 26 15 219-5 191-12 232-41 251-6 4-43 8-82 8-82 0-84 2-84 85 0 62 4 65 95 65 86 0 120 33 78 75-14 14-31 17-99 13l-82-4-6 43c-3 23-9 86-12 138-6 77-10 98-25 105-23 13-23 13-44-10zm205-649v-48l-41-7c-23-4-43-5-44-4-1 2-5 27-9 56l-7 52h51 50zm-186-8c3-26 3-50-1-54-5-4-29-10-55-13l-46-7-9 53-8 53 40 6c75 11 72 12 79-38zm196-198v-65h-45-45v59c0 64 4 69 58 70l32 1zm-181-37c1-35 0-36-40-43-22-4-43-5-45-2-3 3-9 30-13 61l-8 56 36 6c20 3 41 7 46 8 12 3 22-34 24-86z"/>
    <path d="m1335 1669c-150-13-286-30-311-39-38-15-41-63-5-75 9-3 17-14 18-26 2-28 17-49 112-156l81-92-56-66c-67-79-179-177-235-205-48-25-59-48-34-66 53-39 138 8 287 157l116 118 39-31c110-88 390-253 449-264 50-9 76 3 72 34-3 23-20 36-133 95-121 64-283 166-348 219l-28 23 45 69c46 70 102 192 112 243 7 36-13 62-51 67-16 2-75 0-130-5zm70-101c-11-36-73-150-98-182l-23-29-89 99-89 98 30 7c16 5 79 12 139 17 61 5 116 10 123 11 9 1 11-6 7-21z"/>
    <path d="m1272 1028c-7-7-12-39-12-80v-67l-32-5c-163-27-178-32-178-66 0-38 24-44 121-30 50 6 92 10 95 7 2-2 7-110 11-239l6-235-130-6c-181-9-222-16-234-38-7-13-6-26 2-40 11-21 15-22 148-15 75 3 240 11 366 16 405 18 486 25 496 41 14 23 10 58-8 67-11 5-124 3-281-6-145-8-265-12-266-11-2 2-6 110-10 240l-6 237 99 4c101 4 131 15 131 47 0 34-22 41-131 41h-108l-6 58c-3 31-10 64-14 72-10 20-43 24-59 8z"/>
  </g>
</svg>
