<?xml version="1.0"?>
<svg xmlns="http://www.w3.org/2000/svg" height="200pt" preserveAspectRatio="xMidYMid meet" viewBox="0 0 200 200" width="200pt">
  <g transform="matrix(.1 0 0 -.1 0 200)">
    <path d="m1362 1873c-7-3-31-33-54-66-94-139-198-268-306-379-119-122-133-150-79-156 15-2 42 6 61 18 52 32 185 176 287 313 50 67 93 124 96 126 2 3 38-29 81-70 81-79 146-132 321-261 114-84 143-97 166-78 39 32 21 53-172 196-219 162-343 276-343 315s-23 56-58 42z"/>
    <path d="m439 1843c-7-18-8-60-4-113l6-85-88-18c-122-25-173-49-173-81 0-42 30-50 103-27 35 10 84 22 109 26l45 7 7-88c3-48 3-91-1-94-5-4-48-12-97-19-106-14-136-31-136-75 2-103 28-347 39-360s32-14 115-11l103 5 7-92c3-50 6-110 6-133v-43l-102-56c-149-81-203-124-203-161 0-43 35-45 89-7 52 37 202 122 216 122 6 0 10-57 10-161 0-91 4-169 10-180 14-24 42-24 64 0 15 17 17 42 15 207l-1 188 137 62c172 79 216 117 167 143-15 8-50-3-153-45-74-30-139-57-145-60-11-5-24 100-24 194v45l89-6c84-5 90-4 111 18 20 22 21 27 10 55-12 29-8 239 6 312 4 20-1 34-19 52-22 22-32 25-76 21-28-3-73-7-101-10l-50-4v99 99l35 6c19 3 52 8 73 11 44 7 62 20 62 45 0 22-41 52-61 45-8-2-38-7-66-11l-53-6v78c0 87-15 126-48 131-16 3-25-4-33-25zm241-603v-50h-70-70v43c0 24 3 47 7 50 3 4 35 7 70 7h63zm-232-56c-2-1-34-9-70-17-75-15-78-13-78 60 0 31 1 32 58 38 31 3 64 7 72 8 11 2 16-9 18-41 2-24 2-46 0-48zm222-123v-39l-57-4c-32-2-59-4-59-3-1 0-4 19-7 43l-5 42h64 64zm-210-15v-44l-52-7c-29-3-61-9-70-11-15-5-18 2-18 40 0 45 0 45 43 54 23 6 54 10 70 11 26 1 27-1 27-43z"/>
    <path d="m1455 1329c-245-34-299-44-317-59-24-19-18-56 11-65 10-3 102 6 205 20 102 14 204 25 225 25 58 0 92 45 59 78-13 13-91 14-183 1z"/>
    <path d="m1535 1134c-88-8-238-20-333-28-200-16-222-24-222-84 0-20 7-80 16-132 10-61 18-200 22-388 7-275 8-295 26-308 28-20 43-18 59 9 11 18 12 74 7 282-3 143-6 261-6 262 2 4 172 21 176 16 3-2 7-128 10-280 5-257 6-276 24-289 25-18 31-18 52 3 16 16 17 41 11 299l-7 282 76 7c41 4 77 5 80 2 3-2 10-137 17-300 13-305 17-327 57-327 42 0 43 16 31 288-6 141-14 278-16 305l-4 47h93 94v-244l1-245-35 21c-28 16-37 18-49 8-8-7-15-18-15-25 0-19 88-113 120-130 25-13 30-13 49 3 21 17 21 24 22 462 0 245-3 453-7 463-15 41-75 44-349 21zm268-150c3-42 4-81 1-87-3-8-35-11-102-9-53 2-98 5-98 5-1 1-4 37-7 79l-5 77 41 4c23 2 69 4 103 5l61 2zm-289-21c3-42 5-77 4-79-2-1-38-5-80-9l-78-7v58c0 33-3 69-6 81-6 23-3 24 122 31l31 2zm-239-19c6-56 4-78-5-84-14-9-169-24-176-17-3 2-10 41-18 85l-12 81 40 4c23 2 69 4 103 5l61 2z"/>
  </g>
</svg>
