<?xml version="1.0"?>
<svg xmlns="http://www.w3.org/2000/svg" height="200pt" preserveAspectRatio="xMidYMid meet" viewBox="0 0 200 200" width="200pt">
  <g transform="matrix(.1 0 0 -.1 0 200)">
    <path d="m464 1948c-4-6-6-87-5-179l2-168-43-5c-24-3-95-11-158-17-141-14-180-39-131-83 19-17 58-16 289 10l52 5v-79-80l-62-7c-100-10-182-26-195-37-7-6-13-27-13-48 0-66 49-410 63-438 13-27 13-27 115-24l102 3v-120-120l-32-5c-18-3-101-13-185-22-192-21-227-37-190-88 14-18 18-19 173-2 87 9 176 19 197 22l37 6v-169c0-92 5-186 10-207 11-51 36-68 70-46 13 8 14 41 11 218l-3 209 43 7c24 4 114 11 199 16 128 7 157 12 167 26 19 26 16 42-11 59-21 14-42 15-168 5-78-5-162-13-185-16l-43-6v121 121h88c135 0 126-17 130 270 4 297 12 280-130 280h-98v78 79l106 6c108 6 134 15 134 48 0 41-23 48-138 42l-109-6-6 156c-3 86-11 166-17 177-12 22-54 27-66 8zm236-743v-65h-65-65v43c0 23-3 52-6 65-6 21-4 22 65 22h71zm-227-2c3-32 5-59 3-61-2-1-42-6-89-10l-85-8-7 54c-4 30-3 58 2 62 8 9 55 15 129 18l41 2zm227-223v-80h-65-65v74 75l43 4c97 8 87 17 87-73zm-220-9v-78l-66-7c-37-4-69-4-73-1-3 4-11 40-17 80l-10 74 40 4c23 2 60 4 84 5l42 2z"/>
    <path d="m1282 1898c-7-7-12-21-12-32 0-29-51-134-100-206-61-90-196-223-258-254-43-22-53-31-50-49 5-34 50-34 123 2 78 39 198 157 268 264 51 79 52 79 67 56 58-91 166-173 327-251 128-62 175-71 197-36 18 30-4 49-105 93-237 103-379 235-379 356 0 49-13 69-45 69-12 0-26-5-33-12z"/>
    <path d="m1310 1339c-229-18-280-30-280-69s24-45 143-31c62 7 186 15 277 18 128 4 169 9 183 21 22 19 22 35-1 55-21 19-140 21-322 6z"/>
    <path d="m1744 1153c-16-16-17-49-11-441l6-424-22 16c-48 35-77 33-77-6 0-35 115-168 144-168 49 0 49 5 40 373-4 188-8 408-8 488-1 108-5 150-15 162-17 22-35 21-57 0z"/>
    <path d="m1225 1138c-38-5-93-10-122-11s-57-7-64-14c-9-9-8-50 5-175 21-222 37-474 39-647 2-134 3-145 23-158 18-12 24-11 43 4 22 18 22 22 19 231l-3 212 30 5c118 17 132 16 139-7 3-13 6-50 6-83s7-100 15-150c19-115 19-108-11-102-34 6-58-17-44-44 12-20 108-89 126-89 6 0 19 9 28 19 16 17 16 29 6 122-6 57-13 107-16 110-2 4-13 153-24 331-23 379-27 417-48 441-16 19-37 19-147 5zm88-180 6-88h-37c-20 0-60-3-88-6l-51-6-7 58c-4 33-9 71-12 86-4 21-1 28 18 34 31 10 152 21 159 14 4-3 9-44 12-92zm11-200c3-13 6-35 6-49 0-26-2-26-82-32-45-3-86-3-90-1-13 8-9 92 5 97 6 3 44 6 83 6 66 1 72-1 78-21z"/>
    <path d="m1513 954c-15-24-16-38-5-140 12-127 22-154 56-154 42 0 50 22 37 100-6 38-11 97-11 132 0 37-5 69-12 76-20 20-46 14-65-14z"/>
  </g>
</svg>
