<?xml version="1.0"?>
<svg xmlns="http://www.w3.org/2000/svg" height="200pt" preserveAspectRatio="xMidYMid meet" viewBox="0 0 200 200" width="200pt">
  <g transform="matrix(.1 0 0 -.1 0 200)">
    <path d="m1172 1887c-6-7-13-60-14-118l-3-104-120-17c-66-10-139-20-163-23-51-7-76-42-51-71 11-14 25-15 84-10l70 6 25-61c13-33 50-107 82-163 67-117 77-102-94-141-134-30-164-48-154-88 8-34 26-34 148-3 51 14 122 30 158 36s77 13 93 16l27 6v-109-109l-124-23c-69-12-130-29-136-36-6-8-10-24-8-37 4-31 31-33 161-10l107 19v-66c0-54 15-324 33-599 4-62 27-93 55-76 31 20 35 76 18 331-9 137-16 287-16 334v86l38 6c20 4 71 9 112 12s90 8 107 11c40 6 59 35 42 65-11 21-16 22-103 16-50-4-114-10-142-13l-51-6-6 47c-4 26-7 74-7 105 0 71-13 67 250 76 107 4 203 11 213 16 9 5 17 20 17 33 0 43-28 49-218 42-164-6-173-6-167 12 14 44 65 289 65 312 0 25 3 27 68 34 76 8 92 17 92 51 0 40-33 45-202 29-84-8-165-17-179-20l-26-6-7 98c-4 54-12 103-18 110-14 17-43 17-56 0zm248-284c0-5-16-75-35-158-19-82-35-159-35-172 0-18-7-23-47-28-27-4-55-8-63-10-11-2-39 44-95 155-44 87-79 162-78 166 2 10 246 51 311 53 23 1 42-2 42-6z"/>
    <path d="m491 1821c-7-5-23-33-35-63-43-105-99-192-177-273s-95-117-63-129c20-8 59 13 116 63 26 23 49 38 51 34 3-5 8-64 11-133 4-69 9-139 12-156 4-31 4-32-63-48-127-32-261-76-273-91-15-18-10-45 12-58 12-8 53 0 165 31 81 23 151 42 155 42 7 0 23-208 16-215-2-2-49-14-103-26-120-25-135-33-135-63 0-13 25-123 55-245s55-231 55-241c0-36 30-41 167-25 70 8 159 15 198 16 38 1 81 4 95 8 42 12 49 53 49 316 1 294 4 285-102 284-40 0-97-4-128-8l-57-7-6 66c-9 103-7 160 7 165 6 2 74 13 151 24 76 11 144 26 152 32s14 22 14 35c0 17-7 25-27 30-24 7-234-17-288-32-20-5-21 2-37 201l-16 206 39 83c48 100 58 146 34 169-19 19-24 20-44 8zm217-1276 3-215h-53c-29-1-105-7-168-14-63-8-115-13-116-12-5 7-102 392-99 394 13 14 294 59 380 61l50 1z"/>
  </g>
</svg>
