<?xml version="1.0"?>
<svg xmlns="http://www.w3.org/2000/svg" height="200pt" preserveAspectRatio="xMidYMid meet" viewBox="0 0 200 200" width="200pt">
  <g transform="matrix(.1 0 0 -.1 0 200)">
    <path d="m1152 1938c-7-7-12-41-12-82 0-39-4-76-8-83-5-7-46-15-104-19l-96-7-7 59c-11 103-15 114-41 120-46 12-57-11-50-102l6-81-38-7c-62-10-207-7-219 5-15 15-51 2-58-22-4-10-2-34 4-52 15-48 61-303 61-342 0-69 36-72 380-40 188 18 302 19 387 3 80-15 87-9 102 93 6 42 24 132 41 201 36 149 36 152 9 179-21 21-28 22-155 16l-134-7v78c0 79-9 102-40 102-9 0-21-5-28-12zm274-270c-4-13-9-35-12-50-6-28-7-28-95-28h-89v35 43c-1 8 71 18 149 20 51 2 53 1 47-20zm-296-37c0-22-3-42-7-44-5-3-48-8-96-12l-88-7 3 44 3 43 60 6c131 13 125 14 125-30zm-280-30v-49l-75-11c-130-19-126-21-141 61l-6 37 83 4c46 1 96 4 112 5 26 2 27 0 27-47zm525-153c-4-29-10-55-14-59-3-3-34-3-68-1l-63 4v54 54h76 76zm-245-7v-49l-77-7c-43-4-86-9-96-12-16-4-18 1-15 49l3 53 50 6c28 3 69 7 93 7l42 2zm-280-30v-48l-81-7c-45-4-84-5-86-2-3 2-7 22-10 44l-5 40 43 6c58 8 100 13 122 15 14 1 17-7 17-48z"/>
    <path d="m1205 1185c-55-7-181-25-280-40s-224-28-278-29c-54-2-102-7-108-13-5-5-15-84-20-174s-19-220-30-289c-17-105-26-136-60-200-49-91-133-216-194-288-73-86-53-133 33-78 54 35 92 79 162 186 102 159 127 219 150 360 11 68 23 186 26 261l7 136 131 13c72 6 185 21 251 31 184 30 361 49 458 49 49 0 97 5 108 10 21 12 25 50 7 68-16 16-229 14-363-3z"/>
    <path d="m1140 953c-43-5-277-42-308-50-51-12-48-83 3-83 14 0 80 9 147 19 68 11 159 23 203 27 85 7 105 15 105 45 0 44-37 54-150 42z"/>
    <path d="m1475 774c-16-2-86-11-155-19s-195-22-280-30c-187-20-357-51-388-71-17-11-22-23-20-42 3-25 6-27 51-26h47v-105c0-58-7-167-14-241-14-136-11-162 19-174 23-9 61 14 172 102 54 43 124 97 156 121 31 24 57 50 57 58 0 41-63 15-233-96-43-28-79-51-80-51s1 35 5 78c3 42 7 134 7 203l1 126 128 16c70 9 154 19 187 22 80 7 342 36 382 41 56 8 79 47 47 78-15 16-27 17-89 10z"/>
    <path d="m1398 602c-29-26-80-68-113-94l-61-46-104 69c-104 70-134 79-153 48-15-24-3-46 49-81 26-18 112-81 191-140 256-191 560-315 630-257 23 20 16 48-14 54-110 23-402 157-495 227-54 40-56 44-35 52 77 29 98 42 150 91 58 54 71 87 45 113-20 20-36 14-90-36z"/>
  </g>
</svg>
