<?xml version="1.0"?>
<svg xmlns="http://www.w3.org/2000/svg" height="200pt" preserveAspectRatio="xMidYMid meet" viewBox="0 0 200 200" width="200pt">
  <g transform="matrix(.1 0 0 -.1 0 200)">
    <path d="m435 1690c-18-20-18-22 11-82 60-127 107-166 138-115 9 14 2 35-38 110-62 116-75 126-111 87z"/>
    <path d="m1435 1544c-22-2-143-10-270-19-282-20-299-23-303-53-7-49 11-55 147-47 68 4 131 9 139 13 33 12-5-330-53-473-22-64-129-262-177-326-42-55-46-70-22-90s82 15 120 73c60 92 136 238 160 307 30 86 63 274 71 409 3 56 9 104 12 106s87 7 185 11l179 8-6-209c-7-243-21-339-79-522-41-131-43-133-68-127-53 14-84 11-88-8-5-27 45-75 91-88 70-19 81-10 120 98 87 244 107 360 114 668 7 295 16 276-130 273-56-1-120-3-142-4z"/>
    <path d="m460 1124c-52-19-113-34-135-34-23 0-46-5-53-12-19-19-14-56 10-69 21-11 105-8 142 7 17 7 17 5 2-24-9-17-16-53-16-81 0-57 28-100 80-121 25-10 30-18 30-45 0-59-84-153-184-206-119-63-138-78-134-106 5-41 29-50 85-30 27 10 78 20 114 23 70 7 54 13 494-170 44-19 134-52 200-75 141-48 252-61 520-61 182 0 215 8 215 50 0 33-33 40-187 40-81 0-206 5-276 10-140 10-223 34-462 132s-380 155-398 162c-16 5-13 13 27 63 54 69 76 119 76 170-1 57-20 91-65 116-66 37-58 75 34 180 52 59 61 83 39 105-18 18-53 13-158-24z"/>
  </g>
</svg>
