<?xml version="1.0"?>
<svg xmlns="http://www.w3.org/2000/svg" height="200pt" preserveAspectRatio="xMidYMid meet" viewBox="0 0 200 200" width="200pt">
  <g transform="matrix(.1 0 0 -.1 0 200)">
    <path d="m435 1690c-18-20-18-22 11-82 60-127 107-166 138-115 9 14 2 35-38 110-62 116-75 126-111 87z"/>
    <path d="m1395 1620c-71-4-183-15-249-24-65-10-129-15-142-12-42 11-55-17-47-92 4-37 8-137 8-222-1-125-5-172-22-242-31-121-83-244-134-318-78-111-79-112-68-132 15-27 54-22 88 13 72 71 128 178 176 331l27 88 33-68c18-38 62-105 98-150l66-82-62-50c-34-28-102-71-150-96-74-38-88-49-85-67 4-31 47-43 97-28 45 13 203 115 240 155l24 25 41-28c22-15 86-53 142-84 208-116 272-138 294-98 16 31-11 52-196 152-94 50-181 99-193 108l-22 17 63 94c65 100 143 250 174 337 18 51 18 52-1 74-20 21-23 22-205 16-102-4-216-11-254-17s-70-9-72-8c-1 2-6 65-11 141-8 133-8 138 12 142 81 17 222 28 413 34 206 5 225 8 238 25 17 24 17 28 0 52-12 16-28 19-103 20-48 1-146-2-218-6zm79-526c-51-115-166-304-185-304s-132 161-159 227c-44 105-43 110 33 117 34 3 78 8 97 9 19 2 81 5 137 5l102 2z"/>
    <path d="m460 1124c-52-19-113-34-135-34-23 0-46-5-53-12-19-19-14-56 10-69 21-11 105-8 142 7 17 7 17 5 2-24-9-17-16-53-16-81 0-57 28-100 80-121 25-10 30-18 30-45 0-59-84-153-184-206-119-63-138-78-134-106 5-41 29-50 85-30 27 10 78 20 114 23 70 7 54 13 494-170 44-19 134-52 200-75 141-48 252-61 520-61 182 0 215 8 215 50 0 33-33 40-187 40-81 0-206 5-276 10-140 10-223 34-462 132s-380 155-398 162c-16 5-13 13 27 63 54 69 76 119 76 170-1 57-20 91-65 116-66 37-58 75 34 180 52 59 61 83 39 105-18 18-53 13-158-24z"/>
  </g>
</svg>
