<?xml version="1.0"?>
<svg xmlns="http://www.w3.org/2000/svg" height="200pt" preserveAspectRatio="xMidYMid meet" viewBox="0 0 200 200" width="200pt">
  <g transform="matrix(.1 0 0 -.1 0 200)">
    <path d="m1129 1894c-10-13-11-34-1-112 16-128 33-334 29-339-2-1-89-14-193-28-222-29-243-34-261-62-12-18-12-23 3-38 13-12 26-15 53-10 20 4 118 17 218 29l182 22 5-35c15-107 28-481 23-672-5-205-5-218 13-234s22-16 43-2c22 14 24 25 30 123 11 169 8 329-9 587-9 131-14 240-12 242 5 5 221 32 323 41 84 7 105 16 105 43-1 37-17 45-87 43-66-2-287-28-328-38-20-5-22 2-34 136-12 142-35 292-46 310-9 15-41 12-56-6z"/>
    <path d="m1374 1795c-8-33 8-50 106-115 86-56 123-62 128-22 5 31-9 45-89 97-36 24-70 48-73 54-4 6-20 11-36 11-23 0-31-5-36-25z"/>
    <path d="m435 1690c-18-20-18-22 11-82 60-127 107-166 138-115 9 14 2 35-38 110-62 116-75 126-111 87z"/>
    <path d="m460 1124c-52-19-113-34-135-34-23 0-46-5-53-12-19-19-14-56 10-69 21-11 105-8 142 7 17 7 17 5 2-24-9-17-16-53-16-81 0-57 28-100 80-121 25-10 30-18 30-45 0-59-84-153-184-206-119-63-138-78-134-106 5-41 29-50 85-30 27 10 78 20 114 23 70 7 54 13 494-170 44-19 134-52 200-75 141-48 252-61 520-61 182 0 215 8 215 50 0 33-33 40-187 40-81 0-206 5-276 10-140 10-223 34-462 132s-380 155-398 162c-16 5-13 13 27 63 54 69 76 119 76 170-1 57-20 91-65 116-66 37-58 75 34 180 52 59 61 83 39 105-18 18-53 13-158-24z"/>
    <path d="m1352 1058c-32-32-6-60 219-233 104-80 196-157 205-171 20-29 59-41 79-24 43 36 0 86-223 256-92 70-182 140-200 156-35 30-61 35-80 16z"/>
    <path d="m966 943c-8-15-60-93-115-172-110-156-123-184-98-209 23-22 59-4 90 45 13 21 54 81 92 133 83 117 107 164 103 198-2 21-9 28-30 30-21 3-30-3-42-25z"/>
  </g>
</svg>
