<?xml version="1.0"?>
<svg xmlns="http://www.w3.org/2000/svg" height="200pt" preserveAspectRatio="xMidYMid meet" viewBox="0 0 200 200" width="200pt">
  <g transform="matrix(.1 0 0 -.1 0 200)">
    <path d="m1196 1834c-9-8-16-18-16-20 0-3 5-46 10-97 6-51 17-180 24-287 16-210 16-210-36-210-46 0-259-30-331-46-55-13-71-21-79-40-9-20-8-28 5-41 15-15 23-15 105 1 97 18 325 47 331 41 9-9-81-171-155-280-45-66-100-151-124-190-24-38-58-88-76-109-39-45-43-71-14-86 32-17 75 13 126 88 103 153 237 360 257 397l22 40 7-135c4-74 14-196 23-271 8-75 15-163 15-195 0-62 11-84 41-84 50 0 60 79 34 283-8 65-17 182-21 260l-7 142 20-25c11-14 59-79 106-146 221-312 358-451 435-442 47 5 37 33-34 100-92 87-191 206-324 388-62 85-133 181-158 213-24 32-42 61-38 64 7 7 207 22 313 22 72 1 84 4 97 23 20 28 6 54-35 62-18 3-113 1-212-4-99-6-182-9-185-6s-11 79-18 168c-30 380-41 438-79 438-7 0-21-7-29-16z"/>
    <path d="m435 1690c-18-20-18-22 11-82 60-127 107-166 138-115 9 14 2 35-38 110-62 116-75 126-111 87z"/>
    <path d="m1562 1588c-170-178-197-219-156-235 30-11 85 30 190 142 102 108 118 137 92 163-24 24-49 10-126-70z"/>
    <path d="m796 1564c-30-30-18-53 54-99 25-16 67-46 93-67 52-41 77-47 97-23 18 22 4 50-48 93-61 51-154 112-169 112-6 0-19-7-27-16z"/>
    <path d="m460 1124c-52-19-113-34-135-34-23 0-46-5-53-12-19-19-14-56 10-69 21-11 105-8 142 7 17 7 17 5 2-24-9-17-16-53-16-81 0-57 28-100 80-121 25-10 30-18 30-45 0-59-84-153-184-206-119-63-138-78-134-106 5-41 29-50 85-30 27 10 78 20 114 23 70 7 54 13 494-170 44-19 134-52 200-75 141-48 252-61 520-61 182 0 215 8 215 50 0 33-33 40-187 40-81 0-206 5-276 10-140 10-223 34-462 132s-380 155-398 162c-16 5-13 13 27 63 54 69 76 119 76 170-1 57-20 91-65 116-66 37-58 75 34 180 52 59 61 83 39 105-18 18-53 13-158-24z"/>
  </g>
</svg>
