<?xml version="1.0"?>
<svg xmlns="http://www.w3.org/2000/svg" height="200pt" preserveAspectRatio="xMidYMid meet" viewBox="0 0 200 200" width="200pt">
  <g transform="matrix(.1 0 0 -.1 0 200)">
    <path d="m1122 1754c-12-8-22-23-22-33 0-32-77-176-149-275-39-55-71-103-71-107 0-5 4-30 10-56 19-90 40-414 40-604 0-201 8-241 48-251 10-3 110 5 223 18 246 28 364 31 373 9 7-20 50-19 67 1 7 9 19 60 25 113 7 53 18 140 25 193 11 92 11 99-7 119-18 21-24 21-174 15-85-3-229-17-320-30-91-14-165-24-166-23s-5 36-9 78l-6 77 63 10c82 14 285 40 371 48 65 5 69 7 93 43 22 34 26 53 31 159 8 162 2 172-100 172-84 0-290-32-393-60-38-11-73-20-77-20-3 0 16 30 44 67 108 144 169 316 122 342-15 7-25 6-41-5zm358-448c0-18-3-60-6-94l-7-61-66-6c-36-3-140-17-229-31-90-14-165-24-167-22-3 2-7 40-11 84l-7 80 79 22c124 33 271 58 362 61l52 1zm120-523c0-14-5-56-10-92-6-36-13-81-16-98l-5-33h-102c-56 0-169-9-252-20-219-29-195-40-195 94v114l28 6c128 25 368 52 490 55 61 1 62 1 62-26z"/>
    <path d="m435 1690c-18-20-18-22 11-82 60-127 107-166 138-115 9 14 2 35-38 110-62 116-75 126-111 87z"/>
    <path d="m460 1124c-52-19-113-34-135-34-23 0-46-5-53-12-19-19-14-56 10-69 21-11 105-8 142 7 17 7 17 5 2-24-9-17-16-53-16-81 0-57 28-100 80-121 25-10 30-18 30-45 0-59-84-153-184-206-119-63-138-78-134-106 5-41 29-50 85-30 27 10 78 20 114 23 70 7 54 13 494-170 44-19 134-52 200-75 141-48 252-61 520-61 182 0 215 8 215 50 0 33-33 40-187 40-81 0-206 5-276 10-140 10-223 34-462 132s-380 155-398 162c-16 5-13 13 27 63 54 69 76 119 76 170-1 57-20 91-65 116-66 37-58 75 34 180 52 59 61 83 39 105-18 18-53 13-158-24z"/>
  </g>
</svg>
