<?xml version="1.0"?>
<svg xmlns="http://www.w3.org/2000/svg" height="200pt" preserveAspectRatio="xMidYMid meet" viewBox="0 0 200 200" width="200pt">
  <g transform="matrix(.1 0 0 -.1 0 200)">
    <path d="m1265 1753c-22-2-100-10-173-18-73-9-143-13-155-10-15 4-29 0-40-13-16-17-16-27-6-93 7-45 9-134 6-229-9-265-27-569-37-638-5-37-10-113-10-168 0-108 8-129 48-122 26 4 282 252 282 273 0 48-80 17-174-67-31-28-60-48-63-44-3 3-1 50 6 103 7 54 15 166 18 249l6 151 261 7c237 7 324 16 327 34 5 27 9 87 18 302 9 211 8 248-5 268-14 21-20 22-142 20-70-1-145-3-167-5zm231-120c-3-21-6-61-6-89v-51l-172-12c-95-6-207-14-249-18l-76-6-8 87c-4 48-5 89-3 91 9 9 286 33 397 34l124 1zm-10-270c-3-21-6-59-6-85v-46l-102-6c-57-3-170-9-252-12l-149-6 7 78c4 43 9 81 12 83 7 7 298 28 408 30l89 1z"/>
    <path d="m435 1690c-18-20-18-22 11-82 60-127 107-166 138-115 9 14 2 35-38 110-62 116-75 126-111 87z"/>
    <path d="m460 1124c-52-19-113-34-135-34-23 0-46-5-53-12-19-19-14-56 10-69 21-11 105-8 142 7 17 7 17 5 2-24-9-17-16-53-16-81 0-57 28-100 80-121 25-10 30-18 30-45 0-59-84-153-184-206-119-63-138-78-134-106 5-41 29-50 85-30 27 10 78 20 114 23 70 7 54 13 494-170 44-19 134-52 200-75 141-48 252-61 520-61 182 0 215 8 215 50 0 33-33 40-187 40-81 0-206 5-276 10-140 10-223 34-462 132s-380 155-398 162c-16 5-13 13 27 63 54 69 76 119 76 170-1 57-20 91-65 116-66 37-58 75 34 180 52 59 61 83 39 105-18 18-53 13-158-24z"/>
    <path d="m1638 1110c-9-6-28-31-42-56-31-55-197-284-206-284-16 0-226 210-267 267-38 54-50 64-72 61-21-2-27-9-29-34-4-42 56-121 189-250 158-154 229-214 388-326 159-111 229-145 262-127 14 7 19 18 17 37-2 21-17 34-74 67-69 39-261 170-316 217l-28 23 90 125c49 69 104 153 122 187 32 60 32 62 14 82-21 24-24 24-48 11z"/>
  </g>
</svg>
