<?xml version="1.0"?>
<svg xmlns="http://www.w3.org/2000/svg" height="200pt" preserveAspectRatio="xMidYMid meet" viewBox="0 0 200 200" width="200pt">
  <g transform="matrix(.1 0 0 -.1 0 200)">
    <path d="m435 1690c-18-20-18-22 11-82 60-127 107-166 138-115 9 14 2 35-38 110-62 116-75 126-111 87z"/>
    <path d="m1443 1623c-15-21-49-63-75-94-53-63-57-74-30-88 33-18 103 31 163 113 33 44 36 67 13 90-24 24-41 19-71-21z"/>
    <path d="m868 1555c-10-22-8-29 18-56 41-44 123-89 162-89 27 0 32 4 32 24 0 17-12 34-37 52-21 15-58 43-82 61-53 40-77 42-93 8z"/>
    <path d="m1425 1319c-258-23-543-71-577-98-23-19-19-55 8-65 8-3 76 5 150 19 75 14 144 25 155 25 18 0 19-8 19-115 0-84-3-117-12-119-7-2-53-9-102-15-105-14-126-23-126-56 0-37 30-48 97-35 31 5 72 10 91 10 33 0 33-1 27-32-23-108-86-215-180-308-69-69-80-96-41-106 82-20 227 145 289 332l22 64 65-77c94-112 267-290 306-314 38-23 82-22 97 2 9 14-11 38-111 134-135 130-298 312-288 322 3 3 44 9 90 13 94 7 119 20 114 59l-3 26-122-2-123-1v83c0 45-3 96-6 113-8 39-9 38 196 53 91 6 171 16 178 21 19 16 14 56-7 68-22 11-61 11-206-1z"/>
    <path d="m460 1124c-52-19-113-34-135-34-23 0-46-5-53-12-19-19-14-56 10-69 21-11 105-8 142 7 17 7 17 5 2-24-9-17-16-53-16-81 0-57 28-100 80-121 25-10 30-18 30-45 0-59-84-153-184-206-119-63-138-78-134-106 5-41 29-50 85-30 27 10 78 20 114 23 70 7 54 13 494-170 44-19 134-52 200-75 141-48 252-61 520-61 182 0 215 8 215 50 0 33-33 40-187 40-81 0-206 5-276 10-140 10-223 34-462 132s-380 155-398 162c-16 5-13 13 27 63 54 69 76 119 76 170-1 57-20 91-65 116-66 37-58 75 34 180 52 59 61 83 39 105-18 18-53 13-158-24z"/>
  </g>
</svg>
