<?xml version="1.0"?>
<svg xmlns="http://www.w3.org/2000/svg" height="200pt" preserveAspectRatio="xMidYMid meet" viewBox="0 0 200 200" width="200pt">
  <g transform="matrix(.1 0 0 -.1 0 200)">
    <path d="m1404 1753c-21-26-60-71-87-100-37-40-47-57-42-72 15-50 101-4 180 96 35 44 45 65 43 88-2 24-8 31-29 33-20 2-34-7-65-45z"/>
    <path d="m816 1704c-17-17-20-33-8-50 9-16 190-110 224-118 36-8 80 9 76 31-3 16-239 152-265 153-6 0-19-7-27-16z"/>
    <path d="m435 1690c-18-20-18-22 11-82 60-127 107-166 138-115 9 14 2 35-38 110-62 116-75 126-111 87z"/>
    <path d="m1225 1430c-298-34-424-52-441-65-21-15-12-61 13-67 10-3 57 1 104 8 48 7 122 16 166 19l80 7 6-53c4-30 7-122 7-205v-151l-85-12c-47-6-92-14-100-17-10-4-16 5-20 33-10 61-27 125-46 171-15 33-23 42-43 42-43 0-51-32-26-103 12-34 24-97 27-140 8-102 19-112 113-92 119 24 170 28 170 13-1-86-65-311-110-381-34-54-37-69-15-87 24-20 63-3 94 40 48 66 121 324 121 426v24h149c149 0 149 0 178 28 28 26 30 32 41 165 14 149 7 188-32 195-28 6-46-25-46-77 0-24-5-84-11-133l-12-88h-128-129v138c0 75-5 166-10 202-6 43-6 66 1 71 6 3 71 11 146 17 136 12 163 20 163 51 0 47-60 51-325 21z"/>
    <path d="m460 1124c-52-19-113-34-135-34-23 0-46-5-53-12-19-19-14-56 10-69 21-11 105-8 142 7 17 7 17 5 2-24-9-17-16-53-16-81 0-57 28-100 80-121 25-10 30-18 30-45 0-59-84-153-184-206-119-63-138-78-134-106 5-41 29-50 85-30 27 10 78 20 114 23 70 7 54 13 494-170 44-19 134-52 200-75 141-48 252-61 520-61 182 0 215 8 215 50 0 33-33 40-187 40-81 0-206 5-276 10-140 10-223 34-462 132s-380 155-398 162c-16 5-13 13 27 63 54 69 76 119 76 170-1 57-20 91-65 116-66 37-58 75 34 180 52 59 61 83 39 105-18 18-53 13-158-24z"/>
  </g>
</svg>
