<?xml version="1.0"?>
<svg xmlns="http://www.w3.org/2000/svg" height="200pt" preserveAspectRatio="xMidYMid meet" viewBox="0 0 200 200" width="200pt">
  <g transform="matrix(.1 0 0 -.1 0 200)">
    <path d="m1320 1773c-30-2-112-10-182-18s-147-15-170-15c-71 0-113-47-73-80 16-14 121-11 305 9 52 5 128 12 169 15l74 6-27-21c-15-12-61-46-103-76l-76-54-38 26c-21 14-47 25-58 25-26 0-44-25-37-52s174-148 203-148c40 0 57 48 28 80-13 15-6 22 76 80 143 101 204 181 167 218-11 11-114 14-258 5z"/>
    <path d="m435 1690c-18-20-18-22 11-82 60-127 107-166 138-115 9 14 2 35-38 110-62 116-75 126-111 87z"/>
    <path d="m1330 1359c-58-5-181-12-274-17-161-9-170-10-188-33-13-15-18-32-14-49 3-14 10-115 17-226 9-157 9-229-1-330-18-187-18-205 2-218 42-26 72 30 87 166 5 43 11 81 14 84 6 6 106 21 200 29l77 7v-157c0-89 4-165 10-176 12-21 50-25 68-7 8 8 12 63 12 180v168h130 130v-151-151l-32 5c-92 14-90-61 1-92 50-16 86-14 106 9 17 19 18 40 11 378-10 461-16 570-36 582-18 11-171 11-320-1zm250-164v-85h-130c-148 0-137-7-142 100l-3 55 80 6c44 3 106 6 138 7l57 2zm-360 16c0-27 3-63 6-80 6-31 6-31-37-32-24 0-84-6-134-13-49-7-91-13-91-12-1 0-5 40-9 88l-7 87 98 4c55 1 116 4 137 5l37 2zm370-266v-75h-120c-66 0-123-1-127-2-5-2-9 32-11 75l-3 77h131 130zm-350-9v-75l-42-5c-24-3-72-8-108-11-36-4-78-9-93-12l-28-6 3 79 3 79 75 11c41 7 101 12 133 13l57 1z"/>
    <path d="m460 1124c-52-19-113-34-135-34-23 0-46-5-53-12-19-19-14-56 10-69 21-11 105-8 142 7 17 7 17 5 2-24-9-17-16-53-16-81 0-57 28-100 80-121 25-10 30-18 30-45 0-59-84-153-184-206-119-63-138-78-134-106 5-41 29-50 85-30 27 10 78 20 114 23 70 7 54 13 494-170 44-19 134-52 200-75 141-48 252-61 520-61 182 0 215 8 215 50 0 33-33 40-187 40-81 0-206 5-276 10-140 10-223 34-462 132s-380 155-398 162c-16 5-13 13 27 63 54 69 76 119 76 170-1 57-20 91-65 116-66 37-58 75 34 180 52 59 61 83 39 105-18 18-53 13-158-24z"/>
  </g>
</svg>
