<?xml version="1.0"?>
<svg xmlns="http://www.w3.org/2000/svg" height="200pt" preserveAspectRatio="xMidYMid meet" viewBox="0 0 200 200" width="200pt">
  <g transform="matrix(.1 0 0 -.1 0 200)">
    <path d="m1170 1775c-9-11-11-44-8-120l6-104-27-5c-14-3-83-12-153-21-69-8-134-18-142-21-23-9-32-53-14-71 14-13 31-13 154 2 76 9 152 18 167 21 28 6 28 6 25-43l-3-48-124-18c-69-10-130-22-137-28s-16-30-19-54c-9-57 20-223 44-255 17-23 25-25 120-28 55-1 101-6 101-11 0-37-149-195-283-300-69-54-78-70-52-91 37-31 121 18 265 156l75 72 3-197c2-115 8-201 14-208 14-18 43-16 62 3 14 13 16 50 16 251v236l73-69c39-38 136-122 215-187 110-89 150-117 172-117 34 0 53 26 39 52-5 9-82 77-172 151-89 75-191 165-227 201l-64 66 39 1c22 1 72 2 112 3 98 1 102 6 113 147 15 180 13 216-11 240-23 23-23 23-216 3l-63-7v46c0 32 5 47 16 51 9 3 68 9 132 12s127 7 138 10c28 5 36 37 17 63-12 19-24 21-101 20-48 0-114-4-147-8-33-5-62-7-64-5s-8 47-12 100c-5 53-13 102-20 110-15 18-43 18-59-1zm304-572c-4-60-7-109-8-109-1-1-45-5-99-9l-98-7 3 104 3 103 95 11c52 6 98 12 102 13 4 0 5-47 2-106zm-294-32v-98l-82-6c-45-3-85-4-89-2-7 5-33 174-27 180 5 5 123 22 166 24l32 1z"/>
    <path d="m435 1690c-18-20-18-22 11-82 60-127 107-166 138-115 9 14 2 35-38 110-62 116-75 126-111 87z"/>
    <path d="m460 1124c-52-19-113-34-135-34-23 0-46-5-53-12-19-19-14-56 10-69 21-11 105-8 142 7 17 7 17 5 2-24-9-17-16-53-16-81 0-57 28-100 80-121 25-10 30-18 30-45 0-59-84-153-184-206-119-63-138-78-134-106 5-41 29-50 85-30 27 10 78 20 114 23 70 7 54 13 494-170 44-19 134-52 200-75 141-48 252-61 520-61 182 0 215 8 215 50 0 33-33 40-187 40-81 0-206 5-276 10-140 10-223 34-462 132s-380 155-398 162c-16 5-13 13 27 63 54 69 76 119 76 170-1 57-20 91-65 116-66 37-58 75 34 180 52 59 61 83 39 105-18 18-53 13-158-24z"/>
  </g>
</svg>
