<?xml version="1.0"?>
<svg xmlns="http://www.w3.org/2000/svg" height="200pt" preserveAspectRatio="xMidYMid meet" viewBox="0 0 200 200" width="200pt">
  <g transform="matrix(.1 0 0 -.1 0 200)">
    <path d="m1224 1773c-14-15-16-33-11-133l5-116-97-12c-53-7-106-15-119-19-22-5-23-4-16 33 9 48 9 161 0 191-9 27-42 39-61 23-11-9-15-33-15-82 0-129-42-283-102-372-67-100-65-94-47-112 36-35 107 20 155 120 19 39 34 76 34 83 0 6 4 14 9 18 14 8 255 44 261 38 3-2 6-91 8-197l3-192-248-23c-136-12-258-25-270-28-27-6-39-38-23-58 17-21 55-19 440 14 184 16 418 35 520 41s195 16 208 20c14 6 22 18 22 34 0 50-10 51-293 29-144-11-263-20-263-19-1 0-4 90-7 199l-5 197 71 1c40 1 97 4 127 7 47 6 55 10 58 30 7 46-11 52-143 52h-122l-6 111c-4 61-12 118-18 125-15 19-34 18-55-3z"/>
    <path d="m435 1690c-18-20-18-22 11-82 60-127 107-166 138-115 9 14 2 35-38 110-62 116-75 126-111 87z"/>
    <path d="m460 1124c-52-19-113-34-135-34-23 0-46-5-53-12-19-19-14-56 10-69 21-11 105-8 142 7 17 7 17 5 2-24-9-17-16-53-16-81 0-57 28-100 80-121 25-10 30-18 30-45 0-59-84-153-184-206-119-63-138-78-134-106 5-41 29-50 85-30 27 10 78 20 114 23 70 7 54 13 494-170 44-19 134-52 200-75 141-48 252-61 520-61 182 0 215 8 215 50 0 33-33 40-187 40-81 0-206 5-276 10-140 10-223 34-462 132s-380 155-398 162c-16 5-13 13 27 63 54 69 76 119 76 170-1 57-20 91-65 116-66 37-58 75 34 180 52 59 61 83 39 105-18 18-53 13-158-24z"/>
    <path d="m1549 865c-3-2-68-9-144-14-77-6-207-18-289-28-127-15-150-20-162-38-11-17-8-46 17-195 22-125 35-180 48-193 17-18 33-18 312-9 162 5 308 8 325 5 20-3 35 1 44 11 18 22 36 416 20 446-9 17-21 20-89 20-43 0-80-2-82-5zm84-222c-3-76-9-141-12-146-9-9-541-38-541-28 0 1-9 59-21 128-12 68-19 126-18 128 8 7 172 25 328 35 91 6 167 13 170 15 2 3 26 5 52 5h47z"/>
  </g>
</svg>
