<?xml version="1.0"?>
<svg xmlns="http://www.w3.org/2000/svg" height="200pt" preserveAspectRatio="xMidYMid meet" viewBox="0 0 200 200" width="200pt">
  <g transform="matrix(.1 0 0 -.1 0 200)">
    <path d="m1179 1853c-10-12-14-49-14-138v-122l-130-16c-164-20-231-40-241-69-8-25 30-63 54-53 23 9 170 32 250 40l72 7v-66c0-45-4-68-12-70-81-22-155-33-170-25-12 6-25 6-38-1-26-14-26-38 1-227 27-196 29-198 143-198h86v-87-88h-57c-32 0-121-7-198-15s-148-15-157-15c-25 0-41-35-28-60 13-24 39-25 267-8 89 6 165 10 167 7 3-2 8-74 12-158 6-130 10-157 26-173 22-22 32-23 54-1 15 16 16 34 10 174-6 156-6 157 17 163 12 3 119 6 238 6 154 0 218 3 227 12 18 18 14 56-7 68-12 6-110 10-250 10h-231v90 90h101c100 0 101 0 130 31l29 31v162c0 186-9 233-46 242-14 4-69 2-122-4s-97-10-98-9-6 30-9 63l-7 61 38 7c22 3 99 9 172 13 128 6 134 7 145 30 8 18 6 27-9 44-18 21-25 21-144 16-69-4-142-9-162-13l-38-7v114c0 88-4 120-16 137-18 26-36 28-55 5zm261-592v-48l-90-9-90-10v48c0 41 3 48 23 53 31 7 76 12 120 14l37 1zm-270-29v-48l-67-10c-38-6-69-11-69-10-1 1-5 20-9 43l-6 41 63 15c91 22 88 23 88-31zm270-162v-50h-54c-29 0-68-3-85-6l-31-6v50 51l38 4c20 2 58 4 85 5l47 2zm-260-19v-48l-57-6c-32-3-59-4-61-2-3 2-8 22-12 44l-7 39 56 10c31 5 62 10 69 11 8 1 12-15 12-48z"/>
    <path d="m435 1690c-18-20-18-22 11-82 60-127 107-166 138-115 9 14 2 35-38 110-62 116-75 126-111 87z"/>
    <path d="m460 1124c-52-19-113-34-135-34-23 0-46-5-53-12-19-19-14-56 10-69 21-11 105-8 142 7 17 7 17 5 2-24-9-17-16-53-16-81 0-57 28-100 80-121 25-10 30-18 30-45 0-59-84-153-184-206-119-63-138-78-134-106 5-41 29-50 85-30 27 10 78 20 114 23 70 7 54 13 494-170 44-19 134-52 200-75 141-48 252-61 520-61 182 0 215 8 215 50 0 33-33 40-187 40-81 0-206 5-276 10-140 10-223 34-462 132s-380 155-398 162c-16 5-13 13 27 63 54 69 76 119 76 170-1 57-20 91-65 116-66 37-58 75 34 180 52 59 61 83 39 105-18 18-53 13-158-24z"/>
  </g>
</svg>
