<?xml version="1.0"?>
<svg xmlns="http://www.w3.org/2000/svg" height="200pt" preserveAspectRatio="xMidYMid meet" viewBox="0 0 200 200" width="200pt">
  <g transform="matrix(.1 0 0 -.1 0 200)">
    <path d="m435 1690c-18-20-18-22 11-82 60-127 107-166 138-115 9 14 2 35-38 110-62 116-75 126-111 87z"/>
    <path d="m1178 1690c-170-13-252-26-283-46-26-17-27-21-21-73 22-192 26-257 21-346-13-204-54-499-86-608-26-89-23-121 13-125 52-6 84 82 123 338 38 256 51 454 37 591-6 63-14 124-18 135-5 19-1 22 38 28 23 3 165 9 315 12l272 7 5-34c11-73 17-276 17-539-1-151 4-329 10-395s9-137 7-158l-3-37-38 26c-43 29-67 26-67-8 0-41 55-95 117-115l55-17 20 24c16 20 19 34 14 75-3 27-10 259-16 515-9 434-21 686-36 723-3 8-13 19-22 23-25 11-338 13-474 4z"/>
    <path d="m1238 1559c-14-8-18-23-18-68 0-64-6-71-61-71-43 0-69-17-69-44 0-36 23-49 80-44l50 5v-93-93l-57-6c-114-14-136-20-150-41-12-19-11-24 5-44 17-22 20-22 112-11 52 7 162 16 243 21 87 5 154 14 163 21 21 17 17 57-6 69-13 7-55 9-120 4l-100-7v97 96h53c58 0 97 20 97 49 0 32-28 45-90 43l-58-2-7 55c-4 39-12 58-25 65-22 12-21 12-42-1z"/>
    <path d="m460 1124c-52-19-113-34-135-34-23 0-46-5-53-12-19-19-14-56 10-69 21-11 105-8 142 7 17 7 17 5 2-24-9-17-16-53-16-81 0-57 28-100 80-121 25-10 30-18 30-45 0-59-84-153-184-206-119-63-138-78-134-106 5-41 29-50 85-30 27 10 78 20 114 23 70 7 54 13 494-170 44-19 134-52 200-75 141-48 252-61 520-61 182 0 215 8 215 50 0 33-33 40-187 40-81 0-206 5-276 10-140 10-223 34-462 132s-380 155-398 162c-16 5-13 13 27 63 54 69 76 119 76 170-1 57-20 91-65 116-66 37-58 75 34 180 52 59 61 83 39 105-18 18-53 13-158-24z"/>
    <path d="m1200 901c-99-21-103-24-96-75 3-22 11-97 16-165 6-68 14-129 20-136 14-17 340-11 351 7 5 7 9 90 9 185 0 143-3 174-16 187-21 21-181 20-284-3zm210-180v-109l-97-4c-54-2-99-4-100-3 0 0-3 47-5 104-3 104-3 105 22 112 14 4 60 7 103 8l77 1z"/>
  </g>
</svg>
