<?xml version="1.0"?>
<svg xmlns="http://www.w3.org/2000/svg" height="200pt" preserveAspectRatio="xMidYMid meet" viewBox="0 0 200 200" width="200pt">
  <g transform="matrix(.1 0 0 -.1 0 200)">
    <path d="m435 1690c-18-20-18-22 11-82 60-127 107-166 138-115 9 14 2 35-38 110-62 116-75 126-111 87z"/>
    <path d="m1102 1688c-7-7-12-24-12-40 0-34-35-129-83-223-40-80-97-159-186-260-47-52-61-75-59-95 2-19 10-26 29-28 27-3 88 48 162 137l37 45v-150c0-82 5-259 12-393 9-198 15-247 28-263 16-21 19-21 365-8 313 12 350 15 367 32 22 22 22 28 4 54-13 17-26 19-108 17-51-1-132-5-180-8-102-8-95-17-106 137l-7 95 109 7c116 7 136 15 136 51 0 41-20 47-138 39l-111-7-3 94c-2 52-2 96 0 98 1 3 57 8 123 13 67 4 128 13 135 19 8 6 14 22 14 35 0 39-31 46-160 36-63-5-117-8-119-6-2 1-6 41-8 88l-6 86 29 1c138 2 305 18 318 29 23 18 20 47-6 64-19 12-48 13-168 5-80-5-153-11-164-13-17-5-17-4 1 17 30 34 60 88 74 134 14 49 2 73-36 73-18 0-32-19-73-101-29-55-52-109-52-118 0-15-12-19-67-24-38-4-80-7-94-7h-27l46 103c65 144 70 247 13 247-9 0-22-5-29-12zm158-501v-83l-90-10-90-9v87 87l28 4c15 2 55 5 90 6l62 1zm10-272v-94l-32-5c-18-3-58-10-88-15s-57-7-59-5-6 48-9 103l-5 100 39 4c22 2 65 4 97 5l57 2zm4-207c3-13 7-64 11-115l6-92-48-6c-26-3-67-8-90-11s-43-1-46 3-6 55-8 113l-4 105 75 11c41 6 81 12 87 13 7 0 15-9 17-21z"/>
    <path d="m460 1124c-52-19-113-34-135-34-23 0-46-5-53-12-19-19-14-56 10-69 21-11 105-8 142 7 17 7 17 5 2-24-9-17-16-53-16-81 0-57 28-100 80-121 25-10 30-18 30-45 0-59-84-153-184-206-119-63-138-78-134-106 5-41 29-50 85-30 27 10 78 20 114 23 70 7 54 13 494-170 44-19 134-52 200-75 141-48 252-61 520-61 182 0 215 8 215 50 0 33-33 40-187 40-81 0-206 5-276 10-140 10-223 34-462 132s-380 155-398 162c-16 5-13 13 27 63 54 69 76 119 76 170-1 57-20 91-65 116-66 37-58 75 34 180 52 59 61 83 39 105-18 18-53 13-158-24z"/>
  </g>
</svg>
