<?xml version="1.0"?>
<svg xmlns="http://www.w3.org/2000/svg" height="200pt" preserveAspectRatio="xMidYMid meet" viewBox="0 0 200 200" width="200pt">
  <g transform="matrix(.1 0 0 -.1 0 200)">
    <path d="m1412 1828c-5-7-14-36-20-64-6-27-27-95-47-150-39-108-40-144-1-144 25 0 46 19 69 66 18 36 22 37 243 55 144 11 184 24 184 58 0 38-24 44-148 37-64-4-143-11-175-15-51-7-57-6-52 8 17 44 25 122 15 141-12 22-52 27-68 8z"/>
    <path d="m892 1788c-8-8-12-55-12-145 0-152 15-134-125-152-88-12-124-36-105-71 14-27 35-31 108-20 121 17 112 24 112-84 0-106-37-394-77-599-29-150-27-169 19-175 14-2 30 3 36 10 12 15 63 278 82 418 21 161 13 147 90 164 101 23 98 24 89-36-4-29-8-146-8-260-1-115-4-208-8-208-5 0-21 9-38 20-51 34-83 23-71-24 7-27 140-136 166-136 39 0 42 19 44 307 2 153 6 308 11 345 6 50 4 72-5 83-16 19-91 20-177 1l-63-13v104c0 119-19 105 160 123 63 7 121 17 128 22 17 15 15 53-4 69-13 10-36 11-123 1-169-19-151-33-151 116 0 134-5 152-45 152-12 0-26-5-33-12z"/>
    <path d="m435 1690c-18-20-18-22 11-82 60-127 107-166 138-115 9 14 2 35-38 110-62 116-75 126-111 87z"/>
    <path d="m1500 1408c-83-10-100-20-100-54 0-37 28-45 132-36 51 5 94 8 95 7 2-1-9-17-23-36s-41-65-61-103l-35-69 16-50c9-28 15-51 13-53s-61-10-132-19-135-21-142-27c-18-14-16-53 2-68 12-10 41-10 148 2 72 8 134 13 137 11 8-7 13-423 6-423-4 0-20 9-35 21-38 28-67 22-64-14 4-59 90-135 138-123 46 12 50 33 50 298 0 287-15 258 131 258 75 0 96 3 115 19 21 16 22 22 11 45l-12 26h-128-128l-18 54-17 55 76 101c41 56 75 105 75 110s3 15 6 23c3 9-4 25-15 36-18 18-32 21-93 20-40-1-107-6-148-11z"/>
    <path d="m460 1124c-52-19-113-34-135-34-23 0-46-5-53-12-19-19-14-56 10-69 21-11 105-8 142 7 17 7 17 5 2-24-9-17-16-53-16-81 0-57 28-100 80-121 25-10 30-18 30-45 0-59-84-153-184-206-119-63-138-78-134-106 5-41 29-50 85-30 27 10 78 20 114 23 70 7 54 13 494-170 44-19 134-52 200-75 141-48 252-61 520-61 182 0 215 8 215 50 0 33-33 40-187 40-81 0-206 5-276 10-140 10-223 34-462 132s-380 155-398 162c-16 5-13 13 27 63 54 69 76 119 76 170-1 57-20 91-65 116-66 37-58 75 34 180 52 59 61 83 39 105-18 18-53 13-158-24z"/>
  </g>
</svg>
