<?xml version="1.0"?>
<svg xmlns="http://www.w3.org/2000/svg" height="200pt" preserveAspectRatio="xMidYMid meet" viewBox="0 0 200 200" width="200pt">
  <g transform="matrix(.1 0 0 -.1 0 200)">
    <path d="m435 1690c-18-20-18-22 11-82 60-127 107-166 138-115 9 14 2 35-38 110-62 116-75 126-111 87z"/>
    <path d="m1335 1643c-38-1-144-7-235-13s-188-12-216-14c-29-2-57-6-63-10-14-9-14-75-1-208 13-125 21-148 54-148 44 0 50 21 38 125-7 52-12 107-12 122v29l188 12c103 7 274 12 380 12h194l-22-32c-99-150-83-227 24-115 64 66 120 168 112 203-4 14-18 29-32 34-23 9-223 11-409 3z"/>
    <path d="m1230 1510c-13-13-20-33-20-59 0-38-1-39-42-46-123-19-177-49-162-89 9-25 37-27 103-11 34 9 74 15 89 13 25-3 27-6 30-61 2-40-1-58-10-61-48-13-138-28-165-27-51 2-57-21-34-142 11-56 22-128 26-159 4-32 13-62 21-69 9-8 37-8 100 0 48 6 89 10 90 8 2-1 6-33 10-70l7-67-79-1c-44 0-146-6-228-12-123-10-151-15-160-29-16-26 3-51 45-59 18-4 85-3 149 2 63 5 151 9 196 9h81l7-152c7-160 18-198 55-198 39 0 43 20 35 192l-7 164 212-4c221-5 241-2 241 39 0 39-35 46-248 52-112 3-205 7-207 9s-7 31-11 66l-7 62h77c112 0 113 2 115 182 2 141-6 194-32 210-7 4-51 8-98 8h-87l-7 55c-3 30-3 60 1 66 4 7 25 9 61 4 60-7 103 11 103 43 0 33-22 42-102 42h-78v31c0 62-37 92-70 59zm220-425v-35h-60-60v35 35h60 60zm-210-9v-33l-62-6c-64-6-81 2-75 33 2 15 69 38 115 39 19 1 22-4 22-33zm208-143c-3-26-7-28-55-31l-53-3v30c0 31 0 31 56 31 54 0 55 0 52-27zm-198-13c0-28-3-30-37-30-21 0-48-3-60-6-21-6-23-3-23 30v36h60 60z"/>
    <path d="m460 1124c-52-19-113-34-135-34-23 0-46-5-53-12-19-19-14-56 10-69 21-11 105-8 142 7 17 7 17 5 2-24-9-17-16-53-16-81 0-57 28-100 80-121 25-10 30-18 30-45 0-59-84-153-184-206-119-63-138-78-134-106 5-41 29-50 85-30 27 10 78 20 114 23 70 7 54 13 494-170 44-19 134-52 200-75 141-48 252-61 520-61 182 0 215 8 215 50 0 33-33 40-187 40-81 0-206 5-276 10-140 10-223 34-462 132s-380 155-398 162c-16 5-13 13 27 63 54 69 76 119 76 170-1 57-20 91-65 116-66 37-58 75 34 180 52 59 61 83 39 105-18 18-53 13-158-24z"/>
  </g>
</svg>
