<?xml version="1.0"?>
<svg xmlns="http://www.w3.org/2000/svg" height="200pt" preserveAspectRatio="xMidYMid meet" viewBox="0 0 200 200" width="200pt">
  <g transform="matrix(.1 0 0 -.1 0 200)">
    <path d="m1055 1748c-212-10-207-8-197-107 4-36 7-129 7-206v-140l-30-3c-89-7-115-14-125-32-7-14-4-57 11-152 17-107 21-173 20-337 0-137 3-209 10-218 15-18 44-17 63 3 23 23 22 366-3 526l-17 118 30 4c82 13 865 41 874 31 6-6-45-584-52-593-2-1-29 20-60 48-31 27-66 50-77 50-54 0-18-71 83-165 94-87 141-87 146 1 1 27 9 119 17 204s19 211 25 280c5 69 13 153 16 186 6 57 5 63-15 74-14 7-56 10-112 8l-89-3 5 60c12 158 15 336 5 355s-21 20-183 18c-95 0-253-5-352-10zm451-109c-3-17-6-39-6-49 0-16-15-19-127-25-129-8-171-16-185-38-4-7-8-58-8-114v-103h-64c-35 0-83-3-108-6l-45-6-6 163c-3 90-9 172-12 181-8 19 28 22 384 26l184 2zm-10-230c-3-39-9-75-12-80s-52-9-110-9h-104v75 74l58 4c31 2 84 4 116 5l59 2z"/>
    <path d="m435 1690c-18-20-18-22 11-82 60-127 107-166 138-115 9 14 2 35-38 110-62 116-75 126-111 87z"/>
    <path d="m460 1124c-52-19-113-34-135-34-23 0-46-5-53-12-19-19-14-56 10-69 21-11 105-8 142 7 17 7 17 5 2-24-9-17-16-53-16-81 0-57 28-100 80-121 25-10 30-18 30-45 0-59-84-153-184-206-119-63-138-78-134-106 5-41 29-50 85-30 27 10 78 20 114 23 70 7 54 13 494-170 44-19 134-52 200-75 141-48 252-61 520-61 182 0 215 8 215 50 0 33-33 40-187 40-81 0-206 5-276 10-140 10-223 34-462 132s-380 155-398 162c-16 5-13 13 27 63 54 69 76 119 76 170-1 57-20 91-65 116-66 37-58 75 34 180 52 59 61 83 39 105-18 18-53 13-158-24z"/>
    <path d="m1121 1074c-67-8-137-22-153-30l-30-16 7-106c15-221 17-236 45-249 18-8 76-9 207-5 151 6 185 10 199 24 21 21 31 78 40 240 5 97 4 131-6 143-16 19-133 19-309-1zm225-171c-11-154 4-139-154-146-75-4-140-3-143 1-4 4-10 55-13 113l-7 106 93 10c51 5 124 11 162 11l69 2z"/>
  </g>
</svg>
