<?xml version="1.0"?>
<svg xmlns="http://www.w3.org/2000/svg" height="200pt" preserveAspectRatio="xMidYMid meet" viewBox="0 0 200 200" width="200pt">
  <g transform="matrix(.1 0 0 -.1 0 200)">
    <path d="m1527 1672c-117-117-139-154-101-169 25-9 53 9 157 103 109 97 134 132 117 164-22 41-51 24-173-98z"/>
    <path d="m874 1695c-7-29 19-66 133-193 54-60 70-73 92-70 21 2 27 9 29 33 2 26-8 43-65 106-38 41-81 91-97 112-36 46-82 52-92 12z"/>
    <path d="m436 1695c-24-25-20-41 31-132 32-58 54-85 70-89 65-17 69 29 12 129-22 40-44 79-48 87-11 21-46 24-65 5z"/>
    <path d="m1450 1429c-118-7-570-53-653-66-44-7-63-33-47-63 13-24 24-24 195-5 72 8 139 15 150 15 14 0-7-26-77-97-98-99-131-144-121-169 3-8 15-14 28-14 26 0 27-6 46-295 9-139 9-199 1-222-8-24-7-36 3-50 12-17 33-18 257-18 134 0 251-4 261-9 24-11 46-1 56 27 5 13 11 171 12 351 3 288 1 328-13 342-13 13-36 16-109 15-92-2-244-14-324-27l-40-7 63 67c34 37 64 77 68 91 4 18 15 26 38 30 48 8 321 25 412 25 66 0 84 3 97 18 21 23 21 36 1 56-17 18-83 19-304 5zm26-385c-3-26-6-57-6-70 0-23-3-24-72-24-71-1-231-14-315-26l-43-6v65 64l93 13c81 10 233 24 321 29 29 1 29 1 22-45zm-6-238v-53l-117-6c-65-3-156-13-202-22s-84-15-86-13c-1 2-5 29-9 60l-6 57 34 6c66 13 182 22 284 24l102 1zm-2-203 3-63h-49c-27 0-117-3-201-7l-152-6 3 49 3 49 70 13c68 13 259 31 300 28 17-1 20-9 23-63z"/>
    <path d="m460 1124c-52-19-114-34-137-34-64 0-93-39-55-73 21-19 88-22 139-8l33 10-15-29c-20-38-19-119 1-148 9-13 33-34 55-48 48-30 50-53 11-115-39-60-99-112-174-150-98-49-120-67-116-97 5-40 30-49 85-30 26 10 75 20 109 24 67 7 36 17 444-149 357-144 417-157 756-157 196 0 234 7 234 45 0 40-17 45-159 45-180 0-404 17-466 34-72 20-214 74-415 156-157 65-249 102-288 115-10 4-2 19 26 53 59 70 82 120 82 175 0 62-20 100-65 121-65 31-60 63 25 164 60 72 70 98 48 120-18 18-54 13-158-24z"/>
  </g>
</svg>
