<?xml version="1.0"?>
<svg xmlns="http://www.w3.org/2000/svg" height="200pt" preserveAspectRatio="xMidYMid meet" viewBox="0 0 200 200" width="200pt">
  <g transform="matrix(.1 0 0 -.1 0 200)">
    <path d="m1236 1844c-11-10-16-34-16-75 0-56-1-59-25-59-13 0-70-5-126-12-91-10-102-13-112-35-9-20-7-27 10-44 19-19 25-20 116-10 139 16 133 17 141-26 3-21 3-75-1-119l-6-82-106-11c-112-13-330-47-355-57-21-8-28-32-15-56 10-19 17-20 73-14 33 3 80 9 102 12 40 6 42 5 48-24 4-16 26-61 50-100l43-69-100-17c-56-9-107-22-114-28-18-15-16-57 3-65 14-5 296 27 371 43 24 5 30-14 35-111l3-50-100-13c-104-14-125-23-125-52 0-35 26-43 113-36 45 4 92 9 105 13 22 5 23 4 20-58l-3-63-179-18c-222-22-256-31-256-62 0-46 14-48 223-26 108 11 203 20 210 20 11 0 15-26 20-111 6-111 15-139 46-139 35 0 41 21 41 141v116l68 6c37 4 146 12 242 18 96 7 181 17 188 22 6 5 12 20 12 33 0 44-25 47-248 30-114-9-221-18-238-20l-31-4-7 60c-3 34-5 63-3 64 1 2 54 8 117 14 63 7 121 16 128 22 21 17 15 58-10 67-13 5-70 4-131-1-59-6-109-9-111-7s-7 38-11 80l-7 76 58 6c33 4 118 10 189 13 136 7 175 18 175 53 0 39-23 44-170 37-77-3-140-4-140-1s8 22 19 43c10 20 27 63 37 95l18 57h135c142 0 183 10 189 43 2 10-2 25-10 34-12 14-41 15-265 10l-253-7v119c0 137-5 131 103 131 111 0 147 9 160 38 10 21 8 27-12 43s-35 18-114 13c-51-3-104-7-119-9-28-4-28-4-28 53 0 76-27 104-64 66zm179-561c-3-15-23-64-42-109l-36-82-91-7c-50-4-92-8-94-9-5-1-112 186-112 195 0 6 196 27 315 32 33 2 62 4 64 5s0-10-4-25z"/>
    <path d="m435 1690c-18-20-18-22 11-82 60-127 107-166 138-115 9 14 2 35-38 110-62 116-75 126-111 87z"/>
    <path d="m460 1124c-52-19-113-34-135-34-23 0-46-5-53-12-19-19-14-56 10-69 21-11 105-8 142 7 17 7 17 5 2-24-9-17-16-53-16-81 0-57 28-100 80-121 25-10 30-18 30-45 0-59-84-153-184-206-119-63-138-78-134-106 5-41 29-50 85-30 27 10 78 20 114 23 70 7 54 13 494-170 44-19 134-52 200-75 141-48 252-61 520-61 182 0 215 8 215 50 0 33-33 40-187 40-81 0-206 5-276 10-140 10-223 34-462 132s-380 155-398 162c-16 5-13 13 27 63 54 69 76 119 76 170-1 57-20 91-65 116-66 37-58 75 34 180 52 59 61 83 39 105-18 18-53 13-158-24z"/>
  </g>
</svg>
