<?xml version="1.0"?>
<svg xmlns="http://www.w3.org/2000/svg" height="200pt" preserveAspectRatio="xMidYMid meet" viewBox="0 0 200 200" width="200pt">
  <g transform="matrix(.1 0 0 -.1 0 200)">
    <path d="m1119 1729c-6-12-9-38-5-60 6-38 6-38-31-45-131-23-157-30-170-50-12-19-11-24 5-44l19-23 90 16c50 10 94 17 97 17s6-36 6-79c0-91 13-80-125-102-157-24-224-54-209-93 12-30 38-36 95-21 99 27 322 55 519 66 250 14 255 15 255 59v35h-140c-77 0-177-3-223-7l-83-7 3 82 3 82 109 10c92 8 111 13 122 30 12 18 11 24-3 44-16 23-19 24-121 17-57-4-109-8-116-9-6-1-12 15-14 38-2 22-8 45-14 52-17 20-56 15-69-8z"/>
    <path d="m435 1690c-18-20-18-22 11-82 60-127 107-166 138-115 9 14 2 35-38 110-62 116-75 126-111 87z"/>
    <path d="m1335 1233c-78-4-335-32-357-39-22-6-32-38-19-61 5-10 19-49 31-88 12-38 34-83 49-98 23-25 31-28 69-23 23 3 42 2 42-3 0-23-140-128-284-213-26-16-49-35-52-43-9-22 14-45 43-45 31 0 162 68 229 119l52 39 6-47c3-25 8-116 12-201s11-163 16-172c10-21 48-24 66-6 13 13 15 121 4 276-4 50-6 92-4 92s24-18 50-39c96-80 351-215 429-227 57-8 96 8 91 38-2 18-18 28-73 48-91 34-296 139-344 176-2 2 28 34 66 71 110 107 148 191 94 208-26 8-45-2-63-33-24-41-93-117-139-153l-41-32-25 31c-13 18-31 32-38 32-23 0-27 19-11 42 9 12 16 30 16 39 0 17 59 29 143 29 27 0 45 7 64 26 24 24 25 29 21 125-5 131-14 139-143 132zm55-141v-49l-135-12c-74-6-140-14-147-16-9-4-20 13-31 46-10 28-17 52-15 54 5 5 197 22 266 24l62 1z"/>
    <path d="m460 1124c-52-19-113-34-135-34-23 0-46-5-53-12-19-19-14-56 10-69 21-11 105-8 142 7 17 7 17 5 2-24-9-17-16-53-16-81 0-57 28-100 80-121 25-10 30-18 30-45 0-59-84-153-184-206-119-63-138-78-134-106 5-41 29-50 85-30 27 10 78 20 114 23 70 7 54 13 494-170 44-19 134-52 200-75 141-48 252-61 520-61 182 0 215 8 215 50 0 33-33 40-187 40-81 0-206 5-276 10-140 10-223 34-462 132s-380 155-398 162c-16 5-13 13 27 63 54 69 76 119 76 170-1 57-20 91-65 116-66 37-58 75 34 180 52 59 61 83 39 105-18 18-53 13-158-24z"/>
  </g>
</svg>
