<?xml version="1.0"?>
<svg xmlns="http://www.w3.org/2000/svg" height="200pt" preserveAspectRatio="xMidYMid meet" viewBox="0 0 200 200" width="200pt">
  <g transform="matrix(.1 0 0 -.1 0 200)">
    <path d="m1080 1865c-8-10-11-46-8-115l3-100-30-5c-16-3-61-10-100-15-38-6-82-15-97-21-32-13-45-44-27-65 13-15 45-15 132 2 19 4 27 1 27-8 0-7 14-49 30-92 20-52 27-82 20-86-6-3-56-12-112-18-61-7-108-18-117-27-12-12-13-44-2-227 6-117 11-299 11-405 0-161 3-194 16-207 21-21 37-20 59 4 17 19 18 39 11 317-4 164-11 332-15 373s-6 76-5 78c6 9 390 44 547 50l177 7v-398-399l-42 31c-23 17-50 31-59 31-42 0-27-61 28-111 31-29 104-69 126-69 37 0 38 18 39 506 0 450-1 479-18 491-14 10-51 12-166 7-171-8-159-19-127 110 23 91 28 96 113 96 38 0 56 15 56 47 0 15-8 26-22 32-21 7-159 1-304-14l-61-6-6 97c-4 53-12 103-18 110-15 18-43 18-59-1zm208-384-23-100-63-7c-35-3-65-5-66-3-9 9-75 183-72 187 5 5 239 30 244 26 2-1-7-48-20-103z"/>
    <path d="m435 1690c-18-20-18-22 11-82 60-127 107-166 138-115 9 14 2 35-38 110-62 116-75 126-111 87z"/>
    <path d="m1195 1213c-13-13-16-30-13-74l4-58-50-11c-28-6-73-14-101-17-66-8-85-19-85-49 0-41 33-48 139-30 51 9 97 14 102 11 12-8 12-102 0-109-5-4-43-9-85-13-46-3-81-11-88-20-8-10-7-39 7-121 30-178 40-191 142-172 32 5 102 13 155 17 71 4 102 10 112 22 10 11 17 54 22 144 6 115 5 129-11 148-17 18-26 19-87 13l-68-7v39c0 22-3 49-6 60-5 20-1 22 53 28 32 4 80 10 106 13 46 5 77 23 77 44 0 22-42 50-68 45-15-3-62-8-104-12l-78-6v44c0 46-21 88-45 88-7 0-21-8-30-17zm171-550c-3-3-40-9-83-13-43-5-94-11-114-15l-37-7-11 52c-21 100-25 95 97 109 59 7 116 13 127 14 18 2 20-5 23-67 2-37 1-71-2-73z"/>
    <path d="m460 1124c-52-19-113-34-135-34-23 0-46-5-53-12-19-19-14-56 10-69 21-11 105-8 142 7 17 7 17 5 2-24-9-17-16-53-16-81 0-57 28-100 80-121 25-10 30-18 30-45 0-59-84-153-184-206-119-63-138-78-134-106 5-41 29-50 85-30 27 10 78 20 114 23 70 7 54 13 494-170 44-19 134-52 200-75 141-48 252-61 520-61 182 0 215 8 215 50 0 33-33 40-187 40-81 0-206 5-276 10-140 10-223 34-462 132s-380 155-398 162c-16 5-13 13 27 63 54 69 76 119 76 170-1 57-20 91-65 116-66 37-58 75 34 180 52 59 61 83 39 105-18 18-53 13-158-24z"/>
  </g>
</svg>
