<?xml version="1.0"?>
<svg xmlns="http://www.w3.org/2000/svg" height="200pt" preserveAspectRatio="xMidYMid meet" viewBox="0 0 200 200" width="200pt">
  <g transform="matrix(.1 0 0 -.1 0 200)">
    <path d="m1575 1763c-117-14-231-35-242-44-18-15-16-44 3-60 15-12 95-7 258 18l38 6-7-34c-14-69-9-66-108-73-130-9-188-25-204-56s-17-142-2-211c7-31 21-62 36-77 25-25 26-25 146-18 273 16 297 22 297 80 0 47-19 106-37 113-20 8-43-22-43-57 0-26-2-27-94-38-52-7-122-12-154-12-59 0-60 0-66 31-9 45-7 137 2 143 5 3 69 10 143 17s138 16 143 20c11 9 35 139 35 191 1 60-35 75-144 61z"/>
    <path d="m1035 1744c-115-15-184-31-202-46s-16-57 3-65c9-3 59 2 112 10 53 9 118 19 145 23l47 6v-49-49l-97-12c-54-6-133-17-177-23-76-11-79-13-93-47-11-27-13-55-8-112 12-137 30-166 113-179 65-10 311 3 339 18 30 15 37 46 23 97-25 87-86 99-84 17l1-40-118-6c-158-9-175-5-183 42-3 20-6 55-6 78 0 50-8 48 244 73 55 6 105 15 113 21 9 8 13 42 13 125 0 149 7 144-185 118z"/>
    <path d="m435 1690c-18-20-18-22 11-82 60-127 107-166 138-115 9 14 2 35-38 110-62 116-75 126-111 87z"/>
    <path d="m1496 1164c-9-9-16-32-16-54 0-46 2-45-179-56-63-3-120-8-128-11-10-4-13 7-13 40 0 46-18 77-45 77-23 0-45-42-45-87v-42l-71-7c-84-8-117-30-99-65 16-29 31-32 109-22l69 9 6-35c9-55 7-101-4-101-53 0-310-34-329-43-30-14-39-48-17-66 12-10 43-10 158 3 238 27 522 36 753 26 116-6 229-13 252-16 35-5 43-3 52 15 17 30-1 58-47 72-20 6-103 14-184 16l-148 5v78 78l90 8c74 5 93 10 101 25 6 13 6 25-1 39-9 18-21 20-99 20h-88l-6 42c-5 37-27 68-48 68-4 0-15-7-23-16zm-16-264v-80h-149-149l-7 65c-4 36-6 68-4 70 5 4 196 22 262 24l47 1z"/>
    <path d="m460 1124c-52-19-113-34-135-34-23 0-46-5-53-12-19-19-14-56 10-69 21-11 105-8 142 7 17 7 17 5 2-24-9-17-16-53-16-81 0-57 28-100 80-121 25-10 30-18 30-45 0-59-84-153-184-206-119-63-138-78-134-106 5-41 29-50 85-30 27 10 78 20 114 23 70 7 54 13 494-170 44-19 134-52 200-75 141-48 252-61 520-61 182 0 215 8 215 50 0 33-33 40-187 40-81 0-206 5-276 10-140 10-223 34-462 132s-380 155-398 162c-16 5-13 13 27 63 54 69 76 119 76 170-1 57-20 91-65 116-66 37-58 75 34 180 52 59 61 83 39 105-18 18-53 13-158-24z"/>
    <path d="m1062 511c-72-80-85-108-57-131 26-22 62-2 120 68 60 73 74 104 55 127-23 28-46 15-118-64z"/>
    <path d="m1542 568c-23-23-13-60 26-96 53-51 193-152 219-158 40-10 58-1 58 31 0 25-10 36-70 76-38 27-98 73-132 104-63 56-80 64-101 43z"/>
  </g>
</svg>
