<?xml version="1.0"?>
<svg xmlns="http://www.w3.org/2000/svg" height="200pt" preserveAspectRatio="xMidYMid meet" viewBox="0 0 200 200" width="200pt">
  <g transform="matrix(.1 0 0 -.1 0 200)">
    <path d="m1156 1894c-3-9-6-46-6-84v-69l-47-6c-27-4-73-11-103-18-30-6-69-10-87-8-44 3-53-18-37-87 8-32 14-84 14-117 0-40 6-69 16-84 16-23 19-23 135-16l119 7v-40-40l-82-12c-119-17-268-49-305-67-34-16-46-34-37-57 10-25 33-26 107-6 169 45 460 79 765 88 196 6 215 9 228 26 18 25 18 31-2 50-12 13-39 16-127 16-112 0-363-15-424-25-33-6-33-5-33 33 0 39 0 39 46 46 26 3 81 6 124 6 65 0 80 3 96 21 15 16 16 24 6 39-7 12-12 60-12 123 0 79-4 108-17 126-16 23-18 24-140 17l-123-7v69c0 39-5 73-12 80-17 17-55 15-62-4zm266-294c-2-41-6-77-9-80-2-3-42-7-88-8l-83-4-4 76-3 76 30 5c38 6 114 12 140 11 18-1 20-7 17-76zm-269-22 5-77-66-6c-37-3-77-8-88-10-20-4-22 1-28 53-4 31-9 64-12 74-4 13 8 18 63 27 61 10 116 18 119 16 1 0 4-35 7-77z"/>
    <path d="m435 1690c-18-20-18-22 11-82 60-127 107-166 138-115 9 14 2 35-38 110-62 116-75 126-111 87z"/>
    <path d="m1265 1173c-22-2-85-10-140-18-55-9-114-13-132-9-51 10-55-9-38-203 8-92 15-216 15-274 0-144 0-144 121-131 51 6 179 10 283 9 225-2 215-8 197 124-6 45-11 173-11 284 0 143-3 204-12 213-11 11-177 14-283 5zm213-125-3-43-75-2c-41-1-138-7-214-13-151-12-156-11-156 41 0 26 2 27 108 42 59 8 160 15 225 16l118 1zm-8-173v-45h-82c-46 0-137-7-203-15s-123-15-127-15c-5 0-8 22-8 49v49l133 9c72 6 167 11 210 11l77 2zm4-147c3-13 7-37 9-55l3-31-90-6c-50-3-146-7-213-9l-121-3-6 39c-4 21-4 42-1 46 2 5 55 14 117 20s127 13 143 15c17 1 58 4 92 5 57 1 63-1 67-21z"/>
    <path d="m460 1124c-52-19-113-34-135-34-23 0-46-5-53-12-19-19-14-56 10-69 21-11 105-8 142 7 17 7 17 5 2-24-9-17-16-53-16-81 0-57 28-100 80-121 25-10 30-18 30-45 0-59-84-153-184-206-119-63-138-78-134-106 5-41 29-50 85-30 27 10 78 20 114 23 70 7 54 13 494-170 44-19 134-52 200-75 141-48 252-61 520-61 182 0 215 8 215 50 0 33-33 40-187 40-81 0-206 5-276 10-140 10-223 34-462 132s-380 155-398 162c-16 5-13 13 27 63 54 69 76 119 76 170-1 57-20 91-65 116-66 37-58 75 34 180 52 59 61 83 39 105-18 18-53 13-158-24z"/>
    <path d="m1000 453c-56-33-65-43-68-70s1-33 22-39c20-5 41 3 87 32 73 46 89 66 73 92-18 28-45 25-114-15z"/>
    <path d="m1442 478c-7-7-12-20-12-29 0-32 0-32 272-101 95-24 118-19 118 28 0 30-3 31-118 61-209 54-241 60-260 41z"/>
  </g>
</svg>
