<?xml version="1.0"?>
<svg xmlns="http://www.w3.org/2000/svg" height="200pt" preserveAspectRatio="xMidYMid meet" viewBox="0 0 200 200" width="200pt">
  <g transform="matrix(.1 0 0 -.1 0 200)">
    <path d="m1355 1908c-44-4-107-9-140-11l-60-2 2-205c1-113 7-290 14-395 8-123 12-374 11-711-2-498-1-523 17-545 16-20 22-22 43-12l25 11 6 399c6 427-5 781-39 1284l-5 86 48 6c123 16 324 28 375 22l58-7-16-31c-50-98-209-350-253-400-28-32-51-61-51-65 0-13 15-27 45-42 39-20 132-149 195-271 42-81 125-298 117-306-2-1-58 9-126 23-83 17-147 24-199 22-71-3-77-5-80-26-5-30 32-44 168-67 58-9 141-28 185-42 147-46 168-36 146 69-42 209-155 445-292 609-35 42-37 48-23 60 39 32 231 352 271 451 23 55 23 61 8 84l-15 24-178-1c-97-1-213-6-257-11z"/>
    <path d="m396 1689c-87-10-165-24-172-30-20-17-17-57 5-68 13-7 47-7 106 0 48 6 89 8 92 5s6-33 7-67l1-62-170-28c-140-24-173-32-187-50-13-15-15-26-8-39 15-28 35-31 118-15 42 8 119 21 170 28l92 14v-36c0-20-3-59-6-87l-6-51-90-7c-103-7-128-17-128-51 0-37 29-46 120-39 65 6 80 4 80-7 0-20-52-188-88-286-26-70-139-272-203-365-24-34-24-55 0-68 36-19 69 5 120 87 83 132 74 132 101 2 12-63 29-124 36-135 19-31 55-35 179-18 60 9 141 17 180 19 38 1 76 3 82 4 7 0 20 12 29 26 15 23 15 27 0 50-14 21-15 48-9 202 7 219 10 213-110 213-76-1-157-8-266-26-41-7-44-6-37 12 10 26 73 243 80 275 6 26 7 26 128 33 67 4 130 12 140 17 15 8 18 24 20 92 1 45 3 102 4 127l1 45 125-3c114-2 126-1 143 18 15 16 16 25 7 44-12 26-62 36-194 36h-78v83c0 124-4 127-143 126-62-1-184-10-271-20zm314-133v-63l-86-7c-48-3-88-5-89-4-1 2-5 31-9 65-8 72-11 70 107 72l77 1zm0-245v-88l-86-7c-47-4-87-6-88-4s0 42 2 90l4 87 37 4c20 2 57 4 84 5l47 2zm43-718c-3-82-8-151-12-155-6-7-273-48-279-43-4 4-62 269-62 286 0 13 16 20 63 28 102 19 178 28 238 30l57 1z"/>
  </g>
</svg>
