<?xml version="1.0"?>
<svg xmlns="http://www.w3.org/2000/svg" height="200pt" preserveAspectRatio="xMidYMid meet" viewBox="0 0 200 200" width="200pt">
  <g transform="matrix(.1 0 0 -.1 0 200)">
    <path d="m452 1828c-5-7-12-69-15-138l-5-125-34-8c-133-32-261-72-274-84-20-21-17-40 9-57 20-14 30-13 93 3l72 18 45-140c26-78 44-143 42-145s-77-19-167-38c-127-26-167-38-180-54-19-23-15-46 11-59 10-6 113 10 291 45 318 62 463 84 559 84 81 0 119 21 106 59-10 33-31 37-167 29-68-3-125-4-128-2-2 3 12 69 31 147l35 142 49 3c57 4 75 15 75 48 0 41-30 47-195 41-83-3-157-8-165-12-13-4-15 13-15 115 0 96-3 123-15 130-21 13-46 12-58-2zm233-335c-4-10-23-82-43-160l-36-141-35-7c-20-3-48-8-62-11-26-5-28-2-74 130-26 75-45 142-42 149 5 13 143 41 247 51 19 1 39 4 44 4 4 1 5-6 1-15z"/>
    <path d="m1172 1770c-12-12-13-49-6-245 4-126 8-491 8-810 1-319 5-586 9-592 11-18 52-16 68 3 10 12 12 133 12 602-1 323-5 670-10 772s-9 186-8 188c1 1 118 1 259 0l257-3-66-110c-57-94-122-187-192-272-10-12-30-27-45-32-47-17-38-57 25-116 89-84 326-525 282-525-10 0-196 80-248 106-83 43-123 17-71-45 29-35 172-108 287-147 79-27 107-30 125-12 24 24 7 142-34 237-42 94-198 362-238 407l-38 44 39 43c70 76 211 288 254 382 26 56 25 101-3 119-34 22-645 28-666 6z"/>
    <path d="m540 839c-85-10-164-20-177-24-41-10-45-60-17-218 14-78 28-156 31-174 3-17 15-41 27-52 20-19 31-19 216-14 193 6 195 6 221 32 24 25 27 35 35 161 14 216 12 279-11 296-25 18-126 16-325-7zm253-94c-1-11-5-82-9-157l-7-138h-97c-53 0-124-3-157-6l-60-7-6 39c-3 22-15 86-26 144s-17 107-15 110c7 6 302 38 344 36 29-1 35-5 33-21z"/>
  </g>
</svg>
