<?xml version="1.0"?>
<svg xmlns="http://www.w3.org/2000/svg" height="200pt" preserveAspectRatio="xMidYMid meet" viewBox="0 0 200 200" width="200pt">
  <g transform="matrix(.1 0 0 -.1 0 200)">
    <path d="m562 1838c-43-40-136-114-207-163-133-93-157-122-118-144 25-13 83 13 184 84 43 30 81 55 83 55 9 0 15-60 19-186l5-120-158-22c-191-27-220-36-220-67 0-41 21-48 100-35 39 7 73 10 75 9 2-2 5-49 7-105l3-101-112-17c-61-9-125-21-142-27-36-13-50-45-27-67 14-14 26-14 128 1 170 26 158 30 158-58 0-41-2-75-4-75-23 0-112-23-123-31-17-15-17-43 1-58 11-9 34-10 93-2 43 6 120 13 171 17l92 7v-211-211l-77-23c-166-48-317-104-327-120-15-25 5-53 35-51 13 0 128 33 254 72 236 73 446 131 548 151 37 7 61 18 67 30 13 24 4 48-21 55-23 8-143-16-281-56-57-16-104-29-105-29-2 0-3 89-3 199v198l46 7c26 3 116 6 200 6 142 0 156 2 175 21 18 18 19 23 6 42s-25 22-101 25l-86 3v74c0 64 3 75 18 76 9 1 68 4 131 8 100 5 115 8 127 27 12 17 12 23 0 40-13 17-26 19-144 16l-129-3-7 32c-3 17-6 69-6 115v84l49-2c52-2 81 12 81 41 0 35-21 41-140 40-63 0-149-4-190-8s-76-7-77-6c-2 1-6 83-10 183l-6 181 40 44c61 66 68 82 43 107-11 11-25 20-30 20-6 0-45-33-88-72zm248-652v-114l-87-4c-49-2-89-4-90-4 0 1-4 51-8 113l-7 112 43 4c24 2 68 4 97 5l52 2zm-270-15v-108l-31-7c-17-3-44-6-59-6-25 0-28 4-34 46-3 26-6 73-6 105 0 67-7 63 118 78 9 1 12-27 12-108zm273-253c3-40 3-75 1-77s-40-6-84-9l-80-5v30c0 17-3 51-6 76l-7 46 69 4c38 1 76 4 85 5 13 2 17-11 22-70zm-259 20c3-18 7-52 8-75 3-39 1-42-26-47-15-3-45-6-66-6-43 0-50 12-50 97 0 58 3 60 82 62 46 1 47 0 52-31z"/>
    <path d="m1265 1846c-18-13-18-22-6-237 8-128 14-493 15-854 1-347 6-636 10-643 12-19 44-14 60 11 30 49 27 1064-5 1485-6 79-9 146-6 148 7 7 381 24 387 18 3-3-48-56-112-117-64-62-133-134-152-160l-36-48 21-42c12-23 50-87 84-142 100-160 151-276 180-414 6-30 5-33-11-29-11 3-74 22-142 42-129 38-162 37-162-3 0-28 34-52 102-71 35-10 103-30 152-44 102-30 129-32 150-10 23 23 20 63-14 183-39 134-103 269-196 413l-73 113 139 133c131 125 190 198 190 234 0 8-9 23-20 33-20 18-32 18-263 7-158-8-245-8-251-2-13 13-19 13-41-4z"/>
  </g>
</svg>
