<?xml version="1.0"?>
<svg xmlns="http://www.w3.org/2000/svg" height="200pt" preserveAspectRatio="xMidYMid meet" viewBox="0 0 200 200" width="200pt">
  <g transform="matrix(.1 0 0 -.1 0 200)">
    <path d="m1421 1787c-18-18-15-905 4-1132 8-99 18-261 21-360 4-99 11-188 16-197 11-22 41-23 59-2 18 22 15 273-6 524-13 143-18 315-19 642-1 439-1 447 19 452 23 7 285 8 285 2 0-2-19-37-42-78-52-90-108-216-108-242 0-11 20-60 44-110 70-143 113-313 151-594 4-30 2-32-18-26-12 4-52 22-89 40-82 41-108 44-108 10 0-29 92-96 187-136 63-27 96-29 110-7 12 19 3 166-17 286-34 201-105 424-160 501l-21 29 47 93c26 51 66 127 90 169 45 79 54 118 30 138-19 16-459 14-475-2z"/>
    <path d="m372 1778c-7-7-12-27-12-45 0-50-55-182-111-268-27-42-49-86-49-99 0-29 17-43 115-95 44-24 82-44 83-46 2-2-32-68-77-148-45-79-81-150-81-158 0-20 39-54 140-124 47-32 89-61 94-65 14-13-68-157-225-397-91-139-149-236-147-248 3-23 38-31 67-16 31 17 293 418 364 558 66 130 176 430 197 541 14 70 3 102-35 102-28 0-45-26-45-67 0-25-100-335-121-376-9-15-19-10-98 43l-89 59 54 98c153 275 223 459 196 518-10 21-18 26-39 23-25-3-29-9-43-74-20-84-58-184-72-184-5 0-39 16-74 36l-64 36 20 28c35 49 99 192 117 261 14 54 15 72 5 93-13 28-49 35-70 14z"/>
    <path d="m993 1710c-68-10-130-23-139-28-15-9-17-54-19-503-2-393-6-522-19-632-25-200-17-205 173-93 188 109 166 104 197 49 38-67 64-93 91-93 16 0 24 7 29 24 4 18-13 58-72 163-89 159-105 185-119 195-20 15-46 8-56-16-10-20-6-33 24-87l36-63-106-58c-58-33-107-58-108-56-2 2 0 48 5 103s9 152 10 216c0 64 3 144 6 178l7 61h122c183 0 168-27 178 330 8 269 7 293-9 311-22 24-67 24-231-1zm157-142c0-40-3-90-6-110l-7-38h-107-107l-6 92c-3 51-4 94-1 97 6 7 150 28 197 30l37 1zm-10-318v-90h-105-105v84c0 58 4 86 13 89 6 3 54 6 105 6l92 1z"/>
  </g>
</svg>
