<?xml version="1.0"?>
<svg xmlns="http://www.w3.org/2000/svg" height="200pt" preserveAspectRatio="xMidYMid meet" viewBox="0 0 200 200" width="200pt">
  <g transform="matrix(.1 0 0 -.1 0 200)">
    <path d="m470 1811c-5-11-10-49-10-84 0-74 6-70-127-83-75-7-113-25-113-53 0-36 25-44 113-37 45 3 92 9 103 12 30 8 34-13 34-223v-181l-62-7c-87-9-222-33-291-52-64-18-85-40-67-73 14-25 28-25 180 4 69 13 161 27 204 31l79 7-31-38c-41-52-234-240-297-290-27-22-78-60-113-84-48-33-62-49-60-64 4-30 58-33 111-7 23 11 80 52 127 90l85 69 7-141c17-355 24-429 44-445 15-11 44-13 139-9 210 9 349 26 363 44 17 23 15 39-7 60-18 17-20 41-27 336-5 232-10 322-20 335-9 12-25 17-56 15-39-1-257-46-297-61-16-6 10 26 115 141l53 57 162 14c136 11 165 16 176 32 19 26 16 41-10 59-20 13-39 13-127 5-57-5-105-8-107-6s23 41 56 87c77 108 164 276 159 309-2 19-10 26-31 28-22 3-31-3-45-29-118-217-258-409-297-409h-24l-3 205c-3 199-2 206 17 210 11 3 67 10 125 15 115 12 148 29 135 69-10 31-43 35-170 19l-115-13v55c0 61-19 100-50 100-11 0-24-9-30-19zm290-1080v-118l-87-7c-49-4-122-14-163-22s-76-14-77-14c-2 0-3 49-3 109v108l43 7c23 4 89 17 147 31 155 34 140 44 140-94zm3-293c4-46 7-103 7-128v-46l-108-12c-59-7-131-12-158-12h-51l-6 116c-4 64-4 120-2 124s46 13 97 19c51 7 100 14 108 16 8 1 36 3 61 4l46 1z"/>
    <path d="m1172 1770c-12-12-13-49-6-245 4-126 8-491 8-810 1-319 5-586 9-592 11-18 52-16 68 3 10 12 12 133 12 602-1 323-5 670-10 772s-9 186-8 188c1 1 118 1 259 0l257-3-66-110c-57-94-122-187-192-272-10-12-30-27-45-32-47-17-38-57 25-116 89-84 326-525 282-525-10 0-196 80-248 106-83 43-123 17-71-45 29-35 172-108 287-147 79-27 107-30 125-12 24 24 7 142-34 237-42 94-198 362-238 407l-38 44 39 43c70 76 211 288 254 382 26 56 25 101-3 119-34 22-645 28-666 6z"/>
  </g>
</svg>
