<?xml version="1.0"?>
<svg xmlns="http://www.w3.org/2000/svg" height="200pt" preserveAspectRatio="xMidYMid meet" viewBox="0 0 200 200" width="200pt">
  <g transform="matrix(.1 0 0 -.1 0 200)">
    <path d="m266 1728c-23-13-20-54 6-91 40-58 186-242 206-261 31-27 66-18 70 19 2 26-14 52-102 163-58 73-110 141-116 151-12 23-42 32-64 19z"/>
    <path d="m1550 1664c-8-2-95-8-192-14-210-12-454-37-485-50-27-11-31-51-8-70 12-10 37-10 123-1 59 7 117 14 130 17 22 4 22 3 22-95v-98l-37-7c-21-3-81-6-133-6-73 0-101-4-119-17-23-15-24-19-18-107 4-50 18-194 32-321 15-133 28-321 31-445 3-118 7-225 10-237 2-12 14-25 27-30 12-4 191-8 397-8s382-4 391-8c20-10 87 40 96 73 3 13 0 103-8 200-9 107-14 314-14 533v359l-25 20c-22 18-36 19-172 16l-148-3v101 102l128 7c161 8 152 6 168 30 12 18 11 24-2 43-14 20-23 22-97 21-45-1-89-3-97-5zm-190-204v-100h-34c-18 0-47-3-64-6l-30-6-4 98c-2 55-2 102 0 107 2 4 32 7 68 7h64zm340-305v-125h-93c-61 0-99 5-111 13-21 15-46 112-46 179 0 47 0 47 38 51 20 2 76 4 125 5l87 2zm-340 63c0-72 26-188 48-218 34-46 77-60 190-60h102v-145-145h-90c-79 0-496-32-591-45l-35-5-13 131c-6 72-11 132-9 133s20 9 40 18c42 19 128 118 162 186 13 26 29 72 36 102 6 30 14 63 16 72 4 12 18 18 52 21 26 2 57 4 70 5 20 2 22-2 22-50zm-240 23c0-56-42-149-101-224-34-42-64-76-65-74-3 3-43 285-44 304 0 1 39 4 88 6 48 1 95 4 105 5 11 1 17-5 17-17zm594-748c3-38 8-104 12-148l6-80h-371-371v127 128l38 1c20 0 127 9 237 18 110 10 255 19 321 20l122 1z"/>
    <path d="m237 1143c-27-26 17-105 151-267 47-57 68-76 87-76 18 0 26 7 31 24 7 31-5 55-75 141-31 39-76 96-99 128-30 41-49 57-66 57-12 0-26-3-29-7z"/>
    <path d="m648 743c-39-45-150-298-233-532-4-9-17-3-45 23-22 20-48 36-58 36-23 0-42-19-42-41s100-114 139-127c46-16 65 8 107 128 20 58 69 190 110 294 41 105 74 199 72 210-4 27-30 31-50 9z"/>
  </g>
</svg>
