<?xml version="1.0"?>
<svg xmlns="http://www.w3.org/2000/svg" height="200pt" preserveAspectRatio="xMidYMid meet" viewBox="0 0 200 200" width="200pt">
  <g transform="matrix(.1 0 0 -.1 0 200)">
    <path d="m1055 1890c-583-53-551-49-582-73-25-20-25-22-19-106 4-47 18-167 31-266s27-212 31-252c10-109 5-107 249-111l202-3 7-106c3-58 6-127 6-153 0-55 9-51-160-70-131-15-150-22-150-54 0-46 17-49 171-31 78 9 143 15 144 13s5-78 7-170l4-166-100-7c-167-11-444-43-564-66-133-25-164-45-126-83 19-19 26-19 139-1 282 47 743 74 1252 75 284 0 293 1 303 20 15 28 3 59-25 66-13 3-194 4-403 2l-380-3-6 65c-3 36-6 115-6 176v111l68 6c37 4 93 7 125 7 70 0 97 12 97 44 0 44-20 50-150 43-66-4-125-8-132-9-10-2-15 33-21 141-4 79-6 145-4 147 5 6 366 6 375 0 15-9 49 22 56 51 3 15 10 190 16 388l10 360-21 18c-28 22-167 21-444-3zm367-207c-2-76-5-139-5-139-1-1-85-3-187-5l-185-4-6 65c-3 36-9 95-14 131l-7 67 133 9c74 6 166 11 204 11l70 2zm-487 65c6-43 23-222 21-225s-381-31-384-28c-5 5-31 202-32 236v26l172 12c95 7 175 14 177 17 2 2 12 4 22 4 13 0 19-11 24-42zm480-432-7-136h-173-172l-7 53c-3 28-6 87-6 130 0 66 2 77 18 78 40 4 347 14 351 12 2-1 0-63-4-137zm-455 20c0-51 3-107 6-123l6-30-177-8c-97-4-178-5-180-3s-9 44-15 93c-6 50-13 102-16 116l-5 26 143 10c79 5 164 10 191 11l47 2z"/>
  </g>
</svg>
