<?xml version="1.0"?>
<svg xmlns="http://www.w3.org/2000/svg" height="200pt" preserveAspectRatio="xMidYMid meet" viewBox="0 0 200 200" width="200pt">
  <g transform="matrix(.1 0 0 -.1 0 200)">
    <path d="m1009 1886c-46-29-145-86-219-126-146-79-180-104-180-131 0-45 64-31 215 46 59 31 109 54 110 53 2-2 4-52 6-113l4-109-335-39c-333-38-380-48-380-82 0-26 30-46 63-40 18 3 158 19 312 35s295 32 314 34l34 5-6-56c-3-31-11-59-17-63-7-4-48-10-93-14-44-4-101-12-126-18-26-5-57-12-70-13-51-7-54-20-36-161 8-71 18-191 22-266 8-181-1-173 174-155 74 8 134 14 135 13s4-42 7-92l7-92-58-6c-31-4-81-9-110-13-55-6-78-26-66-57 9-24 47-30 144-20l87 9 7-79c3-44 4-81 3-82-2-2-66-8-142-14-137-11-517-64-549-76-12-5-16-16-14-38 3-28 7-31 40-34 20-2 117 8 215 23 288 41 414 48 868 49 237 1 436 5 443 9 17 11 15 52-3 67-11 9-110 12-390 14l-375 1v56c0 31-3 70-6 86l-6 30 89 12c49 6 112 11 139 11 75 0 118 42 82 78-15 15-118 15-225-2l-83-12v47c0 25-3 67-6 93l-7 46h38c21 0 78 5 127 12 69 9 94 9 109 0 45-28 79-7 79 49 0 20 11 124 25 230 30 230 31 286 8 318-16 24-18 24-137 18-67-4-147-10-178-13l-58-7v61 60l48 6c26 3 187 9 357 12 185 4 315 10 323 16 15 13 16 50 0 66s-435 16-600 1c-94-9-122-9-128 0-4 7-10 67-14 134-6 102-5 122 8 129 48 27 101 77 104 98 4 21-19 50-38 50-3 0-44-24-91-54zm327-713c-12-113 11-101-223-119l-83-7v86 85l68 7c37 3 74 8 82 9 8 2 48 4 89 5l73 1zm-396-48c0-61-3-85-12-85-7 0-60-7-118-14-58-8-105-14-106-13-4 6-22 162-19 165 4 4 191 30 228 31l27 1zm366-182c-3-21-8-59-12-84l-6-46-116-12c-65-7-123-15-129-17-10-2-13 19-13 85v89l98 7c53 3 108 7 122 9 64 8 62 9 56-31zm-369-80-3-88-105-12c-57-6-105-10-105-10-1 1-3 40-5 87l-4 85 90 11c152 19 137 28 132-73z"/>
  </g>
</svg>
