<?xml version="1.0"?>
<svg xmlns="http://www.w3.org/2000/svg" height="200pt" preserveAspectRatio="xMidYMid meet" viewBox="0 0 200 200" width="200pt">
  <g transform="matrix(.1 0 0 -.1 0 200)">
    <path d="m1435 1759c-158-13-435-60-451-76-19-19-18-47 2-64 13-11 44-8 182 14 92 15 212 30 267 34l100 6-77-81c-42-44-84-94-92-111l-16-30-71 24c-73 25-100 23-113-10-11-29 6-44 77-71 40-15 103-42 140-61 65-32 70-33 93-18 38 25 29 53-30 89l-28 18 115 116c103 105 147 162 147 191 0 5-7 17-16 25-17 18-64 19-229 5z"/>
    <path d="m403 1745c-160-14-275-40-300-67-16-18-15-33 11-246 15-125 29-237 32-249 8-39 65-56 167-48l87 7v-151-150l-52-16c-28-8-61-15-73-15-25 0-55-29-55-52 0-38 69-48 158-22l22 6 2-151c1-83 2-174 3-201v-51l-91-40c-135-59-188-111-152-147 19-19 36-15 137 37 53 27 184 84 291 126 222 88 247 107 204 150-12 11-25 14-43 10-20-5-209-77-242-93-8-4-23 377-15 385 3 3 47 18 97 32 108 31 132 53 100 92l-19 23-68-17c-38-9-79-19-91-23l-23-6v139 140l46 7c26 3 70 6 99 6 77 0 79 6 71 163-18 345-24 398-42 418-20 22-45 23-261 4zm197-145v-70h-29c-15 0-49-3-75-6l-46-7v34c0 19-4 51-9 71l-9 37 42 4c22 2 60 4 84 5l42 2zm-238-19-4-70-56-11c-31-7-67-14-79-17-23-5-25 1-38 98l-6 47 48 10c26 5 68 10 93 11l45 1zm248-175c0-18 3-60 6-93l7-60-67-8c-37-4-69-5-71-3s-9 43-15 92c-14 105-14 106 78 106h62zm-236-23c3-21 8-63 12-94l6-56-47-7c-26-3-62-6-80-6h-32l-11 82c-7 45-9 85-5 89 8 8 92 26 130 28 17 1 22-6 27-36z"/>
    <path d="m1765 1252c-198-13-672-83-845-124-82-19-113-56-74-88 12-11 27-11 77-2 319 61 653 112 740 112h28l-20-26c-39-50-17-89 36-65 39 18 123 93 139 123 27 51-2 76-81 70z"/>
    <path d="m1335 1054c-10-11-14-25-11-38 70-242 126-583 126-762v-60l-97 32c-120 40-154 46-172 35-25-16-2-48 52-71 29-12 96-42 150-68 82-38 102-44 125-36 45 16 50 85 23 333-24 226-57 404-97 533-36 113-61 139-99 102z"/>
  </g>
</svg>
