<?xml version="1.0"?>
<svg xmlns="http://www.w3.org/2000/svg" height="200pt" preserveAspectRatio="xMidYMid meet" viewBox="0 0 200 200" width="200pt">
  <g transform="matrix(.1 0 0 -.1 0 200)">
    <path d="m665 1879c-200-17-261-38-240-85 5-11 21-102 36-202 35-241 23-229 203-213 75 6 267 14 428 18 199 4 303 10 324 18 35 15 44 40 44 139 1 33 9 108 19 166 19 110 16 142-16 155-27 11-672 15-798 4zm730-91c3-3 1-25-5-50l-11-44-212-2c-281-4-521-22-608-48-14-4-19 7-28 58-12 68-8 76 39 79 14 1 75 5 135 9 123 9 681 7 690-2zm-30-235c-4-27-8-50-10-52-2-1-129-7-282-11-153-5-327-14-386-20s-112-8-117-5c-6 3-10 26-10 50v43l68 12c112 18 263 27 511 29l233 1z"/>
    <path d="m1190 1330c-522-22-990-73-1037-112-18-14-16-43 3-58 12-11 39-10 148 8 74 12 205 27 292 32 88 6 206 15 264 20 58 6 294 13 525 16 253 4 425 11 433 17 19 15 14 45-10 61-30 19-348 28-618 16z"/>
    <path d="m840 1098c-41-5-103-9-137-10-41 0-67-5-74-14-9-11-6-60 12-207 30-246 26-240 174-235l105 3v-72-71l-77-6c-121-10-147-17-151-44-7-47 13-55 125-49l103 6v-69-68l-37-6c-21-3-69-8-108-11-38-3-148-18-243-32-185-29-206-38-182-83 13-25 57-26 185-5 244 41 495 59 823 59 296 1 324 2 333 18 14 25-5 56-39 65-15 5-165 8-335 8h-307v66 66l133 7c105 6 135 10 145 23 16 23 15 38-5 58-15 15-32 17-145 10l-128-7v70 70l135 4c91 2 139 8 147 16s13 42 14 85c1 40 11 129 23 199 31 181 47 168-207 167-114-1-241-6-282-11zm406-99c-3-17-6-40-6-50 0-17-9-19-115-19h-115v45 44l88 4c48 1 102 4 121 5 33 2 33 1 27-29zm-324-28-4-48-84-7c-46-3-90-7-96-9-18-3-29 83-11 90 7 3 45 8 85 13 124 13 113 16 110-39zm294-168c-14-77-8-73-112-73h-94v55 55h106 106zm-296-28v-55h-84-83l-7 31c-14 73-12 75 112 78l62 1z"/>
  </g>
</svg>
