<?xml version="1.0"?>
<svg xmlns="http://www.w3.org/2000/svg" height="200pt" preserveAspectRatio="xMidYMid meet" viewBox="0 0 200 200" width="200pt">
  <g transform="matrix(.1 0 0 -.1 0 200)">
    <path d="m906 1914c-9-8-16-27-16-42 0-72-116-253-279-436-143-160-221-229-379-334-128-86-147-104-138-127 17-44 85-21 230 76 127 84 219 168 358 322 111 123 197 243 239 330 13 26 26 47 29 47s14-14 24-30c69-117 282-337 446-461 56-41 280-178 357-218 50-25 95-27 117-5 31 30 29 32-154 136-69 39-161 94-205 123-193 129-436 379-525 540-56 102-71 113-104 79z"/>
    <path d="m1245 1109c-250-25-316-30-475-35-96-4-181-11-187-17-20-15-15-55 6-67 11-5 82-10 160-10h140l5-42c3-24 7-84 9-134l4-92-36-5c-20-3-69-9-108-13-74-7-97-20-91-51s47-44 123-37c39 3 80 7 93 10l22 4v-154-154l-67-7c-137-15-463-73-478-85-9-7-15-22-13-33 6-42 26-42 248-8 266 41 295 43 745 45 204 1 376 6 383 10 19 11 14 41-9 62-20 18-41 19-370 19h-349l2 155 3 155 110 7c61 5 120 10 132 13 28 7 41 49 22 72-12 14-30 15-141 9l-127-7-5 43c-3 24-8 85-11 136-6 85-5 92 12 92 10 0 81 7 158 15s156 15 175 15c69 0 112 47 80 86-13 15-40 16-165 3z"/>
    <path d="m1305 554c-127-99-128-100-115-125 17-30 64-20 137 29 86 59 117 95 109 126-10 42-50 33-131-30z"/>
    <path d="m570 550c-15-27 0-51 81-128 67-63 110-80 123-46 10 26-19 68-92 133-74 65-95 73-112 41z"/>
  </g>
</svg>
