<?xml version="1.0"?>
<svg xmlns="http://www.w3.org/2000/svg" height="200pt" preserveAspectRatio="xMidYMid meet" viewBox="0 0 200 200" width="200pt">
  <g transform="matrix(.1 0 0 -.1 0 200)">
    <path d="m453 1898c-6-7-18-45-27-83-34-141-150-377-218-446-18-18-66-57-106-87-79-58-91-74-72-97 18-22 39-19 107 15 100 50 178 136 250 276 33 65 71 147 83 182l23 62 32-48c76-112 344-352 394-352 24 0 41 20 41 47 0 16-22 39-82 84-46 34-127 107-181 163-95 97-126 145-176 269-11 29-50 38-68 15z"/>
    <path d="m1370 1790c-7-14-7-46 0-107 6-49 12-148 13-222l2-134-100-23c-55-12-102-23-105-23-3-1-5 57-5 128 0 113-2 132-19 150-11 12-25 21-31 21-30 0-38-32-40-153-3-170-43-333-105-431-37-57-37-73-5-88 22-10 30-8 53 9 37 28 59 69 96 176l31 92 108 24c59 14 110 22 113 18 7-6-18-174-41-276l-16-68-132-22c-73-12-146-27-164-32-60-19-51-79 11-79 17 0 83 9 146 20s116 20 117 20c6 0-43-123-82-206-56-121-112-202-204-297-63-65-74-81-65-95 6-9 24-18 41-20 84-9 286 267 369 504l18 52 42-72c46-78 184-239 255-297 53-43 168-115 226-141 48-21 93-12 93 20 0 25-17 38-135 108-152 89-319 264-394 412-12 24-21 46-19 48 7 6 140 22 248 30 58 3 113 11 123 16 21 11 22 51 2 68-17 14-171 9-312-11-41-6-77-8-80-6-2 3 5 52 16 109s23 134 27 170l7 67 36 5c20 3 67 8 104 12 75 7 97 26 77 64-14 27-42 32-130 21-41-4-76-8-76-7-1 0-7 77-14 171-12 184-24 260-41 282-17 19-47 16-59-7z"/>
    <path d="m465 1283c-82-14-156-30-163-35-19-16-14-46 11-63 20-13 33-13 100-1l77 13v-166-167l-71-23c-52-17-73-29-81-46-8-18-8-28 2-40 16-19 45-19 104 1 26 9 49 15 51 13 1-2 5-103 6-223l4-219-25-10c-14-6-75-34-137-63-110-53-131-72-117-107 11-30 41-29 111 6 74 38 455 197 470 197 21 0 55 48 48 69-9 31-50 27-157-14-50-20-94-33-97-29-3 3-8 99-9 212l-4 207 44 15c38 13 43 19 43 45 0 29-2 30-47 33l-48 3v158 159l31 6c17 3 51 6 75 6 78 0 116 29 94 71-9 16-21 19-88 18-42 0-144-12-227-26z"/>
    <path d="m752 778c-11-14-47-107-65-170-13-44-1-64 31-54 35 12 102 133 102 187 0 37-47 62-68 37z"/>
    <path d="m292 568c-21-21-13-55 21-84 47-39 95-58 113-43 22 18 18 26-37 85-52 54-75 64-97 42z"/>
  </g>
</svg>
