<?xml version="1.0"?>
<svg xmlns="http://www.w3.org/2000/svg" height="200pt" preserveAspectRatio="xMidYMid meet" viewBox="0 0 200 200" width="200pt">
  <g transform="matrix(.1 0 0 -.1 0 200)">
    <path d="m453 1898c-6-7-18-45-27-83-34-141-150-377-218-446-18-18-66-57-106-87-79-58-91-74-72-97 18-22 39-19 107 15 100 50 178 136 250 276 33 65 71 147 83 182l23 62 32-48c76-112 344-352 394-352 24 0 41 20 41 47 0 16-22 39-82 84-46 34-127 107-181 163-95 97-126 145-176 269-11 29-50 38-68 15z"/>
    <path d="m1361 1871c-17-17-18-31-13-178l5-159-149-13c-98-8-157-17-172-27-27-18-27-17 8-184 17-82 21-127 17-205-6-129-78-489-124-620s-51-171-25-179c10-4 27-4 36 0 42 16 94 174 153 464 54 267 61 401 29 558-10 51-17 94-15 96 9 9 349 26 509 26 215 0 248 5 263 37 8 19 7 27-6 40-13 14-44 16-225 14l-209-2-6 157c-5 127-9 160-23 175-21 24-29 24-53 0z"/>
    <path d="m465 1283c-82-14-156-30-163-35-19-16-14-46 11-63 20-13 33-13 100-1l77 13v-166-167l-71-23c-52-17-73-29-81-46-8-18-8-28 2-40 16-19 45-19 104 1 26 9 49 15 51 13 1-2 5-103 6-223l4-219-25-10c-14-6-75-34-137-63-110-53-131-72-117-107 11-30 41-29 111 6 74 38 455 197 470 197 21 0 55 48 48 69-9 31-50 27-157-14-50-20-94-33-97-29-3 3-8 99-9 212l-4 207 44 15c38 13 43 19 43 45 0 29-2 30-47 33l-48 3v158 159l31 6c17 3 51 6 75 6 78 0 116 29 94 71-9 16-21 19-88 18-42 0-144-12-227-26z"/>
    <path d="m1362 1153c-5-10-26-79-45-154-20-74-79-250-132-390-112-299-117-320-83-343 23-15 28-15 81 9 79 37 266 71 529 99 25 2 30-4 70-97 24-55 53-106 64-114 19-12 24-11 45 6 23 18 23 21 10 58-31 85-101 224-166 326s-71 108-100 105c-47-5-44-39 9-125l44-72-56-6c-85-9-353-54-392-65-18-5-35-8-38-6-2 2 31 96 72 208 102 277 162 492 155 548-5 32-52 41-67 13z"/>
    <path d="m752 778c-11-14-47-107-65-170-13-44-1-64 31-54 35 12 102 133 102 187 0 37-47 62-68 37z"/>
    <path d="m292 568c-21-21-13-55 21-84 47-39 95-58 113-43 22 18 18 26-37 85-52 54-75 64-97 42z"/>
  </g>
</svg>
