<?xml version="1.0"?>
<svg xmlns="http://www.w3.org/2000/svg" height="200pt" preserveAspectRatio="xMidYMid meet" viewBox="0 0 200 200" width="200pt">
  <g transform="matrix(.1 0 0 -.1 0 200)">
    <path d="m453 1898c-6-7-18-45-27-83-34-141-150-377-218-446-18-18-66-57-106-87-79-58-91-74-72-97 18-22 39-19 107 15 100 50 178 136 250 276 33 65 71 147 83 182l23 62 32-48c76-112 344-352 394-352 24 0 41 20 41 47 0 16-22 39-82 84-46 34-127 107-181 163-95 97-126 145-176 269-11 29-50 38-68 15z"/>
    <path d="m1510 1803c-297-22-406-34-420-48-20-21-24-135-11-300 6-71 16-395 22-720 10-520 13-591 27-602 31-25 24-31 177 160 52 65 95 122 95 126 0 12-23 31-37 31-7 0-47-32-88-71l-75-72v190c0 104-3 265-7 357l-6 168 296-3c271-3 298-2 314 14 14 14 19 43 24 145 4 70 12 229 19 355 16 297 27 278-153 275-72-1-152-3-177-5zm246-99c-3-9-6-69-6-133v-118l-252-7c-139-4-269-9-289-12l-36-6-6 47c-4 26-7 85-7 130v83l98 7c237 18 303 22 401 24 90 1 102-1 97-15zm-24-451c-1-60-4-116-5-125-2-16-25-18-268-20l-267-3-6 44c-3 24-6 79-6 122v78l138 4c75 1 200 4 277 5l141 2z"/>
    <path d="m465 1283c-82-14-156-30-163-35-19-16-14-46 11-63 20-13 33-13 100-1l77 13v-166-167l-71-23c-52-17-73-29-81-46-8-18-8-28 2-40 16-19 45-19 104 1 26 9 49 15 51 13 1-2 5-103 6-223l4-219-25-10c-14-6-75-34-137-63-110-53-131-72-117-107 11-30 41-29 111 6 74 38 455 197 470 197 21 0 55 48 48 69-9 31-50 27-157-14-50-20-94-33-97-29-3 3-8 99-9 212l-4 207 44 15c38 13 43 19 43 45 0 29-2 30-47 33l-48 3v158 159l31 6c17 3 51 6 75 6 78 0 116 29 94 71-9 16-21 19-88 18-42 0-144-12-227-26z"/>
    <path d="m1224 904c-5-21 9-49 82-157 130-193 230-315 385-469 96-96 147-140 171-146 36-10 68 0 68 22 0 8-82 95-182 195l-182 181 61 63c85 87 203 245 203 272 0 29-23 48-49 40-10-3-38-31-62-63-56-76-193-241-199-241s-94 120-176 241c-50 74-63 88-86 88-21 0-29-6-34-26z"/>
    <path d="m752 778c-11-14-47-107-65-170-13-44-1-64 31-54 35 12 102 133 102 187 0 37-47 62-68 37z"/>
    <path d="m292 568c-21-21-13-55 21-84 47-39 95-58 113-43 22 18 18 26-37 85-52 54-75 64-97 42z"/>
  </g>
</svg>
