<?xml version="1.0"?>
<svg xmlns="http://www.w3.org/2000/svg" height="200pt" preserveAspectRatio="xMidYMid meet" viewBox="0 0 200 200" width="200pt">
  <g transform="matrix(.1 0 0 -.1 0 200)">
    <path d="m453 1898c-6-7-18-45-27-83-34-141-150-377-218-446-18-18-66-57-106-87-79-58-91-74-72-97 18-22 39-19 107 15 100 50 178 136 250 276 33 65 71 147 83 182l23 62 32-48c76-112 344-352 394-352 24 0 41 20 41 47 0 16-22 39-82 84-46 34-127 107-181 163-95 97-126 145-176 269-11 29-50 38-68 15z"/>
    <path d="m1525 1879c-77-5-216-12-309-17-227-10-211 13-203-287 4-126 11-428 17-670 17-644 21-725 43-739 12-8 22-8 35 0 16 11 17 39 15 385-2 332-11 674-30 1085l-6 131 134 7c74 3 204 11 289 16s196 9 246 10h91l-4-372c-2-205-8-434-14-508s-13-269-16-432c-3-164-9-298-14-298-4 0-53 16-109 36-57 19-109 33-116 30-25-10-15-35 26-65 52-38 223-121 248-121 42 0 45 17 53 349 4 174 12 382 18 462 16 228 23 983 9 997s-179 14-403 1z"/>
    <path d="m1410 1469c-153-18-200-34-200-69 0-39 24-44 134-26 58 9 146 16 196 16s100 5 111 10c21 12 25 50 7 68-14 14-131 14-248 1z"/>
    <path d="m465 1283c-82-14-156-30-163-35-19-16-14-46 11-63 20-13 33-13 100-1l77 13v-166-167l-71-23c-52-17-73-29-81-46-8-18-8-28 2-40 16-19 45-19 104 1 26 9 49 15 51 13 1-2 5-103 6-223l4-219-25-10c-14-6-75-34-137-63-110-53-131-72-117-107 11-30 41-29 111 6 74 38 455 197 470 197 21 0 55 48 48 69-9 31-50 27-157-14-50-20-94-33-97-29-3 3-8 99-9 212l-4 207 44 15c38 13 43 19 43 45 0 29-2 30-47 33l-48 3v158 159l31 6c17 3 51 6 75 6 78 0 116 29 94 71-9 16-21 19-88 18-42 0-144-12-227-26z"/>
    <path d="m1392 1110c-131-8-152-16-152-59-1-45 53-355 63-369 7-9 50-12 164-11 131 1 155 3 162 18 4 9 11 68 15 131 3 63 13 146 21 184 13 62 13 72 0 93-17 26-36 27-273 13zm184-96c-3-9-12-70-18-135l-12-119h-88c-48 0-88 3-88 8 0 4-9 59-20 122s-20 118-20 122c0 8 57 14 169 16 73 2 82 0 77-14z"/>
    <path d="m752 778c-11-14-47-107-65-170-13-44-1-64 31-54 35 12 102 133 102 187 0 37-47 62-68 37z"/>
    <path d="m292 568c-21-21-13-55 21-84 47-39 95-58 113-43 22 18 18 26-37 85-52 54-75 64-97 42z"/>
  </g>
</svg>
