<?xml version="1.0"?>
<svg xmlns="http://www.w3.org/2000/svg" height="200pt" preserveAspectRatio="xMidYMid meet" viewBox="0 0 200 200" width="200pt">
  <g transform="matrix(.1 0 0 -.1 0 200)">
    <path d="m453 1898c-6-7-18-45-27-83-34-141-150-377-218-446-18-18-66-57-106-87-79-58-91-74-72-97 18-22 39-19 107 15 100 50 178 136 250 276 33 65 71 147 83 182l23 62 32-48c76-112 344-352 394-352 24 0 41 20 41 47 0 16-22 39-82 84-46 34-127 107-181 163-95 97-126 145-176 269-11 29-50 38-68 15z"/>
    <path d="m1502 1898c-27-27-12-53 63-111 112-86 155-98 155-43 0 27-62 87-139 137-50 32-61 35-79 17z"/>
    <path d="m1239 1833c-6-17-8-60-4-108l7-80-163-24c-89-12-168-25-175-28-19-7-25-32-14-54 14-25 63-25 228 0 87 12 125 15 127 7 2-6 6-57 9-113l6-102-32-5c-18-3-67-10-107-16-80-11-101-22-101-50 0-38 25-45 128-32 53 7 104 12 113 12 12 0 20-23 33-96 10-52 17-96 15-98s-107-18-234-36c-126-18-241-37-255-44-30-13-37-47-15-66 13-11 56-7 253 19 130 18 247 35 260 38 16 4 22 1 22-11 0-9 21-74 46-144l46-127-43-38c-87-77-198-154-287-201-94-48-110-68-77-96 40-33 196 44 351 172l94 78 21-43c46-89 174-281 220-328 51-52 76-60 102-31 21 23 77 195 84 259 5 48 4 53-14 53-27 0-33-9-78-117-21-51-39-93-41-93-8 0-148 217-185 286l-40 76 64 72c72 81 97 115 97 133 0 14-28 43-42 43-6 0-42-34-81-76-58-62-72-72-80-59-10 18-67 185-67 196 0 9 35 14 210 30 129 12 170 26 170 58 0 44-20 46-216 27-102-10-187-17-189-14-9 8-42 188-36 192 3 2 60 7 126 11 86 5 125 12 138 23 21 19 22 36 0 57-14 15-31 16-117 11-56-4-115-9-132-12-31-6-32-4-37 33-4 21-9 72-12 115l-7 76 64 7c35 3 118 10 185 14 129 8 153 17 153 57 0 43-35 45-332 19l-78-7v82c0 93-10 120-46 120-18 0-27-8-35-27z"/>
    <path d="m465 1283c-82-14-156-30-163-35-19-16-14-46 11-63 20-13 33-13 100-1l77 13v-166-167l-71-23c-52-17-73-29-81-46-8-18-8-28 2-40 16-19 45-19 104 1 26 9 49 15 51 13 1-2 5-103 6-223l4-219-25-10c-14-6-75-34-137-63-110-53-131-72-117-107 11-30 41-29 111 6 74 38 455 197 470 197 21 0 55 48 48 69-9 31-50 27-157-14-50-20-94-33-97-29-3 3-8 99-9 212l-4 207 44 15c38 13 43 19 43 45 0 29-2 30-47 33l-48 3v158 159l31 6c17 3 51 6 75 6 78 0 116 29 94 71-9 16-21 19-88 18-42 0-144-12-227-26z"/>
    <path d="m752 778c-11-14-47-107-65-170-13-44-1-64 31-54 35 12 102 133 102 187 0 37-47 62-68 37z"/>
    <path d="m292 568c-21-21-13-55 21-84 47-39 95-58 113-43 22 18 18 26-37 85-52 54-75 64-97 42z"/>
  </g>
</svg>
