<?xml version="1.0"?>
<svg xmlns="http://www.w3.org/2000/svg" height="200pt" preserveAspectRatio="xMidYMid meet" viewBox="0 0 200 200" width="200pt">
  <g transform="matrix(.1 0 0 -.1 0 200)">
    <path d="m453 1898c-6-7-18-45-27-83-34-141-150-377-218-446-18-18-66-57-106-87-79-58-91-74-72-97 18-22 39-19 107 15 100 50 178 136 250 276 33 65 71 147 83 182l23 62 32-48c76-112 344-352 394-352 24 0 41 20 41 47 0 16-22 39-82 84-46 34-127 107-181 163-95 97-126 145-176 269-11 29-50 38-68 15z"/>
    <path d="m1769 1865c-3-2-144-9-315-15-347-11-429-21-446-53-15-30-4-1566 12-1596 13-25 42-27 64-6 13 13 14 107 9 783l-6 769 84 6c46 4 152 7 235 7 82 0 210 5 283 11s134 9 136 7c1-2-6-66-16-143-14-108-21-257-28-655-10-480-19-760-27-760-11 0-66 29-111 58-54 36-85 39-91 8-5-25 87-112 151-142 62-29 98-30 120-6 24 26 35 223 47 837 7 334 15 548 25 620 8 61 14 142 15 182 0 61-3 74-19 83-20 10-113 14-122 5z"/>
    <path d="m1515 1593c-57-82-61-89-45-108 21-26 43-17 97 41 57 60 73 95 53 119-27 32-57 18-105-52z"/>
    <path d="m1212 1628c-24-24-12-54 41-106 53-53 90-66 101-36 9 24-21 79-65 119-42 37-58 42-77 23z"/>
    <path d="m1527 1399c-124-10-331-45-366-62-30-14-39-48-17-66 13-11 32-10 103 3 49 9 91 16 96 16 4 0 7-116 7-258v-259l-54-15-54-15-7 121c-7 125-14 146-46 146s-39-34-39-190c0-85 5-160 10-171 14-25 36-24 101 5 56 25 174 43 322 49 67 2 77 0 77-15 0-20 26-48 45-48 7 0 21 7 29 16 13 13 16 45 16 193 0 192-6 216-50 209-32-4-38-29-39-160l-1-108h-84c-46 0-97-3-113-6l-29-6 1 255c2 140 5 259 9 265 3 5 53 13 111 17 105 7 135 18 135 50 0 15-38 46-55 44-5-1-54-5-108-10z"/>
    <path d="m465 1283c-82-14-156-30-163-35-19-16-14-46 11-63 20-13 33-13 100-1l77 13v-166-167l-71-23c-52-17-73-29-81-46-8-18-8-28 2-40 16-19 45-19 104 1 26 9 49 15 51 13 1-2 5-103 6-223l4-219-25-10c-14-6-75-34-137-63-110-53-131-72-117-107 11-30 41-29 111 6 74 38 455 197 470 197 21 0 55 48 48 69-9 31-50 27-157-14-50-20-94-33-97-29-3 3-8 99-9 212l-4 207 44 15c38 13 43 19 43 45 0 29-2 30-47 33l-48 3v158 159l31 6c17 3 51 6 75 6 78 0 116 29 94 71-9 16-21 19-88 18-42 0-144-12-227-26z"/>
    <path d="m752 778c-11-14-47-107-65-170-13-44-1-64 31-54 35 12 102 133 102 187 0 37-47 62-68 37z"/>
    <path d="m292 568c-21-21-13-55 21-84 47-39 95-58 113-43 22 18 18 26-37 85-52 54-75 64-97 42z"/>
  </g>
</svg>
