<?xml version="1.0"?>
<svg xmlns="http://www.w3.org/2000/svg" height="200pt" preserveAspectRatio="xMidYMid meet" viewBox="0 0 200 200" width="200pt">
  <g transform="matrix(.1 0 0 -.1 0 200)">
    <path d="m452 1897c-6-7-16-33-21-59-30-134-146-382-214-455-23-26-75-71-115-100-40-30-76-61-79-70-10-26 21-46 60-39 44 8 163 92 211 148 39 45 151 258 181 345l18 51 26-38c46-68 169-197 254-265 100-81 132-98 164-90 20 5 24 11 21 37-3 27-17 43-88 98-166 128-298 280-330 381-7 24-18 50-23 57-12 16-52 16-65-1z"/>
    <path d="m1330 1833c-90-6-196-25-217-39-29-18-30-50-2-64 15-8 38-8 87 0 37 6 149 13 250 17l182 6v-65-65l-114-6c-335-18-421-43-356-102 19-18 29-18 148-7 70 6 171 15 225 18l97 7v-75-75l-172-6c-209-8-384-24-418-40-29-14-37-48-16-66 11-10 40-10 128-2 62 6 138 12 168 13l55 3 7-270c3-148 11-315 17-370s15-154 21-220c5-66 13-144 16-173l6-53-38 16c-22 9-45 19-51 22-20 8-37-40-24-65 12-22 135-92 162-92 36 0 51 34 44 101-48 511-57 630-64 865l-6 241 134 7c74 3 171 6 216 6 67 0 85 3 98 18 21 23 21 36 1 56-12 12-37 16-105 16h-89v215c0 202-1 215-19 225-18 9-255 11-371 3z"/>
    <path d="m640 1309c-120-12-323-49-337-61-20-16-16-56 8-69 15-8 38-8 83 0 105 18 96 33 96-152v-163l-59-18c-74-22-101-41-101-71 0-41 32-49 96-26 30 12 56 21 58 21 10 0 15-82 18-254l2-189-84-36c-47-20-110-50-140-66-47-26-55-34-55-59 0-53 24-54 122-8 48 23 180 79 293 125 181 74 206 87 215 111 8 23 6 30-8 41-22 16-65 7-166-35-41-16-76-29-78-27-2 3-6 99-10 214l-6 210 33 7c37 7 70 32 70 52 0 23-40 43-76 37l-34-6v160 160l38 7c20 3 57 6 82 6 51 0 90 22 90 50 0 21-36 51-60 49-8-1-49-5-90-10z"/>
    <path d="m1758 1098c-13-18-56-76-95-128-104-141-124-190-75-190 43 0 252 256 252 309 0 14-29 41-45 41-8 0-25-15-37-32z"/>
    <path d="m1032 1068c-31-31-14-56 88-128 101-72 141-85 148-48 6 29-28 67-115 129-87 61-101 67-121 47z"/>
    <path d="m754 782c-14-9-74-178-74-209 0-18 6-23 24-23 60 0 145 187 104 228-13 13-37 15-54 4z"/>
    <path d="m1536 674c-3-9-6-20-6-25 0-9 190-215 343-371 66-68 102-84 114-53 10 27-64 123-229 297-132 138-165 168-188 168-16 0-30-7-34-16z"/>
    <path d="m1105 525c-107-122-155-188-155-212 0-14 28-43 41-43 11 0 12 1 134 159 100 129 135 187 128 209-11 30-46 4-148-113z"/>
    <path d="m280 560c-12-23-4-44 32-77 30-29 93-54 112-47 28 11 17 39-37 92-56 56-89 65-107 32z"/>
  </g>
</svg>
