<?xml version="1.0"?>
<svg xmlns="http://www.w3.org/2000/svg" height="200pt" preserveAspectRatio="xMidYMid meet" viewBox="0 0 200 200" width="200pt">
  <g transform="matrix(.1 0 0 -.1 0 200)">
    <path d="m1312 1918c-8-8-12-49-12-120v-107l-37-7c-110-18-307-65-319-75-18-15-18-43 1-59 12-10 30-10 90 2l74 15 29-81c43-120 64-187 61-190-2-2-56-18-119-36-212-60-243-77-220-121 15-27 41-24 171 16 200 61 502 112 776 131 111 7 141 22 128 63-10 31-45 35-197 21-77-6-141-11-143-9-4 5 55 272 61 279 3 2 60 8 127 11 67 4 125 8 129 8 17 2 29 41 18 61-9 18-21 20-99 20-84 0-370-24-418-35-23-5-23-4-23 90 0 53-5 105-10 116-12 21-50 25-68 7zm243-320c-4-18-18-82-33-143l-27-110-100-16c-55-9-101-16-102-15-3 3-85 231-90 252-4 20 1 22 74 33 148 22 198 29 241 30l43 1z"/>
    <path d="m453 1898c-6-7-18-45-27-83-34-141-150-377-218-446-18-18-66-57-106-87-79-58-91-74-72-97 18-22 39-19 107 15 100 50 178 136 250 276 33 65 71 147 83 182l23 62 32-48c76-112 344-352 394-352 24 0 41 20 41 47 0 16-22 39-82 84-46 34-127 107-181 163-95 97-126 145-176 269-11 29-50 38-68 15z"/>
    <path d="m465 1283c-82-14-156-30-163-35-19-16-14-46 11-63 20-13 33-13 100-1l77 13v-166-167l-71-23c-52-17-73-29-81-46-8-18-8-28 2-40 16-19 45-19 104 1 26 9 49 15 51 13 1-2 5-103 6-223l4-219-25-10c-14-6-75-34-137-63-110-53-131-72-117-107 11-30 41-29 111 6 74 38 455 197 470 197 21 0 55 48 48 69-9 31-50 27-157-14-50-20-94-33-97-29-3 3-8 99-9 212l-4 207 44 15c38 13 43 19 43 45 0 29-2 30-47 33l-48 3v158 159l31 6c17 3 51 6 75 6 78 0 116 29 94 71-9 16-21 19-88 18-42 0-144-12-227-26z"/>
    <path d="m1410 1149c-47-4-137-20-200-34-63-15-125-28-137-31-12-2-25-13-28-25-6-19 38-362 53-419 6-20 15-26 45-28 22-2 37-8 37-16s-18-50-41-95c-49-99-173-232-258-277-61-32-69-44-46-68 40-40 139 6 245 115 89 91 135 164 172 274l27 80 66 3 65 3v-48c0-77 49-354 68-388 33-57 76-68 258-69 160-1 163-1 189 24 27 25 27 26 23 135-4 120-20 170-53 170-18 0-21-9-26-110-4-60-7-113-8-116-4-23-265-18-296 5-18 13-68 298-63 360l3 41 70 3c107 4 105-3 105 271 0 163-3 230-12 239-14 14-125 14-258 1zm180-143v-64l-107-7c-151-9-243-22-291-38l-41-14-9 56c-6 31-7 59-3 63 22 24 258 64 389 67l62 1zm0-215v-59l-137-7c-76-4-168-10-205-14l-68-7-5 35c-4 20-7 43-9 52-3 12 12 19 63 29 70 14 196 26 299 29l62 1z"/>
    <path d="m752 778c-11-14-47-107-65-170-13-44-1-64 31-54 35 12 102 133 102 187 0 37-47 62-68 37z"/>
    <path d="m292 568c-21-21-13-55 21-84 47-39 95-58 113-43 22 18 18 26-37 85-52 54-75 64-97 42z"/>
  </g>
</svg>
