<?xml version="1.0"?>
<svg xmlns="http://www.w3.org/2000/svg" height="200pt" preserveAspectRatio="xMidYMid meet" viewBox="0 0 200 200" width="200pt">
  <g transform="matrix(.1 0 0 -.1 0 200)">
    <path d="m1135 1873c-165-4-528-34-543-45-16-14-16-115 4-428 8-140 14-293 12-340l-3-85-100-16c-55-10-156-25-225-34-150-19-170-26-170-59 0-48 18-52 178-32 81 10 152 21 159 23 16 6 21-54 33-417 6-173 13-325 15-337 11-50 43-41 267 77 252 133 292 158 296 188 8 54-68 31-323-98l-153-77-7 176c-3 97-10 248-14 336-5 88-5 163-2 166 14 15 326 50 566 64 143 8 307 21 365 30 58 8 131 17 163 21 49 5 60 9 69 30 9 20 8 28-8 45-17 19-26 20-89 14-38-3-110-12-160-20-49-8-187-19-305-25-204-10-372-24-432-36l-28-6v85c0 80 1 85 23 91 45 11 275 35 397 42 131 7 170 19 170 53 0 39-23 44-171 37-128-6-342-29-396-42-19-5-22-1-27 38-3 23-7 73-9 109l-3 66 91 6c49 4 178 11 285 17s205 15 218 20c16 7 22 18 22 40 0 24-5 31-27 36-23 6-279-5-519-23l-71-5-7 32c-3 18-6 61-6 96v63l33 5c79 13 299 26 425 26 146 0 182 10 182 49 0 40-27 47-175 44z"/>
    <path d="m1415 803c-55-59-133-131-172-160-74-55-84-71-58-93 22-19 67-3 142 49 74 53 213 192 237 239 13 26 13 31 0 51-8 11-23 21-32 20-9 0-62-48-117-106z"/>
    <path d="m742 828c-27-27-13-61 51-121 141-132 340-264 562-372 237-114 391-165 503-165 47 0 86 27 77 52-8 20-10 21-145 48-256 52-707 292-928 494-84 77-99 85-120 64z"/>
  </g>
</svg>
