<?xml version="1.0"?>
<svg xmlns="http://www.w3.org/2000/svg" height="200pt" preserveAspectRatio="xMidYMid meet" viewBox="0 0 200 200" width="200pt">
  <g transform="matrix(.1 0 0 -.1 0 200)">
    <path d="m1510 1850c-141-9-377-36-404-46-24-9-27-34-16-155 5-63 13-199 17-302 6-185 7-189 30-200 18-8 27-7 41 6s42 16 157 15c77 0 205 3 284 7l144 8-7-139c-3-77-10-227-16-334-5-107-9-263-10-345v-151l-35 4c-32 4-35 2-35-22 0-34 40-72 92-88 69-20 67-26 73 352 3 184 10 382 15 440 6 58 10 286 10 506 0 481 9 448-122 450-45 1-144-2-218-6zm250-179v-98l-192-7c-106-3-233-9-281-12-49-4-92-3-97 2-4 5-10 47-12 94l-3 85 75 8c121 12 318 24 418 26l92 1zm0-294v-104l-116-7c-64-3-190-9-280-13l-164-6v60c0 33-3 81-6 107l-7 46 69 1c38 1 101 5 139 9 39 4 136 8 218 8l147 2z"/>
    <path d="m462 1815c-67-7-138-16-158-20-22-4-41-2-49 5-21 17-54 2-61-27-4-14-1-80 6-147 9-80 14-344 17-784 5-646 5-664 25-684 17-17 22-18 41-5l22 14 3 476 2 475 28 6c15 3 128 9 252 12 124 4 233 11 243 16 15 8 17 25 17 136 0 203-20 494-36 520-14 21-21 22-122 21-59-1-162-7-230-14zm278-113c0-22 3-73 6-114l7-75-229-6c-125-4-229-6-230-4-1 1-5 48-9 103l-7 102 63 7c135 16 217 22 307 24l92 1zm-2-278c21-6 22-11 22-99v-93l-147-6c-82-3-182-10-224-14l-77-8-7 99c-4 54-4 102 0 105 6 6 130 13 355 20 30 1 65-1 78-4z"/>
    <path d="m1108 1052c-68-68-85-106-53-118 30-12 68 8 121 61 55 54 67 88 42 113-22 22-41 12-110-56z"/>
    <path d="m655 1050c-11-34 3-56 72-115 50-42 72-55 92-53s27 9 29 30c3 23-8 39-65 93-73 69-116 84-128 45z"/>
    <path d="m1000 863c-173-12-358-37-377-49-26-17-30-46-8-64 11-9 38-10 117-1 188 20 173 21 170-19-2-19-7-49-13-66l-10-31-95-6c-96-6-124-16-124-46 0-31 22-41 92-41 37 0 68-4 68-9 0-19-158-155-220-190-68-39-87-59-77-85 9-23 69-21 120 5 82 42 208 154 259 230l24 36 94-69c113-81 298-177 357-185 23-3 54-3 68 1 21 5 26 12 23 33-3 23-13 30-89 58-127 47-335 167-323 186 3 5 54 9 113 9 94 0 110 3 125 19 23 26 13 59-21 67-14 4-86 4-159 1l-134-6 7 62c3 34 8 64 10 67 3 3 82 7 176 10 95 3 178 9 185 13 15 10 16 49 0 65-11 11-231 15-358 5z"/>
  </g>
</svg>
