<?xml version="1.0"?>
<svg xmlns="http://www.w3.org/2000/svg" height="200pt" preserveAspectRatio="xMidYMid meet" viewBox="0 0 200 200" width="200pt">
  <g transform="matrix(.1 0 0 -.1 0 200)">
    <path d="m1510 1850c-141-9-377-36-404-46-24-9-27-34-16-155 5-63 13-199 17-302 6-185 7-189 30-200 18-8 27-7 41 6s42 16 157 15c77 0 205 3 284 7l144 8-7-139c-3-77-10-227-16-334-5-107-9-263-10-345v-151l-35 4c-32 4-35 2-35-22 0-34 40-72 92-88 69-20 67-26 73 352 3 184 10 382 15 440 6 58 10 286 10 506 0 481 9 448-122 450-45 1-144-2-218-6zm250-179v-98l-192-7c-106-3-233-9-281-12-49-4-92-3-97 2-4 5-10 47-12 94l-3 85 75 8c121 12 318 24 418 26l92 1zm0-294v-104l-116-7c-64-3-190-9-280-13l-164-6v60c0 33-3 81-6 107l-7 46 69 1c38 1 101 5 139 9 39 4 136 8 218 8l147 2z"/>
    <path d="m462 1815c-67-7-138-16-158-20-22-4-41-2-49 5-21 17-54 2-61-27-4-14-1-80 6-147 9-80 14-344 17-784 5-646 5-664 25-684 17-17 22-18 41-5l22 14 3 476 2 475 28 6c15 3 128 9 252 12 124 4 233 11 243 16 15 8 17 25 17 136 0 203-20 494-36 520-14 21-21 22-122 21-59-1-162-7-230-14zm278-113c0-22 3-73 6-114l7-75-229-6c-125-4-229-6-230-4-1 1-5 48-9 103l-7 102 63 7c135 16 217 22 307 24l92 1zm-2-278c21-6 22-11 22-99v-93l-147-6c-82-3-182-10-224-14l-77-8-7 99c-4 54-4 102 0 105 6 6 130 13 355 20 30 1 65-1 78-4z"/>
    <path d="m762 1003c-7-3-24-28-36-57-29-64-69-104-144-144-70-38-86-54-77-81 11-36 49-36 112-1 32 18 69 41 81 51 24 18 24 18 98-38 41-30 74-58 74-62 0-11-133-87-212-121-84-35-104-51-94-76 5-13 17-16 64-12 66 5 174 51 270 117l59 40 76-40c72-37 273-108 308-109 25 0 42 27 35 55-5 21-21 29-124 61-64 20-143 50-175 66l-57 29 61 71c58 68 119 174 119 209 0 9-8 23-18 32-17 15-30 16-126 6-105-10-237-9-266 3-8 4-21 4-28 1zm328-92c0-10-110-150-133-169-10-9-28 0-83 39-38 28-76 54-84 59-11 7-12 13-2 34 11 25 16 26 89 27 43 1 103 4 133 9 30 4 61 8 68 9 6 0 12-3 12-8z"/>
    <path d="m890 473c-30-1-81-8-113-14-48-10-58-16-64-36-7-30 24-185 42-210 12-16 17-16 50-4 29 10 74 12 195 6l158-7 20 39c14 27 21 64 24 123 3 81 2 84-22 97-24 12-140 15-290 6zm226-99c-3-9-6-29-6-45v-29h-149-149l-6 35c-4 20-4 40-1 45 4 6 71 10 162 10 137 0 154-2 149-16z"/>
  </g>
</svg>
