<?xml version="1.0"?>
<svg xmlns="http://www.w3.org/2000/svg" height="200pt" preserveAspectRatio="xMidYMid meet" viewBox="0 0 200 200" width="200pt">
  <g transform="matrix(.1 0 0 -.1 0 200)">
    <path d="m329 1860c-53-4-109-14-125-21l-28-14 1-862c0-917-1-898 47-891 47 7 47 0 44 874l-3 821 104 7c57 3 128 6 158 6h54l-17-32c-51-101-146-246-164-251-32-8-25-46 30-159 68-140 100-270 100-405 0-96-2-105-17-98-10 4-53 18-96 33-72 24-79 24-94 9-31-31-4-60 100-106 115-50 168-54 193-15 15 22 16 44 11 162-9 185-50 348-126 490l-17 34 60 92c79 119 126 213 133 263 8 62-15 73-147 72-58-1-148-5-201-9z"/>
    <path d="m1126 1851c-15-17-16-30-7-122 6-57 11-133 12-168l3-65-140-22c-240-38-275-45-296-66-18-18-18-22-5-41 18-27 23-27 218 6 200 34 195 35 203-5 29-160 33-387 11-528-21-125-77-358-107-441-21-57-75-161-110-211-16-22 5-48 39-48 72 0 164 204 231 515 17 77 36 178 42 225s14 88 18 91c6 6 232 42 403 65l46 6 6-39c17-102-2-360-34-463-26-83-112-311-120-315-4-3-35 11-69 31-64 38-90 39-90 3 0-25 123-147 157-155 50-13 62 8 154 251 78 208 93 293 94 533v204l-25 20c-21 17-33 19-95 13-68-7-338-47-401-60l-31-7-12 134c-7 73-17 153-22 177s-8 45-7 46c8 8 357 35 445 35 125 0 153 9 153 49 0 17-6 31-16 35-36 14-255 5-490-20l-61-6-12 158c-13 158-25 204-55 204-7 0-21-8-30-19z"/>
  </g>
</svg>
