<?xml version="1.0"?>
<svg xmlns="http://www.w3.org/2000/svg" height="200pt" preserveAspectRatio="xMidYMid meet" viewBox="0 0 200 200" width="200pt">
  <g transform="matrix(.1 0 0 -.1 0 200)">
    <path d="m329 1860c-53-4-109-14-125-21l-28-14 1-862c0-917-1-898 47-891 47 7 47 0 44 874l-3 821 104 7c57 3 128 6 158 6h54l-17-32c-51-101-146-246-164-251-32-8-25-46 30-159 68-140 100-270 100-405 0-96-2-105-17-98-10 4-53 18-96 33-72 24-79 24-94 9-31-31-4-60 100-106 115-50 168-54 193-15 15 22 16 44 11 162-9 185-50 348-126 490l-17 34 60 92c79 119 126 213 133 263 8 62-15 73-147 72-58-1-148-5-201-9z"/>
    <path d="m1435 1819c-33-5-121-8-196-7-75 0-141-2-146-5-6-4-16-28-22-54-19-75-59-132-169-241-108-109-121-135-67-140 38-4 108 41 169 108l43 49 41-48c22-26 70-72 106-101l67-54-58-59c-60-61-229-193-286-224-18-10-66-31-107-48-82-34-99-57-55-77 22-10 39-8 103 11 42 12 96 34 120 47 72 43 234 169 295 232l59 60 76-53c43-29 105-67 140-84 34-17 93-50 130-73 132-81 206-104 233-72 21 25 1 44-108 104-261 143-331 183-374 214l-45 34 73 152c41 85 84 182 95 218 20 58 20 67 7 91-17 30-36 33-124 20zm19-126c-29-73-138-293-144-293-13 0-158 129-184 163l-26 34 27 61 28 61 120 3c66 2 137 5 157 6l37 2z"/>
    <path d="m1302 1118c-7-7-12-42-12-85 0-67-2-73-22-77-99-19-229-39-257-40-51-2-58-21-38-104 9-38 17-100 17-136 0-55-3-66-17-66-37 0-269-63-285-77-23-21-23-50 1-62 13-7 50-2 136 19 122 30 263 54 396 68l77 8 4-241c3-132 8-248 12-257 10-23 34-30 57-18 18 10 19 24 19 264v254l77 7c42 4 151 4 243 1 148-7 169-6 184 9 21 22 20 38-3 59-18 16-47 18-263 19l-243 2-3 106-3 106 108 9 108 9v35 35l-106 3-106 3-7 37c-3 20-6 51-6 68 0 33-15 54-40 54-9 0-21-5-28-12zm-12-312c0-35 3-83 6-108l6-45-73-7c-41-4-90-9-109-12l-36-6-11 103c-7 57-11 105-9 106 4 4 169 31 199 32 27 1 27 0 27-63z"/>
  </g>
</svg>
