<?xml version="1.0"?>
<svg xmlns="http://www.w3.org/2000/svg" height="200pt" preserveAspectRatio="xMidYMid meet" viewBox="0 0 200 200" width="200pt">
  <g transform="matrix(.1 0 0 -.1 0 200)">
    <path d="m329 1860c-53-4-109-14-125-21l-28-14 1-862c0-917-1-898 47-891 47 7 47 0 44 874l-3 821 104 7c57 3 128 6 158 6h54l-17-32c-51-101-146-246-164-251-32-8-25-46 30-159 68-140 100-270 100-405 0-96-2-105-17-98-10 4-53 18-96 33-72 24-79 24-94 9-31-31-4-60 100-106 115-50 168-54 193-15 15 22 16 44 11 162-9 185-50 348-126 490l-17 34 60 92c79 119 126 213 133 263 8 62-15 73-147 72-58-1-148-5-201-9z"/>
    <path d="m1515 1813c-467-38-642-60-672-85-17-14-16-67 7-293 23-243-6-967-46-1110-16-56-21-136-10-153 4-7 19-12 33-12 19 0 43 19 91 71 163 176 210 245 184 271-15 15-50-9-125-86-39-39-62-56-65-47-2 7 1 61 6 120 6 58 17 221 23 362l13 256 205 12c113 6 265 12 338 14 169 3 165-1 174 149 4 62 16 169 27 238 29 171 31 269 7 287-18 12-86 15-190 6zm121-105c-3-13-10-65-17-115l-12-93h-127c-69 0-218-9-330-20-112-12-206-17-210-13-8 9-33 194-27 199 7 8 214 33 352 44 77 5 156 12 175 14 19 1 72 4 118 4 80 2 82 1 78-20zm-50-329c-3-17-6-60-6-95v-64h-112c-61 0-201-7-310-16-110-9-201-14-202-12-2 1-6 44-9 94l-7 91 158 15c86 8 233 16 326 17l169 1z"/>
    <path d="m1010 1030c-11-11-20-25-20-30 0-17 70-150 117-225 112-175 233-297 587-593 85-70 132-86 174-56 32 22 27 41-18 61-23 10-133 96-245 192l-204 174 51 56c57 62 148 196 178 263 25 54 26 94 2 107-27 15-49-4-84-72-38-75-113-186-168-247l-40-45-26 30c-76 90-158 208-203 295-28 54-58 101-66 104-9 3-24-3-35-14z"/>
  </g>
</svg>
