<?xml version="1.0"?>
<svg xmlns="http://www.w3.org/2000/svg" height="200pt" preserveAspectRatio="xMidYMid meet" viewBox="0 0 200 200" width="200pt">
  <g transform="matrix(.1 0 0 -.1 0 200)">
    <path d="m908 1878c-10-18-12-97-10-348 2-179 5-333 8-342 7-24 41-32 63-16 10 7 47 33 82 58 94 65 181 153 173 173-11 30-47 18-138-43-49-34-90-59-91-58-1 2-5 68-9 148l-6 145 93 24c157 40 189 59 172 104-11 27-41 25-154-8l-111-32v96c0 62-4 101-12 109-19 19-46 14-60-10z"/>
    <path d="m1411 1886c-24-29-36-264-22-432 22-270 19-267 293-261 222 5 223 5 215 87-8 67-43 174-63 191-12 10-18 9-31-4-15-15-15-25-4-98 7-44 10-83 7-86-7-8-295-7-302 0-12 12-23 93-30 217l-6 125 114 37c63 20 141 48 172 62 51 23 57 28 54 52-6 52-25 51-177-4-78-29-146-52-152-52-7 0-8 24-4 75 5 54 4 79-5 90-16 19-44 19-59 1z"/>
    <path d="m329 1860c-53-4-109-14-125-21l-28-14 1-862c0-917-1-898 47-891 47 7 47 0 44 874l-3 821 104 7c57 3 128 6 158 6h54l-17-32c-51-101-146-246-164-251-32-8-25-46 30-159 68-140 100-270 100-405 0-96-2-105-17-98-10 4-53 18-96 33-72 24-79 24-94 9-31-31-4-60 100-106 115-50 168-54 193-15 15 22 16 44 11 162-9 185-50 348-126 490l-17 34 60 92c79 119 126 213 133 263 8 62-15 73-147 72-58-1-148-5-201-9z"/>
    <path d="m1284 1193c-15-15-16-32-11-134l6-116-147-12c-146-12-192-25-192-55 0-33 28-39 148-32 64 4 135 10 158 13l41 5 13-127c7-71 13-207 14-304l1-176-80-7c-180-17-362-40-397-49-45-12-63-38-44-64 12-16 20-17 107-6 313 38 531 54 774 57 235 2 260 4 272 20 11 15 11 21-1 38-11 18-29 22-126 29-62 5-179 5-260 0l-148-8-6 65c-3 36-6 112-6 170 0 94-9 205-25 326l-6 41 188 13c187 12 233 23 233 54 0 7-9 21-20 31-18 16-30 17-172 6-84-6-172-14-194-17l-42-5-7 116c-5 80-12 121-22 131-19 18-28 18-49-3z"/>
  </g>
</svg>
