<?xml version="1.0"?>
<svg xmlns="http://www.w3.org/2000/svg" height="200pt" preserveAspectRatio="xMidYMid meet" viewBox="0 0 200 200" width="200pt">
  <g transform="matrix(.1 0 0 -.1 0 200)">
    <path d="m1256 1914c-13-12-16-40-16-139v-124l-32-6c-18-3-80-12-138-21-176-25-272-48-284-66-7-12-6-51 3-134 15-141 24-164 62-164 39 0 44 28 30 142-7 50-10 93-7 95 18 18 293 55 649 88 153 15 282 25 287 23s-19-47-54-100c-83-129-103-173-86-193 7-8 16-15 20-15 23 0 78 64 160 185 125 185 122 215-17 215-37 0-158-9-268-20s-208-20-217-20c-16 0-18 12-18 118 0 103-3 121-18 135-23 21-36 21-56 1z"/>
    <path d="m329 1860c-53-4-109-14-125-21l-28-14 1-862c0-917-1-898 47-891 47 7 47 0 44 874l-3 821 104 7c57 3 128 6 158 6h54l-17-32c-51-101-146-246-164-251-32-8-25-46 30-159 68-140 100-270 100-405 0-96-2-105-17-98-10 4-53 18-96 33-72 24-79 24-94 9-31-31-4-60 100-106 115-50 168-54 193-15 15 22 16 44 11 162-9 185-50 348-126 490l-17 34 60 92c79 119 126 213 133 263 8 62-15 73-147 72-58-1-148-5-201-9z"/>
    <path d="m1325 1340c-181-29-224-40-235-60-13-25-3-49 24-56 13-3 60 2 107 10 46 9 138 23 203 31 122 16 146 25 146 54 0 46-60 51-245 21z"/>
    <path d="m1515 1014c-204-14-593-76-632-100-27-17-30-46-8-64 13-11 35-10 117 4 55 9 103 14 107 10 3-3 6-47 5-97 0-99-25-199-70-289-30-60-141-178-205-220-49-31-60-53-37-76 17-17 53-15 91 4 49 26 174 152 212 214 73 121 117 312 97 431l-9 57 68 11c37 6 74 11 82 11 11 0 15-31 20-152 10-244 42-440 83-519 15-29 66-54 134-64 46-7 335 10 364 21 27 10 30 54 13 157-18 105-39 157-63 157-25 0-32-42-23-135 5-48 8-89 6-91-1-1-58-7-127-12-116-10-190-5-218 12-32 20-69 243-79 474l-6 162h34c106 2 292 20 304 30 25 20 18 59-11 70-14 6-33 9-42 9-9-1-102-8-207-15z"/>
  </g>
</svg>
