<?xml version="1.0"?>
<svg xmlns="http://www.w3.org/2000/svg" height="200pt" preserveAspectRatio="xMidYMid meet" viewBox="0 0 200 200" width="200pt">
  <g transform="matrix(.1 0 0 -.1 0 200)">
    <path d="m1188 1899c-10-5-28-46-43-97-45-152-66-206-102-261-49-75-145-166-252-239-50-35-91-67-91-72s7-16 17-25c23-24 61-14 142 38 159 103 280 253 327 403l26 84 40-58c51-73 130-167 177-211 85-80 339-276 384-297 61-28 92-20 92 21 0 23-8 33-48 54-75 40-321 238-401 321-91 96-162 194-189 266-25 63-52 88-79 73z"/>
    <path d="m329 1860c-53-4-109-14-125-21l-28-14 1-862c0-917-1-898 47-891 47 7 47 0 44 874l-3 821 104 7c57 3 128 6 158 6h54l-17-32c-51-101-146-246-164-251-32-8-25-46 30-159 68-140 100-270 100-405 0-96-2-105-17-98-10 4-53 18-96 33-72 24-79 24-94 9-31-31-4-60 100-106 115-50 168-54 193-15 15 22 16 44 11 162-9 185-50 348-126 490l-17 34 60 92c79 119 126 213 133 263 8 62-15 73-147 72-58-1-148-5-201-9z"/>
    <path d="m1220 1203c-129-19-241-39-247-45-18-15-16-57 2-64 9-4 67 0 129 8l113 14 7-81c3-44 6-101 6-127v-47l-42-5c-24-3-107-13-185-21-152-17-198-28-207-51-13-34 28-63 71-50 18 5 309 36 343 36 16 0 18-22 18-320v-320l-45 26c-39 23-46 25-59 12-13-12-11-20 16-56 64-89 148-116 171-54 7 17 8 143 3 374l-7 347 24 5c38 8 256 35 347 42 75 6 85 9 94 30 27 60-46 68-298 34-82-11-152-20-156-20-5 0-8 59-8 130 0 72 3 130 8 130 49 2 207 32 218 41 17 14 18 41 2 57-17 17-51 14-318-25z"/>
    <path d="m1524 535c-13-34 9-61 94-117 48-31 134-89 191-128 115-79 153-88 159-38 4 30 10 24-193 164-197 137-237 156-251 119z"/>
    <path d="m927 483c-20-27-74-86-121-133-67-66-86-91-86-112 0-69 97-13 220 126 73 82 91 113 79 144-15 39-52 29-92-25z"/>
  </g>
</svg>
