<?xml version="1.0"?>
<svg xmlns="http://www.w3.org/2000/svg" height="200pt" preserveAspectRatio="xMidYMid meet" viewBox="0 0 200 200" width="200pt">
  <g transform="matrix(.1 0 0 -.1 0 200)">
    <path d="m1260 1880c-7-13-9-41-5-75l7-54-33-5c-19-3-79-8-134-11-103-7-125-15-125-45 0-38 24-43 160-36l130 7v-128c0-181 6-169-103-177-196-14-333-29-349-37-23-12-23-58-2-66 9-3 85-2 168 4 83 5 155 7 159 3 10-9-18-122-43-171-23-44-61-77-118-103-46-21-64-55-42-81 17-21 43-19 93 6 66 34 105 66 132 114 30 50 65 165 65 212 0 33 1 33 48 33 26 0 63 3 82 6l35 6 13-97c22-158 55-239 114-275 37-22 126-33 193-23 47 8 50 10 53 41 4 39-22 52-89 45-59-7-109 8-131 38-24 32-58 160-58 220v46l151 6c159 7 179 13 179 53s-23 44-251 35c-118-5-214-8-214-7-1 0 1 67 3 147l4 147 124 7c89 5 129 11 139 22 19 18 19 32 0 54-14 15-32 16-145 11l-130-5v49c0 27-6 60-13 74-16 33-52 38-67 10z"/>
    <path d="m329 1860c-53-4-109-14-125-21l-28-14 1-862c0-917-1-898 47-891 47 7 47 0 44 874l-3 821 104 7c57 3 128 6 158 6h54l-17-32c-51-101-146-246-164-251-32-8-25-46 30-159 68-140 100-270 100-405 0-96-2-105-17-98-10 4-53 18-96 33-72 24-79 24-94 9-31-31-4-60 100-106 115-50 168-54 193-15 15 22 16 44 11 162-9 185-50 348-126 490l-17 34 60 92c79 119 126 213 133 263 8 62-15 73-147 72-58-1-148-5-201-9z"/>
    <path d="m1280 890c-15-15-20-33-20-74v-53l-46-7c-26-3-67-6-91-6-75 0-110-33-73-70 18-18 29-19 115-13l95 6v-69c0-72 17-278 25-304 4-14-24-18-211-28-218-12-244-17-244-52 0-41 16-43 302-31 150 6 377 11 504 11 245 0 261 3 252 47-7 39-41 44-288 41l-235-3-1 40c-1 22-5 110-9 196l-8 157 49 6c27 3 94 8 149 12 108 7 125 14 125 50 0 40-28 46-158 35-174-16-158-20-166 49-8 72-32 94-66 60z"/>
  </g>
</svg>
