<?xml version="1.0"?>
<svg xmlns="http://www.w3.org/2000/svg" height="200pt" preserveAspectRatio="xMidYMid meet" viewBox="0 0 200 200" width="200pt">
  <g transform="matrix(.1 0 0 -.1 0 200)">
    <path d="m329 1860c-53-4-109-14-125-21l-28-14 1-862c0-917-1-898 47-891 47 7 47 0 44 874l-3 821 104 7c57 3 128 6 158 6h54l-17-32c-51-101-146-246-164-251-32-8-25-46 30-159 68-140 100-270 100-405 0-96-2-105-17-98-10 4-53 18-96 33-72 24-79 24-94 9-31-31-4-60 100-106 115-50 168-54 193-15 15 22 16 44 11 162-9 185-50 348-126 490l-17 34 60 92c79 119 126 213 133 263 8 62-15 73-147 72-58-1-148-5-201-9z"/>
    <path d="m1253 1848c-5-7-15-31-22-53-28-84-100-223-151-290-77-102-104-129-213-212-76-58-97-79-95-95 4-28 29-42 59-35 36 10 195 134 245 192 73 84 149 200 183 279l33 74 36-41c149-173 338-345 485-442 51-34 60-37 83-26 19 8 25 17 22 38-2 21-28 45-123 114-129 94-417 375-450 439-33 66-69 88-92 58z"/>
    <path d="m1315 1240c-248-38-319-65-295-110 13-24 29-25 141-3 49 9 90 15 93 12 2-2 7-29 11-60l7-56-88-11c-94-13-164-46-164-80 0-55 35-235 52-263 18-30 21-31 69-25 27 4 56 9 64 12 24 9 18-13-24-101-32-65-55-96-118-156-43-41-107-93-141-114-68-42-75-59-29-85 25-14 30-13 84 15 34 18 96 67 150 120 78 76 98 103 134 178l42 87 44-79c57-101 120-176 208-247 67-55 251-154 285-154 23 0 40 20 40 47 0 18-19 32-108 77-177 91-267 177-366 351-45 78-45 80-24 88 13 4 70 10 128 11 123 4 160 15 160 49 0 13-5 28-11 34-7 7-12 57-13 123-1 146 1 144-163 137l-122-6-6 37c-3 20-8 49-10 64-4 26-2 27 53 33 185 20 177 17 180 49 2 16-2 32-10 37-21 13-122 9-253-11zm245-358c0-40-5-75-12-84-10-11-39-17-106-22l-93-6 6 78c4 42 8 83 10 90 3 8 32 12 100 12h95zm-300-77-11-54-51-11c-28-6-55-7-59-3-8 9-32 173-26 179 2 2 37 8 78 12l74 7 3-38c2-21-2-62-8-92z"/>
  </g>
</svg>
