<?xml version="1.0"?>
<svg xmlns="http://www.w3.org/2000/svg" height="200pt" preserveAspectRatio="xMidYMid meet" viewBox="0 0 200 200" width="200pt">
  <g transform="matrix(.1 0 0 -.1 0 200)">
    <path d="m315 1860c-66-6-131-17-136-24-1 0-3-389-5-863-4-605-2-869 6-883 15-28 56-26 76 5 14 22 16 102 12 850l-3 825h55c30 0 99 3 153 7 76 5 97 3 97-7 0-22-144-260-157-260-7 0-19-11-28-23-14-23-12-30 39-138 76-158 97-237 103-393 5-107 3-128-8-123-73 29-179 59-193 54-29-11-20-55 17-77 60-37 179-81 220-82 66-1 70 12 64 187-6 177-33 295-96 431-23 48-41 90-41 94s23 42 51 84c77 117 139 242 139 280 0 58-20 66-161 64-68 0-160-4-204-8z"/>
    <path d="m1011 1848c-109-8-128-12-157-34-18-14-36-35-40-46-3-11 11-142 32-292 43-311 54-338 110-285 22 21 32 22 381 25 328 4 359 5 369 21 7 10 17 106 24 213 6 107 14 236 17 286 8 131 27 124-327 123-157-1-341-6-409-11zm645-130c-3-29-6-66-6-81 0-28-2-29-37-22-51 8-437-12-575-30-62-8-113-14-114-12-3 4-24 145-24 166 0 19 7 21 98 24 53 1 225 4 381 5l284 2zm-22-302-7-106h-152c-83 0-233-3-332-7l-180-6-11 84c-7 46-12 89-12 95 0 17 211 37 465 43 127 3 231 5 233 5 1-1 0-49-4-108z"/>
    <path d="m1425 1089c-167-6-251-16-575-65-79-12-114-51-74-85 13-10 31-11 98-1 45 7 88 12 95 12 57 0-134-545-227-651-18-20-32-41-32-47 0-19 30-34 54-28 67 17 118 96 202 320 59 157 49 148 167 160l67 8v-74c0-106-16-182-57-270-38-82-38-108 1-108 77 0 146 177 146 375v85h43c23 0 59 3 80 6l37 7v-135c0-150-13-214-60-308-36-71-37-86-9-95 34-11 69 15 100 77 44 88 59 165 59 319v136l46 7c26 3 82 6 125 6h77l8-67c10-93-2-222-28-325l-23-87-48 31c-45 29-49 30-65 14-15-15-15-19 3-52 10-19 40-51 66-70 48-35 89-43 107-21 20 23 74 262 79 348 3 47 2 130-2 184-9 130-15 135-137 135-120 0-578-28-643-39-27-5-51-8-53-6s1 29 7 61 11 72 11 90v31l93 13c50 7 218 15 373 19 294 6 314 10 314 52 0 10-10 25-22 33-25 18-74 18-403 5z"/>
  </g>
</svg>
