<?xml version="1.0"?>
<svg xmlns="http://www.w3.org/2000/svg" height="200pt" preserveAspectRatio="xMidYMid meet" viewBox="0 0 200 200" width="200pt">
  <g transform="matrix(.1 0 0 -.1 0 200)">
    <path d="m1389 1868c-16-19-154-226-183-276-9-15 10-42 30-42 47 0 224 233 224 294 0 16-26 46-41 46-5 0-19-10-30-22z"/>
    <path d="m329 1860c-53-4-109-14-125-21l-28-14 1-862c0-917-1-898 47-891 47 7 47 0 44 874l-3 821 104 7c57 3 128 6 158 6h54l-17-32c-51-101-146-246-164-251-32-8-25-46 30-159 68-140 100-270 100-405 0-96-2-105-17-98-10 4-53 18-96 33-72 24-79 24-94 9-31-31-4-60 100-106 115-50 168-54 193-15 15 22 16 44 11 162-9 185-50 348-126 490l-17 34 60 92c79 119 126 213 133 263 8 62-15 73-147 72-58-1-148-5-201-9z"/>
    <path d="m787 1813c-18-18-4-65 36-120 58-78 103-115 136-111 43 5 36 33-27 115-33 43-65 88-71 101-11 21-58 31-74 15z"/>
    <path d="m1175 1443c-228-22-480-55-491-64-19-16-18-58 3-66 9-4 89 1 176 11 88 9 161 15 163 13s-6-21-17-44c-25-50-101-130-201-211-43-34-78-69-78-77s9-19 21-25c28-16 106 23 181 90 31 27 61 50 67 50 22 0 112-51 118-66 8-21-61-117-115-162-25-20-66-48-91-62-47-26-64-56-39-71 59-38 205 51 283 172 39 60 40 60 57 39 19-24 58-122 58-148 0-28-111-192-170-251-62-62-185-145-290-195-67-32-116-46-212-61-46-7-58-33-26-59 19-15 35-18 100-14 66 4 90 11 173 51 185 90 320 195 402 314l38 55 7-33c9-37 2-197-13-299-10-69-29-150-36-150-2 0-29 13-61 29-63 31-82 31-82-3 0-37 121-136 167-136 83 0 139 341 110 665l-8 90 23-27c65-74 200-243 327-408 79-102 151-189 161-194 26-12 50-1 50 24 0 45-58 129-284 409-78 96-144 181-149 188-5 8 9 27 39 55 46 42 157 200 190 271 21 45 11 72-27 72-19 0-39-22-102-115-42-63-98-136-124-162l-46-47-86 88c-89 91-181 165-241 196-19 10-36 19-38 20-1 1 8 24 22 51 13 27 27 61 31 75 9 35 30 38 275 39 107 1 205 4 218 7 26 6 40 47 22 68-10 12-46 15-214 13-110-1-219-3-241-5z"/>
  </g>
</svg>
