<?xml version="1.0"?>
<svg xmlns="http://www.w3.org/2000/svg" height="200pt" preserveAspectRatio="xMidYMid meet" viewBox="0 0 200 200" width="200pt">
  <g transform="matrix(.1 0 0 -.1 0 200)">
    <path d="m329 1860c-53-4-109-14-125-21l-28-14 1-862c0-917-1-898 47-891 47 7 47 0 44 874l-3 821 104 7c57 3 128 6 158 6h54l-17-32c-51-101-146-246-164-251-32-8-25-46 30-159 68-140 100-270 100-405 0-96-2-105-17-98-10 4-53 18-96 33-72 24-79 24-94 9-31-31-4-60 100-106 115-50 168-54 193-15 15 22 16 44 11 162-9 185-50 348-126 490l-17 34 60 92c79 119 126 213 133 263 8 62-15 73-147 72-58-1-148-5-201-9z"/>
    <path d="m1440 1800c-18-34-29-207-30-458 0-266 3-281 59-321 37-27 120-28 279-4 91 14 115 21 124 36 14 27 1 122-22 149-18 22-20 22-36 6-9-9-20-34-23-54l-6-38-70-12c-92-16-188-17-203-2-8 8-12 59-12 165 0 150 0 153 23 158 46 11 292 65 294 65 1 0 7 9 13 20 8 14 8 26 0 40-14 27-47 26-193-5-64-14-122-25-127-25-12 0-12 88 0 190 5 46 5 82-1 92-13 24-56 23-69-2z"/>
    <path d="m860 1775c-10-12-11-52-6-178 5-89 11-267 14-395 6-216 9-235 26-248 29-21 35-18 79 29 173 184 232 266 209 289-14 14-52-11-151-101l-71-63v113c0 63-3 123-6 134-5 18 7 23 127 52 72 18 138 38 145 44 18 15 18 53-1 69-11 9-40 6-142-19-83-19-130-26-134-20-3 6-9 72-13 147s-12 142-18 149c-14 18-43 16-58-2z"/>
    <path d="m1315 800c-121-4-233-10-248-15-19-5-37-3-54 6-23 12-27 11-45-11-23-29-22-53 13-294 11-77 19-182 18-234-1-82 1-97 17-109 14-10 91-13 361-13 328 0 344 1 363 20 25 25 28 39 34 200 4 74 9 199 13 278 8 187 11 183-141 180-61-1-210-5-331-8zm385-134c0-29-3-73-6-97l-6-44-147-1c-80-1-217-7-305-14-126-10-160-10-166 0-4 7-11 44-15 82-3 39-9 76-11 83-3 7 3 16 13 20s142 11 293 15c151 3 292 7 313 8l37 2zm-42-232c21-6 22-11 22-104v-97l-46-7c-66-9-534-8-535 2 0 4-4 46-7 94l-7 87 95 7c247 18 447 26 478 18z"/>
  </g>
</svg>
