<?xml version="1.0"?>
<svg xmlns="http://www.w3.org/2000/svg" height="200pt" preserveAspectRatio="xMidYMid meet" viewBox="0 0 200 200" width="200pt">
  <g transform="matrix(.1 0 0 -.1 0 200)">
    <path d="m329 1860c-53-4-109-14-125-21l-28-14 1-862c0-917-1-898 47-891 47 7 47 0 44 874l-3 821 104 7c57 3 128 6 158 6h54l-17-32c-51-101-146-246-164-251-32-8-25-46 30-159 68-140 100-270 100-405 0-96-2-105-17-98-10 4-53 18-96 33-72 24-79 24-94 9-31-31-4-60 100-106 115-50 168-54 193-15 15 22 16 44 11 162-9 185-50 348-126 490l-17 34 60 92c79 119 126 213 133 263 8 62-15 73-147 72-58-1-148-5-201-9z"/>
    <path d="m866 1764c-9-8-16-29-16-45 0-74-70-218-151-311-31-35-39-52-34-67 11-35 58-27 104 17l40 38 62-62 62-63-59-57c-32-31-85-77-116-102-32-25-58-51-58-58 0-57 53-60 124-5 113 85 262 253 311 351 66 131 103 307 76 358-14 26-67 29-199 10-63-8-86-8-94 0-16 16-34 15-52-4zm259-121c-7-46-33-123-41-123-3 0-41 17-85 38-80 37-80 37-75 71 3 18 7 35 9 37 6 6 111 22 156 23l43 1zm-155-169c41-19 76-37 78-39s-11-25-28-50l-33-47-64 65c-53 52-64 69-58 86 9 28 18 27 105-15z"/>
    <path d="m1510 1714c-41-7-107-13-145-13-41-1-76-6-83-13-31-31 2-107 114-256 45-59 53-76 45-91-20-36-154-151-202-173-27-13-51-29-54-37-17-43 68-55 138-20 23 12 77 56 120 99l79 78 60-54c90-80 251-186 283-186 27 0 45 15 45 39 0 18-22 37-133 113-56 38-126 91-156 117l-53 48 35 59c20 33 50 103 68 158 27 82 30 102 21 123-10 22-17 25-59 24-27-1-82-7-123-15zm70-121c-7-21-26-64-42-96-34-69-33-69-107 37l-50 73 102 15c56 8 104 13 105 12 2-2-2-20-8-41z"/>
    <path d="m1270 989c-364-35-370-36-370-79 0-19 6-31 19-35 10-3 86 1 167 9 82 8 192 18 244 22 103 7 120 14 120 50 0 44-24 48-180 33z"/>
    <path d="m1490 729c-74-4-232-12-350-18-280-14-440-30-467-48-29-17-29-39 0-57 19-12 41-12 157 0 74 7 174 13 222 13 74 1 87-1 92-16 2-10 9-94 16-188 16-243 16-245 12-245-1 0-21 9-43 20-80 41-106-3-38-65 71-64 148-84 170-44 12 23 8 105-17 378-8 89-14 164-12 166 3 3 452 25 511 25 30 0 40 5 49 25 9 21 8 28-7 45-20 22-50 23-295 9z"/>
    <path d="m756 371c-39-37-102-86-139-107-70-40-91-70-67-99 18-22 45-18 98 12 106 61 222 165 237 212 8 26-10 51-37 51-10 0-52-31-92-69z"/>
    <path d="m1510 411c-5-11-10-24-10-30s46-40 103-77c56-36 132-90 169-120s76-54 86-54c27 0 45 25 38 53-10 40-306 247-354 247-12 0-26-9-32-19z"/>
  </g>
</svg>
