<?xml version="1.0"?>
<svg xmlns="http://www.w3.org/2000/svg" height="200pt" preserveAspectRatio="xMidYMid meet" viewBox="0 0 200 200" width="200pt">
  <g transform="matrix(.1 0 0 -.1 0 200)">
    <path d="m1175 1900c-16-18-17-34-12-158l6-137-151-28c-164-30-201-42-206-70-7-34 18-49 66-42 25 4 51 9 58 12 10 3 14-3 14-19 0-13 18-60 39-105l39-81-46-7c-74-10-325-75-339-87-8-6-13-20-11-31 6-41 29-42 169-8 225 54 567 99 894 117 66 4 128 11 138 16 24 13 21 45-7 63-21 14-43 15-188 5-89-6-176-13-192-16-15-3-27-2-24 2 2 5 24 50 49 100s48 101 51 112c7 25 74 38 154 28 32-4 63-2 74 4 22 12 26 50 8 68-22 22-276 14-464-14l-42-6-4 135c-3 134-12 167-43 167-6 0-20-9-30-20zm252-378c-7-16-34-70-62-119l-50-91-86-11c-47-6-92-11-100-11-19 0-102 160-97 186 2 15 18 22 73 31 129 24 250 41 292 42l42 1z"/>
    <path d="m329 1860c-53-4-109-14-125-21l-28-14 1-862c0-917-1-898 47-891 47 7 47 0 44 874l-3 821 104 7c57 3 128 6 158 6h54l-17-32c-51-101-146-246-164-251-32-8-25-46 30-159 68-140 100-270 100-405 0-96-2-105-17-98-10 4-53 18-96 33-72 24-79 24-94 9-31-31-4-60 100-106 115-50 168-54 193-15 15 22 16 44 11 162-9 185-50 348-126 490l-17 34 60 92c79 119 126 213 133 263 8 62-15 73-147 72-58-1-148-5-201-9z"/>
    <path d="m1280 1115c-233-21-311-46-296-93 3-9 15-72 26-140 15-90 18-127 10-142-14-26 20-63 53-55 47 10 141 25 159 25 16 0 18-10 18-93v-94l-152-17c-170-20-411-60-452-75-18-7-26-18-26-35 0-45 19-49 128-27 82 17 285 45 463 65l36 4 5-168c6-179 14-213 51-208 38 5 48 44 36 145-5 50-9 124-7 165l3 73 125 12c69 7 201 16 294 20 158 8 170 9 183 30 13 19 12 24-8 44-21 21-26 22-163 15-78-3-204-13-281-21s-143-15-147-15c-5 0-8 42-8 94v93l53 7c28 3 89 6 135 6s92 5 103 10c25 14 24 42-1 65-16 15-19 26-14 59 4 23 12 47 18 55s11 33 12 55c0 23 4 59 8 82 13 64-4 74-122 73-53-1-162-7-242-14zm270-83c0-42-20-49-170-61-80-7-178-18-218-25l-73-12-5 25c-3 14-7 31-9 38-4 14 44 21 245 38 218 18 230 18 230-3zm-30-171c0-46-8-51-94-51-34 0-117-7-185-15-68-9-125-14-126-13-8 11-13 68-6 73 9 5 227 31 321 38 25 2 55 4 68 5 19 2 22-3 22-37z"/>
  </g>
</svg>
