<?xml version="1.0"?>
<svg xmlns="http://www.w3.org/2000/svg" height="200pt" preserveAspectRatio="xMidYMid meet" viewBox="0 0 200 200" width="200pt">
  <g transform="matrix(.1 0 0 -.1 0 200)">
    <path d="m724 1918c-5-7-18-33-30-58-28-60-156-213-235-281-127-109-138-127-97-153 25-15 89 20 169 92l66 61 12-197c6-108 12-237 12-285 2-119 5-121 154-102 136 18 188 19 163 4-15-8-18-24-18-84v-73l-37-6c-21-4-117-15-213-26-267-30-344-41-357-52-19-15-16-56 4-66 12-6 106 0 268 19 331 38 309 39 255-17-91-94-410-284-588-350-119-45-190-95-172-123 41-67 549 174 781 372l66 56 6-251c4-163 11-255 18-264 17-21 57-17 69 6 7 13 8 94 4 252l-7 232 30-24c16-14 59-50 96-80 133-113 450-278 594-311 61-14 103-2 103 30 0 25-14 35-80 56-257 84-502 227-680 396l-65 62 34 8c19 4 143 15 275 24 289 20 301 22 321 41 19 19 19 25 1 49-12 17-25 19-113 17-54-2-192-12-307-23-115-10-211-17-214-15-2 3-6 32-9 66-5 46-11 64-26 75-12 8-19 17-16 19 2 3 101 9 218 15 133 6 218 14 227 22 20 17 17 57-6 69-10 6-36 8-57 6-21-3-104-8-185-11l-148-6v65 64l43 5c23 4 86 9 140 13 123 8 152 29 106 75-16 16-29 19-62 15-23-3-86-8-140-12l-98-6 3 39 3 38 120 10c66 6 126 14 133 18 6 5 12 19 12 32 0 41-28 47-158 36-64-5-120-7-124-5-14 9-9 104 5 104 6 0 46 5 87 10 41 6 129 15 194 20 65 6 125 15 133 21 20 17 16 57-7 69-20 11-132 4-315-18l-61-8 40 78c34 66 38 82 30 105-7 20-16 28-34 28-20 0-32-14-70-82-79-143-77-142-204-154-60-5-110-8-112-6s16 29 40 61c79 101 100 198 44 204-14 2-30-3-34-10zm174-382 3-53-68-6c-37-4-85-9-105-13l-38-7v57c0 63 0 63 100 69 30 2 66 4 80 5 23 2 25-1 28-52zm12-179v-44l-97-20c-109-23-113-21-113 39 0 36 1 37 53 47 28 6 70 12 92 14s46 4 53 5c8 1 12-12 12-41zm10-191c0-73 3-70-95-81-33-3-72-8-87-11-28-6-28-6-28 53v59l98 21c53 12 100 21 105 22 4 1 7-28 7-63z"/>
  </g>
</svg>
