<?xml version="1.0"?>
<svg xmlns="http://www.w3.org/2000/svg" height="200pt" preserveAspectRatio="xMidYMid meet" viewBox="0 0 200 200" width="200pt">
  <g transform="matrix(.1 0 0 -.1 0 200)">
    <path d="m419 1910c-13-8-18-33-24-110-4-55-10-102-15-105-4-2-51-14-106-26-124-26-136-33-132-67 2-22 9-28 36-30 18-2 66 4 108 13 41 10 78 15 81 12 12-13-50-217-92-304-46-94-50-118-20-129 58-23 138 126 188 351l24 109 113 23c62 13 115 21 117 19s-1-16-7-32c-18-46-24-183-11-246 7-31 22-72 34-90 25-37 99-81 170-100 43-11 49-11 66 7 16 17 20 38 23 125l3 105h-25c-21 0-27-8-44-65-10-36-20-67-22-68-10-12-78 24-94 51-40 65-34 231 11 320 11 21 19 48 17 59-6 42-28 43-190 12l-153-30v89c0 78-2 91-20 103-13 8-25 10-36 4z"/>
    <path d="m1223 1822c-7-4-26-49-42-99s-60-154-97-231c-37-79-64-148-61-156 8-20 46-21 73-2 11 8 29 33 39 56 16 36 20 39 26 22 14-38 28-258 39-597 6-187 13-409 16-493 8-210 5-207 229-177 61 9 193 22 294 30 102 8 193 17 203 21 25 7 35 52 16 70-13 13-36 13-180 2l-166-14-12 106c-20 180-27 322-15 325 5 2 57 9 115 16 121 13 140 21 140 54 0 41-27 47-152 31-62-7-114-13-115-11-5 3-16 245-12 245 45 3 320 40 328 44 16 10 13 52-4 66-12 10-41 10-138 1-67-6-139-14-159-18l-37-5-3 181c-3 196-5 191 53 191 54 0 334 43 347 53 19 15 14 45-10 61-20 13-39 12-153-4-171-24-205-27-205-20 0 3 13 39 30 80 33 84 37 122 15 140-29 24-52 2-85-83-18-45-41-98-50-117l-18-35-133-17c-73-9-134-16-136-15-1 2 10 34 26 73 45 112 64 190 51 214-11 20-36 26-57 12zm237-546v-183l-52-7c-29-3-69-9-89-12l-37-6-7 113c-4 63-12 146-19 186l-12 72 60 9c34 5 82 10 109 11l47 1zm13-388c3-68 4-124 3-126-4-3-180-32-182-29-1 1-4 57-8 124l-6 121 72 12c40 6 80 13 88 14 8 2 18 4 21 5 3 0 9-54 12-121zm11-260c3-24 10-99 15-168 6-69 13-146 17-171l6-46-38-6c-22-3-69-9-105-13l-67-7-7 104c-3 57-5 154-3 214l3 110 65 11c109 20 108 20 114-28z"/>
    <path d="m532 1268c-8-8-12-58-12-159v-147l-27-6c-16-2-84-14-153-26s-135-29-148-36c-26-17-30-62-5-71 14-5 229 25 311 44 22 5 22 5-8-61-67-151-181-338-316-521-53-72-57-118-12-123 24-3 37 10 117 118 86 115 158 228 218 343l28 52 6-85c4-47 7-174 8-282l1-198 25-16c24-16 27-16 47 2 20 19 20 23 14 279-3 143-9 293-12 333-4 40-3 72 2 72 10 0 134-81 215-141 41-30 62-39 77-35 24 8 37 39 25 60-12 23-148 122-231 169-39 22-68 45-64 49s73 12 154 17c157 10 188 19 188 55 0 44-16 48-181 36-85-6-161-13-170-16-13-4-17 9-22 78-4 46-7 107-7 136s-5 62-10 73c-12 21-40 25-58 7z"/>
  </g>
</svg>
