<?xml version="1.0"?>
<svg xmlns="http://www.w3.org/2000/svg" height="200pt" preserveAspectRatio="xMidYMid meet" viewBox="0 0 200 200" width="200pt">
  <g transform="matrix(.1 0 0 -.1 0 200)">
    <path d="m637 1888c-14-7-17-25-17-98 0-85-1-90-22-94-129-28-251-47-258-40-5 5-12 36-16 69-10 89-46 121-80 70-14-21-15-34-5-88 6-35 11-68 11-74s-27-18-60-27c-87-25-113-59-69-89 18-13 28-13 87 4 36 10 67 18 68 16 1-1 16-37 34-80 37-89 67-114 98-83 16 16 15 21-12 98-23 66-26 82-15 89 8 5 16 9 19 9s51 9 108 19c119 22 115 26 81-84-11-36-19-76-17-88 5-33 41-34 67-1 23 29 61 141 61 179 0 28 10 32 108 41 62 6 76 10 89 31 14 22 14 25-3 44s-26 20-84 14c-36-3-72-8-81-11-14-4-18 8-24 68-9 99-28 129-68 106z"/>
    <path d="m1464 1802c-7-4-31-56-54-115-23-60-49-111-56-114-8-3-59-13-112-22l-98-16 38 85c21 47 38 97 38 111 0 52-56 66-75 19-38-95-142-285-184-337-54-65-61-87-35-97 31-12 45-6 93 39l48 45 14-102c8-67 15-276 18-601l6-499 24-19c19-15 34-19 60-14 76 12 345 25 538 25 170 0 204 2 217 16 22 21 20 40-6 58-18 13-50 14-205 9l-183-6v221c0 121 4 223 8 226 5 3 58 8 118 12s115 11 122 17c6 5 12 20 12 33 0 41-34 49-156 35-58-7-108-10-111-7-7 6-27 305-22 311 3 2 56 7 117 11 125 8 148 17 138 57-8 34-38 39-156 28-52-5-97-7-100-4-6 6-28 286-23 293 2 2 58 10 125 16 67 7 132 15 144 18 28 7 37 31 23 58-11 20-17 21-108 15-53-4-124-9-158-13l-62-7 29 74c16 41 29 85 30 100 0 39-28 60-56 41zm-50-354c3-24 8-91 12-149l6-106-79-12c-43-6-99-14-124-17l-47-6-6 38c-13 91-28 246-23 250 5 5 205 41 239 43 12 1 18-10 22-41zm27-508 4-155-125-15-125-16-3 155c-1 85 1 158 5 162 10 10 226 37 234 30 4-3 8-76 10-161zm19-303c0-35 3-131 6-214l7-150-104-7c-57-4-121-10-141-13l-38-6v211 211l53 6c28 3 79 10 112 14 112 16 105 20 105-52z"/>
    <path d="m660 1335c-8-2-107-18-220-36s-211-37-217-42c-20-14-16-56 18-210 40-182 40-181 153-154 47 10 92 17 101 14 11-5 15-21 15-56 0-47-2-51-27-56-16-4-53-14-83-23-51-16-55-19-55-47s3-30 35-30c19 1 55 5 79 9l43 8-7-63c-4-35-11-71-15-79-5-9-47-25-102-38-149-37-188-61-158-97 17-20 49-19 142 6 44 12 81 19 84 16 8-7-39-103-84-173-33-50-62-81-129-134-17-14-5-40 24-51 37-14 88 15 140 80 44 56 143 240 143 267 0 8 2 14 4 14s46-41 97-90c81-79 97-91 124-88 23 2 31 9 33 27 3 19-15 42-84 110l-88 85 60 13c32 7 113 20 179 28 93 13 124 21 137 36 19 22 14 45-12 59-22 12-261-22-391-55l-26-6 10 73c5 40 10 74 11 75 1 2 38 8 82 14 85 12 117 30 112 63-2 17-11 22-50 24-26 2-70-1-98-6l-50-9v57c0 67 4 70 105 70 41 0 70 6 91 19 28 17 32 25 37 81 4 35 7 109 7 166 0 127-5 134-93 133-34-1-69-3-77-4zm78-300c-2-2-37-6-79-10l-76-7-12 107c-7 59-11 109-9 110 2 2 41 7 88 12l85 8 3-109c1-60 1-110 0-111zm-254 118c4-38 9-87 12-109l6-41-73-17c-40-9-76-13-79-9-10 12-51 205-45 211 5 5 125 29 156 31 13 1 18-13 23-66z"/>
  </g>
</svg>
