<?xml version="1.0"?>
<svg xmlns="http://www.w3.org/2000/svg" height="200pt" preserveAspectRatio="xMidYMid meet" viewBox="0 0 200 200" width="200pt">
  <g transform="matrix(.1 0 0 -.1 0 200)">
    <path d="m1085 1779c-290-6-391-14-615-45-74-10-109-19-117-31-17-22-16-28 3-47 19-20 26-20 182 0 70 8 176 19 235 22 103 7 108 6 112-13 9-40 33-270 29-274-2-2-75-12-163-22-128-15-470-68-604-95-58-12-69-84-42-272 8-57 19-174 25-260 19-281 51-501 77-527 19-19 47-19 63 0 10 12 9 33-4 107-21 120-33 229-46 403-6 77-20 211-32 297-12 87-19 161-15 164 13 14 446 81 698 109l56 6 7-48c3-26 11-142 16-258 16-348 53-727 73-752 5-7 20-13 33-13 38 0 48 34 35 116-16 104-39 394-51 629-6 116-13 235-16 266l-6 56 38 6c45 7 754 22 754 16 0-2-9-74-20-159-17-130-20-214-20-523v-367l-61 31c-65 32-89 32-89 0 0-24 171-171 198-171 41 0 42 6 42 444 0 372 2 442 21 598 21 165 21 178 6 202-12 18-29 27-60 31-24 4-216 2-428-3-211-5-387-7-390-3-3 3-12 53-18 111-7 58-15 121-18 141l-5 36 297 6c198 5 302 11 311 18 19 15 18 44-2 63-17 18 10 17-489 5z"/>
    <path d="m1278 1079c-22-12-23-42-3-59 38-32 230-131 248-128 28 4 45 33 31 56-10 17-230 142-249 142-5-1-18-5-27-11z"/>
    <path d="m420 995c-24-29 0-55 102-106 103-52 142-58 161-27 16 25-5 44-115 99-104 52-128 58-148 34z"/>
    <path d="m1250 650c-19-36 4-55 129-104 133-53 161-54 161-6 0 35-17 45-154 96-106 39-122 41-136 14z"/>
    <path d="m482 598c-17-17-15-42 6-61 10-9 60-30 112-47 101-33 140-31 140 8 0 30-28 47-132 80-110 36-110 36-126 20z"/>
  </g>
</svg>
