<?xml version="1.0"?>
<svg xmlns="http://www.w3.org/2000/svg" height="200pt" preserveAspectRatio="xMidYMid meet" viewBox="0 0 200 200" width="200pt">
  <g transform="matrix(.1 0 0 -.1 0 200)">
    <path d="m893 1850c-258-12-367-21-378-30-22-19-18-47 9-66 21-13 44-15 143-9 65 3 142 8 171 11l53 6-3-79-3-78-135-7c-74-4-231-14-348-24-282-23-270-10-229-256 24-138 36-168 66-168 46 0 51 50 21 209-11 58-18 106-17 107 5 6 351 33 500 40l147 6v-149c0-153 5-173 40-173 9 0 24 8 33 18 14 16 17 43 17 164v145l293 12c160 7 340 11 399 9l107-3-45-60c-25-33-64-93-86-133-36-66-39-75-25-89 27-27 55-4 147 117 111 147 130 178 130 212 0 50-13 51-405 44-198-3-395-9-437-12l-78-7v77c0 66 2 76 18 76 118 1 459 24 469 32 16 13 17 50 1 66-15 15-113 14-575-8z"/>
    <path d="m1218 1479c-27-15-22-55 10-77 37-26 161-82 182-82 24 0 42 24 38 52-2 18-24 33-98 70-104 51-107 52-132 37z"/>
    <path d="m472 1438c-17-17-15-43 6-60 19-16 157-58 191-58 13 0 26 10 33 25 16 36-9 58-96 84-77 24-117 26-134 9z"/>
    <path d="m1157 1303c-15-14-6-53 16-67 33-22 156-66 183-66 13 0 28 9 34 21 20 36-8 61-102 92-85 27-119 33-131 20z"/>
    <path d="m456 1277c-11-8-17-23-14-38 2-19 19-32 78-61 82-41 135-46 154-15 18 28-4 49-85 83-101 43-112 46-133 31z"/>
    <path d="m1145 1014c-331-26-549-49-561-62-20-20-17-39 9-57 20-13 45-12 227 5 113 11 292 23 398 27l192 6v-74c0-41 3-98 6-126l7-53h-104c-131 0-613-33-675-45-48-10-36-70 15-77 16-2 108 1 203 8s259 16 364 20l191 7 6-24c4-13 7-78 7-144v-120l-128-2c-208-4-638-41-712-61-28-8-39-44-20-68 15-17 87-18 176-4 101 16 450 40 592 40 73 0 142 4 152 10 38 20 43 69 31 289-6 113-12 266-14 339-3 177 2 173-186 170-75-1-154-3-176-4z"/>
  </g>
</svg>
