<?xml version="1.0"?>
<svg xmlns="http://www.w3.org/2000/svg" height="200pt" preserveAspectRatio="xMidYMid meet" viewBox="0 0 200 200" width="200pt">
  <g transform="matrix(.1 0 0 -.1 0 200)">
    <path d="m893 1850c-258-12-367-21-378-30-22-19-18-47 9-66 21-13 44-15 143-9 65 3 142 8 171 11l53 6-3-79-3-78-135-7c-74-4-231-14-348-24-282-23-270-10-229-256 24-138 36-168 66-168 46 0 51 50 21 209-11 58-18 106-17 107 5 6 351 33 500 40l147 6v-149c0-153 5-173 40-173 9 0 24 8 33 18 14 16 17 43 17 164v145l293 12c160 7 340 11 399 9l107-3-45-60c-25-33-64-93-86-133-36-66-39-75-25-89 27-27 55-4 147 117 111 147 130 178 130 212 0 50-13 51-405 44-198-3-395-9-437-12l-78-7v77c0 66 2 76 18 76 118 1 459 24 469 32 16 13 17 50 1 66-15 15-113 14-575-8z"/>
    <path d="m1218 1479c-27-15-22-55 10-77 37-26 161-82 182-82 24 0 42 24 38 52-2 18-24 33-98 70-104 51-107 52-132 37z"/>
    <path d="m472 1438c-17-17-15-43 6-60 19-16 157-58 191-58 13 0 26 10 33 25 16 36-9 58-96 84-77 24-117 26-134 9z"/>
    <path d="m1157 1303c-15-14-6-53 16-67 33-22 156-66 183-66 13 0 28 9 34 21 20 36-8 61-102 92-85 27-119 33-131 20z"/>
    <path d="m456 1277c-11-8-17-23-14-38 2-19 19-32 78-61 82-41 135-46 154-15 18 28-4 49-85 83-101 43-112 46-133 31z"/>
    <path d="m1100 1049c-391-17-592-40-611-71-12-19-11-50 6-174 29-208 57-369 68-382 6-8 24-11 51-8 23 3 84 8 137 11l97 6 4-113c4-130 17-164 76-203 61-40 109-44 449-45 321 0 322 0 337 22 30 43 13 239-21 253-27 10-35-10-44-97-4-46-8-84-8-86-1-2-139-2-308 0-289 3-310 4-343 24l-35 20-3 111-3 111 210 7c242 9 235 6 245 100 11 105 24 187 50 326 14 74 23 145 20 156s-17 26-30 32c-27 12-53 12-344 0zm276-106c-3-10-8-39-11-64-4-25-10-51-14-57-4-7-77-14-205-18l-199-7 6 54c4 30 7 64 7 76 0 26 18 28 263 31 147 2 158 1 153-15zm-510-54c-3-34-6-70-6-80 0-20-23-25-172-34l-96-7-6 29c-3 15-8 49-12 74l-6 47 69 11c37 6 95 12 128 14s71 4 84 5c23 2 24 1 17-59zm464-194c0-13-5-56-12-95l-12-70h-71c-40 0-120-3-178-7l-107-6v91c0 108-12 101 160 105 63 1 139 4 168 5 49 2 52 1 52-23zm-472-91-3-79-108-9c-59-5-110-6-112-4-6 6-34 162-30 166 6 7 240 17 248 11 4-3 7-41 5-85z"/>
  </g>
</svg>
