<?xml version="1.0"?>
<svg xmlns="http://www.w3.org/2000/svg" height="200pt" preserveAspectRatio="xMidYMid meet" viewBox="0 0 200 200" width="200pt">
  <g transform="matrix(.1 0 0 -.1 0 200)">
    <path d="m942 1897c-6-7-12-53-14-102l-3-90-45-6c-25-3-107-14-184-24-135-18-166-29-166-60 0-19 28-45 49-45 9 0 79 9 156 20s152 20 168 20h27v-99-99l-62-11c-35-6-82-13-105-17-48-7-77-33-67-58 11-29 41-33 136-18 49 8 91 12 93 10s7-49 11-106c6-96 6-102-12-102-139-1-593-89-652-126-15-10-22-23-20-36 6-43 29-44 170-10 305 72 506 92 1016 100l394 7 19 23c23 29 11 59-28 68-31 8-662-3-739-12l-51-6-7 102c-4 57-3 106 1 111 4 4 62 13 128 20 66 6 126 16 133 22 6 5 12 20 12 33 0 43-35 49-165 33l-115-15v98c0 53 4 99 8 102 5 3 90 8 188 12 187 7 224 15 224 53 0 41-20 44-225 37l-195-6v75c0 42-5 85-10 96-12 22-52 25-68 6z"/>
    <path d="m1040 930c-36-4-103-8-150-9s-102-6-122-12l-38-10v-187c0-274-21-375-105-510-50-80-51-84-30-102 49-41 150 88 193 247l19 68 99 12c54 6 174 14 267 18l167 8v-126-127l-28 6c-19 4-32 1-42-10-19-24 3-59 62-97 52-34 92-34 102-1 7 23-10 487-24 627-11 114-25 181-42 203-12 13-212 15-328 2zm264-96c3-9 6-28 6-44 0-27-3-29-52-34-29-3-140-7-245-10l-193-5v38 38l93 8c50 4 121 11 157 15s102 8 146 8c66 2 83-1 88-14zm21-225c4-28 3-54-1-58-5-5-106-13-224-20s-230-15-247-18l-33-5v65 66l58 6c31 3 64 8 72 9 8 2 94 4 192 5l176 1z"/>
  </g>
</svg>
