<?xml version="1.0"?>
<svg xmlns="http://www.w3.org/2000/svg" height="200pt" preserveAspectRatio="xMidYMid meet" viewBox="0 0 200 200" width="200pt">
  <g transform="matrix(.1 0 0 -.1 0 200)">
    <path d="m1251 1859c-84-10-133-34-143-70-4-13-12-43-18-66-6-25-33-71-65-110-56-70-67-99-40-109 56-22 159 90 195 213 15 48 19 50 149 59l93 7-78-156c-72-142-82-156-110-161-17-4-74-20-127-36-84-27-98-34-103-56-4-17-1-31 9-41 14-15 27-13 139 21 68 20 128 36 134 36 14 0 21-25 30-111l7-67-44-7c-71-12-351-94-377-111-15-10-22-23-20-36 6-43 28-43 179 0 210 60 263 72 272 63 4-4 7-34 5-66l-3-59-75-18c-198-49-240-70-224-112 10-26 31-25 170 10 75 19 139 32 141 30 5-4 23-699 19-703-4-5-150 98-189 133-57 52-96 38-63-23 30-57 233-229 293-247 32-10 66 26 59 62-7 33-28 794-22 800 3 2 49 10 102 18 54 8 104 20 111 26 15 12 17 54 3 63-5 3-10 41-10 84v78l43 7c23 3 93 9 155 13 114 6 142 16 142 48 0 8-11 22-25 31-21 14-41 15-127 9-57-4-124-11-150-15l-48-7v76c0 105-9 150-32 162-14 8-48 6-119-6-55-9-102-15-104-13-3 2 29 69 70 149 74 143 86 184 63 207-14 14-151 14-267 1zm299-507v-89l-66-12c-37-6-68-10-71-8-2 2-10 41-17 86l-13 81 31 5c17 3 51 10 76 14 25 5 48 9 53 10 4 1 7-39 7-87zm8-244-3-73-58-9c-32-4-59-7-61-5s-6 32-10 66l-7 61 63 15c35 8 67 15 71 16 4 0 7-32 5-71z"/>
    <path d="m367 1842c-13-14-17-38-17-99v-80l-51-11c-73-17-148-52-154-72-16-49 24-68 86-41 24 11 61 23 82 26l37 7v-50-50l-60-22c-63-24-85-47-75-80 8-24 33-30 65-15 69 33 70 33 70-38v-64l-67-28c-98-41-187-86-195-99-13-20-8-45 11-55 14-8 46 2 143 43 156 68 308 119 420 141 94 19 124 39 113 74-10 34-43 33-189-4-77-19-141-35-143-35-1 0-3 27-3 59 0 59 0 59 33 66 62 14 89 34 85 63-3 26-5 27-60 25l-58-2v48 48l63 12c110 22 134 30 140 51 10 39-14 54-79 47-32-4-74-9-91-13l-33-6v58c0 93-35 138-73 96z"/>
    <path d="m550 1095c-79-13-257-61-280-75-16-10-15-29 5-254 9-94 16-270 16-391 1-136 5-225 11-232 16-20 56-15 68 6 6 12 10 95 10 200v180l40 11c42 11 244 49 247 47 2-3 21-262 19-264-1-2-21 11-44 28-43 31-72 33-72 4 0-20 80-126 116-154 35-27 70-27 85 1 14 25 7 214-16 423-7 71-17 206-21 298-8 208-3 203-184 172zm90-127c0-29 3-62 6-74 5-20 0-21-73-27-43-4-109-14-147-22s-71-14-72-12c-1 1-4 29-5 61l-4 59 40 14c42 15 208 51 238 52 14 1 17-8 17-51zm12-218c1-22 2-48 2-57 1-13-25-22-139-44-77-15-140-27-141-26s-4 28-6 60l-5 57 36 10c20 5 65 14 101 19 57 9 80 13 138 20 7 0 13-14 14-39z"/>
  </g>
</svg>
