<?xml version="1.0"?>
<svg xmlns="http://www.w3.org/2000/svg" height="200pt" preserveAspectRatio="xMidYMid meet" viewBox="0 0 200 200" width="200pt">
  <g transform="matrix(.1 0 0 -.1 0 200)">
    <path d="m709 1839c-11-11-18-27-15-35s9-82 12-164l7-150h-32c-18 0-89-9-159-19-70-11-171-25-225-31-55-5-107-15-118-20-24-13-25-56-1-69 18-10 164 4 352 33 52 8 113 16 135 18l40 3v-43c-1-23-2-87-3-142l-2-100h-43c-51 0-442-66-475-80-18-8-23-17-20-38 3-23 8-27 39-30 19-2 117 11 216 28 100 16 202 30 229 30h47l-7-87c-3-49-11-116-17-149l-11-61-68-7c-147-13-472-79-536-108-26-12-36-31-28-53 10-25 40-26 121-6 202 50 483 94 483 75 0-21-70-216-105-290-28-61-68-125-134-215-11-15-11-22-1-34 23-27 53-16 106 39 91 94 205 366 254 607 28 139 42 413 38 770-3 285-4 308-22 328-24 26-31 26-57 0z"/>
    <path d="m1246 1844c-14-13-16-60-16-367 1-194 5-480 10-637s13-392 16-523c6-186 10-242 21-253 19-19 29-18 55 8 21 21 21 23 15 309l-7 288 53 5c140 14 389 36 451 39 53 2 72 7 82 22 47 64-45 80-286 51-63-8-159-18-212-22l-98-7v161c0 88 3 163 8 165 4 3 81 12 172 21 244 24 249 25 260 47 8 13 7 25 0 39-14 26-58 26-275 1-88-10-161-18-161-17-1 0-4 65-6 142l-4 142 220 23c178 18 223 26 238 41 22 22 22 28 4 53-13 19-18 19-227-3-118-12-220-22-226-22-10 0-13 34-13 136 0 74-5 144-10 155-13 23-43 25-64 3z"/>
  </g>
</svg>
