<?xml version="1.0"?>
<svg xmlns="http://www.w3.org/2000/svg" height="200pt" preserveAspectRatio="xMidYMid meet" viewBox="0 0 200 200" width="200pt">
  <g transform="matrix(.1 0 0 -.1 0 200)">
    <path d="m1440 1750c-52-5-156-13-229-19-74-6-259-11-410-11-296-1-486-16-502-41-13-22-11-34 11-54 19-17 29-18 148-7 70 7 176 12 235 12h108l-7-37c-11-60-22-82-82-174l-57-85-207-11c-131-7-217-16-235-25-27-13-28-15-31-106-1-50 2-149 8-220 5-70 15-262 21-427 11-321 14-336 65-355 15-6 97-6 217 0 641 33 866 40 1080 34 125-4 230-11 233-16 9-14 50-9 66 10 9 9 19 31 22 47 12 57 10 1018-2 1047-7 16-22 31-39 35-35 10-947 9-1027-1l-58-8 30 44c48 70 73 126 84 189l10 59h115c63 0 230 9 371 20s286 21 321 22c51 3 66 7 77 23 12 18 11 24-2 43-14 21-22 22-127 21-62-1-155-5-207-9zm-150-615v-135h-207c-115 0-224-3-244-6l-36-6-7 127c-3 70-4 131 0 134 3 3 103 9 222 12s229 6 245 7l27 2zm461 125h56v-476l1-477-97 7c-53 3-154 6-225 6-118 0-128 1-121 17 4 13 19 845 15 927 0 5 65 6 158 3 86-4 182-7 213-7zm-1041-494v-474l-102-6c-57-3-146-7-199-9l-96-4-7 246c-4 135-11 287-16 336-5 50-12 152-16 227l-7 137 24 5c25 6 121 10 312 14l107 2zm580 50c0-51-3-113-6-137l-6-44-234 3-234 3v129 129l28 4c15 2 123 5 240 6l212 1zm-10-350c0-46-3-97-6-114-6-30-6-30-88-36-44-3-147-7-228-10l-148-5v125 124h235 235z"/>
  </g>
</svg>
