<?xml version="1.0"?>
<svg xmlns="http://www.w3.org/2000/svg" height="200pt" preserveAspectRatio="xMidYMid meet" viewBox="0 0 200 200" width="200pt">
  <g transform="matrix(.1 0 0 -.1 0 200)">
    <path d="m1089 1923c-8-9-18-61-24-127l-10-111-179-18c-98-9-181-16-183-14s-11 49-21 103c-17 95-19 99-45 102-43 5-51-26-34-130l14-87-46-7c-90-12-220-46-231-60-15-17-7-42 16-51 9-3 55 1 103 10 47 9 105 19 129 22l42 7v-119c0-143 7-159 66-149 21 3 66 9 100 12l61 7 6-74c2-41 3-76 0-79-5-5-259-28-325-29-55-1-60-18-37-141 10-58 23-138 28-179 13-105 15-106 153-92 63 6 135 11 160 11h45l5-82c3-46 5-84 4-84 0-1-59-7-131-14-193-18-633-86-650-100-21-18-19-47 5-60 16-8 81-2 273 24 260 37 504 63 512 54 2-2 9-92 16-199 11-202 20-239 58-239 41 0 45 21 33 178-7 81-12 175-12 209v61l58 6c31 3 237 8 457 12 245 4 405 10 413 16 20 17 14 46-13 64-23 15-63 16-408 10-210-3-415-9-454-12l-73-6v80c0 64 3 81 16 86 9 3 80 6 159 6 153 0 193 9 200 44 2 12 9 82 15 156s14 153 17 176c10 79-18 85-290 63-76-6-139-10-141-8s-7 35-11 73l-7 69 101-6c84-5 103-4 116 10 11 11 14 23 9 37-4 12-9 74-11 139l-5 117 49 1c162 4 246 14 257 32 8 12 8 22 0 35-10 15-29 17-157 17h-146l5 60c2 33 7 78 9 101 7 65-34 107-66 67zm-29-425v-103h-174-173l-6 85c-4 46-5 85-4 86 3 4 274 31 320 33l37 1zm225-420c-3-13-9-72-14-131-5-60-11-110-13-112-2-1-67-6-145-10l-142-7-5 34c-3 18-7 77-9 130l-3 98 31 5c55 9 99 12 203 13 101 2 102 2 97-20zm-415-46c0-22 3-80 6-130l7-92-69-1c-38 0-100-3-137-8-63-7-68-6-72 13-2 12-12 69-22 128l-19 108 30 5c32 5 107 10 214 13l62 2z"/>
  </g>
</svg>
