<?xml version="1.0"?>
<svg xmlns="http://www.w3.org/2000/svg" height="200pt" preserveAspectRatio="xMidYMid meet" viewBox="0 0 200 200" width="200pt">
  <g transform="matrix(.1 0 0 -.1 0 200)">
    <path d="m892 1877c-7-8-12-72-14-173l-3-159-205-31c-238-36-309-50-327-66-18-14-16-57 2-64 9-4 73 3 143 15 173 29 168 29 175-18 7-54 47-139 87-184l32-37h-25c-21 0-474-72-533-85-27-6-37-30-24-56 15-28 68-25 320 16 275 45 770 103 970 115 154 9 259 22 293 35 10 5 17 18 17 36 0 34-29 53-68 45-15-3-115-13-222-21-107-9-228-20-269-25-41-6-76-9-78-7s3 31 12 63c8 32 20 96 27 141 14 96 0 89 183 98 66 4 128 9 138 11 27 8 40 40 26 65-11 21-15 22-148 16-121-5-328-27-403-43l-28-6v139c0 147-10 186-46 191-11 2-26-3-32-11zm228-419c0-47-42-210-61-239-14-21-28-25-109-34-80-9-93-9-98 5-3 8-23 42-44 74-35 54-77 161-67 170 5 4 322 53 357 55 18 1 22-4 22-31z"/>
    <path d="m990 950c-107-21-211-43-231-49s-46-11-57-11c-24 0-46-33-38-58 9-28 65-399 80-526 9-81 19-123 30-134 15-15 29-14 178 6 99 14 212 22 289 22 180 0 172-11 154 205-8 94-19 255-25 359-6 105-16 198-21 208-16 29-135 22-359-22zm284-96c3-26 6-89 6-140v-94h-70c-68 0-337-25-391-35-25-6-25-6-43 111-9 64-16 118-14 119 2 2 68 15 148 30 80 14 172 32 205 40 33 7 81 13 106 14l46 1zm29-445 5-106-122-7c-66-4-172-15-233-25-75-11-113-14-113-7 0 6-7 58-14 116-8 58-13 106-11 108 16 17 468 52 476 37 4-5 9-58 12-116z"/>
  </g>
</svg>
