<?xml version="1.0"?>
<svg xmlns="http://www.w3.org/2000/svg" height="200pt" preserveAspectRatio="xMidYMid meet" viewBox="0 0 200 200" width="200pt">
  <g transform="matrix(.1 0 0 -.1 0 200)">
    <path d="m1285 1860c-165-15-352-32-415-36l-115-9-3-27c-6-48 23-53 216-39 217 15 212 15 212-9 0-35-45-145-85-204-50-75-142-175-172-187-28-10-29-36-8-194 18-135 39-620 32-732-3-52-1-85 6-92 15-15 103-14 342 4 110 8 253 15 318 15s127 5 138 10c22 12 25 52 5 69-24 20-35 126-41 396-13 495-14 527-25 561-21 62-50 65-307 34-147-18-197-26-281-45-19-5-17 2 22 52 82 109 132 220 138 310 3 38 0 37 218 53 328 25 322 24 334 43 8 12 8 22 0 35-17 27-182 25-529-8zm329-531c3-17 6-71 6-119v-87l-167-12c-93-7-229-23-303-35-74-13-136-23-136-22-4 2-32 211-30 214 9 8 281 55 411 71 216 27 211 27 219-10zm10-376c10-127 8-153-11-153-43 0-493-30-535-36-47-6-48-6-48 23 0 15-3 64-6 109l-7 81 154 21c209 30 199 29 330 31l116 1zm21-475 7-36-54-5c-94-9-551-38-553-35-1 2-5 65-8 140l-7 137 53 6c28 3 162 12 297 18l245 12 6-100c4-55 10-116 14-137z"/>
    <path d="m715 1639c-87-7-583-97-628-115-22-8-31-42-17-59 17-20 30-19 228 18l173 33-3-672-3-671-55 38c-30 22-67 49-82 60-15 12-33 19-42 16-45-17 7-93 122-179 79-59 110-69 132-43 10 12 13 177 14 740 1 638 3 726 16 730 25 8 202 25 263 25 69 0 97 13 97 43 0 49-16 52-215 36z"/>
    <path d="m1663 263c-21-8-15-50 10-74 33-32 126-102 174-132s75-34 93-12c19 23 2 51-52 86-29 19-82 57-120 86-66 51-79 57-105 46z"/>
    <path d="m1009 214c-13-15-58-51-100-80-42-30-82-61-90-70-17-21 0-48 32-52 30-4 122 55 198 124 47 44 53 54 47 77-9 37-53 37-87 1z"/>
  </g>
</svg>
