<?xml version="1.0"?>
<svg xmlns="http://www.w3.org/2000/svg" height="200pt" preserveAspectRatio="xMidYMid meet" viewBox="0 0 200 200" width="200pt">
  <g transform="matrix(.1 0 0 -.1 0 200)">
    <path d="m1640 1843c-104-12-640-95-667-104-38-12-52-44-29-67 14-14 26-14 128 1 62 10 117 17 121 17 15 0-53-115-102-172l-50-58 5-112c3-62 12-178 20-258s17-233 20-340c6-204 13-245 45-253 10-3 70 2 132 10 61 8 190 16 285 18 193 4 208 8 197 59-34 166-37 224-32 584 6 401 7 392-57 392-42 0-225-32-371-64-60-13-111-23-112-22-2 1 9 18 23 37 31 41 79 134 87 170 7 26 8 26 214 53 115 15 215 31 223 35 37 20 14 84-29 79-9 0-32-3-51-5zm-11-460c-2-154 6-144-135-164-67-10-171-29-233-44s-114-25-115-24c-2 2-6 52-10 110l-6 106 52 17c63 19 381 84 421 85l27 1zm-9-327v-95l-42-5c-98-12-345-46-375-52l-31-6-7 77c-6 61-5 79 6 86 28 17 341 80 437 88 9 1 12-24 12-93zm3-273c4-49 10-104 13-124l6-36-128-6c-71-3-173-12-227-18-53-7-99-10-101-8s-5 53-7 114l-4 109 85 13c99 16 293 40 331 42 26 1 26 0 32-86z"/>
    <path d="m732 1777c-14-16 2-735 22-1032 9-121 16-284 16-362 0-115 3-144 16-157 18-19 45-21 62-4 18 18 15 235-8 583-11 165-20 370-20 455 0 204-17 486-30 510-12 23-42 26-58 7z"/>
    <path d="m280 1700c-7-14-4-95 11-287 15-196 19-308 15-418-15-356-69-652-153-837-29-64-33-80-23-93 18-22 34-19 65 13 108 106 195 543 195 977 0 188-35 632-52 652-16 19-46 16-58-7z"/>
    <path d="m500 1391c-7-14-6-57 5-148 8-70 15-207 15-304 0-190 4-204 51-197 35 5 42 53 35 253-6 198-27 378-46 400-17 21-47 19-60-4z"/>
    <path d="m1195 400c-3-5-13-33-22-62-18-62-56-140-89-184-28-36-30-56-9-74 49-41 144 85 185 247 11 42 11 55 1 67-15 18-56 21-66 6z"/>
    <path d="m1628 399c-10-5-18-21-18-34 0-18 28-47 118-123 64-54 129-106 144-116 55-36 101 14 56 61-29 32-267 223-276 223-4 0-15-5-24-11z"/>
  </g>
</svg>
