<?xml version="1.0"?>
<svg xmlns="http://www.w3.org/2000/svg" height="200pt" preserveAspectRatio="xMidYMid meet" viewBox="0 0 200 200" width="200pt">
  <g transform="matrix(.1 0 0 -.1 0 200)">
    <path d="m1420 1835c-205-31-377-64-417-81-25-10-33-19-33-38 0-41 25-46 120-25 100 22 110 23 110 8 0-23-80-180-119-235-43-60-50-90-27-108 9-7 24-74 42-186 24-152 28-206 28-412 1-298-7-283 146-267 58 6 169 12 248 13 109 2 146 6 157 17 17 17 20 232 9 667-7 283-8 294-28 307-20 12-159-1-429-41l-49-7 30 54c16 30 45 93 62 141 25 65 38 88 54 91 26 7 249 34 339 42 75 7 98 26 77 65-9 17-20 20-88 19-42 0-147-11-232-24zm170-535v-109l-32-5c-18-3-76-8-128-11-52-4-128-12-168-19-52-9-75-9-77-2-2 6-8 43-15 81-6 39-13 82-16 96-5 26-5 26 103 43 171 27 224 33 281 35l52 1zm4-231c3-17 6-60 6-94v-62l-132-7c-73-3-161-9-194-12l-61-6-5 83c-3 46-4 85-3 87 8 10 236 38 336 41 44 1 47 0 53-30zm6-357v-119l-162-7c-90-4-178-9-195-12-33-6-33-6-33 33 0 22 3 74 6 116 8 91-8 84 214 96 80 4 151 9 158 10 9 1 12-29 12-117z"/>
    <path d="m575 1785c-113-30-336-108-378-133-35-20-45-45-27-67s29-20 173 34c135 50 286 96 293 88 6-6-140-307-149-307-4 0-31 16-60 35-58 39-91 44-107 16-15-30-3-48 64-93 33-23 87-65 118-94 64-58 92-72 113-54 23 19 18 46-16 84-23 27-29 41-23 58 3 13 47 106 95 207 49 101 89 194 89 206 0 52-47 57-185 20z"/>
    <path d="m630 1149c-110-23-327-94-450-147-74-32-85-41-88-64-2-18 3-30 16-37 16-8 45-1 144 38 203 81 493 160 513 139 3-2-13-43-35-90-45-98-48-113-20-128 27-14 45 5 108 118 67 118 79 165 49 184-21 14-141 7-237-13z"/>
    <path d="m484 976c-3-8 2-62 13-118 14-82 18-151 17-340 0-131-3-240-6-243s-17-1-32 4c-70 27-76-30-8-80 62-47 77-51 103-30 21 17 24 30 32 172 14 248-8 535-47 619-13 30-63 40-72 16z"/>
    <path d="m1562 398c-30-30-11-56 98-128 36-24 84-59 107-78 48-39 86-39 96 0 8 29-40 75-164 156-97 64-116 71-137 50z"/>
    <path d="m1149 333c-24-27-71-71-104-100-52-44-58-54-49-70 28-46 110-9 204 94 50 55 61 88 38 111-22 22-44 13-89-35z"/>
  </g>
</svg>
