<?xml version="1.0"?>
<svg xmlns="http://www.w3.org/2000/svg" height="200pt" preserveAspectRatio="xMidYMid meet" viewBox="0 0 200 200" width="200pt">
  <g transform="matrix(.1 0 0 -.1 0 200)">
    <path d="m1515 1849c-270-10-528-42-562-71-18-15-16-57 3-65 9-3 68 2 133 11 64 9 126 19 139 20 19 3 21 0 16-18-16-55-109-229-129-242-13-8-25-24-28-34-3-11 6-97 19-192 37-262 55-463 63-679 5-149 10-201 21-214 14-16 34-17 270-11 201 6 260 11 278 23l24 15-4 381c-1 210-1 458 2 550 6 211 14 202-150 192-63-3-173-13-243-21-71-9-130-14-132-12s12 35 31 73c18 39 43 98 54 132 12 34 28 64 36 67 9 3 75 6 148 6s161 3 195 7c54 5 64 10 74 31s8 27-12 43c-13 11-28 18-35 17-6 0-101-5-211-9zm155-467c0-27-3-83-6-125l-7-77h-66c-78 0-207-15-305-35-38-8-71-14-72-12-1 1-10 59-21 128l-19 126 156 17c85 9 169 18 185 20 17 1 58 4 93 5l62 1zm-10-400v-119l-142-7c-79-3-173-9-209-13l-66-6-7 93c-4 51-10 98-12 105-7 18 241 57 404 64l32 1zm0-326c0-62 3-133 6-158l6-45-113-6c-63-4-156-9-206-13l-93-7v135c0 75-3 149-6 166l-6 31 83 4c46 1 139 4 207 5l122 2z"/>
    <path d="m433 1702c-7-4-16-28-22-52-5-25-22-76-36-113-60-161-118-246-261-382-46-44-84-86-84-92 0-16 28-43 45-43 24 0 132 89 190 157 81 94 136 184 175 280l32 82 57-77c96-130 343-337 425-358 27-6 59 28 49 53-3 8-47 42-97 75-160 108-316 273-393 418-29 54-53 70-80 52z"/>
    <path d="m400 1161c-5-11-10-22-10-25s27-37 60-76c63-73 94-87 120-55 17 21 5 46-60 118-55 61-91 73-110 38z"/>
    <path d="m595 859c-164-22-233-35-317-60-57-17-69-24-74-45-4-17-1-31 8-41 14-13 27-12 119 11 90 22 398 70 405 63 1-1-34-58-77-127-44-69-84-131-88-139-7-11-23-2-75 42-37 32-76 57-86 57-22 0-43-32-34-53 3-9 75-79 161-156 154-139 183-157 211-129 23 23 11 46-54 107-60 56-65 64-51 79 25 29 199 313 209 343 6 19 6 34-2 48-14 26-68 26-255 0z"/>
    <path d="m1165 208c-91-81-99-91-90-117 16-50 58-34 158 59 76 71 89 94 65 118s-54 10-133-60z"/>
    <path d="m1636 255c-36-37-23-51 123-142 106-65 135-72 155-40 20 31-22 69-169 152-82 46-90 49-109 30z"/>
  </g>
</svg>
