<?xml version="1.0"?>
<svg xmlns="http://www.w3.org/2000/svg" height="200pt" preserveAspectRatio="xMidYMid meet" viewBox="0 0 200 200" width="200pt">
  <g transform="matrix(.1 0 0 -.1 0 200)">
    <path d="m1430 1745c-388-21-431-26-451-46-23-23-14-57 18-65 13-4 70-3 125 1l101 7-21-29c-11-15-48-64-81-108-56-74-61-83-56-120 13-101 26-446 23-600-1-93 1-176 6-184 10-15 68-13 354 9 130 10 145 10 162-5 28-25 59-15 82 27 19 33 20 40 8 63-11 20-12 88-7 359 4 184 10 348 13 364 5 25 1 36-20 57-26 26-29 26-119 20-125-8-317-25-344-31-19-4-14 7 32 72 30 42 55 84 55 94 0 15 15 18 122 23 66 4 163 7 214 7 118 0 144 9 144 50 0 24-6 33-26 40-29 11-34 11-334-5zm180-404v-69l-77-6c-65-5-324-34-358-39-6-1-11 28-13 70l-3 71 48 6c88 10 267 26 328 29 33 2 63 4 68 5 4 1 7-29 7-67zm-10-261v-90h-92c-51 0-142-7-203-15-60-8-113-15-116-15-4 0-10 37-14 81-5 61-3 84 6 89 7 5 58 13 113 20 56 6 108 13 116 15 8 1 54 3 103 4l87 1zm0-273v-93l-172-12c-95-7-190-15-210-18l-38-7v96 96l33 6c80 15 171 23 275 24l112 1z"/>
    <path d="m455 1724c-192-26-265-50-265-87 0-41 24-52 78-39 96 25 220 42 337 48 125 7 165 19 165 52 0 10-5 23-12 30-16 16-173 14-303-4z"/>
    <path d="m620 1380c-208-22-353-45-366-57-8-8-14-27-14-42 0-29 54-261 70-297 11-27 62-35 140-23 30 5 122 15 204 23 176 16 176 16 176 120 0 39 7 102 15 141 20 94 19 122-4 135-22 11-108 11-221 0zm135-117c-5-21-11-69-14-108l-6-70-145-17c-80-9-158-18-174-20-29-3-30-2-52 87-13 50-24 97-24 106 0 14 19 19 98 29 138 17 241 27 286 29l38 1z"/>
    <path d="m721 881c-16-10-94-309-86-329 3-8-15-21-47-35l-52-23-47 162c-26 90-50 168-54 173-12 20-55 12-66-12-8-17-2-49 26-146 19-68 44-143 54-167l19-43-86-47c-148-80-164-92-160-121 5-44 32-52 81-24 154 86 325 167 467 221 175 66 203 82 198 113-6 42-33 44-131 9-50-19-99-36-108-38-13-5-11 10 13 80 15 46 31 112 35 147 5 53 4 64-12 75-22 16-25 17-44 5z"/>
    <path d="m1179 488c-27-32-111-145-132-179-14-22-16-32-7-48 26-49 89-5 170 116 54 81 58 94 34 117-22 22-42 20-65-6z"/>
    <path d="m1495 497c-44-33 16-97 186-201 89-53 124-58 141-20 15 31 8 38-117 115-44 27-102 65-129 84-55 40-56 40-81 22z"/>
  </g>
</svg>
