<?xml version="1.0"?>
<svg xmlns="http://www.w3.org/2000/svg" height="200pt" preserveAspectRatio="xMidYMid meet" viewBox="0 0 200 200" width="200pt">
  <g transform="matrix(.1 0 0 -.1 0 200)">
    <path d="m400 1915c-10-12-12-50-7-159l7-144-33-5c-17-4-88-12-156-18-134-14-156-24-148-68 3-14 12-62 21-106s20-98 24-119c14-74 74-75 80-1 3 35-9 127-24 181-5 20 0 22 103 33 59 6 173 20 253 31 80 10 178 21 219 24 73 6 73 6 67-16-41-143-42-168-8-168 28 0 57 37 91 120 33 79 38 119 19 138-16 16-205 15-323-2-49-7-91-12-93-11-2 2-8 65-13 141-5 75-14 143-20 150-15 18-44 18-59-1z"/>
    <path d="m1495 1849c-33-4-114-15-180-24-141-20-255-43-272-57-18-14-16-43 3-59 13-11 32-10 112 4 53 9 98 15 99 13 9-9-42-121-70-156-18-22-45-55-60-74-31-38-31-36 7-291 9-55 20-221 25-370 5-148 12-278 16-288s17-22 29-26c11-4 121-6 243-3l222 4 28 37 28 36-1 440c0 242-3 452-7 467-5 19-16 30-34 34-24 6-316-10-391-22l-34-5 25 43c32 55 60 144 54 168-6 22-1 23 213 45 91 10 172 20 180 25 20 10 25 37 10 55-14 17-140 19-245 4zm139-421c3-13 6-44 6-70v-46l-77-6c-140-11-294-27-323-32-28-6-29-5-35 42-3 27-8 61-10 77-3 15-3 27-2 28 8 4 315 27 368 28 61 1 67-1 73-21zm6-342v-133l-167-7c-93-3-182-9-199-12l-31-6-7 128c-3 70-4 129-2 131 8 8 237 31 324 32l82 1zm0-333c0-65-4-123-8-129-4-8-71-13-192-15l-185-4-3 122-3 121 73 6c40 3 89 8 108 9 19 2 74 5 123 5l87 2z"/>
    <path d="m570 1410c-114-29-187-35-216-19-44 23-58 3-65-88s-44-182-98-242c-17-18-31-37-31-42 0-11 29-39 41-39 27 0 71 35 100 80l33 51 70-70 70-70-29-43c-32-50-171-186-232-229-23-16-56-32-73-35-17-4-33-10-35-14-15-24 32-60 76-60 11 0 37 9 57 19 52 27 203 164 258 236 25 33 48 62 50 64s43-22 91-55c127-85 289-166 326-162 33 3 53 27 44 51-3 9-53 39-110 66s-149 80-204 116l-101 67 44 92c46 99 104 264 104 300 0 50-44 57-170 26zm60-90c0-32-99-260-112-260-6 0-41 30-79 67-68 66-70 68-67 113l3 45 50 8c28 5 77 15 110 22 77 16 95 17 95 5z"/>
    <path d="m477 599c-60-10-115-23-124-27-11-7-21-4-34 9-23 23-33 24-54 2-19-19-19-18 24-208 18-77 38-146 45-152 9-10 56-11 226-2 233 12 247 16 236 69-3 14-9 88-12 165-4 77-11 146-17 153-14 18-162 14-290-9zm213-131c0-40 3-89 6-110l6-36-53-6c-30-3-99-7-153-8l-100-3-18 75c-24 105-24 108 20 119 47 13 217 39 260 40l32 1z"/>
    <path d="m1118 423c-52-61-142-242-132-267 7-18 47-32 63-22 12 8 141 249 141 264s-29 42-44 42c-7 0-20-8-28-17z"/>
    <path d="m1682 428c-19-19-14-36 14-61 15-12 65-55 111-94 46-40 95-80 108-89 42-27 95-1 79 40-3 8-31 34-62 59s-88 70-125 101c-68 55-102 67-125 44z"/>
  </g>
</svg>
