<?xml version="1.0"?>
<svg xmlns="http://www.w3.org/2000/svg" height="200pt" preserveAspectRatio="xMidYMid meet" viewBox="0 0 200 200" width="200pt">
  <g transform="matrix(.1 0 0 -.1 0 200)">
    <path d="m440 1835c-13-15-9-148 6-201 5-19-1-22-83-33-48-7-109-17-136-23-54-11-74-36-56-69 10-19 17-21 68-16l57 5 26-57c14-31 38-75 52-97l26-41-113-17c-61-10-123-22-136-27-27-11-27-18 9-179 46-208 36-570-21-780-18-63-33-131-33-150-1-32 1-35 28-35 44 0 62 34 103 190l36 140 1 265c1 242-1 274-22 368-13 57-22 105-20 107 6 6 369 55 528 71 91 9 171 21 178 27 17 13 15 52-3 67-15 13-116 9-218-7l-38-6 25 37c24 36 46 113 46 161 0 22 4 25 39 25 45 0 74 22 69 53-6 38-28 42-173 28-114-11-139-11-145 0-5 7-12 47-16 89-9 98-17 120-48 120-13 0-29-7-36-15zm219-334c-5-22-18-63-29-92-12-29-19-58-16-64 3-8-11-15-41-19-79-11-78-11-128 74-67 114-67 113 35 126 47 6 108 12 136 13l52 1z"/>
    <path d="m1505 1764c-198-16-408-41-456-54-42-12-54-32-38-62 10-19 17-20 97-14 46 3 95 9 108 12 17 4 24 2 24-7 0-25-56-133-118-228-61-91-71-118-53-136 5-6 17-73 27-150 19-144 26-518 12-582-11-46 12-67 66-59 23 4 163 9 311 12 232 5 272 8 283 22 13 17 13 15-13 297-8 83-17 244-21 359-8 269 6 251-193 242-80-4-188-15-238-25-51-10-93-17-93-16 0 2 16 29 35 61 41 69 77 159 78 195 0 30-4 30 292 49 122 8 152 13 163 27 16 23 15 30-8 53s-35 23-265 4zm129-450c3-9 6-49 6-90v-74h-54c-70 0-265-26-336-44-30-8-56-13-57-12-6 6-29 177-24 180 3 2 46 11 94 21 188 36 361 45 371 19zm16-339v-95l-132-1c-73 0-171-6-218-13s-86-13-86-12c-1 1-5 35-9 77l-7 75 52 12c55 13 253 39 335 45 28 2 53 4 58 5 4 1 7-41 7-93zm24-283c5-51 7-94 5-96s-109-6-237-8l-232-3v91 91l73 10c39 6 142 10 227 9l155-1z"/>
    <path d="m603 1142c-7-4-26-35-43-68-19-38-75-110-150-193-123-136-142-173-100-186 29-9 48 5 163 124 153 161 214 272 172 314-18 19-24 20-42 9z"/>
    <path d="m631 830c-40-54-125-156-187-226-63-70-114-130-114-135 0-18 31-37 52-32 51 12 364 368 381 432 7 30-11 61-35 61-17 0-41-25-97-100z"/>
    <path d="m687 618c-84-114-182-214-287-293-108-82-125-99-116-120 32-84 352 167 485 380 32 53 33 55 17 80-9 14-23 25-31 25s-38-33-68-72z"/>
    <path d="m1567 373c-4-3-7-18-7-33 0-21 21-45 101-116 159-140 173-149 203-118 34 33 31 36-142 185-95 83-134 103-155 82z"/>
    <path d="m1147 313c-19-27-51-69-71-95-48-60-48-101 0-106 28-3 36 4 91 75 75 97 86 119 79 149-5 18-13 24-35 24-23 0-36-10-64-47z"/>
  </g>
</svg>
