<?xml version="1.0"?>
<svg xmlns="http://www.w3.org/2000/svg" height="200pt" preserveAspectRatio="xMidYMid meet" viewBox="0 0 200 200" width="200pt">
  <g transform="matrix(.1 0 0 -.1 0 200)">
    <path d="m1625 1853c-16-2-167-22-335-44-200-26-309-44-318-53-19-19-6-55 23-62 21-5 188 10 242 21 22 5 22 5 7-47-21-70-74-171-124-233-66-83-68-90-58-180 5-44 10-261 12-483 1-305 5-405 15-415 19-19 607-11 639 9 21 14 22 19 22 182 0 92-7 303-15 469-7 166-11 327-8 358 5 45 2 59-13 76-18 20-26 21-114 15-52-3-161-21-242-39-82-19-148-33-148-32s20 37 45 81c44 76 85 185 85 224 0 11 4 21 9 24 17 11 323 46 399 46 98 0 121 7 128 36 12 45-9 54-120 53-55-1-114-4-131-6zm7-585c2-62 3-114 3-115s-81-11-180-22c-99-12-204-26-233-32-30-6-56-9-59-6-2 3-7 48-10 100-5 87-4 95 13 100 15 4 233 52 369 80 11 3 36 5 57 6l36 1zm8-260c0-29 3-89 6-134l7-81-144-7c-79-3-186-11-237-17s-94-10-96-8-6 56-8 121l-4 116 55 12c59 12 332 47 389 49l32 1zm20-437v-129l-247-4c-137-3-250-3-252-2-2 2 0 55 4 118l7 114 51 8c96 13 211 21 325 23l112 1z"/>
    <path d="m665 1813c-33-2-122-10-199-18-76-8-172-15-212-15-62 0-77-3-95-21-16-16-19-29-15-52 28-161 37-619 18-902-13-197-54-480-82-559-24-72-25-102-3-110 27-11 66 26 90 85 20 51 29 96 68 364 26 180 37 517 25 775-6 129-14 256-19 281l-7 46 105 7c58 3 123 9 144 12l37 7v-79c0-44-3-129-7-190l-6-112-98-7c-63-4-102-11-109-20-9-10-9-51-1-159 6-80 11-174 11-210 0-95 8-100 142-93l108 7v-334-334l-32 2c-46 2-48-29-6-85 43-56 75-73 103-55 19 13 20 24 20 410v396h91c74 0 94 3 106 18 12 13 17 60 22 228 6 187 5 214-9 228-20 19-14 19-147 16l-107-2v190 190l129 7c108 6 132 10 146 26s15 24 6 44c-12 27-29 28-217 18zm115-582c0-10-3-33-6-50l-6-31h-77c-42 0-125-7-185-15-61-8-111-13-112-12s-4 27-6 57l-3 55 95 6c52 3 141 6 198 7 94 2 102 0 102-17zm-20-231v-60h-112c-62 0-143-3-180-7l-68-6v51c0 45 3 52 23 57 48 11 166 23 250 24l87 1z"/>
    <path d="m728 599c-32-18-19-43 66-128 71-71 87-82 112-79 23 2 30 9 32 28 3 30 4 28-90 118-77 73-89 79-120 61z"/>
    <path d="m370 543c-5-10-38-74-74-143-35-69-74-144-87-167-28-49-20-76 24-81 31-4 51 25 139 198 63 125 77 172 58 195-17 20-48 19-60-2z"/>
    <path d="m1570 285c-6-8-10-22-8-31 7-37 357-212 397-199 28 9 37 42 17 64-9 10-47 31-84 46s-112 52-168 82c-106 55-134 63-154 38z"/>
    <path d="m1076 213c-40-38-85-78-100-90-56-46-11-102 55-67 47 24 179 158 179 181 0 24-19 43-43 43-10 0-51-30-91-67z"/>
  </g>
</svg>
