<?xml version="1.0"?>
<svg xmlns="http://www.w3.org/2000/svg" height="200pt" preserveAspectRatio="xMidYMid meet" viewBox="0 0 200 200" width="200pt">
  <g transform="matrix(.1 0 0 -.1 0 200)">
    <path d="m407 1859c-13-18-15-50-10-203l6-182-104-12c-167-19-202-36-183-87 6-15 15-17 73-11 36 4 92 10 125 13l58 6-57-89c-31-49-74-111-94-139-63-85-83-123-76-145 18-57 92 4 197 163 28 42 52 77 52 77 1 0 0-65-2-145-4-152 1-175 39-175 39 0 49 26 49 128 0 53 3 134 7 179l6 82 70-54c76-59 87-63 111-39 31 31 18 53-67 115-86 63-82 67 75 75 163 7 177 10 184 40 4 14 1 31-7 40-12 15-30 16-139 10-69-3-151-9-182-12l-58-6v168c0 174-8 215-42 222-9 2-23-7-31-19z"/>
    <path d="m1425 1869c-146-13-395-56-422-74-26-18-30-47-8-65 15-13 37-10 239 27l29 5-23-33c-13-19-70-82-128-140l-104-107 10-63c23-133 65-819 55-886-8-53 6-56 283-44 135 6 262 8 282 5 76-12 72-39 81 516 4 272 4 502 0 511-5 9-16 20-25 23-20 8-422-21-479-34-22-5-44-10-49-10s21 32 58 70c71 76 111 133 122 174 8 32 21 35 233 44 149 6 165 9 177 27s11 24-2 43c-14 21-22 22-122 21-59-1-152-6-207-10zm205-532v-114l-132-7c-73-4-185-15-249-24l-116-17-10 110c-7 71-8 112-1 116 26 16 284 44 436 47l72 2zm0-321v-114l-162-6c-90-4-198-9-240-12l-78-6v53c0 30-3 77-6 105l-6 52 83 11c130 18 247 28 332 30l77 1zm-7-273c-2-38-6-87-9-109l-5-42-122-6c-67-4-165-9-218-12l-96-6-7 47c-3 26-6 76-6 111v63l53 5c74 9 144 12 287 14l126 2z"/>
    <path d="m636 1776c-13-29-40-78-60-107-20-30-36-64-36-76 0-30 34-39 66-18s86 106 110 172c21 58 11 83-32 83-20 0-29-10-48-54z"/>
    <path d="m148 1779c-34-19-20-52 55-132 72-77 110-96 123-62 12 29-6 61-73 133-71 75-77 78-105 61z"/>
    <path d="m453 892c-7-4-25-51-39-103-15-51-28-96-30-98s-56-13-120-25c-124-22-151-38-128-73 13-20 82-24 168-10l49 9-7-29c-19-74-86-193-154-272-92-106-105-151-45-151 19 0 45 20 100 78 77 81 143 193 178 302 10 30 19 57 21 59s16-12 31-30c69-84 126-138 235-226 126-101 168-123 194-102 30 25 9 53-128 163-116 95-256 232-246 241 2 2 75 13 163 25s166 26 173 32c19 16 14 46-11 63-21 13-40 12-193-10-93-14-172-25-176-25-3 0 0 21 8 47 20 68 18 120-5 133-23 12-23 12-38 2z"/>
    <path d="m1570 405c-20-24-8-41 88-128 144-131 211-157 220-84 3 21-5 31-40 53-24 15-70 52-103 82-95 88-139 109-165 77z"/>
    <path d="m1109 358c-24-29-62-74-86-100-45-49-55-86-28-108 8-6 23-9 34-5 25 8 113 103 158 172 29 43 33 55 23 72-19 37-54 26-101-31z"/>
  </g>
</svg>
