<?xml version="1.0"?>
<svg xmlns="http://www.w3.org/2000/svg" height="200pt" preserveAspectRatio="xMidYMid meet" viewBox="0 0 200 200" width="200pt">
  <g transform="matrix(.1 0 0 -.1 0 200)">
    <path d="m1320 1763c-25-1-103-7-175-13-71-6-255-19-407-30s-298-24-324-30-53-9-60-6c-8 3-21-2-29-11-13-12-15-25-8-57 14-73 7-500-11-661-31-276-65-404-156-586-49-98-52-129-11-129 34 0 71 41 111 123 114 239 162 522 164 984 1 243 2 252 21 257 11 3 124 13 250 21 127 9 313 22 415 31 102 8 265 17 363 21 196 7 185 11 167-62-6-22-26-141-46-265-33-198-37-247-38-410 0-207 11-275 66-408 34-83 172-264 221-292 24-13 28-13 51 9 32 30 66 118 69 179 2 41-1 47-18 47-14 0-29-18-53-63l-33-63-56 68c-129 157-177 355-154 633 12 138 48 385 83 558 26 129 23 143-38 154-38 7-276 8-364 1z"/>
    <path d="m1080 1557c-57-31-168-76-275-112-169-56-180-61-180-85 0-23 4-25 46-28 26-2 83 6 127 17 44 12 83 21 86 21s6-36 6-80c0-71-2-80-18-80-30 0-235-20-259-25-42-10-46-34-27-203 11-106 22-163 32-174 13-16 34-18 149-18h133v-184-183l-52-6c-29-4-109-9-178-13-136-7-190-22-190-51 0-49 48-52 365-29 105 8 267 20 360 27 94 6 174 15 179 20 6 5 27-21 51-64 29-52 47-73 63-75 28-4 52 14 52 39s-87 179-144 257c-47 63-77 82-101 62-23-19-18-47 14-94l30-43-157-11c-86-7-167-12-179-12h-23v186 185l164-2c115-2 169 1 179 9 9 8 15 33 15 70 0 31 3 114 7 185 5 95 4 131-5 142-10 12-45 15-191 15h-179v43c0 23-3 65-6 92l-6 50 79 33c149 61 208 115 173 158-19 22-37 16-140-39zm186-464c-3-21-6-75-6-120v-83h-134-135l-3 120-3 120h144 144zm-368-95 3-118h-105-105l-5 33c-16 94-24 183-18 189 8 8 94 15 172 14l55-1z"/>
  </g>
</svg>
