<?xml version="1.0"?>
<svg xmlns="http://www.w3.org/2000/svg" height="200pt" preserveAspectRatio="xMidYMid meet" viewBox="0 0 200 200" width="200pt">
  <g transform="matrix(.1 0 0 -.1 0 200)">
    <path d="m1300 1905c-129-27-406-68-580-85-94-9-118-15-132-31-19-22-15-45 11-58 9-5 48-6 91-1 41 5 90 9 108 10h32v-127c0-71 5-237 11-371 7-133 9-245 7-248-6-5-229-34-269-34-25 0-27 3-33 68-4 37-20 105-35 152l-29 84 45 83c53 98 56 138 9 138-26 0-35-10-94-110-45-75-91-136-146-193-82-83-94-107-65-125 25-16 68 7 135 69 32 30 59 54 60 54 4 0 33-138 39-182l6-48-63-1c-35 0-83-4-108-7-38-6-46-11-48-31-6-40 21-51 120-51 48 0 88-2 88-4 0-22-36-190-56-261-47-164-93-253-201-388-59-73-62-97-14-97 59 0 156 114 230 271 42 87 90 253 115 397 7 46 16 85 17 86 7 7 301 37 306 32 3-3 8-194 11-426 4-346 8-424 19-436 19-19 37-18 57 5 15 17 16 52 8 442-5 233-8 425-6 427 1 2 64 12 141 22 76 11 158 23 183 28l45 8v-145c1-132 4-157 33-264 67-249 156-349 369-418 59-18 77-21 97-11 29 13 58 66 86 155 25 79 25 97 0 97-13 0-35-25-71-81-46-71-55-80-76-74-124 31-223 106-267 204-54 120-79 243-80 386-1 72 3 153 8 182 8 50 7 53-17 64-19 9-41 7-98-6-79-18-351-56-357-50-5 5-20 284-28 528l-7 216 24 5c13 3 78 12 144 21s151 23 188 31c87 18 91 18 82-3-31-73-67-199-77-269-28-198 48-358 206-434 80-38 127-48 266-55 143-9 152-4 158 84 5 65-6 91-38 91-12 0-24-15-36-45l-17-46-61 6c-139 13-161 17-220 44-78 36-111 67-144 139-51 109-30 283 59 471 21 46 39 90 39 97 0 14-38 44-55 43-5 0-62-11-125-24z"/>
    <path d="m1659 1733c-8-10-22-29-31-43-8-14-43-57-76-97-81-96-91-133-37-133 32 0 156 126 189 192 23 46 24 54 12 72-18 28-39 31-57 9z"/>
    <path d="m1587 1389c-27-16-21-55 11-67 42-16 228-25 252-12 28 15 27 58-2 69-36 13-241 21-261 10z"/>
    <path d="m1646 856c-35-38-78-124-74-149 7-53 62-24 118 63 32 50 37 79 18 98-18 18-37 15-62-12z"/>
    <path d="m1621 592c-16-30 12-58 86-85 99-37 110-39 133-27 27 14 26 46-2 62-43 24-163 68-185 68-12 0-27-8-32-18z"/>
  </g>
</svg>
