<?xml version="1.0"?>
<svg xmlns="http://www.w3.org/2000/svg" height="200pt" preserveAspectRatio="xMidYMid meet" viewBox="0 0 200 200" width="200pt">
  <g transform="matrix(.1 0 0 -.1 0 200)">
    <path d="m848 1939c-10-5-27-42-39-82-32-109-149-329-244-462-97-135-238-262-404-363-73-43-92-65-74-83 67-67 404 175 559 401 59 85 186 309 210 369 9 23 19 41 23 41 3 0 26-31 51-67 61-91 203-238 325-336 205-165 493-337 565-337 32 0 60 18 60 40 0 15-27 32-112 73-260 124-601 391-749 587-40 53-89 143-89 166 0 10-34 45-55 57-6 3-18 1-27-4z"/>
    <path d="m862 1468c-8-8-12-51-12-129v-117l-77-17c-114-25-108-18-107-126 10-603 10-595-19-761-30-173-28-198 19-198 17 0 41 16 72 48 26 26 90 80 144 120 103 77 158 133 158 159 0 10 36-19 93-73 174-171 295-253 393-269 30-5 44-2 54 9 10 13 10 19 0 31-7 8-18 15-24 15-19 0-150 93-246 174-104 87-177 159-300 296-98 108-129 126-153 88-15-23-2-45 88-148 66-76 72-86 54-92-11-4-75-48-143-97l-122-89 13 67c7 36 16 143 19 237l7 171 81 12c45 6 133 14 196 17 65 4 124 12 136 19 17 11 22 31 34 151 23 246 24 259 4 279-16 16-31 17-124 12-58-4-117-9-132-13l-28-6v109c0 115-6 133-45 133-12 0-26-5-33-12zm282-345c-3-27-9-51-13-55-3-4-51-12-106-17-55-6-139-17-187-24l-86-13-4 44c-3 39-1 45 21 53 42 17 274 57 329 58l53 1zm-22-191-4-38-141-13c-78-7-159-15-179-18-38-5-38-5-38 29v35l128 16c70 10 143 19 162 20 81 8 76 10 72-31z"/>
    <path d="m1286 793c-84-102-176-228-173-237 2-6 14-12 28-14 58-6 222 170 217 233-2 24-8 31-30 33-17 2-33-4-42-15z"/>
  </g>
</svg>
