<?xml version="1.0"?>
<svg xmlns="http://www.w3.org/2000/svg" height="200pt" preserveAspectRatio="xMidYMid meet" viewBox="0 0 200 200" width="200pt">
  <g transform="matrix(.1 0 0 -.1 0 200)">
    <path d="m430 1823c-6-10-39-83-73-163-81-187-129-267-216-363-70-76-86-112-56-123 30-12 65 7 127 70 75 76 138 179 209 341 28 66 53 122 55 123 1 2 36-25 76-60 94-80 242-198 274-218 30-19 58-5 62 32 3 27-23 52-193 183-49 39-118 98-151 132-63 65-95 78-114 46z"/>
    <path d="m1120 1711c-5-11-10-37-10-58-1-91-54-275-126-434-44-96-47-122-17-133 38-15 86 54 151 216 9 23 22 29 99 46 97 23 255 47 377 58l78 7-71-139c-76-145-83-179-41-179 31 0 81 65 150 197 39 74 52 111 53 146 3 72-11 75-213 51-91-10-214-28-274-39-59-12-109-20-111-18-1 2 6 44 16 93 30 146 23 205-26 205-14 0-29-8-35-19z"/>
    <path d="m460 1421c-5-11-10-63-10-115 0-86-2-96-18-96-36 0-123-31-143-51s-20-28-14-327c4-226 2-350-8-472-8-93-10-175-6-187 14-37 51-28 140 32 44 31 120 75 167 99l87 44 69-89c67-86 97-108 131-95 35 13 15 57-79 174-126 157-196 225-227 220-41-5-38-51 6-100l37-40-91-48c-50-27-105-58-122-71l-31-22 7 64c4 35 10 129 14 209l6 144 110 22c61 12 143 26 182 29 40 4 77 12 82 19 5 6 12 47 16 91s13 125 21 180c18 133 18 190-2 209-19 19-72 20-171 2l-73-12v84c0 95-10 122-45 122-14 0-29-8-35-19zm245-303c-14-116-7-108-94-108-42 0-114-5-160-10-46-6-84-10-86-8-1 2-5 29-8 60l-5 57 56 12c119 24 248 47 275 48l29 1zm-25-202c0-6-3-28-6-48-6-33-10-38-33-38-14 0-80-11-146-25-65-13-121-22-124-19-2 2-6 29-9 59-3 41-1 56 10 60 20 8 194 23 256 22 30 0 52-5 52-11z"/>
    <path d="m1274 1258c-5-7-9-76-9-153-1-110-7-167-28-266-40-189-120-402-182-483-56-74-7-115 63-52 43 40 86 124 142 283l36 103 86-98c204-229 469-466 545-484 12-3 30 0 39 7 31 22 9 57-78 120-46 33-126 99-178 147-98 89-307 312-359 384l-30 40 14 80c18 101 19 320 2 354-14 28-51 38-63 18z"/>
  </g>
</svg>
