<?xml version="1.0"?>
<svg xmlns="http://www.w3.org/2000/svg" height="200pt" preserveAspectRatio="xMidYMid meet" viewBox="0 0 200 200" width="200pt">
  <g transform="matrix(.1 0 0 -.1 0 200)">
    <path d="m382 1868c-5-7-22-61-36-120s-39-143-56-186c-29-75-129-254-199-356-37-53-35-76 7-76 44 0 71 28 145 149 83 134 127 228 162 343l26 87 58-67c94-108 276-280 305-288 28-7 56 9 56 31 0 8-76 90-168 184-126 127-177 186-202 233-18 35-38 66-44 70-17 12-42 9-54-4z"/>
    <path d="m1470 1693c-94-8-547-53-588-59-64-9-91-45-56-75 13-10 66-8 307 15 370 34 540 46 549 38 3-4-2-63-13-132-16-112-18-188-19-712 0-464-3-588-12-588-14 0-122 53-174 85-17 10-38 16-47 12-52-20 25-98 176-180 116-62 140-64 150-11 2 14 2 295-1 623-5 583-4 600 18 765 32 228 36 221-125 222-66 0-140-1-165-3z"/>
    <path d="m422 1468c-7-7-12-44-12-95 0-76-2-83-20-83-30 0-98-30-104-45-3-8-6-263-7-566-1-577-2-568 40-569 8 0 35 19 61 43 26 23 102 80 169 126 139 95 127 95 198-1 46-63 65-73 94-50 33 28 21 55-74 168-45 54-111 136-145 181s-71 85-82 88c-25 8-50-10-50-35 0-14 73-127 121-186 7-8-2-19-28-35-21-13-74-49-118-81s-83-58-87-58c-5 0-8 119-8 265s1 265 3 265c1 0 29 5 62 10 33 6 111 14 173 20 63 5 121 15 129 21 12 11 14 47 11 227-4 261 5 247-144 237l-101-7-7 32c-3 18-6 51-6 74 0 44-13 66-40 66-9 0-21-5-28-12zm236-310-3-73-45-2c-51-3-194-22-227-30-22-5-23-3-23 71 0 42 3 76 8 77 4 0 54 6 112 14 58 7 122 13 143 14l38 1zm2-198c0-40 0-40-37-40-21 0-81-7-133-15-127-20-120-21-120 24v39l103 12c56 6 109 13 117 15 8 1 27 3 43 4 25 1 27-2 27-39z"/>
    <path d="m1153 1246c-162-22-191-35-179-74 10-29 24-30 176-10 74 9 156 17 183 18 33 0 53 6 67 20 24 24 25 34 4 54-20 20-61 19-251-8z"/>
    <path d="m1135 969c-100-10-170-32-185-58-6-12-4-47 5-102 8-46 17-110 20-142 9-82 28-93 136-78 45 6 128 11 184 11 145 0 139-9 136 191-2 138-5 166-18 177-19 14-136 14-278 1zm211-101c-3-13-6-57-6-99v-76l-107-6c-60-4-122-9-138-13l-31-6-15 99c-9 54-14 100-12 103 7 8 106 17 212 19 103 1 103 1 97-21z"/>
  </g>
</svg>
