<?xml version="1.0"?>
<svg xmlns="http://www.w3.org/2000/svg" height="200pt" preserveAspectRatio="xMidYMid meet" viewBox="0 0 200 200" width="200pt">
  <g transform="matrix(.1 0 0 -.1 0 200)">
    <path d="m1061 1885c-67-73-91-145-47-145 9 0 45 28 81 61 65 61 79 91 53 117-22 22-45 13-87-33z"/>
    <path d="m562 1878c-31-31-5-65 86-107 43-20 54-22 67-11 9 8 15 25 13 39-2 20-16 33-63 58-65 35-85 39-103 21z"/>
    <path d="m975 1705c-266-29-377-59-383-101-6-40 21-49 96-31 37 9 93 19 125 23l57 7v-39c0-22-3-55-6-75-6-35-8-36-66-47-69-13-88-25-88-58 0-30 30-38 99-26l51 9v-78c0-42 2-84 5-91 4-11-22-16-122-26-179-17-425-59-441-76-9-8-11-22-7-35 8-27 44-27 225-2 74 11 169 22 210 26l75 6-80-76c-97-93-245-207-357-277-126-78-202-129-215-146-17-21 1-42 36-42 92 1 449 249 661 461l45 45 150-88c191-113 543-291 639-323 84-28 148-32 166-10 26 32 7 47-105 85-138 47-357 152-589 283l-180 102 70 6c38 4 167 10 287 14 169 6 221 11 233 22 19 19 18 29-6 53-16 16-33 20-82 20-95 0-448-19-490-26l-38-6v96 96h76c87 0 114 11 114 45 0 37-32 49-117 41l-73-7v79 79l77 7c42 3 96 6 120 6 56 0 83 14 83 43 0 51-36 56-255 32z"/>
    <path d="m882 908c-7-7-12-43-12-93v-82l-85-18c-127-26-120-16-118-202 2-87-2-214-8-283-10-121-10-125 11-142 16-13 27-15 50-7 32 12 100 81 100 103 0 21-27 38-50 31-19-6-20-2-20 68v74l38 7c20 3 114 6 207 7 94 0 181 4 194 8 35 10 49 36 33 62-15 24-10 94 14 213 13 62 13 71-2 94-16 24-18 25-103 18-47-3-107-9-133-12l-48-7v75c0 75-9 98-40 98-9 0-21-5-28-12zm263-260c-4-18-9-36-11-39s-61-9-131-12c-70-4-156-13-190-20l-63-14v28c0 15 6 29 14 32s74 15 147 27c74 12 141 23 149 24 8 2 32 4 53 5 38 1 39 1 32-31zm-20-158v-30h-126c-69 0-154-3-188-6-57-6-61-5-61 13 0 19 10 22 118 33 64 6 124 13 132 15 8 1 40 3 70 4 55 1 55 1 55-29z"/>
    <path d="m1260 370c-47-50-86-95-88-99-6-18 28-33 60-26 38 9 145 114 155 153 7 28-6 55-28 60-8 1-52-38-99-88z"/>
    <path d="m882 318c-37-37 1-72 141-127 210-81 465-125 498-85 18 22 0 47-42 56-19 4-90 20-159 34-127 27-294 80-362 115-43 22-59 24-76 7z"/>
  </g>
</svg>
