<?xml version="1.0"?>
<svg xmlns="http://www.w3.org/2000/svg" height="200pt" preserveAspectRatio="xMidYMid meet" viewBox="0 0 200 200" width="200pt">
  <g transform="matrix(.1 0 0 -.1 0 200)">
    <path d="m1343 1878c-4-7-7-79-5-159l3-146-133-19c-73-10-150-17-170-16-56 3-65-22-38-101 11-34 27-104 36-156 18-112 27-131 60-131 42 0 49 34 30 144-9 53-21 108-26 122-6 15-9 28-7 30s91 15 198 29 226 30 264 35c39 5 121 10 183 10h112l-28-57c-50-99-83-193-77-213 10-30 50-25 74 9 12 16 50 91 86 167 57 120 65 142 55 163l-11 23-212-6c-117-4-232-8-257-9l-45-2-5 135c-3 74-9 141-14 148-9 16-62 16-73 0z"/>
    <path d="m483 1848c-6-7-13-33-17-58-10-62-52-182-94-265-45-91-96-165-166-242-31-33-56-66-56-72s9-15 20-21c74-40 258 189 339 422 9 26 19 49 22 50 4 2 34-38 67-88 65-97 230-279 262-289 27-9 60 12 60 37 0 12-37 59-96 121-95 98-218 270-257 357-11 25-25 48-31 52-17 12-42 9-53-4z"/>
    <path d="m1425 1329c-71-11-149-19-172-19-63-1-67-11-54-147 12-139 28-417 40-738 5-126 12-238 16-247 14-34 63-46 165-37 52 5 180 8 283 7 156-2 190 0 198 12 7 10 8 76 4 185-8 206-20 311-40 342-15 22-21 23-140 23-72 0-181-8-261-20-75-11-138-19-140-17s-6 53-10 114l-7 110 134 12c181 16 196 19 204 39 4 9 11 98 16 197 9 166 9 180-7 192-23 17-70 15-229-8zm147-191c-2-68-5-124-6-125s-48-6-106-13c-58-6-117-13-131-16l-27-5-6 88c-4 48-10 102-12 119l-6 32 69 11c67 11 182 27 214 30 14 1 16-13 11-121zm229-583c4-38 10-125 14-192l7-122-154-1c-84 0-191-4-238-9-47-4-87-6-90-4-5 4-18 344-14 351 8 13 324 50 409 48l60-1z"/>
    <path d="m509 1309c-6-13-9-56-7-114l4-94-73-17c-110-26-109-23-95-137 26-208 12-449-43-769-17-98-14-124 16-133 26-8 50 8 148 100 75 70 258 201 268 191 2-2 39-62 82-133 82-134 116-168 145-144 9 7 16 23 16 35 0 21-181 322-258 429-27 37-40 47-63 47-46 0-48-37-6-100l35-52-91-61c-51-33-116-81-146-106-39-33-52-40-48-26 11 36 47 318 47 367 0 41 3 48 23 52 12 3 34 7 49 10 15 4 80 10 144 16 80 6 122 14 132 24 12 12 16 56 20 213 4 189 4 199-16 216-18 17-28 17-97 8-42-6-83-11-91-11-11 0-14 18-14 86 0 47-5 94-10 105-14 26-56 25-71-2zm211-318v-60l-42-5c-24-3-72-7-108-10s-81-8-101-12c-36-6-36-6-43 36-3 22-4 45-1 50 4 6 132 33 255 53 14 2 28 5 33 6 4 0 7-26 7-58zm0-160c0-5-3-23-6-40-6-28-10-31-43-31-32 0-99-9-198-25-33-6-33-6-33 34 0 46 0 46 110 60 90 12 170 13 170 2z"/>
  </g>
</svg>
