<?xml version="1.0"?>
<svg xmlns="http://www.w3.org/2000/svg" height="200pt" preserveAspectRatio="xMidYMid meet" viewBox="0 0 200 200" width="200pt">
  <g transform="matrix(.1 0 0 -.1 0 200)">
    <path d="m1312 1818c-9-24-42-95-73-158-42-83-54-118-47-127 39-47 129 60 188 223 25 72 17 104-26 104-21 0-29-8-42-42z"/>
    <path d="m600 1835c-47-57 87-315 163-315 40 0 35 30-18 120-25 42-54 103-65 135-26 74-52 94-80 60z"/>
    <path d="m1778 1394c-3-3-203-12-445-19-327-10-496-20-668-39-126-14-290-29-364-33-122-7-135-10-148-30-13-19-12-24 7-43 21-21 28-22 144-16 66 4 192 14 279 22 87 9 160 14 163 11 8-8-41-101-107-203-63-97-71-123-39-131 12-3 20-14 20-27 0-11 4-68 10-126 5-58 14-205 19-327 11-231 22-308 50-322 18-10 747 4 799 15 55 11 61 32 50 164-5 63-10 258-11 432-1 228-5 320-14 329-8 8-38 10-100 6-48-3-187-11-308-17s-257-14-302-18c-46-5-83-7-83-6s15 27 34 58 47 86 62 121c16 36 35 67 43 70 7 3 181 10 385 15 408 11 664 26 684 42 19 16 14 56-7 68-21 10-143 14-153 4zm-332-470c-3-26-6-75-6-110v-64h-71c-39 0-112-4-162-10-51-5-168-14-262-20-93-6-180-13-192-16-27-5-30 4-38 122-7 90-7 91 17 97 12 4 129 12 258 18s273 14 320 18c156 15 144 18 136-35zm-4-341c3-43 3-80 1-82-2-3-121-10-266-17-144-7-301-15-349-19l-88-8v44c0 24-3 60-6 80l-6 35 223 13c123 7 251 16 284 21 33 4 92 8 131 9l72 1zm13-274c3-50 5-92 3-95-6-5-691-22-700-17-5 2-8 42-8 88v83l83 7c112 8 401 22 518 24l96 1z"/>
  </g>
</svg>
