<?xml version="1.0"?>
<svg xmlns="http://www.w3.org/2000/svg" height="200pt" preserveAspectRatio="xMidYMid meet" viewBox="0 0 200 200" width="200pt">
  <g transform="matrix(.1 0 0 -.1 0 200)">
    <path d="m870 1829c-365-132-364-131-369-154-10-54 56-49 265 21 72 24 135 44 138 44s6-58 6-130c0-71-1-130-3-130-68 0-441-62-456-76-19-17-6-60 20-67 12-3 60 1 108 8 146 24 311 42 311 34 0-19-105-146-199-239-156-155-288-261-431-345s-159-97-140-120c21-25 72-17 154 25 119 61 198 117 341 243 128 112 193 178 267 267l38 45v-176-175l-167-23c-220-29-221-29-237-52-15-22-18-6 49-314 24-110 49-236 56-280 6-44 16-85 21-91 16-22 72-22 323-2 147 12 296 18 363 15 87-3 116-1 127 9 7 8 17 44 22 81 10 85 11 599 0 635-15 55-36 60-218 48-90-5-183-13-206-16l-43-7v194 194l98-95c145-143 212-190 503-354 139-78 191-100 220-91 21 7 32 32 21 51-8 14-137 92-329 196-129 71-286 192-382 294-44 48-81 90-81 94 0 8 256 20 416 20 106 0 124 7 124 46 0 46-11 48-315 40l-285-7v144c0 129 2 146 18 152 9 4 49 18 87 32 84 30 95 38 95 69 0 21-26 45-47 43-4 0-132-45-283-100zm523-1056c4-38 7-91 7-119v-51l-177-6c-168-7-454-29-535-42l-36-6-17 78c-9 43-20 92-25 109l-7 30 66 12c36 6 113 16 171 22s157 17 220 24 163 14 221 15l106 1zm3-324c-3-34-6-92-6-129v-67l-192-6c-106-4-256-14-333-22s-143-15-146-15-9 30-13 68c-3 37-13 92-21 122s-12 56-10 58c12 12 469 49 634 51l94 1z"/>
  </g>
</svg>
