<?xml version="1.0"?>
<svg xmlns="http://www.w3.org/2000/svg" height="200pt" preserveAspectRatio="xMidYMid meet" viewBox="0 0 200 200" width="200pt">
  <g transform="matrix(.1 0 0 -.1 0 200)">
    <path d="m935 1748c-93-10-195-20-225-21s-60-6-67-10c-16-10-12-812 4-828 7-7 32-7 84 1 45 7 254 14 526 17l452 5-16-68c-51-226-124-404-208-507-36-45-52-57-74-57-61 0-65-56-7-84 58-27 70-22 140 67 112 138 181 303 241 570 24 110 25 121 10 143l-15 24h-375-375v64 63l102 6c82 4 105 9 115 23 17 24 16 31-7 54-17 17-29 19-118 13l-99-6-6 48c-4 26-7 62-7 80v32l120 8c85 5 125 11 135 22 20 20 19 36-5 58-17 15-32 16-140 10l-120-7v99 100l83 6c45 4 105 7 134 7 28 0 59 3 67 6 26 10 38 41 26 64-10 18-20 20-108 19-53-1-173-10-267-21zm-25-187v-99l-32-5c-18-4-61-9-95-13l-63-7v96 96l33 6c17 3 59 9 92 14s61 9 63 10c1 0 2-43 2-98zm12-267c2-45-1-78-7-80-5-1-49-5-96-7l-86-5-6 72c-3 39-4 72-3 73 3 3 134 20 168 22 26 1 26 0 30-75zm11-231c3-32 5-59 3-61-2-1-49-5-105-9l-101-6v66 67h99 98z"/>
    <path d="m1318 635c-7-16-8-29-1-37 62-82 131-159 145-164 26-8 48 13 48 45 0 18-21 51-67 104-73 85-104 98-125 52z"/>
    <path d="m1020 610c-10-18-5-32 31-91 76-127 97-151 127-147 22 2 28 9 30 33 4 45-112 219-150 223-19 2-30-3-38-18z"/>
    <path d="m436 598c-24-38-106-261-106-290 0-34 31-54 60-38 11 6 20 12 20 14 0 1 23 62 50 135 28 73 50 143 50 155 0 47-49 62-74 24z"/>
    <path d="m698 582c-46-10-29-83 45-194 43-64 69-78 98-52 26 23 24 34-12 84-18 24-45 69-60 101-29 58-41 68-71 61z"/>
  </g>
</svg>
