<?xml version="1.0"?>
<svg xmlns="http://www.w3.org/2000/svg" height="200pt" preserveAspectRatio="xMidYMid meet" viewBox="0 0 200 200" width="200pt">
  <g transform="matrix(.1 0 0 -.1 0 200)">
    <path d="m360 1739c-41-5-104-10-139-13-35-2-68-9-73-14-7-7-6-71 1-194 6-100 11-265 11-364 0-147 3-184 15-194 27-23 91-22 230 4 77 14 172 28 211 32l71 7 6-33c13-62 7-296-9-391-16-93-68-254-85-264-5-3-18-1-30 5-11 7-32 9-45 6-37-10-32-48 10-80 79-60 115-53 153 31 78 176 103 307 103 538-1 181-9 238-38 267-19 19-25 20-119 9-54-6-115-14-135-18l-38-6v72 71h76c86 0 114 11 114 43 0 39-19 47-107 47h-83v65 65h65c54 0 66 3 75 20 25 46-26 76-106 64l-44-6v33c0 19-3 51-6 72l-7 37h74c51 0 82 5 97 16 26 18 29 46 6 65-19 16-152 20-254 8zm0-158v-68l-56-7c-31-4-58-5-60-4-1 2-4 33-6 68l-3 65 40 6c90 14 85 17 85-60zm10-220v-58l-37-7c-80-13-81-12-85 54-3 67-3 67 75 69l47 1zm2-231 3-80-35-6c-19-3-47-8-62-10l-28-6v86c0 94-2 92 82 95l36 1z"/>
    <path d="m1182 1736c-57-6-106-8-108-4-9 14-41 9-55-8-10-13-11-47-2-182 11-171 8-244-22-597-23-264-60-403-157-583-54-103-58-135-16-140 33-4 57 21 106 107 82 147 141 367 158 591 6 90 7 93 20 65 66-150 120-257 159-316 104-155 309-327 510-427 116-57 165-64 165-22 0 24-18 38-165 125-172 103-225 143-319 239-121 125-165 196-272 444-30 69-54 127-54 128 0 11 216 14 321 4 179-16 175-20 183 142 20 410 20 420 0 435-22 16-299 16-452-1zm375-178c-16-255-20-309-27-313-3-2-49 0-101 5s-145 5-208 2l-113-7 6 67c4 36 2 123-4 193-7 70-10 128-8 131 10 9 182 21 317 23l144 1z"/>
    <path d="m482 788c-20-20-14-40 41-123 52-80 75-97 102-75 25 21 17 52-35 133-38 60-54 77-73 77-12 0-28-5-35-12z"/>
    <path d="m308 746c-9-21-5-34 27-93 57-105 91-133 123-101 20 20 15 36-39 129-42 73-56 89-75 89-16 0-28-8-36-24z"/>
    <path d="m192 708c-18-18-15-51 13-124 31-83 41-96 74-92 36 4 38 38 6 123-37 97-63 123-93 93z"/>
    <path d="m82 673c-5-10-12-56-15-103s-9-99-13-116c-5-25-1-37 14-52 29-29 59-18 72 27 17 61 24 215 11 239-14 27-57 29-69 5z"/>
  </g>
</svg>
