<?xml version="1.0"?>
<svg xmlns="http://www.w3.org/2000/svg" height="200pt" preserveAspectRatio="xMidYMid meet" viewBox="0 0 200 200" width="200pt">
  <g transform="matrix(.1 0 0 -.1 0 200)">
    <path d="m1296 1884c-9-8-23-39-31-69-39-132-153-248-413-419-58-38-72-53-70-70s9-21 41-20c55 2 152 55 269 148 119 95 174 154 214 231 16 30 31 55 34 55s47-39 99-86c175-161 391-304 458-304 35 0 52 43 28 70-10 11-23 20-30 20-19 0-180 104-268 174-82 65-233 207-274 259-25 31-35 33-57 11z"/>
    <path d="m485 1874c-79-12-295-37-316-36-15 0-34-7-44-18-15-17-15-39 0-342 19-393 32-554 45-579 19-35 40-38 210-29 91 5 228 12 304 16l139 7-6-139c-6-113-30-290-63-452-5-24-5-24-47 10-50 41-69 49-87 38s-5-38 54-112 89-94 120-81c26 13 39 51 60 178 8 50 24 143 35 208 15 84 21 163 21 267 0 179-2 183-89 176-31-3-120-8-198-11l-143-6v94c0 109-10 101 123 112 100 9 132 38 90 80-14 15-29 16-97 10-45-3-91-9-103-12-25-6-29 11-36 124-3 61-3 61 26 67 16 3 58 6 93 6 51 0 68 4 84 20 24 24 24 30 7 55-13 16-25 17-115 13l-100-6-4 121c-2 67-3 123-3 124 1 2 48 5 106 8 138 8 148 11 155 40 11 45-9 55-110 54-50-1-100-3-111-5zm-127-231 3-120-72-10c-50-7-72-6-74 1-2 6-6 61-10 122l-6 112 68 9c37 6 73 9 78 8 6-1 11-52 13-122zm6-245c3-18 7-61 9-95l3-61-35-6c-20-3-52-6-72-6h-36l-6 68c-12 121-12 120 31 125 99 10 101 10 106-25zm20-264c3-9 6-51 6-95v-79h-47c-27 0-58-3-70-6-23-6-27 6-36 133l-4 52 36 4c85 9 109 7 115-9z"/>
    <path d="m1495 1389c-153-15-449-60-462-71-21-17-16-58 8-66 12-5 72-1 138 9 74 10 118 13 122 7 7-10 20-110 16-114-6-6-214-38-238-36-15 0-34-7-44-18-17-19-17-23 3-92 11-40 26-99 32-130 17-86 26-92 131-83l87 6-15-68c-37-163-161-428-240-514-46-49-53-62-43-74 7-8 28-15 48-15 29 0 43 8 77 43 49 51 123 194 190 364l48 121 50-86c77-135 159-252 220-313 94-96 196-156 244-144 41 10 25 44-47 98-36 26-91 74-123 105-96 93-269 368-292 464-7 26-6 26 52 33 166 17 229 27 242 38 11 10 13 38 8 152-5 129-7 141-28 158-14 11-32 16-48 13-14-3-71-6-126-8l-100-3-7 60c-3 33-5 61-4 62s53 7 116 14c63 6 121 16 128 21 22 18 14 58-14 68-14 6-28 9-32 9-4-1-47-6-97-10zm120-342c4-18 5-52 3-77-3-51-6-52-146-64l-78-7 7 73c4 40 8 78 8 85 1 15 29 20 123 22l77 1zm-299-24c-3-21-6-54-6-73s-4-40-8-47-37-15-73-19l-66-6-18 71c-9 40-14 75-11 78 6 7 130 30 170 32 16 1 18-4 12-36z"/>
    <path d="m588 659c-10-5-18-20-18-33 0-25 85-131 113-141 23-9 47 11 47 40 0 26-46 93-85 123-31 25-33 25-57 11z"/>
    <path d="m282 598c-20-20-14-46 33-137 53-103 87-141 113-125 32 20 24 56-36 164-58 106-82 126-110 98z"/>
    <path d="m432 598c-18-18-15-36 19-92 37-60 78-106 95-106 16 0 44 28 44 44 0 8-22 48-50 90-38 59-55 76-73 76-13 0-28-5-35-12z"/>
    <path d="m141 578c-17-43-63-307-56-327 7-24 31-34 55-21 30 16 90 313 70 350-15 28-58 26-69-2z"/>
  </g>
</svg>
