<?xml version="1.0"?>
<svg xmlns="http://www.w3.org/2000/svg" height="200pt" preserveAspectRatio="xMidYMid meet" viewBox="0 0 200 200" width="200pt">
  <g transform="matrix(.1 0 0 -.1 0 200)">
    <path d="m672 1871c-170-7-181-10-182-54 0-10 9-68 20-130 22-124 52-379 45-386-11-10-341-37-352-28-7 5-24 6-38 3-22-6-25-12-25-49 0-49 28-242 41-274 12-32 56-31 71 1 8 19 7 47-7 121-9 53-15 99-12 102s120 16 259 29c234 23 719 42 1117 43l124 1-52-54c-53-57-66-98-35-110 23-9 71 24 136 91 65 69 81 97 73 124-11 34-46 39-254 32l-201-6 6 69c3 38 16 147 30 242 13 96 21 185 18 199-4 13-18 29-31 34-26 10-478 9-751 0zm684-143c-13-118 9-106-208-110-239-4-228 4-228-168v-118l-37-6c-21-3-82-8-135-12l-97-6-5 33c-3 19-11 75-16 124-12 103-38 272-46 297-7 22 19 24 445 26l334 2zm-33-255c-2-32-6-77-9-100l-5-43h-150-149v100 100h158 159z"/>
    <path d="m1100 1079c-171-14-433-50-460-62l-25-12 3-155c4-136-18-453-34-499-2-8-9-70-15-138-11-136-6-153 37-153 30 0 44 27 44 82 0 36 17 189 36 316 3 22 10 32 22 32 9 0 76 7 147 16 72 8 217 18 323 21l192 6v-172c0-94-3-171-7-171-3 0-60 14-125 31s-125 28-133 25c-23-9-18-33 13-55 36-25 255-101 293-101 51 0 53 12 45 390-7 373-20 575-37 596-13 16-144 17-319 3zm250-113c0-18 3-47 6-63l6-30-134-7c-73-4-215-18-315-32-100-13-189-24-197-24-13 0-16 13-16 69v69l53 7c148 21 394 43 490 44l107 1zm10-271v-85h-163c-141 0-211-5-454-35l-43-5v43c0 23 3 58 6 78l6 35 197 23c108 12 203 24 211 26 8 1 66 3 128 4l112 1z"/>
  </g>
</svg>
