<?xml version="1.0"?>
<svg xmlns="http://www.w3.org/2000/svg" height="200pt" preserveAspectRatio="xMidYMid meet" viewBox="0 0 200 200" width="200pt">
  <g transform="matrix(.1 0 0 -.1 0 200)">
    <path d="m858 1889c-16-9-18-27-18-138v-128l-79-12c-97-14-269-56-316-75-27-12-35-21-35-40 0-46 27-49 157-16 187 47 594 100 764 100 80 0 99 3 112 18 20 22 22 43 5 60s-213 15-363-3c-66-8-127-15-136-15-13 0-17 19-23 118-5 93-10 120-23 130-20 14-23 14-45 1z"/>
    <path d="m940 1475c-120-14-224-41-241-61-12-15-12-18 20-179 34-173 6-155 245-155 200 0 206 1 232 23 24 21 29 36 40 123 7 54 13 131 14 171 0 61-3 74-19 83-26 13-159 11-291-5zm220-102c0-15-5-66-11-114l-11-87-144-7c-79-4-149-5-157-2s-19 36-27 79c-7 40-16 83-21 95-10 26-5 28 98 42 105 15 137 18 211 19 61 2 62 2 62-25z"/>
    <path d="m1170 1000c-150-8-336-28-635-66-167-22-206-30-237-50-42-27-44-38-28-138 38-235 61-446 56-505-6-52-4-67 10-82 39-43 74-6 81 84 6 65 2 98-42 396-14 95-24 176-21 179 7 7 316 45 571 71 110 11 320 24 466 27l266 7 7-184c3-101 9-249 12-328l6-143-47 27c-42 25-48 26-62 12s-14-19 4-49c24-41 106-98 143-98 51 0 53 12 46 232-3 112-9 289-12 393-5 152-9 194-22 208-13 15-36 17-221 15-113 0-267-4-341-8z"/>
    <path d="m1115 780c-156-8-336-32-414-56-78-23-80-32-47-237 16-95 32-177 37-183 6-7 103-9 311-6 282 4 304 5 323 23s20 35 23 228l4 208-23 17c-13 9-35 15-49 14-14 0-88-4-165-8zm142-236c-4-81-8-148-9-149-2-2-111-5-244-7l-241-3-22 123c-13 68-21 125-19 127 16 17 311 52 447 54l94 1z"/>
  </g>
</svg>
