<?xml version="1.0"?>
<svg xmlns="http://www.w3.org/2000/svg" height="200pt" preserveAspectRatio="xMidYMid meet" viewBox="0 0 200 200" width="200pt">
  <g transform="matrix(.1 0 0 -.1 0 200)">
    <path d="m1006 1889c-54-5-138-15-187-22-52-8-93-9-98-4s-19 7-32 5c-25-3-26-6-54-120-11-43-41-107-86-185-38-65-68-125-67-133 2-8 15-16 30-18 19-2 35 6 60 32 45 47 118 176 144 255 18 56 25 66 50 73 33 8 307 38 312 33 10-10-52-134-112-222-99-145-100-148-93-166 9-25 51-21 85 8 81 68 200 286 209 383 5 54 3 61-18 76-13 9-28 15-34 15-5-1-54-6-109-10z"/>
    <path d="m1288 1429c-48-5-212-29-364-54-196-33-280-43-287-36-6 6-21 11-34 11-44 0-47-30-19-241 14-107 28-225 31-264 9-88 15-98 63-114 33-11 63-11 183 3 79 8 203 20 274 26 202 16 303 31 317 48 8 9 15 64 19 146 3 72 12 202 19 289 13 143 12 159-2 174-21 20-86 24-200 12zm117-146c-11-120 5-107-162-122-81-7-153-15-160-18-10-4-13 14-13 80v85l31 7c39 9 233 32 277 34l33 1zm-425-72v-78l-92-12c-51-7-118-19-148-26-30-8-56-13-58-11-7 7-24 147-19 152 8 8 246 52 285 53l32 1zm398-233-3-103-45-6c-25-4-91-10-147-14l-103-7v105 105l98 9c53 6 121 11 150 12l53 1zm-388-38v-99l-32-5c-63-10-201-26-224-26-20 0-23 6-29 58-3 31-8 73-10 93l-5 36 58 12c74 16 158 28 205 30l37 1z"/>
    <path d="m1562 558c-33-33-2-76 128-174 36-27 89-70 118-96 53-49 78-58 100-36 21 21 13 56-20 88-18 18-86 72-150 121-64 48-119 93-123 99-8 14-38 13-53-2z"/>
    <path d="m450 538c-6-7-33-60-61-118s-73-142-101-187c-41-67-48-85-39-101 12-23 35-34 56-25 23 8 79 99 146 237 63 128 73 178 40 196-25 13-28 13-41-2z"/>
    <path d="m1142 518c-31-31-6-64 180-231 87-77 115-90 138-62 22 27 1 62-76 132-42 37-103 92-134 121-57 52-85 63-108 40z"/>
    <path d="m742 498c-26-26-11-65 79-196 70-103 95-132 113-132 26 0 46 17 46 39 0 9-43 80-96 159-94 140-114 158-142 130z"/>
  </g>
</svg>
