<?xml version="1.0"?>
<svg xmlns="http://www.w3.org/2000/svg" height="200pt" preserveAspectRatio="xMidYMid meet" viewBox="0 0 200 200" width="200pt">
  <g transform="matrix(.1 0 0 -.1 0 200)">
    <path d="m1072 1928c-6-6-12-17-12-23s-44-85-97-176c-54-90-107-184-117-207-18-40-18-43-1-62 16-18 17-42 10-372-8-414-11-400 76-380 30 6 146 28 259 48 178 31 232 37 413 41l207 5v-183c0-101-3-241-7-310l-6-127-31 2c-27 1-31-2-31-24 0-49 103-91 138-55 17 16 26 182 30 546 2 168-1 209-13 223-13 17-34 18-265 13-230-4-267-7-458-40-115-20-213-39-218-43-6-4-9 16-7 53l3 58 118 21c64 12 193 27 285 34s173 17 180 22c21 18 14 57-13 70-31 14-291-5-445-33-58-10-109-19-113-19-5 0-7 19-5 43l3 42 89 12c49 6 189 22 310 34 122 12 227 27 234 32 10 8 12 60 10 238-3 211-4 229-23 249-18 20-26 22-90 15-75-7-419-69-473-84-18-5-31-7-29-3s27 46 56 94c104 174 125 250 71 256-14 2-31-3-38-10zm438-421v-84l-152-12c-84-7-209-19-278-26-68-8-125-13-126-12s-5 26-9 54c-7 51-6 53 22 64 50 19 452 95 516 98l27 1zm0-217c0-48 25-41-265-75-121-14-237-28-258-32l-38-6 3 54 3 54 50 8c68 11 344 34 433 36l72 1z"/>
    <path d="m465 1369c-267-22-341-31-354-44-26-25 32-662 62-691 8-7 80-9 229-5 175 5 220 9 231 21 12 12 16 83 21 357 6 304 5 343-10 357-17 17-27 17-179 5zm98-361c-3-156-6-284-7-284 0-1-71-4-157-8l-155-6-17 127c-9 71-21 193-27 272-13 164-15 160 65 162 28 1 95 5 150 9 55 3 112 7 127 8l27 2z"/>
    <path d="m1427 573c-22-21-2-54 73-122 67-61 85-72 105-67 19 5 25 13 25 34 0 28-36 69-118 135-32 26-71 35-85 20z"/>
    <path d="m672 537c-29-34-172-360-172-391 0-44 44-61 72-28 9 9 34 62 58 117 23 55 60 140 83 188 31 68 38 93 30 105-13 22-56 27-71 9z"/>
    <path d="m1188 529c-31-18-20-48 45-122 95-108 106-119 124-115 24 5 37 31 30 61-7 26-155 187-172 187-5 0-18-5-27-11z"/>
    <path d="m922 478c-7-7-12-20-12-30 0-17 135-174 164-190 36-20 66 24 45 64-20 37-151 168-169 168-9 0-21-5-28-12z"/>
  </g>
</svg>
