<?xml version="1.0"?>
<svg xmlns="http://www.w3.org/2000/svg" height="200pt" preserveAspectRatio="xMidYMid meet" viewBox="0 0 200 200" width="200pt">
  <g transform="matrix(.1 0 0 -.1 0 200)">
    <path d="m942 1897c-6-7-12-53-14-102l-3-90-45-6c-25-3-107-14-184-24-135-18-166-29-166-60 0-19 28-45 49-45 9 0 79 9 156 20s152 20 168 20h27v-99-99l-62-11c-35-6-82-13-105-17-48-7-77-33-67-58 11-29 41-33 136-18 49 8 91 12 93 10s7-49 11-106c6-96 6-102-12-102-139-1-593-89-652-126-15-10-22-23-20-36 6-43 29-44 170-10 305 72 506 92 1016 100l394 7 19 23c23 29 11 59-28 68-31 8-662-3-739-12l-51-6-7 102c-4 57-3 106 1 111 4 4 62 13 128 20 66 6 126 16 133 22 6 5 12 20 12 33 0 43-35 49-165 33l-115-15v98c0 53 4 99 8 102 5 3 90 8 188 12 187 7 224 15 224 53 0 41-20 44-225 37l-195-6v75c0 42-5 85-10 96-12 22-52 25-68 6z"/>
    <path d="m1015 925c-55-6-104-10-108-7-17 9-54-9-64-31-20-44-122-143-207-203-64-44-86-65-86-81 0-49 93-32 176 32 18 14 36 25 40 25s47-39 95-86l88-85-77-50c-156-102-284-156-452-194-84-19-158-39-164-45-19-19 8-45 50-48 54-5 207 16 279 39 81 25 229 101 349 179 81 52 101 61 115 52 64-46 181-108 266-141 242-95 525-121 502-46-6 18-50 33-132 45-195 29-401 100-533 184l-44 27 59 62c67 71 201 245 231 301 20 37 19 64-2 78-17 12-269 7-381-7zm265-80c0-15-153-205-199-248-42-39-54-46-69-38-28 15-172 151-172 163 0 5 16 30 36 56l35 47 97 11c105 12 272 17 272 9z"/>
  </g>
</svg>
