<?xml version="1.0"?>
<svg xmlns="http://www.w3.org/2000/svg" height="200pt" preserveAspectRatio="xMidYMid meet" viewBox="0 0 200 200" width="200pt">
  <g transform="matrix(.1 0 0 -.1 0 200)">
    <path d="m712 1948c-8-8-12-52-12-133v-122l-87-12c-100-15-136-32-131-63 6-38 29-43 131-27l95 15 6-36c3-19 6-101 6-182 0-145 0-148-22-152-13-3-90-14-173-26-274-37-367-56-382-76-18-24-17-31 10-48 20-13 50-11 287 24 375 54 576 70 1060 82 368 9 427 12 438 26 16 22 15 37-5 58-16 15-46 16-374 12l-356-5 5 186c2 102 6 188 8 190s58 6 125 10c108 5 123 8 135 26s11 24-3 44c-16 23-19 23-144 19l-129-5v88c0 89-11 119-45 119s-45-30-45-121c0-84-1-89-22-93-43-8-292-35-295-32-2 1-6 52-9 112-4 60-11 115-17 122-12 15-39 16-55 0zm401-489-6-187-61-5c-34-4-100-9-148-13l-88-7v149c0 82-3 166-6 186-6 36-5 37 30 43 68 13 271 32 278 26 4-4 5-90 1-192z"/>
    <path d="m970 1130c-12-12-20-33-20-54 0-40-4-42-100-51-99-10-243-36-257-47-20-16-16-79 17-256 17-90 30-175 30-188 0-33 29-115 49-138 13-15 24-17 66-11 28 3 179 10 337 14 291 7 318 11 318 47 0 8 8 22 18 32 13 13 21 41 25 93 4 41 17 156 29 256 20 172 20 183 4 208l-17 26-215-7-214-7v34c0 58-36 83-70 49zm425-237c-4-43-8-79-10-81-5-5-319-19-325-14-3 2-6 37-8 77-5 89-15 84 168 88 69 1 138 4 154 5l28 2zm-435-31v-78l-89-12c-49-7-107-18-129-26l-40-14-17 85c-9 47-14 88-10 91 8 8 172 29 238 31l47 1zm405-254c-4-57-8-104-9-105 0 0-62-3-138-5l-136-3-7 85c-3 47-8 93-11 102-6 21 15 25 179 27l129 1zm-391 40c3-24 8-68 11-99l6-56-73-7c-40-3-96-9-124-12l-51-6-7 53c-4 30-9 70-13 90-5 35-4 36 40 48 46 13 133 28 179 30 24 1 27-3 32-41z"/>
    <path d="m1227 313c-15-15-5-51 21-75 15-14 78-58 140-98 61-39 112-76 112-81 0-14 40-30 60-24 28 9 35 48 15 79-9 14-60 53-113 87-53 33-116 74-140 90-40 28-81 37-95 22z"/>
    <path d="m750 254c-25-26-78-71-117-101-79-58-89-82-49-108 29-19 40-15 121 45 49 37 165 152 165 165 0 3-5 15-10 26-19 34-61 24-110-27z"/>
  </g>
</svg>
