<?xml version="1.0"?>
<svg xmlns="http://www.w3.org/2000/svg" height="200pt" preserveAspectRatio="xMidYMid meet" viewBox="0 0 200 200" width="200pt">
  <g transform="matrix(.1 0 0 -.1 0 200)">
    <path d="m806 1804c-76-8-154-18-173-23-25-7-41-6-54 2-29 18-54-3-53-44 0-19 10-101 22-184 12-82 26-203 30-268 8-103 12-120 32-142l24-25 152 6 152 7 7-56c4-30 4-60 0-66-3-6-23-11-43-12-64-2-134-23-149-45-12-19-11-24 5-44 17-21 22-22 68-12 114 25 124 25 125 0 0-13 4-73 7-135l7-111-90-7c-203-15-554-73-582-96-20-17-16-47 8-59 16-9 48-7 137 9 209 37 330 49 802 81 278 19 475 36 490 44 29 13 37 40 20 61s-119 19-420-5c-135-11-254-20-265-20-19 0-20 6-19 133l2 132 111 5c114 5 130 11 131 50 0 33-22 40-137 40h-113v29c0 16-3 43-6 60l-6 31h132c142 0 186 12 195 55 4 19 19 236 32 476l6 105-28 22c-26 21-36 22-224 21-108-1-258-7-335-15zm490-126c-3-29-6-72-6-95v-43h-144-143l-7 46c-3 26-6 69-6 95v49h156 157zm-386-47v-89l-77-7c-43-3-100-10-128-15-27-5-53-5-56-2-3 4-11 43-18 86-13 94-15 92 79 101 36 3 72 8 80 9 8 2 39 4 68 5l52 1zm14-198c2-10 7-62 11-115l7-98h-60c-32 0-93-3-134-6l-75-7-7 108c-4 59-6 109-4 111 5 5 157 21 215 23 32 1 43-3 47-16zm352-44c-3-34-6-84-6-110v-49h-119-119l-6 73c-4 39-9 89-12 110l-6 37h138 137z"/>
    <path d="m1506 384c-9-8-16-21-16-29 0-18 249-244 278-251 27-7 52 11 52 39 0 11-21 40-47 65-90 84-224 192-238 192-7 0-21-7-29-16z"/>
    <path d="m1158 379c-39-22-22-58 76-156 81-82 97-94 122-91 23 2 30 8 32 31 3 23-12 42-97 127-56 55-104 100-108 100-5 0-16-5-25-11z"/>
    <path d="m435 358c-40-56-135-235-135-255 0-28 33-47 58-34 20 11 138 212 147 252 4 18 1 32-10 43-22 22-41 20-60-6z"/>
    <path d="m730 365c-19-23-6-53 67-149 80-105 116-136 141-120 33 21 24 48-49 144-39 52-80 105-90 118-22 25-51 29-69 7z"/>
  </g>
</svg>
