<?xml version="1.0"?>
<svg xmlns="http://www.w3.org/2000/svg" height="200pt" preserveAspectRatio="xMidYMid meet" viewBox="0 0 200 200" width="200pt">
  <g transform="matrix(.1 0 0 -.1 0 200)">
    <path d="m778 1943c-9-10-21-28-27-41-6-12-39-55-72-94-68-82-65-57-33-253 8-49 18-133 24-185 6-66 15-102 28-120l19-25 239 3c131 2 248 8 261 13 24 9 32 46 13 65-7 7-7 82-1 229 5 121 6 226 3 233-2 7-14 17-26 21-22 8-291-2-384-15l-53-7 40 63c44 67 47 80 31 111-13 24-42 25-62 2zm362-280v-38l-133-2c-72-1-163-6-202-11-75-10-85-6-85 35 0 18 7 23 43 28 104 15 199 23 285 24l92 1zm-8-162-4-38-171-6c-95-3-179-8-188-12-13-5-18 1-21 30-2 21 0 39 6 41 19 7 207 21 296 23l86 1zm-2-154c0-23-2-24-127-30-71-4-154-7-185-7-55 0-58 1-58 24 0 31 10 32 218 34l152 2z"/>
    <path d="m975 1133c-44-1-153-7-243-14-124-8-166-8-177 1-33 27-76-19-61-67 9-29 26-186 36-320 5-69 14-131 21-139 8-10 35-14 99-14h88l-5-82c-2-46-6-88-8-94s-39-14-83-17-158-16-253-29c-136-17-177-26-192-41-17-17-17-21-4-40 18-28 32-28 299 3 114 13 210 21 214 17 10-10-69-169-105-209-37-43-39-55-7-69 59-27 139 70 196 236 16 48 19 50 61 56 24 4 103 8 174 10l130 4 5-128c5-112 8-131 25-143 54-40 68-9 64 144l-4 129 185 6c102 4 235 7 296 7 95 0 113 3 127 18 22 24 21 35-3 57-18 17-42 18-317 14l-298-4-3 93-3 92h84c108 0 112 5 121 130 4 52 16 150 26 217 24 149 24 139 0 163-19 19-32 20-212 18-106-1-229-3-273-5zm400-125c-12-76-11-75-77-82-33-3-114-6-179-6h-119v59 60l48 4c26 2 112 4 190 5l144 2zm-459 16c-3-9-6-38-6-65v-49h-57c-32 0-98-5-146-11-49-6-91-8-94-5-6 6-24 118-20 123 3 3 225 20 286 22 36 1 42-2 37-15zm427-256c-3-35-6-64-7-64-1-1-74-4-163-8l-163-7v65 65l43 4c23 2 99 4 169 5l128 2zm-421-17 3-69-142-7c-77-4-146-4-152-1-6 4-11 34-11 66v59l58 6c31 3 66 7 77 9s52 4 92 5l71 1zm228-240v-89l-82-6c-46-3-120-7-165-9l-83-4v78c0 42-3 84-6 93-5 13 10 16 103 19 59 1 136 4 171 5l62 2z"/>
  </g>
</svg>
